<svg xmlns="http://www.w3.org/2000/svg" version="1.1" viewBox="-10.0 -10.0 120.0 120.0">
    <title>Javelin</title>
    <path
        d="m0.019531 96.531c0.78906-7.0781 3.9922-13.75 9.0312-18.789l68.691-68.695c5.0352-5.0312 11.711-8.2422 18.789-9.0273 1.9883-0.21875 3.6719 1.4609 3.4531 3.4531-0.78906 7.0781-3.9922 13.75-9.0312 18.789 0.019531 0 0.17969-0.17969-68.691 68.691-5.0391 5.0391-11.711 8.2422-18.789 9.0312-1.9961 0.21875-3.6719-1.4688-3.4531-3.4531zm92.879-89.43c-4.0312 1.1875-7.7461 3.375-10.738 6.3672l-68.691 68.691c-2.9922 2.9922-5.1797 6.707-6.3672 10.738 4.0312-1.1875 7.7461-3.375 10.738-6.3672l68.691-68.691c2.9922-2.9922 5.1797-6.707 6.3672-10.738zm-4.1562 12.949z" />
    <path
        d="m43.945 64.844-8.7891-8.7891c-1.2188-1.2188-1.2188-3.1992 0-4.4219l16.484-16.484c1.2188-1.2188 3.1992-1.2188 4.4219 0l8.7891 8.7891c1.2188 1.2188 1.2188 3.1992 0 4.4219l-16.484 16.484c-1.2188 1.2188-3.1992 1.2188-4.4219 0zm-2.1641-11 4.3711 4.3711 12.062-12.062-4.3711-4.3711z" />
</svg>
