<svg xmlns="http://www.w3.org/2000/svg" viewBox="0 0 512 512" x="0px" y="0px">
    <title>Rapier</title>
    <path
        d="M73.45,474.84a25.25,25.25,0,0,0,4.45-6,292.51,292.51,0,0,1,45,4.11c37,6,54.93-26.05,59.24-43.84a10.15,10.15,0,0,0-19.73-4.79c-.33,1.36-8.36,33.11-36.25,28.58-11.82-1.92-22.06-3-30.6-3.66a4.24,4.24,0,0,1-2.5-7.42l72.87-64.16,32.52,32.52a5.33,5.33,0,0,0,8.83-2.06C213,390.85,222.73,348.81,193,319s-71.82-20.09-89.09-14.29a5.33,5.33,0,0,0-2.06,8.83l32.52,32.52L59.26,431.35a25.66,25.66,0,1,0,14.19,43.49Z" />
    <path
        d="M193,293a91.74,91.74,0,0,1,26,26,7.67,7.67,0,0,0,12.18.93L481.08,37.62c3.95-4.47-2.25-10.67-6.72-6.72L192,280.79A7.67,7.67,0,0,0,193,293Z" />
</svg>
