<svg xmlns="http://www.w3.org/2000/svg" viewBox="0 0 512 512" x="0px" y="0px">
    <title>Sidesword</title>
    <path
        d="M53.26,458.74l23.86,23.87a3.89,3.89,0,0,0,5.5,0l10-10a3.89,3.89,0,0,0,0-5.5L68.73,443.27,44.86,419.4a3.89,3.89,0,0,0-5.5,0l-10,10a3.87,3.87,0,0,0,0,5.49Z" />
    <path
        d="M476.76,28.26l-41.52,3.08a7.34,7.34,0,0,0-4.65,2.13L171.45,292.61a4.17,4.17,0,0,0,0,5.9l11.05,11.05a4.18,4.18,0,0,0,5.91,0L434.63,63.34a10.19,10.19,0,0,1,14.11-.51A9.93,9.93,0,0,1,449,77.08L202.44,323.59a4.18,4.18,0,0,0,0,5.91l11.05,11.05a4.17,4.17,0,0,0,5.9,0L478.53,81.41a7.34,7.34,0,0,0,2.13-4.65l3.08-41.52A6.52,6.52,0,0,0,476.76,28.26Z" />
    <path
        d="M94.34,440.82a5.65,5.65,0,0,0,8,0l70.39-70.4,18,18.05a3.87,3.87,0,0,0,5.49,0l15.8-15.79a3.89,3.89,0,0,0,0-5.5l-33.61-33.62L144.82,300a3.89,3.89,0,0,0-5.5,0l-15.79,15.8a3.87,3.87,0,0,0,0,5.49l18.05,18.05-70.4,70.39a5.65,5.65,0,0,0,0,8Z" />
</svg>
