<svg xmlns="http://www.w3.org/2000/svg" version="1.1" viewBox="-5.0 2.0 110.0 110.0">
    <title>Aid</title>
    <path
        d="m57.461 39.43c-0.13281 0.28516-0.375 0.50391-0.67188 0.60937-0.29687 0.10547-0.625 0.085938-0.90625-0.054687s-0.49609-0.39062-0.58984-0.69141c-0.097657-0.30078-0.066407-0.625 0.082031-0.90234l2.8711-5.7578c0.29688-0.55859 0.98047-0.77734 1.5469-0.49609 0.5625 0.28125 0.80469 0.96094 0.53906 1.5352l-2.8711 5.7539zm-12.836-1.0391c0.26562 0.57031 0.027344 1.25-0.53906 1.5312-0.56641 0.28125-1.25 0.0625-1.5469-0.49219l-2.8711-5.7539v-0.003906c-0.14062-0.27734-0.16406-0.59766-0.066407-0.89453 0.097657-0.29297 0.30859-0.53906 0.58594-0.67578 0.27734-0.14062 0.60156-0.16016 0.89453-0.0625 0.29297 0.10156 0.53516 0.3125 0.67188 0.59375l2.8711 5.7539zm20.5 32.332c0.86719-0.26562 1.4375-1.0977 1.3633-2-0.070312-0.90234-0.76172-1.6367-1.6602-1.7578h-7.5508c-0.72266 0.38672-1.1445 1.1641-1.0781 1.9805 0.070312 0.82031 0.61719 1.5156 1.3945 1.7773zm-5.5312-19.762c-0.12891-0.71875-0.22656-1.3672-0.30078-1.9141-0.027344-0.21094 0 0.027344-0.023438-0.15234h0.003907c-0.19141-0.76562-0.10938-1.5703 0.22656-2.2812h-2.0273c-0.98438 0.19922-1.7188 1.0234-1.8125 2.0234s0.47656 1.9414 1.4062 2.3242zm2.0078 6.9961c-0.16016-0.32812-0.31641-0.67578-0.44922-1.0352h0.003906c-0.44531-1.1836-0.80469-2.3945-1.082-3.6289h-4.0898c-0.92578 0.046875-1.7891 0.48047-2.3789 1.1953-0.19141 0.28516-0.29688 0.61719-0.30469 0.96094 0 0.37109 0.09375 0.73828 0.27344 1.0664 0.42188 0.73828 1.1406 1.2656 1.9766 1.4414zm2.8086 2.7617-0.070312-0.015625 0.007812 0.003906c-0.32422-0.074219-0.62891-0.20312-0.89844-0.39062l-0.03125-0.003906c-0.058594-0.007812-0.10547-0.015625-0.15234-0.019531h-7.6953c-1.1133 0.30469-1.8047 1.4219-1.5781 2.5547 0.13672 0.58984 0.5 1.0977 1.0117 1.418 0.48438 0.33203 1.0742 0.48047 1.6562 0.42188 0.12109-0.039062 0.24609-0.058594 0.37109-0.058594h7.4414c0.30469-0.24609 0.54297-0.57031 0.68359-0.93359 0.21094-0.52344 0.25781-1.0938 0.14062-1.6445-0.066406-0.30078-0.19531-0.58203-0.375-0.83203-0.14453-0.19141-0.3125-0.35938-0.50781-0.5zm32.957-13.449h-6.9648v20.625h4.3359l2.6328-20.621zm-9.2969 18.637c-4.2188-0.71875-5.8945 0.46484-7.9727 1.9258-2.0508 1.4453-4.5664 3.2148-11.781 3.0508l0.003906 0.003907c1.0352-1.9336 0.42969-4.3359-1.3945-5.5508 0.15234-0.24219 0.28125-0.5 0.39062-0.76172 0.38672-0.96094 0.47266-2.0195 0.25-3.0312-0.11719-0.52344-0.32812-1.0195-0.61719-1.4727 0.47266-0.37891 0.88281-0.82812 1.2188-1.332 0.85547-1.3125 1.3125-2.8477 1.3164-4.4102 0.51562 0.35547 1.0781 0.64453 1.668 0.85547 1.543 0.50781 3.2305 0.35547 4.6602-0.42188 0.56641-0.28516 0.80078-0.96875 0.52734-1.543-0.26953-0.57031-0.94922-0.82031-1.5312-0.5625-0.87891 0.5-1.9297 0.61719-2.8984 0.32422-1.0938-0.46875-2.0664-1.1836-2.8359-2.0859-0.37109-1.4609-1.0508-2.8281-1.9922-4-0.19922-0.24219-0.48438-0.39453-0.79688-0.42578-0.30859-0.027344-0.61719 0.070312-0.85547 0.27344-0.23828 0.19922-0.38672 0.48828-0.41016 0.80078-0.023437 0.3125 0.078125 0.61719 0.28516 0.85547 0.76562 0.96484 1.3047 2.0898 1.5781 3.293 0.007813 0.039063 0.015626 0.078125 0.027344 0.11719 0.097656 0.42969 0.17188 0.86328 0.21094 1.2969 0.21875 1.4961-0.085938 3.0234-0.86328 4.3164-0.21875 0.34375-0.5 0.64453-0.83203 0.88281-0.16797 0.12109-0.38281 0.16797-0.58594 0.12891-0.48828-0.10547-1.0195-1.0664-1.5156-2.3438-0.83203-2.3789-1.4102-4.8398-1.7227-7.3398l-0.019531-0.16797v0l-0.003906-0.003906c-0.097656-0.32812-0.074219-0.68359 0.058594-1.0039 1.4297-1.7852 3.2773-3.1953 5.3789-4.1094 1.9727-1.0352 4.1719-1.5625 6.4023-1.5273 3.6406 0.27734 5.5195 1.9688 7.2617 3.543 1.9766 1.7812 3.8203 3.4414 7.3828 3.4141v17.012zm-54.188 4.1172c0.24609 0.33594 0.59375 0.57812 0.99219 0.69922h7.5273c0.77734-0.26172 1.3242-0.96094 1.3906-1.7773 0.070312-0.8125-0.35156-1.5938-1.0742-1.9805h-7.5469c-0.67578 0.09375-1.25 0.53516-1.5156 1.1641-0.26562 0.625-0.17969 1.3477 0.22266 1.8945zm4.5391-21.449v0zm-1.8672 11.742c-0.27344 0.18359-0.57813 0.31641-0.89844 0.38672l-0.070312 0.015625c-0.44922 0.32031-0.76172 0.79688-0.88281 1.332-0.12109 0.55078-0.070313 1.125 0.14453 1.6445 0.14062 0.36719 0.375 0.6875 0.67969 0.93359h7.4414c0.12891 0 0.25 0.019532 0.37109 0.058594 0.58594 0.058594 1.1719-0.089844 1.6602-0.42188 0.51172-0.32031 0.875-0.82812 1.0078-1.418 0.22656-1.1328-0.46094-2.25-1.5781-2.5547h-7.6914c-0.046875 0-0.097656 0.011719-0.15234 0.019531l-0.035157 0.003906zm3.3672-7.0234c-0.27734 1.2344-0.63672 2.4453-1.0781 3.6289-0.14062 0.36328-0.28906 0.71094-0.44922 1.0352h6.0547c0.83203-0.17578 1.5508-0.70312 1.9727-1.4414 0.17969-0.32812 0.27344-0.69531 0.27344-1.0664-0.007812-0.34375-0.11328-0.67578-0.30469-0.96094-0.58984-0.71484-1.4531-1.1484-2.3828-1.1953zm0.57422-6.6836c0.33594 0.71094 0.41797 1.5195 0.22656 2.2852-0.023437 0.17578 0.007813-0.0625-0.023437 0.15234-0.074219 0.54297-0.17188 1.1992-0.30078 1.9141h2.5273v-0.003907c0.92969-0.38281 1.4961-1.3242 1.4023-2.3242s-0.82812-1.8203-1.8125-2.0234zm-28.566 2.2812c3.5625 0.023437 5.4062-1.6328 7.3828-3.4141 1.75-1.5781 3.625-3.2617 7.2617-3.543l0.003906-0.003906c2.2266-0.03125 4.4258 0.49609 6.3984 1.5312 2.1016 0.91016 3.9492 2.3203 5.3789 4.1094 0.13281 0.31641 0.15625 0.67188 0.058593 1.0039v0l-0.023437 0.16797c-0.3125 2.5-0.89062 4.9609-1.7227 7.3398-0.49609 1.2773-1.0234 2.2383-1.5156 2.3438-0.20312 0.039063-0.41797-0.007812-0.58594-0.12891-0.33203-0.23828-0.61328-0.53516-0.83203-0.87891-0.77734-1.2969-1.082-2.8203-0.86328-4.3164 0.039062-0.4375 0.10938-0.87109 0.20703-1.2969 0.011719-0.039063 0.023437-0.078126 0.03125-0.12109 0.26953-1.2031 0.8125-2.3281 1.5781-3.293 0.41406-0.49219 0.35547-1.2266-0.13672-1.6406-0.49219-0.41406-1.2266-0.35547-1.6406 0.13672-0.94531 1.1758-1.6211 2.5391-1.9922 4-0.77344 0.90234-1.7422 1.6172-2.8359 2.0859-0.96875 0.29297-2.0195 0.17969-2.9023-0.32031-0.57813-0.26172-1.2578-0.011719-1.5312 0.55859-0.26953 0.57422-0.035157 1.2578 0.53125 1.543 1.4258 0.78125 3.1133 0.93359 4.6602 0.42188 0.58984-0.20703 1.1523-0.49609 1.6641-0.85547 0.007813 1.5664 0.46484 3.0977 1.3164 4.4102 0.33984 0.50781 0.75391 0.96094 1.2305 1.3438-0.28906 0.44922-0.5 0.94922-0.61719 1.4727-0.22266 1.0117-0.13672 2.0664 0.25 3.0273 0.10938 0.26562 0.23828 0.51953 0.39062 0.76172-0.25 0.16797-0.48047 0.35937-0.6875 0.57031-1.2969 1.3281-1.5859 3.3438-0.70703 4.9805-7.2148 0.16406-9.7266-1.6055-11.781-3.0508-2.0742-1.4609-3.75-2.6445-7.9727-1.9258zm-2.332-1.6211h-6.9648l2.6289 20.625h4.3359zm41.57-10.355v0.003907c0.007812 0.3125-0.10938 0.62109-0.32812 0.84766-0.22266 0.22656-0.52344 0.35547-0.83984 0.35547s-0.61719-0.12891-0.83594-0.35547c-0.22266-0.22656-0.33984-0.53516-0.33203-0.84766v-6.6484c0.019531-0.62891 0.53906-1.1328 1.168-1.1328 0.63281 0 1.1484 0.50391 1.168 1.1328z"
        fill-rule="evenodd" />
</svg>