<svg xmlns="http://www.w3.org/2000/svg" data-name="Layer 1" viewBox="0 0 64 80" x="0px" y="0px"><polygon points="34.61 2 17.65 2 9.83 34.61 21.57 34.61 16.35 62 38.52 26.78 26.78 26.78 34.61 2"/><path d="M46.35,4.61a7.83,7.83,0,1,0,7.82,7.82A7.83,7.83,0,0,0,46.35,4.61ZM49,13.74H47.65V15A1.31,1.31,0,1,1,45,15v-1.3h-1.3a1.31,1.31,0,0,1,0-2.61H45V9.83a1.31,1.31,0,1,1,2.61,0v1.3H49a1.31,1.31,0,0,1,0,2.61Z"/><text x="0" y="79" fill="#000000" font-size="5px" font-weight="bold" font-family="'Helvetica Neue', Helvetica, Arial-Unicode, Arial, Sans-serif">Created by Siipkan Creative</text><text x="0" y="84" fill="#000000" font-size="5px" font-weight="bold" font-family="'Helvetica Neue', Helvetica, Arial-Unicode, Arial, Sans-serif">from the Noun Project</text></svg>