<svg xmlns="http://www.w3.org/2000/svg" viewBox="0 0 512 640" x="0px" y="0px"><title>support Barrier</title><path d="M34.8,477.34A276.32,276.32,0,0,0,148.3,253.86,276.31,276.31,0,0,0,34.8,30.39a9.87,9.87,0,0,0-15.66,8V469.33A9.87,9.87,0,0,0,34.8,477.34Z"/><path d="M472.08,282H215.19a20.78,20.78,0,0,0-15,35.16l94.48,98.59L269.44,438.5a10.1,10.1,0,0,0,3.74,17.16l96.74,30.23a10.11,10.11,0,0,0,12.92-11.64l-19.91-99.37a10.11,10.11,0,0,0-16.67-5.53L325.58,388,263.89,323.6H472.08a20.78,20.78,0,1,0,0-41.56Z"/><path d="M280.05,73.5l23.13,20.82-103,107.85a20.78,20.78,0,0,0,15,35.14H368.9a20.79,20.79,0,0,0,0-41.57H263.78l70.31-73.6,22.78,20.51a10.11,10.11,0,0,0,16.68-5.53l19.91-99.37a10.11,10.11,0,0,0-12.93-11.64L283.8,56.34A10.11,10.11,0,0,0,280.05,73.5Z"/><text x="0" y="527" fill="#000000" font-size="5px" font-weight="bold" font-family="'Helvetica Neue', Helvetica, Arial-Unicode, Arial, Sans-serif">Created by Maxicons</text><text x="0" y="532" fill="#000000" font-size="5px" font-weight="bold" font-family="'Helvetica Neue', Helvetica, Arial-Unicode, Arial, Sans-serif">from the Noun Project</text></svg>