<svg xmlns="http://www.w3.org/2000/svg" width="546" height="546" fill="none"><path fill="#fff" d="M0 0h546v546H0V0Z"/><path fill="#000" d="M496.306 221.897c-2.568-7.317-10.999-15.154-82.023-23.407-28.278-3.259-56.313-5.34-67.208-6.068-3.99-10.056-14.399-35.855-26.092-61.481C291.525 66.409 280.873 61 273.17 61c-7.702 0-18.354 5.41-48.055 69.976-11.797 25.66-22.345 51.494-26.369 61.585-10.826.693-38.549 2.6-66.514 5.756-70.4 7.906-78.97 16.055-81.469 23.094-.416 1.214-.763 2.532-.763 4.057 0 8.045 8.431 22.54 52.774 62.937 20.992 19.141 42.573 37.138 50.97 44.108-2.707 10.507-9.473 37.589-15.163 65.26-6.8 33.047-9.195 52.777-9.195 64.879 0 13.385 2.915 17.442 6.072 19.8 6.35 4.751 17.8 6.485 80.532-28.642 24.947-13.94 49.027-28.816 58.291-34.607 9.194 5.722 32.962 20.39 57.666 34.225 61.934 34.711 73.765 33.428 79.976 29.475 3.643-2.323 6.905-6.276 6.905-20.424 0-12.206-2.429-32.006-9.125-64.879-5.725-28.122-12.63-55.759-15.336-66.405 8.362-6.865 29.631-24.516 50.345-43.275C488.673 248.112 497 233.791 497 225.85c0-1.526-.312-2.809-.729-3.988m-64.779 57.805c-25.051 22.505-50.102 42.79-50.345 42.998a7.45 7.45 0 0 0-2.776 5.791c0 .624.07 1.248.243 1.872.07.313 8.397 32.215 15.44 65.885 9.715 46.327 14.677 69.768 9.16 73.652-5.412 3.225-22.275-5.41-67.103-31.209-29.701-17.095-57.528-34.398-57.805-34.572a7.569 7.569 0 0 0-8.085 0c-.277.174-28.104 17.754-58.013 34.676-43.996 24.932-61.552 35.855-67.347 31.174-4.718-3.745 1.215-34.849 9.195-73.028 7.009-33.393 15.301-64.982 15.371-65.294a6.968 6.968 0 0 0 .243-1.873 7.348 7.348 0 0 0-2.741-5.756c-.243-.208-25.607-20.875-50.97-43.796-40.387-36.514-51.386-48.581-50.45-53.713.937-4.681 18.286-7.941 72.17-13.766 33.829-3.676 66.375-5.549 66.687-5.549 2.95-.173 5.517-2.011 6.593-4.75.104-.312 12.074-30.654 26.161-61.689 22.623-49.725 30.603-64.254 35.981-64.185 5.898-.035 14.573 14.286 35.877 63.249 8.743 20.077 17.903 42.201 25.745 62.417a7.53 7.53 0 0 0 6.557 4.75c.313 0 33.136 2.046 67.278 5.895 54.196 6.069 71.371 9.675 72.794 14.079 1.214 4.577-10.167 17.095-49.86 52.777M311.51 227.549c-13.08-1.179-13.046 19.522-13.046 43.449 0 23.926 1.943 43.414 13.428 43.276 12.04-.139 13.567-20.286 13.567-44.212 0-23.927-2.568-41.508-13.949-42.513Zm4.858 29.474c-1.214 3.087-3.053 4.231-5.135 4.231s-3.886-1.144-5.135-4.265c-.937-2.428-1.562-6.346-1.562-9.71 0-3.467.486-7.316 1.458-9.778 1.214-3.017 3.088-4.231 5.135-4.265 2.047 0 3.99 1.491 5.204 4.542.972 2.428 1.458 5.999 1.458 9.432 0 3.398-.521 7.351-1.458 9.779m-79.594-29.475c-11.346 1.04-13.949 18.621-13.949 42.513s1.562 44.073 13.567 44.212c11.485.104 13.428-19.384 13.428-43.276 0-23.892 0-44.628-13.046-43.449Zm5.412 29.44c-1.214 3.121-3.053 4.265-5.135 4.265-2.047 0-3.921-1.144-5.135-4.23-.937-2.428-1.492-6.381-1.492-9.779 0-3.433.486-7.004 1.492-9.432 1.214-3.051 3.157-4.542 5.205-4.542 2.012 0 3.92 1.248 5.135 4.265.971 2.462 1.492 6.311 1.457 9.778 0 3.364-.625 7.317-1.561 9.71"/></svg>