<svg xmlns="http://www.w3.org/2000/svg" xmlns:xlink="http://www.w3.org/1999/xlink" version="1.1" x="0px" y="0px" viewBox="0 0 100 125" enable-background="new 0 0 100 100" xml:space="preserve"><g><g><path d="M89.417,63.919c-0.39-1.222-1.056-2.304-1.697-3.4c-1.796-3.073-3.439-6.234-5.211-9.317    c-2.04-3.548-4.065-7.105-6.099-10.657c-0.513-0.896-1.037-1.786-1.564-2.694c-0.415,0.181-0.722,0.322-1.034,0.45    c-1.031,0.421-2.072,0.568-2.93-0.305c-0.902-0.916-1.547-2.036-2.054-3.207c-0.428-0.989-0.071-1.635,0.934-2.072    c0.565-0.245,1.109-0.538,1.781-0.866c-1.955-3.622-3.845-7.133-5.746-10.639c-1.451-2.676-2.908-5.35-4.377-8.016    c-1.267-2.3-2.566-4.583-3.827-6.887c-0.287-0.525-0.679-0.66-1.244-0.683c-1.599-0.067-2.963,0.751-4.386,1.226    c-2.358,0.789-4.72,1.568-7.082,2.349c-2.388,0.789-4.747,1.661-7.13,2.464c-2.653,0.895-5.299,1.809-7.961,2.681    c-3.768,1.234-7.513,2.539-11.27,3.81c-0.832,0.282-1.65,0.667-2.506,0.793c-1.098,0.161-1.741,0.881-2.404,1.6    c-0.263,0.284-0.353,0.661-0.138,1.103c1.818,3.743,3.624,7.493,5.404,11.254c2.039,4.308,4.032,8.639,6.076,12.944    c2.656,5.595,5.328,11.182,8.019,16.759c2.248,4.657,4.525,9.299,6.805,13.94c1.25,2.546,2.433,5.126,3.831,7.546    c-1.163,3.024-2.564,5.974-0.266,9.068c-1.233,0.112-1.57-0.106-1.867-1.037c-0.814-2.548-0.263-4.931,0.871-7.277    c-1.74-4.124-3.679-8.182-5.666-12.405c-1.43,2.575-2.176,5.108-2.222,7.875c-0.025,1.521,0.159,2.903,0.982,4.228    c0.851,1.369,1.533,2.842,2.304,4.262c0.908,1.671,1.805,3.352,3.045,4.814c0.303,0.357,0.621,0.697,1.113,0.714    c1.356,0.049,2.69,0.139,4.021-0.411c10.019-4.137,19.927-8.529,29.873-12.835c3.046-1.319,6.085-2.656,9.143-3.952    c0.806-0.342,1.014-0.851,0.668-1.61c-0.341-0.749-0.711-1.484-1.079-2.221c-0.292-0.583-0.324-1.285,0.101-1.663    c0.534-0.475,0.705-1.028,0.792-1.628c0.119-0.806,0.406-1.43,1.158-1.835c0.446-0.241,0.656-0.725,0.728-1.208    c0.136-0.913,0.508-1.573,1.491-1.763C89.562,65.067,89.618,64.555,89.417,63.919z M43.069,76.539    c0.459-1.039,0.934-2.078,1.938-2.737c0.213-0.139,0.417-0.293,0.631-0.445c-7.574-15.826-15.078-31.503-22.616-47.254    c-0.539,0.2-0.949,0.406-1.383,0.506c-1.632,0.374-3.713-0.972-4.071-2.603c-0.375-1.709,1.207-3.312,3.01-3.143    c1.128,0.105,1.816,0.657,2.264,1.647c0.325,0.722,0.709,1.418,1.162,2.312c9.976-3.744,20.085-7.014,30.15-10.52    c-0.276-0.855-0.573-1.706-0.824-2.569c-0.238-0.823,0.183-1.901,0.909-2.365c0.789-0.505,1.593-0.234,2.24,0.211    c0.787,0.542,1.239,1.395,1.379,2.366c0.146,0.999-0.176,1.789-1.088,2.297c-0.268,0.149-0.522,0.322-0.741,0.458    c7.818,15.059,16.12,29.802,24.194,44.607c0.475,0.207,0.84-0.018,1.22-0.104c2.447-0.556,3.789,0.741,3.86,2.996    c0.058,1.852-1.512,2.461-3.214,1.868c-0.723-0.251-1.179-0.867-1.569-1.51c-0.293-0.484-0.593-0.965-0.934-1.52    c-10.888,4.28-21.675,8.759-32.67,12.905c0.34,0.991,0.895,1.918,0.957,2.979c0.06,1.041-0.298,2.027-1.051,2.67    c-0.689,0.589-1.69,0.876-2.539,0.251C43.001,78.9,42.396,78.059,43.069,76.539z M69.453,69.091    c-0.404,0.367-0.873,0.399-1.268-0.263c0.407-0.344,0.576-1.08,1.271-0.698C69.855,68.352,69.724,68.845,69.453,69.091z     M65.035,71.358c-0.412-0.074-0.901,0.298-1.217-0.307c0.074-0.47,0.332-0.812,0.84-0.687    C65.122,70.479,65.178,70.889,65.035,71.358z M60.016,73.245c-0.314,0-0.505-0.141-0.663-0.464    c0.245-0.513,0.532-0.889,1.159-0.698C60.831,72.723,60.41,72.982,60.016,73.245z M73.273,79.928    c-3.067,1.41-6.166,2.751-9.306,3.995c-0.152,0.06-0.279,0.181-0.417,0.273c-0.33,0.119-0.66,0.237-0.99,0.355    c-0.618,0.585-1.431,0.807-2.178,1.133c-4.45,1.939-8.808,4.083-13.291,5.947c-0.773,0.321-1.441,0.897-2.316,0.982    c-0.427,0.042-0.823,0.021-0.771-0.577c3.55-1.958,7.318-3.453,10.981-5.169c5.652-2.648,11.438-4.99,17.277-7.198    c2.141-0.811,4.271-1.644,6.473-2.278C76.996,78.41,75.097,79.088,73.273,79.928z M78.859,77.338    c0.252-0.312,0.598-0.436,0.98-0.488C79.585,77.16,79.247,77.299,78.859,77.338z M85.183,67.538    c-0.525,0.025-1.065,0.183-1.56,0.379c-1.794,0.711-3.535,1.541-5.234,2.459c-1.401,0.757-2.93,1.205-4.425,1.737    c-3.554,1.265-7.032,2.755-10.599,3.963c-4.071,1.379-7.985,3.1-11.907,4.818c-1.844,0.808-3.422,2.108-5.204,3.053    c3.785-1.855,7.479-3.893,11.425-5.412c4.201-1.616,8.572-2.725,12.748-4.43c-1.13,0.794-2.362,1.362-3.618,1.882    c-4.798,1.985-9.677,3.78-14.38,5.991c-2.461,1.157-4.989,2.199-7.176,3.893c0.351-0.19,0.703-0.375,1.05-0.569    c5.099-2.844,10.533-4.936,15.923-7.134c6.989-2.851,13.954-5.76,20.924-8.654c0.46-0.191,0.885-0.465,1.389-0.733    c0.246,0.686,0.083,1.066-0.574,1.281c-1.861,0.607-3.78,1.041-5.542,1.94c1.984-0.639,3.946-1.355,5.992-1.855    c0.053,0.429-0.227,0.461-0.419,0.521c-3.82,1.19-7.408,3.022-11.263,4.109c-8.047,2.271-15.303,6.322-22.716,10.024    c-1.896,0.947-3.777,1.92-5.541,3.116c2.636-1.312,5.265-2.638,7.91-3.933c4.564-2.236,8.974-4.803,13.732-6.626    c2.583-0.99,5.244-1.774,7.87-2.651c0.027,0.071,0.056,0.143,0.083,0.214c-3.004,1.228-6.008,2.455-9.011,3.682    c4.486-1.567,8.82-3.541,13.438-4.762c-11.166,4.864-22.532,9.29-33.157,15.322c12.268-6.619,25.417-11.264,38.055-17.124    c0.235,0.47-0.114,0.908,0.102,1.423c-6.243,2.405-12.434,4.779-18.466,7.526c-6.14,2.797-12.227,5.708-18.299,8.648    c6.119-2.625,12.158-5.424,18.243-8.121c6.103-2.704,12.439-4.8,18.574-7.403c0.653,0.321,0.401,0.868,0.408,1.359    c-1.288,0.712-2.71,0.965-4.085,1.352c0.072-0.283,0.417-0.275,0.593-0.526c-0.816,0.324-1.571,0.653-2.346,0.926    c-7.043,2.474-13.965,5.256-20.825,8.196c-3.839,1.645-7.489,3.692-11.338,5.317c-0.712,0.301-1.429,0.666-1.953,1.285l0,0    c-0.855,0.11-0.767-0.685-1.031-1.115c-0.137-0.223-0.112-0.545-0.168-0.862c0.306-0.239,0.62-0.484,0.934-0.729    c-0.303,0.08-0.548,0.354-1.007,0.275c0.331-1.576,0.545-3.153,1.3-4.613c1.12-2.166,3.226-2.874,5.256-3.76    c5.828-2.544,11.834-4.641,17.701-7.086c6.034-2.516,12.182-4.758,18.126-7.493c0.419-0.192,0.851-0.438,1.354-0.407    C86.43,67.356,86.248,67.488,85.183,67.538z M78.053,73.476c-0.527,0.43-1.145,0.532-1.771,0.602    C76.821,73.708,77.421,73.533,78.053,73.476z"/><path d="M43.781,89.288c-0.014,0.011-0.028,0.021-0.042,0.032c0.019-0.004,0.037-0.016,0.057-0.019L43.781,89.288z"/><path d="M28.818,55.994c-1.459-3.012-2.914-6.025-4.379-9.034c-0.38-0.782-0.792-1.549-1.273-2.487    c-0.217,0.408-0.36,0.623-0.45,0.857c-1.069,2.784-1.575,5.683-1.648,8.651c-0.025,1.06-0.051,2.127,0.528,3.142    c0.815,1.427,1.481,2.938,2.222,4.408c0.594,1.179,1.205,2.35,1.917,3.736c0.215-0.647,0.346-1.069,0.495-1.485    c0.81-2.264,1.321-4.649,2.689-6.685C29.202,56.676,28.99,56.35,28.818,55.994z M24.489,57.307c-0.651-0.05-0.84-0.53-0.812-1.083    c0.032-0.638,0.161-1.364,0.94-1.393c0.744-0.026,0.855,0.68,0.959,1.114C25.574,56.899,25.178,57.36,24.489,57.307z"/><path d="M21.773,41.557c-0.958-1.866-1.854-3.762-2.756-5.656c-0.789-1.654-1.552-3.321-2.334-4.999    c-0.382,0.231-0.48,0.572-0.636,0.862c-1.165,2.179-1.523,4.568-1.708,6.979c-0.101,1.322-0.264,2.727,0.293,3.965    c1.326,2.945,2.775,5.834,4.173,8.745c0.065-0.013,0.13-0.025,0.195-0.038c0.038-0.191,0.06-0.386,0.116-0.573    c0.754-2.521,1.188-5.166,2.644-7.425C22.204,42.73,22.115,42.222,21.773,41.557z M17.833,43.183    c-0.773,0.17-1.021-0.26-1.14-0.852c-0.136-0.679-0.12-1.292,0.605-1.675c0.346-0.183,0.712-0.233,0.913,0.086    C18.765,41.624,18.334,42.405,17.833,43.183z"/><path d="M35.317,69.565c-1.536-3.197-3.05-6.405-4.58-9.606c-0.161-0.337-0.23-0.749-0.635-0.995    c-1.515,2.277-2.013,4.824-2.497,7.397c-0.279,1.481-0.024,2.76,0.703,4.066c1.158,2.078,2.173,4.236,3.283,6.342    c0.337,0.639,0.495,1.386,1.107,2.003c0.352-2.898,1.43-5.449,2.697-7.931C35.636,70.37,35.525,69.999,35.317,69.565z     M32.184,68.71c-0.167,0.44-0.396,0.857-0.607,1.309c-0.812,0.104-1.15-0.345-1.237-0.939c-0.103-0.696,0.088-1.355,0.741-1.752    c0.291-0.177,0.549,0.049,0.745,0.244C32.135,67.88,32.354,68.259,32.184,68.71z"/><path d="M15.385,28.11c-0.971-1.919-2.14-3.742-2.872-5.782c-0.031-0.086-0.146-0.142-0.224-0.213    c-2.475,2.933-2.383,12.599,0.137,15.834c0.045-0.076,0.104-0.138,0.121-0.209c0.666-2.91,1.331-5.821,2.875-8.428    C15.675,28.884,15.588,28.511,15.385,28.11z"/><path d="M70.128,35.547c0.133,0.217,0.263,0.437,0.386,0.66c0.999,1.82,1.048,1.831,2.957,1.117    c0.616-0.23,1.239-0.642,1.877-0.067c0.515-0.324,0.472-0.731,0.328-1.057c-0.527-1.191-1.079-2.375-1.805-3.463    c-0.281-0.421-0.656-0.602-1.168-0.343c-0.631,0.319-1.284,0.596-1.915,0.916C69.51,33.957,69.398,34.357,70.128,35.547z"/><path d="M62.567,84.296c-4.036,1.28-7.798,3.198-11.619,4.979c1.585-0.52,3.079-1.258,4.601-1.928    c2.304-1.014,4.592-2.069,7.012-2.795c0.33-0.119,0.66-0.237,0.99-0.356C63.201,84.014,62.884,84.196,62.567,84.296z"/><path d="M79.222,59.763c-1.435-2.669-2.82-5.248-4.189-7.796c-1.191-0.074-2.311,0.104-3.372-0.356    c-0.678-0.294-1.144-0.765-1.287-1.473c-0.129-0.635,0.414-0.951,0.818-1.273c1.045-0.832,1.182-1.208,0.851-2.488    c-0.138-0.534-0.476-0.965-0.687-1.458c-0.279-0.649-0.715-0.795-1.415-0.746c-1.588,0.11-3.045,0.659-4.528,1.145    c-2.254,0.737-4.531,1.284-6.912,0.662c-2.269-0.594-2.847-1.313-2.941-3.643c-0.922-0.348-1.87-0.706-2.862-1.081    c-0.313,0.751-0.106,1.34,0.113,1.919c1.106,2.918,2.226,5.833,3.331,8.753c0.198,0.525,0.543,1.043,0.269,1.68    c-0.375-0.157-0.511-0.456-0.675-0.705c-1.844-2.794-3.677-5.594-5.509-8.396c-0.459-0.703-1.026-1.268-1.866-1.569    c-1.074,2.226-1.898,4.551-3.24,6.646c0.295-2.481,1.491-4.714,1.901-7.13c-0.485-0.401-1.008-0.633-1.507-0.706    c-0.808-0.118-1.815-0.146-2.284,0.57c-1.167,1.782-2.703,3.205-4.147,4.725c-1.406,1.48-1.625,3.155-0.612,4.446    c0.765,0.976,1.77,1.673,2.855,2.25c1.329,0.707,2.628,1.443,3.639,2.603c0.785,0.9,0.989,1.954,0.456,3.056    c-0.414,0.856-0.414,1.682,0.002,2.524c0.201,0.407,0.388,0.822,0.593,1.228c0.742,1.472,0.391,2.812-0.524,4.059    c-0.262,0.358-0.627,0.64-0.98,0.992c0.756,1.367,1.12,2.909,2.102,4.403C57.469,68.331,68.307,64.062,79.222,59.763z     M72.601,54.695c0.479,0.449,0.977,0.612,1.608,0.795c-0.483,0.688-0.054,1.398-0.148,2.197c-0.704-0.375-1-1.165-1.853-1.157    C72.445,55.942,72.163,55.325,72.601,54.695z M66.157,47.647c-0.455,0.42-0.455,0.42-0.7-0.148    C65.8,47.31,65.992,47.415,66.157,47.647z M64.279,49.848c0.648,0.369,1.148,0.742,1.934,0.901    c-0.841,0.544-0.107,1.208-0.39,1.801c-0.671-0.253-0.868-1.253-1.803-0.87C64.057,50.992,64.411,50.527,64.279,49.848z     M63.982,55.573c-0.426,0.432-0.636,0.19-0.851-0.271C63.611,54.985,63.816,55.187,63.982,55.573z M60.162,48.036    c-0.476,0.437-0.725,0.256-0.919-0.312C59.8,47.325,60.022,47.541,60.162,48.036z M49.204,63.885    c-0.493-0.034-0.761-0.342-0.778-0.823c-0.013-0.365,0.218-0.59,0.577-0.584c0.487,0.008,0.76,0.298,0.838,0.762    C49.792,63.635,49.629,63.915,49.204,63.885z M49.312,52.104c0.805,0.623,1.672,0.894,2.629,1.034    c-0.609,1.088-0.769,2.158-0.309,3.348c-1.011-0.692-1.552-2.086-3.159-1.872C49.086,53.854,49.385,53.077,49.312,52.104z     M48.123,59.896c0.407-0.154,0.683-0.06,0.764,0.371c0.037,0.194-0.129,0.352-0.299,0.323    C48.228,60.53,47.96,60.351,48.123,59.896z M42.152,49.365c-0.203,0.202-0.424,0.112-0.618,0.003    c-0.338-0.192-0.579-0.443-0.364-0.897c0.406-0.118,0.767-0.149,1.013,0.283C42.305,48.967,42.346,49.172,42.152,49.365z"/><path d="M43.765,63.269c-0.889-1.318-1.042-2.661-0.356-4.101c0.121-0.253,0.189-0.534,0.268-0.806    c0.464-1.593,0.065-2.616-1.347-3.459c-0.897-0.536-1.808-1.054-2.693-1.609c-2.178-1.364-3.297-4.119-1.235-6.357    c0.46-0.5,0.889-1.025,1.392-1.485c1-0.915,1.879-1.932,2.736-3.197c-1.879,0.522-3.599,1-5.305,1.473    c-0.14-0.391,0.014-0.493,0.204-0.598c0.771-0.425,1.521-0.891,2.306-1.285c1.397-0.7,2.812-1.362,4.222-2.034    c0.419-0.2,0.67-0.503,0.701-0.979c0.034-0.519-0.404-0.571-0.719-0.707c-1.637-0.708-3.284-1.39-4.921-2.095    c-0.343-0.147-0.752-0.218-1.076-0.758c2.598,0.193,4.755,1.48,7.14,1.87c0.319-0.443,0.258-0.875,0.134-1.323    c-0.452-1.641-0.926-3.277-1.32-4.932c-0.171-0.719-0.541-1.423-0.365-2.44c2.405,2.162,3.67,5.152,6.341,7.024    c1.061-1.78,1.953-3.487,2.775-5.387c-0.573,0-0.975,0.052-1.358-0.011c-0.748-0.124-1.453-0.394-1.716-1.193    c-0.238-0.72,0.056-1.314,0.58-1.83c0.438-0.433,0.976-0.681,1.53-0.902c1.344-0.536,2.701-1.037,4.034-1.598    c0.611-0.258,1.241-0.56,1.436-1.36c-0.185-0.08-0.331-0.186-0.486-0.204c-1.336-0.158-1.967-1.414-1.173-2.745    c0.376-0.629,0.798-1.232,1.215-1.872c-0.607-1.114-1.213-2.225-1.813-3.327c-0.216,0.01-0.367-0.016-0.494,0.027    c-3.169,1.073-6.333,2.167-9.507,3.226c-2.173,0.727-3.984,1.872-5.077,3.985c-0.34,0.656-0.924,1.123-1.609,1.467    c-1.942,0.976-3.881,0.942-5.825,0.043c-0.892-0.413-1.789-0.517-2.727-0.199c-0.726,0.244-1.486,0.412-2.171,0.74    c-1.008,0.483-2.191,0.569-3.122,1.33c1.707,4.228,3.439,8.391,5.73,12.425c1.387-0.408,2.756-0.615,4.129-0.804    c2.799-0.386,5.501-0.386,7.828,1.577c0.417,0.352,0.453,0.311,0.578,0.731c-3.91-1.825-7.714-0.683-11.727,0.366    c4.433,8.813,8.592,17.57,12.675,26.575C44.043,65.32,44.459,64.299,43.765,63.269z M52.708,20.709    c0.066-0.18,0.23-0.272,0.395-0.23c0.333,0.086,0.488,0.329,0.462,0.683c-0.192,0.266-0.422,0.346-0.699,0.14    C52.662,21.15,52.623,20.939,52.708,20.709z M48.285,26.194c0.357-0.153,0.64-0.189,0.737,0.245    c0.052,0.231-0.079,0.407-0.296,0.417C48.317,26.876,48.195,26.63,48.285,26.194z M39.293,28.705    c0.418-0.124,0.601,0.23,0.972,0.321c-0.271,0.456,0.067,0.9-0.004,1.409c-0.565-0.045-0.495-0.914-1.172-0.712    C39.171,29.316,39.234,29.001,39.293,28.705z M31.958,31.062c-0.817-0.636-1.298-1.43-2.312-1.409    c0.548-0.523,0.449-1.208,0.586-1.954c0.691,0.411,1.218,1.029,2.114,0.846C31.496,29.234,31.742,30.047,31.958,31.062z     M35.78,30.61c-0.205,0.368-0.474,0.34-0.786,0.004c0.059-0.383,0.179-0.671,0.597-0.558C35.872,30.133,35.9,30.396,35.78,30.61z     M38.072,39.54c0.381,0.062,0.561,0.344,0.586,0.765c-0.49,0.502-0.931,0.554-1.335-0.17    C37.428,39.684,37.681,39.476,38.072,39.54z"/><path d="M56.135,22.221c0.195,0.328,0.458,0.271,0.667,0.334c0.951,0.289,1.08,0.657,0.535,1.469    c-0.332,0.494-0.824,0.773-1.316,1.05c-1.244,0.7-2.632,1.052-3.947,1.581c-0.69,0.276-1.379,0.536-1.836,1.173    c-0.508,0.706-0.301,1.312,0.53,1.532c0.84,0.223,1.683,0.157,2.532,0.053c1.236-0.151,2.476-0.425,3.718-0.086    c0.95,0.258,1.796,0.686,2.197,1.673c0.309,0.763-0.196,1.261-0.648,1.708c-0.724,0.716-1.675,1.22-1.963,2.534    c-0.316-0.753-0.211-1.189,0.16-1.557c0.423-0.42,0.869-0.816,1.306-1.223c1.03-0.959,0.907-1.802-0.372-2.428    c-0.786-0.385-1.628-0.359-2.486-0.375c-1.297-0.022-2.133,0.259-2.42,1.752c-0.308,1.597-0.934,3.132-1.424,4.702    c0.76,0.499,1.508,0.5,2.267,0.274c2.091-0.623,4.177-1.264,6.267-1.891c0.277-0.083,0.587-0.296,0.792,0.056    c0.096,0.269-0.317,0.294-0.154,0.594c1.847,0.057,3.747-0.192,5.756,0.592c-1.102-1.953-2.067-3.673-3.042-5.389    c-0.708-1.248-1.277-2.588-2.534-3.45c-0.429-0.295-0.376-0.85-0.389-1.338c-0.011-0.393,0.105-0.845-0.342-1.124    c-0.787,1.215-0.763,1.415,0.234,2.322c0.273,0.249,0.56,0.489,0.799,0.769c0.609,0.707,1.145,1.488,0.735,2.462    c-0.784,1.867-2.032,3.382-3.667,4.749c-0.159-0.712,0.224-0.968,0.519-1.253c0.986-0.953,1.838-2.008,2.508-3.208    c0.373-0.667,0.4-1.295-0.161-1.872c-0.415-0.427-0.827-0.859-1.263-1.265c-0.797-0.741-0.918-1.371-0.403-2.321    c0.273-0.502,0.377-1.055,0.118-1.551c-0.517-0.99-1.112-1.938-1.706-2.955C57.029,20.955,56.167,21.297,56.135,22.221z     M54.807,32.546c-0.146,0.072-0.318,0.126-0.462-0.029c-0.253-0.27-0.186-0.541-0.012-0.852c0.342-0.092,0.549,0.032,0.743,0.173    C55.202,32.169,55.092,32.402,54.807,32.546z"/><path d="M64.702,38.218c-2.423,0.241-4.822,0.268-6.392-2.115c-0.492,0.118-0.6,0.343-0.297,0.717    c0.196,0.24,0.414,0.464,0.606,0.708c1.057,1.342,0.166,3.617-1.539,3.916c-0.077,0.014-0.176-0.101-0.265-0.156    c0.526-0.847,1.719-1.113,1.83-2.191c0.118-1.147-0.858-1.679-1.462-2.421c-0.964,0.481-1.822,0.996-2.741,1.349    c-1.027,0.393-1.337,1.111-1.302,2.093c2.516,1.188,5,2.362,7.484,3.536c-1.6,0.229-2.85-0.813-4.315-0.953    c-0.414,1.314,0.8,2.749,2.199,2.644c1.441-0.109,2.853-0.374,4.247-0.796c2.37-0.719,4.604-1.932,7.308-1.935    c-0.822-1.515-1.583-2.915-2.331-4.295C66.678,38.226,65.708,38.118,64.702,38.218z M62.063,39.187    c0.539-0.434,0.835-0.302,0.972,0.356C62.516,39.941,62.24,39.752,62.063,39.187z"/><path d="M40.328,20c-2.704,0.869-5.383,1.73-8.265,2.656C36.408,24.65,38.609,23.816,40.328,20z"/><path d="M20.202,22.063c-0.624-0.112-1.082,0.138-1.492,0.599c-0.421,0.472-0.338,0.963-0.08,1.415    c0.96,1.676,2.033,1.902,3.981,1.035c-0.153-0.471-0.266-0.971-0.475-1.427C21.754,22.851,21.156,22.236,20.202,22.063z"/><path d="M45.419,63.325c-0.639-1.309-1.12-2.64-0.452-4.145c0.387-0.873,0.091-1.735-0.627-2.667    c0.054,1.215-0.21,2.151-0.478,3.098c-0.322,1.133-0.458,2.262,0.418,3.296c0.405,0.478,0.5,1.129,0.367,1.778    c-0.143,0.693-0.256,1.394-0.588,2.033c-0.151,0.292-0.257,0.58,0.157,0.755C45.782,66.447,46.192,64.907,45.419,63.325z"/><path d="M46.89,77.646c0.312-1.227-0.371-2.167-0.825-3.268c-1.13,0.593-1.729,1.489-2.135,2.501    c-0.347,0.864,0.076,1.619,0.934,1.87C45.747,79.008,46.678,78.48,46.89,77.646z"/><path d="M83.921,62.975c0.566-0.54,0.545-1.509-0.046-2.154c-0.68-0.741-1.607-0.807-2.746-0.168    c0.119,0.503,0.636,1.65,0.837,1.884C82.538,63.201,83.465,63.408,83.921,62.975z"/><path d="M55.439,13.976c0.274-0.149,0.491-0.23,0.665-0.368c0.544-0.427,1.267-0.783,0.885-1.688    c-0.475-1.125-1.363-1.692-2.283-1.495c-0.387,0.083-0.719,0.327-0.531,0.69C54.643,12.018,54.819,13.049,55.439,13.976z"/><path d="M71.595,50.624c0.884,0.607,1.895,0.64,3.018,0.729c-0.388-1.25-1.005-2.273-1.643-3.437    c-0.372,0.677-0.874,1.063-1.429,1.415C70.971,49.69,71.028,50.234,71.595,50.624z"/><path d="M59.955,45.748c3.725,0.284,6.846-2.033,10.423-2.386C66.667,43.137,63.533,45.397,59.955,45.748z"/><path d="M30.44,38.766c0.07,0.229,0.106,0.487,0.401,0.667c2.62-0.79,5.305-1.451,8.1-1.445    C37.306,37.438,30.732,38.065,30.44,38.766z"/><path d="M65.889,36.463c-1.102-0.788-6.264-1.18-6.916-0.551C61.205,37.178,63.6,36.144,65.889,36.463z"/><path d="M59.58,36.804c1.123,0.869,2.391,1.178,3.774,1.031c1.259-0.133,2.507-0.43,3.805-0.274    C64.732,36.341,62.06,37.601,59.58,36.804z"/><path d="M56.968,19.241c-0.611,0.617-1.186,1.247-1.301,2.23C57.617,19.835,57.617,19.835,56.968,19.241z"/><path d="M48.47,85.12c-1.416,0.514-2.771,1.142-3.964,2.063C45.828,86.495,47.149,85.808,48.47,85.12z"/><path d="M44.39,87.265c0.038-0.03,0.079-0.054,0.116-0.083c-0.044,0.023-0.088,0.046-0.133,0.069L44.39,87.265z"/><path d="M43.858,89.26c1.061-0.306,1.917-0.994,2.849-1.54C45.737,88.195,44.733,88.608,43.858,89.26z"/><path d="M43.782,89.288c0,0,0.015,0.013,0.015,0.013c0.02-0.016,0.041-0.026,0.061-0.041    C43.832,89.268,43.809,89.281,43.782,89.288z"/><path d="M43.893,87.583c0.131-0.091,0.262-0.181,0.393-0.271c-0.145,0.066-0.291,0.132-0.435,0.198    C43.865,87.534,43.879,87.558,43.893,87.583z"/><path d="M44.389,87.265c0.001,0-0.015-0.013-0.015-0.013c-0.029,0.021-0.059,0.041-0.088,0.06    C44.32,87.297,44.355,87.281,44.389,87.265z"/></g></g><text x="0" y="115" fill="#000000" font-size="5px" font-weight="bold" font-family="'Helvetica Neue', Helvetica, Arial-Unicode, Arial, Sans-serif">Created by Imogen Oh</text><text x="0" y="120" fill="#000000" font-size="5px" font-weight="bold" font-family="'Helvetica Neue', Helvetica, Arial-Unicode, Arial, Sans-serif">from the Noun Project</text></svg>