<svg xmlns="http://www.w3.org/2000/svg" xmlns:xlink="http://www.w3.org/1999/xlink" version="1.1" x="0px" y="0px" viewBox="0 0 100 125" style="enable-background:new 0 0 100 100;" xml:space="preserve"><style type="text/css">
	.st0{fill:#020203;}
</style><path class="st0" d="M64,15.9c-1.4,1.3-3,1.9-4.9,1.9c-1.9,0-3.5-0.6-4.8-1.9c-1.3-1.3-2-2.9-2-4.7c0-1.9,0.7-3.5,2-4.7  c1.3-1.3,2.9-1.9,4.8-1.9c1.9,0,3.5,0.6,4.9,1.9c1.4,1.3,2,2.9,2,4.7C66.1,13,65.4,14.6,64,15.9z"/><path class="st0" d="M94,19.9H76.1l9.7-4.3c1.6-0.7,2.4-2.6,1.7-4.3c-0.7-1.6-2.6-2.4-4.3-1.7L60,19.9c-2.3,1.1-2.6,3.1-2.2,4.7  l2.4,9.5l-21.9,0.7c-0.3-0.1-0.5-0.2-0.8-0.3l-9.7-2.2c-2-0.4-3.8,0.5-4.2,2l-5.7,24.9c0,0-0.1,0.1-0.1,0.1L2.2,87.5  c-1.2,2.1-0.4,4.7,1.7,5.9c2.1,1.2,4.7,0.4,5.9-1.7L25,64.2l0.6,0.1L29,76c0,0.1,0.2,0.1,0.2,0.2c0,0.2,0.1,0.3,0.1,0.5v14.9  c0,2.4,2.4,4.3,4.4,4.3c1.9,0,4.4-1.9,4.4-4.3V76.7c0-0.8-0.2-1.6-0.7-2.3c0-0.3,0.1-0.5,0-0.8l-2.8-9.8c0-0.1,0.1-0.2,0.1-0.3  L39.3,43l22.5-0.7c0.1,0,0.2,0.1,0.3,0.1c0.1,0,0.1,0.1,0.2,0.1l1,4l-18.8,28c-0.4,0.6-0.5,1.3-0.5,2c0,1.1,0.4,2.1,1.2,2.9  c0.8,0.8,1.8,1.2,2.9,1.2c1.5,0,2.6-0.7,3.5-2.1L71.3,49l1,3.3l-2.9,22.8c-0.1,1.1,0.1,2.1,0.7,3c0.6,0.9,1.5,1.4,2.6,1.6  c1.1,0.2,2.1,0,3.1-0.7c0.9-0.7,1.5-1.5,1.6-2.7l3-22.6c0.1-0.8,0.1-2.8-0.1-3.7l-6.3-23.7H94c1.8,0,3.3-1.5,3.3-3.3  C97.2,21.3,95.8,19.9,94,19.9z"/><path class="st0" d="M41.5,26.4c0,3.6-2.9,6.5-6.5,6.5c-3.6,0-6.5-2.9-6.5-6.5c0-3.6,2.9-6.5,6.5-6.5C38.6,19.9,41.5,22.8,41.5,26.4  "/><text x="0" y="115" fill="#000000" font-size="5px" font-weight="bold" font-family="'Helvetica Neue', Helvetica, Arial-Unicode, Arial, Sans-serif">Created by Matt Fuller</text><text x="0" y="120" fill="#000000" font-size="5px" font-weight="bold" font-family="'Helvetica Neue', Helvetica, Arial-Unicode, Arial, Sans-serif">from the Noun Project</text></svg>