<svg xmlns="http://www.w3.org/2000/svg" version="1.1" viewBox="-5.0 -10.0 110.0 135.0">
 <path d="m79.941 80.832c-0.18359 0-0.36719-0.042969-0.53516-0.12891-5.3125-2.7344-16.582-4.4297-29.406-4.4297s-24.09 1.6992-29.406 4.4297c-0.42969 0.22266-0.94922 0.15625-1.3086-0.16406-0.36328-0.31641-0.49219-0.82422-0.32812-1.2773 6.5195-18.059 6.5195-40.492 0-58.551-0.16406-0.45313-0.035156-0.96094 0.32812-1.2773 0.36328-0.31641 0.88281-0.38281 1.3086-0.16406 5.3125 2.7344 16.582 4.4297 29.402 4.4297 12.824 0 24.09-1.6992 29.406-4.4297 0.42969-0.21875 0.94531-0.15625 1.3086 0.16406 0.36328 0.31641 0.49219 0.82422 0.32812 1.2773-6.5195 18.059-6.5195 40.492 0 58.551 0.16406 0.45312 0.035157 0.96094-0.32812 1.2773-0.21875 0.19141-0.49219 0.29297-0.77344 0.29297zm-57.918-58.395c5.5508 17.234 5.5508 37.863 0 55.098 6.1992-2.2812 16.336-3.6094 27.977-3.6094s21.781 1.3281 27.977 3.6094c-5.5508-17.234-5.5508-37.863 0-55.098-6.1953 2.2812-16.336 3.6094-27.977 3.6094s-21.781-1.3281-27.977-3.6094z" fill-rule="evenodd"/>
 <path d="m30.629 77.746c-0.32031 0-0.63281-0.13281-0.85547-0.37109-0.26953-0.28906-0.375-0.69141-0.28516-1.0742 3.7539-15.586 3.6797-36.746-0.19531-52.656-0.09375-0.38281 0.011719-0.78906 0.28516-1.0781 0.26953-0.28906 0.67188-0.42188 1.0586-0.35156 5.4961 0.96094 12.371 1.4922 19.363 1.4922 6.9727 0 13.836-0.52734 19.324-1.4844 0.38672-0.070312 0.78516 0.066406 1.0586 0.35547 0.26953 0.28906 0.375 0.69531 0.28516 1.0781-3.8555 15.844-3.9492 36.895-0.23828 52.461 0.058593 0.14062 0.09375 0.29687 0.09375 0.45703 0 0.64844-0.52344 1.1719-1.1719 1.1719h-0.015624c-0.066407 0-0.13281-0.003906-0.19922-0.015625-5.4531-0.93359-12.246-1.4492-19.133-1.4492-6.9023 0-13.711 0.51953-19.172 1.457-0.066406 0.011719-0.13281 0.015625-0.19922 0.015625zm1.3438-52.941c3.4258 15.438 3.4961 35.18 0.1875 50.336 5.293-0.79688 11.414-1.2109 17.836-1.2109 6.4062 0 12.516 0.41406 17.801 1.207-3.3086-15.156-3.2344-34.895 0.1875-50.328-5.2891 0.80078-11.598 1.2344-17.988 1.2344-6.4062 0-12.727-0.4375-18.027-1.2422z" fill-rule="evenodd"/>
 <path d="m41.652 76.523c-0.31641 0-0.62109-0.12891-0.84375-0.35938-0.23828-0.24609-0.35547-0.58594-0.32422-0.92578 1.4883-15.184 1.457-35.008-0.082031-50.5-0.035156-0.33984 0.082031-0.67969 0.32422-0.92969 0.23828-0.24609 0.57031-0.375 0.91406-0.35547 5.4258 0.33203 11.246 0.33594 16.672 0.003906 0.33984-0.019531 0.67578 0.10938 0.91406 0.35547 0.23828 0.24609 0.35547 0.58594 0.32422 0.92969-1.5273 15.422-1.5664 35.141-0.097656 50.305 0.027344 0.097656 0.039063 0.19922 0.039063 0.30469 0 0.64844-0.52344 1.1719-1.1719 1.1719h-0.015624c-0.023438 0-0.046876 0-0.070313-0.003907-5.3789-0.32422-11.137-0.32422-16.516 0.003907-0.023438 0-0.046875 0.003906-0.070312 0.003906zm1.2148-50.656c1.3789 14.953 1.4062 33.555 0.078124 48.238 4.6094-0.23438 9.4531-0.23438 14.066-0.003907-1.3281-14.688-1.3008-33.285 0.078125-48.234-4.6641 0.23828-9.5625 0.23437-14.223-0.003907z" fill-rule="evenodd"/>
 <path d="m49.98 76.273c-0.64844 0-1.1719-0.52734-1.1719-1.1719v-50.227c0-0.64844 0.52344-1.1719 1.1719-1.1719 0.64844 0 1.1719 0.52344 1.1719 1.1719v50.223c0 0.64844-0.52734 1.1719-1.1719 1.1719z" fill-rule="evenodd"/>
 <path d="m22.812 71.316c-0.29297 0-0.57812-0.10938-0.80078-0.31641-0.30469-0.28516-0.43359-0.70703-0.34375-1.1133 2.8711-12.832 2.8711-26.965 0-39.797-0.089844-0.40625 0.039062-0.82812 0.34375-1.1133 0.30469-0.28516 0.73438-0.38672 1.1328-0.26562 7.7461 2.2891 17.484 3.5469 27.418 3.5469h0.003906c9.5859 0 18.91-1.1914 26.25-3.3594 0.39453-0.11719 0.82812-0.015626 1.1328 0.26953 0.30469 0.28516 0.43359 0.70312 0.34375 1.1094-2.8125 12.711-2.8125 26.715 0 39.426 0.089843 0.40625-0.042969 0.82812-0.34375 1.1094-0.30469 0.28516-0.73438 0.38672-1.1328 0.26562-7.3398-2.1641-16.664-3.3594-26.25-3.3594-9.9336 0-19.668 1.2617-27.418 3.5469-0.10938 0.03125-0.21875 0.046875-0.33203 0.046875zm1.5469-39.832c2.4062 12.008 2.4062 25.004 0 37.012 7.6211-2.0156 16.836-3.1172 26.203-3.1172 9.1523 0 17.758 1.0078 25.039 2.9297-2.3555-11.887-2.3555-24.75 0-36.637-7.2812 1.9219-15.887 2.9336-25.039 2.9336h-0.003906c-9.3672 0-18.582-1.1016-26.203-3.1172z" fill-rule="evenodd"/>
 <path d="m24.605 59.746c-0.30469 0-0.59766-0.11719-0.81641-0.33203-0.25391-0.24609-0.37891-0.59375-0.34766-0.94531 0.50781-5.625 0.50781-11.332 0-16.957-0.03125-0.35156 0.097656-0.69922 0.34766-0.94531 0.25391-0.24609 0.60156-0.37109 0.95313-0.32422 7.4609 0.86719 16.633 1.3438 25.82 1.3438 8.9883 0 17.527-0.4375 24.691-1.2656 0.34766-0.039062 0.69922 0.078126 0.95312 0.32422 0.25391 0.24609 0.38281 0.59375 0.35156 0.94141-0.49609 5.5781-0.49609 11.23 0 16.805 0.03125 0.35156-0.097656 0.69531-0.35156 0.94141-0.25391 0.24609-0.60547 0.36328-0.95312 0.32422-7.1641-0.82812-15.699-1.2656-24.691-1.2656-9.1914 0-18.359 0.47656-25.824 1.3438-0.046875 0.003906-0.089843 0.007813-0.13672 0.007813zm1.2852-17.016c0.36328 4.8242 0.36328 9.6992 0 14.523 7.2773-0.77734 15.969-1.2031 24.672-1.2031 8.4922 0 16.594 0.38672 23.539 1.125-0.35547-4.7734-0.35547-9.5938 0-14.371-6.9453 0.73828-15.047 1.125-23.539 1.125-8.7031 0-17.398-0.42578-24.672-1.2031z" fill-rule="evenodd"/>
 <path d="m75.008 51.16h-50.02c-0.64844 0-1.1719-0.52344-1.1719-1.1719 0-0.64844 0.52344-1.1719 1.1719-1.1719h50.02c0.64844 0 1.1719 0.52344 1.1719 1.1719 0 0.64844-0.52344 1.1719-1.1719 1.1719z" fill-rule="evenodd"/>
 <path d="m79.941 21.488c-0.30078 0-0.59766-0.11328-0.82812-0.34375-0.45703-0.45703-0.45703-1.1992 0-1.6562l6.8125-6.8125c0.45703-0.45703 1.1992-0.45703 1.6562 0s0.45703 1.1992 0 1.6562l-6.8125 6.8125c-0.23047 0.23047-0.52734 0.34375-0.82812 0.34375z" fill-rule="evenodd"/>
 <path d="m89.398 16.773c-0.66406 0-1.2891-0.25781-1.7578-0.72656l-3.4375-3.4336c-0.96875-0.96875-0.96875-2.5469 0-3.5156l3.2305-3.2266 6.9492 6.9492-3.2266 3.2266c-0.46875 0.46875-1.0938 0.72656-1.7578 0.72656zm-0.30469-12.562 3.2266-3.2266c0.9375-0.9375 2.5781-0.9375 3.5156 0l3.4336 3.4336c0.46875 0.46875 0.72656 1.0938 0.72656 1.7578 0 0.66406-0.25781 1.2891-0.72656 1.7578l-3.2266 3.2266z" fill-rule="evenodd"/>
 <path d="m86.754 87.645c-0.30078 0-0.59766-0.11328-0.82812-0.34375l-6.8125-6.8125c-0.45703-0.45703-0.45703-1.1992 0-1.6562s1.1992-0.45703 1.6562 0l6.8125 6.8125c0.45703 0.45703 0.45703 1.1992 0 1.6562-0.23047 0.23047-0.52734 0.34375-0.82812 0.34375z" fill-rule="evenodd"/>
 <path d="m94.078 99.719c-0.66406 0-1.2891-0.25781-1.7578-0.72656l-3.2266-3.2266 6.9492-6.9492 3.2266 3.2266c0.46875 0.46875 0.72656 1.0938 0.72656 1.7578 0 0.66406-0.25781 1.2891-0.72656 1.7578l-3.4336 3.4336c-0.46875 0.46875-1.0938 0.72656-1.7578 0.72656zm-6.6445-5.6133-3.2266-3.2266c-0.96875-0.96875-0.96875-2.5469 0-3.5156l3.4336-3.4336c0.9375-0.9375 2.5781-0.9375 3.5156 0l3.2266 3.2266z" fill-rule="evenodd"/>
 <path d="m20.059 21.488c-0.30078 0-0.60156-0.11328-0.82812-0.34375l-6.8125-6.8125c-0.45703-0.45703-0.45703-1.1992 0-1.6562s1.1992-0.45703 1.6562 0l6.8125 6.8125c0.45703 0.45703 0.45703 1.1992 0 1.6562-0.23047 0.23047-0.52734 0.34375-0.82812 0.34375z" fill-rule="evenodd"/>
 <path d="m10.602 16.773c-0.66406 0-1.2891-0.25781-1.7578-0.72656l-3.2266-3.2305 6.9492-6.9492 3.2305 3.2266c0.96875 0.96875 0.96875 2.5469 0 3.5156l-3.4336 3.4336c-0.46875 0.46875-1.0938 0.72656-1.7578 0.72656zm-6.6445-5.6094-3.2266-3.2305c-0.46875-0.46875-0.72656-1.0938-0.72656-1.7578 0-0.66406 0.25781-1.2891 0.72656-1.7578l3.4336-3.4336c0.9375-0.9375 2.5781-0.9375 3.5156 0l3.2266 3.2266-6.9492 6.9492z" fill-rule="evenodd"/>
 <path d="m13.246 87.645c-0.30078 0-0.60156-0.11328-0.82812-0.34375-0.45703-0.45703-0.45703-1.1992 0-1.6562l6.8125-6.8125c0.45703-0.45703 1.1992-0.45703 1.6562 0s0.45703 1.1992 0 1.6562l-6.8125 6.8125c-0.23047 0.23047-0.52734 0.34375-0.82812 0.34375z" fill-rule="evenodd"/>
 <path d="m5.9219 99.719c-0.66406 0-1.2891-0.25781-1.7578-0.72656l-3.4336-3.4336c-0.46875-0.46875-0.72656-1.0938-0.72656-1.7578 0-0.66406 0.25781-1.2891 0.72656-1.7578l3.2266-3.2266 6.9492 6.9492-3.2305 3.2305c-0.46875 0.46875-1.0898 0.72656-1.7539 0.72656zm-0.30859-12.562 3.2266-3.2266c0.9375-0.93359 2.5781-0.9375 3.5156 0l3.4336 3.4336c0.46875 0.46875 0.72656 1.0938 0.72656 1.7578 0 0.66406-0.25781 1.2891-0.72656 1.7578l-3.2266 3.2266z" fill-rule="evenodd"/>
<text x="0.0" y="117.5" font-size="5.0" font-weight="bold" font-family="Arbeit Regular, Helvetica, Arial-Unicode, Arial, Sans-serif" fill="#000000">Created by Amir Ali</text><text x="0.0" y="122.5" font-size="5.0" font-weight="bold" font-family="Arbeit Regular, Helvetica, Arial-Unicode, Arial, Sans-serif" fill="#000000">from Noun Project</text></svg>