<svg xmlns="http://www.w3.org/2000/svg" xmlns:xlink="http://www.w3.org/1999/xlink" version="1.1" x="0px" y="0px" viewBox="-4.9 -9.8 107.8 132.29999999999998" style="enable-background:new 0 0 98 98;" xml:space="preserve"><style type="text/css">
	.st0{fill-rule:evenodd;clip-rule:evenodd;}
</style><path d="M79.375,38.74c-3.443,5.965-8.873,10.611-15.288,13.083l-0.406,0.156l-0.048-0.433c-0.074-0.671-0.174-1.362-0.305-2.111  l-0.047-0.267l0.251-0.102c5.633-2.285,10.41-6.444,13.45-11.709c2.836-4.913,4.072-10.482,3.574-16.107l-0.022-0.245l0.228-0.094  c0.728-0.301,1.38-0.594,1.991-0.896l0.429-0.212l0.053,0.475C83.947,26.641,82.576,33.197,79.375,38.74z M75.255,36.361  c2.501-4.331,3.665-9.245,3.367-14.21l-0.026-0.429l-0.41,0.13c-4.812,1.521-9.977,1.894-14.936,1.079l-0.229-0.038L56.377,34.4  l0.147,0.179c2.897,3.537,5.05,7.768,6.228,12.236l0.099,0.375l0.357-0.152C68.243,44.888,72.522,41.096,75.255,36.361z   M14.845,82.33c-0.369,0.62-0.285,1.368-0.15,1.886c0.321,1.234,1.277,2.519,2.327,3.126c0.699,0.403,1.639,0.62,2.552,0.62  c0.458,0,0.908-0.054,1.319-0.167c0.517-0.142,1.207-0.444,1.558-1.073l28.235-50.483l0.161-0.289l-6.231-3.599L14.845,82.33z   M43.913,24.547l0.292,0.492l4.646-8.047l-0.38-0.135c-3.261-1.157-7.231-1.654-11.791-1.475l-0.892,0.035l0.694,0.561  C39.463,18.386,41.964,21.269,43.913,24.547z M52.678,14.349l-8.813,15.266l8.666,5.004l0.001,0.142h0.246l0.817,0.473l8.814-15.266  L52.678,14.349z M62.979,14.265c0.514-0.919,0.225-2.076-0.646-2.579l-2.446-1.412c-0.87-0.502-2.016-0.176-2.556,0.73l-1.652,2.776  l5.722,3.305L62.979,14.265z"/><text x="0.0" y="115.14999999999998" font-size="4.9" font-weight="bold" font-family="Arbeit Regular, Helvetica, Arial-Unicode, Arial, Sans-serif" fill="#000000">Created by Trend Icons</text><text x="0.0" y="120.04999999999998" font-size="4.9" font-weight="bold" font-family="Arbeit Regular, Helvetica, Arial-Unicode, Arial, Sans-serif" fill="#000000">from Noun Project</text></svg>