<svg xmlns="http://www.w3.org/2000/svg" version="1.1" viewBox="-5.0 -10.0 110.0 135.0">
 <g>
  <path d="m54.652 41.875 1.6602 1.168-3.0859-8.3711-2.9492 6.082c1.4961-0.16016 3.0547 0.19141 4.375 1.1211z"/>
  <path d="m37.191 52.848c0 2.8125 2.2969 5.0977 5.1172 5.0977 2.8242 0 5.1172-2.2891 5.1172-5.0977v-0.40625l-0.16406-0.11719c-1.4023-0.98438-2.332-2.457-2.625-4.1406-0.28906-1.6836 0.09375-3.375 1.0781-4.7695 0.47656-0.67187 1.0586-1.2188 1.7109-1.6445v-1.5664c0-2.8125-2.2969-5.0977-5.1172-5.0977-2.8242 0-5.1172 2.2891-5.1172 5.0977z"/>
  <path d="m46.777 44.164c-0.78906 1.1133-1.0938 2.4648-0.85938 3.8047 0.23047 1.3438 0.97656 2.5156 2.0938 3.3008l0.42969 0.30078s0.003906 0 0.003906 0.003907l9.8633 6.9219c0.94922 0.66406 1.5078 1.7539 1.4961 2.9102-0.011719 1.1562-0.59375 2.2344-1.5547 2.8828-4.6133 3.1055-7.4766 8.2656-7.4766 13.465 0 0.35547-0.28906 0.64844-0.64844 0.64844-0.35547 0-0.64844-0.28906-0.64844-0.64844 0-5.7109 3.0078-11.145 8.0469-14.539 0.61719-0.41797 0.97656-1.082 0.98437-1.8203 0.007813-0.74219-0.33594-1.4102-0.94531-1.8359l-8.8633-6.2188c-0.25 3.2969-3.0156 5.9062-6.3867 5.9062-2.5352 0-4.7266-1.4805-5.7656-3.6133-1.0391 2.1328-3.2305 3.6133-5.7656 3.6133-2.0938 0-3.9492-1.0078-5.1172-2.5586v4.0898c0 14.738 12.031 26.73 26.82 26.73 7.6211 0 21.852-4.7266 21.852-16.109v-10.152c0-2.8438-0.60938-4.375-2.168-5.4727l-18.258-12.832c-2.3086-1.6289-5.5078-1.0781-7.1328 1.2227z"/>
  <path d="m30.781 57.945c2.8203 0 5.1172-2.2891 5.1172-5.0977v-9.1914c0-2.8125-2.2969-5.1016-5.1172-5.1016-2.8242 0-5.1172 2.2891-5.1172 5.1016v9.1914c0 2.8125 2.2969 5.0977 5.1172 5.0977z"/>
  <path d="m71.594 20.238c0.59766-1.2227 0.6875-2.6016 0.24219-3.8906-0.44141-1.2891-1.3633-2.332-2.5938-2.9297-2.5273-1.2344-5.5859-0.19141-6.832 2.3125l-1.3984 2.8828 4.9297 12.871z"/>
  <path d="m58.121 44.211c0.015625 0.042968 0.027344 0.082031 0.03125 0.125l12.277 8.6289-0.16016-3.6875c-0.089843-2.1367-0.52734-4.2344-1.293-6.2305l-10.387-27.148c-0.95312-2.6641-3.8867-4.0469-6.5469-3.1016-1.2891 0.45703-2.3242 1.3906-2.9062 2.625-0.58203 1.2305-0.65234 2.6094-0.19141 3.8906z"/>
 </g>
<text x="0.0" y="117.5" font-size="5.0" font-weight="bold" font-family="Arbeit Regular, Helvetica, Arial-Unicode, Arial, Sans-serif" fill="#000000">Created by bsd studio</text><text x="0.0" y="122.5" font-size="5.0" font-weight="bold" font-family="Arbeit Regular, Helvetica, Arial-Unicode, Arial, Sans-serif" fill="#000000">from Noun Project</text></svg>