<svg xmlns="http://www.w3.org/2000/svg" version="1.1" viewBox="-5.0 -10.0 110.0 135.0">
 <path d="m49.91 92.098c-3.5898 0-7.2188-0.46484-10.809-1.4258-19.172-5.1367-32.277-23.227-31.152-43.02 0.046875-0.86328 0.78906-1.5117 1.6523-1.4727 0.86328 0.046874 1.5234 0.78906 1.4727 1.6523-1.043 18.32 11.094 35.066 28.84 39.828 17.75 4.7617 36.629-3.6875 44.891-20.07 0.39062-0.77344 1.3281-1.082 2.0977-0.69141 0.77344 0.39062 1.082 1.3281 0.69141 2.0977-7.2578 14.379-22.094 23.098-37.688 23.098zm0.089844-10.109c-3.832 0-6.957-3.1172-6.957-6.957v-24.738h-6.582c-2.6953-0.03125-5.207-1.6367-6.4297-4.0781-1.082-2.1797-0.90234-4.6133 0.48828-6.5039l13.551-18.375c1.5859-2.1484 3.6641-3.3438 5.9414-3.3281h0.015625c2.2305 0 4.3359 1.1797 5.918 3.3281l13.543 18.375c1.3906 1.8945 1.5781 4.3203 0.49609 6.5039-1.2109 2.4414-3.7266 4.0352-6.4141 4.0781h-6.6016v24.73c-0.007812 3.8398-3.1328 6.9648-6.9648 6.9648zm-7.332 17.457c-0.082031 0-0.15625-0.007812-0.23438-0.015624-23.266-3.5391-41.082-23.191-42.359-46.73-1.2695-23.535 14.316-44.996 37.063-51.027 0.83203-0.21875 1.6914 0.27734 1.9141 1.1055 0.21875 0.83203-0.27734 1.6914-1.1055 1.9141-21.328 5.6562-35.938 25.773-34.742 47.836s17.895 40.488 39.707 43.809c0.85547 0.12891 1.4414 0.92578 1.3086 1.7812-0.12109 0.77344-0.78906 1.3281-1.5469 1.3281zm19.801-1.0742c-0.69141 0-1.3281-0.46484-1.5039-1.1641-0.21875-0.83984 0.27734-1.6914 1.1055-1.9141 21.328-5.6562 35.938-25.773 34.742-47.836s-17.895-40.488-39.707-43.801c-0.85547-0.12891-1.4414-0.92578-1.3086-1.7812 0.12891-0.85547 0.91797-1.4414 1.7812-1.3086 23.266 3.5391 41.082 23.191 42.352 46.73 1.2773 23.535-14.316 44.996-37.062 51.027-0.13672 0.03125-0.26953 0.046875-0.39844 0.046875zm28.027-44.555h-0.089844c-0.86328-0.046875-1.5234-0.78906-1.4727-1.6523 1.043-18.32-11.094-35.066-28.84-39.828-17.75-4.7539-36.629 3.6875-44.891 20.078-0.39062 0.77344-1.3281 1.082-2.0977 0.69141-0.77344-0.39062-1.082-1.3281-0.69141-2.0977 8.918-17.699 29.312-26.824 48.488-21.68 19.172 5.1367 32.277 23.234 31.152 43.02-0.046876 0.83203-0.73438 1.4727-1.5547 1.4727z" fill-rule="evenodd"/>
<text x="0.0" y="117.5" font-size="5.0" font-weight="bold" font-family="Arbeit Regular, Helvetica, Arial-Unicode, Arial, Sans-serif" fill="#000000">Created by Pixels Peak</text><text x="0.0" y="122.5" font-size="5.0" font-weight="bold" font-family="Arbeit Regular, Helvetica, Arial-Unicode, Arial, Sans-serif" fill="#000000">from Noun Project</text></svg>