<svg xmlns="http://www.w3.org/2000/svg" version="1.1" viewBox="-5.0 -10.0 110.0 135.0">
 <path d="m89.156 66.105c0-0.10547 0-0.10547-0.10547-0.21094v-0.10547-0.10547l-9.0508-9.5781v-0.10547c0.42188-2 0.63281-4 0.63281-6 0-0.94922-0.10547-2-0.21094-3.1562l7.2617-4.1055c0.21094-0.10547 0.31641-0.31641 0.31641-0.52734v-12.738c0-0.21094-0.10547-0.42188-0.31641-0.52734l-10.633-6.4219c-0.21094-0.10547-0.42188-0.10547-0.73828 0l-6.7383 4c-2.2109-1.8945-4.7383-3.4727-7.3672-4.6328 0-0.21094 0-0.42188-0.10547-0.52734l-12.633-16.316c-0.10547-0.10547-0.21094-0.21094-0.31641-0.21094-0.31641-0.10547-0.52734 0-0.73828 0.21094l-12.105 16.844c-0.10547 0.10547-0.10547 0.31641-0.10547 0.42188-2.2109 1.0508-4.3164 2.4219-6.3164 4.1055l-7.6836-4.4219c-0.21094-0.10547-0.42188-0.10547-0.63281 0l-11.359 6.5312c-0.21094 0.10547-0.31641 0.31641-0.31641 0.52734v13.051c0 0.21094 0.10547 0.42188 0.31641 0.52734l8.7383 5.0508v2.3164c0 0.94922 0.10547 2 0.21094 3.1562l-4.8438 1.582c-0.10547 0-0.31641 0.10547-0.31641 0.21094l-4.6328 6.3164c-0.10547 0.10547-0.10547 0.31641-0.10547 0.42188v7.7891c0 0.10547 0 0.31641 0.10547 0.42188l4.5273 6.3164c0.10547 0.10547 0.21094 0.21094 0.31641 0.21094l7.3672 2.4219h0.21094 0.21094l7.3672-2.4219c0.10547 0 0.31641-0.10547 0.31641-0.21094l1.2617-1.6836c2 1.5781 4.2109 2.8438 6.4219 3.7891l-1.4727 1.2617c-0.10547 0.10156-0.10547 0.20703-0.10547 0.41797v3.4727c0 0.21094 0.10547 0.31641 0.21094 0.52734l12.738 11.051c0.10547 0.10547 0.31641 0.21094 0.42188 0.21094 0.10547 0 0.31641-0.10547 0.42188-0.21094l12.629-10.84c0.10547-0.10547 0.21094-0.31641 0.21094-0.52734v-3.5781c0-0.21094-0.10547-0.31641-0.21094-0.52734l-1.1562-0.94922c3.3672-1.3672 6.4219-3.1562 9.0508-5.5781l4.9492 5.1562c0.10547 0.10547 0.31641 0.21094 0.42187 0.21094 0.21094 0 0.31641-0.10547 0.42188-0.21094l12.949-11.473c0.10547-0.10547 0.21094-0.31641 0.21094-0.42188 0.20312 0.003906 0.097656-0.10156 0.097656-0.20703zm-2.418-24.422-9.2617 5.3672-0.003906-10.945 9.2617-5.4727zm-10.105-17.895 9.3672 5.6836-9.2617 5.4727-9.3672-5.6836zm-0.52734 12.527v10.738l-9.2617-5.3672v-11.266l9.2617 5.6836-0.10547-0.10547c0 0.10547 0 0.21094 0.10547 0.31641zm-15.262-14.738-10.844 8.6328-0.31641-23.055zm-12.422-14.316 0.31641 22.949-10.949-8.2109zm-20 33.055 3.4727 1.8945-7.7891 4.5273zm-6.5273 7.1562-5.0508-7.3672h10.105zm7.1562-8.3164 3.4727-7.2617 0.003906 9.1562zm-0.83984-1.1562-5.0508-8.8438 9.1562 0.42188zm-5.6836-14.316 8 4.6328-8-0.42188zm-0.63281 6.1055 5.1562 8.9492h-10.316zm-0.63281-6.1055v4.2109l-8 0.42188zm-0.52344 5.4727-5.0508 8.8438-4.1094-8.3164zm-9.4766 2.7383 3.4727 7.2617-3.4727 1.8945zm4.1055 8.4219 4.3164 6.4219-7.7891-4.5273zm-0.41797 15.684 6.3164-2v4.2109l-6.6328 4.8438-3.6836-1.5781zm13.367 7.8945-2.4219 7.4727h-8l-2.4219-7.4727 6.4219-4.6328zm-5.7891-5.7891 0.10547-4.2109 6.3164 2.1055 3.8945 5.3672-3.6836 1.4727zm-12 11.156v-6.6328l3.5781 1.5781 2.5273 7.7891-2.1055 2.7422zm11.262 8.3164-6.2109-2.1055 2.2109-2.7383h8.2109l2.1055 2.7383zm7.3672-2.7344-2.1055-2.8438 2.5273-7.8945 3.6836-1.4727v6.7383zm7.8945 5.4727 10.316-8.3164-5.1562 8.8438-5.1562 1.7891zm11.371 12.84-10.844-9.4727 4.7383-1.5781 6.2109 3.5781zm0.83984-8.5234-5.6836-3.3672 5.6836-9.8945 5.6836 10zm0.52734 8.5234 0.10547-7.4727 6.1055-3.4727 4.6328 1.6836zm11.367-10.418-5.0508-1.7891-5.0508-8.9492 10.105 8.4219zm13.793-6.5273-8.9492-9.1562 9.0508 3.5781zm0.20703-7.0547-10.316-4 10.738-10.527zm0.52734-16.629-12.527 12.316v0.10547 0.10547c-0.10547 0.21094 0 0.52734 0.10547 0.73828l6.2109 6.4219c-2.7383 2.4219-5.8945 4.3164-9.2617 5.5781h-0.10547l-10.422-8.6328c-0.21094-0.21094-0.63281-0.21094-0.84375 0l-10.211 8.3164h-0.10547c-2.3164-0.94922-4.6328-2.3164-6.7383-3.8945l2.6328-3.5781c0.10547-0.10547 0.10547-0.31641 0.10547-0.42188v-7.7891c0-0.10547-0.10547-0.31641-0.10547-0.31641l-4.5273-6.3164c-0.10547-0.10547-0.21094-0.21094-0.31641-0.21094l-7.3672-2.4219h-0.42188l-1.4727 0.42188c-0.10547-1.0508-0.10547-2-0.10547-2.8438v-1.4727-0.10547l1.3672 0.73828c0.10547 0.10547 0.21094 0.10547 0.31641 0.10547s0.21094 0 0.31641-0.10547l11.367-6.5273c0.21094-0.10547 0.31641-0.31641 0.31641-0.52734l0.003906-13.16c0-0.21094-0.10547-0.42188-0.31641-0.52734l-2.4219-1.3672c1.8945-1.5781 4-2.8438 6.1055-3.8945l11.789 8.7383c0.10547 0.10547 0.21094 0.10547 0.31641 0.10547 0.10547 0 0.21094 0 0.31641-0.10547l11.578-9.2617c2.5273 1.0508 4.9492 2.5273 7.1562 4.3164l-2.7383 1.5781c-0.21094 0.10547-0.31641 0.31641-0.31641 0.52734l0.003907 12.945c0 0.21094 0.10547 0.42188 0.31641 0.52734l10.633 6.1055c0.10547 0.10547 0.21094 0.10547 0.31641 0.10547 0.10547 0 0.21094 0 0.31641-0.10547l2.2109-1.2617c0.10547 0.94922 0.10547 1.7891 0.10547 2.5273 0 1.5781-0.10547 3.2617-0.42188 4.9492l-2.3164-2.4219c-0.10547-0.10547-0.31641-0.21094-0.42188-0.21094 0-0.003906-0.21094 0.10156-0.42188 0.20703zm0.63281 23.684 0.10547-5.6836 9.3672-2.7383zm0.21094-7.0547 0.31641-14.523 10.527 11.367z"/>
</svg>

