<svg xmlns="http://www.w3.org/2000/svg" version="1.1" viewBox="-5.0 -10.0 110.0 135.0">
    <path
        d="m97.191 31.062c-1.2812-8.1836-6.4023-15.109-14.051-19.023-9.4102-4.8438-21.66-2.543-29.789 5.5859l-3.3398 3.3398-3.9531-3.9531c-5.7539-5.7344-13.977-8.4258-22.016-7.1445-8.1875 1.2812-15.129 6.3867-19.023 14.031-4.8438 9.4102-2.543 21.66 5.5859 29.809l34.934 34.914c1.1875 1.207 2.7852 1.8555 4.4727 1.8555 1.707 0 3.2852-0.66797 4.4727-1.8555l35.547-35.547c5.7539-5.7344 8.4258-13.977 7.1641-22.016zm-12.211 7.1094c2.375 2.375 2.375 6.2539 0 8.6328l-0.87109 0.87109c-1.168 1.168-2.6914 1.8008-4.3242 1.8008-1.6328 0-3.1562-0.63281-4.3242-1.8008l-3.4883-3.4883-3.5078 3.4883c-1.1523 1.168-2.6914 1.8008-4.3242 1.8008-1.6133 0-3.1562-0.63281-4.3047-1.8008l-0.89063-0.87109c-2.375-2.375-2.375-6.2539 0-8.6328l3.5078-3.5078-3.5078-3.5078c-2.375-2.375-2.375-6.2383 0-8.6328l0.89063-0.87109c1.1523-1.1523 2.6914-1.7812 4.3047-1.7812 1.6328 0 3.1758 0.63281 4.3242 1.7812l3.5078 3.5078 3.4883-3.5078c1.168-1.1523 2.6914-1.7812 4.3242-1.7812 1.6328 0 3.1562 0.63281 4.3242 1.7812l0.87109 0.87109c2.375 2.3945 2.375 6.2539 0 8.6328l-3.5078 3.5078z" />
    <path
        d="m61.312 40.531c-1.0742 1.0781-1.0742 2.8398 0 3.9141l0.87109 0.87109c1.0742 1.0781 2.8398 1.0781 3.9141 0l3.5078-3.4883-4.7891-4.7891-3.5078 3.4883z" />
    <path
        d="m81.73 24.012c-1.0742-1.0781-2.8203-1.0781-3.8984 0l-3.5078 3.5078 4.7891 4.7891 3.5078-3.5078c1.0742-1.0781 1.0742-2.8203 0-3.8984z" />
    <path
        d="m61.312 24.891 0.87891-0.87891c1.0781-1.0781 2.8281-1.0781 3.9062 0l16.512 16.527c1.0781 1.0781 1.0781 2.832 0 3.9102l-0.87891 0.87891c-1.0781 1.0781-2.832 1.0781-3.9102 0l-16.512-16.523c-1.0781-1.0781-1.0781-2.832 0-3.9102z" />
</svg>
