<svg xmlns="http://www.w3.org/2000/svg" version="1.1" viewBox="-5.0 -10.0 110.0 135.0">
 <path d="m21.91 43c-8.2812 0-15 9.2383-15 20.602 0 5.3594 1.4688 8.6484 4.6094 10.359 2.7188 1.4688 6.3281 1.4688 10.121 1.4688h0.85156c3.6992 0 7.1914 0 9.8398-1.4688 3.1484-1.7109 4.6094-5 4.6094-10.359-0.019531-11.41-6.75-20.602-15.031-20.602zm-9.1602 29.469c-1.3789-0.75-3.2305-2.3984-3.2305-8 0-9.9102 5.5586-18 12.391-18 2.1562 0.035156 4.2344 0.80078 5.8984 2.1719-6.1914 0.39062-11.121 6.9492-11.121 15h0.003906c-0.039062 3.5586 1.0039 7.0469 3 10-2.793-0.050781-5.2031-0.23047-6.9414-1.1719zm14.352-14.23c-2 2-4.6211 2.7383-5.7812 1.5703-1.1602-1.1719-0.46094-3.75 1.5703-5.7812s4.6289-2.7383 5.7891-1.5703c1.1602 1.1719 0.46094 3.7539-1.5781 5.7812z"/>
 <path d="m40.422 32.289c-4.3906-3-13.879-8.3984-22.578-7.5898-5.1523 0.49219-9.4727 3.3008-12.844 8.4219 3.75-2.7148 8.2227-4.2539 12.852-4.4219 6.3398-0.58984 13.289 4.4102 17.078 7.6719 1.6953 1.4609 4.2227 1.3867 5.832-0.17188 0.54297-0.53125 0.81641-1.2773 0.75391-2.0352-0.066406-0.75781-0.46875-1.4453-1.0938-1.875z"/>
 <path d="m82.16 24.699c-8.6992-0.80859-18.191 4.6289-22.578 7.5898h-0.003906c-0.625 0.42969-1.0273 1.1172-1.0938 1.875-0.0625 0.75781 0.21094 1.5039 0.75391 2.0352 1.6094 1.5586 4.1367 1.6328 5.832 0.17188 3.7891-3.2617 10.738-8.2617 17.078-7.6719 4.6289 0.16797 9.1016 1.707 12.852 4.4219-3.3711-5.1211-7.6914-7.9297-12.84-8.4219z"/>
 <path d="m78.09 43c-8.2812 0-15 9.2383-15 20.602 0 5.3594 1.4609 8.6484 4.6094 10.359 2.6484 1.4297 6.1406 1.4688 9.8398 1.4688h0.85156c3.7891 0 7.3984 0 10.121-1.4688 3.1406-1.7109 4.6094-5 4.6094-10.359-0.011719-11.41-6.75-20.602-15.031-20.602zm-4 15.289c-2 2-4.6289 2.7383-5.7891 1.5703-1.1602-1.168-0.44141-3.8008 1.5977-5.8594 2.0391-2.0586 4.6211-2.7383 5.7812-1.5703 1.1602 1.1719 0.46094 3.7812-1.5703 5.8086zm13.16 14.18c-1.7383 0.94141-4.1484 1.1211-6.9414 1.1484v0.003906c1.9961-2.9531 3.0391-6.4414 3-10 0-8-4.9297-14.578-11.121-15h0.003906c1.6641-1.3711 3.7422-2.1367 5.8984-2.1719 6.8281 0 12.391 8.0586 12.391 18 0 5.6211-1.8516 7.2695-3.2305 8.0195z"/>
<text x="0.0" y="117.5" font-size="5.0" font-weight="bold" font-family="Arbeit Regular, Helvetica, Arial-Unicode, Arial, Sans-serif" fill="#000000">Created by Kim Sun Young</text><text x="0.0" y="122.5" font-size="5.0" font-weight="bold" font-family="Arbeit Regular, Helvetica, Arial-Unicode, Arial, Sans-serif" fill="#000000">from Noun Project</text></svg>