<svg xmlns="http://www.w3.org/2000/svg" version="1.1" viewBox="-5.0 -10.0 110.0 135.0">
 <path d="m59.367 20.316c0-5.0508-2.3633-9.625-6.1719-12.934-3.7812-3.2773-9.0078-5.3164-14.734-5.3164-5.7578 0-10.957 2.0391-14.734 5.3164-3.8359 3.3086-6.1992 7.8828-6.1992 12.934 0 0.94531 0.085937 1.918 0.26562 2.8633 0.14844 0.82812 0.35547 1.625 0.62109 2.3906-1.3594 3.3359-3.1875 7.7383-3.1875 7.7383-0.23828 0.53125 0.027344 1.1523 0.55859 1.3594 0.14844 0.058593 0.29297 0.089843 0.44531 0.089843l9.5391 0.058594c1.7422 1.1523 3.7227 2.0977 5.8438 2.7461 2.125 0.64844 4.4297 0.97266 6.8516 0.97266 5.7266 0 10.953-2.0078 14.734-5.2852 3.8047-3.3086 6.168-7.8867 6.168-12.934zm-30.707-5.9648h9.1836c1.1523 0 2.0977 0.94531 2.0977 2.0977 0 1.1523-0.94531 2.0664-2.0977 2.0664h-9.1836c-1.1211 0-2.0664-0.91406-2.0664-2.0664-0.003906-1.1523 0.94531-2.0977 2.0664-2.0977zm17.184 11.93h-17.184c-1.1211 0-2.0664-0.94531-2.0664-2.0977s0.94531-2.0664 2.0664-2.0664h17.184c1.1523 0 2.0664 0.91406 2.0664 2.0664s-0.91406 2.0977-2.0664 2.0977zm15.707 12.254c-2.2148 0-4.3398-0.29297-6.3477-0.85547-0.23828-0.058594-0.44531-0.11719-0.65234-0.17578 0.47266-0.35547 0.91406-0.70703 1.3594-1.0938 4.7227-4.0742 7.6172-9.8047 7.6172-16.094 0-6.2891-2.8945-12.02-7.6172-16.094-0.44531-0.38281-0.88672-0.73828-1.3594-1.0938 0.20703-0.058594 0.41406-0.14844 0.65234-0.20703 2.0078-0.53125 4.1328-0.85547 6.3477-0.85547 5.7305 0 10.957 2.0391 14.734 5.3164 3.8086 3.3086 6.1719 7.8828 6.1719 12.934 0 0.94531-0.089843 1.918-0.26562 2.8633-0.14844 0.82812-0.35547 1.625-0.62109 2.3906 1.3594 3.3359 3.1914 7.7383 3.2188 7.7383 0.03125 0.11719 0.058594 0.26562 0.058594 0.38281 0 0.58984-0.44531 1.0625-1.0352 1.0625l-9.5664 0.058594c-1.7734 1.1523-3.75 2.0977-5.8477 2.7461-2.1523 0.65234-4.4531 0.97656-6.8477 0.97656zm-21.938 35.461c2.5078 2.5391 4.0742 6.0234 4.0742 9.8633v13.02c0 0.5625-0.44141 1.0352-1.0352 1.0352h-39.535c-0.5625 0-1.0352-0.47266-1.0352-1.0352v-13.02c0-3.8398 1.5664-7.3242 4.1016-9.8633 1.2734-1.2695 2.8047-2.3047 4.4883-3.0117 0.089844 0.058594 0.14844 0.11719 0.23828 0.20703 3.1875 3.1875 7.4688 4.9609 11.988 4.9609 4.4883 0 8.8008-1.7734 11.988-4.9609 0.058593-0.089844 0.14844-0.14844 0.20703-0.20703 1.6836 0.70703 3.2188 1.7422 4.5195 3.0117zm-25.777-5.7578c-2.3047-2.3047-3.75-5.5234-3.75-9.0352 0-3.543 1.4453-6.7305 3.75-9.0664 2.332-2.3047 5.5234-3.7227 9.0664-3.7227 3.5117 0 6.7305 1.418 9.0352 3.7227 2.3047 2.332 3.75 5.5234 3.75 9.0664 0 3.5117-1.4453 6.7305-3.75 9.0352-2.3047 2.3047-5.5234 3.75-9.0352 3.75-3.5469 0-6.7344-1.4453-9.0664-3.75zm84.062 15.621v13.02c0 0.5625-0.44531 1.0352-1.0352 1.0352h-39.531c-0.5625 0-1.0352-0.47266-1.0352-1.0352v-13.02c0-3.8398 1.5664-7.3242 4.1016-9.8633 1.2695-1.2695 2.8047-2.3047 4.4883-3.0117 0.089843 0.058594 0.14844 0.11719 0.23828 0.20703 3.1914 3.1875 7.4727 4.9609 11.988 4.9609 4.4883 0 8.8008-1.7734 11.988-4.9609 0.058594-0.089844 0.11719-0.14844 0.20703-0.20703 1.6836 0.70703 3.2188 1.7422 4.5156 3.0117 2.5117 2.5391 4.0742 6.0234 4.0742 9.8633zm-20.785-37.441c3.5117 0 6.7305 1.418 9.0352 3.7227 2.3047 2.332 3.75 5.5234 3.75 9.0664 0 3.5117-1.4453 6.7305-3.75 9.0352-2.3047 2.3047-5.5234 3.75-9.0352 3.75-3.543 0-6.7305-1.4453-9.0664-3.75-2.3047-2.3047-3.75-5.5234-3.75-9.0352 0-3.543 1.4453-6.7305 3.75-9.0664 2.3359-2.3047 5.5234-3.7227 9.0664-3.7227z" fill-rule="evenodd"/>
<text x="0.0" y="117.5" font-size="5.0" font-weight="bold" font-family="Arbeit Regular, Helvetica, Arial-Unicode, Arial, Sans-serif" fill="#000000">Created by mimumi</text><text x="0.0" y="122.5" font-size="5.0" font-weight="bold" font-family="Arbeit Regular, Helvetica, Arial-Unicode, Arial, Sans-serif" fill="#000000">from Noun Project</text></svg>