<svg xmlns="http://www.w3.org/2000/svg" xmlns:xlink="http://www.w3.org/1999/xlink" version="1.1" x="0px" y="0px" viewBox="0 0 269.736 322.3125" style="enable-background:new 0 0 269.736 257.85;" xml:space="preserve"><g><path d="M170.94,76.485c0.632,0.451,1.014,1.294,1.357,2.063c0.151,0.338,0.395,0.881,0.557,1.084   c0.363-0.009,0.789-0.162,1.167-0.298c0.814-0.293,1.738-0.548,2.446-0.242c1.27,0.552,2.486,1.487,3.099,1.995   c0.308,0.255,0.567,0.568,0.789,0.903c0.381-0.039,0.771-0.074,1.172-0.074l0.214,0.003c0.499,0.016,0.998,0.079,1.481,0.141   c0.502,0.063,0.979,0.124,1.438,0.132c0.189-0.121,0.554-0.567,0.777-0.841c0.608-0.746,1.297-1.59,2.27-1.605   c0.002,0,0.005,0,0.007,0c0.609,0,1.113,0.076,1.602,0.149c0.015,0.002,0.029,0.004,0.044,0.006   c0.46-0.246,0.935-0.475,1.398-0.677c0.176-0.077,0.365-0.116,0.562-0.116c0.706,0,1.305,0.496,1.938,1.021   c0.058,0.048,0.136,0.112,0.212,0.173c0.022,0,0.047,0.005,0.069,0.005l0.127-0.002c0.002,0,0.004,0,0.006,0   c0.45,0,0.842,0.113,1.201,0.267c0.052-0.053,0.102-0.106,0.147-0.152c0.527-0.547,1.244-1.292,2.263-1.343   c0.192-0.123,0.563-0.604,0.791-0.899c0.607-0.788,1.296-1.682,2.299-1.717h0.001c1.041,0,1.697,0.949,2.361,2.007   c0.72,0.092,1.252,0.631,1.737,1.33c0.139-0.044,0.278-0.088,0.424-0.138c0.542-0.184,1.155-0.393,1.812-0.428l0.131-0.003   c0.731,0,1.386,0.323,1.963,0.609c0.275,0.136,0.554,0.271,0.787,0.344c0.522-0.612,1.12-1.225,1.942-1.263   c0.47-0.021,0.935-0.08,1.394-0.137c0.253-0.031,0.511-0.063,0.771-0.089c0.633-1.36,1.191-2.523,2.291-2.559   c0.002,0,0.004,0,0.005,0c0.858,0,1.542,0.349,2.145,0.656c0.379,0.193,0.809,0.412,1.053,0.412c1.1,0,1.816,1.023,2.449,1.927   c0.137,0.195,0.325,0.462,0.496,0.675c0.347-0.244,0.725-0.437,1.139-0.525c0.625-0.611,1.272-1.239,2.118-1.239l0.189,0.011   c0.638,0.076,1.156,0.34,1.604,0.634c0.392-0.031,0.788-0.075,1.202-0.127c0.496-0.063,0.99-0.125,1.486-0.156   c0.178-0.013,0.648-0.461,0.9-0.702c0.563-0.538,1.202-1.146,2.056-1.22l0.13-0.005c1.031,0,1.758,0.957,2.526,1.97   c0.259,0.341,0.674,0.889,0.909,1.079c0.245-0.083,0.617-0.371,0.951-0.629c0.517-0.399,1.101-0.851,1.81-0.964   c-0.215-0.63-0.186-1.469-0.155-2.338c0.018-0.491,0.045-1.275-0.026-1.618c-0.19-0.052-0.536-0.069-0.781-0.081   c-0.687-0.032-1.542-0.073-2.202-0.655c-0.464-0.409-0.795-0.885-1.114-1.345c-0.251-0.361-0.488-0.702-0.761-0.962   c-0.359-0.344-0.699-0.716-1.037-1.088c-0.323-0.355-0.646-0.711-0.992-1.037c-0.133-0.092-0.696-0.114-1.032-0.127   c-0.74-0.029-1.58-0.061-2.201-0.582c-0.725-0.609-0.753-1.679-0.779-2.713c-0.008-0.288-0.019-0.715-0.059-0.999   c-0.304,0.102-0.755,0.324-1.054,0.472c-0.964,0.477-1.917,0.886-2.669,0.605c-0.541-0.202-0.974-0.553-1.354-0.862   c-0.263-0.212-0.532-0.431-0.748-0.518c-0.112,0.165-0.258,0.45-0.362,0.654c-0.38,0.744-0.81,1.586-1.679,1.877   c-0.138,0.046-0.281,0.07-0.427,0.07c-1.041,0-1.642-1.07-2.337-2.31c-0.289-0.515-0.685-1.219-0.926-1.425   c-0.565-0.484-0.704-1.181-0.826-1.796c-0.058-0.292-0.117-0.589-0.214-0.809c-0.362,0.06-0.933,0.243-1.407,0.396   c-1.54,0.493-2.922,0.79-3.606,0.078c-0.282-0.296-0.522-0.598-0.762-0.901c-0.295-0.375-0.574-0.729-0.94-1.047   c-0.537-0.467-0.755-1.126-0.93-1.657c-0.105-0.321-0.237-0.721-0.374-0.809c-0.259-0.167-0.604-0.219-1.043-0.284   c-0.43-0.064-0.917-0.137-1.424-0.345c-0.893-0.366-1.138-1.497-1.423-2.807c-0.077-0.358-0.19-0.879-0.306-1.244   c-0.201,0.178-0.435,0.415-0.601,0.583c-0.709,0.717-1.441,1.459-2.346,1.472c-0.155,0.002-0.553,0.476-0.744,0.704   c-0.424,0.506-0.905,1.079-1.635,1.241c-0.894,0.199-1.809-0.385-2.631-0.954c-0.246-0.171-0.637-0.441-0.852-0.535   c-0.237,0.12-0.488,0.238-0.743,0.357c-0.643,0.3-1.306,0.61-1.735,0.978c-0.172,0.147-0.325,0.606-0.461,1.012   c-0.204,0.612-0.436,1.305-0.952,1.828c-0.595,0.604-1.456,0.677-2.216,0.742c-0.334,0.028-0.955,0.081-1.084,0.203   c-0.188,0.18-0.348,0.503-0.516,0.845c-0.255,0.517-0.569,1.155-1.159,1.641c-0.081,0.217-0.119,0.813-0.142,1.177   c-0.07,1.098-0.149,2.343-1.099,2.892c-0.628,0.364-1.364,0.411-2.076,0.457c-0.479,0.031-0.975,0.063-1.291,0.196   c-0.201,0.085-0.42,0.128-0.651,0.128c-0.663,0-1.309-0.358-1.934-0.705c-0.29-0.162-0.7-0.389-0.962-0.472   c-0.137,0.308-0.298,0.891-0.402,1.269c-0.366,1.322-0.744,2.689-1.888,2.926l-0.302,0.031c-0.968,0-1.766-0.893-2.61-1.837   c-0.264-0.295-0.638-0.714-0.873-0.911c-1.096,0.382-2.082,0.899-2.376,1.058c-1.181,0.64-2.15,1.304-2.469,1.69   c-0.191,0.232-0.039,1.299,0.026,1.755c0.063,0.436,0.121,0.848,0.107,1.207c-0.034,0.948,0.062,1.763,0.271,2.325   c0.113,0.021,0.324,0.042,0.716,0.042l0.856-0.008c0.771,0,1.637,0.052,2.137,0.677C170.757,75.976,170.871,76.229,170.94,76.485z"/><path d="M223.241,109.695l-0.102,0.002c-0.561,0-1.088-0.115-1.599-0.226c-0.353-0.077-0.684-0.137-0.998-0.164   c-0.001,0.086-0.005,0.165-0.005,0.254c0,1.292-0.003,3.62-0.008,6.629c0.027-0.003,0.052-0.012,0.079-0.013l0.104-0.003   c0.62,0,1.163,0.353,1.737,0.726c0.466,0.302,0.994,0.645,1.518,0.762c0.102,0.023,0.214,0.029,0.331,0.027   c0.065-2.908,0.181-5.006,0.368-5.858c0.067-0.307,0.111-0.613,0.136-0.918c-0.231-0.174-0.454-0.36-0.661-0.546   C223.873,110.125,223.423,109.722,223.241,109.695z"/><path d="M210.724,116.622c0,1.472-0.005,5.698-0.013,11.157c0.703,0.16,1.376,0.657,1.956,1.11c0.18,0.141,0.404,0.309,0.598,0.438   c0.001-5.793,0.081-10.155,0.298-11.147C214.352,114.59,210.724,110.904,210.724,116.622z"/><path d="M97.952,173.383c2.597,0,2.597-0.206,5.194-0.206c2.596,0,2.596-0.003,5.192-0.003c2.596,0,2.596-2.346,5.192-2.346   c2.596,0,2.596,3.863,5.192,3.863c2.595,0,2.595-3.646,5.19-3.646c1.217,0,1.862,1.443,2.473,2.973c0,0.118,0,0.191,0,0.191h0.077   c0.663,1.673,1.312,3.384,2.638,3.384c2.595,0,2.595-1.669,5.19-1.669c1.381,0,2.027-0.763,2.721-1.476   c0,0.172-0.001,0.277-0.001,0.277h2.466c0,0-0.014-0.549-0.037-1.489c0.013,0,0.024-0.002,0.037-0.002   c2.595,0,2.595,0.717,5.191,0.717c2.596,0,2.596,1.542,5.191,1.542c2.595,0,2.595-3.472,5.191-3.472   c0.787,0,1.334,0.51,1.789,1.216c0.546,0.847,0.96,1.974,1.486,2.864c0.479,0.81,1.053,1.422,1.914,1.422   c0.766,0,1.303-0.594,1.75-1.422c1.069-1.978,1.611-5.324,3.441-5.324c1.524,0,2.154,1.434,2.939,2.619   c0.552,0.833,1.179,1.544,2.25,1.544c2.595,0,2.595-0.911,5.189-0.911c2.594,0,2.594,0.364,5.188,0.364   c2.595,0,2.595,1.946,5.19,1.946c2.212,0,2.542-3.711,4.199-4.806c-0.004,1.964-0.006,3.194-0.006,3.194h2.169   c0,0-0.035-1.346-0.083-3.46c1.569,0.133,1.932,0.533,4.098,0.533c2.594,0,2.594-0.746,5.188-0.746   c2.593,0,2.593,6.018,5.186,6.018c2.594,0,2.594-5.098,5.189-5.098c2.594,0,2.594,3.218,5.187,3.218   c2.593,0,2.593-4.635,5.185-4.635c2.593,0,2.593,4.761,5.186,4.761c2.595,0,2.595,1.842,5.19,1.842c2.593,0,2.593-0.04,5.186-0.04   c2.592,0,2.592-6.44,5.184-6.44c2.592,0,2.592,4.804,5.184,4.804c2.593,0,2.593-0.292,5.187-0.292c2.594,0,2.594-3.556,5.188-3.556   c2.592,0,2.592,0.901,5.184,0.901c2.591,0,3.573,3.65,5.237,1.663c1.535-1.832-0.803-2.318-1.472-4.612   c-0.669-2.294,1.115-2.815,0.446-5.109c-0.669-2.293-1.343-2.36-3.287-3.747c-2.072-1.478-2.302-0.795-4.847-0.795   c-1.631,0-2.218-0.246-3.099-0.423c-0.053-3.683-0.054-7.134,0.111-7.775c0.376-1.466-1.352-2.972-1.352-0.637   c0,1.007-0.007,4.552-0.015,8.256c-0.221-0.012-0.461-0.021-0.735-0.021c-2.543,0-2.543,4.635-5.087,4.635   c-1.493,0-2.11-0.071-2.879-0.13c-0.142-6.039-0.295-14.995,0.008-16.178c0.462-1.804-1.664-3.657-1.664-0.784   c0,1.871-0.02,10.851-0.033,16.888c-0.16-0.002-0.328-0.003-0.513-0.003c-2.543,0-2.543-0.378-5.085-0.378   c-2.542,0-2.542-6.794-5.084-6.794c-0.74,0-1.262,0.197-1.696,0.474c-0.112-5.86-0.18-12.205-0.033-15.146   c-0.001,0-0.004-0.002-0.005-0.003c-0.167,0.027-0.544,0.287-0.876,0.517c-0.357,0.247-0.751,0.505-1.194,0.674   c-0.007,3.998-0.02,10.176-0.032,15.545c-0.343,0.144-0.744,0.236-1.247,0.236c-2.448,0-2.545-0.555-4.818-0.596   c-0.101-4.271-0.213-9.424-0.306-14.735c-0.166-0.007-0.333-0.002-0.496-0.023c-0.33-0.018-0.775,0.115-1.166,0.231   c-0.511,0.152-1.039,0.31-1.581,0.31c-0.261,0-0.507-0.038-0.731-0.112c-0.113-0.037-0.214-0.095-0.32-0.145   c-1.567,1.078-3.845,2.408-6.721,3.475c-0.02-1.466-0.039-2.946-0.056-4.424c1.096-0.582,2.235-1.243,3.409-1.999   c-0.216-0.446-0.273-0.914-0.313-1.279c-0.018-0.166-0.036-0.294-0.057-0.406c-0.904,0.684-1.924,1.378-3.057,2.041   c-0.009-0.798-0.016-1.592-0.024-2.38c-0.359-0.037-0.697-0.113-0.97-0.288c-0.585-0.377-1.125-0.814-1.648-1.242   c-0.003,1.742-0.005,3.515-0.008,5.291c-2.231,1.026-4.8,1.875-7.703,2.346c-0.128-9.875-0.262-21.605-0.345-32.86   c-0.172,0.06-0.349,0.109-0.541,0.12l-0.122,0.003c-0.737,0-1.381-0.359-1.952-0.683c-0.371,0.34-0.8,0.584-1.21,0.791   c-0.017,14.906-0.036,30.272-0.05,41.247c-0.586,0.179-1.174,0.378-1.818,0.565c0.706-0.239-3.258,0.427-4.041,1.141   c-0.218-0.298-0.465-0.659-0.717-1.037c-0.029-4.606,0.009-8.398,0.196-9.248c0.543-2.469-1.952-5.004-1.952-1.072   c0,1.125-0.005,4.133-0.011,7.848c-2.598-2.52-5.522-2.986-8.72-2.662c-0.135-9.746-0.165-19.377,0.206-21.063   c0.789-3.591-2.839-7.278-2.839-1.559c0,2.722-0.018,13.005-0.036,23.033c-0.282,0.055-0.567,0.114-0.853,0.175   c-0.128,0.027,0.261,1.013,0.849,1.996c-0.003,1.752-0.007,3.478-0.01,5.137c-0.091-0.007-0.18-0.017-0.278-0.017   c-2.54,0-2.54,4.929-5.081,4.929c-2.54,0-2.54-3.781-5.081-3.781c-0.519,0-0.928,0.1-1.279,0.255   c-0.075,0.033-0.15,0.066-0.22,0.104c0.074-0.047,0.145-0.098,0.217-0.147c2.341-1.613,3.783-4.536,0.676-6.471   c-0.237-0.148-0.632-0.256-1.109-0.342c-0.366-0.066-0.781-0.118-1.218-0.164c-0.064-0.916-0.127-1.845-0.19-2.783   c0.147-0.052,0.271-0.101,0.349-0.146c0.296-0.169,0.574-0.373,0.839-0.595c2.258-1.894,3.244-5.512,0.742-7.644   c-0.35-0.299-0.763-0.527-1.191-0.722c-0.329-0.15-0.667-0.281-0.997-0.399c-0.109-0.034-0.22-0.056-0.329-0.087   c-0.018-0.333-0.036-0.664-0.054-0.994c0.445-0.219,0.87-0.459,1.277-0.704c0.251-0.151,0.503-0.302,0.729-0.452   c1.504-0.997,0.562-2.432-0.878-3.072c-0.424-0.188-0.888-0.304-1.349-0.322c-0.172-3.952-0.269-7.539-0.244-10.328   c-0.231,0.053-0.464,0.103-0.709,0.133c-0.706,0.086-1.43-0.174-2.031-0.403c-0.378-0.144-0.77-0.292-1.034-0.292   c-0.087,0.009-0.177,0.034-0.27,0.069c-0.105,3.764-0.266,8.116-0.454,12.631c-0.476,0.203-0.939,0.426-1.357,0.682   c-1.085,0.664-1.862,1.557-1.724,2.961c0.037,0.382,0.171,0.726,0.361,1.04c0.266,0.439,0.655,0.81,1.092,1.126   c0.023,0.017,0.045,0.034,0.069,0.05c0.409,0.287,0.849,0.526,1.274,0.716c-0.065,1.448-0.132,2.891-0.199,4.315   c-0.44,0.16-0.882,0.33-1.305,0.522c-1.805,0.821-3.223,2.037-2.242,4.482c0.367,0.916,1.107,1.63,1.953,2.19   c0.39,0.258,0.8,0.483,1.212,0.677c-0.061,1.224-0.121,2.407-0.179,3.54c-0.124-0.016-0.251-0.029-0.389-0.029   c-0.315,0-0.591,0.044-0.837,0.121c-1.741,0.544-2.017,2.736-4.242,2.736c-1.664,0-2.241-1.465-3.153-2.478   c-0.049-4.506-0.039-8.559,0.135-9.351c0.424-1.931-1.526-3.912-1.526-0.839c0,1.184-0.006,5.028-0.014,9.306   c-0.163-0.035-0.334-0.059-0.523-0.059c-2.539,0-2.539,5.229-5.079,5.229c-2.127,0-2.477-2.407-4.026-3.19   c-0.068-4.452-0.111-9-0.086-12.428c0.007-0.947,0.019-1.803,0.038-2.553c0.462-0.405,0.984-0.797,1.649-0.872   c0.647-0.076,1.281,0.01,1.867,0.092c0.419,0.059,0.795,0.116,1.142,0.09c0.292-0.021,0.706-0.264,1.106-0.499   c0.583-0.343,1.187-0.697,1.892-0.697c0.845,0.038,1.496,0.431,2.07,0.778c0.361,0.218,0.812,0.49,1.05,0.49   c0.592-0.077,1.146-0.059,1.716-0.039c0.629,0.023,1.22,0.021,1.548-0.074c0.253-0.074,0.59-0.805,0.791-1.241   c0.088-0.19,0.174-0.377,0.265-0.555l-0.753-0.341l0.509-0.24c-0.278-0.294-0.529-0.598-0.748-0.862l-0.411-0.487   c-0.534-0.622-1.199-1.396-1.566-2.314c-0.337-0.843,0.101-1.669,0.486-2.397c0.144-0.271,0.383-0.724,0.388-0.885   c-0.033-0.112-0.383-0.437-0.614-0.652c-0.487-0.452-1.038-0.963-1.175-1.717c-0.061-0.333-0.318-0.708-0.567-1.071   c-0.302-0.44-0.614-0.895-0.714-1.441c-0.033-0.18-0.05-0.38-0.063-0.589c-0.047-0.681-0.09-0.773-0.426-0.895l-0.481-0.18   c-0.663-0.251-1.414-0.536-2.189-0.682c-0.363-0.07-0.77-0.002-1.182,0.048c-0.54,0.065-1.127,0.133-1.714,0.063   c-0.638-0.074-1.201-0.375-1.699-0.641c-0.403-0.216-0.785-0.421-1.083-0.442c-0.406-0.035-0.839,0.033-1.313,0.1   c-0.442,0.062-0.899,0.126-1.375,0.126l-0.217-0.005c-0.202,0-0.628,0.274-0.939,0.474c-0.556,0.358-1.187,0.764-1.928,0.764   c-0.674-0.013-1.258-0.156-1.772-0.282c-0.414-0.102-0.806-0.197-1.119-0.197c-0.893,0-1.634-0.416-2.229-0.751   c-0.223-0.125-0.56-0.313-0.68-0.33c-0.247,0.008-0.312,0.01-0.479,0.908c-0.069,0.373-0.142,0.758-0.315,1.115   c-0.305,0.626-0.899,0.996-1.476,1.353c-0.445,0.276-0.95,0.59-1.071,0.912c-0.346,0.918-0.726,1.762-1.867,2.781   c-0.827,0.737-1.754,1.161-2.881,1.638c-0.968,0.41-1.437,1.346-1.768,2.208c-0.249,0.651-0.053,1.601,0.5,2.419   c0.098,0.146,0.536,0.277,0.914,0.378c-0.001,0.568-0.002,1.269-0.004,2.068c-0.01,5.394-0.033,15.011-0.033,15.011h1.502   c0,0-0.27-8.942-0.254-14.136c0.003-1.04,0.018-1.925,0.049-2.562c0.31,0.124,0.61,0.282,0.868,0.506   c0.948,0.822,1.086,1.694,1.177,2.271c0.075,0.478,0.096,0.606,0.434,0.819c0.655,0.42,1.619,0.673,2.551,0.896   c0.23,0.055,0.468,0.118,0.711,0.183c0.679,0.18,1.38,0.366,2.051,0.404l0.145,0.008c0.873,0.05,1.82,0.106,2.745,0.068   c0.28-0.012,0.661-0.2,1.064-0.399c0.516-0.255,1.102-0.545,1.768-0.607c0.748-0.074,1.464,0.28,2.069,0.588   c0.014,0.007,0.03,0.015,0.045,0.023c-0.001,0.68-0.002,1.41-0.003,2.181c-0.006,3.557-0.014,7.963-0.022,12.237   c-1.545,0.576-1.897,2.335-4.023,2.335c-2.539,0-2.539-3.923-5.079-3.923c-0.051,0-0.096,0.014-0.145,0.018   c-0.011-3.14,0.026-5.629,0.159-6.231c0.424-1.931-1.526-3.912-1.526-0.839c0,1.045-0.005,4.165-0.012,7.826   c-1.178,1.363-1.659,4.049-3.553,4.049c-2.539,0-2.539-5.437-5.078-5.437c-2.541,0-2.541,0.855-5.081,0.855   c-2.539,0-2.539,1.094-5.077,1.094c-2.538,0-2.538-1.959-5.076-1.959c-2.538,0-2.538,5.341-5.076,5.341   c-1.49,0-2.107,0.344-2.875,0.628v9.339C95.613,172.45,96.173,173.383,97.952,173.383z M204.149,158.884   c-0.374,0-0.689,0.058-0.969,0.148c-0.009-0.593-0.018-1.211-0.027-1.846c0.124-0.02,0.248-0.044,0.372-0.06   c0.324-0.041,0.078-0.833-0.397-1.704c-0.02-1.44-0.042-2.965-0.064-4.566c1.879-0.099,4.488-0.407,7.613-1.215   c-0.004,2.665-0.008,5.231-0.012,7.586c-0.384-0.107-0.839-0.178-1.439-0.178C206.688,157.048,206.688,158.884,204.149,158.884z    M220.473,145.885c-0.013,6.343-0.026,12.238-0.035,16.496c-0.3,0.193-0.639,0.317-1.05,0.317c-2.539,0-2.539-4.396-5.079-4.396   c-0.27,0-0.506-0.017-0.725-0.042c-0.05-2.868-0.102-6.09-0.15-9.43C215.612,148.117,217.978,147.158,220.473,145.885z    M210.686,144.178c-0.002,1.337-0.004,2.669-0.006,3.984c-2.275,0.607-4.833,1.002-7.639,1.008   c-0.011-0.804-0.022-1.626-0.033-2.461C204.733,146.361,207.425,145.64,210.686,144.178z M193.004,157.193   c1.815,1.773,3.747,1.672,5.755,1.164c-0.001,1.054-0.003,2.041-0.004,2.961c-2.229-0.06-2.34-0.75-4.771-0.75   c-0.762,0-1.293-0.306-1.735-0.731c-0.017-1.224-0.032-2.445-0.044-3.638C192.448,156.557,192.704,156.9,193.004,157.193z    M181.77,153.536c2.479-0.537,6.199-1.326,8.412,0.158c0.084,0.057,0.158,0.125,0.237,0.189c-0.002,1.241-0.005,2.531-0.007,3.834   c-0.397-0.317-0.874-0.528-1.51-0.528c-2.54,0-2.54,2.008-5.081,2.008c-0.896,0-1.474-0.299-1.961-0.684   C181.829,156.919,181.798,155.244,181.77,153.536z M166.889,158.434c-0.247,0.158-0.467,0.341-0.678,0.532   c-0.004-0.056-0.009-0.113-0.013-0.169C166.433,158.688,166.664,158.569,166.889,158.434z"/><path d="M229.395,107.755c0.426,0,0.865-0.094,1.33-0.193c0.47-0.101,0.956-0.205,1.464-0.216c0.606-0.013,1.187-0.096,1.747-0.176   c0.358-0.051,0.706-0.1,1.047-0.132c0.15-0.014,0.54-0.524,0.707-0.742c0.411-0.538,0.877-1.146,1.619-1.311   c1.013-0.222,2.039,0.643,2.971,1.489c0.221,0.201,0.521,0.473,0.745,0.645c0.185-0.28,0.339-0.758,0.46-1.134   c0.148-0.461,0.289-0.897,0.522-1.264c0.151-0.237,0.337-0.48,0.53-0.73c0.386-0.501,0.786-1.02,0.799-1.464   c0.019-0.607,0.325-1.185,0.649-1.796c0.193-0.365,0.504-0.952,0.523-1.241c-0.17-0.146-0.604-0.373-0.877-0.515   c-0.817-0.427-1.744-0.911-2.034-1.803c-0.065-0.062-0.515-0.289-0.783-0.424c-0.733-0.371-1.564-0.792-1.882-1.646   c-0.376-1.013,0.447-2.055,1.319-3.158c0.233-0.294,0.554-0.699,0.734-0.982c-0.242-0.145-0.624-0.295-0.883-0.397   c-0.596-0.235-1.211-0.478-1.623-0.941c-0.303-0.342-0.561-0.71-0.811-1.067c-0.313-0.448-0.609-0.871-0.905-1.105   c-0.282-0.223-0.559-0.453-0.832-0.68c-0.472-0.392-0.918-0.762-1.349-1.063c-0.005-0.002-0.104-0.051-0.464-0.051   c-0.171,0-0.347,0.01-0.521,0.019c-0.207,0.01-0.411,0.021-0.606,0.021c-0.496,0-1.214-0.06-1.727-0.575   c-0.845-0.849-0.269-1.995,0.152-2.831c0.093-0.185,0.223-0.444,0.313-0.662c-0.298-0.012-0.765,0.01-1.197,0.034   c-0.394,0.021-0.795,0.042-1.168,0.042c-0.614,0-1.072-0.058-1.442-0.183c-0.498-0.168-0.91-0.483-1.309-0.788   c-0.408-0.312-0.795-0.607-1.193-0.686c-0.183,0.1-0.543,0.452-0.765,0.669c-0.658,0.644-1.403,1.373-2.375,1.373   c-1.039-0.035-1.673-0.941-2.286-1.816c-0.247-0.354-0.654-0.934-0.872-1.075c-0.71-0.022-1.341-0.344-1.9-0.629   c-0.35-0.178-0.709-0.361-0.989-0.42c-0.221,0.294-0.552,1.004-0.76,1.453c-0.631,1.358-1.228,2.64-2.367,2.694   c-0.535,0.025-1.076-0.002-1.62-0.033c-0.493-0.027-0.989-0.057-1.492-0.03l-0.129,0.003c-0.727,0-1.379-0.322-1.954-0.606   c-0.399-0.198-0.813-0.402-1.076-0.402c-0.404,0.021-0.839,0.168-1.299,0.325c-0.546,0.185-1.163,0.395-1.822,0.427   c-0.001,0-0.002,0-0.003,0c-1.145,0-1.825-1.09-2.546-2.245c-0.228-0.366-0.583-0.935-0.822-1.2   c-0.159,0.177-0.481,0.595-0.688,0.863c-0.63,0.817-1.28,1.662-2.268,1.676c-0.227,0.003-0.634,0.425-0.93,0.733   c-0.462,0.479-0.986,1.023-1.713,1.121c-1.032,0.133-1.978-0.606-2.765-1.259c-0.198-0.164-0.476-0.394-0.655-0.51   c-0.628,0.28-1.836,0.852-2.307,1.413c-0.113,0.135-0.18,0.61-0.228,0.957c-0.092,0.656-0.206,1.472-0.719,2.129   c-0.55,0.704-1.441,0.754-2.157,0.794c-0.44,0.025-0.939,0.053-1.148,0.219c-0.149,0.119-0.297,0.349-0.467,0.615   c-0.187,0.292-0.409,0.621-0.703,0.932c-0.193,0.559-0.559,1.158-0.96,1.805c-0.096,0.155-0.212,0.345-0.328,0.539   c-0.088,0.312-0.191,0.619-0.324,0.901c0.248,0.057,0.584,0.11,0.824,0.147c0.802,0.125,1.706,0.266,2.299,0.839   c0.036,0.007,0.104,0.016,0.22,0.016c0.268,0,0.569-0.04,0.872-0.078c0.374-0.046,0.761-0.094,1.138-0.094   c0.653,0,1.153,0.154,1.527,0.471c0.635,0.536,0.814,1.338,0.974,2.045c0.068,0.303,0.195,0.867,0.318,0.963   c0.528,0.364,0.91,0.861,1.247,1.3c0.298,0.388,0.579,0.754,0.875,0.918c0.079,0.044,0.628,0.047,1.115-0.017   c0.72-0.096,1.521-0.137,2.102,0.108c0.969,0.409,1.222,1.652,1.489,2.969c0.086,0.42,0.219,1.074,0.348,1.402   c0.296-0.068,0.74-0.293,1.079-0.464c0.72-0.362,1.492-0.733,2.22-0.652c1.188,0.135,2.309,0.263,2.92,1.575   c0.307,0.657,0.878,1.881,0.246,3.479c-0.015,0.117,0.086,0.609,0.152,0.935c0.075,0.366,0.154,0.768,0.187,1.173   c0.244-0.119,0.499-0.213,0.786-0.23c0.294-0.018,0.682-0.221,1.092-0.437c0.548-0.289,1.169-0.616,1.886-0.659   c0.001,0,0.002,0,0.004,0c1.138,0,1.819,1.072,2.541,2.207c0.25,0.393,0.65,1.022,0.887,1.249c0.313-0.045,0.683-0.173,1.071-0.307   c0.524-0.181,1.118-0.386,1.755-0.423c0.134-0.058,0.534-0.529,0.773-0.811c0.572-0.674,1.222-1.439,2.147-1.487   c0.481-0.025,0.956-0.088,1.428-0.149c0.524-0.068,1.067-0.138,1.615-0.162l0.181-0.004c0.594,0,1.163,0.124,1.665,0.233   c0.426,0.092,0.827,0.18,1.173,0.18l0.11-0.001c0.907,0,1.608,0.627,2.227,1.181c0.247,0.221,0.659,0.59,0.825,0.629   c0.147-0.017,0.626-0.434,0.883-0.659c0.587-0.512,1.252-1.093,2.099-1.093l0.112,0.994l0.001,0V107.755z"/><polygon points="145.239,122.199 145.235,122.199 145.239,123.196 145.239,123.196  "/><path d="M160.286,120.398c0.715-0.083,1.433,0.178,2.033,0.407c0.376,0.143,0.764,0.29,1.023,0.29   c0.485-0.053,0.924-0.182,1.389-0.317c0.518-0.151,1.053-0.308,1.63-0.375c0.521-0.062,1.029-0.066,1.506-0.066h0.319   c0.367,0,0.754-0.003,1.117-0.038c0.187-0.146,0.519-0.677,0.722-1.002c0.549-0.879,1.115-1.788,2.094-1.881   c0.605-0.056,1.213-0.004,1.814,0.055c0.43,0.042,0.858,0.087,1.263,0.06c0.651-0.044,1.285,0.051,1.877,0.144   c0.409,0.064,0.795,0.124,1.138,0.124l0.119-0.001c0.866,0,1.572,0.511,2.14,0.922c0.25,0.181,0.668,0.483,0.822,0.49   c0.113-0.047,0.525-0.462,0.771-0.709c0.552-0.557,1.179-1.188,1.987-1.285c0.223-0.026,0.537-0.285,0.842-0.534   c0.428-0.352,0.913-0.75,1.563-0.924c0.117-0.031,0.24-0.047,0.364-0.047c0.875,0,1.673,0.777,2.596,1.677   c0.341,0.332,0.879,0.856,1.185,1.056c0.3-0.174,0.638-0.464,0.966-0.747c0.399-0.343,0.812-0.698,1.268-0.953   c0.113-0.189,0.221-0.766,0.287-1.118c0.171-0.913,0.348-1.857,1.082-2.35c0.467-0.313,0.876-0.686,1.309-1.082   c0.266-0.242,0.53-0.483,0.807-0.711c0.45-0.371,0.949-0.618,1.39-0.836c0.409-0.203,0.796-0.394,1.024-0.629   c0.612-0.628,1.573-0.731,2.421-0.823c0.303-0.032,0.79-0.084,0.994-0.16c0.058-0.249-0.081-0.93-0.158-1.308   c-0.152-0.747-0.296-1.453-0.052-2.07c0.292-0.738,0.092-1.274-0.199-1.898c-0.106-0.229-0.139-0.297-1.333-0.433   c-0.201,0-0.737,0.271-1.093,0.451c-0.857,0.433-1.825,0.863-2.675,0.624c-1.075-0.303-1.337-1.588-1.613-2.949   c-0.098-0.482-0.256-1.259-0.407-1.551c-0.188-0.031-0.608,0.011-0.961,0.058c-0.813,0.107-1.72,0.131-2.345-0.215   c-0.662-0.365-1.104-0.941-1.495-1.451c-0.271-0.353-0.526-0.686-0.795-0.87c-0.764-0.526-0.97-1.438-1.135-2.172   c-0.064-0.289-0.184-0.817-0.302-0.945c0.001,0.007-0.079-0.009-0.248-0.01c-0.277,0-0.585,0.041-0.892,0.079   c-0.369,0.045-0.751,0.093-1.118,0.093c-0.263,0-1.062,0-1.612-0.58c-0.149-0.133-0.816-0.237-1.214-0.299   c-0.888-0.138-1.893-0.295-2.438-1.048c-0.72-0.998,0.054-2.246,0.873-3.568c0.253-0.409,0.657-1.061,0.773-1.389   c-0.146-0.166-0.416-0.338-0.679-0.505c-0.602-0.384-1.351-0.862-1.523-1.804c-0.177-0.959-0.621-2.149-1.218-2.643   c-0.428-0.355-1.538-1.23-2.619-1.701c-0.198,0.011-0.609,0.159-0.973,0.289c-0.754,0.271-1.693,0.557-2.457,0.339   c-0.902-0.257-1.343-1.24-1.769-2.19c-0.151-0.339-0.387-0.864-0.57-1.122c-0.252,0.18-0.636,0.562-0.886,0.81   c-0.757,0.75-1.539,1.524-2.467,1.524l-0.237-0.017c-0.706-0.105-1.296-0.494-1.817-0.837c-0.389-0.256-0.79-0.521-1.092-0.554   c-0.099,0.052-0.561,0.503-0.836,0.772c-0.682,0.665-1.387,1.354-2.299,1.354l-0.138-0.006c-1.035-0.083-1.636-1.117-2.218-2.116   c-0.212-0.365-0.558-0.959-0.759-1.139c-0.729-0.078-1.351-0.475-1.902-0.828c-0.293-0.187-0.616-0.394-0.859-0.479   c-0.256,0.31-0.65,1.074-0.898,1.557c-0.726,1.407-1.353,2.623-2.462,2.623c-0.601-0.011-1.14-0.079-1.661-0.145   c-0.499-0.063-0.971-0.123-1.42-0.124c-0.829-0.002-1.519-0.417-2.127-0.784c-0.334-0.201-0.749-0.452-0.948-0.452   c-0.438,0.006-0.9,0.158-1.39,0.319c-0.532,0.176-1.082,0.357-1.675,0.374c-0.001,0-0.001,0-0.002,0   c-1.16,0-2.121-1.103-3.05-2.168c-0.212-0.243-0.489-0.562-0.72-0.797c-0.093,0.408-0.177,1.09-0.228,1.509   c-0.102,0.833-0.19,1.556-0.493,2.071c0.021,0.162,0.169,0.509,0.27,0.746c0.281,0.664,0.632,1.489,0.394,2.352   c-0.26,0.939-1.277,1.338-2.261,1.725c-0.425,0.167-1.136,0.446-1.278,0.63c-0.179,0.638-0.528,1.208-0.866,1.758   c-0.186,0.303-0.38,0.616-0.554,0.97c-0.094,0.189-0.104,0.573-0.115,0.944c-0.021,0.727-0.049,1.632-0.662,2.386   c-0.594,0.731-1.556,0.768-2.329,0.798c-0.41,0.016-0.971,0.037-1.147,0.18c-0.188,0.152-0.356,0.427-0.55,0.745   c-0.319,0.522-0.712,1.167-1.439,1.613c-0.11,0.214-0.225,0.825-0.295,1.199c-0.213,1.133-0.454,2.418-1.5,2.861   c-0.754,0.32-1.374,0.271-1.903,0.252c-0.115-0.004-0.229-0.008-0.338-0.008c-0.278,0-0.367,0.032-0.396,0.051   c-0.395,0.264-0.889,0.387-1.554,0.387c-0.37,0-0.773-0.04-1.166-0.081c-0.095-0.01-0.189-0.02-0.282-0.029   c0.19,0.202,0.399,0.41,0.56,0.57c0.861,0.856,1.605,1.595,1.535,2.476c-0.074,0.923-0.991,1.525-2.054,2.222   c-0.351,0.23-0.896,0.587-1.154,0.828c0.287,0.659,0.792,1.551,1.345,2.369c0.167,0.248,0.339,0.522,0.517,0.806   c0.377,0.602,0.767,1.225,1.171,1.676c0.119,0.132,0.697,0.255,1.043,0.328c0.669,0.142,1.426,0.302,1.97,0.809   c0.36,0.337,0.68,0.696,0.988,1.042c0.322,0.361,0.627,0.705,0.936,0.971c0.35-0.017,0.915-0.22,1.374-0.384   c1.079-0.388,2.102-0.643,2.75-0.171c1.274,0.928,0.932,2.407,0.705,3.385c-0.061,0.26-0.155,0.667-0.156,0.879   c0.254-0.023,0.594-0.115,0.924-0.205c0.49-0.133,0.998-0.271,1.512-0.271c0.309,0,0.594,0.053,0.847,0.156   c0.849,0.346,1.629,0.57,2.612,0.821c0.893,0.228,1.744,0.396,2.761,0.548c0.524,0.078,1.06,0.09,1.627,0.102   c0.401,0.009,0.81,0.018,1.232,0.048c0.981,0.071,1.59,1.02,2.178,1.937c0.214,0.334,0.559,0.872,0.765,1.054   c0.239-0.051,0.613-0.27,0.922-0.449c0.581-0.339,1.24-0.724,2-0.745c0.164-0.017,0.595-0.381,0.852-0.599   c0.57-0.483,1.218-1.031,2.054-1.082c0.468-0.028,0.942-0.113,1.445-0.202c0.48-0.086,0.978-0.175,1.501-0.219l0.125-0.005   c0.976,0,1.662,0.878,2.389,1.809c0.257,0.329,0.671,0.857,0.901,1.03c0.22-0.064,0.56-0.285,0.889-0.499   C158.945,120.877,159.554,120.481,160.286,120.398z"/><path d="M247.966,139.927c0.254,0,0.662-0.252,1.022-0.474c0.526-0.325,1.123-0.693,1.83-0.727c0.001,0,0.002,0,0.004,0   c1.023,0,1.785,0.752,2.458,1.416c0.232,0.229,0.604,0.597,0.806,0.717c0.373-0.109,0.794-0.434,1.202-0.749   c0.419-0.322,0.852-0.656,1.337-0.843l0.292-0.112c0.871-0.333,1.858-0.712,2.237-1.104c0.555-0.574,0.903-1.817,0.678-2.417   c-0.107-0.286-0.475-0.598-0.831-0.899c-0.463-0.392-0.987-0.837-1.239-1.469c-0.348-0.874-0.034-1.808,0.218-2.558   c0.099-0.293,0.247-0.736,0.232-0.884c-0.065-0.135-0.735-0.41-1.096-0.557c-0.718-0.294-1.46-0.599-1.793-1.297   c-0.343-0.719-0.457-1.423-0.548-1.988c-0.06-0.365-0.115-0.71-0.209-0.883c-0.164-0.302-0.658-0.533-1.136-0.757   c-0.636-0.297-1.355-0.633-1.662-1.356c-0.337-0.795,0.063-1.563,0.45-2.306c0.247-0.473,0.555-1.062,0.498-1.405   c-0.212-1.275-0.63-2.283-1.133-2.746c-0.246,0.044-0.702,0.23-1.046,0.371c-1.01,0.412-2.146,0.797-2.997,0.449   c-0.241-0.098-0.475-0.199-0.707-0.3c-0.652-0.282-1.268-0.548-2.03-0.744c-0.604-0.155-1.124-0.479-1.581-0.767   c-0.441-0.276-0.857-0.537-1.261-0.597c-0.502-0.076-1.005-0.024-1.52,0.019c-0.526,0.043-1.066,0.084-1.607,0.052   c-0.703-0.042-1.398-0.423-2.071-0.793c-0.236-0.13-0.588-0.323-0.839-0.427c-0.019,0.2-0.043,0.519-0.059,0.736   c-0.061,0.808-0.129,1.725-0.713,2.359c-0.127,0.138-0.284,0.549-0.41,0.879c-0.282,0.736-0.633,1.652-1.438,2.139   c-0.675,0.407-1.655,0.172-2.527-0.137c-0.408-0.144-0.87-0.308-1.158-0.308c-0.82,0.127-1.447,0.064-2.206-0.018   c-0.264-0.029-0.543-0.059-0.845-0.082c-0.285,0.002-0.556,0.062-0.858,0.131c-0.63,0.142-1.453,0.285-2.179,0.124   c-0.876-0.196-1.594-0.662-2.171-1.037c-0.245-0.159-0.581-0.377-0.705-0.408c0.009,0.009-0.221,0.024-0.487,0.333   c-0.412,0.477-0.616,1.287-0.575,1.795c0.045,0.07,0.399,0.424,0.634,0.658c0.642,0.641,1.439,1.438,1.406,2.47   c-0.038,1.21-0.988,2.557-1.875,3.723c-0.557,0.733-1.466,0.757-2.268,0.778c-0.459,0.012-0.932,0.024-1.26,0.157   c-0.108,0.161-0.269,0.586-0.378,0.875c-0.367,0.973-0.824,2.185-1.971,2.482c-0.124,0.033-0.255,0.049-0.388,0.049   c-0.745,0-1.383-0.497-2.059-1.024c-0.326-0.254-0.933-0.728-1.16-0.741c-1.367,0.202-2.549,0.885-2.747,1.131   c-0.215,0.356-0.025,1.974,0.633,2.724c0.156,0.178,0.677,0.38,1.095,0.542c0.564,0.218,1.203,0.466,1.741,0.876   c0.294,0.223,0.587,0.463,0.884,0.706c0.504,0.413,1.025,0.839,1.545,1.173c0,0,0.058,0.033,0.248,0.033   c0.274,0,0.636-0.068,0.985-0.133c0.413-0.078,0.84-0.157,1.251-0.157c0.423,0,0.774,0.084,1.076,0.257   c1.263,0.727,1.383,1.837,1.454,2.5c0.063,0.584,0.101,0.649,0.282,0.757c0.424,0.298,0.749,0.616,1.064,0.924   c0.438,0.43,0.893,0.874,1.296,1.007c0.007,0.002,0.037,0.011,0.102,0.011c0.25,0,0.637-0.115,1.01-0.226   c0.607-0.181,1.328-0.381,1.997-0.298c0.498,0.066,1.013,0.019,1.538-0.022c0.402-0.031,0.811-0.062,1.223-0.062l0.236,0.001   c0.554,0,1.119-0.048,1.718-0.099c0.348-0.029,0.698-0.059,1.054-0.08c0.219-0.013,0.596-0.273,0.928-0.502   c0.53-0.366,1.131-0.781,1.879-0.858l0.175-0.009c0.855,0,1.537,0.608,2.197,1.196c0.271,0.242,0.725,0.646,0.907,0.693   c0.223-0.04,0.599-0.257,0.996-0.487c0.516-0.298,1.1-0.635,1.78-0.725c0.621-0.081,1.247-0.016,1.821,0.048   c0.415,0.047,0.83,0.102,1.219,0.057c0.774-0.086,1.496,0.194,2.104,0.44c0.35,0.141,0.71,0.288,0.938,0.288   c0.252-0.015,0.656-0.332,0.981-0.586c0.551-0.432,1.176-0.922,1.964-0.922l0.114,0.995c0,0,0.001,0,0.001,0L247.966,139.927z"/><path d="M85.781,44.743c12.85,0.786,16.874,3.082,17.89,3.864c-0.399,1.252-2.466,5.685-12.819,13.744   c-2.023,1.575-4.049,3.041-5.933,4.347v2.744c0,5.232-3.676,9.614-8.579,10.721c2.792,1.998,4.622,5.259,4.622,8.945v76.166   c0,6.065-4.937,11.002-11.001,11.002h-6.708v69.211c0,6.83,5.537,12.363,12.363,12.363c6.828,0,12.365-5.533,12.365-12.363V83.868   c3.498-2.218,8.812-5.765,14.034-9.944c13.926-11.146,19.568-20.805,17.251-29.529c-3.448-12.984-21.597-15.5-38.206-15.867   c3,4.113,4.776,9.172,4.776,14.64C85.836,43.697,85.814,44.222,85.781,44.743z"/><path d="M33.889,245.487c0,6.83,5.537,12.363,12.363,12.363c6.828,0,12.365-5.533,12.365-12.363v-69.211H33.889V245.487z"/><path d="M81.597,52.08c1.181-2.734,1.838-5.746,1.838-8.913c0-12.426-10.072-22.5-22.5-22.5c-12.426,0-22.5,10.074-22.5,22.5   c0,1.997,0.263,3.932,0.752,5.775h34.731C76.904,48.942,79.612,50.142,81.597,52.08z"/><path d="M69.959,81.108h-6.885v25.871h-5.667V81.108H23.241v25.871h-5.667V81.108h-5.615c-4.418,0-8,3.581-8,8v76.166   c0,4.419,3.582,8,8,8h58c4.418,0,8-3.581,8-8V89.108C77.959,84.689,74.377,81.108,69.959,81.108z"/><path d="M8,77.44h65.917c4.418,0,8-3.581,8-8v-9.499c0-4.419-3.582-8-8-8H8c-4.418,0-8,3.581-8,8v9.499   C0,73.859,3.582,77.44,8,77.44z M73.063,55.608c3.177,0,5.751,4.104,5.751,9.166s-2.574,9.167-5.751,9.167   c-3.176,0-5.75-4.104-5.75-9.167S69.887,55.608,73.063,55.608z"/><path d="M166.601,40c11.045,0,20-8.953,20-20c0-11.045-8.955-20-20-20c-11.046,0-20,8.955-20,20   C146.601,31.047,155.555,40,166.601,40z M166.601,3.81c8.925,0,16.187,7.264,16.187,16.193c0,8.926-7.263,16.184-16.187,16.184   c-8.929,0-16.188-7.258-16.188-16.184C150.413,11.074,157.673,3.81,166.601,3.81z"/></g><text x="0" y="272.85" fill="#000000" font-size="5px" font-weight="bold" font-family="'Helvetica Neue', Helvetica, Arial-Unicode, Arial, Sans-serif">Created by Gan Khoon Lay</text><text x="0" y="277.85" fill="#000000" font-size="5px" font-weight="bold" font-family="'Helvetica Neue', Helvetica, Arial-Unicode, Arial, Sans-serif">from the Noun Project</text></svg>