<?xml version="1.0" encoding="utf-8"?><!DOCTYPE svg PUBLIC "-//W3C//DTD SVG 1.1//EN" "http://www.w3.org/Graphics/SVG/1.1/DTD/svg11.dtd"><svg version="1.1" xmlns="http://www.w3.org/2000/svg" xmlns:xlink="http://www.w3.org/1999/xlink" x="0px" y="0px" viewBox="9.724 0 80.551 125" enable-background="new 9.724 0 80.551 100" xml:space="preserve"><g><g><path d="M59.562,43.206L49.288,32.932h9.104l3.574,6.192v3.254c0,2.944,2.321,5.356,5.229,5.504v-0.244V34.33l-3.186-5.517
			l10.562,6.098c2.771,1.6,6.315,0.651,7.917-2.121l-14.768-8.526h11.969c3.201,0,5.796-2.595,5.796-5.794H67.299l5.172-2.986
			c2.332-1.346,3.234-4.229,2.171-6.638L58.021,18.44l-0.048,0.028H34.824L16.356,0L9.724,19.163l41.642,24.043l8.194,8.194
			C61.823,49.138,61.823,45.469,59.562,43.206z"/><path d="M86.85,61.635l1.492-5.571l-25.078-6.719L59.97,61.635h-3.924v28.484L73.16,100l17.115-9.881V61.635H86.85z M64.7,51.832
			l21.153,5.669l-1.107,4.134H62.074L64.7,51.832z"/></g></g><g display="none"><path display="inline" d="M74.824,27.615H45.587l-6.718,3.878v5.033l0.272,0.158h26.135C70.383,36.684,74.568,32.658,74.824,27.615
		z"/><polygon display="inline" points="-40.196,27.615 -3.405,27.615 -38.523,-19.006 -63.815,23.194 -40.687,36.547 -40.687,27.615 	
		"/><path display="inline" d="M10.59,66.152L23.154,82.83l0.782-0.59c4.858-3.658,5.833-10.59,2.173-15.447L15.49,52.696h-28.207
		L10.59,66.152z"/><path display="inline" d="M38.87,48.129l15.413,8.899c4.806,2.774,10.952,1.128,13.728-3.679L50.604,43.301l-11.461-6.617H38.87
		V48.129z"/><polygon display="inline" points="38.87,36.684 39.142,36.684 38.87,36.525 	"/><polygon display="inline" points="24.112,52.696 29.801,62.55 29.801,52.696 	"/><path display="inline" d="M35.85,73.026l-6.049-10.478v6.281c0,5.106,4.025,9.291,9.069,9.547v-2.06
		C37.659,75.458,36.615,74.352,35.85,73.026z"/><polygon display="inline" points="38.87,36.525 38.87,31.492 34.511,34.009 	"/><polygon display="inline" points="33.088,36.684 33.088,44.792 38.87,48.129 38.87,36.684 	"/><polygon display="inline" points="33.088,34.831 33.088,36.684 38.87,36.684 38.87,36.525 34.511,34.009 	"/><path display="inline" d="M33.088,52.696h-3.288v9.854l6.049,10.478c0.765,1.324,1.809,2.431,3.02,3.292V56.197l-5.781-10.014
		V52.696z"/><path display="inline" d="M40.685,27.615l8.969-5.178c4.043-2.334,5.61-7.334,3.764-11.513l-19.45,11.229v5.462H40.685z"/><polygon display="inline" points="29.801,27.389 29.411,27.615 29.801,27.615 	"/><polygon display="inline" points="38.87,31.492 45.587,27.615 38.87,27.615 	"/><polygon display="inline" points="28.186,27.615 33.968,27.615 33.968,22.153 24.899,27.389 24.899,27.615 	"/><polygon display="inline" points="33.088,27.615 33.088,33.188 34.511,34.009 38.87,31.492 38.87,27.615 	"/><polygon display="inline" points="34.511,34.009 33.088,33.188 33.088,34.831 	"/><polygon display="inline" points="12.812,46.537 8.768,39.532 13.704,36.684 3.427,36.684 15.49,52.696 24.112,52.696 
		18.62,43.184 	"/><polygon display="inline" points="13.704,36.684 14.577,36.178 12.778,33.065 11.689,32.437 12.052,31.808 11.014,30.009 
		14.129,28.21 14.474,27.615 -3.405,27.615 3.427,36.684 	"/><polygon display="inline" points="29.411,27.615 23.434,27.615 26.422,29.339 	"/><polygon display="inline" points="-40.196,36.684 -40.196,27.615 -40.687,27.615 -40.687,36.547 -12.717,52.696 15.49,52.696 
		3.427,36.684 	"/><polygon display="inline" points="-40.196,36.684 3.427,36.684 -3.405,27.615 -40.196,27.615 	"/><polygon display="inline" points="29.801,40.49 29.801,36.729 28.171,37.668 	"/><polygon display="inline" points="11.689,32.437 12.778,33.065 12.052,31.808 	"/><polygon display="inline" points="15.161,27.615 14.474,27.615 14.129,28.21 	"/><polygon display="inline" points="24.127,30.664 26.422,29.339 23.434,27.615 22.367,27.615 	"/><polygon display="inline" points="29.801,42.893 24.462,39.811 18.62,43.184 24.112,52.696 29.801,52.696 	"/><polygon display="inline" points="11.014,30.009 12.052,31.808 14.129,28.21 	"/><polygon display="inline" points="12.778,33.065 14.577,36.178 16.374,35.141 	"/><polygon display="inline" points="28.171,37.668 24.462,39.811 29.801,42.893 29.801,40.49 	"/><polygon display="inline" points="24.127,30.664 22.367,27.615 15.161,27.615 14.129,28.21 12.052,31.808 12.778,33.065 
		16.374,35.141 	"/><polygon display="inline" points="29.801,36.729 29.801,40.49 31.882,44.096 33.088,44.792 33.088,36.684 29.879,36.684 	"/><polygon display="inline" points="29.879,36.684 33.088,36.684 33.088,34.831 	"/><polygon display="inline" points="29.801,42.893 29.801,52.696 33.088,52.696 33.088,46.184 31.882,44.096 	"/><polygon display="inline" points="29.801,40.49 29.801,42.893 31.882,44.096 	"/><polygon display="inline" points="13.704,36.684 8.768,39.532 12.812,46.537 18.62,43.184 14.867,36.684 	"/><polygon display="inline" points="29.801,31.29 29.801,27.615 29.411,27.615 26.422,29.339 	"/><polygon display="inline" points="14.577,36.178 13.704,36.684 14.867,36.684 	"/><polygon display="inline" points="27.603,36.684 28.171,37.668 29.801,36.729 29.801,36.684 	"/><polygon display="inline" points="29.801,36.684 29.801,31.29 26.422,29.339 24.127,30.664 27.603,36.684 	"/><polygon display="inline" points="14.867,36.684 18.62,43.184 24.462,39.811 19.043,36.684 	"/><polygon display="inline" points="19.043,36.684 16.374,35.141 14.577,36.178 14.867,36.684 	"/><polygon display="inline" points="27.603,36.684 19.043,36.684 24.462,39.811 28.171,37.668 	"/><polygon display="inline" points="19.043,36.684 27.603,36.684 24.127,30.664 16.374,35.141 	"/><polygon display="inline" points="33.088,27.615 29.801,27.615 29.801,31.29 33.088,33.188 	"/><polygon display="inline" points="29.801,36.729 29.879,36.684 29.801,36.684 	"/><polygon display="inline" points="29.879,36.684 33.088,34.831 33.088,33.188 29.801,31.29 29.801,36.684 	"/></g><text x="9.724" y="115" fill="#000000" font-size="5px" font-weight="bold" font-family="'Helvetica Neue', Helvetica, Arial-Unicode, Arial, Sans-serif">Created by Proletkult Graphik</text><text x="9.724" y="120" fill="#000000" font-size="5px" font-weight="bold" font-family="'Helvetica Neue', Helvetica, Arial-Unicode, Arial, Sans-serif">from the Noun Project</text></svg>