<svg xmlns="http://www.w3.org/2000/svg" version="1.1" viewBox="-5.0 -10.0 110.0 135.0">
 <path d="m90.379 34.012c-0.85156 0.16016-1.1289 0.73047-1.6289 1.2891-0.57812 0.66016-0.82031 0.73047-1.6914 0.80859-1.7695 0.16016-3.3711-0.19141-5.0586-0.42969-5.5312-0.80078-11.172-2.2188-16.27-4.8086-1.5703-0.80078-2.5-2.2305-3.9805-3.1094-0.78125-0.46094-3.6797-0.96875-4.3789-0.30859-1.4805 1.3906 5.4492 4.3711 0.60156 4.75-1.3711 0.10938-2.3789 0.76172-3.1914 1.9688-0.87891 1.3203-0.78906 2.6992 0.17969 3.9102 0.78125 0.98047 1.5508 1.6211 2.8281 1.6719 0.44922 0.019532 1.1016-0.03125 1.5117-0.26172 0.89844-0.51172 0.51172-0.58984 0.48828-1.3906-0.039062-1.3711 0.32813-2 1.7617-2.3203 0.80078-0.17969 2.7305-0.37891 4.5 0.48047 2.3281 1.1289 4.8281 1.8789 7.4688 2.0195 0.78125 0.039062 3.3203 0.53125 2.0117 1.5703-0.37109 0.28906-18.141 9.5195-18.641 9.1016-8.6289-7.3086-11.621-21.551-10.961-22.219 0.71094-0.71094 40.59-0.23828 41.25 0.050781 0.73828 0.32812 1.3711 1.1797 2.0586 1.6289 0.92188 0.60156 2.0898 1.0586 3.0703 0.37109 1.3516-0.94141 0.83984-3.0312 0.83984-4.4219 0-1.5586 0.23828-3.6797-1.3789-4.6016-1.6992-0.98047-2.5 0.67188-3.5195 1.6406-1.2109 1.1484-3.0586 0.67969-4.6211 0.64844-2.0703-0.039062-33.602-0.070312-35.52-0.10156-1.6602-0.03125-2.7812-0.14062-2.4219-2.1094 0.28125-1.5312 0.058594-5.5508 4.8906-7.5586 2.0312-0.83984 5.5-0.83984 6.3203 1.6484 0.37109 1.1016-0.26953 2.3789-1.4492 2.3984-0.60938 0.011719-0.82031-0.62891-1.5195-0.39844-0.39063 0.12891-0.80078 0.62109-1.0117 0.96094-0.5 0.82812-0.48047 2.1914 0.050781 3.0391 0.73828 1.1914 3.1797 0.94922 4.2812 0.39062 1.2891-0.64844 2.8984-1.3203 3.6914-2.5898 0.80078-1.3008 1.0508-2.7617 0.83984-4.2695-0.37891-2.7695-2.7188-4.7188-5.2305-5.5898-5.8398-2.0117-12.73 1.2578-14.75 7.1875-0.37109 1.1016-0.60156 2.2305-0.85938 3.3516-0.14844 0.64844 0.070313 1.3711-0.48828 1.8984-0.58984 0.57031-7.2188-1.0586-9.8984-2.1016-2.7109-1.0586-5.5898-2.2891-8.0586-3.8594-0.51172-0.32031-1.2617-0.71875-1.6211-1.1914-0.46094-0.60938-0.32031-1.1719-0.48047-1.8594-0.37109-1.5898-1.0312-2.5391-2.3086-3.5-2.9102-2.1797-6.5781-1-8.8398 1.4414-2.4414 2.2695-3.6211 5.9297-1.4414 8.8398 0.96094 1.2812 1.8984 1.9297 3.5 2.3086 0.69141 0.16016 1.25 0.011719 1.8594 0.48047 0.46875 0.35937 0.87109 1.1211 1.1914 1.6211 1.5703 2.4688 2.8008 5.3516 3.8594 8.0586 1.0391 2.6719 2.6719 9.3008 2.1016 9.8984-0.53125 0.55859-1.2617 0.33984-1.8984 0.48828-1.1211 0.26172-2.25 0.48047-3.3516 0.85938-5.9297 2.0117-9.1992 8.9102-7.1914 14.762 0.85938 2.5117 2.8203 4.8516 5.5898 5.2305 1.5117 0.21094 2.9805-0.050781 4.2695-0.83984 1.2695-0.78125 1.9414-2.3984 2.5898-3.6914 0.55859-1.1016 0.80859-3.5508-0.39062-4.2812-0.85156-0.53125-2.1992-0.53906-3.0391-0.050781-0.33984 0.21094-0.82812 0.60938-0.96094 1.0117-0.23047 0.69922 0.41016 0.91016 0.39844 1.5195-0.019531 1.1914-1.3008 1.8203-2.3984 1.4492-2.4883-0.82812-2.5-4.3008-1.6484-6.3203 2.0117-4.8281 6.0195-4.6094 7.5586-4.8906 1.9609-0.35938 2.0781 0.76172 2.1094 2.4219 0.03125 1.9219 0.058594 33.441 0.10156 35.52 0.03125 1.5586 0.5 3.3984-0.64844 4.6211-0.96875 1.0195-2.6094 1.8203-1.6406 3.5195 0.92969 1.6211 3.0391 1.3789 4.6016 1.3789 1.3906 0 3.4805 0.51172 4.4219-0.83984 0.67969-0.98828 0.23047-2.1484-0.37109-3.0703-0.44922-0.69141-1.3008-1.3086-1.6289-2.0586-0.28906-0.66016-0.76172-40.539-0.050781-41.25 0.66016-0.66016 14.898 2.3281 22.219 10.961 0.42188 0.5-8.8086 18.27-9.1016 18.641-1.0391 1.3086-1.5312-1.2305-1.5703-2.0117-0.14062-2.6406-0.89062-5.1406-2.0195-7.4688-0.85938-1.7695-0.66016-3.6992-0.48047-4.5 0.32031-1.4414 0.94922-1.8008 2.3203-1.7617 0.80078 0.019531 0.87109 0.39844 1.3906-0.48828 0.23828-0.41016 0.28125-1.0586 0.26172-1.5117-0.050781-1.2812-0.69141-2.0508-1.6719-2.8281-1.2188-0.96875-2.5898-1.0586-3.9102-0.17969-1.2188 0.80859-1.8594 1.8281-1.9688 3.1914-0.39062 4.8516-3.3594-2.0898-4.75-0.60156-0.66016 0.69922-0.14844 3.6016 0.30859 4.3789 0.87891 1.4805 2.3086 2.4102 3.1094 3.9805 2.6016 5.1016 4.0195 10.738 4.8086 16.27 0.23828 1.6914 0.58984 3.2891 0.42969 5.0586-0.078125 0.87109-0.14062 1.1094-0.80859 1.6914-0.57031 0.5-1.1289 0.76953-1.2891 1.6289-0.69141 3.6094 4.8789 2.9883 7.0312 2.8008 1.4609-0.14062 2.7617-1.0703 2.3984-2.7188-0.28906-1.3594-2.1211-2.0781-1.9297-3.5703 1.9492-15.18 9.4102-26.281 10.629-26.98 1.2383-0.71094 2.4609 1.2891 3.1719 2.1289 1.5312 1.8008 4.4688 5.1016 1.1094 6.7109-1.5 0.71875-1.8594 1.0508-1.4688 2.8711 0.30078 1.3984 1.1719 2.1016 2.3086 2.8281 2.5703 1.6406 5.0898 0.41016 6.2812-2.3008 0.55078-1.25 0.03125-2.1602-0.19141-3.4414-0.28125-1.6406 0.14844-1.3711 0.98828-0.25 1.8008 2.4102 3.3711 4.5195 6.1914 5.9102 1.1406 0.55859 2.6094 0.78906 3.6797 0.039062 0.039062-0.03125 0.070312-0.050781 0.10938-0.078125 0.03125-0.039062 0.050781-0.070312 0.078125-0.10938 0.75-1.0703 0.53125-2.5391-0.039063-3.6797-1.3906-2.8203-3.5-4.3984-5.9102-6.1914-1.1211-0.83984-1.3984-1.2695 0.25-0.98828 1.2812 0.21875 2.1914 0.73828 3.4414 0.19141 2.6992-1.1992 3.9414-3.7109 2.3008-6.2812-0.73047-1.1484-1.4297-2.0117-2.8281-2.3086-1.8086-0.39062-2.1484-0.03125-2.8711 1.4688-1.6094 3.3594-4.9102 0.42188-6.7109-1.1094-0.83984-0.71094-2.8398-1.9297-2.1289-3.1719 0.69141-1.2188 11.789-8.6914 26.98-10.629 1.4805-0.19141 2.2109 1.6289 3.5703 1.9297 1.6406 0.35938 2.5781-0.94141 2.7188-2.3984 0.19531-2.1641 0.80469-7.7461-2.7969-7.043zm-39.188 19.297c-2.0391-1.8516-12.66-9.1719-13.809-10.051-1.3086-1-2.8398-1.8906-3.0586-3.6719-0.16016-1.3203 0.60938-2.3789-0.35938-3.6016-0.71094-0.89062-2.3984-1.1094-3.4297-0.71094-0.5 0.19141-1.0391 0.53125-1.2891 1.0195-0.039063 0.078125-0.26172 1.8203-0.14844 1.8203 0 1.3086 1.1719 3.4492-0.91016 3.2383-0.48047-0.050781-1.6797-0.28125-2.0898-0.55078-0.62109-0.39844-0.71875-1.5586-0.91016-2.2812-4.6992-18.039-9.1602-20.25-9.6289-21.648-0.23047-0.69141 0.64062-1.5586 1.3281-1.3281 1.3906 0.46875 3.6094 4.9414 21.648 9.6289 0.71875 0.19141 1.8789 0.30078 2.2812 0.91016 0.26953 0.41016 0.5 1.6094 0.55078 2.0898 0.21094 2.0781-1.9297 0.91016-3.2383 0.91016 0-0.10938-1.7383 0.10938-1.8203 0.14844-0.48828 0.25-0.82812 0.78906-1.0195 1.2891-0.39844 1.0312-0.17969 2.7188 0.71094 3.4297 1.2188 0.96875 2.2812 0.19141 3.6016 0.35938 1.7812 0.21875 2.6719 1.75 3.6719 3.0586 0.87891 1.1484 8.1992 11.77 10.051 13.809 0.49609 0.58594-1.5625 2.6445-2.1328 2.1328zm15.438 13.32c-1.5898 0.73047-10.961-8.6406-11.41-9.8594-0.16016-0.44141 1.1211-1.7188 1.5586-1.5586 1.2227 0.46094 10.582 9.8281 9.8516 11.418z"/>
<text x="0.0" y="117.5" font-size="5.0" font-weight="bold" font-family="Arbeit Regular, Helvetica, Arial-Unicode, Arial, Sans-serif" fill="#000000">Created by Alvaro Cabrera</text><text x="0.0" y="122.5" font-size="5.0" font-weight="bold" font-family="Arbeit Regular, Helvetica, Arial-Unicode, Arial, Sans-serif" fill="#000000">from Noun Project</text></svg>