<svg xmlns="http://www.w3.org/2000/svg" xmlns:xlink="http://www.w3.org/1999/xlink" version="1.1" x="0px" y="0px" viewBox="0 0 1000 1250" style="enable-background:new 0 0 1000 1000;" xml:space="preserve"><g><path d="M385.5,345.1c0,11.4,9.2,0.1,10.9-3.6c3-6.6,4.8-14.8,3.9-22c-2.1-17-7.4-32.7-15.9-47.6c-9.4-16.5-3.5,20.7-4.2,23.9   c-2,8.5-9.7,16.8-3.8,25.5c5.2,7.7,7.8-4.5,11.9-2C391.8,321.5,384.4,339.9,385.5,345.1z"/><path d="M256,209.1c0-0.1,0-0.3,0-0.8c-0.1-0.6-0.1-0.7-0.1-0.6c-1.4-7.3-14.3-12.1-8.3,0.6C250.1,213.8,255.9,217.8,256,209.1z"/><path d="M464.5,455.7c-4.7-6-16-4.5-16,4.3C448.5,475.2,472.7,466.1,464.5,455.7z"/><path d="M234.9,373.4c7.1,12.4,18.6,20.9,26.4,32.8c2.1,3.3,2.6,24.7,8,20.8c10-7.4,7.2-23,0.7-31.6c-4.5-6.1,8.7-11.2-2-20.3   c-12.3-10.5-26-14.2-33.5-30c-1.3-2.7-5-24.2-0.3-16.2c6.1,10.5,7.1,23.4,19.6,29.2c2.4,1.1,11,5.4,13.5,2.6   c2.3-2.6-0.5-5.9,2.7-7.9c4.1-2.6,31.3,1.1,30-5.2c-1.9-9-13.7-11.8-20.8-13.6c-6.2-1.5-0.1-6.8-3.7-10.8   c-3.4-3.9-8.4-4.5-12.8-6.7c-12.2-6-17.4-16.5-17-30.1c0-7.8,13.1-24.6,12.8-11.5c-0.3,12.2-12.2,24.4,3.1,34.5   c5.5,3.6,14.8,5.5,19.2-0.4c3.2-4.3,8.1-0.9,12.2-0.9c7.5,0,13-18.3,16.4-24.3c2.5-4.4,1.8-15.5,8.9-14.1c4,0.8,7.5-2.6,6.7-6.7   c-2.3-12.5-10.3-19.5-23.3-19.4c-3.4,0-29.3,3.9-12.6-6.2c7.7-4.7,22.1-1.2,29.1,3.4c9,5.7,7.6,24.9,16.5,27.6   c2.8,0.9,9.9-4.3,9.7,2.2c-0.1,5.8,2.3,13.1,5.9,17.6c8.3,10.3,9.5-5.1,12.4-10.5c2.1-3.9,1-8.5,2.8-12.1c2.1-4.2,8.6-2.2,7.6-9.1   c-2.1-14.8-13.7-25.4-27.8-28.8c-11.3-2.7-4.2-8.1,4-4.8c10.3,4.1,19.1,10.6,25.7,19.6c4.4,6,10.3,29.2,20.5,27.1   c4.7-0.9,5.6-8.3,11.4-4.1c4.6,3.4,11.2,7.1,17.1,7.3c9,0.3,14.8-10.9,7.5-9c-11.2,2.9-22.7-12.4-29.8-18.5   c-11.3-9.7-22.9-18.3-36.2-25c-23.1-11.6-63.2-16.9-84.9,1c-4.3,3.5-21.9,11.3-27.2,7.1c-4.3-3.4-9.6-1.9-13.1,2.1   c-5,5.7,1.3,7.5,1.7,13.2c0.7,11.6-9.5,22.4-14.7,31.6c-5.6,10-8.7,22.3-8.1,33.8C220.8,333.1,222.7,352,234.9,373.4z"/><path d="M493.2,301.2c-12.9-7.8-43.3-9.7-40.2,13.9c1.2,9,11.4,14.5,19.5,10.8c10.9-4.9,1.2-11.4-2.6-15.7   c-5.1-5.8,10.2,0.1,10.9,0.6c8.7,6.3,16.3,12,21.7,21.6c10.6,19.2,7,40.3-2.7,59c-10.9,20.9-27.4,27.8-43.3,43.1   c-8,7.7,2.9,7.2,7.8,4.5c9.3-5.3,18.2-11.9,26.1-19.1c17.2-15.9,29.8-37,30.5-60.8C523.7,339.7,509.7,311.2,493.2,301.2z"/><path d="M520.8,359.1C520.5,369,521.1,357.3,520.8,359.1L520.8,359.1z"/><path d="M546.3,455.6c0.7-7.1-10.3-20-10.5-9c-0.1,10.4-8.9,15.9-18.6,17.1c-25.5,3-54.1-4-59.3,29.9c-2.4,15.8,0.9,49.6-23.2,45   c-8.9-1.7,1.2,13.2,8.3,14c9,1,19.6-12.8,26-9.8c19.1,9,4.5-55.7,4.2-55.6c5.8-3.5,12.8,41.3,13.7,44.7c1.6,5.8,11.5,13.6,15.8,5.6   c3.4-6.3,12.5-0.1,18,0c-0.3,0-3.6-0.1,0,0c14.1,0,6.7-15.3,5.8-22.9c-0.8-6.8,12.5-7.2,1.8-16.3c-10.3-8.7-26.5-7.2-37.9-14.8   c-14.4-9.5,5.6-2.3,10.2-1c8.2,2.3,31.2,13.6,36.6-0.2c1.7-4.3-3.3-6.8,1-10.8C542.9,467.4,545.7,461.8,546.3,455.6z"/><path d="M307.8,466.1c2.7,2.2,3.2,5.6,7,6.7c14.2,4.1,11.2-22.2-2.3-25.2c-13.8-3.1-15.9,15.2-17.8,23.9   c-0.6,20.7,25.1,14.8,13.7,3.1C306.4,471.8,302.6,461.9,307.8,466.1z"/><path d="M429.9,447c-2.2-5.1-24.4,0.9-29.6,1.3c-28.2,2.2-59.3-5.4-84.8-17.1c-8.1-3.7-16.5-8.1-24.1-12.8   c2.5,1.6-16.4-7.7-9.3,0.6c7.8,9.2,24.8,15.9,35.8,20.3c25.9,10.5,50.7,16.2,78.8,16.2C400.3,455.9,433.3,454.9,429.9,447z"/><path d="M245.3,213.6c-2.4-17.9-28.5-7.3-28.5,7C216.8,240.1,247.5,230.4,245.3,213.6z"/><path d="M212.5,196c-7.8,0.1-4.3,11.5,2.1,11.5C222.4,207.6,219,195.9,212.5,196z"/><path d="M221.5,241.6c9.7,0,1-6-2-7.9C208.2,226.9,212.2,241.3,221.5,241.6z"/><path d="M337.4,508.6c-20.3,7.4,11.1,13.2,17.3,13c31.2,2.3,60-22.4,76.1-46.6c10.7-16.1,17.3-33.8,21.3-52.7   c0.6-3,6.5-18.1,0.6-19.3c-5.1-1.1-6,12.3-6.3,13.8c-6.4,33.1-25.8,70-57.7,84.7c-7.3,3.3-15.4,6.3-23.3,7.3   C356.5,509.7,345.9,505.6,337.4,508.6z"/><path d="M559.5,235c-21.4,0.4-41.2,1.4-47.5,0.8c-0.2,0-0.3,0-0.4,0c-13.1,0.2-26,10.5-18.1,23.4c7.2,11.8,1.1,30.8,8.4,40.6   c35.4,47.9,10.6-38.2,23.1-39.2c11.3-1,22.9-0.9,34.5-0.7c0,0,0,0,0,0l221.4,0.1V235L559.5,235C559.5,235.1,559.5,235,559.5,235z"/><path d="M279.1,400.4c9.8,8,21.9,12.9,33.6,17.4c20.1,7.6,41.5,7.2,62.6,7.1c9.5,0.7,16.5-4,19.7-12.8c2.4-6.6-22-1.1-24.9-0.4   c-24.7,6-54.9-3.9-77.1-13.9C290.9,396.8,267.9,391.4,279.1,400.4z"/><path d="M400,442.9c7.7-2.6,10.9-13.8,13.5-20.4c7-17.4,9.7-35.2,14.4-53.1c3.4-13,2.1-57.3-12.4-84.2c-1.3-2.4-15.8-20.3-13-6.2   c1.5,7.7,5.7,16.2,8.4,23.6c10.5,29.7,6.8,62.3-2.8,91.5c-2.9,8.9-5.7,17.9-10,26.3c-3.2,6.1-10.4,12.1-12.5,18.5   C383.6,445.1,397.5,443.8,400,442.9z"/><path d="M258.4,547.9L258.4,547.9c-0.1-6.7-0.9-12.2-1-16.1c-0.3-20.5,5.1-15.2,22.8-14.2c10.3,0.6,21.7-0.8,31.6-3.8   c19.5-5.9,39.5-17.4,55.4-30.1c3-2.4,24.6-17.2,17.2-21.6c-5-3-15.5-3.5-20.2,0c-17.6,13.2-36.8,24.8-58.5,28.7   c-13.5,2.4-26,1.3-39.2-2.5c-7.8-2.3-15.7-11.2-22.5-2.5c-6.2,7.9-10.1,5.9-10.3,16.4c-0.1,9.1-0.8,18.3-0.8,27.5   c0-7.8-0.2,8.9,0,0.1c-0.1,6.5-0.1,12.9,0,19.4v229.2h25.4V547.9z"/><path d="M328.1,392.5c12.6,0,34.8-5.6,13-12.9c-1.8-0.6-21.2,3.2-19-0.1c3.2-5.1,12.3-9.1,0.6-12.8c-9.1-2.9-18.8,5.9-28.2,4.8   c-1.5-0.2-25.3-8.6-20.6-0.3C281.2,384.4,314.8,393.8,328.1,392.5z"/><path d="M218.1,494.9c6.3-9.1,15.1-2.7,20.4-9.6c3.3-4.4-7.5-14.1-4.7-21.6c1.4-3.8,16.8-15.9,18.6-7.2c1.4,6.5-17.2,15.3,0.9,21.4   c9.6,3.3,20.1-8.9,19.2-18c-5.8-32.4-36.1-19.1-47.2-8.9c-14.2,13-11.4,32.5-26.3,44C195.2,498.1,211.3,504.6,218.1,494.9z"/><path d="M375.3,424.8C372.5,424.9,377.5,425,375.3,424.8L375.3,424.8z"/><path d="M448.2,247.4C447.9,244.2,448.2,248.7,448.2,247.4L448.2,247.4z"/><path d="M313.7,283.5c-3,8-7,14-9.3,22.3c-0.1,0.2-0.2,0.6-0.3,1.1c0,1.1,0.1,1.4,0.2,1.4c1.4,6.6,12.1,12.3,11.1,4.1   c-1.2-8.8,2.2-16.3,3.9-24.9C320,283.4,316,277.2,313.7,283.5z"/><path d="M427.4,410.7c17.2,0,42.9-28.4,54.4-39.9c6.5-6.5,16.2-15,18.4-24.4c1-4.3-3.3-16.5-8.8-16.5c-5.5,0-13.3,16.5-16.2,20.3   c-6.8,8.9-14,16.8-22.3,24.4c-6.9,6.3-18.4,11.5-23.8,19.2C427.5,395.9,420,410.7,427.4,410.7z"/><path d="M426,285.6c3.6,8.5,7.6,16.7,11,25.3c5.3,13.2,11.5,33.2,9.9,47.5c0,0.2,0,0.3,0,0.4c0.5,3.5,4.2,14.5,7.1,5.2   c1.6-5-0.2-15.5-1.5-20.7c-4.7-18-9.3-35.1-17.5-51.9C433.5,288.5,421.5,274.9,426,285.6z"/><path d="M488.5,236.9c7.9,7.6,8.8-14.6,12.6-17c8.3-5.2,8-21.6-0.1-13.3c-14.1,14.4-55.7,8.5-52.8,40.8   c0.6,13.6,14.1,28.7,28.6,21.8c9.6-4.6,11.5-25-2.3-23.8c-6.1,0.5-17.2,9.3-11.6-5.3C467.4,228,480.9,229.6,488.5,236.9z"/></g><text x="0" y="1015" fill="#000000" font-size="5px" font-weight="bold" font-family="'Helvetica Neue', Helvetica, Arial-Unicode, Arial, Sans-serif">Created by Alvaro Cabrera</text><text x="0" y="1020" fill="#000000" font-size="5px" font-weight="bold" font-family="'Helvetica Neue', Helvetica, Arial-Unicode, Arial, Sans-serif">from the Noun Project</text></svg>