<svg xmlns="http://www.w3.org/2000/svg" version="1.1" viewBox="-5.0 -10.0 110.0 135.0">
 <path d="m31.121 45.16c-1.8789 0.011719-1.4609 1.9688-1.9414 3.1602-1.5898 3.9297-4.3594 6.3594-6.9883 9.5898-4.6797 5.7617-7.1914 12.961-7.6406 20.328-0.21875 3.6016 0.16016 7.6289 1.5195 11 0.32813 0.80859 4.5898 8.2109 6.3398 4.7109 0.57031-1.1406-3.2695-4.2383-3.6094-5.8281-0.71094-3.3281 1.2695-6.3516 3.8086-8.2617 2.2383-1.6797 5.4297-2.5 7.1992-4.7812 1.1211-1.4414 2.3086-7.8906-0.89844-8.3086-1.3594-0.17969-4.0312 3.8984-5.2383 5-2.8398 2.5586-3.7109 5.3789-6.0508 8.1289-2.9883-5.8008 4.0703-13.211 8.3281-15.93 5.5312-3.5391 10.469-7.4805 7.9297-14.762-0.39062-1.0859-1.1797-4.0586-2.7578-4.0469z"/>
 <path d="m78.352 14.539c-7.4219 0-14.719 2.7617-20.422 7.5117-2.6406 2.1914-4.8398 5.2617-8.1094 6.5898-2.0508 0.82812-7.3789 0.85938-3.5781 4.0898 6.3711 5.4102 13.121-0.82812 16.59-5.6992 4.4883-6.3086 10.969-11.691 19.352-9.8711-2.4609 2.1914-6.2383 2.9219-8.8203 5.2695-0.60938 0.55859-5.6289 4.6289-5.6797 5.4219-0.14844 2.6797 5.6211 2.6484 6.9688 1.9219 2.6992-1.4609 3.8008-4.9492 5.5508-7.2891 1.8711-2.5 4.75-4.8594 8.1406-3.9805 1.3984 0.35938 5.75 5.6797 6.7305 2.7695 1.8945-5.6719-13.855-6.7422-16.723-6.7344z"/>
 <path d="m17.18 57.371c0.33984-4.8398-2.9609-9.8516-7.4609-11.609-1.4609-0.57031-4.8203-1.6211-5.6016 0.011719-0.75 1.5781 1.4102 3.9102 2.3594 4.9883 3.5898 4.0703 8.2109 5.3984 8.4609 11.461 0.32422 7.7578 2.2617-2.3438 2.2422-4.8516z"/>
 <path d="m55.648 16.621c2.0312 0.26172 6.2109 0.67188 8.0781-0.44922 2.3281-1.3984 0.98828-1.6484-1.2812-1.6484v-0.039063c-5.9102 0-6.7812-3.3008-10.68-6.9219-3.0117-2.7891-7.7305-4.9414-6.1094 1.0312 1.3555 5.0156 4.9648 7.3867 9.9922 8.0273z"/>
 <path d="m18.969 56.859c0.5 0 0.89844-0.39844 0.89844-0.89844l0.003906-36.23h36.219c0.5 0 0.89844-0.39844 0.89844-0.89844s-0.39844-0.89844-0.89844-0.89844l-37.121-0.003906c-0.5 0-0.89844 0.39844-0.89844 0.89844v37.121c0 0.5 0.39844 0.91016 0.89844 0.91016z"/>
 <path d="m22.172 21.141c-0.5 0-0.89844 0.39844-0.89844 0.89844v29c0 0.5 0.39844 0.89844 0.89844 0.89844s0.89844-0.39844 0.89844-0.89844v-28.102h28.102c0.5 0 0.89844-0.39844 0.89844-0.89844s-0.39844-0.89844-0.89844-0.89844z"/>
<text x="0.0" y="117.5" font-size="5.0" font-weight="bold" font-family="Arbeit Regular, Helvetica, Arial-Unicode, Arial, Sans-serif" fill="#000000">Created by Alvaro Cabrera</text><text x="0.0" y="122.5" font-size="5.0" font-weight="bold" font-family="Arbeit Regular, Helvetica, Arial-Unicode, Arial, Sans-serif" fill="#000000">from Noun Project</text></svg>