<svg xmlns="http://www.w3.org/2000/svg" version="1.1" viewBox="-5.0 -10.0 110.0 135.0">
 <path d="m92.5 16.68c-0.37891-0.71094-1.1406-1.1094-1.8086-1.4609-0.10156-0.050781-0.19141-0.10156-0.28906-0.14844-1.9297-1.0391-3.6211-1.1719-5.0391-0.37891-0.83984 0.46875-1.3398 1.1914-1.3203 1.9414 0.011719 0.67188 0.42188 1.25 1.1719 1.6406 0.66016 0.33984 1.0703 0.42969 1.3398 0.28906 0.28125-0.16016 0.32031-0.55078 0.35937-0.96875 0.039063-0.41016 0.078126-0.87109 0.35156-1.1484l0.011719-0.011718c0.62891-0.62891 2.0117-0.48047 2.9883-0.019532 0.92969 0.44141 1.4414 1.0781 1.3711 1.7305-0.17188 1.6914-10.07 1.1016-13.789 0.87891-0.78125-0.050782-1.3906-0.078126-1.7188-0.089844-1.5312-0.039063-2.1406-0.78906-2.9219-1.7305-0.37109-0.44922-0.78125-0.94922-1.3281-1.4102-2.6992-2.2383-7.3516-2.7305-10.512-2.4688-3.2812 0.26953-6.6016 1.7109-8.6797 3.7383l-0.011719 0.011719c-0.16016 0.16016-0.35156 0.42188-0.57031 0.71094-0.55078 0.73047-1.2891 1.7305-1.9492 1.75-0.21094 0.011719-0.39844-0.089844-0.57812-0.28906-0.28125-0.32031-0.17969-2.7109-0.12109-4.2891 0.03125-0.66016 0.050781-1.2305 0.050781-1.6094 0-0.19141 0.019532-0.46094 0.050782-0.73828 0.078125-0.82812 0.17188-1.8594-0.19922-2.3594-0.44141-0.60156-1.3008-0.55078-1.9805-0.51172-0.16016 0.011719-0.30859 0.019531-0.44922 0.019531-0.14063 0-0.33984-0.011718-0.57031-0.019531-1.2812-0.050781-3.6484-0.14062-4.6484 0.85938l-0.03125 0.03125c-0.32813 0.35156-0.48047 0.80859-0.42969 1.3516 0.058594 0.69141 0.039062 1.4102 0.03125 2.1016-0.011719 0.42188-0.019531 0.85938-0.011719 1.2891 0.011719 0.32031 0.019531 0.64062 0.039063 0.94141 0.058594 1.0508 0.10938 2.0391-0.35156 2.5391-0.011719 0.011719-0.019531 0.019532-0.03125 0.03125-0.23047 0.23047-0.55859 0.33984-1.0117 0.35156-1 0.019531-2.0195 0.011719-3.0117 0-1.1602-0.011719-2.3594-0.03125-3.5391 0.011719-1.0781 0.039062-1.6914 0.30078-1.9883 0.85938-0.26953 0.51953-0.25 1.2383-0.21875 2.1602 0.011719 0.19141 0.011719 0.39062 0.019531 0.58984 0 0.21094 0.019531 0.42969 0.039063 0.67188 0.078125 1.0195 0.17188 2.1797-0.82031 2.4102-0.19922 0.050781-1.1914-0.23047-1.6094-0.33984-0.12109-0.03125-0.21875-0.058594-0.28125-0.078125-0.85938-0.21875-1.6914-0.64844-2.4609-1.0898-1.3281-0.75-5.8711-4.7695-6.1289-6.8789-0.050781-0.37109 0.039063-0.64844 0.25-0.85938l0.011719-0.011718c0.32812-0.32031 2-0.76953 2.4492-0.71094 0.62109 0.078125 0.76172 0.28906 1.0195 0.69141 0.089844 0.14062 0.19141 0.30078 0.33984 0.48047 1.25 1.5586 2.9883 2.1289 4.5391 1.4883 1.6289-0.67969 2.6992-1.9492 3.0117-3.5703 0.33984-1.8281-0.37109-3.8516-1.8516-5.2891-3.0117-2.8984-6.8516-1.7305-9.3281 0.73047-1.0117 1.0195-1.2617 1.9492-1.5312 3.0312-0.10938 0.46094-0.23047 0.92969-0.42188 1.4492-0.21094 0.58984-0.46875 0.91016-0.76172 0.92188-0.46094 0.019531-1.1016-0.71875-1.7383-2.0508l-0.20312-0.45312c-1.2812-2.6602-2.8711-5.9688-6.2383-6.3398-0.91016-0.10156-1.6406-0.070313-2.1719 0.089844l-0.078124-0.078126-0.039063 0.10938-0.10938 0.039062 0.078125 0.078125c-0.16016 0.53125-0.19922 1.2617-0.089844 2.1719 0.37891 3.3711 3.6914 4.9609 6.3398 6.2383l0.37891 0.19141c1.3281 0.64062 2.0781 1.2812 2.0508 1.7383-0.019531 0.28906-0.32031 0.53906-0.92187 0.76172-0.51953 0.19141-0.98828 0.30859-1.4492 0.42187-1.0781 0.26953-2.0117 0.51172-3.0195 1.5117-0.011719 0.011719-0.011719 0.011719-0.019532 0.019531-2.4492 2.4688-3.6289 6.3203-0.73047 9.3281 1.4297 1.4805 3.4609 2.1914 5.2891 1.8516 1.6211-0.30859 2.8906-1.3711 3.5703-3.0117 0.64844-1.5508 0.078126-3.2891-1.4883-4.5391-0.17969-0.14062-0.33984-0.25-0.48047-0.33984-0.39844-0.25-0.60937-0.39844-0.69141-1.0195-0.058594-0.44922 0.39062-2.1211 0.71094-2.4492l0.011718-0.011719c0.21094-0.21094 0.5-0.28906 0.85938-0.25 2.1016 0.26172 6.1211 4.8008 6.8789 6.1289 0.44141 0.76953 0.87109 1.6016 1.0898 2.4609 0.019531 0.058594 0.039062 0.16016 0.078124 0.28125 0.12109 0.42188 0.39063 1.4102 0.33984 1.6094-0.23047 0.98828-1.3906 0.89844-2.4102 0.82031-0.23828-0.019532-0.46094-0.039063-0.67188-0.039063s-0.39844-0.011719-0.58984-0.019531c-0.92188-0.03125-1.6406-0.050782-2.1602 0.21875-0.55859 0.28906-0.82812 0.91016-0.85938 1.9883-0.039062 1.1797-0.019531 2.3789-0.011719 3.5391 0.011719 0.98828 0.019531 2.0117 0 3.0117-0.011719 0.46094-0.12109 0.78906-0.35156 1.0117l-0.03125 0.03125c-0.5 0.46875-1.4883 0.41016-2.5391 0.35156-0.30859-0.019532-0.62891-0.039063-0.94141-0.039063-0.42969-0.011719-0.87109 0-1.2891 0.011719-0.69141 0.019531-1.3984 0.039062-2.1016-0.03125-0.53906-0.050782-1 0.089844-1.3516 0.42969-0.011718 0.011719-0.019531 0.019531-0.03125 0.03125-1 1-0.91016 3.3711-0.85937 4.6484 0.011718 0.23047 0.019531 0.42188 0.019531 0.57031 0 0.14062-0.011719 0.28906-0.019531 0.44922-0.039063 0.67969-0.089844 1.5391 0.51172 1.9805 0.5 0.37109 1.5312 0.26953 2.3594 0.19922 0.28125-0.019532 0.55078-0.050782 0.73828-0.050782 0.39063 0 0.96094-0.019531 1.6211-0.050781 1.5781-0.058594 3.9688-0.16016 4.2812 0.12109 0.21094 0.17969 0.30078 0.37109 0.28906 0.57812-0.03125 0.64844-1.0195 1.3984-1.75 1.9492-0.30078 0.21875-0.55859 0.42188-0.71094 0.57031l-0.011719 0.011719c-2.0312 2.0781-3.4688 5.3984-3.7383 8.6797-0.26172 3.1602 0.23047 7.8086 2.4688 10.512 0.46094 0.55859 0.96094 0.96875 1.4102 1.3281 0.94141 0.78125 1.6914 1.3906 1.7305 2.9219 0.011719 0.32812 0.050782 0.94922 0.089844 1.7188 0.21875 3.7188 0.82031 13.609-0.87891 13.789-0.64844 0.070313-1.2891-0.44141-1.7305-1.3711-0.46094-0.98047-0.60938-2.3594 0.019531-2.9883l0.011719-0.011719c0.28125-0.26953 0.73828-0.32031 1.1484-0.35156 0.42188-0.039062 0.80859-0.070312 0.96875-0.35938 0.14844-0.26953 0.058594-0.67969-0.28906-1.3398-0.39062-0.75-0.96875-1.1602-1.6289-1.1719-0.73828-0.011718-1.4688 0.48047-1.9414 1.3203-0.78906 1.4102-0.66016 3.1094 0.37891 5.0391 0.050781 0.089843 0.10156 0.19141 0.14844 0.28906 0.35156 0.67188 0.75 1.4219 1.4609 1.8086 0.89844 0.48047 5.2188 0.62109 6.6484-0.28125 0.23828-0.14844 0.44922-0.32031 0.64844-0.51953 2.1289-2.1289 2.0586-6.8906 1.4805-9.1992-0.53125-2.1289-1.2617-3.7812-2.3711-5.3594-0.078125-0.10938-0.19141-0.23828-0.30859-0.39062-0.42188-0.51172-0.98828-1.1992-0.83984-1.6797 0.12891-0.41016 0.78125-0.53906 1.3086-0.64844 0.17969-0.039063 0.35156-0.070313 0.48047-0.12109 3.7109-1.2109 5.4805-4.5781 4.5391-8.5898-0.32031-1.3398-1.7188-3.3594-3.2891-3.6094-0.58984-0.089844-1.1914 0.089844-1.6797 0.51172-0.62109 0.53125-1.0117 1.3711-1.0117 2.1797 0 0.55078 0.58984 2.1406 1.3281 2.3906 0.19141 0.070312 0.48047 0.070312 0.76172-0.30078 0.17969-0.23047 0.10156-0.46875 0.039063-0.67188-0.089844-0.26953-0.14844-0.44922 0.30859-0.67188 0.51953-0.25 1.3516 0.32812 1.6602 0.71875 1.1211 1.4102 0.25 3.7188-0.73047 4.9102-0.55078 0.66016-2.9883 2.4688-4 2.5117l-0.089844-22.59c0.070313-1.3711 0.23047-1.5391 1.6211-1.6094 0.14062-0.011718 0.28906-0.019531 0.44141-0.03125 0.76172-0.050781 1.6094-0.10156 2.25 0.10938 0.12109 0.039062 0.23828 0.14062 0.35938 0.25 0.17969 0.14844 0.35938 0.30078 0.57812 0.32031 0.19141 0.019531 0.37109-0.12891 0.53125-0.26172 0.10156-0.078125 0.21094-0.17188 0.28906-0.17969 0.98828-0.12891 1.7812-0.21094 2.6484-0.21094 0.25 0 0.55859-0.03125 0.89844-0.050781 1.1094-0.089844 2.6211-0.21094 3.1797 0.42188 0.21094 0.23047 0.26953 0.55859 0.19141 0.98828-0.30859 1.6016-2.1719 1.4805-3.6602 1.3789-0.33984-0.019532-0.66016-0.039063-0.94141-0.039063-1.2617 0-1.6289 0-2.5781-0.60938-0.089844-0.058594-0.14062-0.17188-0.19141-0.28125-0.089844-0.19141-0.21094-0.48047-0.58984-0.32812-0.28906 0.10938-0.46094 0.44141-0.48828 0.94141-0.039063 0.80859 0.32031 2.0391 0.78906 2.2812 1.1719 0.58984 2.4883 0.41016 3.7812 0.23047 0.5-0.070312 0.96875-0.14062 1.4219-0.14844 0.30078-0.011718 0.69141 0.039063 1.1016 0.10156 1.0312 0.14062 2.1992 0.30859 2.8906-0.37891l0.03125-0.03125c0.46094-0.48047 0.37891-1.4688 0.32031-2.2617-0.019531-0.21875-0.03125-0.42188-0.03125-0.57812 0-0.37891 0.058594-0.78125 0.10938-1.1602 0.058594-0.39844 0.10938-0.80859 0.10938-1.1992-0.011719-0.58984-0.17188-1.0195-0.48047-1.3086-0.58984-0.53906-1.6094-0.44922-2.6016-0.35938-0.35938 0.03125-0.71094 0.058594-1.0312 0.058594s-0.73828 0.039063-1.1797 0.070313c-1.5586 0.12891-3.6914 0.30078-4.1484-0.75-0.19922-0.46094-0.12891-2.4297 0.019531-2.9219 0.25-0.82812 0.55859-0.83984 1.3711-0.85156 0.089844 0 0.17969 0 0.28125-0.011719 0.39844-0.011719 0.80859-0.019531 1.2188-0.039062 3.4805-0.10938 7.4297-0.23828 10.762 0.80859 1.6797 0.53125 3.3789 1.2812 3.2891 2.8789-0.039062 0.64062-0.67969 1.3281-1.3398 1.4414-0.46094 0.078125-0.80859-0.14062-1-0.60938-0.12109-0.28906-0.011719-0.60938 0.089843-0.89062 0.078125-0.25 0.16016-0.46094 0.03125-0.60938-0.10938-0.12891-0.32031-0.14844-0.71875-0.078125-0.78125 0.14062-1.4805 1.2383-1.6094 1.9414-0.25 1.3203 0.69141 2.3086 2.6992 2.8789 0.26172 0.070312 0.46875 0.078124 0.64844 0.089843 0.16016 0.011719 0.28125 0.011719 0.32031 0.058594 0.050781 0.058594 0.050781 0.21875 0 0.48828-0.019531 0.089844-0.26172 0.37891-0.51953 0.67969-0.92969 1.0898-2.6602 3.1094-2.7188 5.6289-0.070313 2.7891 1.8984 5.8906 5.1914 6.0195 1.6406 0.070313 3.3086-0.87891 4.3516-2.4688 1.0312-1.5586 1.2188-3.3711 0.51172-4.8398-0.10938-0.23047-0.5-0.96875-0.94922-0.96094-0.21094 0.011719-0.39062 0.17969-0.51953 0.51172-0.16016 0.39844-0.019531 0.98828 0.10938 1.5508 0.10156 0.44141 0.21094 0.89844 0.17188 1.2383-0.21094 1.7188-1 2.6719-2.7383 3.2695-1.2188 0.42188-2.3516 0.23828-3.25-0.55078-1.2383-1.0703-1.8711-3.1719-1.5195-4.9883 0.23047-1.1797 0.96875-2.1211 1.75-3.1211 0.33984-0.42969 0.69141-0.87891 0.98828-1.3516 0.26172-0.39062 0.42188-0.83984 0.58984-1.2695 0.10938-0.28906 0.21875-0.58984 0.35938-0.85937 0.058593-0.12891 0.12109-0.35938 0.19922-0.62109 0.12109-0.42969 0.30078-1.0898 0.48047-1.1719 0.070313-0.03125 0.12891-0.03125 0.19141-0.011719 0.26953 0.12109 0.48828 0.78906 0.69141 1.4297 0.23047 0.71875 0.46875 1.4609 0.85938 1.7305 0.32812 0.23047 1.1211 0.67188 1.9609 1.1289 1.0117 0.55078 2.1484 1.1797 2.4688 1.4492 0.71875 0.62109 1.6602 0.83984 2.1211 0.67188l0.058594 0.058594 0.050781-0.10156 0.10156-0.050782-0.050781-0.050781c0.17188-0.46094-0.039062-1.3906-0.67188-2.1211-0.28125-0.32031-0.89844-1.4688-1.4609-2.4805-0.46094-0.83984-0.89062-1.6289-1.1211-1.9492-0.26953-0.39062-1.0195-0.62891-1.7305-0.85938-0.64062-0.21094-1.3086-0.42188-1.4297-0.69141-0.03125-0.058593-0.019531-0.12109 0.011719-0.19141 0.078124-0.17969 0.73828-0.35938 1.1719-0.48047 0.26953-0.070313 0.5-0.12891 0.62109-0.19922 0.28125-0.14062 0.57812-0.25 0.85938-0.35938 0.42969-0.16016 0.87891-0.32812 1.2695-0.58984 0.46875-0.30078 0.91016-0.64844 1.3516-0.98828 1-0.78125 1.9414-1.5195 3.1211-1.75 1.8203-0.35938 3.9219 0.28125 4.9883 1.5195 0.78125 0.89844 0.96875 2.0195 0.55078 3.25-0.60156 1.7383-1.5508 2.5312-3.2695 2.7383-0.33984 0.039063-0.80078-0.058593-1.2383-0.17188-0.57031-0.12891-1.1484-0.26953-1.5508-0.10938-0.32813 0.12891-0.51172 0.30078-0.51172 0.51953-0.019531 0.44922 0.73047 0.83984 0.96094 0.94922 1.4688 0.69922 3.2812 0.51172 4.8398-0.51172 1.5898-1.0508 2.5312-2.7109 2.4688-4.3516-0.12891-3.2891-3.2305-5.2617-6.0195-5.1914-2.5195 0.058594-4.5391 1.7891-5.6289 2.7188-0.30078 0.26172-0.58984 0.5-0.67969 0.51953-0.26953 0.050781-0.42969 0.050781-0.48828 0-0.050782-0.039063-0.058594-0.17188-0.058594-0.32031-0.011719-0.17187-0.011719-0.39062-0.089844-0.64844-0.57031-2.0195-1.5703-2.9492-2.8789-2.6992-0.69922 0.12891-1.8008 0.82031-1.9414 1.6094-0.070313 0.39844-0.050782 0.62109 0.078125 0.71875 0.14062 0.12109 0.35938 0.050781 0.60938-0.03125 0.28125-0.10156 0.60156-0.21094 0.89062-0.089843 0.46875 0.19141 0.69141 0.55078 0.60938 1-0.10938 0.67187-0.80078 1.3008-1.4414 1.3398-1.6016 0.089844-2.3516-1.6094-2.8789-3.2891-1.0391-3.3281-0.92188-7.2812-0.80859-10.762 0.011718-0.41016 0.03125-0.80859 0.039062-1.2109 0-0.10156 0-0.19141 0.011719-0.28125 0.011719-0.80859 0.011719-1.1094 0.85156-1.3711 0.48828-0.14844 2.4609-0.21875 2.9219-0.011719 1.0508 0.46094 0.87891 2.5898 0.75 4.1484-0.039062 0.44141-0.070312 0.85937-0.070312 1.1797s-0.03125 0.67188-0.058594 1.0312c-0.089844 0.98828-0.17969 2.0117 0.35938 2.6016 0.28906 0.32031 0.71094 0.46875 1.3086 0.48047 0.39062 0.011719 0.80078-0.050781 1.1992-0.10938 0.37891-0.050781 0.78125-0.10938 1.1602-0.10938 0.16016 0 0.37109 0.019532 0.58984 0.03125 0.78906 0.058594 1.7695 0.14062 2.2617-0.32031l0.03125-0.03125c0.69141-0.69141 0.53125-1.8516 0.37891-2.8906-0.058593-0.41016-0.10937-0.80078-0.10156-1.1016 0.019531-0.44922 0.078125-0.92188 0.14844-1.4219 0.17969-1.2812 0.35937-2.6094-0.23047-3.7812-0.23828-0.46875-1.4805-0.83984-2.2812-0.78906-0.5 0.03125-0.82031 0.19922-0.94141 0.48828-0.14062 0.37109 0.14844 0.5 0.32813 0.57812 0.10937 0.050781 0.23047 0.10156 0.28906 0.19141 0.62109 0.94922 0.60938 1.3281 0.60938 2.5781 0 0.28125 0.019531 0.60156 0.039063 0.94141 0.10156 1.4883 0.21875 3.3516-1.3789 3.6602-0.42969 0.078125-0.75 0.019531-0.98828-0.19141-0.62891-0.55859-0.51172-2.0781-0.42188-3.1797 0.03125-0.33984 0.050781-0.64844 0.050781-0.89844 0-0.87109 0.078125-1.6602 0.21094-2.6484 0.011718-0.078125 0.10156-0.17969 0.17969-0.28906 0.12891-0.16016 0.26953-0.33984 0.26172-0.53125-0.019531-0.21094-0.17188-0.39844-0.32031-0.57813-0.10938-0.12891-0.21094-0.25-0.25-0.35937-0.21094-0.64063-0.16016-1.4883-0.10938-2.25 0.011719-0.14844 0.019532-0.30078 0.03125-0.44141 0.070313-1.3789 0.23047-1.5508 1.6016-1.6211l22.59 0.089843c-0.039063 1-1.8516 3.4492-2.5117 4-1.1914 0.98047-3.5 1.8516-4.9102 0.73047-0.39062-0.32031-0.96875-1.1406-0.71875-1.6602 0.21094-0.46094 0.39844-0.39062 0.67188-0.30859 0.19141 0.058594 0.42969 0.14062 0.67188-0.039062 0.37109-0.28125 0.37109-0.57031 0.30078-0.76172-0.25-0.73828-1.8398-1.3281-2.3906-1.3281-0.82031 0-1.6484 0.39062-2.1797 1.0117-0.42187 0.5-0.60156 1.0898-0.51172 1.6797 0.25 1.5703 2.2695 2.9688 3.6094 3.2891 4 0.94922 7.3789-0.82812 8.5898-4.5391 0.039063-0.12891 0.078126-0.30078 0.12109-0.48828 0.10938-0.53125 0.23828-1.1797 0.64844-1.3086 0.46875-0.14062 1.1719 0.42188 1.6719 0.83984 0.14844 0.12891 0.28125 0.23047 0.39844 0.30859 1.5781 1.1094 3.2305 1.8398 5.3594 2.3711 2.3086 0.57812 7.0703 0.64844 9.1992-1.4805 0.19922-0.19922 0.37109-0.41016 0.51953-0.64844 0.91406-1.3828 0.77344-5.7031 0.29297-6.6016zm-77.609-2.2305c-0.019531 0.039062-0.070313 0.10156-0.17188 0.12891l-0.10156-0.10156-0.019532 0.12891-0.12891 0.019531 0.10156 0.10156c-0.03125 0.10156-0.078124 0.14844-0.12891 0.17188-0.39844 0.17187-1.5117-0.37891-3.3008-1.6406l-0.14844-0.10937c-1.6289-1.1406-2.7305-2.2383-2.8086-3.9297 0.019531-0.33984 0.078125-0.62891 0.17969-0.85938 0.23047-0.10156 0.51172-0.16016 0.85156-0.17969 1.6914 0.078124 2.8008 1.1797 3.9414 2.8086l0.10156 0.14844c1.2539 1.8047 1.8008 2.9141 1.6328 3.3125zm1.2188 11.102c0.76953 0.37891 1.3984 1.7305 1.3203 2.5195 0 0.55859-0.21875 1.0586-0.67188 1.4805-0.69922 0.67188-1.8984 1.0898-2.9805 1.0508-1.7188-0.070312-3.2109-1.6289-3.9297-3.1484-0.69141-1.4609-0.60156-3.2812 0.23047-4.8711 0.28906-0.55859 0.66016-1.0508 1.0703-1.4688 0.78906-0.78906 1.7617-1.3008 2.8281-1.4688 0.60156-0.10156 1.0117 0.019531 1.2188 0.35938 0.44141 0.71094-0.10937 2.1992-0.66016 2.9609-0.23828 0.33984-0.55859 0.67188-0.87109 0.98828-1.0508 1.1016-2.1484 2.2383-0.55859 3.8398 0.28125 0.28125 0.82812 0.73828 1.3516 0.67969 0.26953-0.03125 0.48828-0.19922 0.66016-0.48047 0.14844-0.23828 0.011718-0.55859-0.14063-0.89844-0.19922-0.44922-0.39844-0.92188-0.03125-1.2891l0.019532-0.019532c0.375-0.35547 0.75391-0.42578 1.1445-0.23438zm3.1094-6.4727-0.03125-0.03125-0.050781 0.10156-0.10156 0.050781 0.03125 0.03125c-0.19922 0.23828-0.55078 0.19922-0.76172 0.14062-0.71094-0.19922-1.5391-0.94141-1.5117-1.5703 0.019531-0.32812 0.089843-0.57031 0.26172-0.71875l0.011718-0.011719c0.14844-0.16016 0.39062-0.25 0.71875-0.26172 0.62109-0.03125 1.3711 0.80078 1.5703 1.5117 0.054687 0.21094 0.10547 0.55859-0.13672 0.75781zm0.40234-5.0781c0.26172-1.6406 1.3281-3.0586 2.9414-3.9102 1.5898-0.83984 3.4102-0.92188 4.8711-0.23047 1.5195 0.71875 3.0781 2.2109 3.1484 3.9297 0.039063 1.0898-0.37891 2.2891-1.0508 2.9805-0.42969 0.46094-0.92969 0.67188-1.4883 0.67188-0.76953 0.078125-2.1289-0.55078-2.5117-1.3203-0.19141-0.39062-0.12109-0.76953 0.21875-1.1289 0.011719-0.011719 0.011719-0.011719 0.019531-0.019532 0.37109-0.37109 0.83984-0.17188 1.2891 0.03125 0.33984 0.14844 0.66016 0.28125 0.89844 0.14062 0.28125-0.17188 0.44922-0.39062 0.48047-0.66016 0.058594-0.53125-0.39844-1.0703-0.67969-1.3516-1.6016-1.5898-2.7383-0.5-3.8398 0.55859-0.32031 0.30859-0.64844 0.62891-0.98828 0.87109-0.76172 0.55078-2.25 1.1016-2.9609 0.66016-0.32812-0.21094-0.44922-0.62109-0.34766-1.2227zm-0.26172 31.379c-0.019531 0.12891-0.03125 0.26172-0.050781 0.39062-0.078125 0.64062-0.14844 1.3086-0.66016 1.6289l-6.3008-0.089844c-0.48828-0.37891-0.48047-1.3398-0.46875-2.1094 0-0.26172 0.011719-0.51172-0.011718-0.71875-0.070313-0.78906 0.070312-1.3398 0.41016-1.6914l0.011718-0.011718c0.62109-0.62109 1.8281-0.53125 3.1016-0.44922 0.44141 0.03125 0.89844 0.058594 1.3281 0.058594 0.21094 0 0.42969-0.019531 0.67188-0.050781 0.71094-0.070313 1.4492-0.14844 1.7891 0.42969 0.30078 0.52344 0.28125 1.9844 0.17969 2.6133zm-4.9883 19.602c0.10156-0.12891 0.23828-0.17969 0.42969-0.14844 0.62891 0.10156 1.5508 1.1016 1.7695 1.7812 0.039063 0.12109 0.078126 0.35156-0.019531 0.44922-0.32812 0.32812-0.66016 0.42969-0.96875 0.30078-0.68359-0.28516-1.1914-1.625-1.2109-2.3828zm4.5898 7.6406c-0.12109 0.12109-0.26953 0.17969-0.48047 0.17969-0.80078 0.019531-2.1719-1.7617-2.6406-3.1484-0.12891-0.39062-0.30078-1.0703 0-1.3789 0.019531-0.019532 0.03125-0.03125 0.050781-0.050782 0.23047-0.17188 0.5-0.19922 0.78125-0.23828 0.42188-0.050781 0.89844-0.10938 1.25-0.67188 0.46875-0.76953 0.35938-1.4102-0.35938-2.0508-0.32812-0.28906-0.64062-0.5-0.92188-0.67188-0.55859-0.37109-1.0117-0.64844-1.3516-1.5-0.33984-0.85156-0.32812-1.7891-0.28125-2.6016 0.078126-1.4883 0.57813-3.1602 1.5898-5.25 0.41016-0.85156 1.3398-2.2695 2.0898-2.4688 0.16016-0.039062 0.28906-0.019531 0.42188 0.050781l0.058594 18.09c0 0.12109 0 0.23828 0.011719 0.37109 0.019531 0.50781 0.039062 1.0703-0.21875 1.3398zm6.7188-8.2617c-0.070313 0.23047-0.39063 0.35156-0.87109 0.32812-0.32031-0.050781-0.58984 0.10938-0.83984 0.25-0.33984 0.19922-0.55078 0.30078-0.78906 0.078125-0.10938-0.10156-0.17188-0.21875-0.17188-0.35938 0-0.30078 0.25-0.62109 0.46094-0.80859 0.67188-0.60156 1.3594-0.51953 1.7812-0.25 0.32031 0.21094 0.5 0.53125 0.42969 0.76172zm8.2695-42.668c0.60938-0.53906 1.8906-0.37891 3.0117-0.23828 0.5 0.058594 0.96875 0.12109 1.3594 0.12109h0.41016c0.57031 0 2.3086-0.011719 2.4805 0.058593 0.25 0.23047 0.39844 1.1797 0.32031 2.0391-0.03125 0.32812-0.019531 0.64062 0 0.89844 0.03125 0.71094 0.050781 1.1484-0.69922 1.4805-0.57031 0.25-1.7305 0.14844-2.6719 0.070313-0.42969-0.039063-0.82812-0.070313-1.1406-0.070313-0.12891 0-0.30078 0-0.48828 0.011719-0.67969 0.011719-2.5 0.039062-2.6211-0.17969-0.25-0.64062-0.33984-2.4297-0.35156-3.1602 0.011718-0.46094 0.13281-0.8125 0.39062-1.0312zm-12.289 56.07c0.011719-0.011719 0.03125-0.019531 0.050782-0.03125 0.10937-0.058594 0.32812 0.03125 0.60156 0.26172 1.2812 1.0508 1.8906 4.8711 1.9805 6.5703-0.011719 0.19922-0.019531 0.42969-0.039063 0.69141-0.089844 1.8984-0.23047 5.0781-1.8711 5.7812-0.21094 0.089844-0.39062 0.089844-0.53125-0.019531-0.78125-0.57031-0.51172-3.7305-0.37109-5.4219 0.039062-0.46875 0.070312-0.85156 0.070312-1.0508v-4.7891c0-0.16016-0.011719-0.35156-0.019531-0.55078-0.03125-0.53125-0.070312-1.2422 0.12891-1.4414zm4.3906-32.41c0.078125 0.80859 0.070313 1.3789-0.21875 1.6914l-0.03125 0.03125c-0.26953 0.26953-0.78906 0.37891-1.7617 0.37891h-0.17969c-0.67969 0-1.8086 0.011719-2.1914-0.5-0.10156-0.12891-0.17188-1.3086-0.14844-1.6289h0.019531v-0.10938c0-1.1016 0.03125-1.9219 0.46875-2.3516 0.011719-0.011719 0.03125-0.019531 0.039063-0.039062 0.30859-0.28125 0.82031-0.37891 1.5508-0.30078 0.12109 0.011718 0.30078 0.019531 0.5 0.03125 0.60156 0.03125 1.5195 0.070312 1.7695 0.30859 0.30859 0.30078 0.25 1.0703 0.19922 1.6992-0.015625 0.29688-0.035156 0.57812-0.015625 0.78906zm-0.011719-4.5c-0.32812 0.75-0.76172 0.73047-1.4805 0.69922-0.26953-0.011719-0.57031-0.03125-0.89844 0-0.85938 0.078125-1.8086-0.070312-2.0312-0.30859-0.089844-0.17969-0.078125-1.9297-0.070312-2.5v-0.39844c0-0.39062-0.058594-0.85938-0.12109-1.3594-0.14062-1.1289-0.30078-2.4102 0.23828-3.0195 0.23047-0.26172 0.57031-0.37891 1.0312-0.37891 0.71875 0.011718 2.5195 0.10156 3.1602 0.35156 0.21875 0.12109 0.19141 1.9414 0.17969 2.6211 0 0.19141-0.011719 0.35156-0.011719 0.48828 0 0.30078 0.039063 0.71094 0.070313 1.1289 0.085937 0.94531 0.19531 2.1055-0.066407 2.6758zm0.85938-10.91c-0.089844-0.41016-0.19141-0.91016-0.37891-1.5391-0.039062-0.12891-0.10938-0.32031-0.19141-0.53125-0.23828-0.62891-0.60156-1.5586-0.42188-1.9414 0.37891-0.17188 1.3086 0.17969 1.9414 0.42187 0.21094 0.078126 0.39844 0.14844 0.53125 0.19141 0.62891 0.19141 1.1289 0.28906 1.5391 0.37891 1.3398 0.28906 1.5117 0.32031 1.5117 2.3008 0.03125 1.0312-0.050782 1.7305-0.23047 2-0.26953 0.17969-0.96875 0.26172-2 0.23047-1.9688-0.003906-2.0078-0.17188-2.3008-1.5117zm14.82 11.797c-1.0391 0.10156-11.77 0.019531-13.52-0.16016-1.2188-0.12109-1.1484-1.1797-1.0586-2.4102 0.019531-0.30859 0.039063-0.62891 0.039063-0.92969 0-0.21875-0.019532-0.55859-0.039063-0.94922-0.058594-1.1484-0.16016-3.0703 0.16016-3.3789 0.57031-0.55859 3.6484-0.41016 4.3281 0.21094 0.5 0.44922 0.64844 1.0898 0.82031 1.7695 0.17969 0.75 0.37891 1.5312 1.0586 2.0586 1.0391 0.80859 3.0586 0.98828 4.1094 0 0.050781-0.050781 0.10156-0.10156 0.14062-0.14844 0.050782-0.039062 0.10156-0.089843 0.14844-0.14062 1-1.0703 0.82812-3.0508 0-4.1094-0.53125-0.69141-1.3086-0.87891-2.0586-1.0586-0.67969-0.17188-1.3203-0.32031-1.7695-0.82031-0.62109-0.67969-0.76172-3.7617-0.21094-4.3281 0.30859-0.30859 2.2305-0.21094 3.3789-0.14844 0.39062 0.019532 0.73047 0.039063 0.94922 0.039063 0.30859 0 0.62891-0.019531 0.94141-0.039063 1.2188-0.089843 2.2812-0.16016 2.4102 1.0586 0.19141 1.7148 0.27344 12.445 0.17188 13.484zm-7.457-6.8672c0.03125-0.19141 0.078125-0.32812 0.16016-0.44141 0.10938-0.078126 0.25-0.12891 0.44141-0.16016 0.64062-0.089843 1.1797 0.41016 1.4219 0.92188 0.14844 0.32812 0.21094 0.78125-0.058594 1.0195l-0.050781 0.050781c-0.26172 0.23828-0.67188 0.17188-0.98828 0.03125-0.51562-0.24219-1.0156-0.78125-0.92578-1.4219zm8.0586-19.461c-0.089843-1.2812-0.17187-2.4805 0.44922-3.1016l0.011719-0.011719c0.35156-0.33984 0.89844-0.48047 1.6914-0.42188 0.21094 0.019531 0.46094 0.011719 0.71875 0.011719 0.76953-0.011719 1.7188-0.019531 2.1094 0.46875l0.089844 6.3008c-0.32031 0.51172-0.98047 0.58984-1.6211 0.66016-0.12891 0.019532-0.26953 0.03125-0.39062 0.050782-0.64062 0.10156-2.0898 0.12109-2.6016-0.19141-0.57031-0.33984-0.5-1.0781-0.42969-1.7891 0.019532-0.23828 0.050782-0.46094 0.050782-0.67188-0.019532-0.40625-0.046876-0.86328-0.078126-1.3047zm5.1094 8.4805v0.17188c0 0.96875-0.10938 1.4883-0.37891 1.7617l-0.03125 0.03125c-0.32031 0.28906-0.87891 0.30078-1.6914 0.21875-0.19922-0.019531-0.48828 0-0.78906 0.03125-0.62109 0.050781-1.3984 0.10938-1.6992-0.19922-0.23828-0.26172-0.28906-1.2109-0.30859-1.7812-0.011719-0.19922-0.019531-0.37891-0.03125-0.5-0.078125-0.73047 0.019531-1.2383 0.30078-1.5508 0.011719-0.011719 0.019531-0.03125 0.039063-0.039063 0.42969-0.42969 1.25-0.46875 2.3516-0.46875h0.10938v-0.019531c0.32031-0.019531 1.5 0.058594 1.6289 0.14844 0.51172 0.375 0.5 1.5156 0.5 2.1953zm17.492-9.4688c0.011719-0.011719 0.019531-0.019531 0.039063-0.03125 0.76172 0.019531 2.1016 0.53125 2.3789 1.2188 0.12891 0.30859 0.03125 0.64062-0.30078 0.96875-0.10156 0.10156-0.32031 0.050781-0.44141 0.011719-0.67969-0.21875-1.6797-1.1406-1.7812-1.7812-0.027344-0.16016 0.003906-0.28906 0.10547-0.38672zm7.6797 4.5586c-0.26953 0.26172-0.82812 0.23828-1.3203 0.21875-0.12891 0-0.26172-0.011719-0.37109-0.011719l-18.09-0.058594c-0.070312-0.12891-0.089843-0.26172-0.050781-0.42188 0.19141-0.75 1.6211-1.6797 2.4688-2.0898 2.0898-1.0117 3.7617-1.5117 5.25-1.5898 0.80859-0.039063 1.75-0.058594 2.6016 0.28125 0.85156 0.33984 1.1289 0.78125 1.5 1.3516 0.17969 0.28125 0.37891 0.58984 0.67188 0.92188 0.64062 0.71875 1.2812 0.82812 2.0508 0.35938 0.57031-0.33984 0.62109-0.82031 0.67188-1.25 0.03125-0.28125 0.070313-0.55078 0.23828-0.78125 0.011719-0.019531 0.03125-0.039062 0.050782-0.050781 0.30859-0.30859 0.98047-0.14062 1.3789 0 1.3906 0.46875 3.1719 1.8398 3.1484 2.6406-0.019531 0.21094-0.082031 0.35938-0.19922 0.48047zm-7.6797 5.0078c-0.14062 0.25-0.30078 0.53125-0.25 0.82812 0.019531 0.48047-0.10938 0.80859-0.32812 0.87891-0.23047 0.070313-0.55078-0.10937-0.76172-0.42969-0.26953-0.42188-0.35156-1.1094 0.25-1.7812 0.19141-0.21094 0.51953-0.46094 0.80859-0.46094 0.14062 0 0.26172 0.050781 0.35938 0.17187 0.21875 0.24609 0.12109 0.44531-0.078125 0.79297zm26.09-1.5977c-0.69141 1.6484-3.8789 1.7891-5.7812 1.8711-0.26172 0.011719-0.5 0.019531-0.69141 0.039062-1.6914-0.089843-5.5312-0.69922-6.5781-1.9805-0.21875-0.28125-0.32031-0.48828-0.26172-0.60156 0.011719-0.019531 0.019531-0.03125 0.03125-0.050781 0.19141-0.19141 0.91016-0.14844 1.4414-0.12109 0.19922 0.011719 0.39062 0.019531 0.55078 0.019531h4.7891c0.19922 0 0.57812-0.03125 1.0508-0.070312 1.6992-0.14062 4.8594-0.42188 5.4219 0.37109 0.10547 0.13281 0.11719 0.3125 0.027344 0.52344z"/>
<text x="0.0" y="117.5" font-size="5.0" font-weight="bold" font-family="Arbeit Regular, Helvetica, Arial-Unicode, Arial, Sans-serif" fill="#000000">Created by Alvaro Cabrera</text><text x="0.0" y="122.5" font-size="5.0" font-weight="bold" font-family="Arbeit Regular, Helvetica, Arial-Unicode, Arial, Sans-serif" fill="#000000">from Noun Project</text></svg>