<svg xmlns="http://www.w3.org/2000/svg" xmlns:xlink="http://www.w3.org/1999/xlink" version="1.1" x="0px" y="0px" viewBox="0 0 1000 1250" style="enable-background:new 0 0 1000 1000;" xml:space="preserve"><path d="M316.6,430.8c0.7-2.1,1.4-4,2.1-5.4c0.4-0.9,0.9-1.7,1.3-2.6c1.3-2.5,2.7-5.2,3.3-7.8c-0.2,0-0.4,0-0.6,0  c-7.6,0-17.7,5.1-25,8.8c-1,0.5-2,1-2.9,1.4c-4.5,2.2-9.1,4.9-13.7,7.9c1.3-0.6,2.7-0.9,4.4-0.9c0.3,0,0.7,0,1,0  c4.2,0.3,8.2,2.7,11.7,4.9c0.9,0.5,1.7,1.1,2.5,1.5c1.1,0.6,2.1,1.3,3,1.9c1.8,1.2,3.3,2.2,4.7,2.2c0.8,0,1.6-0.3,2.6-1.1  C313.2,440.3,315.1,435.1,316.6,430.8z M254.8,474.5c1.7,0,3.4,0,4.8,0.1c1.1,0,2.1,0.1,2.9,0.1c0.3,0,0.6,0,0.9,0  c0.3,0,0.6,0,0.9,0c0.6,0,1.4,0,2.4,0c1.2,0,2.5,0.1,3.9,0.1c6.9,0,8.7-0.9,9.2-1.4c1.1-1.2-0.3-7.4-0.8-10.1  c-0.3-1.3-0.5-2.4-0.6-3.1c-0.2-1.4-0.4-3.1-0.8-5c-1.2-6.9-2.6-15.5,1.1-20c0.2-0.2,0.4-0.4,0.6-0.6c-3,2.1-6,4.3-8.8,6.6  c-11.5,9.3-21.7,22.7-30.1,39.6c-8.1,16.3-17,40.5-13.3,63.5c3.2,19.9,11.6,44,25.8,53c1.1-3.9,1.1-13.3,0.3-16.2  c-1.1-4-4.6-5.4-9.1-7.2l-0.9-0.4c-1.1-0.5-2.2-0.8-3.1-1.1c-2.3-0.8-3.9-1.4-4.3-2.8c-0.4-1.5,0.8-3.1,3.4-6c2.7-3,6.3-5.5,9.7-8  c2-1.5,4-2.8,5.8-4.3c-1.7-2-5.8-4.7-9.8-7.4c-8.4-5.7-17-11.5-15.4-16.5c0.7-2,4.5-4,9.9-6.6c1.4-0.7,2.6-1.2,3.2-1.6  c2.1-1.3,4.7-2.3,7.1-3.3c2.6-1,5.1-2,7-3.3c1.5-1,2.4-2.3,2.6-3.7c0.6-4-3.4-9.3-7-14c-1.3-1.7-2.5-3.3-3.4-4.7  c-0.5-0.7-1.1-1.5-1.7-2.4c-2.5-3.3-5.7-7.4-3.2-10.9C245.1,475.2,248.3,474.5,254.8,474.5z M289,252.5c4.2,7.1,12.1,13.6,19.7,19.9  c4.1,3.4,7.9,6.6,11.1,9.8c2.8,2.8,5.6,5.9,8.6,9.3c6.9,7.7,14.7,16.4,22.9,21.2c1.8-19.2-11-46.5-23.8-66  c-14.9-22.7-30.8-39.2-49.6-51.6c1.3,1.9,3,4,4,5.4c1.3,1.8,2.1,2.8,2.4,3.2c3.3,5.6,4.5,10.6,5.2,16.5c0.5,4.2-0.2,9.3-1,14.1  C287.5,241.1,286.4,248.1,289,252.5z M221.2,304.2c1,0.8,1.9,1.5,2.7,2.2c9.4,7.8,20.2,14.5,30.5,20.6  c20.4,12.1,42.4,21.1,60.6,24.8c-0.9-2.2-5.6-7.7-20.8-21.2c-1.7-1.5-2.9-2.5-3.4-3.1C280,317,271.6,309,263.6,301.7  c-1.5-1.4-3.2-2.7-4.8-4c-2.2-1.8-4.4-3.6-6.5-5.6c-1.3-1.4-2.3-2.5-3.1-3.4c-1.6-1.9-2.1-2.4-3.1-2.4c-1.1,0-2.8,0.6-5.7,1.8  c-4.6,1.8-9.2,3.5-14.2,3.5c-2.3,0-4.7-0.3-7.2-1c-2-0.5-4.1-1.4-6.4-2.4c-3.3-1.4-6.8-2.9-9.7-3.1C206.2,292,214.8,299,221.2,304.2  z M443.2,411.8c0-2,0.2-4.4,0.5-7c0.7-7,1.5-15.8-2.3-18.3c-1.9-1.3-14.6-3.7-20.4-3.7c-1.2,0-1.7,0.1-1.9,0.2  c-1.7,2.9,4.7,12.8,7.5,17c0.8,1.3,1.5,2.3,2,3.1c4.7,8.2,10.4,15.3,17.2,21.8c19.5,18.5,43.9,29,67.2,29c6,0,11.7-0.7,17.3-2  c-2.3-1-4.9-4.4-8.1-8.7c-0.9-1.3-1.8-2.4-2.3-3c-0.5-0.6-1.1-1.3-1.7-2c-2.2-2.6-4.7-5.5-7.5-6.6c-1.1,0.9-2.7,2.3-4.5,3.8  c-6.4,5.6-15.2,13.3-20.4,13.3c-0.7,0-1.4-0.1-2-0.4c-4.7-2.3-5.7-9.1-6.7-15.7c-0.6-4.1-1.2-7.9-2.6-9.9c-0.8-1.1-2-1.7-3.8-1.7  c-2.6,0-5.9,1.1-9.1,2.2c-3.4,1.2-6.6,2.3-9.4,2.3c-0.3,0-0.6,0-0.9,0c-8.3-0.8-8.2-4.5-8.1-10.5C443.2,414,443.2,413,443.2,411.8z   M548.7,425c-0.6-0.1-1.1-0.3-1.5-0.4c-1.7-0.4-2.9-0.7-3.7-0.7c-1,0-1.3,0.5-2.9,5l-0.1,0.3c-0.4,1.1-0.8,3.4-1.2,6.1  c-1,6-2.1,12.6-4.6,15.4c7-2.2,13.7-5.4,20-9.7c0.6-0.4,1.4-0.9,2.3-1.4c2.8-1.7,7-4.3,7.8-6.5c0.3-0.8,0.5-1.4,0.7-1.9  c0.1-0.1,0.1-0.3,0.2-0.4c-0.6-0.3-1.6-0.7-3-1.8c-2-1.6-6.7-2.5-10.4-3.3C550.8,425.5,549.6,425.3,548.7,425z M450.9,529.9  c4.5-14.4,4.5-29.1,0-42.2c-0.3,0.2-0.6,0.5-0.9,0.7c-5.7,4.8-17.5,14.7-18,20.5c-0.3,3.5,8.9,12.5,12.4,15.9c0.5,0.5,1,1,1.4,1.3  c0.4,0.4,1.1,0.8,1.9,1.2C448.7,528,450.1,528.8,450.9,529.9z M352.4,572.2c10.1,8.2,21.9,12.5,34.1,12.5c7.8,0,15.5-1.8,22.8-5.3  c16-7.7,29.8-22.1,37.7-39.5c0.6-1.3,1.2-2.7,1.7-4c-2.5,1.2-6.2,1.7-9,2c-0.9,0.1-1.7,0.2-2.1,0.3c-1.6,0.4-3.2,0.6-4.8,0.9  c-6.6,1.1-12.4,2-12.9,8.8c-0.1,1.7,0.8,4.9,1.6,8c1.5,5.3,3,10.7,1.4,13.7c-0.6,1-1.4,1.7-2.6,2c-0.5,0.1-1.1,0.2-1.7,0.2  c-3.4,0-7-2.5-10.8-5.1c-3.7-2.6-7.5-5.2-10.7-5.2c-0.5,0-0.9,0.1-1.4,0.2c-3.2,0.8-4.2,5.8-5.2,10.7c-1,4.9-1.9,9.6-5.2,11.3  c-0.8,0.4-1.6,0.7-2.5,0.7c-5.4,0-8.5-9.2-10.4-14.8c-0.3-1-0.6-1.8-0.9-2.4c-0.6-1.6-1-2.9-1.3-3.9c-0.8-2.9-0.9-3-4.7-3l-0.2,0  c-2.4,0-5.6,1-8.4,1.9c-1.1,0.3-2.1,0.7-3,0.9c-5.1,1.4-6.4,2.6-6.6,3.4C347.3,568.1,351.1,571.2,352.4,572.2z M411.4,434.6  c-6.7-5.3-14.5-11.1-23-14.1c-1.6-0.5-2.5-1-3.3-1.4c-0.4-0.2-0.8-0.4-0.9-0.4c-0.2,0-0.5,0.4-1.1,1c-0.3,1.1,0.6,5.6,2.6,13.4  c0.2,0.9,0.4,1.6,0.5,2c2,9,3.4,10,8.2,10c1.2,0,2.6-0.1,4.3-0.2c1-0.1,2.1-0.1,3.3-0.2c1.4-0.1,2.9-0.2,4.5-0.4  c2.2-0.2,4.6-0.5,6.8-0.5c3.2,0,7.8,0.5,9.9,4.5c2,3.8,0.6,8.7-0.6,13.5c-1.4,5.2-2.7,10,0.1,12.9c0.9,1,5.7,1.7,8.5,2.1  c1.9,0.3,3.5,0.5,4.5,0.8c1.7,0.5,3.4,1.2,5.1,1.9c2.8,1.1,5.6,2.3,8.3,2.6C448.2,469.7,435.2,453.3,411.4,434.6z M581.3,372.5  c-2.2-9.2-8.3-22.3-15.8-29.7c-7.9-7.7-20.6-13.1-31.8-13.3c-0.2,0-0.4,0-0.6,0c-4.1,0-10.9,0.9-16.7,3c-4.4,1.6-9.6,4.3-10.9,8.6  c0.6,0.1,1.3,0.3,2,0.4c2.3,0.5,4.9,1.1,7.2,1.1c1.3,0,2.4-0.2,3.1-0.6c0.9-0.5,1.8-2.6,2.6-4.5c1.4-3.3,3.1-7,6.3-7  c0.1,0,0.2,0,0.3,0c2.7,0.2,4.5,4.2,6.5,9.4c0.5,1.2,0.9,2.4,1.2,2.8c3,4.9,3.8,5.7,7.5,5.7c0.5,0,1,0,1.6,0c2.5-0.1,5.2-1,7.9-2  c2.4-0.8,4.9-1.7,7.4-2c1.2-0.2,2.1-0.4,2.9-0.6c0.7-0.2,1.3-0.3,1.9-0.3c2.3,0,2.5,2.5,2.7,5.2c0.3,3.3-1.3,7.2-2.8,11  c-2.2,5.5-4.3,10.6-1.2,13.7c1.4,1.4,12.1,5,15.2,5.5c1.2,0.2,2.2,0.3,2.9,0.3c0.8,0,1.3-0.1,1.5-0.3c0.5-0.6-0.1-3-0.8-5.8  L581.3,372.5z M543.6,231c-5.1,0-9.5,0.6-13,1.7c0.7,1.2,1.4,2.6,2.2,4.1c3.6,6.8,9,17.1,13.9,19.3c0.8,0.4,1.5,0.5,2.1,0.5  c1.5,0,2.3-1.3,3.8-3.7c0.6-1,1.2-2,2-3.1c0.6-0.8,1.1-1.6,1.7-2.4c2.2-3.2,4.8-6.8,8.1-8.9c2.1-1.3,3.8-2,5.1-2  c3.1,0,3.7,3,4.3,5.9c0.7,3.2,1.4,6.4,4.6,7.7c0.5,0.2,1,0.3,1.6,0.3c1.1,0,2.3-0.3,3.5-0.7c1.1-0.3,2.3-0.7,3.5-0.8  c0.7-0.1,1.3-0.1,2.1-0.1c1.9,0,3.8,0.2,5.6,0.3c1.6,0.1,3.3,0.3,4.9,0.3c-5.2-7.5-19.8-13-32.3-15.7C558.3,232,550.3,231,543.6,231  z M424.6,364.8c0.6-0.9,1.7-2.2,2.8-3.7c2.8-3.5,8.1-10.1,7.8-12.2c-0.3-1.4-2.7-3.6-4.3-5.1c-0.7-0.7-1.4-1.3-1.9-1.8  c-1-1.1-1.9-2.2-2.9-3.3c-4-4.5-8.2-9.2-12.8-12.6c-5.1,11.3-2,29.2-0.3,38.9c0.1,0.5,0.2,1.1,0.3,1.8c0.4,3.2,1.2,8.5,3.7,8.5h0  c1.6,0,4.8-5.7,6.2-8.1C423.7,366.2,424.2,365.3,424.6,364.8z M442.4,296.1c-0.3-1.2-0.5-3-0.8-5.1c-0.5-4.2-1.3-9.8-2.7-11.5  c-0.5-0.6-1.1-0.9-1.7-0.9c-3.5,0-8.6,8.8-11.1,13.1c-0.5,0.8-0.9,1.5-1.2,2.1c-9.6,15.7-10,21.5-9.4,23.5c0.2,0.6,0.5,1.1,1,1.3  c0,0,0.2,0.1,0.9,0.1c6.4,0,26.2-6.6,28.1-8.8C444.6,305.3,443.5,300.7,442.4,296.1z M461.9,276.1c0.9,0.2,2,0.7,3.3,1.2  c2.7,1,6,2.3,8.3,2.3c0.8,0,1.3-0.1,1.8-0.4c2.3-1.4,2.3-9.2,2.3-13.9c0-2.1,0-3.9,0.2-5.1c0.2-1.9,0.6-3.7,1-5.5  c0.5-2.7,1-5.3,1.2-8c-10.8,3.7-30.8,16.6-36.5,26.1c1.7,0.3,3.5,0.5,5.2,0.8C452.9,274.2,457.4,274.9,461.9,276.1z M487.3,244  c0.8,0.6,1.7,1.5,2.9,2.5c5.9,5.2,18.3,15.9,22.5,15.9c0.1,0,0.2,0,0.3,0c4.2-1,8.8-17,11-24.8c0.5-1.7,1-3.3,1.3-4.6  c-0.9,0.1-2,0.2-3.2,0.3C512.1,234.4,491.5,236.5,487.3,244z M354.7,432.9c2.7-0.3,18.7-14,19.6-16.8c-1.4-3.9-18.9-4.5-25.5-4.7  c-1.9-0.1-3.5-0.1-4.4-0.2c-1.6,0.2-3,0.2-4.2,0.3c-1.5,0.1-3.4,0.1-3.7,0.4c0,0.2,0,0.9,2,4.1C341.7,420.8,351.3,432.8,354.7,432.9  z M336.8,524.9c0.9-0.3,2.1-0.7,3.5-1.6c1.4-1,2.6-1.3,3.4-1.5c1.2-0.3,1.4-0.4,1.6-3.1c0.1-1.6-1.7-5.9-3.4-7.8  c-5.8,6.8-9,17-8.6,27.4c0.4,9.3,3.6,17.4,9,23c0.7-1.8,1.6-3.8,2.6-5.9c2.4-5,5-10.7,4.4-13.9c-0.5-2.7-3.4-4.2-6.3-5.8  c-2.1-1.1-4.3-2.3-5.8-4c-2.2-2.6-3.1-3.9-2.8-5.1C334.8,525.7,335.7,525.3,336.8,524.9z M564.5,401c-1,3.9,2.5,12.6,5.1,18.9  c0.8,2,1.6,3.9,2.1,5.3c2.6-1.4,6.5-9.3,8.9-16.6c2.2-6.8,3-14.4,2.2-22.2c-0.8,0.5-1.8,1-2.8,1.6  C574.3,391.2,565.8,396.1,564.5,401z M819.6,195.6c-8.1,0-16.5-1.9-24.9-5.6c-7.7-3.4-16.8-6.9-25.5-6.9c-7.2,0-13.5,2.3-19.4,7  c-2.3,1.8-3.9,3.6-5.1,5c-1.6,1.8-2.7,3-4.3,3c-1.9,0-3.6-1.9-6.3-5.5c-5.1-6.9-10.4-11-19.2-14.7c-6.2-2.6-12.5-4-18.7-4  c-8,0-15.8,2.2-23.2,6.4c-1.1,0.6-2,1.2-2.8,1.7c-2.6,1.6-4.3,2.7-7.5,2.7c-0.8,0-1.7-0.1-2.8-0.2c-1.6-0.2-2.9-0.8-4.1-1.4  c-1.4-0.7-2.7-1.3-4.4-1.3l-0.1,0c-6.6,0.1-14.7,5.9-14.9,13c-0.1,4.2,2.2,6.3,4.6,8.5c1.7,1.5,3.4,3.1,4.3,5.3  c0.6,1.3,1.2,9.2,1.4,13.3c0.7,12.3,0,12.7-0.7,13.1c-0.6,0.4-1.2,0.5-2,0.5c-3.6,0-8.9-4.6-16.2-14c-2.3-2.9-4.5-6.4-6.7-10.6  c-0.4-0.8-1-2.5-1.6-4.4c-0.7-2.2-2-6.3-2.6-6.9c-0.4-0.2-1-0.3-1.8-0.3c-1.2,0-2.7,0.2-4.2,0.5c-1.3,0.2-2.6,0.4-3.7,0.4  c-0.1,0-0.2,0-0.3,0c-3.8-0.2-8.3-1.1-12.4-2.6c-9.8-3.6-16.6-10.3-22.5-17.2c-8.8,8.1-16.2,13.9-28.3,15.2  c-0.8,0.1-1.6,0.1-2.4,0.1c-3.9,0-8-0.9-12.1-1.7c-3.8-0.8-7.4-1.6-10.6-1.6c-2.2,0-3.9,0.4-5.3,1.1c-1.5,0.8-3.6,2.2-6,3.9  c-6.3,4.4-14.2,9.9-20.6,9.9c-1.4,0-2.8-0.3-3.9-0.9c-4.4-2.2-3.6-5.9-2.9-9.2c0.3-1.5,0.7-3.1,0.6-4.6c-0.2-5.1-2.2-11.1-5.4-15.6  c-8.5-12-19.1-14.5-26.5-14.5c-15.4,0-31.8,11-38.3,25.6c-5.2,11.9-3.2,23.8,5.8,33.7c0.8,0.9,1.9,1.7,2.9,2.5  c2.7,2.1,5.7,4.5,4.1,9.1c-0.7,2.1-3.5,4.1-6.2,6c-1.1,0.8-2.2,1.6-2.9,2.2c-9.8,9.3-17.4,18.4-22.5,27c-6.5,11-11,22-13.2,32.7  l-0.3,1.4c-1.5,7.7-2.4,11-4.5,11c-1.5,0-2.5-1.8-3.4-6.6c-0.1-0.7-0.3-1.7-0.6-2.8c-1.7-7.6-3.2-15.4-2-18.8c1.2-3.5,2.1-4,4.1-4.9  c0.7-0.3,1.7-0.7,2.9-1.5c7.3-4.3,11.4-12.4,11.3-22.2c0-10.1-6-19.9-14.8-24.6c-1.5-0.8-2.7-1.2-3.7-1.6c-3.3-1.2-3.7-2.1-3.7-7.2  c0-2.3,0.5-4.5,0.9-6.5c0.7-3.3,1.4-6.3,0.4-10c-2.6-9.7-9.6-16.1-19.6-18.2c-1.1-0.2-2.2-0.3-3.3-0.3c-1.7,0-3.3,0.2-5,0.5  c-1.6,0.2-3.3,0.5-5,0.5c-0.8,0-1.4,0-1.9,0c-3,0-3.6-0.4-5.3-2.1c-0.7-0.7-1.6-1.6-3.1-2.8c-7.2-6-21-10.2-33.6-10.2  c-9.9,0-17.8,2.6-22.5,7.2c3.3,2.2,7,4.1,10.8,6c4.4,2.2,9,4.6,13.2,7.6c7.6,5.6,15.1,12.4,22.4,20.4c12.9,14.2,24.3,31.6,31.5,47.8  c6.2,14.2,16.7,37.9,13.2,54.4c-0.3,1.3-0.4,2.3-0.4,3.2c-0.2,1.6-0.3,3.4-2.3,3.4h0c-0.8,0-1.8-0.3-4-1.3c-2.4-1-4.4-3.5-6.1-5.7  c-0.7-0.9-1.3-1.7-1.9-2.3c-4.2-4.5-8.8-8.9-13.3-13.1c-2.7-2.6-5.5-5.2-8.2-7.9c-4.5-4.5-9.2-9-13.6-13.4c-3-2.9-6-5.9-9-8.8  c-1.4-1.4-3.3-3-5.4-4.8c-5.8-4.9-12.9-11-14.8-16.6c-1.4-4.2,0-9.8,1.4-15.3c1-4,1.9-7.7,1.8-10.7c-0.4-9.2-2.9-16.8-8.1-23.9  c-10.2-13.9-26.3-20.6-49.2-20.6l-0.4,0c-7.2,0-14,0.5-21.2,1c-1.8,0.1-3.7,0.3-5.5,0.4c-0.2,0-0.4,0-0.6,0c-1.4,0-3.3-0.2-5.3-0.5  c-2.3-0.3-4.6-0.6-6.4-0.6c-1.3,0-1.8,0.2-2,0.3c-1.8,0.9-1.7,1.6-1.2,4.1c0.2,1,0.4,2.1,0.5,3.3c0.3,6-0.2,13.4-0.7,21.2  c-1.6,25.7-3.6,57.7,19.5,69.1c6.8,3.4,17.2,4.5,24.1,4.5l0.7,0c2.9,0,6.3-1.4,9.6-2.8c3.5-1.4,6.8-2.8,9.8-2.8c0.5,0,0.9,0,1.4,0.1  c4.6,0.7,9.9,6.6,14.1,11.4c1.4,1.6,2.8,3.1,3.9,4.1c3.9,3.7,8,7.4,11.9,11c2.4,2.2,4.9,4.5,7.3,6.7c7.3,6.7,14,13.6,19.5,19.4  c1.4,1.5,3.5,3.3,5.8,5.2c5.4,4.6,11.5,9.7,13.1,14.5c0.8,2.5,0.7,4.5-0.3,5.9c-1.1,1.5-3.2,2.3-6.2,2.3c-7,0-17.6-3.9-22.7-5.8  l-1.1-0.4c-3.1-1.1-6.1-2.1-9.1-3c-6.3-2-12.2-3.9-18.3-7.1c-1.7-0.9-3.4-1.8-5-2.6c-5.7-2.9-11.1-5.7-16.4-9.3l-2.8-1.9  c-12.3-8.2-25-16.6-35.2-27.5c-5.7-6-10.2-12.3-14.9-19c-1-1.5-2.1-2.9-3.2-4.4c-1.4-1.9-3.4-4.7-4.4-4.7c-1.1,0-3,4.3-3.7,5.7  c-6.2,13.8-3.3,33.7,6.7,45.3c3.8,4.4,8.1,5.9,13,7.5c2.5,0.8,5,1.7,7.7,3c0.3,0.2,0.7,0.3,1,0.5c2.7,1.3,4.8,2.3,4.6,4  c-0.2,1.5-2.2,2.1-4.3,2.5c-0.5,0.1-1,0.1-1.6,0.1c-2.4,0-4.3-1-6-1.9c-1.2-0.6-2.2-1.2-3.1-1.2c-0.7,0-1.9,0.4-3.5,3.9  c-3,6.6,0,15.3,4.5,20.6c4,4.7,11,7.6,18.1,7.7l0.2,0c3,0,5.2-0.9,7.2-1.7c1.7-0.7,3.2-1.3,5-1.3c1.6,0,3.2,0.6,4.9,1.8  c2.5,1.8,4.2,3.8,5.8,5.9c2.4,2.9,4.6,5.7,9.3,7.3c3.5,1.2,6.9,1.8,10.1,1.8c3.2,0,6.1-0.6,8.7-1.8c2.8-1.3,4.9-4.2,6.9-7.1  c2.4-3.4,4.8-6.7,8.2-7.4c0.5-0.1,1.2-0.2,1.9-0.2c4,0,10.9,1.8,13.5,5.3c1,1.3,1.3,2.8,0.9,4.3c-0.8,3-8.1,5.6-17.6,8.6  c-2.2,0.7-4.2,1.4-5,1.7c-5,2.2-9.3,5.1-13.9,8.2c-8.1,5.5-14.7,11.9-21.9,19.2c-0.7,0.7-1.8,2.1-3,3.8c-4.5,5.9-8.2,10.5-11.5,10.5  c-0.1,0-0.2,0-0.3,0c-3.3-0.3-5.4-3.8-7.5-7.3c-1.1-1.8-2.1-3.6-3.2-4.5c-3.9-3.4-10.9-7.2-17-7.3c-0.3,0-0.6,0-0.9,0  c-16.8,0-29,13.8-33.2,26.6c-4.6,14-0.9,27.1,9.8,34.9c5.5,4,12.3,6,20.5,6c0.7,0,1.4,0,2.1,0c0.9,0,1.7-0.1,2.5-0.1  c2.7,0,4.7,0.3,5.9,1.8c1.5,1.8,1.3,4.9,0.4,10c-1.1,6-4.3,9.6-7.4,13.1c-2.1,2.3-4,4.5-5.4,7.3c-1.6,3.2-0.5,7,0.6,11.1  c0.8,2.9,1.6,5.9,1.6,8.9c0,8.6-1.8,17.9-4.9,25.6c-0.7,1.8-1.8,3.7-3,5.7c-2.2,3.7-4.7,8-4,11.1c0.3,1.3,2.8,3.6,4.6,5.3  c1.3,1.2,2.5,2.3,3.1,3.2c2.8,3.8,4.8,7.2,6.2,11c1,2.8,1.5,6.2,2,9.4c0.5,3.8,1.1,7.7,2.5,10.5c1.6,3.1,4.6,5,7.8,6.9  c2.5,1.5,5.2,3.1,7.2,5.5c0.6,0.7,1.3,1.5,2.2,2.5c3.8,4.1,9,9.8,9.7,13.8c0.5,2.7,0.1,4.7-1,6.1c-1.8,2.1-4.9,2.3-7.7,2.3  c-0.5,0-1,0-1.5,0c-0.4,0-0.8,0-1.2,0c-5.9,0-7.1-0.9-9.8-3.4c-0.8-0.8-1.8-1.7-3.2-2.8c-2.3-1.8-4.8-2.8-7.1-2.8  c-3.2,0-6.1,1.8-8.6,5.2c-1.5,2.1-2.8,5.4-2.4,7.9c0.1,0.8,1.2,1.9,2.1,2.9c1.2,1.3,2.4,2.6,2.3,4c-0.2,2.7-2.6,5-4.9,7.1  c-1.2,1.1-2.4,2.2-3.1,3.2c-4.2,6.3-6.8,15.6-6.6,23.7c0.4,12.8,6.6,28.3,19.8,33.9c1.5,0.6,2.8,1,3.8,1.3c1.6,0.5,2.8,0.8,3.3,1.9  c0.5,1.2,0.1,2.6-0.9,5c-0.4,0.9-1.7,2-3.8,3.7c-1.3,1-2.8,2.2-3.3,2.9c-1.9,2.6-3.4,6.2-4.5,10.8c-3.2,13.6-1.9,30.4,3.4,42.9  c3.5,8.2,5.6,13.8,5.9,23.7c0,0.7,0.1,1.5,0.1,2.2c0.2,3.5,0.3,7.2-1.1,10.8c-0.6,1.5-1.3,2.6-2.1,3.7c-0.7,1.1-1.4,2.1-1.8,3.4  c0.3,0,0.6,0,1,0c11.2,0,22-15.4,25.2-26c3.6-12,6.1-24.5,8.6-36.6c0.6-3.2,1.3-6.4,2-9.5c2.9-14,10.5-28.2,20.9-38.8  c11.4-11.7,25.4-18.2,39.3-18.2c1.7,0,3.4,0.1,5.1,0.3c0.8,0.1,1.5,0.2,2.2,0.2c1.6,0.2,2.7,0.3,3.7,0.3c2.2,0,3.5-0.7,7.3-4  c0.1-0.1,0.4-0.3,0.7-0.6c5.7-4.7,6.4-6.1,6.4-6.4c-0.4-2.1-5.8-5-9.3-6.9c-1.8-1-3.4-1.8-4.3-2.6c-0.7-0.6-1.7-1.2-2.8-2  c-9.5-6.8-27.1-19.5-22.5-27.9c1.1-2.1,2.6-3.4,4-4.7c2-1.8,3.7-3.4,4.5-7c0.4-2.1,0.6-4.7,0.3-7.4c-0.6-7-3.7-13.5-9.2-19.3  c-4.7-5-10.3-9.2-15.7-13.2c-5.8-4.3-11.7-8.8-16.7-14.3c-28-30.4-24.4-68.7-16.4-95.5c9.4-31.6,32.7-61.1,61-77.1  c18.5-10.5,37.9-15.8,57.4-15.8c13.7,0,27.7,2.6,41.7,7.7c30.5,11.1,57.6,38.5,69,69.6c11,30,0.8,63.5-26.7,87.6  c-13.8,12-29.8,18.7-45.2,18.7c-15.5,0-29.7-6.6-41.1-19.2c-13.4-14.7-16.4-31.4-15-41.3c1.4-9.7,7-26.2,19.1-26.2  c1.8,0,3.7,0.4,5.7,1.1c16.8,6.6,28.3,25.1,31.8,39.6c0.5,2,0.7,3.7,1,5.3c0.7,4.6,1,6,3.9,6c1,0,2.4-0.2,4-0.6  c6.8-1.7,11.3-4.1,14.2-11.1c1.6-3.8,2.5-9.5,1.2-13.8c-0.3-0.9-1.2-2.2-2.2-3.4c-1.5-2-2.9-3.9-2.8-5.6c0.1-2.8,3.5-5,6.8-7.1  c1.7-1.1,3.3-2.1,4.1-3c8.7-9.9,7.7-24.7,1.2-31.8c-3.2-3.5-6.3-4.2-10.1-4.2c-0.8,0-1.7,0-2.5,0.1c-0.9,0-1.8,0.1-2.7,0.1  c-2.1,0-3.8-0.2-5.4-0.6c-6.2-1.5-6.5-3.8-6.4-8.1c0-1.5,0-3.2-0.3-5.3c-1.6-11.3-10.6-18.8-22.5-18.8c-2.5,0-5.1,0.3-7.6,1  c-6.1,1.6-12,7.2-14.9,13.8c-0.6,1.4-2.6,6.4-1.9,9.8c0.1,0.7,1.2,2.2,2.1,3.4c1.9,2.6,3,4.2,2.5,5.5c-1.2,3.1-6.4,4.7-11.5,6.1  c-2.6,0.8-5.1,1.5-6.3,2.3c-6.3,4-11.7,10.4-15,17.6c-13.2,29.3,3.2,65.5,26.7,83.6c13.9,10.7,30.2,16.3,47.2,16.3  c14.1,0,28.5-3.9,41.6-11.4c12.3-7,23.2-17.2,32.4-30.3c1-1.4,1.9-3.2,2.9-5.2c2.5-5,5.3-10.7,10.2-11.9c1.3-0.3,4-0.4,6.2-0.4  c3.7,0,8.5,0.3,9.8,1.5c9.6,8.6-15.3,41.9-15.6,42.2c-1,1.3-2,2.4-2.9,3.4c-3.5,3.9-4.7,5.2-0.6,9c3.8,3.5,12,4.2,17.3,4.6l1.3,0.1  c2.2,0.2,4.3,0.3,6.4,0.3c6.4,0,12.4-0.9,18.2-2.9c0.6-0.2,1.2-0.4,1.8-0.6c6.4-2.1,8.6-2.8,7.3-8.7c-0.4-1.7-0.8-3.1-1.3-4.4  c-1.2-3.6-2.2-6.4,0.6-12c3-5.9,9.3-10.1,15.3-10.1c0.8,0,1.6,0.1,2.4,0.2c6,1.1,11.4,7.5,12.6,12.8c1,4.6,0.5,6.3-1.5,10.4  c-0.3,0.6-0.9,1.5-2,2.8c-0.9,1.2-2.6,3.4-2.7,4c0.4,10.7,25.1,14.4,39.7,15c0.7,0,1.4,0.1,2.1,0.1c1.8,0.1,3.7,0.2,5.6,0.2  c5.3,0,11.8-0.6,15.1-5.1c2.1-3,2.1-8.9,2.1-13.3c0-1,0-1.9,0-2.6c0.2-10.1-0.1-25-6-37.2c-1.9-3.9-3.4-5.9-4.6-5.9  c-1,0-2.3,1.2-3.7,2.7c-1.6,1.6-3.7,3.5-6.4,5c-2.1,1.1-4.4,1.7-6.7,1.7c-3.8,0-7.8-1.6-11.8-4.7c-6.1-4.7-8.6-12.4-6.3-19.2  c2.1-6.3,7.9-10.2,15.4-10.2l0.1,0c2.9,0,5.1,0.9,7,1.7c1.4,0.6,2.6,1.1,3.9,1.1c0.9,0,1.7-0.2,2.6-0.8c1.3-0.7,3.3-3.7,4.5-5.4  c0.2-0.3,0.4-0.6,0.6-0.9c3.9-5.6,5.8-10.9,6.3-17.8c0.4-5.8-1.3-22.5-6.6-28.2c-1.2-1.3-2.4-1.9-3.7-1.9c-0.9,0-1.9,0.3-2.9,0.9  c-2.5,1.4-4.8,4.1-7.3,7c-2.5,3-5.1,6-8.2,8c-5.9,3.7-13,6.3-21.6,7.8l-1.1,0.2c-2.2,0.4-4.5,0.8-6.6,0.8c-3.8,0-6.4-1.4-7.9-4.2  c-3.4-6.1,0.7-15.2,4.9-18.6c3.1-2.5,6.9-4.3,10.5-6.1c3.4-1.7,6.9-3.4,9.9-5.7c4.1-3.1,10.2-7.9,14.9-13.5  c10.2-12.1,18.1-27.9,20.7-41.4c5.6-29.3-5.7-61-28.2-78.9c-12.5-10-28.9-15.7-44.8-15.7c-17.4,0-32.6,6.8-42.9,19  c-1.6,1.9-2.8,4.2-4,6.3c-2.4,4.5-4.9,9.1-10.7,9.2c-0.2,0-0.5,0-0.7,0c-2.1,0-3.8-0.2-5.3-0.4c-1.2-0.2-2.2-0.3-3.3-0.3  c-2.2,0-4.3,0.6-7.8,3.6c-9.6,8.2-14.2,24-5.2,35c4.9,6,8.9,8,17.2,8.7l1.3,0.1c7.2,0.6,7.7,1.1,7.5,7.5c0,0.7,0,1.6,0,2.5  c0,13.4,6,20.4,18.5,21.5c0.7,0.1,1.4,0.1,2.2,0.1c5.7,0,11.1-1.9,14.8-5.3c0.7-0.6,1.4-1.7,2.1-2.9c1.3-2.1,2.7-4.2,4.5-4.9  c0.7-0.3,1.3-0.4,1.9-0.4c1.8,0,2.8,1,3.8,1.9c0.7,0.7,1.4,1.3,2.3,1.4c1.3,0.2,2.6,0.3,3.9,0.3c11.1,0,21.3-7.8,24.8-19.1l0.2-0.6  c0.8-2.6,2.2-7.1,0.9-9.5c-0.3-0.6-1.2-2.2-1.6-2.6c-0.1,0-0.1,0-0.2,0.1c-0.5,0.2-1.2,0.4-2.2,0.4c-0.6,0-1.2-0.1-1.8-0.2  c-2.4-0.5-4.8-0.8-7.2-1.1c-4.1-0.5-8.4-1.1-12.6-2.6c-9.6-3.4-35.9-18.5-31.3-34.4c3.7-12.8,14.5-19.8,30.3-19.8  c16.7,0,35.8,8,44.4,18.7c21.9,27.1,22.8,63.3,2.1,88.2c-15.5,18.7-39.6,29.8-64.4,29.8c-7.2,0-14.4-0.9-21.3-2.8  c-30.6-8.1-60.9-35.8-73.8-67.4c-13.1-32.2-12.6-62,1.6-91.3c15.3-31.5,48.2-53.5,74-63.6c16.3-6.4,34.8-9.9,52.1-9.9  c18.6,0,35.3,4.1,48.1,11.9c14.2,8.6,24.2,19.8,34.8,33.9c7.4,9.9,15.4,14.9,23.7,14.9c2.1,0,4.4-0.3,6.6-1c3.2-0.9,5.9-2.3,7.9-4.2  c0.5-0.4,1.2-1.7,1.8-2.8c1.4-2.4,2.3-3.9,3.5-4.3c0.7-0.2,1.4-0.3,2.1-0.3c5.2,0,11,6.1,14.5,9.7l0.9,0.9  c4.2,4.3,7.8,9.6,10.9,16.1c1.7,3.4,2.7,7.3,3.7,11c1.1,4.1,2.1,7.9,3.9,11.2c6.1-7.8,7.6-11.2,7.3-21.9c-0.2-8.6,1.8-17.9,5.9-27.9  c5.9-14.3,19.3-28.2,35-36.3c17.6-9.1,35.6-13.4,54.7-18c4.2-1,14.7-3.9,23.5-9.8c7.9-5.3,12.1-11.4,12.4-18.2  C835.9,193.7,827.9,195.6,819.6,195.6z M436,183.3c8.2-5.8,19-4.5,24.3,2.9s2.8,18-5.4,23.8s-19,4.5-24.3-2.9  C425.5,199.8,427.9,189.1,436,183.3z M308.6,312c-10.5-10.2-21.3-20.7-32.4-30.6c-6-5.3-11.6-11-18.3-17.8c-0.9-0.9-1.7-1.9-2.7-3.1  c-2-2.4-4.2-5.2-6.6-6.2c-0.5-0.2-0.9-0.4-1.3-0.6c-0.9-0.4-1.4-0.7-1.7-0.7c-0.1,0-0.4,0.1-0.7,0.1c-0.5,0.1-1.3,0.3-2.7,0.5  c-1.9,0.3-3.8,0.7-5.7,1.1c-3.1,0.7-6.1,1.3-9.2,1.3c-3.6,0-6.8-0.8-10-2.6c-7.2-4-13.3-10.9-15.5-17.8c-2.5-7.6-1.9-14.9,1.7-21.1  c4.2-7.2,12.1-12.3,21.7-14.2l0.1,0l0.1,0c0.3,0,0.6,0,0.9,0c9.4,0,18.8,5.1,24.6,13.2c6.1,8.7,4.4,16.3,2.5,24.4  c-0.4,1.8-0.8,3.6-1.2,5.5c-1.2,6.3,3.9,10.6,9.3,15.2c1.5,1.3,3.1,2.7,4.6,4.1l3,2.9c8.1,8,16.5,16.2,24.8,24.2l3,2.9  c15.3,14.8,31.2,30.2,46.7,45.4c2.5,2.5,5.1,5.1,7.6,7.7c5.3,5.5,10.8,11.1,16.6,15.9c1.8,1.5,4.8,2.3,7.7,3c3.8,1,7.4,1.9,9.1,4.5  c1.8,2.7,1.8,6.4,0.1,9.7c-1.8,3.3-4.9,5.4-8.1,5.4c0,0,0,0,0,0c-0.4,0-0.8,0-1.2-0.1c-6.5-1-6.7-6-6.8-9.9c-0.1-2.1-0.2-4-1-5.5  c-2.5-4.7-8.7-9.6-14.2-14c-2.9-2.3-5.6-4.4-7.7-6.4c-3.4-3.3-6.9-6.8-10.1-10.2c-3.9-3.9-7.8-8-11.9-11.9  C318.6,321.7,313.5,316.8,308.6,312z M194.6,461.5c-9,0-16.4-8.1-16.4-18.1s7.3-18.1,16.4-18.1s16.4,8.1,16.4,18.1  S203.7,461.5,194.6,461.5z M241.7,693.2c0.1,6-2,11.3-6,15.4c-4.4,4.5-11,7.2-17.6,7.2h0c-8.9,0-19.8-5.2-20.9-19.7  c-0.5-7,1.4-13.1,5.5-17.7c4.4-4.7,11-7.5,18.1-7.5c7,0,13.2,2.6,17,7.1C241.3,682,242.6,687.2,241.7,693.2z M658.7,274.1  c-2.6,4.5-5.9,6.8-9.8,6.8c-8.9,0-18.3-12.3-24.5-20.5c-1.3-1.7-2.3-3.1-3.2-4.1c-20-23.7-45.7-36.3-74.4-36.3  c-3.5,0-7,0.2-10.5,0.5c-1.5,0.1-2.9,0.3-4.4,0.4c-15.7,1.5-30.5,3-45.1,9.3c-12.9,5.6-26.2,13.3-39.5,23  c-25.2,18.4-42.2,46.5-46.5,77.1c-4,28.2,2.8,58.7,17.5,79.7c13.1,18.6,30,35,46.3,50.9c5.1,4.9,10.3,10,15.3,15.1  c1.6,1.6,2.9,3.3,4.1,4.7c3,3.7,5.2,6.4,9.7,6.4c0.5,0,1,0,1.5-0.1c1.7-0.2,3.4-0.6,5-1c2.2-0.5,4.4-1.1,6.7-1.1  c2.2,0,4.2,0.5,6.2,1.5c4.6,2.4,7.9,6.7,9.1,12c1.5,6.2,0.1,13.2-3.5,18.4c-3.9,5.5-9.6,8.6-15.6,8.6c-7.1,0-13.7-4.4-17.2-11.4  c-3.2-6.3-2-10.5-0.3-16.4l0.3-0.9c0.2-0.9,0.5-1.6,0.7-2.3c1-3.5,1-3.5-1.5-6.1c-0.4-0.4-0.9-0.9-1.4-1.4l-3.8-4  c-36.7-38.7-78.3-82.5-134.7-82.5c-4.4,0-8.9,0.3-13.3,0.8c-57.8,6.8-107.2,57.7-115,118.4c-4.2,32.5,4.5,58,27.3,80.5  c2.8,2.7,6,5.5,9.5,8.4c8.6,7.3,17.5,14.8,21.6,24.1c2.2,5.1,1.7,12-1.4,16.6c-2.1,3.3-5.3,5.1-8.8,5.1c-1.9,0-3.8-0.5-5.8-1.5  c-5.7-2.8-8.2-7.4-7-12.8c1.2-5.2,5.8-9.5,10.1-9.5c1.9,0,3.7,0.9,5,2.5c0.9,1.1,1.2,2.2,0.8,3.1c-0.8,1.7-3.6,1.9-6.3,2.1  c-1,0.1-2.5,0.1-2.8,0.3c-1.1,1.1-1.4,2.4-0.9,4c0.8,2.5,3.5,4.9,5.8,5.2c0.4,0.1,0.8,0.1,1.2,0.1c2,0,3.5-0.7,4.5-2.2  c1.7-2.3,1.9-6.3,0.7-9.9c-1.8-5.4-6.3-9.5-10.7-13.4c-1-0.9-2.1-1.9-3-2.8c-2.7-2.6-5.6-5.1-8.4-7.6c-6.5-5.6-13.1-11.5-18.5-18.5  c-18.7-24.6-24.6-54.4-17-86.2c6.6-28.1,23.1-55.5,46.4-77.2c21-19.6,47-31.3,77.3-34.8c2.8-0.3,5.7-0.5,8.6-0.5  c12.2,0,23.8,2.8,34.6,5.8c7.3,2,14,5.9,20.5,9.7c6.2,3.6,12.1,7,18.4,8.9c-0.5-1.9-2.6-4.1-4.4-5.9c-1.2-1.2-2.2-2.3-2.8-3.3  c-2.4-3.9-4.2-8.2-6-12.4c-0.4-1-0.8-1.9-1.2-2.9c-4.8-10.9-7.5-21.8-8.5-33.4c-1.4-16.9-2.1-38.9,5.9-58.2  c13.7-33.3,45.9-62.8,86.2-79c16.3-6.6,35.6-10.2,54.1-10.2c21.3,0,40.4,4.7,55,13.5c11.8,7.1,19.2,16.4,27.1,26.2  c4.2,5.2,8.5,10.6,13.6,15.6c2.7,2.7,7.6,5.4,11.6,5.4c2.9,0,5-1.4,6.2-4.2c0.7-1.6,1.3-3.8,0.4-5.3c-0.8-1.3-2.7-2-5.3-2  c-2.9,0-6.1,0.9-8.2,2.4l-1.8,1.3v-2.2c0-6.4,4.1-8.7,8-8.7c4.2,0,8.7,2.6,10.8,6.3C661.4,265.7,661.2,270,658.7,274.1z   M696.2,247.3l-0.3,0c-0.9,0.1-1.7,0.2-2.6,0.2c-12.7,0-18.5-11.8-18.5-22.7c0-6.7,2.1-13.2,5.7-17.9c4.2-5.5,10.3-8.4,17.5-8.4  c0.2,0,0.4,0,0.6,0c15.1,0.3,21.7,11.6,21.6,22.7C720,238.2,707.7,247.3,696.2,247.3z"/><text x="0" y="1015" fill="#000000" font-size="5px" font-weight="bold" font-family="'Helvetica Neue', Helvetica, Arial-Unicode, Arial, Sans-serif">Created by Alvaro Cabrera</text><text x="0" y="1020" fill="#000000" font-size="5px" font-weight="bold" font-family="'Helvetica Neue', Helvetica, Arial-Unicode, Arial, Sans-serif">from the Noun Project</text></svg>