<svg xmlns="http://www.w3.org/2000/svg" version="1.1" viewBox="-5.0 -10.0 110.0 135.0">
 <path d="m14.648 18.621c1.6484 1.1797 2.2305 3.8906 2.1992 5.7812-0.050781 3.1602-2.8789 9.1914-5.9492 10.871-0.80859 1 0.66016 1.6992 1.3516 2.6211 0.60938 0.80078 1.2812 1.8906 1.6719 2.8203 0.75 1.7891 1.0586 3.9805 1.0703 5.8906 0.019531 2.7188 0.32031 13.98-0.058594 16.75-0.23828 1.7188-1.1406 3.1797-1.8984 4.6211-1.0117 1.9297 0.71094 1.9102 1.6016 0.23047 1.0898-2.0703 1.5-3.4219 1.5781-5.7812 0.089844-2.3984 0.89062-17.672-0.35938-20.32-0.69922-1.4805-1.2695-3.0391-2.1289-4.4219-0.87109-1.3984-0.92969-1.3711 0.03125-2.5898 0.55859-0.71094 1.1602-1.3594 1.6914-2.1094 2.1484-3.0391 3.4688-7.0703 3.1211-10.859-0.37891-4.0586-4.1016-8.1484-8.4297-6.4219-4.2383 1.6992-2.8008 7.0391-1.0117 9.9492 0.92188 1.4883 2.0508 3.1719 2.2305 4.9609 0.10156 0.94141 0.03125 2.1992-0.82031 2.7891-0.12891 0.089844-1.8594 0.73047-1.7617-0.011719 0.050781-0.37891 2.2383-0.85156 0.85156-1.5703-0.76172-0.39062-1.8203 0.14063-1.9883 1.1602-0.25 1.4688 0.64062 1.7812 1.6484 1.9219 0.92969 0.12109 1.8711-0.14844 2.5781-0.76172 0.19141-0.16016 0.35156-0.30859 0.44922-0.44922 0.42969-0.60156 0.71875-1.4219 0.96094-2.1094 0.33984-0.98828 0.69141-3.5781-0.14062-5.1484-0.12109-0.23828-0.85156-1.6094-0.55859-1.8594 0.26172-0.23047 2.3984 1.8008 3.3906 1.0898 0.82812-0.58984 0.64062-2.0586-0.019531-2.5781-1.3516-1.0586-3.6797-0.62891-4.6602-2.4805-1.3008-2.4258 1.7617-3.1367 3.3594-1.9844z"/>
 <path d="m16.43 71.891c-0.32813 0.51953-0.16016 3.0781 0.69141 3.1211 0.44141 0.019531 0.76172-1.6094 0.73828-1.8086 0.19922-1.2031-0.62109-2.5938-1.4297-1.3125z"/>
 <path d="m12.871 12.922c-0.37891 0.37891-0.28125 1.0898 0.21875 1.5898s1.2109 0.60156 1.5898 0.21875c0.37891-0.37891 0.28125-1.0898-0.21875-1.5898s-1.2109-0.60156-1.5898-0.21875z"/>
 <path d="m19.531 49.77c0.058594-3.6406-0.10156-7.4492 0.82031-10.988 0.64844-2.5 1.4883-5.0117 2.8516-7.2305 0.53906-0.87891 2.2617-2.3398 1.7695-3.3398-0.75-1.5391-1.7383 0.48047-2.1406 1.1094-1.4297 2.2617-2.2812 4.5312-3.1914 7.0195-2.3398 6.4609-2.0898 17.371-2.1797 22.41-0.03125 1.9414-0.23047 4.5703 0.35156 6.4219 0.17188 0.55859 2.8711 4.8984 3.2305 4.5117 1.1094-1.2109-0.66016-2.8008-1.2109-4.0508-0.82031-1.8594-0.51953-3.8516-0.48047-5.8516 0.058594-3.3711 0.11719-6.6406 0.17969-10.012z"/>
 <path d="m17.051 92.59c-1.0312-0.25-1.1406 1.0117-0.16016 1.1484 0.64844-0.089843 0.87891-0.97656 0.16016-1.1484z"/>
 <path d="m10.52 14.629c2.6016 0.050782 0.050781-3.1211 0.48828-3.5703 0.44141-0.44141 3.6094 2.1094 3.5703-0.48828-0.019531-1.1094-0.89062-1.5-1.0312-1.6094-0.96094-0.75-4.4805-0.78906-4.9609-0.30859-0.48047 0.48047-0.44141 4 0.30859 4.9609 0.125 0.125 0.51562 0.99609 1.625 1.0156z"/>
 <path d="m22.059 18.602c3.7891 0.35156 7.8203-0.96875 10.859-3.1211 0.75-0.53125 1.3984-1.1289 2.1094-1.6914 1.2188-0.96094 1.1914-0.89062 2.5898-0.03125 1.3906 0.85156 2.9414 1.4297 4.4219 2.1289 2.6484 1.2617 17.922 0.44922 20.32 0.35938 2.3594-0.089844 3.7188-0.5 5.7812-1.5781 1.6797-0.87891 1.6992-2.6094-0.23047-1.6016-1.4414 0.76172-2.8984 1.6602-4.6211 1.8984-2.7695 0.37891-14.031 0.078125-16.75 0.058594-1.9219-0.011719-4.1094-0.32031-5.8906-1.0703-0.92969-0.39062-2.0195-1.0586-2.8203-1.6719-0.91016-0.69141-1.6094-2.1602-2.6211-1.3516-1.6914 3.0703-7.7188 5.9102-10.871 5.9492-1.8906 0.03125-4.6016-0.55078-5.7812-2.1992-1.1484-1.6016-0.44141-4.6602 1.9609-3.3906 1.8516 0.98047 1.4219 3.3008 2.4805 4.6602 0.51953 0.67188 2 0.85156 2.5781 0.019531 0.69922-0.98828-1.3203-3.1289-1.0898-3.3906 0.25-0.28906 1.6211 0.44141 1.8594 0.55859 1.5781 0.82812 4.1602 0.48047 5.1484 0.14062 0.69141-0.23828 1.5195-0.53125 2.1094-0.96094 0.14063-0.10156 0.28906-0.26172 0.44922-0.44922 0.60938-0.71094 0.89062-1.6484 0.76172-2.5781-0.12891-1.0117-0.44922-1.8984-1.9219-1.6484-1.0312 0.17188-1.5586 1.2383-1.1602 1.9883 0.73047 1.3906 1.1914-0.78906 1.5703-0.85156 0.73828-0.10156 0.10156 1.6289 0.011719 1.7617-0.58984 0.85156-1.8398 0.92188-2.7891 0.82031-1.7891-0.17969-3.4688-1.3086-4.9609-2.2305-2.8984-1.8008-8.25-3.2305-9.9492 1.0117-1.7031 4.3477 2.3867 8.0781 6.4453 8.4609z"/>
 <path d="m19.809 19.859c-0.55078 0.55078-0.55078 1.4297 0 1.9805 0.55078 0.55078 1.4297 0.55078 1.9805 0 0.55078-0.55078 0.55078-1.4297 0-1.9805-0.55078-0.55078-1.4375-0.55078-1.9805 0z"/>
 <path d="m31.77 27.551c-2.0117-0.070312-3.9883-1.8516-4.8984-3.4688-0.73828-1.3203-0.78125-4.7188-2.2812-5-2.2188-0.39844-0.73828 2.6289-0.26172 3.6484 0.78906 1.6914 2.2305 3.3008 3.6797 4.4414 1.4492 1.1406 4.2109 2.2812 5.9609 1.0898 2.0898-1.4219 0.73047-4.2109-1.5195-4.1719-0.85938 0.039062-5.2891 2.1602-1.9297 2.3086 0.73828 0.03125 1.8398-1.1797 2.6797-0.53125 1.1992 0.92187-0.51953 1.7109-1.4297 1.6836z"/>
 <path d="m79.289 14.578c-1.9883-0.26953-3.7812-0.66016-5.6484-1.3789-0.98828-0.37891-1.9219-0.82812-2.7812-1.4688-0.53906-0.39844-1.3594-1.5703-1.5586-0.32812-0.26953 1.6211 3.4805 3.8203 4.6484 4.3281 1.8789 0.82812 4.1289 1.1211 6.1719 1.0781 0 0.03125 2.4805-0.16016 2.7305 0.35156 0.12891 0.25-3.4297 0.46094-3.8086 0.46875-1.9414 0.058594-3.2188 0.17188-5.0508 0.96875-1.0586 0.46094-1.9609 1.0195-2.8281 1.7812-0.39844 0.35156-2.9414 2.8906-2 3.5195-0.039062-0.03125 4.5195-2.8594 5.1406-3.0781 1.8086-0.64062 3.7188-0.85156 5.5898-1.2305 1.5898-0.32812 5.2812-0.5 4.5703-2.9609-0.55469-1.918-3.5742-1.8281-5.1758-2.0508z"/>
 <path d="m17.07 85.641c-1.3594-0.26172-3.3281 3.3594-2.3711 3.4219 2.1484-0.62891 0.53906 2.0586 2.1602 2.1289 1.0586 0.050782 0.64844-1.7305 0.98047-2.0781 0.39062-0.41016 0.91016 0.14844 1.1406-0.089843 0.58984-0.63281-0.89062-3.1836-1.9102-3.3828z"/>
 <path d="m73.141 17.91c0.19922 0.019532 1.8281-0.30078 1.8086-0.73828-0.03125-0.85156-2.6016-1.0117-3.1211-0.69141-1.2695 0.80859 0.11328 1.6289 1.3125 1.4297z"/>
 <path d="m92.539 17.102c0.17969 0.71875 1.0703 0.48828 1.1484-0.16016-0.13672-0.98047-1.3984-0.87109-1.1484 0.16016z"/>
 <path d="m89.012 14.75c-0.070313-0.94922-3.6797 1.0195-3.4219 2.3711 0.19922 1.0312 2.75 2.5 3.3789 1.8984 0.25-0.23047-0.32031-0.75 0.089844-1.1406 0.35156-0.32812 2.1289 0.078125 2.0781-0.98047-0.066407-1.6094-2.7461 0-2.125-2.1484z"/>
 <path d="m22.68 24.379c-1.0195-0.46875-4.0586-1.9492-3.6484 0.26172 0.26953 1.5 3.6797 1.5391 5 2.2812 1.6211 0.91016 3.3984 2.8906 3.4688 4.8984 0.03125 0.91016-0.76172 2.6211-1.6797 1.4297-0.64844-0.85156 0.55859-1.9414 0.53125-2.6797-0.14844-3.3594-2.2617 1.0703-2.3086 1.9297-0.039063 2.25 2.75 3.6094 4.1719 1.5195 1.1914-1.75 0.050781-4.5117-1.0898-5.9609-1.1445-1.4492-2.7539-2.8984-4.4453-3.6797z"/>
 <path d="m20.328 71.211c-0.76172 0.87109-1.3203 1.7617-1.7812 2.8281-0.80078 1.8281-0.91016 3.1016-0.96875 5.0508-0.011719 0.37109-0.21875 3.9297-0.46875 3.8086-0.51172-0.26172-0.32031-2.7305-0.35156-2.7305 0.039063-2.0312-0.25-4.2891-1.0781-6.1719-0.51953-1.1719-2.7188-4.9219-4.3281-4.6484-1.2383 0.21094-0.070312 1.0195 0.32813 1.5586 0.64062 0.85938 1.0898 1.8008 1.4688 2.7812 0.73047 1.8789 1.1094 3.6719 1.3789 5.6484 0.21875 1.6016 0.12891 4.6211 2.0508 5.1797 2.4609 0.69922 2.6289-2.9805 2.9609-4.5703 0.37891-1.8594 0.58984-3.7695 1.2305-5.5898 0.21875-0.62891 3.0508-5.1797 3.0781-5.1406-0.62891-0.94531-3.168 1.6055-3.5195 1.9961z"/>
 <path d="m65.121 17.859c-1.8516-0.57031-4.4805-0.37891-6.4219-0.35156-5.0508 0.089844-15.961-0.16016-22.422 2.1797-2.4883 0.89844-4.7617 1.75-7.0195 3.1914-0.62891 0.39844-2.6484 1.3906-1.1094 2.1406 1.0117 0.48828 2.4688-1.2305 3.3398-1.7695 2.2188-1.3711 4.7305-2.1992 7.2305-2.8516 3.5391-0.92188 7.3516-0.76172 10.988-0.82031 3.3711-0.050781 6.6406-0.12109 10.012-0.19141 2-0.039063 3.9883-0.33984 5.8516 0.48047 1.25 0.55078 2.8398 2.3281 4.0508 1.2109 0.39844-0.34766-3.9414-3.0469-4.5-3.2188z"/>
 <path d="m34.75 30.41c-1.25-0.35156-4.4414-1.2891-5.9297-1.5312 0.25 1.4883 1.1797 4.6797 1.5312 5.9297 0.21094 0.73047 5.2188 1.9492 5.8906 1.4883 0.45703-0.67578-0.75391-5.6875-1.4922-5.8867zm0.39062 4.7812c-0.48047 0.32031-3.9805-0.53125-4.1289-1.0508-0.25-0.87109-0.89844-3.1094-1.0703-4.1602 1.0391 0.17188 3.2812 0.82812 4.1602 1.0703 0.5 0.14844 1.3477 3.6602 1.0391 4.1406z"/>
<text x="0.0" y="117.5" font-size="5.0" font-weight="bold" font-family="Arbeit Regular, Helvetica, Arial-Unicode, Arial, Sans-serif" fill="#000000">Created by Alvaro Cabrera</text><text x="0.0" y="122.5" font-size="5.0" font-weight="bold" font-family="Arbeit Regular, Helvetica, Arial-Unicode, Arial, Sans-serif" fill="#000000">from Noun Project</text></svg>