<svg xmlns="http://www.w3.org/2000/svg" xmlns:xlink="http://www.w3.org/1999/xlink" version="1.1" x="0px" y="0px" viewBox="0 0 81.784 99.14625" style="enable-background:new 0 0 81.784 79.317;" xml:space="preserve"><path d="M19.778,29.138c-1.371-3.949-2.789-8.033-3.381-12.118c-0.218-1.501-0.313-3.029-0.281-4.541  c0.007-0.382-0.165-0.542-0.311-0.608c-0.407-0.186-1.083,0.15-1.347,0.39c-0.744,0.677-1.038,1.649-1.154,2.345  c-0.324,1.961-0.186,4.079-0.054,6.126c0.038,0.579,0.074,1.152,0.1,1.711c0.127,2.725,0.288,5.493,0.444,8.17l0.65,11.22  c0.038,0.649,0.089,1.307,0.14,1.968c0.176,2.272,0.358,4.62,0.004,6.847c-0.442,2.775-1.913,4.853-3.935,5.559  c-1.128,0.393-2.28,0.262-3.166-0.357c-0.82-0.574-1.392-1.63-0.819-2.696c0.235-0.437,0.598-0.76,0.996-0.887  c0.373-0.119,0.751-0.02,1.152,0.085c0.246,0.064,0.5,0.131,0.756,0.145c0.989,0.057,1.957-0.515,2.518-1.488  c0.49-0.848,0.587-1.772,0.282-2.672c-0.381-1.123-1.35-2.101-2.592-2.618c-3.727-1.547-7.489,1.065-8.977,4.484  c-0.791,1.819-1.007,3.787-0.61,5.541c0.41,1.804,1.584,3.471,3.306,4.692c1.752,1.243,3.996,1.878,6.306,1.878  c1.796,0,3.634-0.384,5.31-1.164c3.747-1.742,6.663-5.765,7.802-10.76C24.598,43.022,22.148,35.964,19.778,29.138z M10.773,50.24  c-0.111,0.194-0.422,0.655-0.924,0.735c-0.309,0.05-0.63-0.039-0.97-0.132c-0.279-0.077-0.568-0.156-0.862-0.156  c-0.003,0-0.006,0-0.009,0c-0.971,0.006-1.869,0.513-2.462,1.39c-0.652,0.963-0.814,2.182-0.423,3.182  c0.894,2.279,3.554,3.079,5.61,2.535c2.022-0.535,3.783-2.195,4.71-4.442c1.069-2.589,0.898-5.477,0.747-8.026  c-0.122-2.066-0.246-4.132-0.37-6.198l-0.184-3.076c-0.246-4.132-0.477-7.797-0.706-11.202c-0.054-0.803-0.131-1.633-0.206-2.436  c-0.093-1-0.19-2.034-0.243-3.042c-0.058-1.092-0.063-1.997-0.015-2.847c0.007-0.125,0.012-0.276,0.017-0.441  c0.018-0.648,0.044-1.593,0.297-2.079c0.099,0.251,0.077,0.64,0.058,0.992c-0.012,0.206-0.023,0.4-0.009,0.558  c0.059,0.659,0.142,1.338,0.246,2.017c0.197,1.29,0.474,2.626,0.847,4.083c0.654,2.554,1.489,5.026,2.432,7.761l0.103,0.298  c1.819,5.272,3.7,10.724,3.504,16.358c-0.174,5.037-2.052,9.472-5.151,12.168c-2.98,2.592-7.372,3.31-10.93,1.786  c-1.843-0.789-3.269-2.152-3.914-3.738c-0.601-1.479-0.579-3.261,0.063-5.019c0.606-1.662,1.741-3.058,3.114-3.828  c0.753-0.422,1.584-0.63,2.39-0.63c1.003,0,1.965,0.322,2.685,0.952C10.852,48.316,11.33,49.257,10.773,50.24z M16.773,64.582  c-1.551,1.119-3.371,1.8-5.261,1.969c-1.73,0.155-3.391-0.126-5.563-0.939c-0.463-0.171-0.862,0.066-1.017,0.392  c-0.142,0.297-0.097,0.707,0.322,0.955c0.298,0.176,1.755,1.235,1.152,4.783c-0.44,2.584-1.038,4.63-1.881,6.439  c-0.218,0.467-0.007,0.852,0.298,1.025c0.123,0.07,0.268,0.109,0.417,0.109c0.252,0,0.514-0.114,0.698-0.385  c2.083-3.063,6.277-3.998,9.546-2.132c0.303,0.173,0.627,0.143,0.865-0.083c0.279-0.263,0.358-0.703,0.188-1.046  c-1.559-3.138-1.037-7.204,1.269-9.889c0.305-0.355,0.209-0.819-0.044-1.095C17.535,64.443,17.142,64.316,16.773,64.582z   M7.892,67.945c1.169,0.247,2.447,0.317,3.704,0.204c1.156-0.104,2.291-0.37,3.377-0.791c-1,2.29-1.182,4.848-0.513,7.261  c-2.417-0.744-5.089-0.386-7.257,0.97c0.421-1.424,0.697-2.861,0.822-4.276C8.12,70.235,8.174,69.006,7.892,67.945z M14.384,11.364  c0.209,0,0.42-0.02,0.633-0.062c1.517-0.299,2.693-1.634,2.736-3.104c0.023-0.839-0.309-1.691-0.912-2.337  c-0.233-0.25-0.497-0.46-0.785-0.624c-1.099-0.627-2.612-0.522-3.68,0.254c-0.044,0.032-0.087,0.065-0.129,0.098  c-1.104,0.889-1.418,2.447-0.781,3.876C11.989,10.641,13.136,11.364,14.384,11.364z M14.302,6.14c0.111,0,0.22,0.014,0.327,0.046  c0.337,0.097,0.695,0.299,0.956,0.541c0.365,0.338,0.572,0.714,0.653,1.181c0.127,0.73-0.441,1.581-1.238,1.859  c-0.483,0.169-0.822,0.175-1.251,0.024c-0.277-0.098-0.623-0.39-0.822-0.695c-0.443-0.675-0.479-1.477-0.097-2.093  C13.116,6.544,13.717,6.14,14.302,6.14z M13.416,3.645c0.316,0.21,0.693,0.321,1.076,0.321c0.135,0,0.271-0.014,0.406-0.042  c0.563-0.117,0.954-0.509,1.183-0.817c0.571-0.771,0.484-1.863-0.202-2.54c-0.054-0.053-0.11-0.102-0.171-0.15  c-0.454-0.355-1.086-0.494-1.688-0.376c-0.579,0.114-1.065,0.451-1.336,0.924C12.166,1.87,12.481,3.022,13.416,3.645z M15.159,1.843  c-0.082,0.016-0.116,0.082-0.1,0.198l0.051,0.37c-0.039,0.063-0.089,0.119-0.148,0.171l-0.244-0.038  c-0.07-0.01-0.144,0.022-0.177,0.075L14.42,2.818c-0.238,0.01-0.463-0.102-0.583-0.312c-0.15-0.26-0.243-0.669-0.134-0.947  c0.053-0.134,0.169-0.254,0.316-0.329c0.353-0.179,0.621-0.101,0.783-0.003c0.21,0.126,0.356,0.355,0.404,0.607L15.159,1.843z   M14.684,2.753l0.001-0.008L14.68,2.704l0.011,0.007l0.001-0.004l0.036,0.024C14.713,2.739,14.7,2.747,14.684,2.753z M14.755,1.29  l0.027,0.071l-0.05,0.057C14.704,1.45,14.673,1.46,14.64,1.46c-0.026,0-0.054-0.007-0.082-0.014l0.023-0.124l-0.066-0.015  l0.066,0.015l0.023-0.123C14.653,1.205,14.728,1.215,14.755,1.29z M69.306,62.155c-1.51,0.033-3.038-0.063-4.541-0.281  c-4.085-0.592-8.169-2.01-12.119-3.382c-6.825-2.37-13.881-4.82-21.251-3.141c-4.996,1.138-9.018,4.055-10.76,7.801  c-1.782,3.833-1.496,8.502,0.715,11.617c1.221,1.722,2.888,2.896,4.693,3.306c0.574,0.13,1.171,0.195,1.779,0.195  c1.248,0,2.539-0.272,3.762-0.804c3.419-1.487,6.031-5.251,4.484-8.977c-0.516-1.243-1.495-2.212-2.618-2.592  c-0.899-0.304-1.824-0.207-2.672,0.282c-0.973,0.562-1.543,1.527-1.488,2.519c0.014,0.257,0.081,0.511,0.145,0.756  c0.105,0.401,0.205,0.779,0.086,1.152c-0.128,0.397-0.451,0.76-0.887,0.995c-1.061,0.57-2.141-0.025-2.696-0.819  c-0.62-0.886-0.75-2.04-0.357-3.165c0.706-2.022,2.784-3.493,5.559-3.935c2.226-0.354,4.573-0.172,6.844,0.004  c0.662,0.051,1.321,0.102,1.971,0.14l11.217,0.649c2.678,0.156,5.447,0.318,8.173,0.444c0.558,0.026,1.13,0.063,1.709,0.101  c2.049,0.134,4.167,0.271,6.127-0.054c0.696-0.115,1.668-0.408,2.346-1.154c0.239-0.264,0.575-0.939,0.39-1.347  C69.847,62.32,69.677,62.148,69.306,62.155z M26.526,73.147c1.001,0.393,2.219,0.23,3.182-0.422  c0.877-0.594,1.383-1.492,1.389-2.462c0.002-0.297-0.078-0.59-0.156-0.872c-0.093-0.338-0.18-0.657-0.132-0.968  c0.079-0.504,0.54-0.814,0.735-0.924c0.981-0.556,1.923-0.08,2.478,0.554c1.137,1.3,1.27,3.387,0.322,5.075  c-0.77,1.373-2.165,2.507-3.827,3.114c-1.759,0.642-3.54,0.663-5.019,0.063c-1.586-0.645-2.949-2.071-3.738-3.914  c-1.524-3.558-0.806-7.95,1.787-10.93c2.694-3.099,7.13-4.976,12.167-5.151c0.272-0.009,0.543-0.014,0.815-0.014  c5.346,0,10.528,1.788,15.547,3.52l0.294,0.102c2.737,0.944,5.21,1.779,7.761,2.433c1.453,0.373,2.789,0.65,4.083,0.848  c0.687,0.105,1.366,0.187,2.017,0.245c0.157,0.014,0.352,0.003,0.558-0.008c0.353-0.019,0.742-0.041,0.992,0.058  c-0.487,0.253-1.433,0.279-2.082,0.298c-0.164,0.005-0.314,0.009-0.438,0.016c-0.852,0.048-1.757,0.043-2.847-0.015  c-1.012-0.054-2.049-0.15-3.051-0.244c-0.8-0.074-1.627-0.152-2.427-0.206c-3.359-0.225-7.023-0.456-11.202-0.706l-2.703-0.162  c-2.19-0.131-4.38-0.262-6.571-0.392c-2.549-0.152-5.436-0.323-8.026,0.747c-2.246,0.927-3.907,2.688-4.442,4.71  C23.446,69.594,24.246,72.254,26.526,73.147z M75.924,61.43c-0.647-0.603-1.494-0.933-2.338-0.911  c-1.47,0.042-2.805,1.218-3.104,2.736c-0.292,1.479,0.464,2.939,1.838,3.551c0.493,0.22,1.001,0.326,1.492,0.326  c0.932,0,1.801-0.384,2.384-1.107c0.034-0.042,0.067-0.086,0.098-0.129c0.775-1.069,0.88-2.582,0.254-3.68  C76.383,61.927,76.173,61.663,75.924,61.43z M74.78,65.44c-0.617,0.382-1.419,0.345-2.094-0.097  c-0.304-0.199-0.596-0.545-0.694-0.822c-0.151-0.428-0.144-0.767,0.024-1.251c0.252-0.723,0.975-1.256,1.651-1.256  c0.07,0,0.14,0.006,0.208,0.018c0.468,0.081,0.843,0.289,1.182,0.653c0.241,0.261,0.443,0.618,0.54,0.955  C75.793,64.317,75.325,65.101,74.78,65.44z M81.365,62.563c-0.047-0.061-0.097-0.118-0.15-0.171  c-0.677-0.687-1.769-0.772-2.54-0.201c-0.308,0.228-0.7,0.619-0.817,1.182c-0.108,0.514-0.006,1.054,0.279,1.482  c0.421,0.632,1.084,0.981,1.749,0.981c0.319,0,0.638-0.08,0.931-0.247c0.473-0.271,0.811-0.758,0.924-1.336  C81.861,63.648,81.72,63.017,81.365,62.563z M79.03,63.587l0.068,0.034l-0.071-0.028C79.028,63.591,79.029,63.59,79.03,63.587z   M79.075,63.579l-0.044,0.006c0.007-0.016,0.015-0.03,0.022-0.046L79.075,63.579z M78.968,63.836l0.191-0.103  c0.056-0.03,0.091-0.107,0.081-0.178l-0.039-0.246c0.051-0.057,0.106-0.107,0.168-0.145l0.374,0.049  c0.018,0.002,0.035,0.004,0.05,0.004c0.085,0,0.134-0.035,0.147-0.105l0.006-0.048c0.253,0.048,0.483,0.193,0.61,0.405  c0.098,0.162,0.177,0.43-0.002,0.783c-0.076,0.148-0.196,0.263-0.329,0.316c-0.278,0.11-0.687,0.016-0.947-0.133  C79.062,64.311,78.952,64.08,78.968,63.836z M79.765,63.042l-0.001,0.009l-0.002-0.008C79.763,63.043,79.764,63.042,79.765,63.042z   M80.337,63.712c-0.015-0.06-0.03-0.122,0.029-0.174l0.057-0.05l0.071,0.027c0.076,0.029,0.085,0.103,0.09,0.152l-0.122,0.022  l0.014,0.067l-0.014-0.066L80.337,63.712z"/><text x="0" y="94.317" fill="#000000" font-size="5px" font-weight="bold" font-family="'Helvetica Neue', Helvetica, Arial-Unicode, Arial, Sans-serif">Created by Maria Zamchy</text><text x="0" y="99.317" fill="#000000" font-size="5px" font-weight="bold" font-family="'Helvetica Neue', Helvetica, Arial-Unicode, Arial, Sans-serif">from the Noun Project</text></svg>