<svg xmlns="http://www.w3.org/2000/svg" xmlns:xlink="http://www.w3.org/1999/xlink" version="1.1" x="0px" y="0px" viewBox="0 0 100 125" enable-background="new 0 0 100 100" xml:space="preserve"><g><path d="M81.7626953,21.878418c0.2822266-0.6928711,0.2773438-1.4541016-0.0136719-2.1425781   c-0.4394531-1.0410156-1.4521484-1.7133789-2.5820313-1.7133789c-0.3730469,0-0.7392578,0.0742188-1.0869141,0.2207031   c-1.4228516,0.6005859-2.0908203,2.2460938-1.4912109,3.668457c0.4394531,1.0405273,1.4521484,1.7128906,2.5810547,1.7128906   c0.375,0,0.7402344-0.074707,1.0878906-0.2211914C80.9462891,23.112793,81.4814453,22.5712891,81.7626953,21.878418z    M80.8369141,21.5019531c-0.1816406,0.4453125-0.5253906,0.793457-0.9677734,0.9799805   c-0.9003906,0.3813477-1.9824219-0.0683594-2.3583984-0.9589844C77.125,20.6083984,77.5546875,19.550293,78.46875,19.1645508   c0.2236328-0.0942383,0.4589844-0.1420898,0.6982422-0.1420898c0.7265625,0,1.3779297,0.4326172,1.6601563,1.1020508   C81.0146484,20.5673828,81.0175781,21.0566406,80.8369141,21.5019531z"/><path d="M86.8457031,21.1967773c-0.4052734-0.1704102-0.8085938-0.3100586-1.2080078-0.4335938   c0.3798828-0.1147461,0.7617188-0.2426758,1.1435547-0.3979492c2.5195313-1.0253906,4.8632813-2.9389648,4.2451172-4.4672852   c-0.6269531-1.5263672-3.640625-1.2597656-6.15625-0.2314453c-0.4082031,0.1660156-0.7919922,0.3525391-1.1621094,0.5478516   c0.1875-0.3500977,0.3671875-0.7114258,0.5273438-1.0908203c0.5546875-1.315918,0.8730469-2.6469727,0.8945313-3.7485352   c0.0253906-1.2578125-0.3476563-2.1132813-1.0507813-2.409668c-1.5234375-0.6420898-3.4638672,1.6801758-4.5175781,4.1870117   c-0.1708984,0.40625-0.3105469,0.8100586-0.4345703,1.2104492c-0.1142578-0.3803711-0.2431641-0.7626953-0.3984375-1.1445313   c-1.0244141-2.5209961-2.9384766-4.8608398-4.4648438-4.2446289c-1.5283203,0.6245117-1.2607422,3.6376953-0.2333984,6.1557617   c0.1660156,0.4077148,0.3525391,0.7915039,0.5478516,1.1621094c-0.3496094-0.1875-0.7099609-0.3666992-1.0898438-0.5268555   c-2.5078125-1.0585938-5.5175781-1.3637695-6.1591797,0.1552734c-0.6162109,1.4667969,1.5175781,3.3217773,3.9179688,4.3979492   H20.8178711c-0.2763672,0-0.5,0.2236328-0.5,0.5v50.6538086c-1.034668-2.4765625-2.9082031-4.7480469-4.4189453-4.1347656   c-1.5273438,0.6259766-1.2597656,3.6386719-0.2324219,6.1572266c0.1665039,0.4072266,0.3535156,0.7919922,0.5483398,1.1621094   c-0.3496094-0.1875-0.7109375-0.3681641-1.090332-0.5283203c-2.5073242-1.0556641-5.5180664-1.3613281-6.159668,0.1572266   c-0.6376953,1.5214844,1.6816406,3.4628906,4.1875,4.5175781c0.4057617,0.1699219,0.809082,0.3095703,1.2089844,0.4335938   c-0.3793945,0.1152344-0.7617188,0.2431641-1.1430664,0.3984375c-2.5200195,1.0244141-4.8642578,2.9375-4.2446289,4.4658203   c0.3105469,0.7587891,1.2094727,1.0742188,2.3447266,1.0742188c1.1508789,0,2.5439453-0.3242188,3.8115234-0.8417969   c0.4072266-0.1660156,0.7915039-0.3525391,1.1616211-0.5478516c-0.1875,0.3496094-0.3671875,0.7109375-0.5273438,1.0898438   c-1.0561523,2.5068359-1.3613281,5.5175781,0.15625,6.1601563c0.1738281,0.0732422,0.3525391,0.1074219,0.5351563,0.1074219   c1.4189453,0,3.0498047-2.0751953,3.9833984-4.296875c0.1704102-0.4052734,0.3095703-0.8085938,0.4331055-1.2070313   c0.1147461,0.3789063,0.2431641,0.7607422,0.3979492,1.1425781c0.9130859,2.2421875,2.5288086,4.3457031,3.9501953,4.3447266   c0.1757813,0,0.3486328-0.0322266,0.5170898-0.0996094c1.5268555-0.6269531,1.2592773-3.6396484,0.2319336-6.15625   c-0.1660156-0.4072266-0.3525391-0.7919922-0.5473633-1.1621094c0.3496094,0.1875,0.7109375,0.3671875,1.090332,0.5273438   c1.3154297,0.5546875,2.6469727,0.8730469,3.7485352,0.8945313c0.0395508,0.0009766,0.0791016,0.0009766,0.1181641,0.0009766   c1.1928711,0,2.0043945-0.3710938,2.2915039-1.0517578c0.6396484-1.5214844-1.6796875-3.4638672-4.1870117-4.5175781   c-0.40625-0.1708984-0.8105469-0.3105469-1.2109375-0.4345703c0.3803711-0.1142578,0.7626953-0.2431641,1.1450195-0.3984375   c2.5205078-1.0244141,4.8647461-2.9375,4.2441406-4.4638672c-0.2875977-0.7060547-1.1655273-1.0605469-2.3974609-1.0820313   c-1.1030273,0.0078125-2.4379883,0.3085938-3.7583008,0.8476563c-0.4077148,0.1660156-0.7919922,0.3535156-1.1621094,0.5488281   c0.1875-0.3496094,0.3671875-0.7109375,0.5273438-1.0908203c1.0576172-2.5068359,1.362793-5.5175781-0.1552734-6.1591797   c-1.46875-0.6171875-3.3212891,1.5175781-4.3979492,3.9179688V21.3178711h50.152832   c-2.4765625,1.0351563-4.7441406,2.9125977-4.1337891,4.418457c0.3105469,0.7583008,1.2099609,1.0742188,2.3457031,1.0742188   c1.1503906,0,2.5439453-0.3242188,3.8115234-0.8413086c0.4072266-0.1665039,0.7919922-0.3535156,1.1621094-0.5483398   c-0.1875,0.3496094-0.3681641,0.7109375-0.5283203,1.090332c-1.0566406,2.5073242-1.3613281,5.5180664,0.1572266,6.159668   c0.1738281,0.0727539,0.3515625,0.1069336,0.5341797,0.1069336c1.4179688,0,3.0488281-2.0742188,3.9833984-4.2949219   c0.1699219-0.4057617,0.3095703-0.809082,0.4335938-1.2084961c0.1152344,0.3793945,0.2431641,0.7612305,0.3984375,1.1430664   c0.9111328,2.2421875,2.5263672,4.3452148,3.9472656,4.3452148c0.1767578,0,0.3496094-0.0322266,0.5185547-0.1005859   c1.5273438-0.625,1.2597656-3.6381836,0.2324219-6.15625c-0.1660156-0.4077148-0.3535156-0.7919922-0.5478516-1.1625977   c0.3496094,0.1879883,0.7109375,0.3676758,1.0898438,0.527832c1.2890625,0.543457,2.7119141,0.8881836,3.8769531,0.8881836   c1.1005859,0,1.9707031-0.3076172,2.2832031-1.0444336C91.6738281,24.1914063,89.3535156,22.25,86.8457031,21.1967773z    M16.2758789,68.2636719c0.5834961-0.2460938,2.1020508,1.0859375,3.1625977,3.6953125   c0.4140625,1.0185547,0.6660156,2.0390625,0.7416992,2.9248047c-0.1987305,0.0292969-0.3930664,0.0761719-0.5859375,0.1328125   l-1.3774414-2.5820313c-0.0522461-0.0986328-0.1689453-0.1474609-0.2783203-0.1123047   c-0.1220703,0.0410156-0.1884766,0.171875-0.1484375,0.2939453l0.9130859,2.7753906   c-0.2006836,0.1123047-0.3896484,0.234375-0.565918,0.3730469c-0.5732422-0.6826172-1.1147461-1.5966797-1.5449219-2.6484375   C15.5288086,70.5097656,15.6958008,68.5009766,16.2758789,68.2636719z M13.5400391,77.8808594   c-2.5932617-1.0917969-3.8959961-2.6298828-3.6538086-3.2080078c0.2436523-0.5771484,2.2548828-0.7158203,4.8496094,0.3769531   c1.0136719,0.4277344,1.9145508,0.9716797,2.5942383,1.5458984c-0.1196289,0.1621094-0.2246094,0.3310547-0.3203125,0.5078125   L14.2070313,76.25c-0.1064453-0.0332031-0.2236328,0.0146484-0.2753906,0.1171875   c-0.0581055,0.1152344-0.012207,0.2548828,0.1025391,0.3125l2.6118164,1.3193359   c-0.0615234,0.2177734-0.1054688,0.4375-0.1323242,0.6621094C15.6225586,78.5849609,14.590332,78.3222656,13.5400391,77.8808594z    M14.7519531,83.4072266c-2.6044922,1.0605469-4.6152344,0.8955078-4.8520508,0.3164063   c-0.2358398-0.5810547,1.0864258-2.1025391,3.6948242-3.1630859c1.0239258-0.4160156,2.0473633-0.6679688,2.9326172-0.7421875   c0.0292969,0.1953125,0.0791016,0.3876953,0.1367188,0.5810547l-2.59375,1.3847656   c-0.0981445,0.0517578-0.1474609,0.1689453-0.1113281,0.2773438c0.0400391,0.1220703,0.171875,0.1884766,0.2939453,0.1484375   l2.7768555-0.9130859c0.1113281,0.1982422,0.2353516,0.3867188,0.3740234,0.5634766   C16.7207031,82.4345703,15.8056641,82.9765625,14.7519531,83.4072266z M19.5170898,86.4589844   c-1.090332,2.5947266-2.6279297,3.8925781-3.2084961,3.6552734c-0.5766602-0.2451172-0.7163086-2.2558594,0.3769531-4.8505859   c0.4296875-1.0175781,0.9755859-1.9208984,1.5517578-2.6005859c0.1606445,0.1181641,0.3286133,0.2246094,0.5043945,0.3193359   l-0.8549805,2.8105469c-0.0322266,0.1054688,0.0151367,0.2236328,0.1176758,0.2753906   c0.1147461,0.0576172,0.2548828,0.0117188,0.3129883-0.1035156l1.3198242-2.6132813   c0.2148438,0.0595703,0.4355469,0.1015625,0.6611328,0.1289063C20.2226563,84.3720703,19.9589844,85.4052734,19.5170898,86.4589844   z M25.3598633,90.0996094c-0.5864258,0.2460938-2.1015625-1.0869141-3.1635742-3.6953125   c-0.418457-1.0292969-0.671875-2.0595703-0.7436523-2.9492188c0.1958008-0.0292969,0.3867188-0.0761719,0.5771484-0.1328125   l1.3901367,2.6064453c0.0522461,0.0986328,0.1689453,0.1474609,0.2783203,0.1123047   C23.8203125,86,23.8867188,85.8691406,23.8466797,85.7470703l-0.9213867-2.8017578   c0.1967773-0.1103516,0.3833008-0.2304688,0.5571289-0.3662109c0.5805664,0.6845703,1.128418,1.6054688,1.5610352,2.6679688   C26.1064453,87.8525391,25.9394531,89.8623047,25.3598633,90.0996094z M28.0957031,80.4833984   c2.5947266,1.0908203,3.8964844,2.6289063,3.652832,3.2080078c-0.1186523,0.2822266-0.7148438,0.4609375-1.4677734,0.4384766   c-0.9780273-0.0195313-2.1782227-0.3085938-3.3798828-0.8164063c-1.0244141-0.4316406-1.9335938-0.9814453-2.6147461-1.5605469   c0.1181641-0.1591797,0.2226563-0.3251953,0.3178711-0.4990234l2.824707,0.859375   c0.1064453,0.0332031,0.2236328-0.0146484,0.2753906-0.1171875c0.0581055-0.1152344,0.012207-0.2548828-0.1025391-0.3125   l-2.6289063-1.3271484c0.0615234-0.2148438,0.1069336-0.4316406,0.1347656-0.6552734   C26.0019531,79.7763672,27.0400391,80.0400391,28.0957031,80.4833984z M26.8837891,74.9560547   c1.2055664-0.4921875,2.4082031-0.7666016,3.387207-0.7734375c0.7612305-0.0048828,1.3491211,0.1757813,1.4643555,0.4589844   c0.2358398,0.5800781-1.0859375,2.1005859-3.6943359,3.1611328c-1.0273438,0.4169922-2.0546875,0.6699219-2.9418945,0.7421875   c-0.0283203-0.1943359-0.0751953-0.3867188-0.1313477-0.5800781l2.5976563-1.3857422   c0.0981445-0.0517578,0.1474609-0.1689453,0.1113281-0.2773438c-0.0400391-0.1220703-0.171875-0.1884766-0.2939453-0.1484375   l-2.7758789,0.9130859C24.496582,76.8662109,24.3735352,76.6777344,24.2358398,76.5   C24.9194336,75.9267578,25.8330078,75.3847656,26.8837891,74.9560547z M22.1196289,71.9042969   c1.0917969-2.5947266,2.637207-3.8964844,3.2075195-3.6533203c0.5776367,0.2431641,0.7172852,2.2539063-0.3769531,4.8486328   c-0.4282227,1.0136719-0.9711914,1.9130859-1.543457,2.5917969c-0.1616211-0.1210938-0.3305664-0.2294922-0.5078125-0.3261719   L23.75,72.5703125c0.0322266-0.1054688-0.0151367-0.2236328-0.1176758-0.2753906   c-0.1147461-0.0576172-0.2548828-0.0117188-0.3129883,0.1035156l-1.3100586,2.59375   c-0.2177734-0.0625-0.4418945-0.1054688-0.6699219-0.1328125C21.4179688,73.9736328,21.6806641,72.9482422,22.1196289,71.9042969z    M23.8969727,77.8681641c0.7172852,1.7001953-0.0830078,3.6689453-1.7841797,4.3867188   c-0.4150391,0.1748047-0.8520508,0.2636719-1.2983398,0.2636719c-1.3505859,0-2.5625-0.8037109-3.0878906-2.0488281   c-0.7172852-1.7001953,0.0830078-3.6669922,1.7836914-4.3847656c0.4165039-0.1757813,0.8540039-0.2646484,1.3012695-0.2646484   C22.1611328,75.8203125,23.3725586,76.6240234,23.8969727,77.8681641z M85.2480469,16.5922852   c2.6015625-1.0620117,4.6142578-0.8974609,4.8515625-0.3168945c0.2353516,0.5810547-1.0878906,2.1020508-3.6953125,3.1635742   c-1.0292969,0.418457-2.0595703,0.6713867-2.9492188,0.7436523c-0.0283203-0.1938477-0.0771484-0.3847656-0.1328125-0.5761719   l2.6064453-1.390625c0.0986328-0.0522461,0.1474609-0.1689453,0.1123047-0.2783203   C86,17.8154297,85.8691406,17.7490234,85.7470703,17.7890625l-2.7890625,0.9174805   c-0.1103516-0.1977539-0.2333984-0.3852539-0.3710938-0.5605469   C83.2714844,17.5683594,84.1894531,17.0234375,85.2480469,16.5922852z M80.4833984,13.5400391   c1.0908203-2.5961914,2.6328125-3.8959961,3.2080078-3.652832c0.2822266,0.1186523,0.4541016,0.6948242,0.4384766,1.4677734   c-0.0195313,0.9775391-0.3085938,2.1782227-0.8164063,3.3798828c-0.4306641,1.0205078-0.9785156,1.9267578-1.5546875,2.6064453   c-0.1591797-0.1186523-0.3271484-0.2255859-0.5009766-0.3217773l0.8554688-2.8129883   c0.0332031-0.1064453-0.0146484-0.2236328-0.1171875-0.2753906c-0.1152344-0.0581055-0.2548828-0.012207-0.3125,0.1025391   l-1.3193359,2.6123047c-0.2148438-0.0615234-0.4365234-0.1044922-0.6611328-0.1323242   C79.7792969,15.6225586,80.0419922,14.590332,80.4833984,13.5400391z M74.6416016,9.8999023   c0.5751953-0.237793,2.1005859,1.0859375,3.1611328,3.6953125c0.4169922,1.0263672,0.6699219,2.0537109,0.7421875,2.940918   c-0.1962891,0.0288086-0.3886719,0.074707-0.5810547,0.1303711l-1.3847656-2.5966797   c-0.0517578-0.0981445-0.1689453-0.1474609-0.2773438-0.1113281c-0.1220703,0.0400391-0.1884766,0.171875-0.1484375,0.2939453   l0.9160156,2.7861328c-0.1982422,0.1098633-0.3857422,0.230957-0.5625,0.3681641   c-0.5771484-0.6845703-1.1201172-1.6005859-1.5507813-2.6552734C73.8925781,12.1459961,74.0595703,10.137207,74.6416016,9.8999023z    M68.2509766,16.3081055c0.2421875-0.5766602,2.2519531-0.7167969,4.8486328,0.3774414   c1.015625,0.4287109,1.9169922,0.9731445,2.5957031,1.546875c-0.1191406,0.1601563-0.2236328,0.3295898-0.3203125,0.5068359   l-2.8046875-0.8535156c-0.1054688-0.0322266-0.2236328,0.0151367-0.2753906,0.1176758   c-0.0576172,0.1147461-0.0117188,0.2548828,0.1035156,0.3129883l2.609375,1.3173828   c-0.0634766,0.2192383-0.1103516,0.4394531-0.1386719,0.6630859c-0.8886719-0.0771484-1.9179688-0.3408203-2.9648438-0.7807617   C69.3095703,18.425293,68.0078125,16.887207,68.2509766,16.3081055z M73.1162109,25.043457   c-2.6074219,1.0625-4.6152344,0.8955078-4.8525391,0.315918c-0.2353516-0.5810547,1.0869141-2.1020508,3.6953125-3.1625977   c1.0175781-0.4135742,2.0380859-0.6660156,2.9228516-0.7416992c0.0302734,0.1982422,0.0771484,0.3925781,0.1337891,0.5869141   l-2.5810547,1.3769531c-0.0986328,0.0522461-0.1474609,0.1689453-0.1123047,0.2783203   c0.0410156,0.1220703,0.171875,0.1884766,0.2939453,0.1484375l2.7636719-0.9086914   c0.1113281,0.2006836,0.2363281,0.3911133,0.3759766,0.5688477C75.0742188,24.0761719,74.1640625,24.6152344,73.1162109,25.043457z    M77.8808594,28.0952148c-1.0917969,2.5932617-2.6230469,3.9018555-3.2080078,3.6542969   c-0.5771484-0.2441406-0.7167969-2.2543945,0.3769531-4.8496094c0.4267578-1.0102539,0.9677734-1.9082031,1.5390625-2.5869141   c0.1630859,0.1201172,0.3330078,0.2280273,0.5107422,0.324707L76.25,27.4287109   c-0.0332031,0.1064453,0.0146484,0.2236328,0.1171875,0.2753906c0.1152344,0.0581055,0.2548828,0.012207,0.3125-0.1025391   l1.3115234-2.5966797c0.2177734,0.0615234,0.4414063,0.1035156,0.6689453,0.1303711   C78.5830078,26.0234375,78.3203125,27.050293,77.8808594,28.0952148z M79.1699219,24.1728516   c-1.3496094,0-2.5605469-0.8037109-3.0849609-2.0478516c-0.3486328-0.8242188-0.3544922-1.7348633-0.0175781-2.5629883   c0.3369141-0.8286133,0.9765625-1.4760742,1.8007813-1.8237305c0.4160156-0.175293,0.8525391-0.2641602,1.2998047-0.2641602   c1.3496094,0,2.5615234,0.8041992,3.0869141,2.0483398c0.7167969,1.7011719-0.0839844,3.6689453-1.7851563,4.3862305   C80.0537109,24.0839844,79.6171875,24.1728516,79.1699219,24.1728516z M83.7236328,31.7358398   c-0.5986328,0.2402344-2.1035156-1.0898438-3.1630859-3.6948242c-0.4160156-1.0244141-0.6679688-2.0483398-0.7421875-2.9331055   c0.1972656-0.0302734,0.390625-0.0786133,0.5820313-0.1362305l1.3837891,2.59375   c0.0517578,0.0981445,0.1689453,0.1474609,0.2773438,0.1113281c0.1220703-0.0400391,0.1884766-0.171875,0.1484375-0.2939453   l-0.9169922-2.7900391c0.1972656-0.1113281,0.3847656-0.2329102,0.5585938-0.3710938   c0.5771484,0.684082,1.1230469,1.6030273,1.5556641,2.6621094C84.4707031,29.4897461,84.3037109,31.4985352,83.7236328,31.7358398z    M90.1142578,25.3266602c-0.2470703,0.5761719-2.2568359,0.7167969-4.8505859-0.3769531   c-1.0205078-0.4306641-1.9277344-0.9794922-2.6083984-1.5576172c0.1181641-0.1606445,0.2207031-0.3276367,0.3154297-0.5024414   l2.8222656,0.859375c0.1054688,0.0322266,0.2236328-0.0151367,0.2753906-0.1176758   c0.0576172-0.1147461,0.0117188-0.2548828-0.1035156-0.3129883l-2.6289063-1.3276367   c0.0605469-0.2148438,0.1035156-0.4321289,0.1308594-0.6547852c0.8945313,0.0737305,1.9345703,0.3378906,2.9921875,0.7827148   C89.0537109,23.2089844,90.3564453,24.7475586,90.1142578,25.3266602z"/><path d="M18.2319336,80.2578125c0.4384766,1.0400391,1.4516602,1.7119141,2.5805664,1.7119141   c0.3745117,0,0.7402344-0.0742188,1.0874023-0.2207031c1.421875-0.6005859,2.0917969-2.2460938,1.4926758-3.6689453   c-0.4389648-1.0400391-1.4521484-1.7119141-2.5805664-1.7119141c-0.3745117,0-0.7407227,0.0742188-1.0878906,0.2207031   C18.3012695,77.1894531,17.6318359,78.8349609,18.2319336,80.2578125z M20.8120117,77.3681641   c0.7255859,0,1.3769531,0.4316406,1.6591797,1.1005859c0.3852539,0.9140625-0.0454102,1.9726563-0.9599609,2.3583984   c-0.8994141,0.3808594-1.9829102-0.0673828-2.3579102-0.9580078c-0.1870117-0.4433594-0.1899414-0.9326172-0.0087891-1.3779297   s0.5249023-0.7939453,0.9682617-0.9804688C20.3364258,77.4160156,20.5717773,77.3681641,20.8120117,77.3681641z"/><path d="M40.7568359,27.2939453H28.1323242c-0.2763672,0-0.5,0.2236328-0.5,0.5v12.625c0,0.2763672,0.2236328,0.5,0.5,0.5   s0.5-0.2236328,0.5-0.5v-12.125h12.1245117c0.2763672,0,0.5-0.2236328,0.5-0.5S41.0332031,27.2939453,40.7568359,27.2939453z"/><path d="M61.1669922,24.1245117H33.8125c-0.2763672,0-0.5,0.2236328-0.5,0.5s0.2236328,0.5,0.5,0.5h27.3544922   c0.2763672,0,0.5-0.2236328,0.5-0.5S61.4433594,24.1245117,61.1669922,24.1245117z"/><path d="M24.1118164,32.4472656v27.3544922c0,0.2763672,0.2236328,0.5,0.5,0.5s0.5-0.2236328,0.5-0.5V32.4472656   c0-0.2763672-0.2236328-0.5-0.5-0.5S24.1118164,32.1708984,24.1118164,32.4472656z"/><path d="M27.0351563,45.3125c0,0.8046875,0.6542969,1.4589844,1.4584961,1.4589844s1.4584961-0.6542969,1.4584961-1.4589844   s-0.6542969-1.4589844-1.4584961-1.4589844S27.0351563,44.5078125,27.0351563,45.3125z M28.9521484,45.3125   c0,0.2529297-0.2055664,0.4589844-0.4584961,0.4589844s-0.4584961-0.2060547-0.4584961-0.4589844   s0.2055664-0.4589844,0.4584961-0.4589844S28.9521484,45.0595703,28.9521484,45.3125z"/><path d="M45.5058594,27.2290039c-0.8037109,0-1.4580078,0.6542969-1.4580078,1.4584961s0.6542969,1.4584961,1.4580078,1.4584961   c0.8046875,0,1.4589844-0.6542969,1.4589844-1.4584961S46.3105469,27.2290039,45.5058594,27.2290039z M45.5058594,29.1459961   c-0.2524414,0-0.4580078-0.2055664-0.4580078-0.4584961s0.2055664-0.4584961,0.4580078-0.4584961   c0.2529297,0,0.4589844,0.2055664,0.4589844,0.4584961S45.7587891,29.1459961,45.5058594,29.1459961z"/></g><text x="0" y="115" fill="#000000" font-size="5px" font-weight="bold" font-family="'Helvetica Neue', Helvetica, Arial-Unicode, Arial, Sans-serif">Created by Ariyanto Deni</text><text x="0" y="120" fill="#000000" font-size="5px" font-weight="bold" font-family="'Helvetica Neue', Helvetica, Arial-Unicode, Arial, Sans-serif">from the Noun Project</text></svg>