<svg xmlns="http://www.w3.org/2000/svg" version="1.1" viewBox="-5.0 -10.0 110.0 135.0">
 <path d="m94.039 49.223c-0.32812-1.3164-1.2266-1.5195-1.6953-2.4102-0.19922-0.37891-0.33203-0.84375-0.47266-1.25-1.8711-5.4531-2.5352-13.355-1.1484-20.465 0.14062-0.6875 0.28125-1.3867 0.48828-2.0547 0.43359-1.4023 1.0156-2.5117 0.90234-4.0273-0.14453-1.9102-1.2812-3.8555-3.0586-4.8711-0.75391-0.42969-1.5625-0.67578-2.4102-0.83594-0.51172-1.9609-1.3711-3.5742-3.1602-4.625-1.6016-0.94141-3.3789-0.9375-5.1367-0.47266-1.3398 0.35156-3.3633 1.3477-9.1133 1.6719-4.0312 0.22656-8.1797-0.082031-12.312-1-1.207-0.26562-2.8828-0.66016-3.9414-1.2734-1.293-0.75-1.6797-1.8398-3.4258-1.6992-1.3477 0.25-1.8906 1.293-3.0391 1.8594-3.4961 1.7148-13.496 3.1875-22.273 1.3906-0.53516-0.10938-1.0742-0.23047-1.5938-0.41406-1.3086-0.46094-1.8867-0.85547-3.3672-0.84766-1.5664 0.003906-3.0742 0.48437-4.2148 1.5898-1.0664 1.0352-1.6055 2.4375-1.9766 3.8398-1.7461 0.28906-3.3008 1.0391-4.3516 2.5078-0.86328 1.2031-1.3438 2.9102-1.1016 4.3867 0.14844 0.91406 0.62109 1.7852 0.90625 2.668 0.38281 1.1797 0.61719 2.4258 0.82422 3.6445 0.94922 5.5625 0.49609 12.258-1.0547 17.676-0.25391 0.89062-0.47266 1.9727-1.0195 2.7344-0.23438 0.32422-0.52344 0.60156-0.77344 0.91406-0.58984 0.74609-0.74219 1.6875-0.60156 2.6133 0.19531 1.2695 1.2461 1.9375 1.7188 3.0664 0.21875 0.51563 0.38281 1.0742 0.55078 1.6094 1.7695 5.625 2.3086 13.469 0.85938 20.078-0.64453 2.9375-0.59375 2.2891-0.9375 3.0508-0.83203 1.8555-0.51562 4.4414 1.0625 6.2617 1.0664 1.2305 2.7188 2.0391 3.9023 2.1406 0.59375 1.9727 1.3633 3.6016 3.25 4.625 1.3867 0.75 3.2422 0.95703 4.7578 0.50391 1.3711-0.41016 1.168-0.73828 5.7188-1.3594 4.9922-0.68359 10.688-0.42188 15.629 0.57812 1.5078 0.30469 3.0898 0.65625 4.4531 1.3828 1.3086 0.69922 1.6328 2.0586 3.6094 1.6211 1.0508-0.29688 1.4375-0.91016 2.2734-1.4961 1.1602-0.81641 3.7461-1.3555 5.0977-1.6211 6.9805-1.3438 14.707-0.85937 18.492 0.19141 1.8359 0.50781 3.0938 1.1758 5.1055 0.90234 2.3047-0.31641 4.4883-2.1641 5.168-5.3594 1.8164-0.37891 3.418-1.0508 4.4648-2.6641 0.88672-1.3672 1.2695-3.1055 0.91406-4.7109-0.32031-1.4492-0.74219-0.77734-1.6016-5.707-0.95312-5.4727-0.60547-11.266 0.65625-16.66 0.95312-4.0859 1.4062-3.8125 2.2852-4.8438 0.69922-0.80469 0.92969-1.875 0.69141-2.8398zm-2.7422 2.9102c-0.19922 0.24609-0.34375 0.53516-0.46484 0.82422-1.1406 2.6641-1.7148 5.543-2.0547 8.4062-0.15625 1.3242-0.29688 2.6484-0.34766 3.9844-0.15625 4.1875 0.31641 8.7773 1.5898 12.777 0.13281 0.41016 0.39453 0.76562 0.54297 1.1719 0.37109 1.0273 0.10547 2.4609-0.36719 3.4102-0.63672 1.2773-1.9023 2.1289-3.2773 2.4258-0.58594 0.125-1.4258 0.054688-1.5977 0.47656-0.16016 0.38672-0.035156 1.2461-0.67187 2.5508-0.73828 1.5156-2.3008 2.4023-3.9531 2.5195-1.4258 0.10156-2.5195-0.58594-3.8438-0.95313-0.97266-0.26953-2.0078-0.45312-3.0039-0.61328-8.0781-1.3008-18.887 0.1875-21.887 2.2656-0.61328 0.42578-1.0781 1.0586-1.8008 1.3086-1.082 0.082031-1.2695-0.48438-1.9883-1.0898-2.332-1.9648-14.805-4.3945-25.117-1.9609-0.82031 0.19531-1.5391 0.51953-2.332 0.79297-1.1562 0.39453-2.5469 0.22656-3.6289-0.31641-1.2773-0.64062-2.0664-1.8516-2.4297-3.2031-0.10547-0.39453-0.12109-0.82812-0.25781-1.2109-0.25-0.70312-1.1211-0.17969-2.8047-1.0195-0.37891-0.1875-0.73828-0.42188-1.0508-0.71094-1.1211-1.0391-1.75-2.9336-1.3672-4.4297 0.15234-0.60156 0.50391-1.1367 0.69922-1.7266 0.26563-0.80859 0.44141-1.6719 0.62109-2.5078 1.4883-6.9453 1.0586-15.168-1.3164-21.871-0.21094-0.59766-0.55078-1.2227-0.93359-1.7266-0.37891-0.5-0.87891-0.9375-1.0664-1.5508-0.23828-0.77344 0.62109-1.5664 1.0508-2.1211 1.1016-1.4062 1.5234-3.4062 1.9258-5.1719 0.97266-4.1172 1.3242-8.3633 1.0508-12.594-0.20703-3.2031-0.89062-6.9141-1.4609-8.4492-0.1875-0.51172-0.48438-0.98437-0.63672-1.5078-0.30469-1.0781-0.015626-2.3555 0.53125-3.3086 0.6875-1.1953 1.8398-1.9805 3.1836-2.2578 0.59375-0.12109 1.3594-0.027344 1.582-0.44141 0.30078-0.54688-0.089843-1.7031 1.1211-3.2344 0.74609-0.94141 1.8164-1.5664 2.9922-1.7539 1.6016-0.25781 2.4102 0.34766 3.7461 0.77734 0.80078 0.25781 1.6367 0.44531 2.4609 0.59766 9.6992 1.7344 19.195 0.085938 22.613-1.8125 0.76562-0.42578 1.5898-1.3672 2.2656-1.582 1.0859-0.074219 1.375 0.54297 2.1172 1.1289 0.33594 0.26562 0.69922 0.45312 1.0859 0.63281 4.4453 2.0586 11.727 2.4844 16.566 2.2266 1.2266-0.066406 2.4375-0.21094 3.6562-0.36719 3.3789-0.42969 3.5703-0.58203 5.4688-1.2734 2.8125-1.0234 5.7305 0.14453 6.6445 3.543 0.12891 0.47266 0.023437 1.1719 0.42969 1.3398 0.49219 0.20312 0.9375 0.035156 2.1094 0.51562 1.1836 0.48828 2.1484 1.3633 2.6328 2.5625 0.33984 0.83984 0.48047 2.0039 0.23828 2.8828-0.30078 1.0898-0.75391 0.73047-1.6016 6.1445-1.0547 6.7109-0.48047 13.797 1.9648 20.578 0.33203 0.90625 1.2812 1.2969 1.6133 2.1719 0.5 1.293-0.5625 1.9062-1.2422 2.75z"/>
 <path d="m89.527 48.949c-0.52344-0.85547-0.91406-1.8984-1.2695-2.8359-1.8242-4.8242-2.2344-12.336-1.7344-17.426 0.22266-2.2773 0.74219-4.9492 1.3359-7.1602 0.35156-1.3125 1.3281-1.8555 0.47656-3.3438-0.58594-1.0234-1.7305-1.4766-2.6719-1.2578-1.0586 0.25-1.9062 1.1562-2.7969-0.33203-0.48828-0.81641 0.007812-1.5195 0.19531-2.1289 0.1875-0.60156 0.042969-1.3164-0.26172-1.8594-0.5-0.88281-1.4062-1.2305-2.3984-1.1562-0.91016 0.066406-1.3984 0.51172-2.1602 0.72266-10.156 2.793-22.773 1.0352-26.91-1.3125-0.40625-0.23047-0.82031-0.58203-1.2617-0.73438-0.13672-0.046875-0.27734-0.039062-0.41797-0.03125-2.0117 1.2422-3.2852 1.875-7.1562 2.6602-6.0859 1.2344-13.031 1.3125-19.09-0.11719-0.69141-0.16406-1.3945-0.33984-2.0664-0.57031-1.3203-0.45312-2.0547-1.0977-3.4609-0.23828-0.53516 0.32422-0.92969 0.82422-1.0742 1.4375-0.21094 0.87891 0.16016 1.3281 0.35547 1.9414 0.39062 1.2188-0.72656 2.4492-1.9062 2.1523-0.33984-0.085937-0.64844-0.27734-0.97656-0.39844-0.61719-0.23047-1.4102-0.10547-1.9766 0.21875-0.57812 0.33203-0.94922 0.90625-1.1094 1.543-0.28906 1.1367 0.35938 1.6406 0.59375 2.3906 1.8633 6.0234 2.2812 14.062 0.51562 22-0.37109 1.7227-0.78906 3.4688-1.6289 5.0273-0.1875 0.35156-0.36328 0.73438-0.64453 1.0273-0.17188 0.17578-0.49219 0.44922-0.47656 0.71484 0.019531 0.38672 0.55469 0.78125 0.75391 1.1133 0.39453 0.66797 0.72656 1.3984 0.99609 2.125 2.5547 6.9141 3.0312 17.383 0.46875 25.648-0.18359 0.59375-0.61719 1.0859-0.625 1.7305-0.023437 1.4062 1.3906 2.8125 2.7969 2.625 1.0312-0.13672 1.4727-1.1719 2.6133-0.32422 0.40625 0.30469 0.77344 0.75 0.83594 1.2695 0.125 1.0781-0.98438 1.5508-0.53125 2.793 0.33984 0.93359 1.4648 1.8711 2.7305 1.7422 0.65625-0.066407 1.207-0.49609 1.8164-0.71094 0.74219-0.26562 1.5312-0.4375 2.3008-0.60547 9.6406-2.0703 21.129-0.25 24.766 1.8906 0.39062 0.23437 0.79297 0.55078 1.2188 0.71094 0.14453 0.054687 0.27734 0.039063 0.42578 0.015625 0.84766-0.38281 1.3359-1.0234 4.1758-1.8906 5.957-1.8203 13.809-2.0117 19.918-1.0625 1.1992 0.1875 2.5586 0.36328 3.6953 0.79688 1.4062 0.53516 2.1914 1.3555 3.8633 0.48438 0.36719-0.19141 0.67188-0.46875 0.89453-0.80078 0.47266-0.70312 0.53516-1.4961 0.13281-2.2969-0.24609-0.48828-0.45703-0.82812-0.28906-1.3984 0.23438-0.78906 1.082-1.3867 1.9609-1.1016 0.96484 0.3125 1.3086 0.875 2.4531 0.32812 0.91016-0.4375 1.5898-1.2031 1.6719-2.2031 0.070312-0.87891-0.35938-1.3398-0.57422-2.0312-1.4609-4.7188-2.0547-9.8594-1.6211-15.441 0.27734-3.5781 0.91406-7.625 2.3828-10.918 0.22656-0.50781 0.46875-1.125 0.78906-1.5742 0.23047-0.32422 0.85938-0.60156 0.65234-1.0039-0.15234-0.30469-0.50781-0.53906-0.69531-0.84375zm-2.7344 4.5273c-2.3789 6.8281-2.5117 15.277-1.0312 22.324 0.13281 0.64844 0.29688 1.293 0.48438 1.9297 0.17969 0.60938 0.96484 2.6055 0.91016 3.0664-0.035156 0.28906-0.22656 0.55859-0.46484 0.72266-0.66016 0.45703-1.4727-0.17969-2.1523-0.30859-2.1797-0.41797-4.0273 1.75-3.3984 3.8242 0.11719 0.38281 0.54297 0.89844 0.44922 1.3047-0.0625 0.26172-0.26953 0.48438-0.49609 0.61719-0.78906 0.47656-1.8906-0.23438-2.6445-0.52734-0.40234-0.15625-0.8125-0.26563-1.2344-0.36328-8.418-1.9688-21.625-1.1836-27.305 2.3359-0.625-0.35938-1.0195-0.625-1.8594-1.0039-3.3867-1.4883-9.4219-2.3125-13.383-2.4336-6.7812-0.21484-13.039 1.1367-14.145 1.6914-0.49609 0.25-1.0469 0.76562-1.7188 0.41016-0.26563-0.14062-0.52734-0.37891-0.60938-0.67578-0.10547-0.36719 0.17578-0.72266 0.33594-1.0312 0.48828-0.91797 0.26172-2.3672-0.75391-3.3438-0.76953-0.73828-2.0703-1.1914-3.0273-0.82422-0.71094 0.26953-1.7148 1.1445-2.1836-0.60938 0.3125-0.83984 0.42969-0.78516 1.0234-3.1562 0.10938-0.4375 0.21094-0.875 0.30859-1.3164 1.3984-6.4258 1.4102-13.309-0.24609-20.113-0.77344-3.1094-0.97266-3.7305-2.4336-6.168 1.5391-1.9375 2.1641-4.6758 2.7031-7.3203 1.5742-7.7305 1.125-15.715-0.83594-22.02-0.14844-0.46484-0.68359-1.0312-0.57031-1.5273 0.054687-0.24219 0.44531-0.53906 0.66016-0.63672 0.5625-0.25391 1.0312 0.22656 1.5352 0.42188 0.67578 0.26172 1.8359 0.12891 2.6836-0.48438 0.49609-0.35938 0.86328-0.85547 1.0625-1.418 0.41016-1.1211 0.10547-1.9727-0.36328-3 0.085938-0.3125 0.15625-0.61719 0.44531-0.8125 0.20313-0.13672 0.52734-0.21875 0.76953-0.17969 0.55859 0.089844 1.3633 0.49609 1.9531 0.67578 5.6602 1.6523 13.352 2.1055 20.82 0.73828 2.5938-0.47656 5.7695-1.1992 7.7773-2.6406 0.16406 0.03125 0.35156 0.19531 0.5 0.28516 0.83984 0.5 1.7734 0.90234 2.7031 1.207 6.1562 2.0195 13.934 2.2695 20.434 1.4297 1.3945-0.17969 3.9727-0.57422 5.3711-1.0391 0.53906-0.17969 1.5859-0.72266 2.1328-0.57422 0.22656 0.0625 0.44141 0.17969 0.55859 0.39062 0.31641 0.5625-0.13281 1.2812-0.27344 1.8438-0.58594 2.3516 1.7891 4.043 3.4258 3.6875 0.67969-0.14844 1.7578-1.125 2.3594 0.035156 0.32813 0.63281-0.29687 1.168-0.47656 1.7539-0.28906 0.94141-0.5 1.9219-0.70703 2.8867-1.75 7.9492-1.1602 16.641 0.82031 22.559 0.44531 1.3242 1.0156 2.5781 1.6602 3.8125-0.56641 1.1602-1.1445 2.3398-1.5742 3.5742z"/>
 <path d="m80.133 24.309c-0.11719-0.84375-0.66016-1.6602-1.3398-2.1602-1.1406-0.83984-2.2461-0.67969-5.1445-0.68359-55.355-0.085938-51.723-0.003906-52.254 0.20312-1.3594 0.52734-2.3008 1.8008-2.4023 3.4453-0.082032 1.3281-0.007813 2.6953-0.003907 4.0273 0.007813 50.5-0.023437 47.094 0.097657 47.734 0.30859 1.5977 1.8008 3.0312 3.6641 3.1602 0.10938 0.007813 53.699 0.023438 54.348-0.003906 0.95703-0.12109 1.7539-0.48438 2.3516-1.2656 0.42188-0.55078 0.66406-1.2578 0.71094-1.9531 0.09375-1.5 0.035156-3.0312 0.035156-4.5352-0.066406-51.164 0.035157-47.258-0.0625-47.969zm-1.6914 50.117c0.019532 1.8242 0.19141 2.6953-0.54297 3.418-0.30078 0.29688-0.64063 0.45703-1.0586 0.5-0.69922 0.070312-53.438 0.035156-53.93-0.027344-0.50391-0.066406-0.97656-0.30859-1.3477-0.64844-0.53125-0.48438-0.77344-1.1289-0.8125-1.8359-0.050781-0.91797-0.011719-13.395-0.007812-47.25-0.003907-2.7383-0.29297-3.9727 0.48828-4.8047 0.20703-0.22266 0.59766-0.49609 0.90234-0.53516 0.21875-0.027344 2.2461 0.003906 52.02-0.035157 2.1602-0.011719 2.9297-0.21484 3.7617 0.57422 0.53906 0.51172 0.52734 1.1641 0.53906 1.8594 0 0.023437-0.015625 48.023-0.011719 48.785z"/>
<text x="0.0" y="117.5" font-size="5.0" font-weight="bold" font-family="Arbeit Regular, Helvetica, Arial-Unicode, Arial, Sans-serif" fill="#000000">Created by PixelX</text><text x="0.0" y="122.5" font-size="5.0" font-weight="bold" font-family="Arbeit Regular, Helvetica, Arial-Unicode, Arial, Sans-serif" fill="#000000">from Noun Project</text></svg>