<svg xmlns="http://www.w3.org/2000/svg" version="1.1" viewBox="-5.0 -10.0 110.0 135.0">
 <path d="m52.168 89.809c0.60156 0.48828 1.1914 0.96875 1.8945 1.3086 0.62109 0.30078 1.6836 0.66016 2.3594 0.39453 0.22656-0.089844 0.38672-0.25391 0.47266-0.48438 0.35156-0.94922-0.34766-2.3242-0.74609-3.1641 3.0508 0.20703 5.707-0.33203 8.5547-2.1328 1.0234-0.64844 1.9922-1.4258 2.875-2.3398 1.6836-1.7422 2.6367-3.457 3.5273-5.6523 3.9141-0.46875 8.1602-2.8047 10.09-6.3594 1.6523-3.043 1.5859-5.6016 0.62109-8.8242 1.5703 0.78125 3.2812 0.17578 4.1055-1.1094 0.96875-1.5156 0.46094-3.6758-1.1758-4.5664-1.2344-0.67578-2.5156-0.44922-3.7734 0.050782 0.91797-2.0117 1.9258-3.2188 3.4844-4.7422-0.0625 4.4102 6.2891 5.9023 7.0156 4.8633 0.082032-0.11719 0.089844-0.26562 0.078125-0.39844-0.046875-0.50781-0.51172-1.4727-0.77344-1.9375-0.52734-0.92188-1.2305-1.7422-2.0859-2.4102 1.7031 0.042968 3.2109-0.10156 4.5625-1.4453 0.24219-0.24219 0.49609-0.57422 0.48047-0.93359-0.015625-0.31641-0.33203-0.66406-0.55859-0.87891-1.2656-1.1992-2.7578-1.4414-4.4375-1.3828 1.0547-0.89844 2.5898-2.7812 2.7422-4.1953 0.019531-0.17578-0.003907-0.33594-0.125-0.47656-0.66406-0.76563-3.6641-0.082032-5.2734 1.3516-1.0391 0.92578-1.5742 2.0625-1.6484 3.4414-1.3945-1.3438-2.7422-2.8047-3.457-4.6367 0.11719 0.066406 0.23438 0.12891 0.35156 0.18359 1.4375 0.67969 3.8906 0.29688 4.707-1.4492 1.1523-2.4688-0.90625-5.8125-4.1914-4.5195 0.28125-0.77734 0.47656-1.5547 0.58984-2.375 0.37891-2.75-0.47656-5.6758-2.1445-7.8789-1.5547-2.0508-3.8789-3.6055-6.332-4.3789-0.84766-0.26562-1.7383-0.42578-2.6172-0.54688-2.8438-6.3711-8.4336-10.742-15.336-9.9531 0.33203-0.90234 0.85938-1.7109 0.93359-2.6953 0.054688-0.71094-0.17188-1.1836-0.87891-1.2031-1.4531-0.042969-2.8594 0.91797-3.8867 1.8477 0.023437-0.49609 0.054687-0.99609 0.015625-1.4922-0.14062-1.7734-1.0469-3.3789-1.8789-4.9102h-0.34375c-1.0352 2.1367-2.082 3.8398-1.8984 6.3242-1.0117-0.90234-2.3086-1.8125-3.7383-1.7539-0.76562 0.03125-1.0312 0.50391-0.95703 1.2734 0.082031 0.86328 0.42969 1.7734 0.87109 2.5156-1.2773-0.082031-2.3516-0.12891-4.2539 0.31641-2.207 0.51953-4.2656 1.5469-6.0117 3.0078-2.3086 1.9336-3.6523 4.0625-4.8711 6.7461-0.46094-0.039062-0.96484 0.085938-1.4141 0.17969-2.0156 0.43359-4.0977 1.2227-5.6914 2.5547-2.3594 1.9805-3.832 4.3984-4.1094 7.5195-0.15625 1.7617 0.22656 3.3203 0.57422 5.0156-0.71875-0.39453-1.4688-0.48047-2.2578-0.25-0.84375 0.24609-1.4805 0.75-1.8945 1.5273-1.4961 2.8008 0.83984 5.7461 4.0039 4.7266 0.39453-0.125 0.75781-0.30859 1.125-0.49609-0.76172 1.8164-1.9922 3.4102-3.3789 4.7891-0.95312-5.082-6.5352-5.6758-7.1562-4.7656-0.32422 0.47656 0.39062 2 0.67969 2.5078 0.50391 0.88281 1.1836 1.6523 2 2.2578-1.4961 0.10156-2.8984 0.31641-4.2266 1.0664-0.47656 0.26953-1.1484 0.68359-1.0977 1.2148 0.027343 0.30469 0.28906 0.55469 0.51953 0.72656 1.2812 0.95703 3.1953 1.418 4.7695 1.4336-1.1172 0.97266-2.0391 2.1211-2.5508 3.5234-0.097656 0.26172-0.20312 0.54297-0.22266 0.82422-0.039063 0.52734 0.28516 0.72656 0.81641 0.74609 1.5977 0.066406 3.5898-0.6875 4.7461-1.7891 0.88672-0.84766 1.3906-1.9492 1.8047-3.0859 1.293 1.2578 2.3984 2.7891 3.2031 4.543-1.0273-0.45703-2.1367-0.76562-3.2344-0.35156-0.90234 0.34375-1.625 1.0117-2.0078 1.8984-0.32422 0.75-0.35547 1.5859-0.039063 2.3438 0.73828 1.7695 2.6875 2.3594 3.9727 1.793 0.1875-0.082031 0.35156-0.20312 0.51563-0.32031-0.93359 3.0781-1.1406 5.9961 0.42187 8.9336 1.9297 3.625 6.125 6.0039 10.059 6.5 1.3945 3.2383 3.3711 5.8906 6.3516 7.8359 0.74609 0.48438 1.5 0.92578 2.3281 1.2578 2.0898 0.83984 4.2188 1.1523 6.4648 0.99609-0.36719 0.83984-1.0859 2.3203-0.74609 3.2344 0.039062 0.10938 0.10547 0.20703 0.16797 0.30078 0.80859 0.34375 1.5781 0.16797 2.3633-0.15625 0.80469-0.32813 1.4648-0.82813 2.0859-1.4297-0.035156 3.4062 1.3633 5.043 1.9297 6.3984h0.40625c0.29688-0.83984 2.3203-3.8086 1.7812-6.4023zm4.1367 1.1445c-0.9375 0.28906-2.5703-0.64453-3.3203-1.2617-1.4883-1.2266-2.4023-3.4258-2.5938-5.3125 0.61719 0.32422 1.168 0.75391 1.8008 1.0664 1.8164 0.89453 2.0078 0.34766 3.2227 2.3359 0.50391 0.83203 1.1289 2.1719 0.89063 3.1719zm26.156-33.855c0.41406-0.023437 0.81641-0.035156 1.2227 0.066406 2.2734 0.55859 2.8125 3.2031 1.2305 4.5508-1.1914 1.0234-2.8711 0.625-3.3555-0.33984-0.21094-0.41406-0.21875-1.0078-0.058594-1.4453 0.31641-0.87891 1.8438-1.2266 2.2695-0.32422 0.078125 0.16406 0.089844 0.29297-0.019531 0.51562-0.44141 0.88281-0.92578 0.23828-1.2148 0.11328-0.09375-0.042969-0.10938-0.027344-0.19922 0.011719-0.023438 0.042968-0.050782 0.089844-0.0625 0.14062-0.03125 0.14453 0.042968 0.31641 0.13281 0.42969 0.29297 0.36719 1.1172 0.39062 1.5664-0.046875 0.85547-0.84375 0.11328-2.375-1.2461-2.2734-0.55078 0.039062-1.0938 0.3125-1.4453 0.74219-1.2734 1.5625 0.34375 3.7539 0.55859 6.5586 0.48047 6.2031-5.4375 10.93-11.199 11.371-1.3398 3.3828-3.1602 6.1133-6.3242 8.082-2.3633 1.4844-5.8125 2.5273-8.5898 1.8906-0.26953-0.26953-0.51953-0.5625-0.77734-0.84375 2.4922 0.40234 5.0312 0.15625 7.3359-0.90234 2.8555-1.3125 5.2891-3.7109 6.7109-6.5117 0.39453-0.77734 0.67578-1.6094 0.97656-2.4258 0.51172-0.042969 1.0234-0.11719 1.5273-0.22266 4.9023-1.0234 9.1914-4.1445 9.5391-9.1367 0.14844-2.0898-0.48047-3.3789-0.82031-5-0.22266-1.0625-0.28125-3.0156 0.35547-3.9414 0.41797-0.625 1.1836-0.92578 1.8867-1.0586zm8.3516-0.83984c0.058594 0.15234 0.11328 0.27734 0.042969 0.43359-0.125 0.007813 0.011719 0.054688-0.59766 0.015625-1.4766-0.097656-3.25-0.82422-4.2344-1.9609-0.58984-0.67969-1.0977-1.8594-1.0156-2.7695 0.023438-0.27344 0.12109-0.375 0.33203-0.54687 0.62109 0.12109 1.2383 0.27734 1.8164 0.52734 1.668 0.72266 3.0195 2.6602 3.6562 4.3008zm-0.32812-7.8984c1 0.1875 2.1484 0.80078 2.7305 1.6523-0.09375 0.11719-0.19531 0.22266-0.30469 0.32422-1.1602 1.0938-2.4766 1.4141-4.0352 1.3711-1.0625-0.13281-2.0078-0.50391-3.0391-0.76172 0.28516-0.22656 0.59375-0.42187 0.875-0.65234 0.11719-0.097657 0.21875-0.17969 0.23437-0.34375-0.10547-0.32031-0.84375-0.6875-1.1172-0.91797l-0.035156-0.03125c1.5703-0.33203 2.75-1.0078 4.6914-0.64062zm-4.582-2.9531c0.97266-1.2148 2.625-1.8984 4.1367-2.0703 0.27734-0.03125 0.55859-0.015626 0.83594-0.011719-0.21484 0.90625-0.65234 1.6719-1.1875 2.4297-1.0469 1.4805-2.0898 2.3398-3.9023 2.6562-0.20312 0.023438-0.42188 0.082032-0.62109 0.011719-0.11328-0.10156-0.16016-0.19531-0.17969-0.34375-0.089844-0.86719 0.39062-2.0117 0.91797-2.6719zm-29.289-32.629c2.5664-0.27734 5.3398 0.58203 7.5312 1.8828 2.4414 1.4492 4.3633 3.5469 5.7148 6.0312 0.35547 0.65625 0.70703 1.332 0.89062 2.0586 0.77734 0.10938 1.5547 0.22656 2.3164 0.41797 5.7656 1.4609 9.8633 6.6328 8.5312 12.785-0.37109 1.7148-1.3828 3.4336-0.47656 4.8633 0.92188 1.4531 3.0117 0.88281 3.1992-0.33203 0.050782-0.33203-0.035156-0.73047-0.24609-0.99609-0.57031-0.72266-1.8633-0.53906-1.7891 0.10547 0.015625 0.14453 0.085938 0.22656 0.19922 0.30859 0.3125-0.085938 0.34766-0.48828 0.78906-0.35547 0.28906 0.089844 0.51562 0.33984 0.53516 0.65234 0.042968 0.65625-0.81641 1.0977-1.5508 0.84766-0.86328-0.29297-1.1055-1.5117-0.80859-2.3359 0.16406-0.45313 0.45703-0.71875 0.88672-0.91016l0.0625-0.027343c0.29687-0.085938 0.57812-0.14453 0.88672-0.13281 1.457 0.058594 2.5703 1.3359 2.457 3.0508-0.10938 1.5977-1.6055 2.4766-3.1914 2.3203-0.62109-0.0625-1.5391-0.375-1.9297-0.88672-0.25781-0.33594-0.35547-0.87109-0.4375-1.2773-0.59375-2.9453 0.81641-3.7344 0.93359-6.7891 0.085937-2.2539-0.61719-4.418-1.9141-6.1523-0.53906-0.71484-1.1992-1.3164-1.9141-1.8516-2.1758-1.6328-4.5586-2.1953-7.1875-2.5586-0.10156-0.43359-0.30859-0.875-0.48437-1.2852-2.3008-5.3789-7.5039-8.8008-12.566-8.7109-0.82031 0.015625-1.6211 0.14062-2.4297 0.27344l0.88281-0.87891c0.37109-0.050781 0.74219-0.078125 1.1094-0.11719zm-0.875-3.8438c0.22266-0.027344 0.38672-0.070313 0.58203 0.0625 0.074219 0.17969 0.074219 0.32031 0.042969 0.50781-0.12109 0.76172-0.46484 1.5703-0.83203 2.2461-1.3594 2.5117-2.6055 2.1445-4.6992 3.6172l-0.50391 0.37109c0.23828-1.4609 0.74609-3.0703 1.5703-4.3125 0.88672-1.3242 2.293-2.1836 3.8398-2.4922zm-5.5586-4.1797c0.23437 0.24219 0.39062 0.67969 0.53125 0.98828 1.7617 3.9375 0.83594 4.4023-0.54297 8.0273-0.60938-1.8281-1.1836-2.4531-1.457-3.5938-0.41016-1.6797 0.59766-4 1.4688-5.4219zm-6.1914 4.2188c1.0977-0.0625 2.2461 0.41406 3.1133 1.0625 1.707 1.2695 2.5859 3.6328 2.8789 5.6797-0.55078-0.40234-1.1094-0.78125-1.7188-1.0898-1.043-0.53125-2.0078-0.76172-2.793-1.707-0.81641-0.97656-1.5938-2.6406-1.4805-3.9453zm-29.363 32.391c-0.28516-0.88281-0.058594-2.0469 0.53906-2.7773 0.51172-0.62891 1.1758-0.82031 1.9453-0.89844 0.52734 0.011719 1.1289 0.25 1.4453 0.71484 0.42969 0.63672 0.42187 1.9805-0.50391 2.5273-0.75 0.44141-1.8203-0.011719-1.5586-0.79688 0.074218-0.21875 0.26172-0.42969 0.47266-0.52344 0.39453-0.17578 0.50391 0.12891 0.83594 0.22266 0.12109 0.035157 0.19531 0.003907 0.30469-0.046875 0.039062-0.050781 0.078125-0.070312 0.078125-0.14062 0-0.10547-0.050782-0.18359-0.12109-0.25781-0.4375-0.47266-1.2812-0.45312-1.7188 0.003906-0.26562 0.27344-0.45312 0.75-0.42578 1.1367 0.046875 0.59766 0.64453 1.2031 1.7969 1.082 0.48438-0.050781 0.91406-0.23047 1.2148-0.62891 1.1797-1.5547-0.050782-3.6758-0.35938-6.3672-0.30859-2.6836 0.54688-5.4844 2.2344-7.5859 1.6758-2.0781 4.0977-3.3867 6.6953-3.9297 0.6875-0.14453 1.3906-0.21094 2.0898-0.28906 2.4453-5.9766 7.0547-9.8281 13.375-10.074 1.3672-0.023437 1.6602 0.070313 2.6406 1.0039-2.6172-0.38672-5.082-0.17188-7.5078 0.91797-3.7773 1.6992-6.5117 5.0703-7.9688 8.8906-0.74609 0.078125-1.4883 0.16797-2.2266 0.32031-5.9336 1.2305-9.4844 6.0586-8.5039 11.43 0.16797 0.91797 0.45312 1.8086 0.64062 2.7188 0.19531 0.95703 0.34375 3.0586-0.23047 3.8789-1.0078 1.4375-4.418 1.8398-5.1836-0.53125zm-4.1523 4.4688c-0.38672-0.57031-1.1328-1.7188-0.99219-2.4336 0.33203-0.23828 1.9609-0.14844 3.4062 0.68359 1.6016 0.92188 2.2305 2.3242 2.6836 4.0391-0.125 0.15234-0.25391 0.28125-0.39844 0.41016-1.9922-0.37891-3.5156-0.95312-4.6992-2.6992zm0.53906 5.7969c-1.3281-0.12109-3.2422-0.60547-4.1367-1.6758 1.1172-0.98828 2.5898-1.4102 4.043-1.5625 1.25-0.19922 2.4609 0.33203 3.6445 0.65234-0.33594 0.25391-0.91016 0.4375-1.1641 0.77344-0.074219 0.10156-0.070313 0.15625-0.058594 0.27734 0.23438 0.39453 0.85938 0.68359 1.2422 0.92578-0.9375 0.097657-1.7812 0.54688-2.7305 0.63281-0.27734 0.023437-0.56641 0.003906-0.83984-0.023438zm3.3906 2.957c-1.1055 1.3711-2.6562 1.9492-4.3594 2.1289-0.22266 0.019531-0.44922 0.003906-0.67188-0.003906 0.1875-0.875 0.55078-1.7383 1.0703-2.4648 1.1797-1.6523 2.5938-2.4141 4.5586-2.7383 0.22266 0.03125 0.48047 0.30078 0.65234 0.44141-0.26172 0.91016-0.65234 1.8984-1.25 2.6367zm2.4453-2.3789c-0.79688-0.80859-1.7578-1.5586-2.7109-2.1719 1.0039-0.64453 1.9648-1.3477 2.793-2.2148 2.3633-2.4805 4.4961-6.0508 3.8203-9.5977-0.28516-1.5039-0.84766-2.918-0.88281-4.4688-0.11328-4.7422 3.8242-9.3789 10.66-9.5391 0.61719-1.1797 1.0898-3.0703 3.0938-5.3789 2.6562-2.9961 6.0156-4.7695 10.098-4.6289 4.4688 0.15234 5.9492 2.375 6.4492 2.4023 0.14453 0.007813 1.3477-0.90625 1.5352-1.0273 1.4727-0.96484 3.2891-1.293 5.0156-1.3984 4.1055-0.34375 9.2617 2.3906 11.824 7.2891 0.44141 0.85156 0.77734 1.7539 1.0938 2.6602 2.2148 0.21875 4.3477 0.63672 6.2812 1.8047 3.1172 1.8867 5.0977 5.332 4.4766 9.0352-0.46484 2.7656-1.5156 3.4062-0.73438 6.4883 0.85156 3.3594 3.543 6.7031 6.5078 8.4688-1.4219 1.1836-2.4609 1.9219-3.6953 3.3594-1.8477 2.1562-3.4727 5.6797-2.9688 8.5586 0.24609 1.4102 0.78906 2.7305 0.89062 4.1758 0.28906 3.9961-2.7695 8.3672-9.0586 9.5898-0.23438 0.046875-0.47266 0.097657-0.71094 0.11328-0.30078 0.019532-0.73828-0.039062-1.0195 0.035157-0.22266 0.058593-0.26562 0.68359-0.55469 1.4336-1.7109 4.4258-5.875 8.1367-10.609 8.5898-2.3008 0.21875-4.832-0.17578-6.8281-1.3828-0.51953-0.3125-0.97656-0.69531-1.4453-1.082-0.71484 0.51953-2.0352 2.1055-6.2383 2.4766-2.2539 0.066406-4.3789-0.34375-6.3867-1.3867-3.375-1.75-5.7773-4.9883-6.9219-8.5703-3.9492-0.37109-7.6992-1.8906-9.6992-5.3125-2.6523-4.5391 0.69531-7.3633-0.22656-11.664-0.51172-2.3867-2.1406-4.9258-3.8477-6.6562zm27.164 35.016c-3.2656 0.46484-6.6602-0.85938-9.2383-2.7891-2.4648-1.9102-4.1406-4.3281-5.2422-7.2344-0.95312-0.13281-1.6641-0.23047-2.5312-0.48828-5.6445-1.6758-9.6094-6.5273-8.2891-12.453 0.45312-2.0195 1.4141-4.1445 0.0625-5.3008-1.1094-0.95312-3.1328-0.5-2.8203 1.125 0.11719 0.59766 0.71875 1.1016 1.4453 0.93359 0.24219-0.058594 0.62109-0.23047 0.73047-0.47656 0.042969-0.09375 0.027344-0.15234-0.007812-0.24609-0.35547-0.17578-0.87891 0.39062-1.3516 0.1875-0.14844-0.0625-0.23828-0.21094-0.28516-0.35938-0.078125-0.23828-0.085937-0.45703 0.039063-0.67969 0.30859-0.55078 1.2305-0.52734 1.7617-0.17188 0.55859 0.37109 0.81641 1.3789 0.24219 2.2305-1.082 1.5977-3.7148 0.61719-4.0508-1.2695-0.25-1.3906 0.76953-2.9453 2.5977-3.2227 0.83203-0.046874 2.2148 0.44531 2.6836 1.1445 0.21094 0.3125 0.29297 0.70703 0.35547 1.0742 0.35547 2.0234-0.35156 3.8203-0.70312 5.7812-0.41797 2.3164 0.070313 4.6484 1.4219 6.5742 0.5625 0.80469 1.2773 1.5078 2.0508 2.1094 2.2383 1.75 4.5273 2.2852 7.2344 2.7695 1.0664 2.7305 2.6367 5.2578 4.957 7.1016 2.1602 1.7148 4.9336 2.7773 7.6875 2.8672 0.86328 0.027343 1.707-0.058594 2.5625-0.15625-0.20703 0.25391-0.39453 0.52344-0.60938 0.77734-0.23047 0.078125-0.45703 0.13672-0.70312 0.17188zm3.7461 2.0781c-0.94531 0.98438-2.3164 1.6992-3.6992 1.7227-0.375-0.54688 0.39062-2.2617 0.66406-2.8438 0.39844-0.83984 0.98438-1.7734 1.8594-2.1719 0.88672-0.40234 1.457-0.32031 3.3047-1.6211 0.058593 0.054687 0.058593 0.082031 0.054687 0.16406-0.007812 0.30078-0.14453 0.66406-0.22656 0.95703-0.39844 1.3945-0.93359 2.7305-1.957 3.793zm2.4062 5.9102c-0.17578-0.17188-0.29297-0.50781-0.40234-0.73438-2.2148-4.7227-0.74609-5.043 0.375-8.1484 0.20703 0.42188 0.37109 0.87109 0.56641 1.3008 0.28125 0.61719 0.625 1.1914 0.82422 1.8438 0.59766 1.9688-0.45703 4.0391-1.3633 5.7383z"/>
 <path d="m22.047 65.07c-1.125 4.6953 3.5039 8.1133 8.2578 8.9023 0.64453 0.10547 1.3125 0.10938 1.9492 0.23047 0.38672 0.98828 0.71484 1.9961 1.1875 2.9492 1.2188 2.457 3.3203 4.625 5.8477 5.7383 2.4141 1.0625 5.0625 1.0117 7.5 0.050781 1.2656-0.5 2.3047-1.2617 3.3945-2.043 2.5547 1.875 4.9141 3.125 8.1914 2.6836 2.6445-0.30078 5.0625-1.8672 6.707-3.9258 2.5195-3.1523 2.4219-5.0117 2.8008-5.3516 0.10938-0.097657 2.7695-0.49219 3.1953-0.60156 2.7891-0.72266 5.6602-2.332 6.8242-5.0898 1.1328-2.6875-0.16016-4.3281-0.53516-6.3828-0.62891-3.4453 1.0898-7.2383 3.1914-9.9023 0.67578-0.85547 1.4414-1.6133 2.2773-2.3164-2.8711-2.4375-5.2188-5.9688-5.5273-9.8047-0.21875-2.6836 0.67578-3.7188 1.0273-5.2578 0.54297-2.3828-0.51953-4.8086-2.332-6.3633-2.2617-1.9414-5.1055-2.6289-7.9961-2.9219-0.23828-0.73828-0.46094-1.4883-0.78516-2.1953-2.2969-5.0312-7.6094-8.3281-12.664-6.6875-1.5703 0.51172-3.2031 1.4805-4.3398 2.6875-0.51562-0.37109-0.98047-0.80078-1.5-1.168-1.8242-1.2773-4.1016-2.168-6.3672-1.9062-2.9258 0.23828-5.3477 1.6797-7.2227 3.8906-1.3438 1.5859-2.2852 3.5938-2.9336 5.5625-2.9023 0.027344-6.168 1.0078-8.2344 3.1055-1.1875 1.207-2.0391 2.8164-2.0234 4.5391 0.011719 1.6055 0.77344 3.0547 1.0469 4.6133 0.65234 3.7188-1.6914 8.2773-4.2383 10.914-0.35156 0.36328-0.73828 0.74219-1.1406 1.0469 2.7539 2.3086 5.082 5.9961 5.3984 9.6289 0.22656 2.5742-0.61719 3.9531-0.95703 5.375zm1.582-26.859c-0.45703-2.7734-2.3906-5.1367 0.47656-8.457 1.4688-1.707 3.793-2.6953 5.9727-3.0664 0.86719-0.14844 1.7461-0.19922 2.6211-0.25781 0.74219-2.2227 1.6328-4.3125 3.207-6.0859 1.7969-2.0234 4.0977-3.1602 6.7891-3.3203 2.0352-0.16406 4.1484 0.66797 5.7539 1.8633 0.61719 0.45703 1.1641 0.99219 1.7578 1.4805 1.0742-1.0664 2.2031-2.0039 3.6016-2.6133 2.1992-0.96094 4.5586-0.96484 6.7812-0.070312 2.5898 1.0391 4.8789 3.4453 6 5.9883 0.37891 0.85547 0.59375 1.8711 0.94922 2.6641 0.019532 0.003906 5.2148-0.17578 8.4805 3.1758 1.4609 1.4961 2.1367 3.5156 1.5938 5.5664-0.44531 1.6758-1.0156 2.4375-1.0273 4.3359-0.023438 4.1133 2.4219 7.8008 5.2031 10.613-0.73437 0.78125-1.4609 1.4883-2.0977 2.3594-2.0312 2.7656-3.5586 6.4297-2.9766 9.918 0.35938 2.1445 2.0938 4.3945-0.16016 7.3633-1.8906 2.4883-4.8984 3.3789-7.8555 3.7891-0.45312 0.0625-1.0195 0.11719-1.3594 0.45312-0.21875 0.21484-0.61328 1.7461-0.79297 2.1602-0.4375 1.0039-1.0469 1.9766-1.707 2.8477-1.7031 2.2422-3.8359 3.6367-6.6367 4.0195-3.2422 0.375-5.5781-0.93359-8.0312-2.8633-2.3828 1.8281-4.2266 3.0078-7.3906 2.9336-3.9727-0.089843-7.3281-3-8.9258-6.5-0.25391-0.55859-0.91797-2.5859-1.2617-2.8281-0.35156-0.25-1.6797-0.27344-2.1797-0.34375-2.3008-0.33203-4.7578-1.4492-6.3594-3.1484-0.51563-0.54688-0.90234-1.1758-1.1797-1.8711-1.4766-3.668 2.1953-5.1758 0.25391-11.141-0.91797-2.8164-2.4766-5.0078-4.5-7.1367 2.9961-2.9375 5.6836-7.6758 5-11.828z"/>
<text x="0.0" y="117.5" font-size="5.0" font-weight="bold" font-family="Arbeit Regular, Helvetica, Arial-Unicode, Arial, Sans-serif" fill="#000000">Created by PixelX</text><text x="0.0" y="122.5" font-size="5.0" font-weight="bold" font-family="Arbeit Regular, Helvetica, Arial-Unicode, Arial, Sans-serif" fill="#000000">from Noun Project</text></svg>