<svg xmlns="http://www.w3.org/2000/svg" version="1.1" viewBox="-5.0 -10.0 110.0 135.0">
 <path d="m87.168 45.992c1.7188-0.019532 3.1016-1.418 3.1016-3.1328 0-1.7188-1.3828-3.1172-3.1016-3.1367-0.53516-0.003906-0.96875-0.4375-0.96875-0.97656v-6.0664c0-0.51953 0.40625-0.94922 0.92578-0.97266 1.0977-0.054687 2.0859-0.67578 2.6094-1.6406s0.50391-2.1367-0.054687-3.082c-0.55469-0.94531-1.5664-1.5312-2.6641-1.5469-1.0977-0.011719-2.1211 0.55078-2.7031 1.4844-0.27734 0.44531-0.85938 0.59375-1.3164 0.32812l-4.5703-2.6445c-0.44141-0.25391-0.61328-0.80859-0.39062-1.2695 0.72266-1.4727 0.17969-3.2578-1.2422-4.0781-1.4219-0.82422-3.2344-0.40625-4.1562 0.95313-0.28906 0.42187-0.85547 0.55078-1.2969 0.29687l-5.3477-3.0938c-0.22656-0.13281-0.39453-0.35156-0.45703-0.60937-0.066406-0.25391-0.023437-0.52734 0.11328-0.75l0.011718-0.019532c0.015625-0.023437 0.03125-0.046875 0.042969-0.074218h0.003906c0.85938-1.5039 0.33984-3.418-1.1602-4.2812-0.71875-0.41406-1.5742-0.52344-2.375-0.30469s-1.4805 0.74609-1.8906 1.4688l-0.039062 0.074219c-0.125 0.23438-0.33984 0.40625-0.59375 0.48047-0.25391 0.070312-0.52734 0.039062-0.75781-0.09375l-5.7422-3.3242c-0.44922-0.26172-0.61719-0.83203-0.375-1.293 0.50391-0.96875 0.46875-2.1328-0.097657-3.0664-0.56641-0.93359-1.5781-1.5039-2.6719-1.5078-1.0898 0-2.1055 0.56641-2.6719 1.5-0.57031 0.93359-0.60938 2.0938-0.10938 3.0625 0.24219 0.46484 0.074219 1.0352-0.375 1.2969l-5.8008 3.3516c-0.22656 0.13281-0.49219 0.16797-0.74609 0.097656-0.25-0.066406-0.46484-0.23438-0.59375-0.46094-0.023437-0.042969-0.050781-0.085938-0.078125-0.12891-0.91406-1.4453-2.8164-1.8906-4.2773-0.99609-1.457 0.89062-1.9297 2.7891-1.0586 4.2617 0.13281 0.22266 0.16797 0.49219 0.10156 0.74219-0.066406 0.25391-0.23047 0.46875-0.45312 0.59766l-5.3438 3.0898c-0.46094 0.26953-1.0508 0.11719-1.3242-0.34375l-0.046876-0.082032-0.003906 0.003907c-0.44141-0.70312-1.1445-1.1992-1.9531-1.3828-0.80859-0.18359-1.6562-0.035156-2.3555 0.40625-1.4102 0.89453-1.875 2.7344-1.0586 4.1875 0.26172 0.46484 0.10156 1.0547-0.36328 1.3242l-4.4922 2.6016c-0.45703 0.26172-1.0391 0.11719-1.3164-0.32813-0.58203-0.92578-1.6055-1.4805-2.6953-1.4648-1.0898 0.015625-2.0938 0.60156-2.6484 1.543-0.55469 0.9375-0.58203 2.1016-0.066406 3.0625 0.51562 0.96094 1.4922 1.5859 2.582 1.6484 0.51953 0.027344 0.92578 0.45703 0.92578 0.97656v6.0664c0 0.53516-0.42969 0.97266-0.96484 0.97656-1.7344 0-3.1367 1.4062-3.1367 3.1367s1.4023 3.1328 3.1367 3.1328c0.53516 0.007812 0.96484 0.44141 0.96484 0.97656v6.0625c0 0.53516-0.42969 0.97266-0.96484 0.97656-1.7344 0-3.1367 1.4062-3.1367 3.1367s1.4023 3.1328 3.1367 3.1328c0.53516 0.007812 0.96484 0.44141 0.96484 0.97656v6.0703c0 0.51953-0.40625 0.94531-0.92578 0.97266-1.0859 0.058594-2.0664 0.67578-2.5859 1.6328-0.51953 0.95703-0.50781 2.1172 0.035157 3.0586 0.54297 0.94531 1.5352 1.543 2.625 1.5742 1.0859 0.03125 2.1133-0.5 2.7148-1.4102 0.28125-0.43359 0.85547-0.57031 1.3047-0.30859l4.6367 2.6836c0.46094 0.26562 0.625 0.85156 0.36719 1.3164-0.80859 1.4883-0.28516 3.3516 1.1797 4.1992 1.4688 0.84766 3.3398 0.375 4.2305-1.0664 0.27344-0.45703 0.86328-0.60937 1.3281-0.34375l5.2148 3.0156-0.003906 0.003906c0.23438 0.13281 0.40234 0.35938 0.46484 0.62109 0.058593 0.26172 0.007812 0.53906-0.14063 0.76562-0.039062 0.058594-0.078124 0.12109-0.11328 0.18359v-0.003906c-0.85547 1.5039-0.33984 3.418 1.1602 4.2812 0.72266 0.41406 1.5742 0.52344 2.375 0.30469 0.80078-0.21875 1.4805-0.74609 1.8906-1.4688 0.03125-0.054688 0.0625-0.11328 0.089844-0.16797 0.12109-0.24219 0.33203-0.42578 0.59375-0.50391 0.25781-0.078124 0.53906-0.046874 0.76953 0.089844l5.8086 3.3594c0.44531 0.25781 0.61328 0.8125 0.39062 1.2734-0.47656 0.96875-0.41406 2.1133 0.15625 3.0312 0.57422 0.91406 1.5781 1.4688 2.6562 1.4648 1.0781 0 2.082-0.55859 2.6523-1.4727 0.57031-0.91797 0.625-2.0625 0.14844-3.0312-0.22656-0.46094-0.054688-1.0195 0.38672-1.2773l5.7266-3.3125c0.23047-0.13281 0.5-0.16797 0.75391-0.09375 0.25391 0.070313 0.46875 0.24219 0.59375 0.47266 0.03125 0.058593 0.066406 0.12109 0.10156 0.17969h0.003906c0.44141 0.69922 1.1445 1.1992 1.9531 1.3789 0.80859 0.18359 1.6562 0.039063 2.3594-0.40625 1.4375-0.92187 1.8789-2.8242 0.99609-4.2852-0.13672-0.22656-0.17969-0.49609-0.11328-0.75 0.0625-0.25391 0.22656-0.47266 0.45703-0.60547l5.2109-3.0156c0.46094-0.26562 1.0547-0.11328 1.3281 0.34766l0.039062 0.0625h-0.003906c0.44141 0.70312 1.1445 1.1992 1.9531 1.3828 0.80859 0.17969 1.6562 0.035157 2.3594-0.41016 1.4023-0.89062 1.8672-2.7188 1.0625-4.1719-0.25781-0.46484-0.097656-1.0547 0.36328-1.3203l4.7109-2.7266c0.44922-0.25781 1.0234-0.12109 1.3047 0.3125 0.59766 0.90625 1.625 1.4414 2.7109 1.4062 1.0898-0.035156 2.0781-0.62891 2.6211-1.5742 0.53906-0.94141 0.55078-2.0977 0.027344-3.0547-0.51953-0.95312-1.5-1.5703-2.5859-1.625-0.51953-0.023438-0.92578-0.45312-0.92578-0.97266v-6.0664c0-0.53906 0.43359-0.97266 0.96875-0.97656 1.7305 0 3.1367-1.4023 3.1367-3.1367 0-1.7305-1.4062-3.1328-3.1367-3.1328-0.53516-0.003906-0.96875-0.44141-0.96875-0.97656v-6.0625c0-0.53516 0.43359-0.97266 0.96875-0.97656zm-6.9297 19.359v0.003907c0 1.3242-0.70703 2.5469-1.8516 3.2109l-26.527 15.348c-1.1523 0.66406-2.5664 0.66406-3.7188 0l-26.527-15.348c-1.1445-0.66406-1.8516-1.8867-1.8516-3.2109v-30.711c0-1.3242 0.70703-2.5469 1.8516-3.2109l26.527-15.348c1.1523-0.66406 2.5664-0.66406 3.7188 0l26.527 15.348c1.1445 0.66406 1.8516 1.8867 1.8516 3.2109z"/>
<text x="0.0" y="117.5" font-size="5.0" font-weight="bold" font-family="Arbeit Regular, Helvetica, Arial-Unicode, Arial, Sans-serif" fill="#000000">Created by Icongeek26</text><text x="0.0" y="122.5" font-size="5.0" font-weight="bold" font-family="Arbeit Regular, Helvetica, Arial-Unicode, Arial, Sans-serif" fill="#000000">from Noun Project</text></svg>