<svg xmlns="http://www.w3.org/2000/svg" version="1.1" viewBox="-5.0 -10.0 110.0 135.0">
 <g>
  <path d="m90.762 8.8008c-1.6758 0.23438-3.4219-0.25391-4.7188-1.3516h-72.086c-1.3008 1.0938-3.0469 1.5859-4.7188 1.3516 0.039063 0.27734 0.058594 0.5625 0.058594 0.84766 0 1.4336-0.49609 2.7891-1.4102 3.8711v72.082c0.91406 1.082 1.4102 2.4375 1.4102 3.8711 0 0.28516-0.019531 0.57031-0.058594 0.85156 1.6719-0.23828 3.4219 0.25781 4.7188 1.3516h72.086c1.3008-1.0938 3.0469-1.5898 4.7188-1.3516-0.039063-0.27734-0.058594-0.5625-0.058594-0.85156 0-1.4336 0.49609-2.7891 1.4102-3.8711l-0.003906-72.082c-0.91406-1.082-1.4102-2.4375-1.4102-3.8711 0.003906-0.28516 0.023437-0.57031 0.0625-0.84766zm0.87109 4.8906v71.738c-0.91406 1.1445-1.4102 2.5547-1.4102 4.043 0 0.10547 0.003906 0.21094 0.007813 0.31641-1.5859-0.070312-3.1328 0.42578-4.3555 1.4023h-71.746c-1.2266-0.98047-2.7812-1.4727-4.3555-1.4023 0.003906-0.10547 0.007812-0.21094 0.007812-0.31641 0-1.4883-0.49609-2.8984-1.4102-4.043l-0.003906-71.738c0.91406-1.1445 1.4102-2.5547 1.4102-4.043 0-0.10547 0-0.21094-0.007813-0.31641 1.5781 0.074219 3.1328-0.42188 4.3594-1.4023h71.742c1.2266 0.98047 2.7695 1.4844 4.3555 1.4023-0.003906 0.10547-0.007812 0.21094-0.007812 0.31641 0.003906 1.4883 0.5 2.8984 1.4141 4.043z"/>
  <path d="m93.59 9.6484c0-0.83594 0.32422-1.6211 0.91406-2.2109 0.33203-0.32812 0.49609-0.76172 0.49609-1.1914 0-0.42969-0.16406-0.86328-0.49219-1.1914-0.65625-0.66016-1.7266-0.66016-2.3828 0-1.1836 1.1836-3.2422 1.1836-4.4258 0-0.31641-0.31641-0.74609-0.49219-1.1914-0.49219h-73.02c-0.44531 0-0.875 0.17969-1.1914 0.49219-1.1797 1.1758-3.2383 1.1836-4.4258 0-0.66016-0.66016-1.7227-0.66016-2.3828 0-0.32422 0.32812-0.48828 0.76172-0.48828 1.1914 0 0.42969 0.16406 0.86328 0.49219 1.1914 0.59375 0.58984 0.91797 1.375 0.91797 2.2109 0 0.83594-0.32422 1.625-0.91406 2.2148-0.31641 0.31641-0.49609 0.74219-0.49609 1.1914v73.016c0 0.44531 0.17969 0.875 0.49219 1.1914 0.58984 0.58984 0.91406 1.3789 0.91406 2.2148 0 0.83594-0.32422 1.6211-0.91406 2.2148-0.32813 0.32422-0.49219 0.75391-0.49219 1.1836 0 0.43359 0.16406 0.86328 0.49219 1.1914 0.65625 0.65625 1.7227 0.65625 2.3828 0 1.1836-1.1836 3.2422-1.1836 4.4258 0 0.31641 0.31641 0.74219 0.49219 1.1914 0.49219h73.02c0.44531 0 0.875-0.17969 1.1914-0.49219 1.1836-1.1836 3.2422-1.1836 4.4258 0 0.32812 0.32812 0.75781 0.49219 1.1914 0.49219 0.42969 0 0.86328-0.16406 1.1914-0.49219 0.32422-0.32812 0.48828-0.75781 0.48828-1.1914 0-0.42969-0.16406-0.86328-0.49219-1.1875-0.58984-0.59375-0.91406-1.3789-0.91406-2.2148 0-0.83594 0.32422-1.6211 0.91406-2.2148 0.3125-0.3125 0.49219-0.74219 0.49219-1.1875v-73.016c0-0.44531-0.17969-0.875-0.49219-1.1914-0.59375-0.59375-0.91797-1.3789-0.91797-2.2148zm-0.51562 76.324c-0.91016 0.94531-1.4102 2.1875-1.4102 3.5039 0 0.81641 0.19141 1.6016 0.55469 2.3047-0.70312-0.36328-1.4922-0.55469-2.3086-0.55469-1.3164 0-2.5547 0.5-3.5039 1.4102h-72.816c-0.94531-0.91016-2.1875-1.4102-3.5-1.4102-0.81641 0-1.6016 0.19141-2.3086 0.55469 0.36328-0.70312 0.55469-1.4922 0.55469-2.3047 0-1.3164-0.5-2.5586-1.4102-3.5039v-72.82c0.91016-0.94531 1.4102-2.1875 1.4102-3.5039 0-0.81641-0.19141-1.6016-0.55469-2.3047 0.70312 0.36328 1.4922 0.55469 2.3047 0.55469 1.3164 0 2.5547-0.5 3.5-1.4102h72.824c0.94531 0.91016 2.1875 1.4102 3.5039 1.4102 0.81641 0 1.6016-0.19141 2.3086-0.55469-0.36328 0.70312-0.55469 1.4922-0.55469 2.3086 0 1.3164 0.5 2.5547 1.4102 3.5039z"/>
 </g>
<text x="0.0" y="117.5" font-size="5.0" font-weight="bold" font-family="Arbeit Regular, Helvetica, Arial-Unicode, Arial, Sans-serif" fill="#000000">Created by luca fruzza</text><text x="0.0" y="122.5" font-size="5.0" font-weight="bold" font-family="Arbeit Regular, Helvetica, Arial-Unicode, Arial, Sans-serif" fill="#000000">from Noun Project</text></svg>