<svg xmlns="http://www.w3.org/2000/svg" version="1.1" viewBox="-5.0 -10.0 110.0 135.0">
 <path d="m75.145 16.164c-6.6914-9.1641-15.621-14.211-25.145-14.211s-18.453 5.0469-25.145 14.211c-6.6055 9.0508-10.246 21.07-10.246 33.836s3.6406 24.785 10.246 33.836c6.6914 9.1641 15.621 14.211 25.145 14.211s18.453-5.0469 25.145-14.211c6.6055-9.0508 10.246-21.07 10.246-33.836s-3.6406-24.785-10.246-33.836zm-25.145-11.867c5.5586 0 10.801 1.9102 15.402 5.2773l-1.2578 5.293c-4.2422-3.5312-9.0859-5.418-14.145-5.418s-9.9023 1.8828-14.145 5.4141l-1.2578-5.293c4.6016-3.3633 9.8438-5.2734 15.402-5.2734zm25.715 45.156c0 20.766-11.535 37.66-25.715 37.66s-25.715-16.895-25.715-37.66 11.535-37.66 25.715-37.66 25.715 16.895 25.715 37.66zm-43.141 39.363c-9.3711-8.0781-15.621-22.457-15.621-38.816s6.25-30.738 15.621-38.812l1.3047 5.4922v-0.003907c-1.4219 1.4336-2.7109 2.9922-3.8555 4.6523-5.2109 7.5273-8.082 17.516-8.082 28.125s2.8711 20.598 8.082 28.125c1.1992 1.7461 2.5625 3.3711 4.0625 4.8633zm17.426 6.8867c-5.5586 0-10.801-1.9102-15.402-5.2773l1.4727-6.1992c4.1875 3.4141 8.9531 5.2344 13.926 5.2344s9.7383-1.8164 13.926-5.2344l1.4727 6.1992c-4.5938 3.3672-9.8359 5.2773-15.395 5.2773zm17.426-6.8867-1.5117-6.375c1.5-1.4883 2.8633-3.1172 4.0625-4.8594 5.2109-7.5273 8.082-17.516 8.082-28.125s-2.8711-20.598-8.082-28.125c-1.1445-1.6641-2.4336-3.2188-3.8555-4.6523l1.3047-5.4922c9.3711 8.0742 15.621 22.453 15.621 38.812s-6.25 30.738-15.621 38.816z"/>
<text x="0.0" y="117.5" font-size="5.0" font-weight="bold" font-family="Arbeit Regular, Helvetica, Arial-Unicode, Arial, Sans-serif" fill="#000000">Created by Icongeek26</text><text x="0.0" y="122.5" font-size="5.0" font-weight="bold" font-family="Arbeit Regular, Helvetica, Arial-Unicode, Arial, Sans-serif" fill="#000000">from Noun Project</text></svg>