<svg xmlns="http://www.w3.org/2000/svg" version="1.1" viewBox="-5.0 -10.0 110.0 135.0">
 <path d="m89.602 16.703v-1.5h-2.7617v-0.69531h1.3789v-1.5h-1.3789v-5.2109h-5.2188v-1.375h-1.5039v1.375h-0.69531v-2.7969h-1.5039v2.7969l-55.812-0.035156v-2.7617h-1.5v2.7617h-0.69531v-1.3789h-1.5v1.3789h-5.2109v5.2188h-1.375v1.5039h1.375v0.69531h-2.8008v1.5039h2.7969l-0.035156 66.613h-2.7617v1.5h2.7617v0.69531h-1.3789v1.5h1.3789v5.2109h5.2188v1.375h1.5039v-1.375h0.69531v2.7969h1.5039v-2.7969l55.816 0.039063-0.003907 2.7578h1.5v-2.7617h0.69531v1.3789h1.5v-1.3789h5.2109v-5.2188h1.375l0.003907-1.5h-1.375v-0.69531l2.7969-0.003907v-1.5h-2.8008l0.039063-66.617zm-7.9805-5.3633h1.6719v1.668h-1.6719zm0 3.168h1.6719v0.69531h-1.6719zm-2.1992-5.2109h0.69531v0.54297h-0.69531zm0 2.043h0.69531v1.668h-0.69531zm0 3.168h0.69531v0.69531h-0.69531zm-59.512-5.2461h0.69531v0.54297h-0.69531zm0 2.0469h0.69531v1.6719h-0.69531zm0 3.1719h0.69531v0.69531h-0.69531zm-5.2109-5.2188h3.7109v0.54297h-3.168v3.1719h-0.54297zm2.043 3.7188v-1.6719h1.668v1.6719zm1.668 1.5039v0.69531h-1.668v-0.69531zm-3.7109 0h0.54297v0.69531h-0.54297zm-0.035157 70.312h0.54297v0.69531h-0.54297zm3.7188 5.9062h-3.7188v-3.7109h0.54297v3.168h3.1719zm0-2.043h-1.6758v-1.668h1.6719zm0-3.168h-1.6758v-0.69531h1.6719zm2.1992 5.2109h-0.69531v-0.54297h0.69531zm0-2.043h-0.69531l-0.003907-1.668h0.69531zm0-3.168h-0.69531v-0.69531h0.69531zm59.512 5.2461h-0.69531v-0.54297h0.69531zm0-2.0469h-0.69531l-0.003907-1.6719h0.69531zm0-3.1719h-0.69531v-0.69531h0.69531zm5.2109 5.2188h-3.7148v-0.54297h3.168v-3.1758h0.54297zm-2.043-3.7188v1.6719h-1.6719v-1.6719zm-1.668-1.5039v-0.69531h1.668v0.69531zm3.7109 0h-0.54297v-0.69531h0.54297zm0-2.1992h-0.54297l-0.003907-3.5703h-1.5v3.5742h-5.3633v5.3711h-3.5664v1.5039h3.5703v0.54297l-55.816-0.035156v-0.54297h3.5742v-1.5h-3.5742v-5.3633h-5.3711l-0.003907-3.5703h-1.5v3.5703h-0.54297l0.035157-66.613h0.54297v3.5742h1.5v-3.5742h5.3633v-5.375h3.5703l-0.003906-1.5039h-3.5664v-0.54297l55.816 0.035156v0.54297h-3.5742v1.5h3.5742v5.3633h5.3711v3.5703h1.5039l-0.003906-3.5703h0.54297zm0.035156-68.113h-0.54297v-0.69531h0.54297zm0-2.1953h-0.54297l-0.003906-3.168h-3.1719v-0.54297h3.7188z"/>
<text x="0.0" y="117.5" font-size="5.0" font-weight="bold" font-family="Arbeit Regular, Helvetica, Arial-Unicode, Arial, Sans-serif" fill="#000000">Created by Kim Sun Young</text><text x="0.0" y="122.5" font-size="5.0" font-weight="bold" font-family="Arbeit Regular, Helvetica, Arial-Unicode, Arial, Sans-serif" fill="#000000">from Noun Project</text></svg>