<svg xmlns="http://www.w3.org/2000/svg" version="1.1" viewBox="-5.0 -10.0 110.0 135.0">
 <path d="m86.957 5h-4.2812c-1.4609 0-2.6406 1.1836-2.6445 2.6406v1.5352l-60.062-0.12109v-1.4141c-0.003906-1.457-1.1836-2.6406-2.6445-2.6406h-4.2812c-1.4609 0-2.6406 1.1836-2.6445 2.6406v4.2852c0.003906 1.457 1.1836 2.6406 2.6445 2.6406h1.5352l-0.125 70.867h-1.4102c-1.4609 0-2.6406 1.1836-2.6445 2.6406v4.2852c0.003906 1.457 1.1836 2.6406 2.6445 2.6406h4.2852-0.003906c1.4609 0 2.6406-1.1836 2.6445-2.6406v-1.5352l60.066 0.12109v1.4141h-0.003906c0.003906 1.457 1.1836 2.6406 2.6445 2.6406h4.2852-0.003907c1.4609 0 2.6406-1.1836 2.6445-2.6406v-4.2852c-0.003906-1.457-1.1836-2.6406-2.6445-2.6406h-1.5312l0.12109-70.867h1.4141-0.003907c1.4609 0 2.6406-1.1836 2.6445-2.6406v-4.2852c-0.003906-1.457-1.1836-2.6406-2.6445-2.6406zm-5.4648 2.6953c0-0.68359 0.55469-1.2344 1.2383-1.2344 0.67969 0 1.2344 0.55078 1.2344 1.2344v1.4805h-2.4727zm0 2.9375 2.4727 0.003907v2.4727h-2.4727zm0 3.9336h2.4727v1.4805c0 0.68359-0.55469 1.2383-1.2344 1.2383-0.68359 0-1.2383-0.55469-1.2383-1.2383zm-2.9375-3.9336h1.4805v2.4727l-1.4805 0.003906c-0.68359 0-1.2383-0.55469-1.2383-1.2383s0.55469-1.2344 1.2383-1.2344zm-1.2383 3.6289v0.003906c0.38281 0.19922 0.80469 0.30078 1.2383 0.30078h1.4805v1.4805h-0.003906c0 0.42969 0.10547 0.85547 0.30469 1.2383h-1.8359c-0.65234-0.003906-1.1836-0.53125-1.1836-1.1836zm-57.348-3.625h1.4805-0.003907c0.68359 0 1.2383 0.55078 1.2383 1.2344s-0.55469 1.2383-1.2383 1.2383h-1.4805zm0 5.4102v-1.4805h1.4805-0.003907c0.43359 0 0.85547-0.10156 1.2383-0.30078v1.8359c0 0.65234-0.53125 1.1797-1.1836 1.1836h-1.8359c0.19922-0.38281 0.30469-0.80859 0.30469-1.2383zm-3.9336-8.3516c0-0.32812 0.12891-0.64453 0.35938-0.875 0.23438-0.23437 0.54688-0.36328 0.875-0.36328 0.33203 0 0.64453 0.12891 0.87891 0.36328 0.23047 0.23047 0.35937 0.54688 0.35937 0.875v1.4805h-2.4727zm0 2.9375h2.4727v2.4727l-2.4727 0.003906zm0 3.9336h2.4727v1.4805c0 0.32812-0.12891 0.64453-0.35937 0.875-0.23438 0.23438-0.54688 0.36328-0.87891 0.36328-0.32812 0-0.64062-0.12891-0.875-0.36328-0.23047-0.23047-0.35938-0.54688-0.35938-0.875zm-2.9414-1.457c-0.67969 0-1.2344-0.55469-1.2344-1.2383s0.55469-1.2344 1.2344-1.2344h1.4805v2.4727zm0 73.785h1.4805v2.4727l-1.4766-0.003907c-0.68359 0-1.2383-0.55078-1.2383-1.2344s0.55469-1.2383 1.2383-1.2383zm-0.054688 6.6484 0.003907-0.003907c-0.65234 0-1.1836-0.52734-1.1836-1.1797v-1.8398c0.38281 0.19922 0.80469 0.30469 1.2383 0.30469h1.4805v1.4805h-0.003906c0 0.42969 0.10547 0.85547 0.30469 1.2344zm1.5352-85.848v1.4805h-1.4805c-0.42969 0-0.85156 0.10547-1.2344 0.30078v-1.8359c0-0.65234 0.53125-1.1797 1.1836-1.1797h1.8359c-0.19922 0.37891-0.30469 0.80469-0.30469 1.2344zm3.9336 84.609c0 0.68359-0.55469 1.2344-1.2383 1.2344-0.67969 0-1.2344-0.55078-1.2344-1.2344v-1.4805h2.4727zm0-2.9375-2.4727-0.003907v-2.4727h2.4727zm0-3.9336h-2.4727v-1.4805c0-0.68359 0.55469-1.2383 1.2344-1.2383 0.68359 0 1.2383 0.55469 1.2383 1.2383zm2.9375 3.9336-1.4766-0.003907v-2.4727h1.4766c0.68359 0 1.2383 0.55469 1.2383 1.2383s-0.55469 1.2344-1.2383 1.2344zm1.2383-3.6289v-0.003906c-0.38281-0.19922-0.80469-0.30078-1.2383-0.30078h-1.4766v-1.4805c0-0.42969-0.10547-0.85547-0.30469-1.2383h1.8359c0.65234 0.003906 1.1836 0.53125 1.1836 1.1836zm57.348 3.625h-1.4805 0.003907c-0.68359 0-1.2383-0.55078-1.2383-1.2344s0.55469-1.2383 1.2383-1.2383h1.4805zm0-5.4102v1.4805h-1.4805 0.003907c-0.43359 0-0.85547 0.10156-1.2383 0.30078v-1.8359c0-0.65234 0.53125-1.1797 1.1836-1.1836h1.8359c-0.19922 0.38281-0.30469 0.80859-0.30469 1.2383zm3.9336 8.3516c0 0.32812-0.12891 0.64453-0.35938 0.875-0.23438 0.23437-0.54688 0.36328-0.875 0.36328-0.33203 0-0.64453-0.12891-0.87891-0.36328-0.23047-0.23047-0.35937-0.54688-0.35937-0.875v-1.4805h2.4727zm0-2.9375-2.4727-0.003907v-2.4727h2.4727zm0-3.9336h-2.4727v-1.4805c0-0.32812 0.12891-0.64453 0.35937-0.875 0.23438-0.23438 0.54688-0.36328 0.87891-0.36328 0.32812 0 0.64062 0.12891 0.875 0.36328 0.23047 0.23047 0.35938 0.54688 0.35938 0.875zm0-3.8945c-0.36719-0.18359-0.76953-0.28125-1.1836-0.28125h-4.2812c-1.4609 0-2.6406 1.1836-2.6445 2.6406v4.2852c0 0.45703 0.12109 0.90625 0.34766 1.3047l-52.344-0.12109v-0.003907c0.1875-0.36328 0.28125-0.76953 0.28516-1.1797v-4.2852c-0.003906-1.457-1.1836-2.6406-2.6445-2.6406h-4.2812c-0.46094 0-0.91016 0.11719-1.3047 0.34766l0.12109-63.145c0.36719 0.18359 0.76953 0.28125 1.1836 0.28125h4.2852-0.003906c1.4609 0 2.6406-1.1836 2.6445-2.6406v-4.2852c0-0.45703-0.12109-0.90625-0.34766-1.3047l52.344 0.12109v0.003907c-0.1875 0.36328-0.28125 0.76953-0.28516 1.1797v4.2852c0.003906 1.457 1.1836 2.6406 2.6445 2.6406h4.2812c0.46094 0 0.91016-0.11719 1.3047-0.34766zm4.1758 10.82c0 0.65234-0.53125 1.1797-1.1836 1.1797h-1.8359c0.19922-0.37891 0.30469-0.80469 0.30469-1.2344v-1.4805h1.4805c0.42969 0 0.85156-0.10547 1.2344-0.30078zm-1.2344-5.4648v-0.003906c0.67969 0 1.2344 0.55469 1.2344 1.2383s-0.55469 1.2344-1.2344 1.2344h-1.4805v-2.4727zm0-73.785h-1.4805v-2.4727h1.4805-0.003906c0.68359 0 1.2383 0.55078 1.2383 1.2344s-0.55469 1.2383-1.2383 1.2383zm1.2344-3.6289c-0.38281-0.19922-0.80469-0.30469-1.2383-0.30469h-1.4766v-1.4805c0-0.42969-0.10547-0.85547-0.30469-1.2344h1.8359c0.65234 0 1.1836 0.52734 1.1836 1.1797z"/>
<text x="0.0" y="117.5" font-size="5.0" font-weight="bold" font-family="Arbeit Regular, Helvetica, Arial-Unicode, Arial, Sans-serif" fill="#000000">Created by Kim Sun Young</text><text x="0.0" y="122.5" font-size="5.0" font-weight="bold" font-family="Arbeit Regular, Helvetica, Arial-Unicode, Arial, Sans-serif" fill="#000000">from Noun Project</text></svg>