<svg xmlns="http://www.w3.org/2000/svg" version="1.1" viewBox="-5.0 -10.0 110.0 135.0">
 <path d="m84.355 55.266c0.41016-0.85156 2.2031-2.1016 1.9102-2.9648-0.16797-0.49609-0.99219-1.1328-1.332-1.6172-2.9141-4.1484-2-16.383-1.4922-21.414 0.11328-1.1172 0.14453-2.5078 0.48047-3.5742 0.90625-0.60156 1.7734-1.0703 2-2.2344 0.12891-0.66797 0.003906-1.3516-0.38281-1.9141-0.6875-1.0117-2.0312-1.2773-3.0469-1.8203 0.73437-0.875 1.0234-1.7617 0.91797-2.9102-0.19141-2.0625-1.8555-3.5703-4.7188-3.2383-0.97266 0.11328-1.6797 0.62109-2.5586 0.97266-2.0586-0.23438-3.1133-1.1016-9.75-0.027343-2.0898 0.33984-7.1836 1.7812-11.93 0.60156-1.0859-0.26953-2.125-0.60938-2.8477-1.5156-0.46875-0.58594-0.8125-1.4453-0.72656-2.207 0.30859-2.7617 6.793-2.1602 6.2539 0.64062-0.10156 0.51562-0.35547 1.0273-0.80469 1.3242-0.50391 0.32812-1.2344 0.39062-1.8125 0.25781-0.68359-0.16016-1.1055-0.71484-0.9375-1.375 0.035156-0.14453 0.11719-0.26172 0.25391-0.33203 0.55469-0.28516 1.5664 0.36328 1.8477-0.03125 0.10547-1.2383-2.9688-1.4297-2.957 0.64844 0.007813 2.0156 3.0742 2.6836 4.5156 1.1445 0.48438-0.51953 0.76953-1.2656 0.73828-1.9766-0.03125-0.76953-0.42969-1.4219-0.99219-1.918-0.80859-0.71094-1.7539-0.86328-2.7891-1.0117-1.1328-1.1641-2.3359-1.8086-3.9883-1.8398-0.30078-0.007813-0.65234-0.019532-0.94922 0.027344-1.5156 0.1875-2.3828 0.79687-3.4336 1.8672-1.2383 0.13672-2.3086 0.40234-3.125 1.4219-1.0039 1.2539-0.61719 2.8164 0.58984 3.7305 1.2578 0.95312 3.0195 0.55469 3.7383-0.43359 0.55078-0.75781 0.5-1.8867-0.27734-2.3711-0.40234-0.25-1.0195-0.35156-1.4805-0.23828-0.26953 0.066406-0.69922 0.25-0.84766 0.5-0.066406 0.10938-0.09375 0.32031-0.03125 0.44141 0.050781 0.097656 0.11328 0.14453 0.22656 0.15625 0.52734 0.066406 1.1797-0.65625 1.793-0.125 0.15234 0.13281 0.24219 0.41797 0.23047 0.61328-0.058594 0.93359-1.7188 1.6328-2.9023 0.74219-1.9688-1.4805-0.15234-4.3008 3.625-3.4766 0.63672 0.14063 1.3281 0.40625 1.6953 0.98047 0.69922 1.0977-0.19531 2.8672-1.4883 3.6172-0.69922 0.40625-1.543 0.60156-2.3242 0.78125-1.7891 0.41016-3.5234 0.46484-5.3477 0.31641-4.3711-0.36328-11.918-2.6875-15.965-0.85938-2.7422-2.2891-7.7812-0.92578-7.4414 2.7734 0.10156 0.98437 0.54687 1.7266 1.2266 2.4219-1.2383 0.26563-2.6211 0.65625-3.3594 1.7852-0.36328 0.55469-0.45312 1.2617-0.3125 1.9023 0.26953 1.207 1.2695 1.6133 2 2.0859 0.27344 1.1406 1.0273 6.4766 1.1016 11.941 0.039062 3.0625-0.0625 6.8281-0.69531 9.8047-0.20703 0.97656-0.37891 1.875-0.91016 2.7344-0.34375 0.55469-1.6641 1.9375-1.7969 2.3438-0.039063 0.12109-0.011719 0.27734 0.019531 0.40234 0.16016 0.64063 0.82812 1.0625 1.207 1.5703 1.1875 1.5977 1.3867 3.3438 1.6445 5.1719 0.70312 4.9805 0.56641 12.152 0.003906 16.855-0.089844 0.73438-0.125 2.0352-0.47656 2.6602-0.61719 1.1016-2.582 2.0547-2.1367 3.6328 0.31641 1.125 2.1211 2.4531 3.7539 2.5664-0.79297 0.82031-1.3594 1.7422-1.332 2.918 0.058593 2.4141 1.9102 3.6133 4.3359 3.5078 1.2812-0.054687 2.293-0.49219 3.2695-1.2969 0.61328 0.21094 1.2188 0.42578 1.8594 0.55078 5.457 1.0469 10.809-1.8633 16.281-1.3125 1.2188 0.12109 2.5156 0.42969 3.543 1.1289 0.44922 0.30469 0.79688 0.71094 1.1875 1.082 0.76172 0.71484 1.7891 1.1445 2.8281 1.2227 2.7734 0.078125 3.543-1.4297 4.6523-2.2188 1.0703-0.76172 2.3906-1.1094 3.6836-1.2422 4.3203-0.4375 8.8789 1.3203 13.238 1.3828 1.6523 0.023438 3.3047-0.3125 4.9219-0.61719 1.168 0.97266 2.3984 1.4531 3.9414 1.3086 2.3203-0.21484 3.5664-1.9727 3.3594-4.0117-0.09375-0.92969-0.48438-1.6211-1.0977-2.3086 1.2773-0.42969 2.7344-0.90625 3.4023-2.1914 0.23047-0.44141 0.28906-0.91016 0.12891-1.3828-0.38672-1.1445-1.6875-1.7617-2.0117-2.9102-0.23828-0.83594-0.35938-1.7383-0.48438-2.5977-0.78516-5.3203-0.79688-13.539 0.30078-18.793 0.125-0.74219 0.25781-1.5469 0.58594-2.2305zm-37.566-46.367c0.90234-0.89453 2.1016-1.1719 3.3789-1.168 1.1367 0.003906 2.1836 0.31641 2.9961 1.1328-0.27734 0.023438-0.5625 0.0625-0.83203 0.13281-0.89844 0.23438-1.6133 0.78516-2.082 1.582l-0.19531 0.48047c-0.58594-1.543-1.6445-1.9922-3.2656-2.1602zm-31.977 73.238c0.14844-0.92188 1.5586-1.7695 2.0508-2.5547 0.21875-0.35156 0.29688-0.79688 0.36328-1.1992 0.6875-4.1016 1.1211-11.793 0.32422-18.297-0.17969-1.4609-0.36328-2.9492-0.89844-4.332-0.67188-1.7344-1.2461-2.0234-2.0312-3.0898 0.52344-0.93359 1.3828-1.6445 1.8711-2.625 1.4062-2.8242 1.5625-8.8516 1.5469-12.004-0.054687-3.7852-0.37109-7.5977-0.95703-11.414-0.066406-0.41406-0.085937-1.0391-0.28516-1.3984-0.41406-0.75391-2.0234-0.72656-1.9688-2.3125 0.042969-1.2344 1.1172-1.7266 2.1562-2.0391 0.55469-0.16406 1.0352-0.21875 1.4531-0.62109 2.5742 1.793-0.38281 3.8164-0.39844 4.9492-0.011718 0.82812 0.23828 1.75 0.64453 5.8984 0.44141 4.7031 0.74609 14.695-1.3047 18.855-0.61719 1.25-1.6055 1.9922-2.0156 2.6445 0.41406 0.77734 1.5156 1.4883 2.0859 2.8438 2.1406 5.0781 1.6484 16.234 0.84375 21.77-0.09375 0.62891-0.41797 1.8008-0.35547 2.375 0.074219 0.66406 0.98828 1.7266 1.2539 2.5156 0.20703 0.60547 0.31641 1.2773 0.007813 1.8711-0.8125 1.5469-4.5938-0.54297-4.3867-1.8359zm67.812 5.6836c0.035156 0.78125-0.19141 1.6836-0.73828 2.2617-0.51172 0.54297-1.2656 0.79688-2 0.82031-1.5469 0.050781-2.3477-0.46094-3.4375-1.4766-1.0938 0.13672-2.7148 0.79688-5.2461 0.71875-4.8086-0.15234-9.6641-2.1445-14.488-1.1367-3.8789 0.8125-3.4453 2.5312-6.0742 3.2109-1.1641 0.15625-2.2344-0.15625-3.1094-0.94141-0.85938-0.76953-1.7461-1.9648-4.7422-2.3984-5.8438-0.84766-12.117 2.5312-17.637 1.0547-0.41016-0.10938-1-0.44141-1.293-0.39062-0.19922 0.03125-1.1523 0.83984-1.5273 1.0039-1.0352 0.46094-2.4961 0.48828-3.5469 0.078125-0.62109-0.24219-0.95703-0.625-1.2148-1.2188-0.58984-1.3672-0.25391-2.625 0.86719-3.5703 0.62109-0.52344 1.3945-0.94531 1.6914-1.7461 0.36719-1-0.015625-2.2305-0.50781-3.1211-0.26172-0.47656-0.58984-0.91406-0.82422-1.4062 0.38672-2.5039 0.73828-4.9766 0.89844-7.5117 0.28125-4.4609 0.33984-13.223-1.5781-17.23-0.39063-0.81641-1.0469-1.5-1.6406-2.1758 0.55078-0.77344 1.2148-1.375 1.6328-2.25 2.3203-4.8438 1.8594-14.586 1.3633-20.004-0.15625-1.707-0.44922-3.4023-0.58203-5.1133 0.57812-1.1758 1.5391-2.1836 1.457-3.5977-0.09375-1.5781-1.2812-1.7852-2.2266-2.6836-0.9375-0.89062-1.0859-2.6484-0.050782-3.707 1.1211-1.1484 3.2305-1.1914 4.5938-0.50781 0.36719 0.18359 0.87891 0.71094 1.2695 0.74219 0.09375 0.007812 1.2266-0.45313 1.5312-0.51563 4.1406-0.87109 8.957 0.82813 14.113 1.2695 4.5781 0.39062 4.125-0.16016 5.4453-0.19531-7.1445 2.6719-10.98-0.32422-18.238 0.27734-0.98828 0.082031-1.9883 0.24219-2.8633 0.73828-1.0156 0.57422-1.6562 1.6836-2.9023 1.832-2 0.23828-1.3047-1.0312-1.918-1.5078-0.22266-0.0625-0.37109-0.015625-0.48437 0.1875-0.14453 0.25781-0.023438 0.78125 0.066406 1.0469 0.13281 0.39062 0.39453 0.67578 0.76562 0.85547 1.1328 0.55469 2.3945 0.26953 3.3672-0.46094 1.0508-0.79297 1.1875-1.3008 3.1602-1.7266 1.6562-0.35938 6.0547-0.019531 7.8555 0.19922 3.8438 0.46094 6.6133 0.99609 10.418-0.32813 3.9453-1.375 4.9102-2.7422 5.7539-4.4922 0.94531 1.8008 1.8008 3.0156 4.9961 4.2148 7.3477 2.7578 12.547-0.59766 18.312 0.23438 0.78906 0.11328 1.6602 0.26172 2.3594 0.67578 1.1758 0.69531 1.6289 2.0508 3.1797 2.1367 0.65234 0.035156 1.4648-0.070313 1.957-0.53516 0.47266-0.44141 0.84766-1.5312 0.38281-1.9414-0.12109-0.10547-0.28906-0.17188-0.44922-0.16797-0.33203 0.21484-0.16797 0.85938-0.32813 1.2109-0.11719 0.26172-0.34375 0.42188-0.60937 0.50781-1.8672 0.60938-2.3477-1.2656-3.7031-1.9492-1.3906-0.70312-3.1211-0.85156-4.6602-0.86719-4.9844-0.039062-9.1094 1.8125-14.238 0.57812-0.83984-0.20312-1.7266-0.46094-2.5039-0.83203 7.3477 1.5859 13.188-1.9961 19.262-0.96875 0.80469 0.13672 1.5898 0.36328 2.4062 0.42969 0.71875-0.32813 1.3672-0.96094 2.7773-1.0586 1.8086-0.12109 3.2344 0.73828 3.4336 2.6211 0.26172 2.4258-2.3086 2.7305-2.707 4.7578-0.25391 1.3086 0.63672 2.3438 1.3086 3.3594-0.25391 1.5742-0.33594 3.1914-0.48438 4.7812-0.60156 6.418-0.92187 12.996 0.61719 19.316 0.32422 1.332 1.1172 2.6758 2.3125 3.4023-0.5625 0.38672-1.1445 0.78516-1.5312 1.3633-0.59375 0.89062-0.74219 2.1836-0.96094 3.2188-1.2578 5.9648-1.2109 13.699-0.28125 19.715 0.13281 0.85547 0.32422 1.707 0.49219 2.5547-0.60156 1.2461-1.6367 2.4375-1.5625 3.8945 0.082031 1.668 0.96094 1.668 1.9648 2.582 0.54297 0.49609 0.84375 1.1602 0.87891 1.8828zm0.63281-8.207c0.44922 1.0312 2.1484 1.8438 1.8711 2.9414-0.15625 0.625-0.92578 1.1602-1.4805 1.4219-0.55078 0.26172-1.7383 0.82031-2.3438 0.57813-0.25-0.10156-0.37109-0.32031-0.47266-0.55859-0.63281-1.4727 0.89453-3.0859 1.3828-4.418l0.019531-0.054687c-0.23047-1.1562-0.46875-2.3125-0.63281-3.4805-0.77344-5.5273-0.78125-12.363 0.22266-17.848 0.20703-1.1289 0.39844-2.4297 0.83203-3.4961 0.41797-1.0273 1.7891-1.2344 2.1094-1.9766-0.027344-0.45703-1.2031-1.2461-1.5469-1.6211-0.76953-0.83984-1.0391-1.9844-1.293-3.0625-1.9062-8.0625 0.0625-21.766 0.027344-22.879-0.035156-1.1133-1.3867-1.8438-1.3008-3.0469 0.050781-0.75 0.62891-1.2695 1.1602-1.7227 0.35156 0.15625 2.1367 0.57422 2.9414 1.5156 0.30469 0.35547 0.4375 0.83594 0.38281 1.3008-0.10547 0.91406-0.93359 1.1797-1.5547 1.6797-0.69141 0.55469-0.73828 2.0625-0.84375 2.9023-0.25 1.9609-0.43359 3.9297-0.55078 5.9023-0.21875 3.6836-0.37891 11.27 0.80469 14.734 0.81641 2.3906 1.4766 2.8906 2.4805 4.1836-0.72266 1.0586-1.9141 1.5195-2.4844 4.1875-1.6641 7.8086-0.85156 20.23 0.26953 22.816z"/>
 <path d="m78.719 85.27-0.0625 0.011719c-1.3711 0.22266-1.7734 1.3438-2.8906 1.8828-0.65234 0.3125-1.4727 0.39453-2.1836 0.46094-6.207 0.57812-12.305-2.0664-18.422-0.11328-0.67188 0.21484-1.3555 0.46094-1.9883 0.78125-0.79297 0.40234-2.3789 1.6016-3.1523 1.6211-0.67969 0.019532-1.7891-0.91797-2.4102-1.2617-6.457-3.5977-13.375-0.86328-18.559-0.89453-1.2734-0.007812-4.1367-0.21875-5.1523-0.91016-0.40625-0.27344-0.57813-0.5625-1.1484-0.90625-1.1445-0.6875-2.5391-0.68359-3.2266-0.30078-0.91016 0.51172-1.0664 1.543-0.62891 1.7852 0.074219 0.042969 0.14844 0.035157 0.23047 0.03125 0.73438-0.33594 0.046875-1.5039 2.3086-1.1523 1.8164 0.53516 1.2812 1.4414 4.3203 2.0195 6.1523 1.168 12.055-1.8125 18.461-0.11328 0.94922 0.25 1.8945 0.5625 2.7578 1.0352 1.5625 0.84766 2.4844 2.1719 4.4062 1.1055 1.0898-0.60156 1.1484-0.91016 2.9219-1.6367 6.4961-2.6562 13.023 0.54688 19.676-0.29297 0.75-0.09375 1.6094-0.20703 2.2812-0.57812 1.332-0.73828 1.5703-2.168 3.4727-1.6016 0.23438 0.070312 0.48047 0.1875 0.60547 0.41406 0.14062 0.25781 0.046874 0.71875 0.39453 0.80859 0.14062 0.039062 0.26953 0.023437 0.40234-0.027344 0.14063-0.12109 0.18359-0.23828 0.19141-0.41406 0.023437-0.41016-0.14062-0.79688-0.41797-1.0938-0.47266-0.52344-1.4844-0.70313-2.1875-0.66016z"/>
 <path d="m24.09 79.379c-0.003906 1.2539-0.19922 2.3945 0.93359 3.1758 0.77344 0.53516 1.4805 0.39844 4.7773 0.39453 47.277-0.054688 43.473 0.054687 44.074-0.007813 2.4219-0.39844 2.0859-2.1875 2.0859-4.6367-0.007813-58.238 0.027343-54.449-0.054688-54.816-0.12891-0.58203-0.53906-1.125-1.0508-1.4297-0.375-0.22266-0.77734-0.28906-1.207-0.30469-0.61328-0.023437-47.395-0.011718-47.586 0.007813-1.2266 0.15234-1.9766 0.76562-2.0195 2.0469-0.042969 1.3555 0.03125 2.7305 0.03125 4.0859 0.003906 2.4258 0.050781 21.707 0.015625 51.484zm1.3438-55.531c0.054687-0.36328 0.125-0.51953 0.41797-0.74219 1.1797-0.058594 2.3789-0.007813 3.5625-0.003907 46.988 0.003907 44.051-0.03125 44.566 0.0625 0.58594 0.41016 0.5625 0.69141 0.56641 1.3984 0.011719 59.914 0.042969 55.922-0.03125 56.199-0.089844 0.35156-0.37109 0.55469-0.67578 0.71875-0.8125 0.19922-2.3633 0.078125-3.2422 0.078125-47.52-0.046875-43.836 0.007812-44.172-0.035156-0.44141-0.054688-0.67188-0.20703-0.9375-0.55859-0.039062-0.84375-0.015625-51.438-0.066406-54.965-0.003906-0.69531-0.09375-1.4688 0.011719-2.1523z"/>
<text x="0.0" y="117.5" font-size="5.0" font-weight="bold" font-family="Arbeit Regular, Helvetica, Arial-Unicode, Arial, Sans-serif" fill="#000000">Created by PixelX</text><text x="0.0" y="122.5" font-size="5.0" font-weight="bold" font-family="Arbeit Regular, Helvetica, Arial-Unicode, Arial, Sans-serif" fill="#000000">from Noun Project</text></svg>