<svg xmlns="http://www.w3.org/2000/svg" version="1.1" viewBox="-5.0 -10.0 110.0 135.0">
 <path d="m91.176 47.641c-0.21875-0.10938-0.45312-0.16797-0.69141-0.22656 1.6289-3.4375-0.39844-7.5-3.5781-8.5039 0.082031-0.85156 0.17188-1.7031 0.13281-2.5586-0.24609-5.4062-4.0195-10.641-10.582-12.727-1.1172-3.2539-2.5156-5.7266-5.3516-7.8789-2.1797-1.6562-5.2891-2.957-8.0195-2.7812-0.66406 0.042968-1.3125 0.18359-1.9688 0.28906-0.66406-1.6641-1.8047-2.8828-3.4609-3.5898-1.6328-0.69922-3.2695-0.73437-4.9648-0.26953-0.30859-0.78906-0.66797-1.4258-1.4805-1.7969-0.39844-0.18359-0.83203-0.25781-1.2695-0.26562-1.457 0.19531-2.1211 0.91016-2.5234 2.1367-1.9766-0.84375-5.1133-0.50391-7.0508 1.5664-0.59766 0.63672-0.99219 1.3203-1.2969 2.125-0.69922-0.089844-1.3945-0.18359-2.1016-0.18359-2.957-0.003906-5.8555 1.1289-8.1797 2.918-2.6992 2.0781-4.0195 4.5977-4.9805 7.7891-3.9609 1.0938-6.8242 3.2031-8.8672 6.8086-1.6953 2.9961-1.8867 5.168-1.543 8.5039-3.5117 1-5.4062 5.2344-3.7852 8.5078-2.875 0.59375-3.0625 4.2539-0.039062 4.9453-1.4922 3.3672 0.25781 7.2695 3.7695 8.6211-0.28125 4.1484 0.30078 7.418 3.1211 10.656 2.1367 2.4531 4.2852 3.5273 7.3203 4.5 0.30469 0.89453 0.58203 1.8047 0.97656 2.668 2.6094 5.7266 8.4883 8.8281 14.441 7.8984 0.51172 1.543 1.5039 2.8203 2.9688 3.5586 1.793 0.90625 3.418 0.75391 5.3164 0.39063 0.58203 1.4297 1.6367 2.0234 2.8516 1.9219 1.2305-0.18359 1.8516-0.80078 2.3555-1.9141 1.9258 0.51953 3.8203 0.39062 5.5703-0.61328 1.3086-0.75 2.3945-1.9375 2.8047-3.4062 0.84375 0.16406 1.6758 0.30078 2.5391 0.29688 2.3828-0.019532 4.9336-1.0273 6.9023-2.3555 2.9297-1.9805 4.8906-4.9727 5.8164-8.3594 0.73438-0.21484 1.4609-0.42578 2.1719-0.72266 5.7188-2.3828 9.1289-7.8828 8.3125-14.531 3.3477-1.207 4.9844-4.8945 4-7.5859-0.089844-0.25-0.20312-0.49609-0.3125-0.73828 0.78516-0.25781 1.4062-0.58203 1.7969-1.3516 0.60938-1.2031 0.37109-2.9922-1.1211-3.7422zm-0.92969-2.7031c0 0.44922-0.14062 1.7266-0.48438 2.0312-0.054688 0.046875-0.042969 0.03125-0.11719 0.019531-0.082031-0.13672-0.13281-0.625-0.96094-1.2695 0.054687-0.10156 0.125-0.20312 0.15625-0.32031 0.12109-0.45703-0.058594-0.98438-0.29297-1.375-0.55078-0.91406-1.6289-1.5508-2.6406-1.8008 0.42578-0.69922 0.62891-1.5781 0.8125-2.3711 1.543 0.30078 3.5234 2.3242 3.5273 5.0859zm-32.848-34.512c1.3203 0.59766 2.3516 1.6172 2.8594 2.9766-0.58594 0.13672-1.1719 0.28125-1.7539 0.4375l-0.5625 0.11719c-0.54688-2.1211-2.2461-2.8633-3.4727-2.4258-0.40234-0.82812-0.75-0.96094-1.7148-1.2109 0.53125-0.23047 3.1953-0.54687 4.6445 0.10547zm-12.637-0.51953c0.86328-0.082031 1.7812 0.046875 2.5781 0.375-0.83594 0.28906-1.2539 0.47656-1.582 1.2305-0.12891-0.027344-0.25781-0.050781-0.38672-0.066407-1.4844-0.21094-2.8086 0.89453-3 2.4023 0.003906 0.11719 0.015625 0.0625-0.027344 0.16797-0.82031-0.20703-1.6172-0.49609-2.4453-0.67969 0.79297-2.1641 2.6016-3.2344 4.8633-3.4297zm-34.508 33.059c0.57422-1.4648 1.707-2.4883 3.1289-3.1094l0.078126 0.003906c0.20312 0.16797 0.53906 2.0391 0.61328 2.375-0.23828 0-0.48047 0-0.71484 0.050781-1.1914 0.26562-2.1367 1.668-1.7852 3.207-0.5625 0.36328-0.85547 0.77344-1.1133 1.3789l-0.078126 0.20312-0.058593 0.023437c-0.054688-0.0625-0.09375-0.11719-0.125-0.19531-0.49219-1.2109-0.41797-2.7344 0.054687-3.9375zm3.1992 17.156c-0.28125 0.12109-0.64453-0.19922-0.96094-0.42188-2.2539-1.5859-3.2148-4.1523-2.2031-6.8555 0.10938 0.085938 0.34375 0.69141 0.49219 0.89453 0.22266 0.30469 0.49609 0.53125 0.78516 0.76953-0.12891 0.67578-0.070312 1.3438 0.27734 1.9492 0.49219 0.85938 1.3594 1.2188 2.2656 1.4688-0.21094 0.60547-0.39062 1.2383-0.65625 2.1953zm26.559 26.496c0.80078-0.1875 1.5742-0.40625 2.3516-0.66406 0.082031 0.089844 0.10938 0.42188 0.13281 0.54688 0.14062 0.68359 0.63281 1.3359 1.2148 1.7148 0.69141 0.44922 1.3555 0.51172 2.1523 0.34375 0.41797 0.75 0.92578 0.9375 1.6992 1.1797-2.9102 1.3086-6.5-0.058593-7.5508-3.1211zm14.98 3.6211c-0.87109 0.003907-1.5508-0.19531-2.3477-0.53125 0.21484-0.050781 0.44922-0.097656 0.65625-0.17969 0.46875-0.19141 0.84375-0.51172 1.0469-0.98047 0.082032 0.027344 0.16406 0.050781 0.24609 0.074219 0.62109 0.16406 1.2969-0.003906 1.8398-0.31641 0.92969-0.53516 1.2188-1.2617 1.4766-2.25 0.79297 0.12891 1.6016 0.31641 2.3789 0.51953-0.61719 1.8477-2.4961 3.4453-5.2969 3.6641zm33.34-31.031c-0.34375 0.3125-1.1445 0.96875-1.6328 0.94531-0.089844-0.085938-0.074219-0.097656-0.089844-0.21484-0.14453-0.71875-0.39453-1.3984-0.68359-2.0664 0.53125-0.15625 1.0273-0.34375 1.4961-0.64844 0.63672-0.41406 1.2812-1.1016 1.4297-1.8672 0.078126-0.39844 0-0.69141-0.21875-1.0273 0.48438-0.35547 0.80859-0.73047 1.0195-1.2969 0.96484 1.0547 0.96094 4.1094-1.3203 6.1758zm2.9688-7.7422c-0.71094 0.59766-1.5508 0.42969-2.4375 0.29688 0.0625 0.46094 0.11328 0.91016-0.12891 1.332-0.32422 0.5625-0.74609 0.46875-1.2695 0.64453-0.097656 0.03125-0.10156 0.042969-0.14453 0.12891 0.03125 0.45312 0.53125 0.76562 0.75781 1.2227-0.41406 1.4102-1.8477 1.9648-3.3008 2.0938 0.1875 0.89453 0.69922 1.3164 1.1172 3.4141 0.67578 3.3711-0.097656 6.8281-2 9.6758-1.8242 2.7344-5.0938 4.6914-8.2891 5.3281-0.097657 0.6875-0.16797 1.0117-0.60547 2.0859-0.94531 2.3125-2.5195 4.582-4.5977 6.0078-1.9766 1.3555-4.8164 2.7109-7.2539 2.5195-0.71484-0.054688-1.4141-0.25781-2.1094-0.41406-0.61328-0.14062-1.8633-0.35156-2.4883-0.53125-0.32812-0.097656-0.74609-0.35156-1.0781-0.37109-0.24609-0.015626-0.43359 0.21875-0.59375 0.375 0.078125 0.28125 0.15234 0.53516 0.125 0.83203-0.074218 0.91797-0.75391 1.6172-1.5703 1.7305-1.0938 0.15625-1.1992-0.63672-1.5703-0.68359-0.17188 0.1875-0.10938 0.71875-0.22266 0.98438-0.12891 0.30469-0.45312 0.54297-0.76172 0.64844-0.5625 0.19531-0.9375-0.14453-1.1914-0.17188l-0.074219 0.066407c-0.10938 0.35937 0.19531 0.82422 0.29297 1.1797 0.28125 1.043-0.46094 1.7422-1.5078 2-0.19922 0.011719-0.40625 0.023437-0.60547-0.007813-0.46875-0.070312-0.95703-0.28906-1.2383-0.68359-0.62109-0.85156-0.039063-1.5312 0.089843-2.3945l-0.066406-0.0625c-0.26562-0.039063-0.53125 0.089843-0.79688 0.10937-0.33984 0.027344-0.6875-0.035156-0.95312-0.26172-0.46875-0.39844-0.48828-0.95312-0.52344-1.5195-0.35547 0.37891-0.70703 0.81641-1.2734 0.82422-0.46094 0.003907-0.85547-0.23438-1.1758-0.54297-0.76172-0.73047-0.61719-1.2266-0.66016-2.1523-0.007812-0.14453-0.03125-0.21875-0.14062-0.31641-0.51172 0.0625-1.0742 0.34766-1.5664 0.51172-6.9609 2.332-13.73-1.0742-16.301-7.6758-0.28516-0.73438-0.44531-1.4844-0.69141-2.2266-0.46094-0.0625-0.90625-0.17578-1.3477-0.32031-3.2383-1.0742-6.125-3.2227-7.6602-6.3242-2.0938-4.2227-1.5352-7.7773-0.10938-12.035-0.23828 0.078125-0.48438 0.16797-0.73047 0.20703-0.56641 0.089844-1.0898-0.10938-1.5391-0.44141-0.37891-0.28125-0.64844-0.64062-0.70703-1.1211-0.070313-0.59766 0.30078-0.99609 0.63672-1.4414-0.089843-0.21875-1.2461-0.20703-1.5469-0.58203-0.51953-0.65625-0.18359-0.96094-0.10156-1.6367-0.28906-0.38281-2.707 0.78906-3.3203-1.8438l0.019532-0.0625c0.70703-2.4336 2.8281-1.2461 3.293-1.5-0.10937-0.42578-0.24609-0.84766-0.13672-1.2891 0.24219-1.0039 1.1016-0.60937 1.7109-0.96875l0.023438-0.10156c-0.11719-0.42969-0.73047-0.79297-0.57422-1.5508 0.089844-0.4375 0.42969-0.89844 0.8125-1.1289 0.67188-0.41406 1.4883-0.21875 2.2031-0.058593-1.3008-3.2773-1.8516-7.043-0.63281-10.426 1.3086-3.625 4.4883-6.9492 8.5703-8.1445 0.35547-0.10547 0.79297-0.14062 1.1211-0.30469 0.21484-0.10938 0.35547-1.1836 0.45703-1.4609 0.52734-1.4531 1.1406-2.7969 2.0742-4.0391 2.4961-3.3359 6.8633-5.3945 11.027-5.0078 1.1758 0.10938 2.3359 0.39844 3.457 0.75391 0.69531 0.21875 1.4883 0.59375 1.7812 0.45703 0.097656-0.19922-0.14844-0.91406-0.11328-1.2344 0.10547-0.9375 1.0391-1.7344 2.0039-1.6016 0.53125 0.074219 0.80859 0.38281 1.1133 0.78516 0.035156-0.54297 0.074219-1.1875 0.49219-1.5898 0.33203-0.31641 0.82422-0.35156 1.25-0.23047 0.14062 0.039062 0.3125 0.12109 0.45703 0.11719 0.066406 0 0.078125-0.039063 0.12109-0.082032 0.10938-0.50781-0.3125-1.0352-0.41406-1.5391l-0.011719-0.066406c0.24219-0.86719 0.83984-1.332 1.7305-1.5 0.89062-0.082032 1.7148 0.48047 1.957 1.1172 0.21875 0.58594 0.003907 0.89062-0.21875 1.4062-0.089843 0.20312-0.16016 0.34766-0.074219 0.5625 0.44922 0.28906 1.2695-0.42578 1.8672 0.14453 0.46484 0.44531 0.41016 1.1289 0.41016 1.7148 0.16797-0.23047 0.32812-0.46484 0.57031-0.625 0.8125-0.53906 1.8281-0.066406 2.3594 0.78125 0.38672 0.62109 0.32812 1 0.17188 1.6758 0.15625 0.078125 0.32422 0.14062 0.48438 0.20312 1.6094-0.60547 3.2695-0.89453 4.957-1.2188 4.8555-0.93359 12.02 3.6914 13.27 10.387 1.4258 0.42188 2.8008 1.0039 4.1016 1.7266 2.8516 1.5977 5.1836 4.7031 6.0508 7.8359 0.82031 2.9023 0.44531 5.9883-1.0117 8.5898l0.09375 0.64062c0.42578-0.11719 0.83594-0.070313 1.2422 0.082031 0.66797 0.25391 1.5859 0.79297 1.8711 1.4844 0.27734 0.66797-0.52734 0.84766-0.67187 1.3633-0.035157 0.12891-0.019532 0.14844 0.039062 0.25781 0.25 0.10156 0.57031 0.074218 0.83594 0.085937l0.015624 0.011719c0.82422 0.58984 0.79688 1.1211 0.55469 1.9219 0.46875-0.0625 0.96875-0.16016 1.4414-0.13281 0.49219 0.03125 0.96484 0.28906 1.2891 0.65625 0.69922 0.82031 0.55859 2-0.21094 2.6445z"/>
 <path d="m85.93 47.055c-0.30469-1.7344-1.3164-2.7891-2.6328-3.8789 3.6211-7.6562-2.0078-16.113-8.6328-17.707-0.35547-0.91406-0.66406-1.8672-1.1211-2.7344-1.332-2.5039-3.8242-4.7188-6.4258-5.8594-3.8398-1.6836-6.9102-1.457-10.277-0.0625-0.48828-0.57031-0.99609-1.1094-1.6211-1.5352-0.64453-0.44141-1.3594-0.80078-1.9453-1.3242-0.52734-0.47656-0.73438-1.1914-1.3516-1.5938-0.625-0.41016-1.4883-0.52734-2.2188-0.46484-1.9375 0.1875-2.0352 1.3867-2.7266 2.0273-0.78516 0.72656-2.4883 1.3086-3.6016 2.9219-3.2852-1.5234-6.3984-1.6445-10.121-0.10938-2.1641 0.89453-4.1211 2.3672-5.5977 4.3555-1.1562 1.5586-1.6562 2.8516-2.1562 4.4297-3.3516 0.82031-5.9883 2.9062-7.7695 5.8438-2.0508 3.3828-2.5625 7.5195-0.92969 11.871-1.8359 1.75-1.6992 2.2227-2.7461 3.4258-0.92578 1.0664-2.4531 1.9375-2.4688 3.3438-0.015626 1.3867 1.5742 2.207 2.543 3.4336 0.98438 1.2422 1.4141 2.2344 2.6914 3.3438-3.1055 6.3984 0.60547 15.473 8.8477 17.75 0.71094 3.1328 2.6367 5.7539 5.3477 7.4648 2.9258 1.8516 6.3789 2.8047 9.8203 2.0312 0.78906-0.17578 1.5977-0.40625 2.3164-0.77734 0.51953 0.55469 1.0312 1.0742 1.6484 1.5273 0.69922 0.50781 1.5664 0.89453 2.1992 1.4727 0.82031 0.75 0.93359 1.8438 3.1523 1.8828 2.3359-0.09375 2.2969-1.2891 3.207-2.0469 0.60156-0.5 1.6641-0.69922 3.6289-2.7852 0.97266 0.35938 1.9336 0.66016 2.9609 0.82422 2.1719 0.34766 4.7656 0.066406 6.7695-0.84375 3.832-1.7461 6.8906-4.6953 7.8281-8.7266 0.68359-0.19141 1.3516-0.37891 2-0.67188 5.4375-2.457 9.1172-9.2773 7.4492-15.16-0.17969-0.62891-0.42188-1.2305-0.6875-1.8281 1.2344-1.0039 2.293-2.1484 2.6094-3.7656 1.1133-0.55469 1.7227-0.96094 2.1328-2.207 0.47656-1.4609-0.25781-3.3281-2.1211-3.8672zm1.5156 3.5234c-0.23828 1.1562-0.98828 1.625-1.9961 2.0156-0.41797 0.77734-0.72266 2.1562-3.1641 4.0117 0.40625 0.88672 0.76562 1.6914 0.99609 2.6523 0.73047 3.0078-0.023438 6.2305-1.6172 8.832-1.8281 2.9844-4.4141 4.9609-7.8359 5.7812-0.14062 0.73438-0.38672 1.4375-0.67188 2.1289-1.9727 4.7734-8.0508 8.4609-13.785 7.1641-0.91016-0.20703-1.7578-0.52734-2.6133-0.89062-2.3711 2.6055-3.2812 2.5039-4.1367 3.3281-0.71875 0.69141-0.5 1.5508-2.3086 1.7422-0.55469 0.007812-1.1758-0.011719-1.668-0.35547-0.46094-0.32422-0.72656-0.99609-1.1562-1.3945-0.91406-0.83984-2.0703-0.96875-4.1055-3.2773-0.75391 0.17578-1.3398 0.61719-3.1055 0.97266-3.1836 0.60938-6.4023-0.36328-9.0312-2.168-2.5898-1.7734-4.2852-4.1758-4.8633-7.2891-1-0.23828-2-0.57031-2.9219-1.0352-5.5547-2.8047-8.8242-10.047-5.6445-16.238-1.457-1.0352-2.1211-2.6797-3.2695-3.9922-0.75781-0.86719-2.3984-1.9844-2.2305-2.7109 0.13672-0.59766 1.5039-1.625 1.9453-2.1211 1.2344-1.3828 2.0195-3.3008 3.5703-4.3633-0.38672-0.85547-0.72656-1.7383-0.92188-2.6602-1.3281-6.2188 2.582-13.102 9.2695-14.527 0.76953-2.7461 2.125-5.1016 4.3867-6.8867 3.3594-2.6523 7.6875-3.5742 11.875-1.957 0.38281 0.14844 0.72656 0.43359 1.1406 0.48047 0.38281-0.085937 0.71484-0.87109 1.0117-1.1523 0.91016-0.86719 2.2617-1.418 3.0508-2.2266 0.3125-0.31641 0.47656-0.73438 0.75391-1.0742 0.46875-0.57422 1.3711-0.75 2.0859-0.67188 1.4375 0.15625 1.4531 1.1836 2.1523 1.8555 0.33594 0.32031 0.76172 0.5625 1.1523 0.80859 0.58594 0.37109 1.1602 0.74609 1.6719 1.2188 0.40625 0.375 0.66797 0.87109 1.0195 1.293 0.49609-0.054688 1.0117-0.36328 1.4805-0.54688 0.49609-0.19531 1-0.35938 1.5117-0.49219 5.0664-1.2852 11.738 1.9766 13.883 7.5234 0.23828 0.62109 0.40234 1.2617 0.5625 1.9062 0.75781 0.035156 1.4648 0.28516 2.1602 0.58203 5.0391 2.1328 8.668 8.3945 7.168 14-0.24219 0.90234-0.60938 1.75-0.97266 2.6094 1.6562 1.2188 2.3711 2.1953 3.1953 4.0273l0.078125 0.03125c0.78906 0.30078 1.4062 0.73047 1.75 1.5312 0.19922 0.47656 0.25391 1.0117 0.14844 1.5352z"/>
<text x="0.0" y="117.5" font-size="5.0" font-weight="bold" font-family="Arbeit Regular, Helvetica, Arial-Unicode, Arial, Sans-serif" fill="#000000">Created by PixelX</text><text x="0.0" y="122.5" font-size="5.0" font-weight="bold" font-family="Arbeit Regular, Helvetica, Arial-Unicode, Arial, Sans-serif" fill="#000000">from Noun Project</text></svg>