<svg xmlns="http://www.w3.org/2000/svg" version="1.1" viewBox="-5.0 -10.0 110.0 135.0">
 <path d="m22.945 47.16h4.0586c0.38672-7.832 2.6953-15.129 6.5898-20.758 4.3633-6.3008 10.203-9.7695 16.438-9.7695s12.074 3.4688 16.438 9.7695c3.8984 5.625 6.2031 12.926 6.5898 20.758h4.0586c-0.64063-11.875-5.293-22.227-12.082-28.473h0.003906c0.80469 0.29297 1.6484 0.44922 2.5039 0.46094 1.6094 0 3.1328-0.64453 3.9336-2.4336 0.5-1.1094 0.27344-2.5898-0.20312-3.4727-0.62109-1.2188-1.9297-1.9297-3.2891-1.793-1.0781 0.10156-1.9922 0.82031-2.3438 1.8398-0.36719 1.0469-0.054687 2.168 0.83594 2.9883l-0.003906 0.003906c0.19141 0.17969 0.44531 0.27344 0.70312 0.26562 0.26172-0.011719 0.50781-0.12109 0.68359-0.3125 0.17969-0.19141 0.26953-0.44531 0.26172-0.70703-0.011719-0.26172-0.12891-0.50391-0.32031-0.67969-0.32031-0.29688-0.42578-0.60156-0.31641-0.91016v-0.003906c0.097656-0.28516 0.34375-0.49219 0.64453-0.53516 0.58984-0.082032 1.168 0.23047 1.4258 0.76953 0.26953 0.49609 0.33594 1.3125 0.14062 1.7461-0.93359 2.0781-3.6367 1.1094-4.4453 0.76172-1.3555-0.58203-2.207-1.4141-2.6016-2.5469-2.668-7.6523-9.2031-6.0781-9.8477-5.9023v0.003907c-0.64844-0.62109-1.4883-1.0078-2.3828-1.0938 0.66016-0.17969 1.082-0.82031 0.99219-1.5-0.09375-0.67578-0.67188-1.1836-1.3516-1.1836-0.68359 0-1.2656 0.5-1.3594 1.1797-0.09375 0.67578 0.32422 1.3164 0.98438 1.5039-0.90234 0.078125-1.75 0.46094-2.4062 1.082-0.50391-0.16016-3.0859-0.88672-5.6758 0.34766-1.9375 0.92578-3.3711 2.6914-4.2617 5.25-0.48047 1.3789-1.3008 2.3906-2.3125 2.8477-0.75 0.33984-2.3164 0.79688-3.4492 0.36719-0.51562-0.19922-0.92578-0.60156-1.1328-1.1172-0.19531-0.43359-0.12891-1.25 0.14063-1.7461 0.25781-0.53906 0.83594-0.85156 1.4297-0.76953 0.29688 0.046874 0.54688 0.25391 0.64453 0.53906 0.10938 0.30859 0 0.61719-0.31641 0.91016-0.19531 0.17578-0.30859 0.42188-0.32031 0.67969-0.011719 0.26172 0.082031 0.51562 0.25781 0.70703s0.42188 0.30469 0.68359 0.3125c0.26172 0.007813 0.51562-0.085937 0.70312-0.26562 0.89062-0.82422 1.2031-1.9414 0.83594-2.9883-0.35156-1.0234-1.2695-1.7422-2.3438-1.8438-1.3633-0.13672-2.668 0.57422-3.293 1.793-0.47656 0.88672-0.70313 2.3633-0.20313 3.4727 0.41797 0.98438 1.2227 1.7578 2.2227 2.1406 0.55859 0.20703 1.1523 0.30859 1.75 0.30078 0.78125-0.011719 1.5508-0.13672 2.293-0.37891-6.7344 6.2539-11.344 16.566-11.984 28.383zm16.238-32.703c0.90625-2.6055 2.4258-4.1289 4.5078-4.5352 0.82812-0.15234 1.6758-0.14062 2.4961 0.035156-0.078125 0.24609-0.12891 0.50391-0.15625 0.76172 2.6562-0.37891 5.3516-0.37891 8.0078 0-0.027343-0.24609-0.078124-0.49219-0.14844-0.73047 1.4219-0.22656 5.1484-0.28125 6.9141 4.7852v0.003906c0.12109 0.35156 0.28125 0.69531 0.46875 1.0195-3.4258-2.1641-7.2344-3.3672-11.242-3.3672-4.1367 0-8.0625 1.2891-11.574 3.5859v-0.003906c0.29688-0.49219 0.53906-1.0117 0.72656-1.5547z"/>
 <path d="m21 46.949c-1.6406 0.085937-2.9297 1.4453-2.9297 3.0898 0.003907 1.6484 1.293 3.0039 2.9375 3.0859-0.058593-1.0391-0.089843-2.0898-0.09375-3.1445 0.003907-1.0195 0.03125-2.0273 0.085938-3.0312z"/>
 <path d="m79.066 46.953c0.054688 1 0.082032 2.0117 0.085938 3.0273 0 1.0547-0.03125 2.1016-0.089844 3.1406h-0.003906c1.6172-0.11719 2.8672-1.4609 2.8711-3.082 0-1.6172-1.2461-2.9648-2.8633-3.0859z"/>
 <path d="m77.117 52.914h-4.1172c-0.52734 7.4492-2.8008 14.363-6.5312 19.746-4.3633 6.3008-10.203 9.7695-16.438 9.7695s-12.074-3.4688-16.438-9.7695c-3.7305-5.3828-6-12.297-6.5312-19.746l-4.1094-0.003906c0.66016 11.73 5.2344 21.969 11.914 28.207-2.8594-0.96875-5.1992-0.23828-6.2031 2.0039-0.5 1.1094-0.27344 2.5898 0.20313 3.4727v0.003906c0.625 1.2148 1.9297 1.9258 3.293 1.7891 1.0742-0.10156 1.9922-0.82031 2.3438-1.8398 0.22656-0.63672 0.19531-1.3359-0.078125-1.9492-0.12891-0.27734-0.38672-0.47266-0.6875-0.51953-0.30469-0.050781-0.60938 0.058594-0.81641 0.28516l-0.089844 0.097657c-0.23438 0.26562-0.30078 0.64453-0.17188 0.97656 0.054688 0.14844 0.054688 0.3125 0 0.46484-0.097656 0.28516-0.34375 0.49219-0.64453 0.53516-0.59375 0.082031-1.1719-0.22656-1.4297-0.76953-0.26953-0.49609-0.33594-1.3125-0.14063-1.7461 0.36719-0.81641 1.4219-1.9961 4.3906-0.72266 1.1484 0.49219 2.0391 1.4961 2.5 2.8242 0.89453 2.5703 2.3359 4.3477 4.2734 5.2812h0.003906c1.0156 0.48437 2.1289 0.73047 3.2539 0.71875 0.78516 0.003906 1.5703-0.10547 2.3242-0.32813 0.66016 0.66797 1.5312 1.082 2.4609 1.1719-0.65234 0.19141-1.0664 0.83203-0.96875 1.5078 0.09375 0.67188 0.67188 1.1719 1.3516 1.1719 0.67969 0 1.2578-0.5 1.3555-1.1719 0.09375-0.67578-0.32031-1.3164-0.97266-1.5078 0.94141-0.089844 1.8203-0.51172 2.4805-1.1875 0.76562 0.22266 1.5586 0.33594 2.3594 0.33203 1.1328 0.007812 2.2539-0.23828 3.2812-0.72656 1.9414-0.93359 3.375-2.707 4.2656-5.2656 0.47656-1.3672 1.3906-2.4219 2.5117-2.9023 3.043-1.3047 4.0781 0.125 4.3828 0.80469 0.19531 0.43359 0.12891 1.25-0.14062 1.7461-0.25781 0.54297-0.83594 0.85547-1.4297 0.77344-0.29688-0.046875-0.54688-0.25391-0.64453-0.53906-0.054687-0.15234-0.054687-0.31641 0-0.46484 0.12891-0.33203 0.066406-0.71094-0.17188-0.97656l-0.089844-0.097657c-0.20703-0.22656-0.51172-0.33203-0.81641-0.28516-0.30078 0.046875-0.55859 0.24219-0.6875 0.51953-0.27344 0.61719-0.30078 1.3125-0.078125 1.9492 0.35547 1.0195 1.2695 1.7383 2.3438 1.8398 1.3633 0.14062 2.668-0.57031 3.293-1.7891 0.47656-0.88672 0.70312-2.3633 0.20312-3.4766-1.1953-2.6602-3.9375-2.8125-6.2031-2.0742 6.6367-6.2461 11.184-16.445 11.84-28.133zm-16.156 32.469c-0.91016 2.6094-2.4297 4.1445-4.5156 4.5625v-0.003906c-0.83984 0.16016-1.6992 0.15234-2.5352-0.019531 0.0625-0.22656 0.10547-0.45312 0.12891-0.68359-2.6562 0.375-5.3516 0.375-8.0078 0 0.023438 0.23438 0.066406 0.47266 0.13281 0.70312-0.82422 0.16797-1.668 0.17188-2.4922 0.011719-2.0703-0.42578-3.5781-1.9648-4.4883-4.5742-0.16797-0.48047-0.38281-0.94531-0.64453-1.3828 3.4922 2.2656 7.3906 3.5352 11.496 3.5352 4.1523 0 8.0859-1.2969 11.609-3.6094-0.27734 0.46094-0.50781 0.94922-0.68359 1.457z"/>
 <path d="m26.949 49.531c0-0.14062 0.003906-0.27734 0.003906-0.41797h-4.0742c-0.003906 0.28906-0.007812 0.57422-0.007812 0.86719 0 0.32812 0.003906 0.65234 0.007812 0.98047h4.0898c-0.011719-0.47656-0.019531-0.95313-0.019531-1.4297z"/>
 <path d="m73.117 49.113c0 0.14062 0.003906 0.27734 0.003906 0.41797 0 0.47656-0.007813 0.95312-0.023438 1.4297h4.0898c0.007812-0.32422 0.007812-0.65234 0.007812-0.98047 0-0.28906-0.003906-0.57812-0.007812-0.86719z"/>
<text x="0.0" y="117.5" font-size="5.0" font-weight="bold" font-family="Arbeit Regular, Helvetica, Arial-Unicode, Arial, Sans-serif" fill="#000000">Created by Icongeek26</text><text x="0.0" y="122.5" font-size="5.0" font-weight="bold" font-family="Arbeit Regular, Helvetica, Arial-Unicode, Arial, Sans-serif" fill="#000000">from Noun Project</text></svg>