<svg xmlns="http://www.w3.org/2000/svg" version="1.1" viewBox="-5.0 -10.0 110.0 135.0">
 <g>
  <path d="m90.762 8.8008c-1.6758 0.23438-3.4219-0.25391-4.7188-1.3516h-72.086c-1.3008 1.0938-3.0469 1.5859-4.7188 1.3516 0.039063 0.27734 0.058594 0.5625 0.058594 0.84766 0 1.4336-0.49609 2.7891-1.4102 3.8711v72.082c0.91406 1.082 1.4102 2.4375 1.4102 3.8711 0 0.28516-0.019531 0.57031-0.058594 0.85156 1.6719-0.23828 3.4219 0.25781 4.7188 1.3516h72.086c1.3008-1.0938 3.0469-1.5898 4.7188-1.3516-0.039063-0.27734-0.058594-0.5625-0.058594-0.85156 0-1.4336 0.49609-2.7891 1.4102-3.8711l-0.003906-72.082c-0.91406-1.082-1.4102-2.4375-1.4102-3.8711 0.003906-0.28516 0.023437-0.57031 0.0625-0.84766zm0.87109 4.8906v71.738c-0.91406 1.1445-1.4102 2.5547-1.4102 4.043 0 0.10547 0.003906 0.21094 0.007813 0.31641-1.5859-0.070312-3.1328 0.42578-4.3555 1.4023h-71.746c-1.2266-0.98047-2.7812-1.4727-4.3555-1.4023 0.003906-0.10547 0.007812-0.21094 0.007812-0.31641 0-1.4883-0.49609-2.8984-1.4102-4.043l-0.003906-71.738c0.91406-1.1445 1.4102-2.5547 1.4102-4.043 0-0.10547 0-0.21094-0.007813-0.31641 1.5781 0.074219 3.1328-0.42188 4.3594-1.4023h71.742c1.2266 0.98047 2.7695 1.4844 4.3555 1.4023-0.003906 0.10547-0.007812 0.21094-0.007812 0.31641 0.003906 1.4883 0.5 2.8984 1.4141 4.043z"/>
  <path d="m93.59 9.6484c0-0.83594 0.32422-1.6211 0.91406-2.2109 0.33203-0.32812 0.49609-0.76172 0.49609-1.1914 0-0.42969-0.16406-0.86328-0.49219-1.1914-0.65625-0.66016-1.7266-0.66016-2.3828 0-1.1836 1.1836-3.2422 1.1836-4.4258 0-0.31641-0.31641-0.74609-0.49219-1.1914-0.49219h-73.02c-0.44531 0-0.875 0.17969-1.1914 0.49219-1.1797 1.1758-3.2383 1.1836-4.4258 0-0.66016-0.66016-1.7227-0.66016-2.3828 0-0.32422 0.32812-0.48828 0.76172-0.48828 1.1914 0 0.42969 0.16406 0.86328 0.49219 1.1914 0.59375 0.58984 0.91797 1.375 0.91797 2.2109 0 0.83594-0.32422 1.625-0.91406 2.2148-0.31641 0.31641-0.49609 0.74219-0.49609 1.1914v73.016c0 0.44531 0.17969 0.875 0.49219 1.1914 0.58984 0.58984 0.91406 1.3789 0.91406 2.2148 0 0.83594-0.32422 1.6211-0.91406 2.2148-0.32813 0.32422-0.49219 0.75391-0.49219 1.1836 0 0.43359 0.16406 0.86328 0.49219 1.1914 0.65625 0.65625 1.7227 0.65625 2.3828 0 1.1836-1.1836 3.2422-1.1836 4.4258 0 0.31641 0.31641 0.74219 0.49219 1.1914 0.49219h73.02c0.44531 0 0.875-0.17969 1.1914-0.49219 1.1836-1.1836 3.2422-1.1836 4.4258 0 0.32812 0.32812 0.75781 0.49219 1.1914 0.49219 0.42969 0 0.86328-0.16406 1.1914-0.49219 0.32422-0.32812 0.48828-0.75781 0.48828-1.1914 0-0.42969-0.16406-0.86328-0.49219-1.1875-0.58984-0.59375-0.91406-1.3789-0.91406-2.2148 0-0.83594 0.32422-1.6211 0.91406-2.2148 0.3125-0.3125 0.49219-0.74219 0.49219-1.1875v-73.016c0-0.44531-0.17969-0.875-0.49219-1.1914-0.59375-0.59375-0.91797-1.3789-0.91797-2.2148zm0.92969 76.422c0 0.31641-0.12891 0.625-0.35156 0.85156-0.68359 0.68359-1.0586 1.5898-1.0586 2.5547 0 0.96484 0.375 1.8672 1.0586 2.5508 0.23438 0.23438 0.35156 0.54297 0.35156 0.85156s-0.11719 0.61719-0.35156 0.85156-0.54297 0.35547-0.85156 0.35547-0.61719-0.11719-0.85156-0.35156c-1.3633-1.3633-3.7383-1.3633-5.1055 0-0.22656 0.22656-0.53125 0.35156-0.85156 0.35156l-73.02-0.003907c-0.32031 0-0.625-0.12891-0.85156-0.35156-1.3633-1.3633-3.7422-1.3633-5.1055 0-0.46875 0.46875-1.2305 0.46875-1.6992 0-0.23438-0.23438-0.35156-0.54297-0.35156-0.85156s0.11719-0.61719 0.35156-0.85156c0.67969-0.68359 1.0586-1.5898 1.0586-2.5508 0-0.96484-0.375-1.8711-1.0586-2.5547-0.22656-0.22656-0.35156-0.53125-0.35156-0.85156v-73.016c0-0.32031 0.12891-0.625 0.35156-0.85156 0.67969-0.67969 1.0547-1.5898 1.0547-2.5547 0-0.96484-0.375-1.8672-1.0547-2.5508-0.23438-0.23438-0.35156-0.54297-0.35156-0.85156s0.11719-0.61719 0.35156-0.85156c0.46875-0.46875 1.2305-0.46875 1.6992 0 1.3672 1.3672 3.7461 1.3555 5.1055 0 0.22656-0.22656 0.53125-0.35156 0.85156-0.35156h73.023c0.31641 0 0.625 0.12891 0.85156 0.35156 1.3633 1.3633 3.7383 1.3633 5.1055 0 0.46875-0.46875 1.2305-0.46875 1.6992 0 0.23438 0.23438 0.35156 0.54297 0.35156 0.85156s-0.11719 0.61719-0.35156 0.85156c-0.68359 0.68359-1.0586 1.5898-1.0586 2.5508 0 0.96484 0.375 1.8711 1.0586 2.5547 0.22656 0.22656 0.35156 0.53125 0.35156 0.85156z"/>
  <path d="m92.629 9.6484c0-1.0938 0.42578-2.1172 1.1992-2.8945 0.14062-0.14062 0.21094-0.32422 0.21094-0.51172 0-0.18359-0.070312-0.37109-0.21094-0.51172-0.28125-0.28125-0.73828-0.28125-1.0234 0-0.77344 0.77344-1.8008 1.1992-2.8906 1.1992-1.0938 0-2.1211-0.42578-2.8945-1.1992-0.13672-0.13672-0.31641-0.21094-0.51172-0.21094l-73.02 0.003907c-0.19141 0-0.375 0.074218-0.51172 0.21094-0.77344 0.77344-1.8008 1.1953-2.8984 1.1953-1.0898 0-2.1172-0.42578-2.8867-1.1953-0.28125-0.28125-0.73828-0.28125-1.0195 0-0.14062 0.14062-0.21094 0.32422-0.21094 0.51172 0 0.18359 0.070312 0.37109 0.21094 0.51172 0.77344 0.77344 1.1992 1.8008 1.1992 2.8906 0 1.0938-0.42578 2.1211-1.1992 2.8945-0.13672 0.13672-0.21094 0.32031-0.21094 0.51172v73.016c0 0.19141 0.074218 0.375 0.21094 0.51172 0.77344 0.77344 1.1992 1.8008 1.1992 2.8945s-0.42578 2.1211-1.1992 2.8945c-0.14062 0.14062-0.21094 0.32422-0.21094 0.51172s0.070312 0.37109 0.21094 0.51172c0.28125 0.28125 0.73828 0.28125 1.0234 0 0.77344-0.77344 1.8008-1.1992 2.8945-1.1992s2.1172 0.42578 2.8906 1.1992c0.13672 0.13672 0.32031 0.21094 0.51172 0.21094l73.02-0.003907c0.19141 0 0.375-0.074218 0.51172-0.21094 0.77344-0.77344 1.8008-1.1992 2.8945-1.1992s2.1172 0.42578 2.8906 1.1992c0.14062 0.14062 0.32422 0.21094 0.51172 0.21094 0.18359 0 0.36719-0.070312 0.51172-0.21094 0.14062-0.14062 0.21094-0.32422 0.21094-0.51172 0-0.18359-0.070313-0.36719-0.21094-0.51172-0.77344-0.77344-1.1992-1.8008-1.1992-2.8945s0.42578-2.1211 1.1992-2.8945c0.13672-0.13672 0.21094-0.32031 0.21094-0.51172l-0.003907-73.012c0-0.19141-0.074218-0.375-0.21094-0.51172-0.77344-0.77344-1.1992-1.8008-1.1992-2.8945zm0.92969 76.422c0 0.0625-0.023438 0.125-0.070313 0.17188-0.86328 0.86328-1.3398 2.0117-1.3398 3.2344 0 1.2227 0.47656 2.3672 1.3398 3.2305 0.046875 0.046875 0.070313 0.10938 0.070313 0.17188s-0.023438 0.125-0.070313 0.17188-0.10547 0.070313-0.17188 0.070313c-0.0625 0-0.12109-0.023438-0.17188-0.070313-0.86328-0.86328-2.0117-1.3398-3.2305-1.3398-1.2227 0-2.3672 0.47656-3.2305 1.3398-0.046875 0.046875-0.10547 0.070313-0.17188 0.070313l-73.023-0.003906c-0.0625 0-0.125-0.023438-0.17188-0.070313-0.86328-0.86328-2.0117-1.3398-3.2305-1.3398-1.2227 0-2.3672 0.47656-3.2344 1.3398-0.09375 0.09375-0.24609 0.09375-0.33984 0-0.046875-0.046875-0.070313-0.10547-0.070313-0.17188 0-0.0625 0.023438-0.125 0.070313-0.17188 0.86328-0.86328 1.3398-2.0117 1.3398-3.2305 0-1.2227-0.47656-2.3711-1.3398-3.2344-0.046875-0.046875-0.070313-0.10547-0.070313-0.17188l0.003906-73.012c0-0.0625 0.023438-0.125 0.070313-0.17188 0.86328-0.86328 1.3398-2.0117 1.3398-3.2344 0-1.2188-0.47266-2.3672-1.3398-3.2305-0.046875-0.046875-0.070313-0.10938-0.070313-0.17188 0-0.058594 0.023438-0.12109 0.070313-0.17188 0.09375-0.09375 0.24609-0.09375 0.33984 0 0.86328 0.86328 2.0117 1.3398 3.2266 1.3398 1.2266 0 2.375-0.47656 3.2383-1.3398 0.046876-0.046875 0.10547-0.070313 0.17188-0.070313h73.02c0.0625 0 0.125 0.023438 0.17188 0.070313 0.86328 0.86328 2.0117 1.3398 3.2305 1.3398s2.3672-0.47656 3.2305-1.3398c0.09375-0.09375 0.24609-0.09375 0.33984 0 0.046875 0.046875 0.070313 0.10938 0.070313 0.17188s-0.023438 0.12109-0.070313 0.17188c-0.86328 0.86328-1.3398 2.0117-1.3398 3.2305 0 1.2227 0.47656 2.3711 1.3398 3.2344 0.046875 0.046876 0.070313 0.10547 0.070313 0.17188v73.016z"/>
  <path d="m92.219 7.3438c-0.70312 0.36328-1.4922 0.55469-2.3086 0.55469-1.3164 0-2.5547-0.5-3.5039-1.4102h-72.816c-0.94531 0.91016-2.1836 1.4102-3.5 1.4102-0.81641 0-1.6016-0.19141-2.3047-0.55469 0.36328 0.70312 0.55469 1.4922 0.55469 2.3047 0 1.3164-0.5 2.5586-1.4102 3.5039v72.82c0.91016 0.94531 1.4102 2.1875 1.4102 3.5039 0 0.81641-0.19141 1.6016-0.55469 2.3047 0.70312-0.36328 1.4922-0.55469 2.3086-0.55469 1.3164 0 2.5547 0.5 3.5 1.4102h72.824c0.94531-0.91016 2.1875-1.4102 3.5039-1.4102 0.81641 0 1.6016 0.19141 2.3086 0.55469-0.36328-0.70312-0.55469-1.4922-0.55469-2.3047 0-1.3164 0.5-2.5586 1.4102-3.5039l-0.011719-72.82c-0.91016-0.94531-1.4102-2.1875-1.4102-3.5039 0-0.8125 0.19141-1.6016 0.55469-2.3047zm0.375 5.9961v72.441c-0.91016 1.0195-1.4102 2.3164-1.4102 3.6914 0 0.50391 0.066406 0.99219 0.19531 1.4648-0.47266-0.12891-0.96484-0.19531-1.4648-0.19531-1.375 0-2.6758 0.5-3.6914 1.4102h-72.445c-1.0156-0.91016-2.3164-1.4102-3.6875-1.4102-0.50391 0-0.99609 0.066406-1.4648 0.19531 0.12891-0.47266 0.19531-0.96484 0.19531-1.4648 0-1.3789-0.49609-2.6758-1.4102-3.6914l-0.003906-72.441c0.91016-1.0156 1.4102-2.3164 1.4102-3.6914 0-0.5-0.066406-0.99219-0.19531-1.4648 0.47266 0.12891 0.96094 0.19531 1.4648 0.19531 1.375 0 2.6758-0.5 3.6914-1.4102h72.445c1.0156 0.91016 2.3125 1.4102 3.6914 1.4102 0.50391 0 0.99219-0.066406 1.4648-0.19531-0.12891 0.47266-0.19531 0.96484-0.19531 1.4648 0 1.375 0.5 2.6758 1.4102 3.6914z"/>
 </g>
<text x="0.0" y="117.5" font-size="5.0" font-weight="bold" font-family="Arbeit Regular, Helvetica, Arial-Unicode, Arial, Sans-serif" fill="#000000">Created by luca fruzza</text><text x="0.0" y="122.5" font-size="5.0" font-weight="bold" font-family="Arbeit Regular, Helvetica, Arial-Unicode, Arial, Sans-serif" fill="#000000">from Noun Project</text></svg>