<svg xmlns="http://www.w3.org/2000/svg" version="1.1" viewBox="-5.0 -10.0 110.0 135.0">
 <path d="m17.738 5-7.3398 7.3398v75.32l7.3398 7.3398h64.52l7.3438-7.3398v-75.32l-7.3398-7.3398zm70.402 82.055-6.4844 6.4844h-63.312l-6.4844-6.4844v-74.109l6.4844-6.4844h63.312l6.4844 6.4844z"/>
 <path d="m80.93 10.168c-0.14063-0.47266-0.21094-0.96094-0.21094-1.457v-0.72656h-25.32v1.457h23.898c0.03125 0.24609 0.070313 0.48828 0.12891 0.72656h-16.824v1.4609h17.336-0.003906c0.65234 1.3203 1.7188 2.3867 3.0391 3.0352v17.336h1.4609l-0.003906-16.824c0.24219 0.054688 0.48437 0.097657 0.72656 0.125v23.898h1.4609v-25.316h-0.73047c-0.49219 0-0.98438-0.074218-1.457-0.21094v-3.5039zm2.043 2.8086c-0.53125-0.35937-0.98828-0.82031-1.3516-1.3477h1.3516z"/>
 <path d="m20.574 89.832h16.824v-1.4609h-17.336 0.003906c-0.65234-1.3203-1.7188-2.3867-3.0391-3.0352v-17.336h-1.457v16.824c-0.24219-0.054688-0.48437-0.097657-0.72656-0.125v-23.898h-1.4609v25.316h0.73047c0.49219 0 0.98438 0.070312 1.457 0.21094v3.5h3.5v0.003906c0.14063 0.47266 0.21094 0.96094 0.21094 1.457v0.73047l25.32-0.003906v-1.457h-23.898c-0.03125-0.24609-0.070313-0.48828-0.12891-0.72656zm-3.5469-1.4609v-1.3516 0.003907c0.53125 0.35937 0.98828 0.82031 1.3516 1.3477z"/>
 <path d="m85.156 84.699c-0.24219 0.027343-0.48438 0.070312-0.72656 0.125v-16.824h-1.457v17.336c-1.3203 0.64844-2.3867 1.7148-3.0391 3.0352h-17.332v1.4609h16.824c-0.058593 0.23828-0.10156 0.48047-0.12891 0.72656h-23.898v1.4609h25.316v-0.73047h0.003906c0-0.49609 0.070312-0.98437 0.21094-1.457h3.5v-3.5039c0.47266-0.14062 0.96484-0.21094 1.457-0.21094h0.73047v-25.316h-1.4609zm-2.1836 3.6719h-1.3516c0.36328-0.52734 0.82031-0.98828 1.3516-1.3477z"/>
 <path d="m19.281 8.7109c0 0.49609-0.070312 0.98437-0.21094 1.457h-3.5v3.5039c-0.47266 0.13672-0.96484 0.21094-1.457 0.21094h-0.73047v25.316h1.4609v-23.898c0.24219-0.027343 0.48438-0.070312 0.72656-0.125v16.824h1.457v-17.336c1.3203-0.64844 2.3867-1.7148 3.0391-3.0352h17.332v-1.4609h-16.824c0.058593-0.23828 0.10156-0.48047 0.12891-0.72656h23.898v-1.457h-25.32zm-2.2539 4.2656v-1.3477h1.3516c-0.36328 0.52734-0.82031 0.98828-1.3516 1.3477z"/>
<text x="0.0" y="117.5" font-size="5.0" font-weight="bold" font-family="Arbeit Regular, Helvetica, Arial-Unicode, Arial, Sans-serif" fill="#000000">Created by Kim Sun Young</text><text x="0.0" y="122.5" font-size="5.0" font-weight="bold" font-family="Arbeit Regular, Helvetica, Arial-Unicode, Arial, Sans-serif" fill="#000000">from Noun Project</text></svg>