<svg xmlns="http://www.w3.org/2000/svg" viewBox="0 0 512 512" x="0px" y="0px">
    <title>Breathe Stormlight</title>
    <path
        d="M447.1,422.13a8.29,8.29,0,0,0-11.79,0l-41.85,42.41a4.79,4.79,0,0,0,3.4,8.15H419v11.09a3.94,3.94,0,0,0,3.94,3.94H459.5a4,4,0,0,0,3.95-3.94V472.69h22.1a4.78,4.78,0,0,0,3.4-8.15Z" />
    <path
        d="M447.1,312.65a8.29,8.29,0,0,0-11.79,0l-41.85,42.41a4.79,4.79,0,0,0,3.4,8.15H419v11.08a3.94,3.94,0,0,0,3.94,3.95H459.5a4,4,0,0,0,3.95-3.95V363.21h22.1a4.78,4.78,0,0,0,3.4-8.15Z" />
    <path
        d="M334.82,33.69a84,84,0,1,0,22.67,116.56A84,84,0,0,0,334.82,33.69Zm-52.2,56c-11.89,7.37-26.23,5.78-32-3.57s-.85-22.89,11-30.27,26.24-5.78,32,3.56S294.51,82.27,282.62,89.65Z" />
    <path
        d="M188.17,310.25c10.71-11.32,23.3-24.93,31.31-33.62a38.76,38.76,0,0,1,18.87-11.32c23.71-6.09,40.08-13.89,49.29-19.08a21.1,21.1,0,0,0,10.43-14.9,11.08,11.08,0,0,0-10.77-12.86A104.49,104.49,0,0,1,270,216.66a122.12,122.12,0,0,1-80.54-54.32A103.62,103.62,0,0,1,181.32,147a11.09,11.09,0,0,0-16-5.16,21.07,21.07,0,0,0-9.89,15.25c-1.37,10.48-2.47,28.58.78,52.85a38.84,38.84,0,0,1-3.42,21.73c-5.06,10.68-13,27.46-19.44,41.63a27.52,27.52,0,0,0,7.44,32.79c2,1.64,4.29,3.34,6.87,5.08s5,3.22,7.29,4.47A27.52,27.52,0,0,0,188.17,310.25Z" />
    <path
        d="M132.18,334.18a92.9,92.9,0,0,1-16.54-15.57,16,16,0,0,0-22.42-2.77l-.42.32a15.91,15.91,0,0,0-4,20.29,77.07,77.07,0,0,0,57.53,38.8,15.9,15.9,0,0,0,17.31-11.32l.15-.5a16,16,0,0,0-11-19.75A93.28,93.28,0,0,1,132.18,334.18Z" />
    <path
        d="M22.75,486.3a11.18,11.18,0,0,0,18.54,2.51c5.25-6.07,17.17-18.86,40.16-39.19a279.59,279.59,0,0,0,37.16-39.75,15.29,15.29,0,0,0-6.13-23.3l-.37-.16a67.44,67.44,0,0,1-20.83-14.05l-.29-.28a15.29,15.29,0,0,0-23.9,3,280.28,280.28,0,0,0-22.93,49.36c-10.22,28.93-17.62,44.78-21.28,51.92a11.15,11.15,0,0,0-.13,9.9Z" />
</svg>
