<svg xmlns="http://www.w3.org/2000/svg" viewBox="0 0 512 512" x="0px" y="0px">
    <title>Disengage</title>
    <path
        d="M468.24,295.15c-24.05,12.45-65.17,36.27-93.37,66.16a7.91,7.91,0,0,1-13.7-5.36V298.14a10.45,10.45,0,0,0-16.39-8.6c-20.44,14.13-56.12,41.19-84.23,75.09a7.89,7.89,0,0,1-13.94-5.09V294a8.33,8.33,0,0,0-12.92-6.95C215,299.34,180,323.56,154,348.25a19.1,19.1,0,0,0-3.29,23.5A86.14,86.14,0,0,1,161,399.51a11.75,11.75,0,0,1-11.51,13.88h-4a61.3,61.3,0,1,0-2.27,33.22H464.21a23.56,23.56,0,0,0,23.56-23.55V307A13.38,13.38,0,0,0,468.24,295.15ZM85.54,446.61A20.64,20.64,0,1,1,106.17,426,20.63,20.63,0,0,1,85.54,446.61Z" />
    <path
        d="M39.06,328.06c-6.62,9.45,3.07,21.68,13.73,17.27a98.45,98.45,0,0,1,45.29-7,38.87,38.87,0,0,0,40.4-28.64A117.06,117.06,0,0,0,142,288.57a37.33,37.33,0,0,1,9.82-22.32l70.74-76.7A15.22,15.22,0,0,0,211.41,164h-37.9a15.22,15.22,0,0,1-12-24.54l70-90.22a15.21,15.21,0,0,0-12-24.54H101.88A25.65,25.65,0,0,0,76.23,50.37V285.91a22.24,22.24,0,0,1-12,19.73A70.31,70.31,0,0,0,39.06,328.06Z" />
</svg>
