<svg xmlns="http://www.w3.org/2000/svg" viewBox="0 0 512 512" x="0px" y="0px">
    <title>Division</title>
    <path
        d="M93.49,338.68a115.67,115.67,0,0,1-27.78-12.92c-7.2-4.68-16.74,3.15-12.52,10.63C75.28,375.45,110.87,429.7,166,488a12.37,12.37,0,0,0,21.36-8.49V25.61c0-6.35-9-7.57-10.69-1.44-10.36,37.9-26,98.59-36.74,155.3a109,109,0,0,1-6,25.43,24.89,24.89,0,0,1-37,12,204.6,204.6,0,0,1-24.78-19.26c-5.13-4.71-13.06.8-10.39,7.23C71.94,229.45,87,261.82,104.6,287.25c7.38,10.68,11.79,19.44,14,26.74C123.27,329.28,108.73,343.51,93.49,338.68Z" />
    <path
        d="M346,488c55.15-58.25,90.74-112.5,112.83-151.56,4.22-7.48-5.32-15.31-12.52-10.63a115.67,115.67,0,0,1-27.78,12.92c-15.24,4.83-29.78-9.4-25.12-24.69,2.22-7.3,6.63-16.06,14-26.74,17.57-25.43,32.66-57.8,42.88-82.36,2.67-6.43-5.26-11.94-10.39-7.23a204.6,204.6,0,0,1-24.78,19.26,24.89,24.89,0,0,1-37-12,109,109,0,0,1-6.05-25.43c-10.7-56.71-26.38-117.4-36.74-155.3-1.68-6.13-10.69-4.91-10.69,1.44V479.46A12.37,12.37,0,0,0,346,488Z" />
</svg>
