<svg xmlns="http://www.w3.org/2000/svg" version="1.1" viewBox="-5.0 -10.0 110.0 110.0">
    <path
        d="m39.465 21.391c0.34766-0.11719 0.89062-0.24609 1.2109-0.29297 0.32031-0.050781 0.87109-0.085937 1.2305-0.097656 0.36719 0 1 0.058594 1.4062 0.14453 0.41797 0.089844 1.0586 0.28516 1.4336 0.42969 0.37891 0.15625 0.98047 0.5 1.3594 0.76172 0.37891 0.26562 0.95703 0.78125 1.3086 1.1523 0.34766 0.37109 0.8125 0.98438 1.0352 1.3555 0.22266 0.38281 0.51562 1.0156 0.65234 1.418 0.13281 0.39844 0.28906 1.082 0.35547 1.5117 0.058594 0.42969 0.078125 1.1133 0.050781 1.5117-0.03125 0.39844-0.14453 1.0625-0.26172 1.4648-0.10547 0.39844-0.36719 1.0625-0.57422 1.4648-0.21094 0.39844-0.58984 0.99219-0.85156 1.3164-0.25391 0.32031-0.72656 0.80078-1.0391 1.0547-0.31641 0.26172-0.97656 0.66016-1.4531 0.89453-0.47266 0.23438-1.1523 0.50781-1.5 0.59766-0.44922 0.125-0.99219 0.17578-1.8906 0.17578-0.91406 0-1.4375-0.050781-1.8906-0.17578-0.35156-0.097656-0.89453-0.29297-1.2148-0.44141-0.31641-0.14453-0.80469-0.41016-1.0664-0.59375-0.26953-0.17578-0.70703-0.52734-0.96875-0.76953-0.26953-0.24609-0.66797-0.66406-0.90234-0.9375-0.23047-0.26563-0.60938-0.89063-0.85156-1.3672-0.28906-0.58594-0.49609-1.1875-0.62109-1.8047-0.10547-0.50781-0.19141-1.1914-0.19141-1.5117 0-0.32422 0.066406-0.98828 0.15234-1.4648 0.078126-0.48047 0.27344-1.1797 0.42578-1.5625 0.15625-0.37109 0.46875-0.94531 0.69141-1.2695 0.21094-0.32031 0.58203-0.77734 0.79297-1.0039 0.22266-0.23437 0.66797-0.61328 0.98828-0.84766 0.32031-0.22656 0.79688-0.52734 1.0664-0.66406 0.26172-0.13672 0.76562-0.33203 1.1172-0.44922z" />
    <path
        d="m59.047 22.25c0.34766-0.14844 0.92969-0.33203 1.3086-0.41016 0.37891-0.089844 1.0859-0.15625 1.5703-0.15625 0.49609-0.011719 1.2422 0.058594 1.6484 0.14453 0.41797 0.078125 1.0156 0.25391 1.3359 0.39062 0.32031 0.12891 0.81641 0.38281 1.1055 0.55859 0.28125 0.16406 0.82422 0.59375 1.1953 0.94531 0.375 0.35156 0.87891 0.94531 1.1211 1.3164 0.25391 0.38281 0.57422 0.96875 0.71875 1.3203 0.14453 0.34766 0.33984 0.98438 0.42578 1.4141 0.11719 0.58594 0.14453 1.0938 0.11719 2-0.039062 1.043-0.085938 1.3477-0.34766 2.0977-0.17578 0.47656-0.45703 1.1133-0.62109 1.3945-0.17578 0.29297-0.54297 0.80078-0.80469 1.125-0.27344 0.33203-0.79687 0.83594-1.1641 1.1211-0.37891 0.28125-0.98047 0.66406-1.3555 0.84766-0.37891 0.1875-1.0078 0.42188-1.4062 0.51953-0.39844 0.10547-1.1641 0.22266-1.6992 0.25391-0.72656 0.058594-1.1602 0.027344-1.7422-0.089843-0.42578-0.085938-1.0781-0.30078-1.457-0.47656-0.375-0.17578-0.89844-0.46875-1.1602-0.64453-0.27344-0.1875-0.76563-0.60547-1.1055-0.92578-0.33984-0.32422-0.80469-0.85156-1.0273-1.1719-0.23438-0.32422-0.52344-0.80078-0.66016-1.0742-0.13672-0.26562-0.33984-0.82031-0.46484-1.2188-0.19531-0.61719-0.23438-0.92969-0.22266-1.9531 0.007812-0.78125 0.066406-1.4648 0.17188-1.9023 0.089844-0.37109 0.28125-0.96875 0.42969-1.3164 0.14453-0.35156 0.50391-0.98828 0.79297-1.4062 0.29297-0.42188 0.77734-0.99609 1.0664-1.2578 0.29297-0.27344 0.77734-0.64453 1.0664-0.83984 0.29297-0.1875 0.81641-0.46094 1.1641-0.60547z" />
    <path
        d="m26.473 33.062c0.24219-0.10938 0.69922-0.25391 1.0195-0.32422 0.36719-0.085937 1.0352-0.11719 1.8398-0.097656 1.0781 0.019531 1.3789 0.070313 2.0352 0.29297 0.42969 0.14844 1.0195 0.42188 1.3086 0.59766 0.29297 0.18359 0.76953 0.54688 1.0586 0.80078 0.28906 0.25391 2.1602 2.4492 4.1602 4.8594 1.9961 2.418 3.7422 4.4961 4.1367 4.8477l9.6953-0.058593 0.62109 0.28516c0.33984 0.16406 0.64844 0.33203 0.6875 0.39062 0.058594 0.066406-0.42578 0.11719-1.3867 0.16406-0.8125 0.03125-1.6875 0.12891-1.957 0.20703-0.26172 0.066406-0.69922 0.23438-0.96875 0.35156-0.29297 0.13672-0.73828 0.47656-1.1172 0.86719-0.34766 0.35938-0.77344 0.91797-0.9375 1.2383-0.17578 0.32422-0.37891 0.85156-0.45703 1.1719-0.085938 0.32422-0.15625 0.84766-0.15625 1.1719 0 0.32031 0.089843 0.9375 0.35937 2.1484l-3.0625 0.066407c-2.4336 0.058593-3.1914 0.050781-3.6953-0.058594-0.34766-0.066406-0.86328-0.24219-1.1328-0.39062-0.36719-0.17578-0.87109-0.63281-1.7461-1.543-0.67578-0.71094-1.8516-1.9219-2.5977-2.6914-0.74609-0.76172-1.4258-1.3867-1.5117-1.3867-0.078125 0-1.3008 1.1719-2.7148 2.6172-1.4062 1.4336-2.9961 3.0547-3.5273 3.5977-0.83594 0.85938-0.96094 1.0273-0.875 1.1914 0.058594 0.097656 0.46875 0.48828 0.92188 0.85156 0.45703 0.37109 1.6094 1.3438 2.5703 2.1836 0.96094 0.83984 2.5977 2.2656 3.6328 3.1641 1.0391 0.90625 2.3594 2.0586 2.9375 2.5547 0.57422 0.50781 1.2227 1.1523 1.4375 1.4336 0.22266 0.27344 0.51172 0.70312 0.64844 0.94922 0.14453 0.24219 0.36719 0.72266 0.51562 1.0742 0.13281 0.35156 0.62891 2.1953 1.0938 4.0977 0.45703 1.9023 1.2109 5.0859 1.668 7.0742 0.45703 1.9922 1.0664 4.625 1.3555 5.8555 0.28125 1.2305 0.52344 2.4414 0.52344 2.6836 0 0.24609-0.066407 0.68359-0.15234 0.97656-0.089844 0.29297-0.29297 0.75-0.45703 1.0156-0.17578 0.26172-0.45703 0.60547-0.62109 0.76172-0.17578 0.14453-0.52344 0.37891-0.77344 0.50781-0.26172 0.125-0.74609 0.28906-1.0977 0.34766-0.34766 0.070313-0.91016 0.10938-1.2578 0.078125-0.41016-0.039062-0.81641-0.14453-1.1641-0.32812-0.29297-0.14844-0.74609-0.46875-1.0078-0.71484-0.26172-0.24219-0.60156-0.64453-0.76562-0.88672-0.22266-0.32422-0.73047-1.7656-1.8828-5.418-0.87109-2.7305-2.0469-6.4297-2.6055-8.1953-0.5625-1.7656-1.0977-3.3672-1.1836-3.5547-0.089844-0.18359-0.35938-0.50781-0.60156-0.71094-0.24219-0.20313-1.9883-1.4336-3.8789-2.7227-1.8906-1.2969-4.5547-3.1328-5.9141-4.0898-1.3555-0.94531-3.082-2.1367-3.8203-2.6445-0.9375-0.64453-1.5586-1.1523-2.0742-1.6992-0.49219-0.53516-0.83203-1.0234-1.0938-1.5586-0.21484-0.42969-0.46484-1.1328-0.57031-1.5625-0.13672-0.53516-0.19531-1.1016-0.19531-1.8047 0-0.58594 0.058594-1.2695 0.14453-1.6094 0.078126-0.32422 0.30078-0.89062 0.48438-1.2695 0.19531-0.38281 0.70703-1.1719 1.1445-1.7773 0.4375-0.60547 1.5625-2.0781 2.4922-3.2695 0.92969-1.1992 2.5195-3.25 3.5391-4.5664 1.0156-1.3164 2.4141-3.1328 3.1094-4.0508 0.69922-0.91797 1.4844-1.8633 1.7461-2.1055 0.26172-0.24609 0.73828-0.61719 1.0586-0.82031 0.31641-0.20703 0.77344-0.46094 1.0156-0.56641z" />
    <path
        d="m71.359 33.648c0.48438-0.24609 0.99609-0.41016 1.5508-0.5 0.45312-0.078126 1.0156-0.13672 1.2578-0.14453 0.24219-0.011718 0.82422 0.058594 1.3086 0.13672 0.60156 0.10547 1.1172 0.26172 1.6484 0.53516 0.42969 0.20703 1.0391 0.59766 1.3594 0.85938 0.32031 0.27344 0.96094 0.9375 1.4141 1.4922 0.45703 0.55859 1.8125 2.2461 3.0156 3.75 1.1914 1.5 3.3555 4.2031 4.7891 6.0117 1.4336 1.8047 2.7539 3.5117 2.918 3.8047 0.17578 0.29297 0.4375 0.80859 0.57031 1.1602 0.14844 0.35156 0.32031 0.9375 0.39844 1.3203 0.10547 0.47656 0.125 0.98438 0.097656 1.707-0.046875 0.78125-0.42578 2.8672-1.6094 8.7812-0.86328 4.2656-1.5625 7.8281-1.5625 7.9062-0.007813 0.078125 0.37109 0.65234 0.83594 1.2695 0.46484 0.61328 1.2422 1.668 1.7148 2.3398 0.48438 0.67188 1.9023 2.6953 3.1523 4.4883 1.2578 1.7969 2.3945 3.5156 2.5273 3.8086 0.21484 0.46875 0.25391 0.66406 0.25391 1.5586 0 0.95703-0.019531 1.0664-0.32031 1.6914-0.16406 0.35938-0.52344 0.88672-0.78516 1.168-0.30859 0.33203-0.67969 0.60547-1.0859 0.79297-0.46484 0.21484-0.80469 0.30078-1.3945 0.33203-0.61328 0.039062-0.90234 0-1.4062-0.15625-0.34766-0.11719-0.82422-0.34375-1.0664-0.5-0.24219-0.14453-0.57422-0.42969-0.73828-0.60547-0.16406-0.18359-1.0469-1.2969-1.9492-2.4766-0.89844-1.1797-2.7305-3.5742-4.0586-5.3203l-0.37109-0.48047c-1.2031-1.5703-2.3008-3.0039-2.5391-3.3242-0.26953-0.35156-0.64844-0.96484-0.84375-1.3672-0.24609-0.48828-0.41797-1.0234-0.52344-1.6094-0.097657-0.57422-0.125-1.1602-0.097657-1.707 0.03125-0.46094 0.16406-1.3398 0.30078-1.9531 0.13672-0.61328 0.47656-1.9531 0.74609-2.9766 0.27344-1.0234 0.52344-2.1172 0.55469-2.4297 0.046875-0.37891 0.039063-0.56641-0.03125-0.53516-0.058594 0.019532-1.0156 0.70313-2.1211 1.5-1.1172 0.8125-2.6172 1.9062-3.3438 2.4297-0.72656 0.53906-2.0547 1.5547-2.957 2.2461-0.90234 0.70312-1.707 1.3672-1.793 1.4727-0.089843 0.11719-0.41016 0.99609-0.73047 1.9531-0.30859 0.96484-1.1719 3.4922-1.918 5.6094-0.67578 1.918-1.5586 4.457-2.0781 5.957l-0.15234 0.4375c-0.50391 1.4648-0.99609 2.7422-1.1719 3.0156-0.17578 0.27344-0.57031 0.67188-0.89062 0.91797-0.32031 0.23438-0.80469 0.49609-1.0664 0.60547-0.27344 0.097656-0.74609 0.20312-1.0664 0.24219-0.35156 0.039063-0.81641 0.019531-1.1641-0.046875-0.32031-0.070312-0.79688-0.23438-1.0586-0.38281-0.25-0.13672-0.67578-0.48828-0.9375-0.76172-0.26172-0.28125-0.61328-0.80859-0.78516-1.1719-0.23438-0.50391-0.32031-0.82812-0.35156-1.3945-0.039063-0.58594 0.011718-0.9375 0.21484-1.707 0.14453-0.53516 0.46484-1.6602 0.70703-2.4883 0.24219-0.82812 0.71875-2.4609 1.0469-3.6094 0.33984-1.1523 1.1523-3.9648 1.793-6.2461 0.64844-2.2852 1.2891-4.4336 1.4141-4.7812 0.13672-0.35156 0.4375-0.9375 0.67188-1.3203 0.23047-0.37891 0.67578-0.92578 0.98828-1.2305 0.30859-0.30078 1.8906-1.5117 3.5195-2.6836 1.6289-1.168 4.332-3.1328 6.0078-4.3594 1.6797-1.2305 3.2188-2.4102 3.4258-2.6172 0.19141-0.21484 0.35547-0.45703 0.35547-0.54688 0-0.097656-0.88281-1.0547-1.957-2.1367-1.0859-1.0742-2.5977-2.5273-3.375-3.2188-0.77344-0.69531-1.4805-1.3281-1.5781-1.4062-0.16406-0.13672-0.41797 0.097656-3.4414 3.1406-2.918 2.9297-3.3359 3.3203-3.8984 3.582-0.34766 0.16797-0.96094 0.37109-1.3555 0.46094-0.60156 0.13672-1.0664 0.15625-2.6172 0.10547-1.0391-0.027344-3.1523-0.097657-4.7031-0.15625-1.5508-0.058594-3.2266-0.15625-3.7344-0.20312-0.64844-0.078125-1.0938-0.1875-1.5-0.37109-0.32031-0.14844-0.77734-0.44922-1.0195-0.67578-0.24219-0.21484-0.55078-0.60156-0.69531-0.86719-0.14844-0.26172-0.30078-0.74219-0.35156-1.0625-0.046875-0.32422-0.058594-0.83203-0.019531-1.125s0.19531-0.78906 0.35156-1.1094c0.15234-0.3125 0.47266-0.75391 0.71484-0.96875 0.24219-0.22266 0.63281-0.48828 0.875-0.58594 0.31641-0.14453 0.80469-0.21484 1.8398-0.27344 0.77734-0.039062 2.9297-0.15625 4.8008-0.24219 1.8711-0.085938 3.4883-0.19531 3.6133-0.24219 0.11719-0.050781 0.76562-0.73438 1.4453-1.5234 0.67969-0.80078 2.1133-2.4609 3.1797-3.6914 1.0781-1.2266 2.6094-3.0352 3.4141-4 0.79297-0.96484 1.7344-2.0195 2.0742-2.3398 0.36719-0.36328 0.91016-0.74219 1.3477-0.95703z" />
    <path
        d="m13.203 62.465c-0.11719-0.72266-0.20312-1.4844-0.20312-1.6797 0-0.20312 0.015625-0.36719 0.046875-0.36719 0.027344 0 0.80469 0.5625 1.7266 1.2461 0.91016 0.69531 2.6445 1.9609 3.8477 2.8203s2.6836 1.9141 4.4102 3.1133l0.078125 0.52734c0.039063 0.29297 0.078125 1.4648 0.11719 4.6445l-0.35937 0.72266c-0.19531 0.40234-0.62891 1.0664-0.98047 1.4648-0.33984 0.39844-1.9375 2.207-3.5586 4-1.6172 1.7969-3.9062 4.3242-5.0859 5.6133-1.1836 1.2891-2.4141 2.5859-2.7266 2.8867-0.33984 0.33203-0.84375 0.68359-1.25 0.87891-0.60938 0.30469-0.75781 0.33203-1.5508 0.33203-0.75781 0-0.94922-0.039063-1.4258-0.26172-0.30859-0.15625-0.78516-0.48047-1.0547-0.73438-0.28125-0.27344-0.61328-0.71094-0.77734-1.0547-0.15625-0.32031-0.32812-0.82813-0.38672-1.1211-0.058593-0.29297-0.089843-0.86719-0.058593-1.2695 0.027343-0.39844 0.13672-0.97656 0.25-1.2656 0.14844-0.40234 0.5625-0.96875 1.6289-2.2461 0.78516-0.9375 2.5117-3.0273 3.8203-4.6367 1.3203-1.6094 2.8789-3.5234 3.4727-4.2422 0.58984-0.72266 1.0742-1.4062 1.0742-1.5156 0-0.10547-0.19141-1.6172-0.42578-3.3672-0.24219-1.7461-0.52344-3.7656-0.62891-4.4883z" />
</svg>
