<svg xmlns="http://www.w3.org/2000/svg" viewBox="0 0 512 512" x="0px" y="0px">
    <title>Illumination</title>
    <circle cx="256" cy="256" r="117.16" />
    <path
        d="M248.33,30.51C239.79,52.2,227,82,219.6,101.18a8,8,0,0,0,9,10.8,147.32,147.32,0,0,1,54.9,0,8,8,0,0,0,8.95-10.8C285,82,272.21,52.2,263.67,30.51a8.16,8.16,0,0,0-7.58-5.16h-.18A8.16,8.16,0,0,0,248.33,30.51Z" />
    <path
        d="M248.33,481.49C239.79,459.8,227,430,219.6,410.82a8,8,0,0,1,9-10.8,147.32,147.32,0,0,0,54.9,0,8,8,0,0,1,8.95,10.8c-7.38,19.15-20.19,49-28.73,70.67a8.16,8.16,0,0,1-7.58,5.16h-.18A8.16,8.16,0,0,1,248.33,481.49Z" />
    <path
        d="M481.49,248.33C459.8,239.79,430,227,410.82,219.6a8,8,0,0,0-10.8,9,147.32,147.32,0,0,1,0,54.9,8,8,0,0,0,10.8,8.95c19.15-7.38,49-20.19,70.67-28.73a8.16,8.16,0,0,0,5.16-7.58v-.18A8.16,8.16,0,0,0,481.49,248.33Z" />
    <path
        d="M30.51,248.33C52.2,239.79,82,227,101.18,219.6a8,8,0,0,1,10.8,9,147.32,147.32,0,0,0,0,54.9,8,8,0,0,1-10.8,8.95C82,285,52.2,272.21,30.51,263.67a8.16,8.16,0,0,1-5.16-7.58v-.18A8.16,8.16,0,0,1,30.51,248.33Z" />
    <path
        d="M410,91.13c-21.37,9.3-51.53,21.33-70.29,29.66a8,8,0,0,0-1.3,14,147.66,147.66,0,0,1,38.82,38.82,8,8,0,0,0,14-1.3c8.33-18.76,20.36-48.92,29.66-70.29a8.15,8.15,0,0,0-1.72-9l-.06-.06-.06-.06A8.15,8.15,0,0,0,410,91.13Z" />
    <path
        d="M91.13,410c9.3-21.37,21.33-51.53,29.66-70.29a8,8,0,0,1,14-1.3,147.66,147.66,0,0,0,38.82,38.82,8,8,0,0,1-1.3,14c-18.76,8.33-48.92,20.36-70.29,29.66a8.15,8.15,0,0,1-9-1.72l-.06-.06-.06-.06A8.15,8.15,0,0,1,91.13,410Z" />
    <path
        d="M420.87,410c-9.3-21.37-21.33-51.53-29.66-70.29a8,8,0,0,0-14-1.3,147.66,147.66,0,0,1-38.82,38.82,8,8,0,0,0,1.3,14c18.76,8.33,48.92,20.36,70.29,29.66a8.15,8.15,0,0,0,9-1.72l.06-.06.06-.06A8.15,8.15,0,0,0,420.87,410Z" />
    <path
        d="M102,91.13c21.37,9.3,51.53,21.33,70.29,29.66a8,8,0,0,1,1.3,14,147.66,147.66,0,0,0-38.82,38.82,8,8,0,0,1-14-1.3c-8.33-18.76-20.36-48.92-29.66-70.29a8.15,8.15,0,0,1,1.72-9l.06-.06.06-.06A8.15,8.15,0,0,1,102,91.13Z" />
</svg>
