<svg xmlns="http://www.w3.org/2000/svg" viewBox="0 0 512 512" x="0px" y="0px">
    <title>Strike : Offhand</title>
    <path
        d="M451.16,481.38l8.25-8.25,8.25-8.25a6,6,0,0,0,.22-8.21l-85.06-94.35a5.08,5.08,0,0,0-7.37-.19l-27,27a5.08,5.08,0,0,0,.19,7.37L443,481.59A6,6,0,0,0,451.16,481.38Z" />
    <path
        d="M44.34,464.88l8.25,8.25,8.25,8.25a6,6,0,0,0,8.2.21l94.35-85.06a5.08,5.08,0,0,0,.19-7.37l-27-27a5.08,5.08,0,0,0-7.37.19L44.12,456.67A6,6,0,0,0,44.34,464.88Z" />
    <path
        d="M50.81,30.3a4.81,4.81,0,0,0-8.19,3.92c3.56,33,19.92,124.33,94.84,228.28a30.47,30.47,0,0,0,14.38,10.86c5.65,2,13.88,5.16,24,9.4a10.1,10.1,0,0,0,11-2.16l50.38-50.39a9.54,9.54,0,0,0,0-13.5Z" />
    <path
        d="M283.91,380.6l18.22,18.22a5,5,0,0,0,7.07,0l70.52-70.51a5,5,0,0,0,0-7.07L361.49,303a5,5,0,0,0-7.07,0L339,318.46,331,310.53a9.74,9.74,0,0,0-11-1.94c-12.44,5.88-26.25,13-40.71,21.3a5.43,5.43,0,0,0-.38,9.16c7.58,5.28,15.17,10.87,22.68,16.8l-17.67,17.67A5,5,0,0,0,283.91,380.6Z" />
    <path
        d="M461.19,30.3,173,318.46,157.58,303a5,5,0,0,0-7.07,0l-18.23,18.23a5,5,0,0,0,0,7.07l70.52,70.51a5,5,0,0,0,7.07,0L228.1,380.6a5,5,0,0,0,0-7.08l-17.68-17.67C271,308,337,281.71,360.17,273.36a30.49,30.49,0,0,0,14.37-10.86c74.91-103.94,91.28-195.27,94.84-228.27A4.82,4.82,0,0,0,461.19,30.3Z" />
</svg>
