<svg xmlns="http://www.w3.org/2000/svg" xmlns:xlink="http://www.w3.org/1999/xlink" version="1.1" x="0px" y="0px" viewBox="0 0 1000 1250" style="enable-background:new 0 0 1000 1000;" xml:space="preserve"><g><path d="M792.1,298.9c-2.7-25.4-19.9-47.1-44.1-55.2c-13-4.3-26.8-5.9-41.1-4c-38.9,5.2-69.8,27-93.8,58.3   c-7.1,9.3-12.4,19.6-16.6,30.7c-0.4,1.2-1.6,1.7-2.7,1.5c-1.1,0.2-2.2-0.3-2.7-1.5c-4.2-11.1-9.5-21.4-16.6-30.7   c-23.9-31.3-54.9-53-93.8-58.3c-30.5-4.1-58.7,7.6-81.8,28.4c-17.7,15.9-34.6,32.8-42.6,56.1c-10.3-8-18-19-21.8-34.1   c-3.8-15,0.8-28.2,13.3-37.1c7.9-5.6,20.1-2.6,26.2,6.3c1.9,2.8,2.5,7.8,7.6,6.4c4.2-1.1,6.3-4.6,7.6-8.7   c6.4-20-11.8-45.7-32.6-47.6c-34-3.1-57.8,27.2-49.4,60.4c1.3,5.1,2.6,10.1,4.4,17.4c-17.1-11.5-22-26.4-22.5-43.7   c-0.2-5.7-0.5-11.4-1.8-16.9c-3.2-13.9-16.2-20.5-29.9-16.4c-7.3,2.2-13.7,6.7-21.9,6.6c-7.2-0.1-12.9-2.8-18.7-6.1   c-1.9-1.1-4.2-2.7-6.4-0.5c-0.2,0.1-0.3,0.3-0.4,0.4c-0.1,0.1-0.3,0.2-0.4,0.4c-2.1,2.3-0.6,4.5,0.5,6.4c3.3,5.8,6,11.6,6.1,18.7   c0.1,8.2-4.3,14.7-6.6,21.9c-4.2,13.8,2.5,26.7,16.4,29.9c5.5,1.3,11.2,1.6,16.9,1.8c17.3,0.5,32.2,5.3,43.7,22.5   c-7.3-1.9-12.3-3.1-17.4-4.4c-33.3-8.4-63.5,15.4-60.4,49.4c1.9,20.8,27.6,39.1,47.6,32.6c4.1-1.3,7.5-3.4,8.7-7.6   c1.4-5.1-3.6-5.7-6.4-7.6c-8.8-6.1-11.9-18.3-6.3-26.2c8.9-12.5,22-17.2,37.1-13.3c15.4,3.9,26.4,11.7,34.5,22.3c0,0,0,0,0,0   c-24.5,7.7-41.9,25.1-58.3,43.4c-20.8,23.1-32.5,51.4-28.4,81.8c5.2,38.9,27,69.8,58.3,93.8c9.3,7.1,19.6,12.4,30.7,16.6   c1.2,0.4,1.7,1.6,1.5,2.7c0.2,1.1-0.3,2.2-1.5,2.7c-11.1,4.2-21.4,9.5-30.7,16.6c-31.3,23.9-53,54.9-58.3,93.8   c-1.9,14.3-0.4,28.1,4,41.1c8.1,24.2,29.8,41.3,55.2,44.1c10.2-0.2,17.5,1.5,24.8-1.5c14.3-5.9,21.8-31.5,7.7-40.8   c-4-2.6-8.1-5.3-13-3.4c-4.6,1.7-3,6.3-3.1,9.7c-0.4,8.1-5.3,11-12.1,9.3c-11.4-2.9-22-7.1-28.8-18.1   c-11.7-18.8-15.2-37.4-5.6-58.7c10.7-23.5,21.9-45.8,45.3-59.4c23.7-13.7,47.7-18.2,72.7-3.3c13.4,7.9,19.4,20.6,16.8,35.6   c-1.6,9.5-12.4,16-22.9,14.1c-3.3-0.6-7.3-3.8-9.9,0.8c-2.2,3.8-1.2,7.7,0.8,11.5c9.6,18.7,40.7,24,56.7,10.6   c26.2-21.8,21.7-60.1-7.8-77.7c-4.5-2.7-9-5.3-15.4-9.2c20.2-4,34.2,3.2,46.8,15c4.1,3.9,8.4,7.7,13.2,10.7   c12.1,7.5,26,3.1,32.7-9.6c3.6-6.7,5-14.4,10.9-20.1c5.1-5,11.1-7.2,17.5-8.9c2.1-0.6,4.8-1.1,4.9-4.2c0-0.2,0-0.4,0-0.6   c0-0.2,0.1-0.4,0-0.6c-0.1-3.1-2.8-3.6-4.9-4.2c-6.5-1.8-12.4-3.9-17.5-8.9c-5.9-5.7-7.3-13.4-10.9-20.1   c-6.8-12.7-20.6-17.1-32.7-9.6c-4.8,3-9.1,6.8-13.2,10.7c-12.6,11.8-26.5,19-46.8,15c6.5-3.8,11-6.5,15.4-9.2   c29.5-17.5,34-55.8,7.8-77.7c-16-13.4-47.2-8.1-56.7,10.6c-1.9,3.8-2.9,7.7-0.8,11.5c2.6,4.6,6.6,1.4,9.9,0.8   c10.6-1.9,21.3,4.6,22.9,14.1c2.5,15.1-3.5,27.7-16.8,35.6c-25,14.8-49,10.4-72.7-3.3c-23.4-13.5-34.7-35.8-45.3-59.4   c-9.7-21.3-6.1-39.9,5.6-58.7c6.8-11,17.5-15.3,28.8-18.1c6.8-1.7,11.8,1.1,12.1,9.3c0.2,3.4-1.5,8,3.1,9.7c4.9,1.9,8.9-0.8,13-3.5   c14.1-9.3,6.6-34.8-7.7-40.8c-7.3-3-14.5-1.3-24.8-1.5c7.2-5.2,11.8-9,16.9-11.9c12.4-7,26.1-9.8,40-11.4c2.3,0.2,4.6,0.2,7.1-0.4   c8.1-2,10.6-6.4,11.4-14c1.6-15.3,4.2-30.4,11.9-44c2.9-5.1,6.7-9.6,11.9-16.9c0.2,10.2-1.5,17.5,1.5,24.8   c5.9,14.3,31.5,21.8,40.8,7.7c2.6-4,5.3-8.1,3.4-13c-1.7-4.6-6.3-3-9.7-3.1c-8.1-0.4-11-5.3-9.3-12.1c2.9-11.4,7.1-22,18.1-28.8   c18.8-11.7,37.4-15.2,58.7-5.6c23.5,10.7,45.8,21.9,59.4,45.3c13.7,23.7,18.2,47.7,3.3,72.7c-7.9,13.4-20.6,19.4-35.7,16.8   c-9.5-1.6-16-12.4-14.1-22.9c0.6-3.3,3.8-7.3-0.8-9.9c-3.8-2.2-7.7-1.2-11.5,0.8c-18.7,9.6-24,40.7-10.6,56.7   c21.8,26.2,60.1,21.7,77.7-7.8c2.7-4.5,5.3-9,9.2-15.4c4,20.2-3.2,34.2-15,46.8c-3.9,4.1-7.7,8.4-10.7,13.2   c-7.5,12.1-3.1,26,9.6,32.7c6.7,3.6,14.4,5,20.1,10.9c5,5.1,7.2,11.1,8.9,17.5c0.6,2.1,1.1,4.8,4.2,4.9c0.2,0,0.4,0,0.6,0   c0.2,0,0.4,0.1,0.6,0c3.1-0.1,3.6-2.8,4.2-4.9c1.8-6.5,3.9-12.4,8.9-17.5c5.7-5.9,13.4-7.3,20.1-10.9c12.7-6.8,17.1-20.6,9.6-32.7   c-3-4.8-6.8-9.1-10.7-13.2c-11.8-12.6-19-26.5-15-46.8c3.8,6.5,6.5,11,9.2,15.4c17.5,29.5,55.8,34,77.7,7.8   c13.4-16,8.1-47.2-10.6-56.7c-3.8-1.9-7.7-2.9-11.5-0.8c-4.6,2.6-1.4,6.6-0.8,9.9c1.9,10.6-4.6,21.3-14.1,22.9   c-15.1,2.5-27.7-3.5-35.6-16.8c-14.8-25-10.4-49,3.3-72.7c13.5-23.4,35.8-34.7,59.4-45.3c21.3-9.7,39.9-6.1,58.7,5.6   c11,6.8,15.3,17.5,18.1,28.8c1.7,6.8-1.1,11.8-9.3,12.1c-3.4,0.2-8-1.5-9.7,3.1c-1.9,4.9,0.8,8.9,3.4,13   c9.3,14.1,34.8,6.6,40.8-7.7C793.6,316.4,791.9,309.2,792.1,298.9z M323.9,357.5c0.5-0.2,0.9-0.4,1.4-0.7   C324.8,357.1,324.4,357.3,323.9,357.5z M325.3,356.8c0.4-0.3,0.8-0.5,1.1-0.9C326.1,356.2,325.7,356.5,325.3,356.8z M353.3,329.6   c0.4-0.3,0.8-0.7,1.1-1.2C354.1,328.9,353.7,329.3,353.3,329.6z"/><path d="M277.1,610.5c4.9-3.7,10.1-6.3,15.6-8.9c3.2-1.5,6-3.4,5.6-5.8c0.3-2.4-2.4-4.3-5.6-5.8c-5.5-2.5-10.7-5.1-15.6-8.9   c-23.2-17.8-39.9-40.1-48.4-68.4c-0.8-2.7-1.5-6.7-5.2-5.9c-3.1,0.7-2.1,4.5-2.1,7c-0.1,20-0.1,40-0.1,60c0,7.3,0,14.6,0,21.9   c0,7.3,0,14.6,0,21.9c0,20,0,40,0.1,60c0,2.5-1,6.3,2.1,7c3.8,0.8,4.4-3.2,5.2-5.9C237.2,650.6,253.9,628.3,277.1,610.5z"/><path d="M510.9,231.3c28.2,8.5,50.5,25.2,68.4,48.4c3.7,4.9,6.3,10.1,8.9,15.6c1.5,3.2,3.4,6,5.8,5.6c2.4,0.3,4.3-2.4,5.8-5.6   c2.5-5.5,5.1-10.7,8.9-15.6c17.8-23.2,40.1-39.9,68.4-48.4c2.7-0.8,6.7-1.5,5.9-5.2c-0.7-3.1-4.5-2.1-7-2.1c-20-0.1-40-0.1-60-0.1   c-7.3,0-14.6,0-21.9,0c-7.3,0-14.6,0-21.9,0c-20,0-40,0-60,0.1c-2.5,0-6.3-1-7,2.1C504.2,229.8,508.1,230.5,510.9,231.3z"/></g><text x="0" y="1015" fill="#000000" font-size="5px" font-weight="bold" font-family="'Helvetica Neue', Helvetica, Arial-Unicode, Arial, Sans-serif">Created by Alvaro Cabrera</text><text x="0" y="1020" fill="#000000" font-size="5px" font-weight="bold" font-family="'Helvetica Neue', Helvetica, Arial-Unicode, Arial, Sans-serif">from the Noun Project</text></svg>