<svg xmlns="http://www.w3.org/2000/svg" viewBox="0 0 512 512" x="0px" y="0px">
    <title>Restrained</title>
    <rect x="73.32" y="32.11" width="38.49" height="115.46" rx="7.16"
        transform="translate(-36.42 91.76) rotate(-45)" />
    <rect x="181.87" y="140.67" width="38.49" height="115.46" rx="7.16"
        transform="translate(-81.38 200.32) rotate(-45)" />
    <path
        d="M133.19,185.91l-.45.46a7.16,7.16,0,0,1-10.13,0l-8.54-8.54-8.55-8.54a7.18,7.18,0,0,1,0-10.13l.46-.46a5.77,5.77,0,0,0,0-8.17l-19-19a5.77,5.77,0,0,0-8.17,0L73.25,137l-8.61,8.61a26.3,26.3,0,0,0,0,37.21l8.61,8.61L86.85,205l13.61,13.61,8.61,8.61a26.32,26.32,0,0,0,37.21,0l8.61-8.61,5.52-5.52a5.8,5.8,0,0,0,0-8.18l-19-19A5.8,5.8,0,0,0,133.19,185.91Z" />
    <path
        d="M148.54,61.71l-8.61,8.61-5.73,5.73a5.79,5.79,0,0,0,0,8.17l19,19a5.78,5.78,0,0,0,8.18,0l.66-.66a7.16,7.16,0,0,1,10.13,0l8.54,8.54,8.55,8.54a7.18,7.18,0,0,1,0,10.13l-.67.67a5.77,5.77,0,0,0,0,8.17l19,19a5.77,5.77,0,0,0,8.17,0l5.73-5.73,8.61-8.61a26.3,26.3,0,0,0,0-37.21l-8.61-8.61L208,83.93,194.36,70.32l-8.61-8.61A26.32,26.32,0,0,0,148.54,61.71Z" />
    <rect x="292.23" y="251.02" width="38.49" height="115.46" rx="7.16"
        transform="translate(-127.09 310.67) rotate(-45)" />
    <path
        d="M242.42,295.14l-.46.46a7.18,7.18,0,0,1-10.13,0l-8.54-8.55-8.54-8.54a7.16,7.16,0,0,1,0-10.13l.46-.45a5.8,5.8,0,0,0,0-8.18l-19-19a5.8,5.8,0,0,0-8.18,0l-5.52,5.52-8.61,8.61a26.32,26.32,0,0,0,0,37.21l8.61,8.61,13.61,13.61,13.6,13.6,8.61,8.61a26.3,26.3,0,0,0,37.21,0l8.61-8.61,5.52-5.52a5.77,5.77,0,0,0,0-8.17l-19-19A5.77,5.77,0,0,0,242.42,295.14Z" />
    <path
        d="M257.77,170.94l-8.61,8.61-5.73,5.73a5.77,5.77,0,0,0,0,8.17l19,19a5.77,5.77,0,0,0,8.17,0l.67-.67a7.18,7.18,0,0,1,10.13,0l8.54,8.55,8.54,8.54a7.16,7.16,0,0,1,0,10.13l-.66.66a5.77,5.77,0,0,0,0,8.17l19,19a5.77,5.77,0,0,0,8.17,0l5.73-5.72,8.61-8.61a26.32,26.32,0,0,0,0-37.21l-8.61-8.61-13.61-13.61-13.6-13.6L295,170.94A26.3,26.3,0,0,0,257.77,170.94Z" />
    <rect x="401.45" y="360.25" width="38.49" height="115.46" rx="7.16"
        transform="translate(-172.34 419.9) rotate(-45)" />
    <path
        d="M351.64,404.36l-.45.46a7.16,7.16,0,0,1-10.13,0l-8.54-8.54L324,387.74a7.18,7.18,0,0,1,0-10.13l.46-.46a5.77,5.77,0,0,0,0-8.17l-19-19a5.77,5.77,0,0,0-8.17,0l-5.52,5.52-8.61,8.61a26.3,26.3,0,0,0,0,37.21l8.61,8.61,13.6,13.6,13.61,13.61,8.61,8.61a26.32,26.32,0,0,0,37.21,0l8.61-8.61,5.52-5.52a5.8,5.8,0,0,0,0-8.18l-19-19A5.8,5.8,0,0,0,351.64,404.36Z" />
    <path
        d="M367,280.16l-8.6,8.61-5.73,5.73a5.77,5.77,0,0,0,0,8.17l19,19a5.77,5.77,0,0,0,8.17,0l.66-.66a7.16,7.16,0,0,1,10.13,0l8.54,8.54,8.55,8.54a7.18,7.18,0,0,1,0,10.13l-.67.67a5.77,5.77,0,0,0,0,8.17l19,19a5.77,5.77,0,0,0,8.17,0l5.73-5.73,8.61-8.61a26.3,26.3,0,0,0,0-37.21L440,316l-13.6-13.6-13.61-13.61-8.61-8.61A26.32,26.32,0,0,0,367,280.16Z" />
    <rect x="440.99" y="25" width="23.01" height="69.02" rx="4.28"
        transform="translate(174.61 -302.53) rotate(45)" />
    <rect x="376.1" y="89.89" width="23.01" height="69.02" rx="4.28"
        transform="translate(201.49 -237.64) rotate(45)" />
    <path
        d="M392.88,81.61l-.28-.27a4.29,4.29,0,0,1,0-6.06l5.11-5.11,5.11-5.1a4.28,4.28,0,0,1,6.05,0l.27.27a3.46,3.46,0,0,0,4.89,0L425.41,54a3.46,3.46,0,0,0,0-4.89l-3.3-3.3L417,40.63a15.72,15.72,0,0,0-22.25,0l-5.14,5.14-8.14,8.14L373.31,62l-5.15,5.15a15.73,15.73,0,0,0,0,22.24l5.15,5.15,3.3,3.3a3.45,3.45,0,0,0,4.88,0l11.39-11.39A3.45,3.45,0,0,0,392.88,81.61Z" />
    <path
        d="M471.31,94.77l-5.15-5.15-3.42-3.42a3.46,3.46,0,0,0-4.89,0L446.47,97.58a3.45,3.45,0,0,0,0,4.88l.4.4a4.29,4.29,0,0,1,0,6.06l-5.11,5.1-5.11,5.11a4.28,4.28,0,0,1-6,0l-.4-.4a3.46,3.46,0,0,0-4.89,0l-11.38,11.38a3.46,3.46,0,0,0,0,4.89l3.43,3.42,5.14,5.15a15.74,15.74,0,0,0,22.25,0l5.14-5.15,8.14-8.13,8.13-8.13,5.15-5.15A15.73,15.73,0,0,0,471.31,94.77Z" />
    <path
        d="M327.58,146.9l-.27-.27a4.29,4.29,0,0,1,0-6.06l5.11-5.1,5.1-5.11a4.29,4.29,0,0,1,6.06,0l.27.27a3.46,3.46,0,0,0,4.89,0l11.38-11.38a3.45,3.45,0,0,0,0-4.88l-3.3-3.3-5.15-5.15a15.73,15.73,0,0,0-22.24,0l-5.15,5.15-8.13,8.13L308,127.33l-5.14,5.15a15.73,15.73,0,0,0,0,22.24l5.14,5.15,3.3,3.3a3.46,3.46,0,0,0,4.89,0l11.38-11.38A3.46,3.46,0,0,0,327.58,146.9Z" />
    <path
        d="M406,160.06l-5.14-5.15-3.43-3.42a3.45,3.45,0,0,0-4.88,0l-11.39,11.38a3.46,3.46,0,0,0,0,4.89l.4.4a4.28,4.28,0,0,1,0,6.05l-5.11,5.11-5.1,5.1a4.27,4.27,0,0,1-6.06,0l-.39-.39a3.46,3.46,0,0,0-4.89,0l-11.38,11.38a3.45,3.45,0,0,0,0,4.88l3.42,3.43,5.15,5.14a15.71,15.71,0,0,0,22.24,0l5.15-5.14,8.13-8.14,8.14-8.13,5.14-5.14A15.74,15.74,0,0,0,406,160.06Z" />
    <rect x="113.3" y="352.69" width="23.01" height="69.02" rx="4.28"
        transform="translate(310.35 25.16) rotate(45)" />
    <path
        d="M130.75,343.74l-.27-.28a4.26,4.26,0,0,1,0-6l5.1-5.11,5.11-5.1a4.26,4.26,0,0,1,6.05,0l.28.27a3.45,3.45,0,0,0,4.88,0l11.38-11.38a3.46,3.46,0,0,0,0-4.89l-3.3-3.3-5.14-5.15a15.74,15.74,0,0,0-22.25,0l-5.14,5.15L119.31,316l-8.13,8.14L106,329.31a15.74,15.74,0,0,0,0,22.25l5.15,5.14,3.3,3.3a3.46,3.46,0,0,0,4.89,0l11.38-11.38A3.45,3.45,0,0,0,130.75,343.74Z" />
    <path
        d="M209.18,356.89,204,351.75l-3.42-3.43a3.46,3.46,0,0,0-4.89,0l-11.38,11.39a3.45,3.45,0,0,0,0,4.88l.4.4a4.28,4.28,0,0,1,0,6.05l-5.11,5.11-5.11,5.11a4.28,4.28,0,0,1-6.05,0l-.4-.4a3.45,3.45,0,0,0-4.88,0L151.8,392.24a3.46,3.46,0,0,0,0,4.89l3.43,3.42,5.14,5.15a15.74,15.74,0,0,0,22.25,0l5.14-5.15,8.14-8.13,8.13-8.14,5.15-5.14A15.74,15.74,0,0,0,209.18,356.89Z" />
    <rect x="48" y="417.99" width="23.01" height="69.02" rx="4.28"
        transform="translate(337.39 90.46) rotate(45)" />
    <path
        d="M65.45,409l-.27-.27a4.29,4.29,0,0,1,0-6.06l5.11-5.1,5.1-5.11a4.29,4.29,0,0,1,6.06,0l.27.27a3.46,3.46,0,0,0,4.89,0L98,381.38a3.46,3.46,0,0,0,0-4.89l-3.3-3.3-5.15-5.14a15.73,15.73,0,0,0-22.24,0l-5.15,5.14L54,381.33l-8.13,8.13-5.15,5.15a15.73,15.73,0,0,0,0,22.24L45.89,422l3.3,3.3a3.45,3.45,0,0,0,4.88,0l11.38-11.38A3.46,3.46,0,0,0,65.45,409Z" />
    <path
        d="M143.88,422.19,138.74,417l-3.43-3.42a3.45,3.45,0,0,0-4.88,0L119,425a3.48,3.48,0,0,0,0,4.89l.4.39a4.29,4.29,0,0,1,0,6.06l-5.1,5.1-5.11,5.11a4.29,4.29,0,0,1-6.06,0l-.39-.4a3.46,3.46,0,0,0-4.89,0L86.51,457.54a3.45,3.45,0,0,0,0,4.88l3.42,3.43L95.08,471a15.73,15.73,0,0,0,22.24,0l5.15-5.14,8.13-8.14,8.14-8.13,5.14-5.15A15.71,15.71,0,0,0,143.88,422.19Z" />
    <path
        d="M171.68,324.05l-10.42,10.42a4.29,4.29,0,0,0,0,6.06l10.21,10.21a4.29,4.29,0,0,0,6.06,0L188,340.32a3.14,3.14,0,0,0,0-4.45l-11.82-11.82A3.14,3.14,0,0,0,171.68,324.05Z" />
    <path
        d="M341.69,186.58l9.45-9.45a4.29,4.29,0,0,0,0-6.06l-10.21-10.21a4.29,4.29,0,0,0-6.06,0l-9.45,9.45a4.92,4.92,0,0,0,0,7l9.31,9.31A4.92,4.92,0,0,0,341.69,186.58Z" />
</svg>
