<svg xmlns="http://www.w3.org/2000/svg" data-name="Layer 1" viewBox="-5.0 -10.0 110.0 135.0" x="0px"
    y="0px">
    <defs>
        <style>.cls-1{fill-rule:evenodd;}</style>
    </defs>
    <title>a</title>
    <path class="cls-1"
        d="M92.329,32.31l-3.3,3.3a9.458,9.458,0,0,0-.759-.89l-.08-.083-.013-.011-.012-.014-.084-.082a9.418,9.418,0,0,0-.891-.768l2.928-2.928A4.221,4.221,0,0,0,91.35,31.9l.009.006.04.022a4.236,4.236,0,0,0,.93.379Zm-13.991.341V29.184a4.23,4.23,0,0,0,2.608,0v2.787a8.838,8.838,0,0,0-2.608.68Zm-51.489,19.5a1.3,1.3,0,0,1-2.4.988,5.8,5.8,0,0,1,.137-4.318A7.7,7.7,0,0,1,26.043,46.5a6.442,6.442,0,0,1,2.269-1.624,5.018,5.018,0,0,1,3.865-.022,6.542,6.542,0,0,1,3.721,4.1,8.5,8.5,0,0,1-.273,5.834l-.022.055v0a10.719,10.719,0,0,1-4.577,5.306,7.619,7.619,0,0,1-6.646.554l-.033-.013h-.005a9.984,9.984,0,0,1-5.886-5.648,10.319,10.319,0,0,1-.633-4.37,14.135,14.135,0,0,1,1.045-4.421,17.309,17.309,0,0,1,9.342-9.437,1.3,1.3,0,0,1,.937,2.424,14.623,14.623,0,0,0-7.865,7.991,11.5,11.5,0,0,0-.861,3.595,7.745,7.745,0,0,0,.459,3.281,7.472,7.472,0,0,0,4.439,4.171h0l.029.012a5.063,5.063,0,0,0,4.405-.411,8.086,8.086,0,0,0,3.436-4.013h0l.02-.051a5.908,5.908,0,0,0,.212-4.051,3.959,3.959,0,0,0-2.214-2.5,2.477,2.477,0,0,0-1.909.012,3.83,3.83,0,0,0-1.342.972A5.082,5.082,0,0,0,27,49.786a3.233,3.233,0,0,0-.147,2.363ZM80.742,24.071a1.555,1.555,0,1,0,.456,1.1,1.547,1.547,0,0,0-.456-1.1Zm13.8,3.068a1.556,1.556,0,1,0-1.858,2.46l0,0h0a1.557,1.557,0,0,0,1.854-2.463Zm-8.191,9.432c-.023-.02-.045-.04-.067-.062s-.046-.049-.068-.074A6.627,6.627,0,0,0,84.4,35.173c-.129-.061-.267-.12-.415-.177a6,6,0,0,0-4.653.125,7.554,7.554,0,0,0-3.669,3.637l-5.4,11.089c-1.885,3.873-4.549,5.447-7.579,7.237-.7.411-1.41.834-2.121,1.29-.433.278-.91.6-1.415.946a24.49,24.49,0,0,1-5.842,3.26,9.4,9.4,0,0,1-5.34-.113c-.445-.1-.895-.206-1.277-.275a14.128,14.128,0,0,0-3.494-.321,17.825,17.825,0,0,1-2.818,3.813,20.892,20.892,0,0,1-7.2,4.806,1.3,1.3,0,0,1-.977-2.414,18.29,18.29,0,0,0,6.3-4.195A14.7,14.7,0,0,0,42.055,57.9a19.506,19.506,0,0,0,.024-11.692A10.96,10.96,0,0,0,36,39.224c-.236-.095-.495-.185-.775-.269s-.549-.155-.778-.2a1.3,1.3,0,0,1,.52-2.547q.55.114,1.012.253t.989.351a13.51,13.51,0,0,1,7.575,8.576,22.119,22.119,0,0,1,.007,13.261q-.1.319-.205.633a16.488,16.488,0,0,1,2.806.356c.535.1.97.2,1.4.294a7.338,7.338,0,0,0,4,.165,17.914,17.914,0,0,0,4.1-2.22,34.4,34.4,0,0,0-2.019-20.032,22.856,22.856,0,0,0-12.3-12.332h0a20.768,20.768,0,0,0-17.274,1.144A28.25,28.25,0,0,0,11.944,41.46a25.165,25.165,0,0,0-.971,16.586,15.929,15.929,0,0,0,9.1,10.49,12.95,12.95,0,0,0,3.05.793,16.177,16.177,0,0,0,3.441.089,1.3,1.3,0,0,1,.193,2.6,18.654,18.654,0,0,1-3.98-.109,15.614,15.614,0,0,1-3.672-.956q-.523-.21-1.024-.45h0c-.2.09-.406.179-.615.264-.972.4-2.009.734-3.1,1.088a38.8,38.8,0,0,0-4.69,1.753A34.38,34.38,0,0,0,5,76.385H68.438a5.473,5.473,0,0,0,3.134-.961A6.97,6.97,0,0,0,73.889,72.6l13.8-29.4c.05-.107.1-.223.147-.345a5.652,5.652,0,0,0-.189-4.384A6.709,6.709,0,0,0,86.353,36.571Z" />
    <text x="0.0" y="117.5" font-size="5.0" font-weight="bold"
        font-family="Arbeit Regular, Helvetica, Arial-Unicode, Arial, Sans-serif" fill="#000000">Created
        by Icon Set</text>
    <text x="0.0" y="122.5" font-size="5.0" font-weight="bold"
        font-family="Arbeit Regular, Helvetica, Arial-Unicode, Arial, Sans-serif" fill="#000000">from
        Noun Project</text>
</svg>
