<svg xmlns="http://www.w3.org/2000/svg" viewBox="0 0 512 512" x="0px" y="0px">
    <title>Unconcscious</title>
    <path
        d="M226.28,493.11a206.94,206.94,0,0,0,154.51-68.9A7.4,7.4,0,0,0,374,412a199.44,199.44,0,0,1-38.48,2.75c-107.09-2.67-193.15-91.23-192.9-198.36A197.06,197.06,0,0,1,183.77,96a7.41,7.41,0,0,0-7.59-11.77C83.75,107.22,15.8,192.14,19,292.4,22.55,403.79,114.83,493.05,226.28,493.11Z" />
    <path
        d="M232.32,227.57h27.83a5.19,5.19,0,0,1,3.8,8.72L233.1,269.52a5.19,5.19,0,0,0-1.38,3.53v24.13a5.18,5.18,0,0,0,5.19,5.18h75a5.19,5.19,0,0,0,5.19-5.18v-21a5.2,5.2,0,0,0-5.19-5.19H284a5.18,5.18,0,0,1-3.8-8.71l30.85-33.24a5.14,5.14,0,0,0,1.38-3.52V201.41a5.19,5.19,0,0,0-5.19-5.19h-75a5.19,5.19,0,0,0-5.19,5.19v21A5.19,5.19,0,0,0,232.32,227.57Z" />
    <path
        d="M485.88,143.85H434.62a7.24,7.24,0,0,1-5.3-12.16l54.16-58.34a7.21,7.21,0,0,0,1.94-4.92V26.13a7.23,7.23,0,0,0-7.23-7.24H350.08a7.23,7.23,0,0,0-7.23,7.23V64a7.23,7.23,0,0,0,7.23,7.23h51.23a7.23,7.23,0,0,1,5.3,12.15l-54.16,58.35a7.23,7.23,0,0,0-1.93,4.92V189a7.23,7.23,0,0,0,7.24,7.23H485.88a7.23,7.23,0,0,0,7.23-7.23V151.08A7.23,7.23,0,0,0,485.88,143.85Z" />
</svg>
