<svg xmlns="http://www.w3.org/2000/svg" version="1.1" viewBox="-5.0 -10.0 110.0 135.0">
 <path d="m28.766 27.219-0.078125 0.015625c-0.88672 0.21875-1.6641 0.75391-2.1875 1.5h6.4062c-0.93359-1.3125-2.5781-1.9141-4.1406-1.5156z"/>
 <path d="m71.312 27.234-0.078125-0.015625c-1.5625-0.39844-3.207 0.20312-4.1406 1.5156h6.4062c-0.52344-0.74609-1.3008-1.2812-2.1875-1.5z"/>
 <path d="m63.75 38.547c-0.25-0.14062-0.53125-0.29688-0.84375-0.4375h-25.812c-0.3125 0.14062-0.59375 0.29688-0.84375 0.4375l-0.14062-0.4375h-8.625c0.28125 0.82812 0.57812 1.6875 0.90625 2.5469 0.89844 2.332 1.9531 4.6055 3.1562 6.7969 0.66406 1.2305 2.1953 1.7031 3.4375 1.0625 0.90625-0.45312 1.8281-0.95312 2.7812-1.5156 0.46875-0.26562 0.92188-0.54688 1.375-0.82812 0.30078-0.19141 0.67969-0.20312 0.98828-0.027344 0.3125 0.17188 0.5 0.5 0.49609 0.85547v8.4688l-8.1875 3.5156c-2.3633 1.0156-3.8242 3.418-3.6406 5.9844 0.39062 5.9922 1.0898 11.957 2.0938 17.875 0.30469 1.8711 1.9609 3.2227 3.8555 3.1367 1.8984-0.082031 3.4297-1.5742 3.5664-3.4648l1.0156-14.391c0.0625-0.78516 0.62109-1.4453 1.3906-1.625l7.8438-1.7969c0.94922-0.20312 1.9258-0.20312 2.875 0l7.8438 1.7969c0.76953 0.17969 1.3281 0.83984 1.3906 1.625l1.0156 14.391c0.14453 1.957 1.7734 3.4688 3.7344 3.4688 1.832-0.003906 3.3945-1.332 3.6875-3.1406 1.0039-5.918 1.7031-11.883 2.0938-17.875 0.18359-2.5664-1.2773-4.9688-3.6406-5.9844l-8.1875-3.5156v-8.4688c-0.003906-0.35547 0.18359-0.68359 0.49609-0.85547 0.30859-0.17578 0.6875-0.16406 0.98828 0.027344 0.45312 0.28125 0.90625 0.5625 1.375 0.82812 0.95312 0.5625 1.875 1.0625 2.7812 1.5156 1.2422 0.64062 2.7734 0.16797 3.4375-1.0625 1.2031-2.1914 2.2578-4.4648 3.1562-6.7969 0.32812-0.85938 0.625-1.7188 0.90625-2.5469h-8.625z"/>
 <path d="m57.062 28.734c1.2969-1.6016 2.0039-3.5977 2-5.6562 0-5.0039-4.0586-9.0625-9.0625-9.0625s-9.0625 4.0586-9.0625 9.0625c-0.003906 2.0586 0.70312 4.0547 2 5.6562z"/>
 <path d="m7.957 22.613h2.832c1 0 1.8125 1 1.8125 1.8125v16.77c0 1-0.8125 1.8125-1.8125 1.8125h-2.832c-1 0-1.8125-1-1.8125-1.8125v-16.77c0-1 0.8125-1.8125 1.8125-1.8125z"/>
 <path d="m89.207 22.613h2.8359c0.48047 0 0.94141 0.19141 1.2812 0.53125 0.33984 0.33984 0.53125 0.80078 0.53125 1.2812v16.773c0 1-0.8125 1.8125-1.8125 1.8125h-2.8359c-1 0-1.8125-0.8125-1.8125-1.8125v-16.773c0-1 0.8125-1.8125 1.8125-1.8125z"/>
 <path d="m83.656 22.613h-2.8359c-0.48047 0-0.94141 0.19141-1.2812 0.53125-0.33984 0.33984-0.53125 0.80078-0.53125 1.2812v7.4961c-0.12891-0.042969-0.26172-0.066406-0.39844-0.0625h-57.219c-0.13672-0.003906-0.26953 0.019531-0.39844 0.0625v-7.4961c0-1-0.8125-1.8125-1.8125-1.8125h-2.8359c-0.48047 0-0.94141 0.19141-1.2812 0.53125-0.33984 0.33984-0.53125 0.80078-0.53125 1.2812v16.773c0 0.48047 0.19141 0.94141 0.53125 1.2812 0.33984 0.33984 0.80078 0.53125 1.2812 0.53125h2.8359c0.48047 0 0.94141-0.19141 1.2812-0.53125 0.33984-0.33984 0.53125-0.80078 0.53125-1.2812v-6.2773c0.12891 0.042969 0.26172 0.066406 0.39844 0.0625h57.219c0.13672 0.003906 0.26953-0.019531 0.39844-0.0625v6.2773c0 0.48047 0.19141 0.94141 0.53125 1.2812 0.33984 0.33984 0.80078 0.53125 1.2812 0.53125h2.8359c0.48047 0 0.94141-0.19141 1.2812-0.53125 0.33984-0.33984 0.53125-0.80078 0.53125-1.2812v-16.773c0-1-0.8125-1.8125-1.8125-1.8125z"/>
<text x="0.0" y="117.5" font-size="5.0" font-weight="bold" font-family="Arbeit Regular, Helvetica, Arial-Unicode, Arial, Sans-serif" fill="#000000">Created by Andy Horvath</text><text x="0.0" y="122.5" font-size="5.0" font-weight="bold" font-family="Arbeit Regular, Helvetica, Arial-Unicode, Arial, Sans-serif" fill="#000000">from Noun Project</text></svg>