<svg xmlns="http://www.w3.org/2000/svg" version="1.1" viewBox="-5.0 -10.0 110.0 135.0">
 <path d="m63.145 50c0.003907 4.3555-2.1484 8.4258-5.75 10.871-3.6016 2.4492-8.1797 2.9531-12.227 1.3477l3.7891-3.793c3.0586 0.60156 6.2109-0.39062 8.3711-2.6367 2.1641-2.2461 3.0352-5.4336 2.3164-8.4648-0.097656-0.35938-0.38281-0.64062-0.74219-0.73047-0.36328-0.09375-0.74609 0.015625-1.0078 0.28125l-2.8633 2.8125c-1.2969 1.2266-3.3281 1.2266-4.625 0-0.61328-0.61719-0.95703-1.4531-0.95703-2.3242-0.003907-0.86719 0.33984-1.6992 0.95703-2.3125l2.8555-2.8633c0.27344-0.26953 0.37891-0.67188 0.26953-1.043-0.10547-0.36328-0.39844-0.64453-0.76953-0.72656-3.0352-0.71484-6.2266 0.16016-8.4688 2.3242-2.2461 2.168-3.2344 5.3242-2.625 8.3828l-3.8242 3.832c-0.65234-1.5703-0.98828-3.2539-0.98828-4.957 0-7.2617 5.8828-13.145 13.145-13.145s13.145 5.8828 13.145 13.145zm12.949-4.3438v8.6875c0 0.27734-0.10938 0.54297-0.30469 0.73828-0.19531 0.19531-0.46094 0.30469-0.73828 0.30469h-0.9375c-1.8047 0.10547-3.3906 1.2344-4.0898 2.9023-0.69531 1.668-0.38281 3.5898 0.80859 4.9492l0.66797 0.66797c0.19531 0.19531 0.30859 0.46094 0.30859 0.73828 0 0.27734-0.11328 0.54688-0.30859 0.74219l-6.1367 6.1367v-0.003907c-0.19531 0.19922-0.46094 0.30859-0.73828 0.30859s-0.54297-0.10938-0.73828-0.30859l-0.64844-0.6875c-1.3125-1.25-3.2539-1.582-4.9062-0.83203-1.7227 0.63281-2.8906 2.25-2.9453 4.082v0.9375c0 0.27734-0.10938 0.54297-0.30469 0.73828-0.19531 0.19531-0.46094 0.30469-0.73828 0.30469h-8.6875c-0.57422 0-1.043-0.46484-1.043-1.043v-0.9375c-0.11719-1.7969-1.25-3.375-2.9141-4.0664-1.668-0.6875-3.582-0.37109-4.9375 0.81641l-0.66797 0.66797c-0.19531 0.19531-0.46094 0.30859-0.73828 0.30859-0.27734 0-0.54688-0.11328-0.74219-0.30859l-6.1367-6.1367h0.003907c-0.19922-0.19531-0.30859-0.46094-0.30859-0.73828s0.10938-0.54297 0.30859-0.73828l0.66797-0.66797h-0.003907c1.2539-1.3125 1.582-3.2539 0.83594-4.9062-0.63281-1.7227-2.25-2.8906-4.0859-2.9492h-0.89453c-0.57422 0-1.043-0.46484-1.043-1.0391v-8.668c0-0.57422 0.46875-1.043 1.043-1.043h0.9375c1.7969-0.125 3.3672-1.2578 4.0508-2.9258 0.68359-1.6641 0.36719-3.5742-0.82031-4.9258l-0.66797-0.66797c-0.19531-0.19531-0.30859-0.46094-0.30859-0.73828 0-0.27734 0.11328-0.54688 0.30859-0.74219l6.1367-6.1445c0.19531-0.19531 0.46094-0.30859 0.73828-0.30859s0.54297 0.11328 0.73828 0.30859l0.66797 0.66797c1.2227 1.2266 3.0664 1.5938 4.668 0.92578l0.55078-0.23047c1.5977-0.65625 2.6406-2.2188 2.6367-3.9453v-0.88672c0-0.57422 0.46484-1.043 1.0391-1.043h8.6875c0.27734 0 0.54297 0.10938 0.73828 0.30469 0.19531 0.19531 0.30469 0.46094 0.30469 0.73828v0.9375c-0.003906 1.7305 1.0391 3.2891 2.6367 3.9492l0.3125 0.13672v-0.003907c1.75 0.71875 3.7617 0.30859 5.0938-1.0391l0.48047-0.48828-0.003907-0.003907c0.19531-0.19531 0.46484-0.30859 0.74219-0.30859 0.27734 0 0.54297 0.11328 0.73828 0.30859l6.1367 6.1445v0.003907c0.19531 0.19531 0.30859 0.46094 0.30859 0.73828s-0.11328 0.54297-0.30859 0.73828l-0.66797 0.66797c-1.2539 1.3125-1.582 3.2539-0.83203 4.9062 0.63281 1.7227 2.2461 2.8906 4.082 2.9492h0.9375c0.5625 0.003906 1.0195 0.45703 1.0312 1.0195zm-10.863 4.3438c0-4.0391-1.6055-7.9141-4.4609-10.77s-6.7305-4.4609-10.77-4.4609-7.9141 1.6055-10.77 4.4609-4.4609 6.7305-4.4609 10.77 1.6055 7.9141 4.4609 10.77 6.7305 4.4609 10.77 4.4609c4.0391-0.007813 7.9062-1.6133 10.762-4.4688s4.4609-6.7227 4.4688-10.762zm-17.312 6.5508c0.26562-0.27734 0.66797-0.38672 1.0391-0.28125 2.0547 0.55469 4.2461 0.16016 5.9727-1.082 1.7266-1.2383 2.8047-3.1914 2.9336-5.3125l-1.2812 1.2812c-2.0938 2.1055-5.4961 2.1133-7.6016 0.019531s-2.1172-5.4961-0.023438-7.6016l1.293-1.2812c-2.125 0.125-4.0781 1.2031-5.3203 2.9297-1.2422 1.7266-1.6406 3.9219-1.0859 5.9766 0.10938 0.37109 0.003906 0.76953-0.26953 1.0391l-4.7109 4.7109c1.0977 1.7617 2.5938 3.2461 4.3672 4.332zm-33.605-23.457c2.8594-0.003906 5.3047-2.0508 5.8125-4.8633h6.6445l2.5508 2.5938 1.4805-1.4688-2.8516-2.8984c-0.19531-0.19922-0.46094-0.30859-0.74219-0.3125h-7.082c-0.41016-2.25-2.082-4.0625-4.293-4.6445-2.2109-0.58594-4.5625 0.16016-6.0312 1.9141-1.4688 1.7539-1.7891 4.1992-0.82031 6.2734 0.96484 2.0742 3.043 3.4023 5.332 3.4062zm56.363-2.2695 2.5547-2.5938h6.6445c0.53906 3.0117 3.2891 5.1094 6.3359 4.8398 3.0469-0.26953 5.3828-2.8242 5.3828-5.8828s-2.3359-5.6133-5.3828-5.8828c-3.0469-0.26953-5.7969 1.8281-6.3359 4.8398h-7.082c-0.28125 0.003907-0.54688 0.11328-0.74219 0.3125l-2.8555 2.8945zm-21.719-12.418v3.4688h2.082l0.003907-3.4688c3.0117-0.53906 5.1094-3.2891 4.8398-6.3359-0.26953-3.0469-2.8242-5.3828-5.8828-5.3828s-5.6133 2.3359-5.8828 5.3828c-0.26953 3.0469 1.8281 5.7969 4.8398 6.3359zm-34.645 37.5c2.8594-0.003906 5.3047-2.0508 5.8125-4.8633h1.75v-2.0859h-1.75c-0.41016-2.25-2.082-4.0625-4.293-4.6445-2.2109-0.58594-4.5625 0.16016-6.0312 1.9141-1.4688 1.7539-1.7891 4.1992-0.82031 6.2734 0.96484 2.0742 3.043 3.4023 5.332 3.4062zm36.73 25.688v-3.418h-2.0859v3.418c-3.0117 0.53906-5.1094 3.2891-4.8398 6.3359 0.26953 3.0469 2.8242 5.3828 5.8828 5.3828s5.6133-2.3359 5.8828-5.3828c0.26953-3.0469-1.8281-5.7969-4.8398-6.3359zm-21.719-12.418-2.5547 2.5938h-6.6445c-0.53906-3.0117-3.2891-5.1094-6.3359-4.8398-3.0469 0.26953-5.3828 2.8242-5.3828 5.8828s2.3359 5.6133 5.3828 5.8828c3.0469 0.26953 5.7969-1.8281 6.3359-4.8398h7.082c0.28125-0.003907 0.54688-0.11328 0.74219-0.3125l2.8555-2.8945zm56.363-25.082c-2.8594 0.003906-5.3047 2.0508-5.8125 4.8633h-1.6992v2.082h1.6992v0.003907c0.41016 2.25 2.082 4.0625 4.293 4.6445 2.2109 0.58594 4.5625-0.16016 6.0312-1.9141 1.4688-1.7539 1.7891-4.1992 0.82031-6.2734-0.96484-2.0742-3.043-3.4023-5.332-3.4062zm0 22.812c-2.8594 0.003906-5.3047 2.0508-5.8125 4.8633h-6.6445l-2.5508-2.5938-1.4805 1.4688 2.8555 2.8945-0.003907 0.003907c0.19531 0.19922 0.46094 0.30859 0.74219 0.3125h7.082c0.41016 2.25 2.082 4.0625 4.293 4.6445 2.2109 0.58594 4.5625-0.16016 6.0312-1.9141 1.4688-1.7539 1.7891-4.1992 0.82031-6.2734-0.96484-2.0742-3.043-3.4023-5.332-3.4062z"/>
<text x="0.0" y="117.5" font-size="5.0" font-weight="bold" font-family="Arbeit Regular, Helvetica, Arial-Unicode, Arial, Sans-serif" fill="#000000">Created by Ardhian Rama</text><text x="0.0" y="122.5" font-size="5.0" font-weight="bold" font-family="Arbeit Regular, Helvetica, Arial-Unicode, Arial, Sans-serif" fill="#000000">from Noun Project</text></svg>