<svg xmlns="http://www.w3.org/2000/svg" version="1.1" viewBox="-5.0 -10.0 110.0 135.0">
 <path d="m65.734 12.891-3.7227 8.7891-5.668-11.133c-0.40234-0.78906-0.90625-1.5195-1.5039-2.1719 3.1367-7.3281 13.91-2.6211 10.895 4.5156z"/>
 <path d="m30.77 41.848c0-4.8828-10.234-4.7891-10.234 2.5078v12.016c0 7.2891 10.234 7.4023 10.234 2.5078z"/>
 <path d="m33.895 39.414v17.031c0 4.8828 10.234 4.793 10.234-2.5078v-12.012c0-7.293-10.234-7.4023-10.234-2.5117z"/>
 <path d="m54.469 39.648c0.9375 1.832-1.8438 3.2578-2.7812 1.4258l-6.0977-11.914-2.3242 5.2148c2.6172 1.6719 3.9883 4.4414 3.9883 7.5469v4.2539c0.23047-0.17578 0.47266-0.33594 0.72266-0.48047 5.9219-3.4453 13.375-5.9531 20.117-5.1406l-14.531-28.594c-3.5586-6.9453-14.062-1.5625-10.5 5.3789z"/>
 <path d="m77.984 50.695c-5.1016-10.219-18.406-8.1133-28.363-2.3438-2.3203 1.3438-2.9141 4.4922-1.1719 6.5352 2.4023 2.8359 6.2812 3.7109 9.9883 3.4531l0.003906-0.003906c2.1016-1.5547 4.4688-2.707 6.9883-3.4062 0.83203-0.23047 1.6953 0.25781 1.9258 1.0898s-0.25781 1.6914-1.0898 1.9258c-3.207 0.88281-6.1094 2.6328-8.3945 5.0547-2.2812 2.4219-3.8555 5.4258-4.5508 8.6797-0.4375 2.0234-3.4922 1.3672-3.0547-0.65625 0.76562-3.5703 2.4297-6.8828 4.8398-9.6211-3.457-0.39062-6.4062-1.7344-8.5117-3.9062-2.0312 5.0781-8.2734 6.793-12.844 4.3203-2.8203 3.8359-8.543 4.625-12.477 2.0273 1.9219 7.8594 6.9883 14.316 6.9883 23.047v8.4219h35.816v-7.9219c0-8.7656 20.961-22.586 13.906-36.695z"/>
<text x="0.0" y="117.5" font-size="5.0" font-weight="bold" font-family="Arbeit Regular, Helvetica, Arial-Unicode, Arial, Sans-serif" fill="#000000">Created by omeneko</text><text x="0.0" y="122.5" font-size="5.0" font-weight="bold" font-family="Arbeit Regular, Helvetica, Arial-Unicode, Arial, Sans-serif" fill="#000000">from Noun Project</text></svg>