<svg xmlns="http://www.w3.org/2000/svg" data-name="Layer 1" viewBox="0 0 64 80" x="0px" y="0px"><path d="M57,26a2,2,0,0,0-2,2v3.36a1,1,0,0,1-1,1,5,5,0,0,0-4.69,3.27c-.12.31-.24.61-.38.91a5,5,0,0,0,1,5.65,1,1,0,0,1,0,1.4l-1.67,1.67A17.21,17.21,0,0,0,37.87,34.08a10,10,0,1,0-11.74,0A17.21,17.21,0,0,0,15.74,45.26l-1.67-1.67a1,1,0,0,1,0-1.41,5,5,0,0,0,1-5.64c-.14-.3-.26-.6-.38-.91A5,5,0,0,0,10,32.36a1,1,0,0,1-1-1V26.64a1,1,0,0,1,1-1,5,5,0,0,0,4.69-3.27c.12-.31.24-.61.38-.91a5,5,0,0,0-1-5.65,1,1,0,0,1,0-1.4l3.34-3.34a1,1,0,0,1,1.41,0,5,5,0,0,0,5.64,1c.3-.14.6-.26.91-.38A5,5,0,0,0,28.64,7a1,1,0,0,1,1-1h4.72a1,1,0,0,1,1,1,5,5,0,0,0,3.27,4.69c.31.12.61.24.91.38a5,5,0,0,0,5.65-1,1,1,0,0,1,1.4,0l3.34,3.34a1,1,0,0,1,0,1.41,5,5,0,0,0-1,5.64,2,2,0,1,0,3.65-1.63,1.07,1.07,0,0,1,.18-1.19,5,5,0,0,0,0-7.06L49.42,8.24a5,5,0,0,0-7.07,0,1,1,0,0,1-1.18.18c-.36-.17-.73-.32-1.11-.46a1,1,0,0,1-.7-1,5,5,0,0,0-5-5H29.64a5,5,0,0,0-5,5,1,1,0,0,1-.7,1c-.38.14-.75.29-1.11.46a1.07,1.07,0,0,1-1.19-.18,5,5,0,0,0-7.06,0l-3.34,3.34a5,5,0,0,0,0,7.07,1,1,0,0,1,.18,1.18c-.17.36-.32.73-.46,1.11a1,1,0,0,1-1,.7,5,5,0,0,0-5,5v4.72a5,5,0,0,0,5,5,1,1,0,0,1,1,.7c.14.38.29.75.46,1.11a1.07,1.07,0,0,1-.18,1.19,5,5,0,0,0,0,7.06l3.34,3.34a2.18,2.18,0,0,0,.43.32c0,.06,0,.13,0,.19V59a2,2,0,0,0,2,2h8a2,2,0,0,0,2-2V53a.89.89,0,0,1,.86-.92h8.23A.9.9,0,0,1,37,53v6a2,2,0,0,0,2,2h8a2,2,0,0,0,2-2V50.27c0-.06,0-.13,0-.19a2.18,2.18,0,0,0,.43-.32l3.34-3.34a5,5,0,0,0,0-7.07,1,1,0,0,1-.18-1.18c.17-.36.32-.73.46-1.11a1,1,0,0,1,1-.7,5,5,0,0,0,5-5V28A2,2,0,0,0,57,26ZM32,20a6,6,0,1,1-6,6A6,6,0,0,1,32,20Z"/><circle cx="32" cy="55.77" r="2"/><text x="0" y="79" fill="#000000" font-size="5px" font-weight="bold" font-family="'Helvetica Neue', Helvetica, Arial-Unicode, Arial, Sans-serif">Created by Irvan Rhomadhani</text><text x="0" y="84" fill="#000000" font-size="5px" font-weight="bold" font-family="'Helvetica Neue', Helvetica, Arial-Unicode, Arial, Sans-serif">from the Noun Project</text></svg>