<svg xmlns="http://www.w3.org/2000/svg" version="1.1" viewBox="-5.0 -10.0 110.0 135.0">
 <path d="m45.211 51.461 8.9297-5.625v-6.8125l-8.9297 5.625z"/>
 <path d="m54.141 33.934h-8.9297v7.3281l8.9297-5.6289z"/>
 <path d="m45.211 8.7031h8.9336v6.7148h-8.9336z"/>
 <path d="m45.211 61.664 8.9297-5.625v-6.8125l-8.9297 5.625z"/>
 <path d="m6.5781 7.2031h6.4531v34.949h-6.4531z"/>
 <path d="m15.902 7.2031v34.945h13.113l9.1211-10.195v-14.555l-9.1211-10.195z"/>
 <path d="m54.141 77.164v-7.5312l-8.9297 5.625v1.9062c0 0.37891-0.15234 0.74219-0.41797 1.0117l-3.9844 4.0156v9.9727h17.734v-9.9766l-3.9844-4.0156v0.003906c-0.26562-0.26953-0.41797-0.63281-0.41797-1.0117z"/>
 <path d="m61.219 17.398v14.555l9.1172 10.195h13.113v-34.945h-13.113z"/>
 <path d="m41.004 31.066h17.344v-12.781h-17.344zm8.6719-11.41c2.0312 0 3.8633 1.2227 4.6406 3.0977s0.34766 4.0352-1.0898 5.4727c-1.4375 1.4336-3.5938 1.8633-5.4727 1.0898-1.875-0.77734-3.0977-2.6094-3.0977-4.6406 0.003906-2.7695 2.25-5.0156 5.0195-5.0195z"/>
 <path d="m49.676 26.828c0.87109 0 1.6562-0.52344 1.9883-1.3281 0.33203-0.80469 0.14844-1.7305-0.46484-2.3438-0.61719-0.61719-1.543-0.80078-2.3477-0.46875-0.80078 0.33203-1.3281 1.1172-1.3281 1.9883 0.003906 1.1875 0.96484 2.1523 2.1523 2.1523z"/>
 <path d="m86.32 7.2031h6.4531v34.949h-6.4531z"/>
 <path d="m45.211 71.867 8.9297-5.625v-6.8125l-8.9297 5.625z"/>
<text x="0.0" y="117.5" font-size="5.0" font-weight="bold" font-family="Arbeit Regular, Helvetica, Arial-Unicode, Arial, Sans-serif" fill="#000000">Created by taash5studio</text><text x="0.0" y="122.5" font-size="5.0" font-weight="bold" font-family="Arbeit Regular, Helvetica, Arial-Unicode, Arial, Sans-serif" fill="#000000">from Noun Project</text></svg>