<svg xmlns="http://www.w3.org/2000/svg" version="1.1" viewBox="-5.0 -10.0 110.0 135.0">
 <path d="m27.449 36.629c0 5.9219-8.8789 5.9219-8.8789 0 0-5.918 8.8789-5.918 8.8789 0"/>
 <path d="m32.09 38.25c-0.48047 1.6094-1.3711 3.0508-2.5586 4.1992-1.1484 1.1094-2.6914 1.7109-4.2891 1.7109h-4.4688c-1.6016 0-3.1289-0.60938-4.2891-1.7109-1.8398-1.7695-2.9609-4.2383-2.9609-6.9492v-2.3203c0-1.3086-1.0391-2.4102-2.3516-2.4297-1.3398-0.019531-2.4297 1.0586-2.4297 2.3906v2.3594c0 5.5508 3.1719 10.469 7.9219 12.871l-1.9102 27.961c-0.17969 1.4609 0.85156 2.7812 2.3086 2.9688 1.4609 0.17969 2.7812-0.85156 2.9688-2.3086l1.8711-15.02c0.070312-0.55859 0.53906-0.96875 1.1016-0.96875 0.55859 0 1.0312 0.42188 1.1016 0.96875l1.8711 15.02c0.17969 1.4609 1.5117 2.4883 2.9688 2.3086 1.4609-0.17969 2.4883-1.5117 2.3086-2.9688l-1.9102-27.961c2.9219-1.4688 5.2305-3.8906 6.5898-6.8086-1.3906-0.96875-2.6797-2.0781-3.8516-3.3086z"/>
 <path d="m56.102 20.203c1.375 3.3711-0.23828 7.2188-3.6094 8.5938-3.3711 1.375-7.2148-0.24219-8.5938-3.6094-1.375-3.3711 0.24219-7.2188 3.6133-8.5938 3.3672-1.375 7.2148 0.24219 8.5898 3.6094"/>
 <path d="m81.43 36.629c0 5.9219-8.8789 5.9219-8.8789 0 0-5.918 8.8789-5.918 8.8789 0"/>
 <path d="m88.82 30.75c-1.3086 0.019531-2.3516 1.1211-2.3516 2.4297v2.3203c0 2.6992-1.1211 5.1797-2.9609 6.9492-1.1484 1.1094-2.6914 1.7109-4.2891 1.7109h-4.4688c-1.6016 0-3.1289-0.60938-4.2891-1.7109-1.1914-1.1406-2.0781-2.5898-2.5586-4.1992-1.1719 1.2305-2.4609 2.3398-3.8516 3.3086 1.3594 2.9297 3.6719 5.3516 6.5898 6.8086l-1.9102 27.961c-0.17969 1.4609 0.85156 2.7812 2.3086 2.9688 1.4609 0.19141 2.7812-0.85156 2.9688-2.3086l1.8711-15.02c0.070313-0.55859 0.53906-0.96875 1.1016-0.96875 0.55859 0 1.0312 0.42188 1.1016 0.96875l1.8711 15.02c0.17969 1.4609 1.5117 2.4883 2.9688 2.3086 1.4609-0.17969 2.4883-1.5117 2.3086-2.9688l-1.9102-27.961c4.7617-2.3984 7.9219-7.3203 7.9219-12.871v-2.3594c0-1.3281-1.0898-2.4102-2.4297-2.3906z"/>
 <path d="m67.5 32.98c2.3203-3.4414 3.6602-7.5586 3.6602-11.961v-3.4883c0-1.9805-1.6211-3.5781-3.6094-3.5508-1.9492 0.03125-3.4883 1.6602-3.4883 3.6094v3.4414c0 4.0117-1.6719 7.6797-4.3906 10.301-1.7109 1.6406-3.9883 2.5391-6.3594 2.5391h-6.6289c-2.3711 0-4.6484-0.89844-6.3594-2.5391-2.7305-2.6211-4.3906-6.2891-4.3906-10.301v-3.4414c0-1.9492-1.5391-3.5703-3.4883-3.6094-1.9883-0.03125-3.6094 1.5703-3.6094 3.5508v3.4883c0 4.3984 1.3398 8.5312 3.6602 11.961 1.2617 1.8594 2.8008 3.5117 4.5781 4.8984 1.0898 0.85156 2.2617 1.6016 3.5195 2.2305l-2.8281 41.48c-0.26953 2.1602 1.2617 4.1289 3.4219 4.3984s4.1289-1.2617 4.3984-3.4219l2.7695-22.281c0.10156-0.82812 0.80078-1.4492 1.6406-1.4492s1.5312 0.62109 1.6406 1.4492l2.7695 22.281c0.26953 2.1602 2.2383 3.6914 4.3984 3.4219 2.1602-0.26953 3.6914-2.2383 3.4219-4.3984l-2.8281-41.48c1.25-0.62891 2.4297-1.3789 3.5195-2.2305 1.7812-1.3789 3.3203-3.0391 4.5781-4.8984z"/>
<text x="0.0" y="117.5" font-size="5.0" font-weight="bold" font-family="Arbeit Regular, Helvetica, Arial-Unicode, Arial, Sans-serif" fill="#000000">Created by Suncheli Project</text><text x="0.0" y="122.5" font-size="5.0" font-weight="bold" font-family="Arbeit Regular, Helvetica, Arial-Unicode, Arial, Sans-serif" fill="#000000">from Noun Project</text></svg>