<svg xmlns="http://www.w3.org/2000/svg" data-name="Layer 10" viewBox="0 0 100 125" x="0px" y="0px"><path d="M93.324,49.443c-1.656-2.294-5.236-6.819-10.618-11.347-9.999-8.405-20.977-12.667-32.626-12.667h-.16c-11.649,0-22.627,4.262-32.626,12.668-5.381,4.528-8.962,9.053-10.618,11.347-.263,.364-.263,.749,0,1.113,1.655,2.293,5.236,6.818,10.618,11.347,9.999,8.405,20.977,12.667,32.626,12.667h.16c11.649,0,22.627-4.262,32.626-12.668,5.382-4.529,8.962-9.053,10.618-11.347,.263-.364,.263-.749,0-1.113Zm-43.324,18.419c-9.849,0-17.862-8.013-17.862-17.862s8.013-17.862,17.862-17.862,17.862,8.013,17.862,17.862-8.013,17.862-17.862,17.862Z"/><path d="M50,34.138c-8.747,0-15.862,7.116-15.862,15.862s7.116,15.862,15.862,15.862,15.862-7.116,15.862-15.862-7.116-15.862-15.862-15.862Zm0,22.434c-3.624,0-6.571-2.948-6.571-6.571s2.948-6.571,6.571-6.571,6.571,2.948,6.571,6.571-2.948,6.571-6.571,6.571Z"/><circle cx="50" cy="50" r="4.571"/><text x="0" y="115" fill="#000000" font-size="5px" font-weight="bold" font-family="'Helvetica Neue', Helvetica, Arial-Unicode, Arial, Sans-serif">Created by LOKAL</text><text x="0" y="120" fill="#000000" font-size="5px" font-weight="bold" font-family="'Helvetica Neue', Helvetica, Arial-Unicode, Arial, Sans-serif">from the Noun Project</text></svg>