<svg xmlns="http://www.w3.org/2000/svg" version="1.1" viewBox="-5.0 -10.0 110.0 135.0">
 <path d="m53.398 36.398h-40.699c-5.5977 0-10.199 4.6016-10.199 10.203v27.102c0 5.6016 4.6016 10.199 10.199 10.199h1.5l-1.5 9.6992c-0.19922 1.3984 0.5 2.8008 1.6992 3.5 0.5 0.30078 1.1016 0.39844 1.6016 0.39844 0.80078 0 1.6016-0.30078 2.1992-0.80078l14.602-12.699h20.5c5.6016 0 10.199-4.6016 10.199-10.199v-27.199c0.10156-5.6016-4.5-10.203-10.102-10.203zm-33.898 27.203c-1.8984 0-3.3984-1.5-3.3984-3.3984s1.5-3.3984 3.3984-3.3984 3.3984 1.5 3.3984 3.3984-1.5977 3.3984-3.3984 3.3984zm13.5 0c-1.8984 0-3.3984-1.5-3.3984-3.3984s1.5-3.3984 3.3984-3.3984 3.3984 1.5 3.3984 3.3984-1.5 3.3984-3.3984 3.3984zm13.602 0c-1.8984 0-3.3984-1.5-3.3984-3.3984s1.5-3.3984 3.3984-3.3984c1.8984 0 3.3984 1.5 3.3984 3.3984s-1.5 3.3984-3.3984 3.3984zm40.699-61.102h-40.699c-5.6016 0-10.199 4.6016-10.199 10.199v17h17c-1.8984 0-3.3984-1.5-3.3984-3.3984 0-1.8984 1.5-3.3984 3.3984-3.3984 1.8984 0 3.3984 1.5 3.3984 3.3984 0 1.8984-1.5 3.3984-3.3984 3.3984 9.3984 0 17 7.6016 17 17v9.1992l7.8984 6.8984c0.60156 0.60156 1.3984 0.80078 2.1992 0.80078 0.60156 0 1.1016-0.10156 1.6016-0.39844 1.3008-0.69922 1.8984-2.1016 1.6992-3.5l-1.4023-9.6992h4.8984c5.6016 0 10.199-4.6016 10.199-10.199l0.003906-27.102c0-5.5977-4.6016-10.199-10.199-10.199zm-20.301 27.102c-1.8984 0-3.3984-1.5-3.3984-3.3984s1.5-3.3984 3.3984-3.3984 3.3984 1.5 3.3984 3.3984-1.5977 3.3984-3.3984 3.3984zm13.5 0c-1.8984 0-3.3984-1.5-3.3984-3.3984s1.5-3.3984 3.3984-3.3984 3.3984 1.5 3.3984 3.3984-1.5 3.3984-3.3984 3.3984z"/>
<text x="0.0" y="117.5" font-size="5.0" font-weight="bold" font-family="Arbeit Regular, Helvetica, Arial-Unicode, Arial, Sans-serif" fill="#000000">Created by jenny</text><text x="0.0" y="122.5" font-size="5.0" font-weight="bold" font-family="Arbeit Regular, Helvetica, Arial-Unicode, Arial, Sans-serif" fill="#000000">from Noun Project</text></svg>