<svg xmlns="http://www.w3.org/2000/svg" version="1.1" viewBox="-5.0 -10.0 110.0 135.0">
 <path d="m55.031 61v2.9492c-0.65234 0.26953-1.3125 0.54297-1.9727 0.82422v-3.7695c0.64844 0.0625 1.3281 0.0625 1.9727-0.003906zm23.508-3.3047c0.65625-0.011718 1.3125-0.003906 1.9727 0.023438v-6.0703c-0.64844 0.042968-1.3203 0.042968-1.9727 0zm-57.125-4.5898c-0.91016 0.91797 0.48047 2.3008 1.3945 1.3945l2.1016-2.1016v5.4844c0.65625 0.066407 1.3164 0.15234 1.9727 0.25v-5.8477l2.2109 2.2109c0.91797 0.91016 2.3008-0.48047 1.3945-1.3945l-3.6055-3.6094v-2.8594l2.2109 2.2109c0.91797 0.91016 2.3008-0.48047 1.3945-1.3945l-3.6055-3.6055v-2.8594l2.2109 2.2109c0.91797 0.91016 2.3008-0.48047 1.3945-1.3945l-3.8398-3.8398c-0.18359-0.17969-0.38281-0.25-0.58203-0.26953-0.039062-0.007812-0.074218-0.015625-0.11328-0.015625-0.042969 0-0.082031 0.011719-0.125 0.019531-0.082031 0.007813-0.16406 0.019532-0.24609 0.054688-0.22656 0.066406-0.41797 0.21094-0.53906 0.42969l-3.6289 3.6289c-0.91016 0.91797 0.48047 2.3008 1.3945 1.3945l2.1016-2.1016v2.8594l-3.4961 3.4961c-0.91016 0.91797 0.48047 2.3008 1.3945 1.3945l2.1016-2.1016v2.8594zm-13.141 2.9492 2.1016-2.1016v5.582c0.66016-0.23047 1.3164-0.43359 1.9727-0.61719v-5.0742l2.2109 2.2109c0.91797 0.91016 2.3008-0.48047 1.3945-1.3945l-3.6055-3.6055v-2.8594l2.2109 2.2109c0.91797 0.91016 2.3008-0.48047 1.3945-1.3945l-3.6055-3.6055v-2.8633l2.2109 2.2109c0.91797 0.91016 2.3008-0.48047 1.3945-1.3945l-3.8398-3.8398c-0.18359-0.17969-0.38281-0.25-0.58203-0.27344-0.039062-0.007813-0.074219-0.015625-0.11328-0.015625-0.042969 0-0.082031 0.011719-0.125 0.019531-0.082031 0.007812-0.16406 0.019531-0.24609 0.054688-0.22656 0.066406-0.41797 0.21094-0.53906 0.42969l-3.6289 3.6289c-0.91016 0.91797 0.48047 2.3008 1.3945 1.3945l2.1016-2.1016v2.8594l-3.4961 3.4961c-0.91016 0.91797 0.48047 2.3008 1.3945 1.3945l2.1016-2.1016v2.8594l-3.4961 3.4961c-0.91016 0.91797 0.48047 2.3008 1.3945 1.3945zm43.48 11.398c-12.391 5.2227-26.438 11.141-44.828 11.348v20.699h86.492v-36.387c-14.234-7.1641-27.465-1.7148-41.664 4.3398zm-44.828 9.375c16.387-0.1875 29.316-5.0312 40.711-9.7773-14.367-6.0508-26.527-10.891-40.711-3.9375zm46.133-17.812v-2.5664l-3.0859-3.0859c-0.90625-0.91406 0.48047-2.3008 1.3945-1.3945l1.6914 1.6914v-2.25l-3.0859-3.0859c-0.90625-0.91406 0.48047-2.3008 1.3945-1.3945l1.6914 1.6914v-3.2148c0-0.54297 0.44141-0.98438 0.98828-0.98438 0.54297 0 0.98438 0.44141 0.98438 0.98438v3.3203l1.7891-1.7891c0.91406-0.90625 2.3008 0.48047 1.3945 1.3945l-3.1836 3.1836v2.25l1.7891-1.7891c0.91406-0.90625 2.3008 0.48047 1.3945 1.3945l-3.1836 3.1836v2.4648c4.0039-0.49219 7.0625-3.8984 7.0586-7.9883 0-2.9297-1.4375-11.016-3.6484-17.023-3.1211-8.5703-5.668-8.5781-8.793 0-2.2109 6.0039-3.6523 14.094-3.6523 17.023 0.003906 4.0898 3.0586 7.4922 7.0625 7.9844zm25.48-9.3398v-4.5781l-4.7578-4.7578c-0.90625-0.91406 0.47656-2.3008 1.3945-1.3945l3.3633 3.3633v-4.7422l-4.7578-4.7578c-0.90625-0.91406 0.48047-2.3047 1.3945-1.3945l3.3633 3.3633v-4.7422l-4.7578-4.7578c-0.90625-0.91406 0.48047-2.3008 1.3945-1.3945l3.3633 3.3633v-5.9297c0-0.54297 0.44141-0.98438 0.98438-0.98438 0.54297 0 0.98437 0.44141 0.98437 0.98438v6.0781l3.5117-3.5117c0.91406-0.90625 2.3008 0.47656 1.3945 1.3945l-4.9062 4.9062v4.7422l3.5117-3.5117c0.91406-0.90625 2.3008 0.48047 1.3945 1.3945l-4.9062 4.9062v4.7422l3.5117-3.5117c0.91406-0.90625 2.3008 0.48047 1.3945 1.3945l-4.9062 4.9062v4.4297c6.4805-0.50781 11.535-5.9258 11.535-12.48 0-4.4141-2.1602-16.59-5.4883-25.621-4.8555-13.277-9.207-13.293-14.062 0-3.3281 9.0312-5.4883 21.207-5.4883 25.621 0 6.5547 5.0547 11.973 11.535 12.48zm-65.863-29.52h28.465c7.4922-0.30078 6.7031-11.324-0.77734-10.527-0.53906 0.078125-1.0352-0.29688-1.1133-0.83594 0.6875-4.2617-2.5195-8.332-6.9219-8.2891-3.2305-0.003906-6.0078 2.1992-6.7852 5.2891-0.14453 0.60938-0.85938 0.92969-1.4102 0.63281-3.9375-1.8242-8.5938 1.8477-7.7031 6.1094 0.11719 0.59375-0.36328 1.1641-0.96484 1.1602l-2.7852 0.003907c-2.8359-0.097657-4.3242 3.6875-2.2344 5.5547 0.57422 0.55859 1.3633 0.90234 2.2305 0.90234z" fill-rule="evenodd"/>
<text x="0.0" y="117.5" font-size="5.0" font-weight="bold" font-family="Arbeit Regular, Helvetica, Arial-Unicode, Arial, Sans-serif" fill="#000000">Created by ahmadwil</text><text x="0.0" y="122.5" font-size="5.0" font-weight="bold" font-family="Arbeit Regular, Helvetica, Arial-Unicode, Arial, Sans-serif" fill="#000000">from Noun Project</text></svg>