<svg xmlns="http://www.w3.org/2000/svg" xmlns:xlink="http://www.w3.org/1999/xlink" xml:space="preserve" version="1.1" style="shape-rendering:geometricPrecision;text-rendering:geometricPrecision;image-rendering:optimizeQuality;" viewBox="0 0 846.66 1058.325" x="0px" y="0px" fill-rule="evenodd" clip-rule="evenodd"><defs><style type="text/css">
   
    .fil0 {fill:black}
   
  </style></defs><g><path class="fil0" d="M26.59 324.19l341.07 0c18.73,0 34.06,15.33 34.06,34.06l0 249.96c0,18.73 -15.33,34.06 -34.06,34.06l-340.93 0c-10.05,0 -18.28,-8.22 -18.28,-18.27l0 -281.67c0,-9.98 8.17,-18.14 18.14,-18.14zm435.16 -33.87c-13.19,-18.8 6.88,-18.89 27.79,-35.64 20.91,-16.75 116.72,-59.52 143.94,-48.5 27.23,11.03 84.36,83.24 117.71,103.56 33.35,20.32 87.02,45.38 87.02,45.38l-55.3 98.97c0,0 -31.17,-12.01 -58.55,-7.57 -27.38,4.44 -51.46,-19.75 -72.61,-34.11 -21.16,-14.35 -29.13,-9.34 -88.04,-18.8 -15.55,-2.5 -62.53,1.92 -63.91,-18.94 -0.89,-13.67 -0.06,-21.96 18.37,-26.2 18.42,-4.24 98.54,-4.37 116.19,-16.82 17.66,-12.46 9.6,-26.02 -10.13,-31.68 -15.52,-4.46 -32.84,-29.61 -64.07,-27.97 -31.85,1.67 -79.14,45.77 -98.41,18.32zm-46.3 33.87l28.04 0c18.73,0 34.05,15.33 34.05,34.06l0 249.96c0,18.73 -15.32,34.06 -34.05,34.06l-28.04 0c6.88,-9.62 10.93,-21.38 10.93,-34.06l0 -249.96c0,-12.68 -4.05,-24.44 -10.93,-34.06zm-376.79 33.66l332.86 0 0 26.99 -332.86 0 0 -26.99z"/></g><text x="0" y="861.66" fill="#000000" font-size="5px" font-weight="bold" font-family="'Helvetica Neue', Helvetica, Arial-Unicode, Arial, Sans-serif">Created by yusuf</text><text x="0" y="866.66" fill="#000000" font-size="5px" font-weight="bold" font-family="'Helvetica Neue', Helvetica, Arial-Unicode, Arial, Sans-serif">from the Noun Project</text></svg>