<svg width="343" height="61" viewBox="0 0 343 61" fill="none" xmlns="http://www.w3.org/2000/svg">
<g clip-path="url(#clip0_3892_5629)">
<path d="M338.875 2.21527L311.72 29.488L310.516 30.6973L311.72 31.9065L338.483 58.7847H4.12461L31.2804 31.512L32.4845 30.3027L31.2804 29.0935L4.51743 2.21527H338.867M342.991 0.5H0.39282L30.0678 30.3027L0 60.5H342.599L312.924 30.6973L343 0.5H342.991Z" fill="#C59E55"/>
<path d="M325.853 7.4811L304.162 29.265L302.352 31.0832L304.162 32.9013L325.511 54.3422H17.1475L38.838 32.5583L40.6484 30.7401L38.838 28.9219L17.4891 7.4811H325.844M332.027 4.9082H11.3064L37.0276 30.7401L10.9648 56.9151H331.694L305.972 31.0832L332.035 4.9082H332.027Z" fill="#C59E55"/>
</g>
<defs>
<clipPath id="clip0_3892_5629">
<rect width="343" height="60" fill="white" transform="translate(0 0.5)"/>
</clipPath>
</defs>
</svg>