<svg xmlns="http://www.w3.org/2000/svg" viewBox="0 0 512 512" x="0px" y="0px">
    <title>Determined</title>
    <path
        d="M473.6,108.21a32.45,32.45,0,0,0-6.73-18.88c-5.77-7.26-13.56-10.61-20.62-12.07-21.38-4.41-38.8,9.56-38.63,31.56,0,.27,0,.53,0,.79.75,30.18,20.82,36.1,20.82,36.1v34.61A68.75,68.75,0,0,1,420.54,213c-6.73,12.46-10,27-11.61,36.61a4.36,4.36,0,0,1-7.63,2.11c-24.39-28.25-54.71-28.46-68.65-26.71a13.46,13.46,0,0,1-12.1-4.94c-8.19-10-19.73-17-26.48-20.52a10.27,10.27,0,0,1-5.51-9.13v-3.77a10.11,10.11,0,0,1,2.49-6.74c7.21-8.08,12.47-19.75,12.47-19.75s23.43,1.31,26.68-24.94S312,108.3,312,108.3c-1-22-5.56-38.24-11.6-50.22C282,21.69,230,21.69,211.62,58.08c-6,12-10.56,28.22-11.6,50.22,0,0-21.48.66-18.22,26.91s26.68,24.94,26.68,24.94,5.26,11.67,12.47,19.75a10.11,10.11,0,0,1,2.49,6.74v3.77a10.25,10.25,0,0,1-5.48,9.12c-6.75,3.52-18.3,10.49-26.5,20.52a13.4,13.4,0,0,1-12,5c-13.9-1.76-44.29-1.6-68.72,26.7a4.36,4.36,0,0,1-7.63-2.11c-1.56-9.48-4.83-23.91-11.44-36.31a69.89,69.89,0,0,1-8.09-32.95V145.71s20.07-5.92,20.82-36.1c0-.26,0-.52,0-.79.17-22-17.25-36-38.63-31.56-7.06,1.46-14.86,4.81-20.62,12.07a32.45,32.45,0,0,0-6.73,18.88l-8.16,199.1a21.56,21.56,0,0,0,17.11,22.06C63.05,332.6,89,336.5,125,337.23a18.73,18.73,0,0,1,16.88,11.46c8.2,19.43,23.87,60.13,26.25,92.36l1,32.07a8.33,8.33,0,0,0,8.29,8.09H334.54a8.33,8.33,0,0,0,8.29-8.09l1-32.07c2.38-32.23,18.05-72.93,26.25-92.36A18.73,18.73,0,0,1,387,337.23c36-.73,61.95-4.63,77.65-7.86a21.56,21.56,0,0,0,17.11-22.06Z" />
</svg>
