<svg xmlns="http://www.w3.org/2000/svg" viewBox="0 0 512 512" x="0px" y="0px">
    <title>Disoriented</title>
    <path
        d="M443.23,253.61c-11.5-7.4-23.81-16.68-30.93-22.19a15.64,15.64,0,0,1-6-12.35v-11a15.62,15.62,0,0,1,5-11.46,172.28,172.28,0,0,0,21.74-25,27.35,27.35,0,0,1,6.06-6.09c12.29-8.94,12.29-19.06,12.29-19.06.31-22.75-15-16.31-15-16.31C443.23,48,384,47.42,384,47.42s-59.27.62-52.37,82.72c0,0-15.35-6.44-15,16.31,0,0,0,10.11,12.28,19.06a27.4,27.4,0,0,1,6.07,6.09,172.28,172.28,0,0,0,21.74,25,15.62,15.62,0,0,1,5,11.46v11a15.62,15.62,0,0,1-6,12.34c-7.12,5.52-19.43,14.8-30.94,22.2,0,0-37,25.28-37,55.88v157a14.76,14.76,0,0,0,14.76,14.76h163a14.76,14.76,0,0,0,14.76-14.76V309.49C480.21,278.89,443.23,253.61,443.23,253.61Zm-81.5-110.87c-5,0-9.08-5.08-9.08-11.34s4.07-11.35,9.08-11.35,9.08,5.08,9.08,11.35S366.74,142.74,361.73,142.74Zm35.39-11.34c0-6.27,4.07-11.35,9.08-11.35s9.07,5.08,9.07,11.35-4.06,11.34-9.07,11.34S397.12,137.66,397.12,131.4Z" />
    <path
        d="M292.6,172.57c-8.24-11.19-15.2-21.73-18-35.61-3.07-15.44-.72-31.34,3.9-46.22a153.46,153.46,0,0,1,9.59-23.12C292,60,296.64,53,298.89,44.73c1.21-4.49-4.31-9.79-8.57-6.59-11.64,8.75-19,23.27-24.79,36.38-6.09,13.76-10.12,28-10.91,43.05a93.41,93.41,0,0,0,7.29,42c5.5,12.68,15.69,22.17,21.77,34.42,13.38,27-24.28,48.51-37.21,67.31-17.59,25.59-12.9,61.65-13,91l-.5,118.79c-.06,12.76,19.76,12.78,19.83,0q.3-50.91.59-101.82c.1-16.84.15-33.68.3-50.52.13-14.23.29-29.37,7-42.3,6.6-12.65,18.31-21.51,27.55-32.09,8.82-10.11,16.12-21.91,17.41-35.53S300.46,183.24,292.6,172.57Z" />
    <path
        d="M227.29,61.26c4.34-6,9.2-11.19,10.93-18.52a4.64,4.64,0,0,0-5.64-5.64c-12.3,3.21-21.44,16.65-28.44,26.61a111.34,111.34,0,0,0-17.43,38.16,94.87,94.87,0,0,0,.23,43.41c3.44,14.47,11.54,26.61,16.59,40.4C214.85,216.57,184,241,173.46,267.46c-11.54,28.8-8.24,61.94-7.89,92.27l.66,55.73c.11,9.75.2,19.5.34,29.26.11,7.82-1.08,17.9,2,25.41a39.35,39.35,0,0,0,2.62,8.66c2.19,4.86,10.32,4.65,12.57,0,5.74-11.87,3.92-28.32,4.1-41.24q.14-10.44-.35-20.87c-.22-4.7-.23-8.95-1.42-12.95q-.15-13.64-.29-27.28c-.17-16.46-.45-32.92-.5-49.38,0-14.19.18-28.57,3.7-42.39,7.31-28.72,33.08-49.07,36.4-79.25,1.64-14.9-4-28.07-10.54-41.11-6.42-12.87-11.44-26-11.66-40.58-.22-15.14,4.53-29.91,11.75-43.08A188.74,188.74,0,0,1,227.29,61.26Z" />
    <path
        d="M133.05,88.21a126.4,126.4,0,0,1,7.22-23.7c3.36-7.89,9-15.21,9-24.08,0-3.34-3.46-6.31-6.81-5.19-15,5-22.48,27.48-26.4,41.24a128.35,128.35,0,0,0-3.93,50.87c2.38,18.94,10.07,35.88,16,53.85,5.29,16.05,8.75,34.34-.39,49.69-6.71,11.27,10.87,21.51,17.56,10.26,20.56-34.61-2.15-70.2-11-104.25A107.64,107.64,0,0,1,133.05,88.21Z" />
    <path
        d="M127.82,273.16c-1.22-1.89-3.21-3.91-5.53-4.26a10.73,10.73,0,0,0-5,0h0a7.73,7.73,0,0,0-2.94,1.08,9.78,9.78,0,0,0-4.29,5.58,34,34,0,0,0-1.09,5.62,10.6,10.6,0,0,0,2.81,6.78,9.79,9.79,0,0,0,5.5,2.63,9.16,9.16,0,0,0,6.12-1.13,10.46,10.46,0,0,0,4.41-5.74c.23-.69.44-1.37.64-2.07a7.89,7.89,0,0,0,.62-3.06v0A8.91,8.91,0,0,0,127.82,273.16Z" />
    <path
        d="M122.53,395.92c0-13.1-.13-26.18-.48-39.28-.17-6.5-.14-13-1.09-19.46-.83-5.69-.7-12.58-5.36-16.47a5.35,5.35,0,0,0-7.32,0c-4.45,3.71-4.36,9.82-5.2,15.25-1,6.4-1,12.82-1.22,19.28-.36,13.57-.5,27.11-.52,40.68l0,39.29c0,12.48-1.45,27,5.7,38a5.81,5.81,0,0,0,9.9,0c6.91-10.65,5.71-24.48,5.7-36.57Z" />
    <path
        d="M66.78,29.34c-6.87,3.11-11.26,11.23-14.57,17.71A101.07,101.07,0,0,0,44.1,69.39c-2.92,12.23,16,17.45,18.84,5.2a89.57,89.57,0,0,1,6.48-18.85C72.21,49.94,76.93,44.37,78,38,79.11,31.12,73.08,26.5,66.78,29.34Z" />
    <path
        d="M40.6,118.57a9.1,9.1,0,0,0,3.29,3.29,9.23,9.23,0,0,0,9.26,0A11.8,11.8,0,0,0,55.63,120a13.45,13.45,0,0,0,1.67-2.15,3.55,3.55,0,0,0,.23-.43,15.84,15.84,0,0,0,1-2.45,12.23,12.23,0,0,0,.25-1.59,12,12,0,0,0-.17-4.39A6.86,6.86,0,0,0,57,105.87a6.81,6.81,0,0,0-2.53-2.32l-2.16-.91a6.79,6.79,0,0,0-3.6-.16,4.52,4.52,0,0,0-2.27.61,6.69,6.69,0,0,0-2.3,1.29l-.29.13a6.89,6.89,0,0,0-2.53,2.32,6.94,6.94,0,0,0-1.61,3.07,11.79,11.79,0,0,0-.37,4A9.06,9.06,0,0,0,40.6,118.57Z" />
    <path
        d="M48.81,305.67c-3.13-6.58-11.66-3.54-13.85,1.81-3.57,8.72-2.29,20.39-2.35,29.69-.06,10.14-.22,20.29-.24,30.44,0,20.29-.91,40.63-.44,60.87.3,13,18.82,12.62,19.94,0,1.83-20.64,1.7-41.51,1.74-62.26,0-10.15-.29-20.29-.62-30.44C52.66,326,53.06,314.64,48.81,305.67Z" />
    <path
        d="M50.55,465.11a9.5,9.5,0,0,0-1.3-3.18,8.19,8.19,0,0,0-6.59-3.67,4.92,4.92,0,0,0-.67,0c-3.65.16-7.63,2.56-8.4,6.4l-.12.45a7.92,7.92,0,0,0-.7,1.87,27.26,27.26,0,0,0-.35,7c-.16,5,4.52,9.81,9.58,9.58a9.78,9.78,0,0,0,9.58-9.58,27.26,27.26,0,0,0-.35-7A7.62,7.62,0,0,0,50.55,465.11Z" />
    <path
        d="M56.08,149.49c-3.72-2.69-9.49.91-9.23,5.3.53,9,4.71,17.59,5.74,26.63a73.11,73.11,0,0,1-2.84,29c-2.86,9.62-6.83,18.85-9.4,28.56-2.5,9.47-6.61,22.77-3.64,32.32,2.29,7.33,13.35,9.76,17.22,2.25,2.86-5.54,2.82-11.5,3.9-17.55A164.7,164.7,0,0,1,62,238.21c3-10.23,7.32-20.11,9.16-30.65C74.38,189.42,72.42,161.33,56.08,149.49Z" />
</svg>
