<svg xmlns="http://www.w3.org/2000/svg" viewBox="0 0 512 512" x="0px" y="0px">
    <title>Empowered</title>
    <path
        d="M263.24,314h0c-26.53,0-48.53,21.11-50,48.12-2.91,54.79.37,100.47,2.48,119.42a12.85,12.85,0,0,0,12.68,11.56h78.77a12.93,12.93,0,0,0,12.7-14.29c-3.29-34.71-5.41-82.85-6.67-115.8C312.19,335.64,290.11,314,263.24,314Z" />
    <path
        d="M324.74,202c3.31-31.17-18.65-59.15-49.17-62.74h0c-30.83-3.63-58.71,19-62.32,50.41-1.74,15.24-3.17,32.29-3.6,49.46-.75,30.13,21.64,55.56,51.11,57.86h0c30.29,2.37,56.91-20.52,59.7-51.37C321.69,232.08,323.13,217.11,324.74,202Zm-90-.33a10.46,10.46,0,1,1,9.6,11.44A10.57,10.57,0,0,1,234.77,201.68ZM287.34,254l0,.32a16.81,16.81,0,0,1-18.07,15.46l-12.35-1a16.81,16.81,0,0,1-15.46-18.07l0-.32a16.81,16.81,0,0,1,18.07-15.46l12.35,1A16.81,16.81,0,0,1,287.34,254Zm14.16-47.08a10.46,10.46,0,1,1-9.6-11.44A10.57,10.57,0,0,1,301.5,206.88Z" />
    <path
        d="M187.53,205.51a20.92,20.92,0,0,0-6-27.21h0a20,20,0,0,0-28.46,5.54l-37.7,58.41a39.42,39.42,0,0,0,9.64,53l47.68,35a21.52,21.52,0,0,0,30.14-4.58,22.56,22.56,0,0,0-4.36-31.26l-34.18-26.08a12.35,12.35,0,0,1-3.22-15.82Z" />
    <path
        d="M409.7,450.9l.57-68.3a40,40,0,0,0-10.75-27.7l-40-42.67a20,20,0,0,0-28.76-.53,20.91,20.91,0,0,0,.2,29.76l34.94,33.78a18.2,18.2,0,0,1,5.5,12.24l2.94,64.1c.54,11.84,12,19.93,23,16.32A18,18,0,0,0,409.7,450.9Z" />
    <path
        d="M89.72,378.91a37.23,37.23,0,0,1,6,16.1L107,484.65a9.57,9.57,0,0,0,9.43,8.46H137A9.62,9.62,0,0,0,146.5,483l-4.65-99.22a37.18,37.18,0,0,0-6.18-18.9L82.44,284.75a37.44,37.44,0,0,1-3.18-35.44L124,145.09a36.29,36.29,0,0,1,25.58-21.25l49.25-10.67a35.81,35.81,0,0,0,8.61-3.07l33.52-17a35.54,35.54,0,0,1,37.89,3.57l74.24,57.16a37.1,37.1,0,0,1,14.35,29.39v62.71a37.21,37.21,0,0,0,10,25.47L429,326.23a37.26,37.26,0,0,1,10,25l1.52,132.26a9.6,9.6,0,0,0,9.5,9.58h18.35a9.6,9.6,0,0,0,9.5-9.28L484.12,336A37.25,37.25,0,0,0,475,310l-43-49.45a37.18,37.18,0,0,1-9.06-22.47l-4.72-89.7a37.06,37.06,0,0,0-14.13-27.28L282.66,26.46a35.57,35.57,0,0,0-43.48-.3L182.9,68.79a35.6,35.6,0,0,1-14.39,6.54L107.73,87.85a36.35,36.35,0,0,0-27,24.15L29.8,263.34a37.47,37.47,0,0,0,4.36,32.75Z" />
</svg>
