<svg xmlns="http://www.w3.org/2000/svg" version="1.1" viewBox="-5.0 -5.0 110.0 110.0">
    <title>Exhausted</title>
    <path
        d="m51.09 31.527c-0.87891 0.66016-2.1289 0.48047-2.7891-0.39844-0.66016-0.87891-0.48047-2.1289 0.39844-2.7891 0.32031-0.24219 0.57812-0.55469 0.75391-0.90234 0.16797-0.33984 0.26172-0.73047 0.26172-1.1445 0-1.0469-0.60547-1.6289-1.2031-2.2031-1.2148-1.168-2.4375-2.3398-2.4375-5.0781 0-1.0195 0.24609-2.0195 0.69922-2.9258 0.44922-0.89453 1.1016-1.6914 1.9258-2.3086 0.87891-0.66016 2.1289-0.48047 2.7891 0.39844 0.66016 0.87891 0.48047 2.1289-0.39844 2.7891-0.32031 0.24219-0.57812 0.55469-0.75391 0.90234-0.16797 0.33984-0.26172 0.73047-0.26172 1.1445 0 1.0469 0.60156 1.625 1.2031 2.2031 1.2188 1.168 2.4375 2.3398 2.4375 5.0781 0 1.0195-0.24609 2.0195-0.69922 2.9258-0.44922 0.89453-1.1016 1.6914-1.9258 2.3086zm-27.766 8.4688c-0.78125-0.78125-0.78125-2.0469 0-2.8281s2.0469-0.78125 2.8281 0l2.0312 2.0312 2.0312-2.0312c0.78125-0.78125 2.0469-0.78125 2.8281 0s0.78125 2.0469 0 2.8281l-2.0312 2.0312 2.0312 2.0312c0.78125 0.78125 0.78125 2.0469 0 2.8281s-2.0469 0.78125-2.8281 0l-2.0312-2.0312-2.0312 2.0312c-0.78125 0.78125-2.0469 0.78125-2.8281 0s-0.78125-2.0469 0-2.8281l2.0312-2.0312zm34.613 9.9883c0 2.5234-0.98438 4.8164-2.5664 6.4844-1.6094 1.6914-3.8398 2.7422-6.3008 2.7422-2.4609 0-4.6914-1.0469-6.3008-2.7422-1.582-1.668-2.5664-3.9609-2.5664-6.4844 0-2.7461 2.4336-6.3125 4.668-9.5898 0.94531-1.3906 1.8555-2.7227 2.4492-3.8047 0.53125-0.96484 1.7461-1.3203 2.7109-0.78906 0.34375 0.19141 0.61328 0.46484 0.78906 0.78906 0.59375 1.082 1.5039 2.4141 2.4492 3.8047 2.2344 3.2734 4.668 6.8438 4.668 9.5898zm-5.457 3.7344c0.89844-0.94531 1.457-2.2656 1.457-3.7344 0-1.5273-2.0664-4.5586-3.9648-7.3398l-0.90234-1.332-0.90234 1.332c-1.8984 2.7812-3.9648 5.8125-3.9648 7.3398 0 1.4688 0.55859 2.7891 1.457 3.7344 0.875 0.92188 2.082 1.4922 3.4102 1.4922 1.3281 0 2.5352-0.57031 3.4102-1.4922zm25.082 4.1875c0 2.5234-0.98438 4.8164-2.5664 6.4844-1.6094 1.6914-3.8398 2.7422-6.3008 2.7422-2.4609 0-4.6914-1.0469-6.3008-2.7422-1.582-1.668-2.5664-3.9609-2.5664-6.4844 0-2.7461 2.4336-6.3125 4.668-9.5898 0.94531-1.3906 1.8555-2.7227 2.4492-3.8047 0.53125-0.96484 1.7461-1.3203 2.7109-0.78906 0.34375 0.19141 0.61328 0.46484 0.78906 0.78906 0.59375 1.082 1.5039 2.4141 2.4492 3.8047 2.2344 3.2734 4.668 6.8438 4.668 9.5898zm-5.457 3.7344c0.89844-0.94531 1.457-2.2656 1.457-3.7344 0-1.5273-2.0664-4.5586-3.9648-7.3398l-0.90234-1.332-0.90234 1.332c-1.8984 2.7812-3.9648 5.8125-3.9648 7.3398 0 1.4688 0.55859 2.7891 1.457 3.7344 0.875 0.92188 2.082 1.4922 3.4102 1.4922 1.3281 0 2.5352-0.57031 3.4102-1.4922zm-28.336 29.316v-3.8516c0-0.57812-0.23828-1.1016-0.61719-1.4805s-0.90625-0.61719-1.4844-0.61719h-12.617c-1.1953 0-2.3203-0.33203-3.2773-0.9375-0.94922-0.60156-1.7266-1.4805-2.2422-2.5742-1.0977-2.3398-2.2695-5.1445-3.3672-7.9375-1.2148-3.0898-2.3555-6.1836-3.2266-8.6602h-0.3125c-1.0625 0-2.0664-0.26172-2.9531-0.75-0.88281-0.48828-1.6367-1.2031-2.207-2.1094-0.57031-0.91016-0.88672-1.8984-0.94141-2.9062-0.054688-1.0117 0.14844-2.0273 0.61328-2.9844l4.1953-8.6953c0.097657-0.20312 0.16406-0.40625 0.19531-0.60547 0.03125-0.20312 0.027344-0.41797-0.007813-0.63672-1.1367-7.2148-0.125-14.438 2.6992-20.871 2.8203-6.4219 7.4453-12.066 13.539-16.121 6.2852-4.1836 13.52-6.2773 20.746-6.2773 7.2266 0 14.461 2.0938 20.746 6.2773 9.7578 6.4961 14.551 16.293 15.852 26.895 1.5391 12.555-1.875 26.266-7.7227 36.832-0.09375 0.17969-0.16406 0.34375-0.20312 0.48828-0.035156 0.14844-0.054687 0.32422-0.054687 0.53516v8.3164c0 1.3125-0.40625 2.5352-1.125 3.543s-1.7461 1.793-2.9922 2.2227l-25.148 8.6719c-0.95703 0.32422-1.9258 0.41797-2.8555 0.28125-0.94141-0.13672-1.8477-0.5-2.668-1.0859-0.82031-0.58203-1.4609-1.3203-1.8945-2.1641-0.44141-0.85156-0.66797-1.8008-0.66797-2.7969zm4-3.8516v3.8516c0 0.36719 0.074219 0.69531 0.21484 0.96875 0.14453 0.28125 0.36719 0.53516 0.66016 0.74219s0.60547 0.33594 0.91797 0.38281c0.32422 0.046875 0.66016 0.011719 0.99609-0.10156l25.148-8.6797c0.4375-0.15234 0.79688-0.41797 1.0352-0.75391 0.23828-0.33594 0.375-0.76172 0.375-1.2305v-8.3164c0-0.51172 0.0625-1.0156 0.19531-1.5273 0.12891-0.5 0.32031-0.96875 0.57422-1.4258 5.4766-9.8906 8.6758-22.707 7.2383-34.418-1.1641-9.5156-5.4258-18.289-14.082-24.051-5.6133-3.7383-12.078-5.6055-18.543-5.6055s-12.934 1.8711-18.543 5.6055c-5.4375 3.6211-9.5664 8.6562-12.082 14.387-2.5234 5.7539-3.4297 12.211-2.418 18.652 0.10156 0.64062 0.10938 1.25 0.023438 1.8438-0.089844 0.59766-0.27344 1.1836-0.55469 1.7617l-4.1953 8.6953c-0.16406 0.34375-0.23828 0.69531-0.22266 1.0312 0.019532 0.33594 0.12891 0.67969 0.33203 1 0.20312 0.32031 0.46094 0.57031 0.75391 0.73438 0.29297 0.16016 0.64453 0.24609 1.0312 0.24609h3.1562l0.46484 1.3516c0.91016 2.6367 2.2344 6.2852 3.6367 9.8555 1.0938 2.7852 2.2344 5.5234 3.2578 7.7031 0.17578 0.37891 0.44531 0.67969 0.76953 0.88672 0.31641 0.20313 0.70703 0.3125 1.1367 0.3125h12.617c1.6797 0 3.207 0.6875 4.3125 1.7891 1.1016 1.1016 1.7891 2.6289 1.7891 4.3086zm20.426-55.574c-0.87891 0.66016-2.1289 0.48047-2.7891-0.39844-0.66016-0.87891-0.48047-2.1289 0.39844-2.7891 0.32031-0.24219 0.57812-0.55469 0.75391-0.90234 0.16797-0.33984 0.26172-0.73047 0.26172-1.1445 0-1.0469-0.60547-1.6289-1.2031-2.2031-1.2148-1.168-2.4375-2.3398-2.4375-5.0781 0-1.0195 0.24609-2.0195 0.69922-2.9258 0.44922-0.89453 1.1016-1.6914 1.9258-2.3086 0.87891-0.66016 2.1289-0.48047 2.7891 0.39844 0.66016 0.87891 0.48047 2.1289-0.39844 2.7891-0.32031 0.24219-0.57812 0.55469-0.75391 0.90234-0.16797 0.33984-0.26172 0.73047-0.26172 1.1445 0 1.0469 0.60156 1.625 1.2031 2.2031 1.2188 1.168 2.4375 2.3398 2.4375 5.0781 0 1.0195-0.24609 2.0195-0.69922 2.9258-0.44922 0.89453-1.1016 1.6914-1.9258 2.3086zm-8.5547 0c-0.87891 0.66016-2.1289 0.48047-2.7891-0.39844-0.66016-0.87891-0.48047-2.1289 0.39844-2.7891 0.32031-0.24219 0.57812-0.55469 0.75391-0.90234 0.16797-0.33984 0.26172-0.73047 0.26172-1.1445 0-1.0469-0.60547-1.6289-1.2031-2.2031-1.2148-1.168-2.4375-2.3398-2.4375-5.0781 0-1.0195 0.24609-2.0195 0.69922-2.9258 0.44922-0.89453 1.1016-1.6914 1.9258-2.3086 0.87891-0.66016 2.1289-0.48047 2.7891 0.39844 0.66016 0.87891 0.48047 2.1289-0.39844 2.7891-0.32031 0.24219-0.57812 0.55469-0.75391 0.90234-0.16797 0.33984-0.26172 0.73047-0.26172 1.1445 0 1.0469 0.60156 1.625 1.2031 2.2031 1.2188 1.168 2.4375 2.3398 2.4375 5.0781 0 1.0195-0.24609 2.0195-0.69922 2.9258-0.44922 0.89453-1.1016 1.6914-1.9258 2.3086z" />
</svg>
