<svg xmlns="http://www.w3.org/2000/svg" xmlns:xlink="http://www.w3.org/1999/xlink" version="1.1"
    x="0px" y="0px" viewBox="0 0 220.749 272.3875" style="enable-background:new 0 0 220.749 217.91;"
    xml:space="preserve"><g><path d="M46.717,96.993c-4.17,5.904-6.744,13.795-6.698,22.646c0.037,11.565,3.9,24.683,12.47,40.685   c2.255,4.199,6.567,6.588,11.022,6.588c1.997,0,4.022-0.48,5.904-1.491c6.081-3.268,8.362-10.845,5.097-16.926   c-7.375-13.683-9.529-23.186-9.492-28.855c0.044-4.408,1.032-6.592,2.201-8.343c0.907-1.297,2.09-2.376,3.584-3.329   c2.214-1.428,5.112-2.406,7.376-2.889c0.78-0.171,1.468-0.286,2.025-0.364c-5.126-4.251-9.418-8.693-12.844-13.307   c-1.869-2.504-3.411-4.975-4.683-7.382c-0.506,0.229-1.014,0.462-1.529,0.716C56.231,87.212,50.866,91.055,46.717,96.993z"/><polygon points="95.736,134.965 91.227,138.48 106.08,152.447 107.936,150.027  "/><polygon points="86.234,161.951 106.58,163.283 106.474,160.234 87.479,156.369  "/><polygon points="147.565,150.338 159.426,135.006 154.965,131.422 144.784,149.088  "/><polygon points="151.199,158.545 169.746,152.906 168.184,147.404 149.656,155.916  "/><path d="M105.357,118.531c1.165,0.598,2.41,0.881,3.635,0.881c2.908,0,5.715-1.592,7.131-4.359   c2.01-3.932,0.453-8.752-3.479-10.766c-16.098-8.229-25.526-16.441-30.825-23.602c-2.283-3.103-3.84-5.997-4.879-8.709l1.927-0.545   c1.042,2.674,2.553,5.336,4.563,8.068c6.01,8.119,16.145,15.861,30.123,23.006c4.908,2.512,6.858,8.549,4.351,13.457   c-1.718,3.361-5.134,5.449-8.909,5.449c-0.658,0-1.315-0.082-1.962-0.213c4.855,13.878,9.483,34.128,9.496,61   c0,1.209-0.009,2.44-0.028,3.696c-0.1,6.901,5.414,12.58,12.318,12.681c0.063,0,0.126,0.001,0.188,0.001   c6.817,0,12.391-5.479,12.492-12.317c0.02-1.359,0.03-2.712,0.03-4.061c0.011-27.823-4.51-49.751-9.757-65.843   c-1.029,0.358-2.128,0.558-3.264,0.558c-0.65,0-1.305-0.066-1.945-0.193c-2.617-0.516-4.879-2.021-6.369-4.24   c-1.486-2.219-2.021-4.885-1.504-7.504c0.963-4.884,1.719-9.493,2.288-13.841c-0.35-0.628-0.686-1.218-1.01-1.772l0.332-35.955   c0.024,0.041,0.048,0.079,0.072,0.121c1.908,3.404,3.848,9.76,3.84,20.711c0.002,7.887-0.996,18.111-3.563,31.123   c-0.854,4.334,1.967,8.541,6.303,9.396c0.521,0.104,1.043,0.152,1.555,0.152c3.745,0,7.089-2.643,7.84-6.455   c2.718-13.797,3.862-24.992,3.864-34.217c0.009-16.947-3.913-27.639-9.956-34.203c-2.988-3.24-6.396-5.238-9.41-6.312   c-0.107-0.038-0.209-0.067-0.314-0.105C116.472,41.554,108.22,47,98.713,47c-10.007,0-18.627-6.033-22.426-14.65h-2.226   c-3.157,0-5.868,1.896-7.066,4.61c-0.904,1.299-2.198,3.346-3.506,6.089c-2.181,4.59-4.396,11.156-4.402,19.119   c-0.019,4.403,0.712,9.209,2.433,14.173c1.578,4.553,3.987,9.239,7.448,13.876C76.189,99.943,87.718,109.506,105.357,118.531z"/><circle cx="98.712" cy="22.5" r="22.5"/><path d="M148.999,191.909c-0.011,6.626-5.376,11.989-11.999,12h-14.335c-6.625-0.011-11.988-5.374-12-12V174.41H0v14h96.665   l0.002,3.499c0.004,14.363,11.638,25.995,25.999,26.001H137c14.361-0.006,25.995-11.638,25.999-26.001v-3.499h57.75v-14h-71.749   V191.909z"/><polygon points="173.375,36.52 157.168,72.807 163.898,76.377 184.859,42.611  "/><ellipse transform="matrix(0.4686 -0.8834 0.8834 0.4686 7.8162 182.0805)" cx="155.252" cy="84.543" rx="5.851" ry="5.85"/></g><text x="0" y="232.91" fill="#000000" font-size="5px" font-weight="bold" font-family="'Helvetica Neue', Helvetica, Arial-Unicode, Arial, Sans-serif">Created by Gan Khoon Lay</text><text x="0" y="237.91" fill="#000000" font-size="5px" font-weight="bold" font-family="'Helvetica Neue', Helvetica, Arial-Unicode, Arial, Sans-serif">from the Noun Project</text></svg>
