<svg xmlns="http://www.w3.org/2000/svg" viewBox="0 0 512 512" x="0px" y="0px">
    <title>Immobilized</title>
    <path
        d="M225.23,208.1c5.34,25.54,27.91,44.09,54.11,43.17h0c25-.88,45.42-19.19,50.33-43.14h.27a16.45,16.45,0,0,0,.46-32.9c-.11-7.08-.2-14.34-.26-21.65-.21-30.12-24.22-54.47-53.77-54.59h0c-29.84-.12-54,24.49-54.05,54.91,0,6.9.1,14.18.36,21.64a16.46,16.46,0,0,0,2.55,32.56Zm73.2-58.47a13,13,0,1,1-13.05,13.05A13,13,0,0,1,298.43,149.63Zm-15.09,42.05a16.17,16.17,0,0,1,16.72,15.59v.31a16.16,16.16,0,0,1-15.59,16.72l-11.9.42a16.15,16.15,0,0,1-16.72-15.58v-.32a16.15,16.15,0,0,1,15.58-16.72Zm-29.12-42.05a13,13,0,1,1-13.05,13.05A13,13,0,0,1,254.22,149.63Z" />
    <path
        d="M237.24,493.91H350a9.25,9.25,0,0,0,9.05-11.1,76.91,76.91,0,0,0-6.31-18.61A58.48,58.48,0,0,1,347,442.26l-9.89-150.33a21.87,21.87,0,0,0-21-20.41l-76.32-2.71a21.85,21.85,0,0,0-22.63,22c.25,42.75,1.9,136,11,195.27A9.24,9.24,0,0,0,237.24,493.91Z" />
    <path
        d="M459.23,329a63,63,0,0,0-59.74-50.84l-29.72-1A10.5,10.5,0,0,0,359,288.78l2.25,20.44a10.51,10.51,0,0,0,9.32,9.3l22.35,2.38a26.56,26.56,0,0,1,22.76,19.26L430,391.61a20.38,20.38,0,0,0,39.63-9.39Z" />
    <path
        d="M108.39,167.09l.16,67.19A63,63,0,0,0,152.94,299l28.43,8.7a10.5,10.5,0,0,0,13.45-8.42L198,278.92a10.51,10.51,0,0,0-6.57-11.41l-21-8.14a26.56,26.56,0,0,1-16.93-24.53l-4.43-66.47a20.38,20.38,0,0,0-40.71-1.28Z" />
    <path
        d="M411.76,89.43,372.87,60.15a7.55,7.55,0,0,0-10.34,1.2L352.32,73.59a7.55,7.55,0,0,0,1.09,10.74l27.67,22a9.62,9.62,0,0,1,3.56,8.57l-6.85,62.11A12.43,12.43,0,0,0,383,188.62l55.86,39.1A7.55,7.55,0,0,0,449.27,226l11.58-15.62a7.55,7.55,0,0,0-2.11-10.93L419.1,175.12A12.32,12.32,0,0,1,413.24,164l3.21-64.56A11.82,11.82,0,0,0,411.76,89.43Z" />
    <path
        d="M490.6,151.13l-19.35-13.08a7.09,7.09,0,0,1-3.1-6.43l4.83-61A9.89,9.89,0,0,0,469.2,62L414.7,19.59a7.09,7.09,0,0,0-9.81,1.06l-9.9,12a7.08,7.08,0,0,0,1.3,10.26l44.15,32a9,9,0,0,1,3.68,7.66l-3.28,67.32a12,12,0,0,0,5.34,10.56l25.51,16.9a7.09,7.09,0,0,0,9.55-1.59l11-14.38A7.1,7.1,0,0,0,490.6,151.13Z" />
    <path
        d="M34.38,418.47,91.6,441a9.45,9.45,0,0,1,5.82,7l6.49,34.22a7.42,7.42,0,0,0,8.84,5.88l15.35-3.27a7.43,7.43,0,0,0,5.79-8.44l-7.62-47.3a11.62,11.62,0,0,0-6.57-8.68L62,393.61a12.13,12.13,0,0,1-7-10.21l-3-45.7a7.44,7.44,0,0,0-8.54-6.85l-18.92,2.91A7.41,7.41,0,0,0,18.34,342l8.38,66.58A12.25,12.25,0,0,0,34.38,418.47Z" />
    <path
        d="M100.65,326.05l-17.58,3a7,7,0,0,0-5.77,7.58l3,30a11.78,11.78,0,0,0,6.73,9.5l60.11,28.07a8.77,8.77,0,0,1,5,6.71L159.69,464a7,7,0,0,0,8.34,5.84L183,466.71a7,7,0,0,0,5.43-8l-11.92-66.93a9.75,9.75,0,0,0-5.74-7.25l-55.31-23.8a7,7,0,0,1-4.18-5.65l-2.5-22.86A7,7,0,0,0,100.65,326.05Z" />
</svg>
