<svg xmlns="http://www.w3.org/2000/svg" viewBox="0 0 512 512" x="0px" y="0px">
    <title>Slowed</title>
    <path
        d="M487.91,304.59h-22.1V293.5a3.94,3.94,0,0,0-3.94-3.94H425.28a4,4,0,0,0-3.95,3.94v11.09h-22.1a4.79,4.79,0,0,0-3.41,8.15l41.86,42.41a8.28,8.28,0,0,0,11.78,0l41.86-42.41A4.79,4.79,0,0,0,487.91,304.59Z" />
    <path
        d="M487.91,414.07h-22.1V403a3.94,3.94,0,0,0-3.94-3.95H425.28a4,4,0,0,0-3.95,3.95v11.08h-22.1a4.79,4.79,0,0,0-3.41,8.15l41.86,42.41a8.28,8.28,0,0,0,11.78,0l41.86-42.41A4.79,4.79,0,0,0,487.91,414.07Z" />
    <path
        d="M320.77,360.71H277.34a60.52,60.52,0,0,1-21.17-3.85A93.38,93.38,0,0,1,235.25,349a11.61,11.61,0,0,1-5.63-14.37,11.34,11.34,0,0,1,15.9-5.85,70.48,70.48,0,0,0,16.84,6.27,4.59,4.59,0,0,0,4.58-7.46l-2.28-2.66a40.78,40.78,0,0,1-9.52-21.06l-7.55-54.59a67.72,67.72,0,0,0-1.94-9.24L234.5,200.7a83.13,83.13,0,0,1,21.29-81.52L313.11,62A10,10,0,0,0,306,44.91H148.86a17.42,17.42,0,0,0-14.73,8,101.36,101.36,0,0,1-11.75,15c-7.44,12-20.56,35.82-27.11,64.08a11.35,11.35,0,0,1-11,8.78,11.34,11.34,0,0,1-10.95-14.34,215.92,215.92,0,0,1,9.37-29.78,5.34,5.34,0,0,0-6.1-7.17c-18.51,3.9-43.81,15.6-53.87,49.88C6,196.11,56,234.82,56,234.82c8.27,7.58,15.7,14.86,22.37,21.81A236.05,236.05,0,0,1,140,374a134.69,134.69,0,0,0,6.73,23.5,43,43,0,0,0,40.95,27c24.32-.51,41.57-1.85,53.41-3.23,8.26-1,21.7.15,30.5,1.1q10.35,1.13,20.76,1.45l28.17.9A32.48,32.48,0,0,0,353,392.24c0-.73,0-1.45-.07-2.17C351.84,373.41,337.47,360.71,320.77,360.71Z" />
</svg>
