<svg xmlns="http://www.w3.org/2000/svg" viewBox="0 0 512 512" x="0px" y="0px">
    <title>Surprised</title>
    <path
        d="M140.33,232a32.42,32.42,0,0,0,31.12,32.39A147.23,147.23,0,0,0,183.7,284.7c11.12,15.41,26.73,31,48,40.69s46.21,7.09,64.48-7.36c13.1-10.37,26.69-27.06,35-53.82a32.42,32.42,0,0,0,7.87-62.61c-1-30.8-9.7-91.54-60.17-115.42-32.21-15.25-70.53-9.09-95.18,16.65C165.93,121.4,151,152.59,155.3,204.66A32.39,32.39,0,0,0,140.33,232ZM276.45,180.9c11.39,0,20.62,11.83,20.62,26.43s-9.23,26.43-20.62,26.43-20.62-11.84-20.62-26.43S265.06,180.9,276.45,180.9Zm-20.62,84.2a16.55,16.55,0,1,1-16.54,16.54A16.54,16.54,0,0,1,255.83,265.1Zm-51.37-71.48c9,0,16.22,8,16.22,17.77s-7.26,17.77-16.22,17.77-16.22-7.95-16.22-17.77S195.5,193.62,204.46,193.62Z" />
    <path
        d="M391.73,468.56A123.55,123.55,0,0,0,268.6,355.19h0A123.55,123.55,0,0,0,147.09,456.37l-3.39,18.4A15.53,15.53,0,0,0,159,493.11H376.89a15.53,15.53,0,0,0,15.48-16.81Z" />
    <path
        d="M31.93,314.22c13.28,12.32,31.31,11.69,33.32,11.58a14.84,14.84,0,0,0-1.66-29.64c-1.16.07-7.82-.32-11.47-3.7-.8-.74-3.21-3-3.37-9.8,0-.67.37-9.46,10.21-12.48,10.2-3.13,19.69-2.57,27.43,1.63a29.73,29.73,0,0,1,14.19,18.27,56.42,56.42,0,0,1,1.76,18,44.9,44.9,0,0,1-16.81,29.75,60.87,60.87,0,0,0-23.3,45.06l-.67,14.55A14.84,14.84,0,0,0,75.7,412.93l.7,0a14.85,14.85,0,0,0,14.81-14.16l.67-14.55a31.26,31.26,0,0,1,12-23.09c26.4-20.74,28.07-50.46,28.13-51.72a85.56,85.56,0,0,0-2.89-27.53,59.11,59.11,0,0,0-28.56-36.18c-14.7-8-32.56-9.36-50.3-3.92C25.38,249.43,19,272,19.06,282.94v.16C19.37,299.24,26.23,308.94,31.93,314.22Z" />
    <path
        d="M64.73,453.1a17.45,17.45,0,0,0,1.86,2.26,14.41,14.41,0,0,0,2.26,1.84,15.2,15.2,0,0,0,2.55,1.36,15.36,15.36,0,0,0,2.78.85,15,15,0,0,0,2.9.28,14.44,14.44,0,0,0,5.67-1.13,14.65,14.65,0,0,0,2.57-1.36,14.41,14.41,0,0,0,2.26-1.84,15.81,15.81,0,0,0,1.84-2.26,17.14,17.14,0,0,0,1.37-2.57,14.76,14.76,0,0,0,.84-2.77,14.73,14.73,0,0,0-4-13.41,14.41,14.41,0,0,0-2.26-1.84,14.65,14.65,0,0,0-2.57-1.36A14.08,14.08,0,0,0,80,430.3a14.74,14.74,0,0,0-8.58.85,15.2,15.2,0,0,0-2.55,1.36,14.41,14.41,0,0,0-2.26,1.84,14.93,14.93,0,0,0-4.07,13.41,15.57,15.57,0,0,0,.85,2.77A16.21,16.21,0,0,0,64.73,453.1Z" />
    <path
        d="M461.38,26.08c-14.7-8-32.56-9.37-50.3-3.92-24.87,7.63-31.28,30.24-31.19,41.13v.17c.31,16.14,7.17,25.83,12.87,31.12,13.29,12.32,31.31,11.69,33.32,11.58a14.84,14.84,0,1,0-1.66-29.64c-1.15.07-7.82-.32-11.47-3.7-.79-.74-3.21-3-3.37-9.81,0-.66.38-9.45,10.21-12.47,10.2-3.13,19.69-2.57,27.43,1.63a29.69,29.69,0,0,1,14.19,18.27,56.13,56.13,0,0,1,1.76,18,44.81,44.81,0,0,1-16.8,29.75,60.88,60.88,0,0,0-23.31,45.06l-.67,14.55a14.84,14.84,0,0,0,14.14,15.51l.7,0A14.84,14.84,0,0,0,452,179.15l.68-14.55a31.19,31.19,0,0,1,12-23.09c26.4-20.74,28.06-50.46,28.12-51.72A85.85,85.85,0,0,0,490,62.26,59.16,59.16,0,0,0,461.38,26.08Z" />
    <path
        d="M425.57,233.46a17.37,17.37,0,0,0,1.85,2.26,14.89,14.89,0,0,0,2.26,1.84,15.2,15.2,0,0,0,2.55,1.36,16.47,16.47,0,0,0,2.78.85,15,15,0,0,0,2.91.28,14.82,14.82,0,0,0,2.89-.28,15.67,15.67,0,0,0,2.78-.85,15.39,15.39,0,0,0,2.57-1.36,14.8,14.8,0,0,0,2.25-1.84,15.81,15.81,0,0,0,1.84-2.26,15.49,15.49,0,0,0,1.37-2.57,14.76,14.76,0,0,0,.84-2.77,14.3,14.3,0,0,0,.3-2.91,15,15,0,0,0-4.35-10.5,14.8,14.8,0,0,0-2.25-1.84,15.39,15.39,0,0,0-2.57-1.36,14.18,14.18,0,0,0-2.78-.85,14.52,14.52,0,0,0-5.8,0,14.82,14.82,0,0,0-2.78.85,15.2,15.2,0,0,0-2.55,1.36,14.74,14.74,0,0,0-6.61,12.34,14.29,14.29,0,0,0,.29,2.91,14.76,14.76,0,0,0,.84,2.77A15.49,15.49,0,0,0,425.57,233.46Z" />
</svg>
