<svg xmlns="http://www.w3.org/2000/svg" viewBox="0 0 512 640" x="0px" y="0px"><title>weapon axe</title><path d="M382,271.81c69.26-15.6,92.65-81.91,98.4-102.9a10.55,10.55,0,0,0-3.16-10.68c-2.76-2.47-5.74-5.06-8.89-7.74a3.59,3.59,0,0,0-5.73,1.57,151.27,151.27,0,0,1-9.06,21.6c-11.49,22.35-33.59,50.81-75,67.23a9.86,9.86,0,0,0-6.17,9.74c.31,5.14.29,9.73.14,13.44A7.69,7.69,0,0,0,382,271.81Z"/><path d="M253.78,200a138.4,138.4,0,0,1,20.65-15.61c27.88-17,64.58-9.76,82.94,17.22a77.45,77.45,0,0,1,8,15.39,7.12,7.12,0,0,0,9.43,4c46-19.79,63.7-57,70.47-80.33a11.42,11.42,0,0,0-3.91-12.11c-19.34-15.3-41.14-31.75-61.5-46.8l1.44-7.19A13.66,13.66,0,0,0,378.42,63,69.86,69.86,0,0,0,369,54a13.79,13.79,0,0,0-17.14,0l-.05,0a8,8,0,0,1-9.59.21c-12.08-8.72-22-15.82-28.37-20.31A10.55,10.55,0,0,0,300,35.25L281.25,55.31a9.11,9.11,0,0,0-.71,11.49,43.85,43.85,0,0,1,6.76,14.94,30.6,30.6,0,0,1-8.64,29.36C173.54,211.81,84.72,349.57,55.37,397.24a163.46,163.46,0,0,0-22.5,60.66c-.71,4.59-1.21,8.73-1.56,12.16a9.13,9.13,0,0,0,9.27,10l32.13-.65a9.07,9.07,0,0,0,8.94-8.79C84,364.69,253.78,200,253.78,200Z"/><text x="0" y="527" fill="#000000" font-size="5px" font-weight="bold" font-family="'Helvetica Neue', Helvetica, Arial-Unicode, Arial, Sans-serif">Created by Maxicons</text><text x="0" y="532" fill="#000000" font-size="5px" font-weight="bold" font-family="'Helvetica Neue', Helvetica, Arial-Unicode, Arial, Sans-serif">from the Noun Project</text></svg>