<svg xmlns="http://www.w3.org/2000/svg" xmlns:xlink="http://www.w3.org/1999/xlink" viewBox="0 0 24 30" version="1.1" x="0px" y="0px"><title>icon/gaming-star</title><desc>Created with Sketch.</desc><g stroke="none" stroke-width="1" fill="none" fill-rule="evenodd"><path d="M7.69098301,8 L11.0527864,1.2763932 C11.2370485,0.907868933 11.7629515,0.907868933 11.9472136,1.2763932 L15.309017,8 L21.5,8 C21.9454524,8 22.1685358,8.53857096 21.8535534,8.85355339 L17.0537319,13.6533749 L18.9850713,21.3787322 C19.0978407,21.82981 18.5877347,22.1771194 18.2093809,21.9068667 L11.5,17.1144518 L4.7906191,21.9068667 C4.41226531,22.1771194 3.9021593,21.82981 4.01492875,21.3787322 L5.94626808,13.6533749 L1.14644661,8.85355339 C0.831464179,8.53857096 1.05454757,8 1.5,8 L7.69098301,8 Z M11.5,2.61803399 L8.4472136,8.7236068 C8.36251759,8.89299881 8.18938603,9 8,9 L2.70710678,9 L6.85355339,13.1464466 C6.97774356,13.2706368 7.02766813,13.4508803 6.98507125,13.6212678 L5.31443619,20.3038081 L11.2093809,16.0931333 C11.3832297,15.9689556 11.6167703,15.9689556 11.7906191,16.0931333 L17.6855638,20.3038081 L16.0149287,13.6212678 C15.9723319,13.4508803 16.0222564,13.2706368 16.1464466,13.1464466 L20.2928932,9 L15,9 C14.810614,9 14.6374824,8.89299881 14.5527864,8.7236068 L11.5,2.61803399 Z M9,10.5 C9,10.2238576 9.22385763,10 9.5,10 C9.77614237,10 10,10.2238576 10,10.5 L10,12.5 C10,12.7761424 9.77614237,13 9.5,13 C9.22385763,13 9,12.7761424 9,12.5 L9,10.5 Z M13,10.5 C13,10.2238576 13.2238576,10 13.5,10 C13.7761424,10 14,10.2238576 14,10.5 L14,12.5 C14,12.7761424 13.7761424,13 13.5,13 C13.2238576,13 13,12.7761424 13,12.5 L13,10.5 Z" fill="#000000" fill-rule="nonzero"/></g><text x="0" y="39" fill="#000000" font-size="5px" font-weight="bold" font-family="'Helvetica Neue', Helvetica, Arial-Unicode, Arial, Sans-serif">Created by Travis Avery</text><text x="0" y="44" fill="#000000" font-size="5px" font-weight="bold" font-family="'Helvetica Neue', Helvetica, Arial-Unicode, Arial, Sans-serif">from the Noun Project</text></svg>