<svg xmlns="http://www.w3.org/2000/svg" xmlns:xlink="http://www.w3.org/1999/xlink" xml:space="preserve" style="shape-rendering:geometricPrecision;text-rendering:geometricPrecision;image-rendering:optimizeQuality;" viewBox="0 0 173.397 216.74624999999997" x="0px" y="0px" fill-rule="evenodd" clip-rule="evenodd"><defs><style type="text/css">
   
    .fil1 {fill:none}
    .fil0 {fill:black}
   
  </style></defs><g><g><path class="fil0" d="M38.1192 146.768l60.5205 -60.5204 -22.3522 10.6898 10.056 -21.0276 -59.5413 59.5412c2.6623,0.6261 5.189,1.9761 7.2649,4.052 2.076,2.076 3.426,4.6027 4.0521,7.265z"/><circle class="fil0" transform="matrix(0.32968 0.32968 -0.32968 0.32968 23.3033 150.267)" r="27.0933"/><path class="fil0" d="M144.027 43.075c4.2453,8.5648 4.2447,18.6989 -0.0005,27.2637l-1.1266 -2.3557 -10.2063 4.9008 -4.9009 10.2064 2.3567 1.1269c-8.5649,4.2454 -18.699,4.2448 -27.2638,-0.0004l2.3557 -1.1266 -4.9008 -10.2063 -10.2063 -4.9009 -1.127 2.3566c-4.2453,-8.5648 -4.2448,-18.6989 0.0004,-27.2637l1.1266 2.3557 10.2063 -4.9008 4.9009 -10.2063 -2.3557 -1.1266c8.5649,-4.2451 18.699,-4.2459 27.2637,-0.0005l-2.3566 1.1271 4.9008 10.2063 10.2064 4.9009 1.127 -2.3566z"/><polygon class="fil0" points="151.244,21.9809 146.463,31.9771 144.797,35.4606 141.683,41.9734 134.635,38.5893 131.251,31.542 141.247,26.7615 144.731,25.0956 "/><polygon class="fil0" points="151.244,91.4336 141.247,86.6531 137.764,84.9872 131.251,81.8726 134.635,74.8252 141.683,71.4412 146.463,81.4375 148.129,84.9209 "/><polygon class="fil0" points="81.7908,91.4336 86.5713,81.4374 88.2372,77.9539 91.3518,71.4412 98.3993,74.8252 101.783,81.8725 91.787,86.653 88.3035,88.3189 "/><polygon class="fil0" points="81.7908,21.9809 91.787,26.7614 95.2705,28.4273 101.783,31.5419 98.3993,38.5893 91.3519,41.9733 86.5714,31.977 84.9055,28.4936 "/><path class="fil0" d="M162.726 56.7073l-13.3893 5.5622c0.6205,-3.68 0.6205,-7.4444 0,-11.1244l13.3893 5.5622z"/><path class="fil0" d="M116.517 102.916l-5.5622 -13.3892c3.68,0.6204 7.4444,0.6204 11.1244,0l-5.5622 13.3892z"/><path class="fil0" d="M70.3085 56.7072l13.3893 -5.5622c-0.6205,3.68 -0.6205,7.4444 0,11.1244l-13.3893 -5.5622z"/><path class="fil0" d="M116.517 10.4986l5.5622 13.3892c-3.68,-0.6204 -7.4445,-0.6204 -11.1245,0l5.5623 -13.3892z"/></g></g><rect class="fil1" width="173.397" height="173.397"/><text x="0" y="188.397" fill="#000000" font-size="5px" font-weight="bold" font-family="'Helvetica Neue', Helvetica, Arial-Unicode, Arial, Sans-serif">Created by Muhammad Atiq</text><text x="0" y="193.397" fill="#000000" font-size="5px" font-weight="bold" font-family="'Helvetica Neue', Helvetica, Arial-Unicode, Arial, Sans-serif">from the Noun Project</text></svg>