<svg xmlns="http://www.w3.org/2000/svg" viewBox="0 0 512 640" x="0px" y="0px"><title>weapon mace</title><path d="M243.81,161.42l-52.54,8.07a3.38,3.38,0,0,0-.16,6.66l52.58,10.59A4.46,4.46,0,0,0,249,182a88,88,0,0,1-.07-15.82A4.46,4.46,0,0,0,243.81,161.42Z"/><path d="M340.14,318.37l8.07-52.54a4.45,4.45,0,0,0-4.74-5.14,87.89,87.89,0,0,1-15.81-.08,4.47,4.47,0,0,0-4.77,5.34l10.59,52.57A3.38,3.38,0,0,0,340.14,318.37Z"/><path d="M340.23,86.51a4.48,4.48,0,0,0,4.66-5.33l-9.86-49a3.38,3.38,0,0,0-6.66.15l-7.6,49.48A4.45,4.45,0,0,0,325.64,87,88.88,88.88,0,0,1,340.23,86.51Z"/><path d="M477.4,174.6l-48.95-9.86a4.47,4.47,0,0,0-5.32,4.66,87.79,87.79,0,0,1-.49,14.59,4.45,4.45,0,0,0,5.13,4.87l49.48-7.6A3.38,3.38,0,0,0,477.4,174.6Z"/><path d="M122.68,350.36,40.44,432.6a29.22,29.22,0,0,0,41.33,41.33L164,391.69a13.45,13.45,0,0,0,.95-18L273.36,263.52A17.2,17.2,0,0,0,249,239.2L140.63,349.41A13.45,13.45,0,0,0,122.68,350.36Z"/><path d="M226.26,66.1a3.38,3.38,0,0,0-4.41,5l55.25,69.49a67.52,67.52,0,0,0,92.44,91.68l69.37,55.15a3.38,3.38,0,0,0,5-4.41L396,204.51a67.64,67.64,0,0,0-.5-62.58L449,65.3a3.38,3.38,0,0,0-4.71-4.71l-76.62,53.53a67.66,67.66,0,0,0-63.12-.23Z"/><text x="0" y="527" fill="#000000" font-size="5px" font-weight="bold" font-family="'Helvetica Neue', Helvetica, Arial-Unicode, Arial, Sans-serif">Created by Maxicons</text><text x="0" y="532" fill="#000000" font-size="5px" font-weight="bold" font-family="'Helvetica Neue', Helvetica, Arial-Unicode, Arial, Sans-serif">from the Noun Project</text></svg>