<svg xmlns="http://www.w3.org/2000/svg" xmlns:xlink="http://www.w3.org/1999/xlink" version="1.1" x="0px" y="0px" viewBox="0 0 175.864 142.0125" style="enable-background:new 0 0 175.864 113.61;" xml:space="preserve"><g><ellipse transform="matrix(0.8365 -0.548 0.548 0.8365 -8.6501 16.0089)" cx="22.498" cy="22.498" rx="22.496" ry="22.495"/><path d="M169.749,90.365l-41.916-24.918c-4.113-2.444-9.313-2.317-13.297,0.329l-23.22,15.406   c-16.33-5.53-32.092-18.544-43.387-27.07c-7.69-6.94-20.044-8.781-25.694-2.04c-3.902,4.653-5.705,12.365-2.843,20.293l3.511-9.478   c1.447-3.907,5.214-6.53,9.378-6.53c1.183,0,2.351,0.209,3.469,0.622c2.507,0.93,4.501,2.776,5.617,5.203   c1.116,2.428,1.219,5.143,0.289,7.65l-7.546,20.378c0.793,0.693,1.582,1.366,2.368,2.021l22.369,2.963   c2.646,0.35,4.999,1.71,6.623,3.831c1.624,2.121,2.326,4.746,1.976,7.393c-0.152,1.148-0.505,2.227-1.009,3.213   c2.296,0.905,4.713,1.8,7.278,2.7c5.892,1.576,11.201,1.053,15.602-0.692c1.344-0.336,2.656-0.889,3.877-1.698l28.62-18.991   l35.166,20.901c2.003,1.191,4.204,1.759,6.376,1.759c4.263,0,8.417-2.184,10.754-6.115   C177.633,101.562,175.685,93.892,169.749,90.365z"/><path d="M58.58,97.179v-0.002l-19.11-2.531l-8.709-1.153l1.743-4.706l7.277-19.648c1.534-4.144-0.581-8.746-4.725-10.282   c-4.144-1.533-8.744,0.582-10.28,4.726L20.535,75.03l-8.26,22.3c-0.842,2.277-0.602,4.826,0.651,6.907   c1.253,2.079,3.394,3.483,5.802,3.803l37.75,4.999c0.357,0.047,0.712,0.07,1.063,0.07c2.983,0,5.67-1.67,7.039-4.221   c0.444-0.827,0.751-1.745,0.881-2.731C66.039,101.779,62.96,97.758,58.58,97.179z"/></g><text x="0" y="128.61" fill="#000000" font-size="5px" font-weight="bold" font-family="'Helvetica Neue', Helvetica, Arial-Unicode, Arial, Sans-serif">Created by Gan Khoon Lay</text><text x="0" y="133.61" fill="#000000" font-size="5px" font-weight="bold" font-family="'Helvetica Neue', Helvetica, Arial-Unicode, Arial, Sans-serif">from the Noun Project</text></svg>