<svg xmlns="http://www.w3.org/2000/svg" xmlns:xlink="http://www.w3.org/1999/xlink" version="1.1" x="0px" y="0px" viewBox="0 0 100 125" enable-background="new 0 0 100 100" xml:space="preserve"><ellipse transform="matrix(-0.5001 -0.866 0.866 -0.5001 69.645 90.6946)" fill-rule="evenodd" clip-rule="evenodd" cx="61.002" cy="25.244" rx="6.898" ry="6.132"/><path fill-rule="evenodd" clip-rule="evenodd" d="M65.217,33.25c2.873-1.631,6.524-0.623,8.154,2.25  c2.337,4.1,4.066,8.074,5.161,11.963c1.878,6.666,0.675,11.078,2.569,17.611c2.188,7.543,2.526,8.709,12.555,17.58  c1.647,1.458,1.801,3.977,0.344,5.624c-1.459,1.647-3.977,1.802-5.624,0.344C76.698,78.291,76.197,76.775,73.504,67.488  c-1.055,5.383-0.703,7.758,3.25,18.603c0.75,2.071-0.32,4.358-2.391,5.108s-4.357-0.319-5.107-2.391  c-5.381-14.757-5.057-16.243-2.961-25.855c0.451-2.073,1.305-5.633,1.598-7.513c0.237-1.532-0.433-3.124-0.889-4.743  c-0.191-0.678-0.408-1.361-0.653-2.052c-1.657,7.571-4.235,8.423-15.899,7.242c-1.643-0.162-2.844-1.626-2.683-3.269  c0.161-1.644,1.626-2.846,3.269-2.684c9.046,0.916,9.218-0.215,10.639-9.545C62.091,37.66,62.564,34.755,65.217,33.25z"/><path fill-rule="evenodd" clip-rule="evenodd" d="M45.99,50.484l1.516,0.139c-0.386,0.545-0.641,1.191-0.71,1.9  c-0.054,0.543,0.007,1.072,0.161,1.563l-1.285-0.117c-0.205,0.594-0.48,1.124-0.805,1.563c-0.736,0.999-1.741,1.585-2.854,1.54l0,0  l0,0c-0.828,0.01-1.507-0.654-1.515-1.483c-0.01-0.828,0.654-1.507,1.483-1.515l0,0v0.003c0.05,0,0.101,0.002,0.151,0.007  c0.051,0.004,0.172-0.123,0.325-0.33c0.31-0.42,0.534-1.045,0.602-1.775v-0.006c0.067-0.734-0.04-1.393-0.269-1.861  c-0.102-0.209-0.189-0.347-0.244-0.375c-0.766-0.061-1.371-0.697-1.379-1.479c-0.01-0.828,0.654-1.507,1.482-1.515h0.001  c0.105-0.002,0.21,0.008,0.31,0.028c1.099,0.159,1.979,0.918,2.521,2.034C45.721,49.294,45.896,49.865,45.99,50.484z"/><ellipse transform="matrix(0.1497 -0.9887 0.9887 0.1497 5.4616 50.1155)" fill-rule="evenodd" clip-rule="evenodd" cx="31.869" cy="21.882" rx="6.898" ry="6.131"/><path fill-rule="evenodd" clip-rule="evenodd" d="M26.184,30.905c0.996-0.306,2.071-0.442,3.168-0.22  c3.238,0.652,5.332,3.807,4.68,7.044c-0.604,2.992-0.725,5.772-0.411,8.358c0.103,0.848,0.349,2.001,0.702,3.33l7.914,0.724  c0.251,0.527,0.294,1.214,0.242,1.786l-0.002,0.018c-0.051,0.553-0.216,1.211-0.551,1.682l-6.516-0.596  c1.754,5.268,4.443,11.313,6.654,12.777c2.697,1.785,7.037,1.915,14.18,1.535c2.2-0.125,4.084,1.557,4.209,3.756  c0.125,2.2-1.557,4.085-3.757,4.209c-8.88,0.475-14.498,0.164-19.042-2.845c-1.926-1.274-3.515-2.943-4.925-5.146  c0.05,2.02,0.353,3.661,0.947,5.057c1.407,3.309,4.854,5.923,10.785,9.637c1.867,1.172,2.432,3.635,1.261,5.502  c-1.172,1.867-3.635,2.432-5.502,1.261c-7.316-4.581-11.662-8.026-13.896-13.28c-2.684-6.308-0.47-15.219-1.326-16.982  c-1.059-2.179-1.892-4.453-2.48-6.834c-4.68-0.636-9.333-1.504-13.949-2.856c4.475-0.46,8.905-0.499,13.32-0.32  c-0.049-0.327-0.094-0.657-0.134-0.989c-0.068-0.559-0.122-1.121-0.163-1.687c-0.109,0.052-0.219,0.101-0.33,0.149  c-3.413,1.467-7.221,0.865-13.899-0.57c-1.614-0.346-2.642-1.936-2.296-3.551c0.347-1.614,1.937-2.643,3.551-2.295  c5.457,1.173,8.472,1.705,10.284,0.926c0.714-0.307,1.386-0.885,2.099-1.777c-2.263,0.295-4.115,0.145-5.902-0.568  c-3.463-1.381-5.731-4.496-9.435-10.229c-0.897-1.391-0.499-3.246,0.892-4.144c1.391-0.897,3.246-0.499,4.144,0.892  c3.032,4.693,4.788,7.203,6.607,7.929C19.523,33.47,24.001,31.576,26.184,30.905z"/><text x="0" y="115" fill="#000000" font-size="5px" font-weight="bold" font-family="'Helvetica Neue', Helvetica, Arial-Unicode, Arial, Sans-serif">Created by Krisada</text><text x="0" y="120" fill="#000000" font-size="5px" font-weight="bold" font-family="'Helvetica Neue', Helvetica, Arial-Unicode, Arial, Sans-serif">from the Noun Project</text></svg>