<svg xmlns="http://www.w3.org/2000/svg" xmlns:xlink="http://www.w3.org/1999/xlink" xml:space="preserve" version="1.1" style="shape-rendering:geometricPrecision;text-rendering:geometricPrecision;image-rendering:optimizeQuality;" viewBox="0 0 707 958.75" x="0px" y="0px" fill-rule="evenodd" clip-rule="evenodd"><defs><style type="text/css">
   
    .fil0 {fill:black}
   
  </style></defs><g><path class="fil0" d="M187 320c1,-10 1,-23 2,-36 -13,-21 3,-29 11,-16 3,-2 10,-4 18,0 3,1 5,2 6,2 0,3 1,5 3,7l7 8c3,3 8,3 11,1l-3 2c-1,2 -2,4 0,6l4 4c1,2 4,2 6,0l3 -3 27 29 -2 2c-3,2 -3,6 0,9l5 6 -1 1c-4,5 -1,14 2,16 20,14 37,23 53,29l350 380 18 -16 -329 -358c68,-2 114,-70 202,-86 -21,-13 -31,-24 -69,-27 33,-28 39,-37 76,-41 -108,-48 -176,71 -257,64 -6,-1 -10,3 -13,7l-5 -5c-2,-2 -6,-3 -9,0l-3 3 -27 -29 5 -5c2,-1 2,-4 0,-6l-4 -4c-1,-1 -4,-2 -6,0l-2 3c3,-3 3,-9 0,-12l-7 -8c-2,-2 -6,-3 -8,-2 -1,-1 -1,-3 -2,-5 -3,-8 -1,-16 2,-18 -13,-9 -3,-25 16,-10 13,0 26,1 37,1 -12,-11 -47,-30 -60,-36 -5,3 -11,6 -19,7 -14,3 -27,-1 -29,-7 -1,-7 17,-8 29,-12 -12,-4 -32,-13 -39,-17 6,12 7,19 2,19 -5,1 -12,-6 -14,-16 0,-4 0,-8 0,-11 -56,-39 -110,-116 -174,-140 19,66 91,126 125,185 3,0 7,0 11,1 10,3 17,10 15,15 -1,5 -8,4 -19,-3 3,7 10,28 14,40 5,-11 7,-29 14,-28 6,2 9,15 5,30 -2,7 -5,13 -9,17 5,15 21,50 31,63zm63 -70c2,-2 5,-2 6,-1 1,2 1,4 -1,6 -2,2 -5,3 -6,1 -2,-1 -1,-4 1,-6zm48 92l18 -17 1 -1c4,-4 9,-13 12,-12 79,7 137,-88 224,-74 -50,20 -65,71 -138,61 49,20 64,-7 96,-10 23,2 33,6 46,14 -41,12 -70,28 -94,42 -11,-7 -51,-12 -83,-3 18,-1 86,2 53,22 -35,20 -61,29 -109,0 -6,-4 59,-11 88,-5 -51,-16 -118,3 -114,-17zm-57 -90l4 -3c-1,-1 -1,-4 -2,-7 -2,-5 -3,-13 -1,-19 -12,-14 4,-34 27,-18 4,0 9,0 13,1 -12,-8 -28,-17 -38,-21 -5,3 -11,5 -17,6 -12,2 -35,2 -37,-13 -1,-2 -1,-3 0,-4 -1,0 -1,0 -1,0 -12,2 -20,-13 -21,-22 -1,-3 -1,-6 -1,-9 -45,-32 -88,-87 -136,-119l210 228zm-43 -86c1,-1 3,-2 5,-2 -2,-1 -4,-2 -5,-3 0,2 0,3 0,5z"/></g><text x="0" y="782" fill="#000000" font-size="5px" font-weight="bold" font-family="'Helvetica Neue', Helvetica, Arial-Unicode, Arial, Sans-serif">Created by kareemovic</text><text x="0" y="787" fill="#000000" font-size="5px" font-weight="bold" font-family="'Helvetica Neue', Helvetica, Arial-Unicode, Arial, Sans-serif">from the Noun Project</text></svg>