<?xml version="1.0" encoding="UTF-8"?>
<svg width="1200pt" height="1200pt" version="1.1" viewBox="0 0 1200 1200" xmlns="http://www.w3.org/2000/svg">
 <path d="m730.28 234.86c-32.258-0.03125-64.25 10.52-88.816 33.086-11.977 11.203-21.742 24.605-28.375 39.617-2.8828 52.867-60.141 21.582-95.48 37.328-80.855 18.875-163.63 54.613-216.11 121.52-19.039-6.3203-35.316-7.5625-41.391 23.203 51.367 71.199 32.832 56.469 86.223 80.707 45.285 24.332 91.859 50.582 141.46 68.812 34.777 15.852 73.535 33.785 89.617 71.043 18.484 22.051 29.625 52.984 45.199 72.816 12.418 29.621 29.809 56.727 42.559 87.281 13.148 24.199 16.027 33.336 26.578 51.836 8.8594 14.242 6.0625 27.125 19.938 38.234 25.383-4.457 60.328-14.32 72.578-38.125-41.602-87.176-90.91-170.66-139.55-254.12-17.859-30.926-36.992-67.34-28.762-103.5 7.0547-49.738 19.629-121.43 30.102-190.68-19.883-22.637-3.6953-3.6484 10.078 3.5898 31.574 8.4766 48.93 31.906 62.281 49.113 25.375 6.8281-4.0039 34.133 25.949 43.727 25.02 14.195 58.629 16.051 81.012 25.887 19.176-4.293 42.48 18.316 65.484 10.555 20.035-12.062 35.727-46.125 27.68-71.734-5.918-24.773-16.07-50.094-31.918-65.723-17.184-20.543-18.074-57.379-40.594-78.523-26.824-36.016-71.539-55.906-115.74-55.945zm-1.2109 17.516c54.238-0.58984 106.21 36.746 124.39 88.992 16.984 20.691-26.664 6.8789-9.1484 31.727 5.3906 22.176 13.707 42.91 7.8711 69.074-11.41 46.621-38.578-4.1289-57.094-20.414-11.551-9.793-72.332-11.699-37.887-15.57-13.371-24.535-41.543-14.379-60.965-34.277-22.812-8.957-48.621-22.055-75.195-29.648 5.8047-37.887 33.797-71.543 70.5-83.129 12.371-4.4609 25.004-6.6094 37.52-6.7461zm-147.47 108c8.4648 0.007812 15.867 1.5898 16.91 8.7812-4.0469 28.25-26.117 53.215-18.988 82.18-14.863 39.113-5.1914 94.984-36.766 122.75-39.992 14.562-76.195-13.172-112.24-26.34-32.121-14.555-65.684-28.293-85.465-55.883-24.051-3.8359-30.273-21.445-6.8984-34.949 61.188-53.305 139.7-86.699 220.18-95.891 5.2891 0.90234 14.805-0.66016 23.27-0.64844zm289.98 13.496c3.8828 0 7.0273 3.4414 7.0273 7.6758s-0.58984 15.32-4.4727 15.32c-3.8828 0-9.582-11.09-9.582-15.32 0-4.2344 3.1484-7.6758 7.0273-7.6758zm-110.81 60.641c7.1602-0.34766 7.8008 20.699-8.9297 9.4727 3.4297-6.8555 6.5469-9.3555 8.9297-9.4727z"/>
</svg>
