<svg xmlns="http://www.w3.org/2000/svg" viewBox="0 0 512 640" x="0px" y="0px"><title>element normal</title><path d="M246,118.09l34.58-45.83a27.71,27.71,0,0,0-5.43-38.81l-3.59-2.7a27.69,27.69,0,0,0-38.8,5.43l-40.29,53.4a7.47,7.47,0,0,0,4.65,11.88A76.92,76.92,0,0,1,230.68,116l4.77,3.6A7.5,7.5,0,0,0,246,118.09Z"/><path d="M299.92,168.2a7.18,7.18,0,0,0,10.13-1.29l33.45-44.33,1.35-1.79A27.7,27.7,0,0,0,339.42,82l-3.58-2.7A27.7,27.7,0,0,0,297,84.71l-34.8,46.12a7.14,7.14,0,0,0,1.4,10l36.23,27.33Z"/><path d="M296.83,268.27c13.32,10.14,32.5,6.88,42.58-6.49l67.89-90c9.7-12.86,8.2-31.38-4.16-41.7A30,30,0,0,0,360,135l-41.87,55.5a15,15,0,0,0-3.13,8.71A38.53,38.53,0,0,1,306.25,223a175.11,175.11,0,0,1-15.06,16.14,15.54,15.54,0,0,0-3.45,17.69A29.67,29.67,0,0,0,296.83,268.27Z"/><path d="M472.15,219.64a30,30,0,1,0-47.82-36.08l-68.94,91.37A30,30,0,0,0,403.21,311Z"/><path d="M283.74,467.68l43-57a70.86,70.86,0,0,0-13.89-99.24l-46.24-34.88a62.41,62.41,0,0,0-5.3-3.52h0l-28.18-16.54a9.28,9.28,0,0,0-13.89,9.32c3.6,24.8.23,57.81-23.22,96.6a12.41,12.41,0,0,1-17,4.2c-.37-.23-.73-.47-1.07-.73a12.41,12.41,0,0,1-3.13-16.31c48.78-80.66-2.79-128.55-5-130.55a12.43,12.43,0,0,1-.64-17.86,12.8,12.8,0,0,1,15.65-1.82l60.17,35.33a18.82,18.82,0,0,0,20.48-.93l.1-.08c2.65-1.9,5.21-3.95,7.64-6.06a152.56,152.56,0,0,0,17.15-17.76,18.56,18.56,0,0,0,2-3,17.55,17.55,0,0,0-4.9-22.23L245.49,153l-8.25-6.23L229,140.58l-10.76-8.12a56.79,56.79,0,0,0-68.76.29,57.22,57.22,0,0,0-10.75,10.84L48.23,263.53c-.55.74-1.1,1.48-1.63,2.24-22.39,31.8-14.47,75.85,16.76,99l150.92,112c21.12,15.68,51.06,12.72,68-7.4C282.78,468.87,283.26,468.28,283.74,467.68Z"/><text x="0" y="527" fill="#000000" font-size="5px" font-weight="bold" font-family="'Helvetica Neue', Helvetica, Arial-Unicode, Arial, Sans-serif">Created by Maxicons</text><text x="0" y="532" fill="#000000" font-size="5px" font-weight="bold" font-family="'Helvetica Neue', Helvetica, Arial-Unicode, Arial, Sans-serif">from the Noun Project</text></svg>