<svg xmlns="http://www.w3.org/2000/svg" xmlns:xlink="http://www.w3.org/1999/xlink" version="1.1" x="0px" y="0px" viewBox="0 0 100 125" enable-background="new 0 0 100 100" xml:space="preserve"><g><path d="M8.5,84.3C8.3,84.1,8.2,84,8,83.8c-2.3,2.1-4.8,5.6-1,9.3c3.8,3.8,7.3,1.2,9.4-1.1c-0.3-0.2-0.6-0.4-0.8-0.6L8.5,84.3z"/><path d="M84.8,33.3c0.2-0.9,0-1.8-0.6-2.4L68.9,15.6c-0.5-0.5-1.1-0.7-1.7-0.7c-0.2,0-0.4,0-0.7,0.1l-2.3,0.6L52.9,26.9l-0.6,2.3   c-0.2,0.9,0,1.8,0.6,2.4l15.3,15.3c0.5,0.5,1.1,0.7,1.7,0.7c0.2,0,0.4,0,0.7-0.1l2.3-0.6l11.2-11.2L84.8,33.3z"/><path d="M12.7,80.1c-0.4-0.4-0.8-0.5-1.3-0.5c-0.5,0-1,0.2-1.3,0.5l-0.4,0.4c-0.7,0.7-0.7,1.9,0,2.6l7.1,7.1   c0.4,0.4,0.8,0.5,1.3,0.5c0.5,0,1-0.2,1.3-0.5l0.4-0.4c0.7-0.7,0.7-1.9,0-2.6L12.7,80.1z"/><path d="M44.2,24.8c0.5,0.5,1.2,0.9,2,1l5.4,0.2l0.3-0.3L63,14.5l0.3-0.3l-0.2-5.4c-0.1-0.8-0.5-1.4-1-2l-0.8-0.8   C60.7,5.4,59.8,5,58.8,5h-1.7c-1,0-1.9,0.4-2.6,1.1L49,11.6l-0.1,0.1l-5.5,5.5c-0.7,0.7-1.1,1.6-1.1,2.6v1.7c0,1,0.4,1.9,1.1,2.6   L44.2,24.8z"/><path d="M93.8,38.5l-0.8-0.8c-0.5-0.5-1.2-0.9-2-1l-5.6-0.2l-0.1,0.1L74.1,48l-0.1,0.1l0.2,5.6c0.1,0.8,0.5,1.4,1,2l0.8,0.8   c0.7,0.7,1.6,1.1,2.6,1.1l1.7,0c1,0,1.9-0.4,2.6-1.1l5.5-5.5l0.1-0.1l5.5-5.5c0.7-0.7,1.1-1.6,1.1-2.6v-1.7   C94.9,40.2,94.5,39.2,93.8,38.5z"/><rect x="18.5" y="71.1" transform="matrix(-0.7071 -0.7071 0.7071 -0.7071 -17.0732 148.6194)" width="7.5" height="13.5"/><path d="M56.1,37.1L28,65.2l-0.4-0.4c-0.3-0.3-0.6-0.4-0.9-0.4c-0.3,0-0.6,0.1-0.8,0.3l-1.6,1.6c-0.4,0.4-0.4,1.2,0.1,1.7l0.4,0.4   l6.9,6.9l0.4,0.4c0.3,0.3,0.6,0.4,0.9,0.4c0.3,0,0.6-0.1,0.8-0.3l1.6-1.6c0.4-0.4,0.4-1.2-0.1-1.7l-0.4-0.4L63,44L56.1,37.1z    M47.3,54.3c-0.5,0.5-1.2,0.5-1.7,0c-0.5-0.5-0.5-1.2,0-1.7c0.5-0.5,1.2-0.5,1.7,0C47.8,53.1,47.8,53.8,47.3,54.3z M52.2,49.4   c-0.5,0.5-1.2,0.5-1.7,0c-0.5-0.5-0.5-1.2,0-1.7c0.5-0.5,1.2-0.5,1.7,0C52.7,48.2,52.7,48.9,52.2,49.4z M55.4,44.5   c-0.5-0.5-0.5-1.2,0-1.7c0.5-0.5,1.2-0.5,1.7,0c0.5,0.5,0.5,1.2,0,1.7C56.6,44.9,55.9,44.9,55.4,44.5z"/><path d="M82.6,24.3c0.8-0.8,0.8-2.2-0.1-3.1l-3.7-3.7c-0.5-0.5-1.1-0.7-1.7-0.7c-0.5,0-1,0.2-1.4,0.6l-1.4,1.4l6.9,6.9L82.6,24.3z"/></g><text x="0" y="115" fill="#000000" font-size="5px" font-weight="bold" font-family="'Helvetica Neue', Helvetica, Arial-Unicode, Arial, Sans-serif">Created by parkjisun</text><text x="0" y="120" fill="#000000" font-size="5px" font-weight="bold" font-family="'Helvetica Neue', Helvetica, Arial-Unicode, Arial, Sans-serif">from the Noun Project</text></svg>