<svg xmlns="http://www.w3.org/2000/svg" data-name="Layer 1" viewBox="0 0 64 80" x="0px" y="0px"><path d="M5.036,42.285a3.959,3.959,0,0,0,3.948-3.849l1.655-.378a21.967,21.967,0,0,0,4.494,8.115l-1.277,1.182a4.09,4.09,0,1,0,1.313,1.484L16.505,47.6a22.016,22.016,0,0,0,5.575,3.9v-.4A4.962,4.962,0,0,1,26.4,46.2a5.96,5.96,0,1,1,11.194,0A4.962,4.962,0,0,1,41.92,51.11v.077a22.093,22.093,0,0,0,6.9-5.7l1,.812a4.056,4.056,0,1,0,1.22-1.561l-1.054-.856a21.861,21.861,0,0,0,3.646-11.2l.97.014a3.958,3.958,0,1,0-.015-1.982l-.947-.014a21.922,21.922,0,0,0-6.267-14.386l.021-.022a3.908,3.908,0,0,0,1.7.4,3.963,3.963,0,1,0-3.96-3.963,3.92,3.92,0,0,0,.6,2.068A21.872,21.872,0,0,0,32.68,9.74V8.786a3.96,3.96,0,1,0-1.98,0V9.74a21.927,21.927,0,0,0-16.263,8.353l-.044-.034a3.894,3.894,0,0,0,.205-1.2,3.96,3.96,0,1,0-3.96,3.963,3.92,3.92,0,0,0,2.517-.929,21.936,21.936,0,0,0-2.993,16.238l-1.627.372a3.953,3.953,0,1,0-3.5,5.779ZM41.627,22.374a5.366,5.366,0,1,1-7.585,7.592Zm-19.874,0,7.585,7.592a5.366,5.366,0,1,1-7.585-7.592Z"/><path d="M24.08,51.11V63H39.92V51.11a2.971,2.971,0,0,0-2.97-2.972h-9.9A2.971,2.971,0,0,0,24.08,51.11Z"/><path d="M35.96,44.174A3.96,3.96,0,1,0,32,48.138,3.962,3.962,0,0,0,35.96,44.174Z"/><text x="0" y="79" fill="#000000" font-size="5px" font-weight="bold" font-family="'Helvetica Neue', Helvetica, Arial-Unicode, Arial, Sans-serif">Created by Kamin Ginkaew</text><text x="0" y="84" fill="#000000" font-size="5px" font-weight="bold" font-family="'Helvetica Neue', Helvetica, Arial-Unicode, Arial, Sans-serif">from the Noun Project</text></svg>