<svg xmlns="http://www.w3.org/2000/svg" viewBox="0 0 512 512" x="0px" y="0px">
    <title>Ready</title>
    <rect x="128.73" y="29.52" width="254.54" height="29.09" rx="5.88" />
    <rect x="128.73" y="453.39" width="254.54" height="29.09" rx="5.88" />
    <path
        d="M286,267.87a12.85,12.85,0,0,1-4.75-2.9h0a12.5,12.5,0,0,1,0-17.94h0a12.85,12.85,0,0,1,4.75-2.9c73.74-25.51,84.73-108.48,84.93-154.33A11.31,11.31,0,0,0,359.6,78.46H152.4A11.31,11.31,0,0,0,141.09,89.8c.2,45.85,11.19,128.82,84.93,154.33a12.85,12.85,0,0,1,4.75,2.9,12.5,12.5,0,0,1,0,17.94,12.85,12.85,0,0,1-4.75,2.9c-73.74,25.51-84.73,108.48-84.93,154.33a11.31,11.31,0,0,0,11.31,11.34H359.6a11.31,11.31,0,0,0,11.31-11.34C370.71,376.35,359.72,293.38,286,267.87Zm-90-81a10.7,10.7,0,0,1,8.57-17.12H307.44A10.7,10.7,0,0,1,316,186.88a84.91,84.91,0,0,1-52.17,32.91,40.17,40.17,0,0,1-15.68,0A84.91,84.91,0,0,1,196,186.88Zm112.6,218.63H203.41c-9,0-16.81-16.7-8.75-24.54C209,367,226.44,348.91,248,333.81c2.36-1.65,5.15-3.56,8-3.3,2.87-.26,5.66,1.65,8,3.3,21.54,15.1,39,33.23,53.32,47.16C325.4,388.81,317.6,405.51,308.59,405.51Z" />
</svg>
