<svg xmlns="http://www.w3.org/2000/svg" viewBox="0 0 512 512" x="0px" y="0px">
    <title>Recover</title>
    <path
        d="M61.54,329.45s27.32,100.59,94,146.83c24.45,17,57.66,15,79.4-5.33,2-1.87,4-3.84,5.89-5.93,8.09-8.8,22-9.17,30-.33q3,3.31,6.19,6.26c21.74,20.31,54.92,22.29,79.38,5.34,66.69-46.23,94-146.84,94-146.84,17.51-83.82-9.2-126.38-38.36-147.87s-67.18-25.89-101.21-13.66a140.18,140.18,0,0,0-40.07,22.49,23.62,23.62,0,0,1-29.64,0,140.18,140.18,0,0,0-40.07-22.49c-34.05-12.23-72.15-7.8-101.26,13.69S44,245.67,61.54,329.45Z" />
    <path
        d="M251.22,167.81a13.89,13.89,0,0,0,13.23-10.15c6.18-21,25.35-69.42,75.67-95.59a20,20,0,0,0,10.62-17.84c0-10.88-8.54-19.85-19-19.94-22.07-.19-55,1-77.54,32.72a89.49,89.49,0,0,0-13.73,30.6c-4.29,17.41-10.53,50.66-2,71.41A13.87,13.87,0,0,0,251.22,167.81Z" />
    <path
        d="M125.2,128.05c34.63,11.66,57.3,11.06,68.75,12.17a10.89,10.89,0,0,0,11.89-11.47c-1.21-21.65-10.08-66.34-61.23-82.41-37.05-11.64-64.16-4.25-79,2.7A16.71,16.71,0,0,0,57.5,71.19C65,87.56,83.23,113.91,125.2,128.05Z" />
</svg>
