<svg xmlns="http://www.w3.org/2000/svg" viewBox="0 0 512 512" x="0px" y="0px">
    <title>Reload</title>
    <path
        d="M302.32,287.62A12.82,12.82,0,0,0,320,288l20.38-18.61a13.63,13.63,0,0,0,.45-19.71l-39.28-39.28L262.3,171.14a13.63,13.63,0,0,0-19.71.45L224,192a12.82,12.82,0,0,0,.4,17.71Z" />
    <path
        d="M60.41,451.59l27,27a16.84,16.84,0,0,0,23.28.53L285.46,319.58a13.15,13.15,0,0,0,.43-19l-74.46-74.46a13.16,13.16,0,0,0-19,.43L32.87,401.3a16.85,16.85,0,0,0,.53,23.28Z" />
    <path
        d="M282.88,163.3l8.52,8.52a4.9,4.9,0,0,0,7.07-.14l41.18-44.5a14.54,14.54,0,0,1,6.25-4l37.74-12.1a12.53,12.53,0,0,0,6.49-4.82l27.46-39.72a6.57,6.57,0,0,0-5.51-10.3l-12.34.2A10.12,10.12,0,0,1,389.48,47l-.76-12.32A6.56,6.56,0,0,0,378,29.94L340.55,60.39a12.52,12.52,0,0,0-4.3,6.85l-9.15,38.55a14.54,14.54,0,0,1-3.49,6.55L282.75,156.5A4.91,4.91,0,0,0,282.88,163.3Z" />
    <path
        d="M355.5,229.25l44.16-40.86a14.54,14.54,0,0,1,6.55-3.49l38.55-9.15a12.52,12.52,0,0,0,6.85-4.3L482.06,134a6.56,6.56,0,0,0-4.69-10.69l-12.32-.76a10.12,10.12,0,0,1-9.5-10.26l.2-12.34a6.57,6.57,0,0,0-10.3-5.51l-39.72,27.46a12.53,12.53,0,0,0-4.82,6.49l-12.1,37.74a14.54,14.54,0,0,1-4,6.25l-44.5,41.18a4.9,4.9,0,0,0-.14,7.07l8.52,8.52A4.91,4.91,0,0,0,355.5,229.25Z" />
</svg>
