<svg xmlns="http://www.w3.org/2000/svg" version="1.1" viewBox="-5.0 -10.0 110.0 135.0">
 <path d="m91.93 12.871c2.2656-0.125 4.0234-2.0273 3.9688-4.2969-0.050782-2.2656-1.8984-4.082-4.1641-4.1016-2.125 0-3.8672 1.6562-4.0547 3.8516-0.046876 0.50781-0.46875 0.89453-0.97656 0.89453h-7.3242c-0.51953 0-0.94922-0.41016-0.97656-0.92969-0.09375-2.2305-1.9258-3.9883-4.1602-3.9883-2.2305 0-4.0625 1.7578-4.1602 3.9883-0.023437 0.51953-0.45312 0.92969-0.97656 0.92969h-6.2188c-0.52344 0-0.95312-0.41016-0.97656-0.92969-0.09375-2.2305-1.9297-3.9922-4.1602-3.9922-2.2344 0-4.0703 1.7617-4.1602 3.9922-0.023438 0.51953-0.45703 0.92969-0.97656 0.92969h-6.2227c-0.51953 0-0.94922-0.41016-0.97656-0.92969-0.09375-2.2305-1.9258-3.9883-4.1562-3.9883-2.2344 0-4.0664 1.7578-4.1641 3.9883-0.023438 0.51953-0.45312 0.92969-0.97656 0.92969h-6.2188c-0.52344 0-0.95313-0.41016-0.97656-0.92969-0.089844-2.2344-1.9258-4-4.1602-4-2.2383 0-4.0742 1.7656-4.1602 4-0.023437 0.51953-0.45312 0.92969-0.97656 0.92969h-6.2227c-0.53906 0-0.97656-0.4375-0.97656-0.97656 0.007813-1.1016-0.42578-2.1641-1.2109-2.9414-0.78125-0.78125-1.8438-1.2109-2.9492-1.1992-2.2656 0.019532-4.1094 1.8359-4.1641 4.1016-0.050781 2.2656 1.7031 4.168 3.9688 4.293 0.51953 0.023437 0.92969 0.45312 0.92969 0.97656v6.2617c0 0.52344-0.41016 0.95312-0.92969 0.97656-2.2266 0.125-3.9688 1.9648-3.9688 4.1953s1.7422 4.0742 3.9688 4.1953c0.51953 0.027344 0.92969 0.45703 0.92969 0.97656v6.2656c0 0.51953-0.41016 0.94922-0.92969 0.97656-2.2266 0.12109-3.9688 1.9648-3.9688 4.1953s1.7422 4.0703 3.9688 4.1953c0.51953 0.023437 0.92969 0.45312 0.92969 0.97266v6.2656c0 0.51953-0.41016 0.94922-0.92969 0.97266v0.003906c-2.2266 0.12109-3.9688 1.9648-3.9688 4.1953 0 2.2266 1.7422 4.0703 3.9688 4.1953v-0.003906c0.51953 0.027344 0.92969 0.45703 0.92969 0.97656v6.2617c0 0.51953-0.41016 0.94922-0.92969 0.97656-2.2266 0.125-3.9688 1.9648-3.9688 4.1953 0 2.2266 1.7422 4.0703 3.9688 4.1953 0.51953 0.023437 0.92969 0.45312 0.92969 0.97266v6.2656c0 0.51953-0.41016 0.94922-0.92969 0.97656-2.2656 0.125-4.0195 2.0234-3.9688 4.293 0.054688 2.2656 1.8984 4.082 4.1641 4.1016 2.125 0 3.8672-1.6562 4.0547-3.8516 0.046876-0.50781 0.46875-0.89453 0.97656-0.89453h7.3242c0.51953 0 0.94922 0.41016 0.97656 0.92969 0.09375 2.2305 1.9258 3.9883 4.1602 3.9883 2.2305 0 4.0625-1.7578 4.1602-3.9883 0.023437-0.51953 0.45312-0.92969 0.97656-0.92969h6.2227-0.003907c0.52344 0 0.95312 0.41016 0.97656 0.92969 0.09375 2.2344 1.9258 3.9922 4.1602 3.9922s4.0703-1.7578 4.1602-3.9922c0.023438-0.51953 0.45312-0.92969 0.97656-0.92969h6.2227c0.51953 0 0.94922 0.41016 0.97656 0.92969 0.09375 2.2305 1.9258 3.9883 4.1602 3.9883 2.2305 0 4.0625-1.7578 4.1602-3.9883 0.023438-0.51953 0.45312-0.92969 0.97656-0.92969h6.2227-0.003907c0.52344 0 0.95313 0.41016 0.97656 0.92969 0.09375 2.2305 1.9297 3.9883 4.1602 3.9883 2.2344 0 4.0664-1.7578 4.1602-3.9883 0.027343-0.51953 0.45703-0.92969 0.97656-0.92969h6.2227c0.53906 0 0.97656 0.4375 0.97656 0.97656-0.007813 1.1016 0.42969 2.1641 1.2109 2.9453 0.78125 0.77734 1.8438 1.2109 2.9492 1.1953 2.2695-0.015626 4.1133-1.832 4.168-4.1016 0.054687-2.2695-1.7031-4.168-3.9688-4.293-0.52344-0.023437-0.92969-0.45312-0.92969-0.97656v-6.2656 0.003906c0-0.52344 0.40625-0.95312 0.92969-0.97656 2.2266-0.125 3.9648-1.9648 3.9648-4.1953s-1.7383-4.0703-3.9648-4.1953c-0.52344-0.023438-0.93359-0.45313-0.93359-0.97656v-6.2617c0-0.52344 0.41016-0.95312 0.92969-0.97656 2.2266-0.125 3.9688-1.9648 3.9688-4.1953s-1.7422-4.0703-3.9688-4.1953c-0.51953-0.023438-0.92969-0.45312-0.92969-0.97656v-6.2617c0-0.52344 0.41016-0.95313 0.92969-0.97656 2.2266-0.12109 3.9688-1.9648 3.9688-4.1953 0-2.2305-1.7422-4.0703-3.9688-4.1953-0.51953-0.023438-0.92969-0.45312-0.92969-0.97656v-6.2617c0-0.52344 0.41016-0.94922 0.92969-0.97656 2.2266-0.12109 3.9688-1.9648 3.9688-4.1953 0-2.2305-1.7422-4.0703-3.9688-4.1953-0.51953-0.023437-0.92969-0.45312-0.92969-0.97266v-6.2656c0-0.51953 0.41016-0.94922 0.92969-0.97266zm-6.7891 68.668c-0.003906 2.1133-1.7148 3.8281-3.832 3.832h-62.617c-2.1172-0.003906-3.8281-1.7188-3.832-3.832v-63.078c0.003906-2.1133 1.7148-3.8281 3.832-3.832h62.617c2.1172 0.003906 3.8281 1.7188 3.832 3.832z"/>
<text x="0.0" y="117.5" font-size="5.0" font-weight="bold" font-family="Arbeit Regular, Helvetica, Arial-Unicode, Arial, Sans-serif" fill="#000000">Created by Icongeek26</text><text x="0.0" y="122.5" font-size="5.0" font-weight="bold" font-family="Arbeit Regular, Helvetica, Arial-Unicode, Arial, Sans-serif" fill="#000000">from Noun Project</text></svg>