<svg xmlns="http://www.w3.org/2000/svg" version="1.1" viewBox="-5.0 -10.0 110.0 135.0">
 <path d="m93.297 50.234c2.2188-2.25 3.4961-5.5664 3.6172-9.4531 0.16016-5.2148-1.793-10.68-4.8672-13.602-1.7695-1.6797-1.9453-4.168-0.51953-7.3945 1.4922-3.3398 0.67969-7.2617-2.0156-9.7383l-0.19531-0.17969c-2.707-2.4375-6.6641-2.8945-9.8516-1.1328-3.0703 1.6758-5.4297 0.24219-10.934-3.4492-0.65234-0.4375-1.3398-0.89844-2.0664-1.3789-3.8984-2.5703-8.1836-2.6094-12.391-0.11328v0.003906c-1.5234 0.92188-2.9141 2.0508-4.1289 3.3516-1.1953-1.3008-2.5664-2.4297-4.0742-3.3516-4.168-2.5-8.4336-2.4609-12.336 0.10938-0.72656 0.48047-1.418 0.9375-2.0664 1.3789-5.5039 3.6914-7.8594 5.1211-10.934 3.4492-3.1875-1.7617-7.1406-1.3047-9.8477 1.1328l-0.19922 0.17969c-2.6953 2.4766-3.5078 6.3984-2.0156 9.7422 1.4219 3.2266 1.25 5.7109-0.51953 7.3945-3.0703 2.918-5.0273 8.3828-4.8672 13.598 0.12109 3.8867 1.3945 7.1992 3.6133 9.4531-2.2188 2.2383-3.4961 5.4961-3.6172 9.2891-0.15625 5.0664 1.8008 10.43 4.8711 13.348 1.7695 1.6797 1.9453 4.168 0.51953 7.3945-1.4922 3.3438-0.67969 7.2656 2.0156 9.7422l0.19531 0.17969h0.003906c2.7031 2.4375 6.6602 2.8906 9.8477 1.1328 3.0703-1.6719 5.4297-0.24219 10.934 3.4492 0.65234 0.4375 1.3398 0.89844 2.0664 1.3789 1.9297 1.2695 3.9453 1.9062 5.9961 1.9062 2.1094 0 4.2578-0.67188 6.3789-2.0195v-0.003906c1.5039-0.97656 2.8711-2.1523 4.0586-3.5 1.1992 1.3477 2.5742 2.5273 4.0898 3.5 4.2031 2.6523 8.4922 2.6914 12.406 0.11328 0.72656-0.48047 1.4141-0.94141 2.0664-1.3789 5.5039-3.6914 7.8594-5.1211 10.934-3.4492v0.003906c3.1875 1.7578 7.1406 1.3047 9.8477-1.1328l0.19531-0.17969 0.003907-0.003906c2.6953-2.4727 3.5078-6.3945 2.0156-9.7383-1.4258-3.2266-1.25-5.7109 0.51953-7.3945 3.0703-2.918 5.0234-8.2812 4.8672-13.348-0.12109-3.793-1.3984-7.0508-3.6172-9.2891zm-43.516-40.117c1.0742 0 2.043 0.64453 2.457 1.6367 0.41016 0.99219 0.18359 2.1328-0.57422 2.8945-0.76172 0.75781-1.9023 0.98828-2.8945 0.57422-0.99219-0.41016-1.6406-1.3789-1.6406-2.4492 0.003906-1.4648 1.1875-2.6562 2.6523-2.6562zm0 79.398c-1.0703 0-2.0391-0.64453-2.4531-1.6367-0.41016-0.99219-0.18359-2.1328 0.57812-2.8945 0.75781-0.75781 1.8984-0.98438 2.8906-0.57422s1.6406 1.3789 1.6406 2.4531c-0.003906 1.4648-1.1875 2.6523-2.6562 2.6523zm40.652-18.344c-2.5273 2.4023-2.8906 5.875-1.0469 10.039h-0.003907c1.0859 2.4219 0.5 5.2656-1.4531 7.0625l-0.19922 0.17969h0.003906c-1.9688 1.7656-4.8398 2.0898-7.1484 0.80469-4.4414-2.4219-7.9883-0.042968-13.359 3.5586-0.64844 0.43359-1.3281 0.89062-2.0508 1.3672-3.1133 2.0508-6.4141 2.0156-9.8125-0.10547l-0.003906 0.003906c-1.2188-0.78125-2.332-1.707-3.3203-2.7656 2.0859-1.0586 3.1602-3.4219 2.582-5.6875-0.57422-2.2656-2.6484-3.8281-4.9844-3.7617-2.3398 0.066406-4.3164 1.75-4.7617 4.0469-0.44141 2.2969 0.76562 4.5938 2.9102 5.5273-0.93359 0.99219-1.9844 1.8672-3.1289 2.6094-3.3906 2.1523-6.6992 2.1992-9.8281 0.13672-0.72266-0.47656-1.4062-0.93359-2.0508-1.3672-3.8555-2.5859-6.7734-4.543-9.7578-4.543h-0.003906c-1.2656 0.015625-2.5039 0.35156-3.6016 0.98438-2.3125 1.2812-5.1797 0.95703-7.1484-0.80859l-0.19531-0.17969c-1.9531-1.7969-2.5391-4.6406-1.4531-7.0625 1.8398-4.168 1.4766-7.6367-1.0469-10.039-2.6172-2.4844-4.2812-7.1367-4.1406-11.574 0.10937-3.5117 1.3555-6.4336 3.5-8.2305 0.33594-0.28125 0.52734-0.69531 0.52734-1.1289 0-0.4375-0.19141-0.85156-0.52344-1.1328-2.1445-1.8008-3.3906-4.7812-3.5039-8.3984-0.14063-4.5156 1.5625-9.3828 4.1367-11.828 2.5273-2.4023 2.8906-5.875 1.0469-10.039h0.003907c-1.0859-2.4219-0.5-5.2656 1.4531-7.0625l0.19922-0.17969h-0.003906c1.9688-1.7656 4.8398-2.0898 7.1484-0.80469 4.4414 2.4219 7.9883 0.042969 13.359-3.5586 0.64844-0.43359 1.3281-0.89062 2.0508-1.3672 3.125-2.0586 6.4141-2.0898 9.7852-0.089844h0.003906c1.1289 0.68359 2.1758 1.5039 3.1094 2.4453-2.125 0.96094-3.3008 3.2617-2.8359 5.5469 0.46094 2.2812 2.4414 3.9414 4.7734 4 2.3281 0.058594 4.3906-1.5039 4.9648-3.7617 0.57422-2.2578-0.48438-4.6133-2.5586-5.6797 0.96094-0.96484 2.0352-1.8125 3.2031-2.5156 3.4297-2.0352 6.7617-2.0156 9.9062 0.054688 0.72266 0.47656 1.4062 0.93359 2.0508 1.3672 3.8555 2.5859 6.7734 4.543 9.7578 4.543v-0.003906c1.2617-0.015626 2.5039-0.35156 3.6016-0.98047 2.3086-1.2852 5.1797-0.96094 7.1484 0.80469l0.19531 0.17969c1.9531 1.7969 2.5391 4.6406 1.4531 7.0625-1.8398 4.168-1.4766 7.6367 1.0469 10.039 2.5781 2.4492 4.2773 7.3125 4.1367 11.828-0.11328 3.6133-1.3555 6.5977-3.5039 8.3984h0.003906c-0.33203 0.28125-0.52344 0.69531-0.52344 1.1289 0 0.4375 0.19141 0.85156 0.52734 1.1328 2.1484 1.7969 3.3906 4.7188 3.5 8.2305 0.14063 4.4375-1.5234 9.0898-4.1367 11.574z"/>
 <path d="m82.992 76.258v-53.172c0-2.4102-1.957-4.3633-4.3672-4.3672h-57.25c-2.4102 0.003906-4.3672 1.957-4.3672 4.3672v53.172c0 2.4102 1.957 4.3672 4.3672 4.3672h57.25c2.4102 0 4.3672-1.957 4.3672-4.3672zm-2.3438 0c0 1.1172-0.90625 2.0234-2.0234 2.0234h-57.25c-1.1172 0-2.0234-0.90625-2.0234-2.0234v-53.172c0-1.1172 0.90625-2.0234 2.0234-2.0234h57.25c1.1172 0 2.0234 0.90625 2.0234 2.0234z"/>
 <path d="m15.684 20.219c1.7617 0 3.3516-1.0625 4.0273-2.6914 0.67578-1.625 0.30078-3.5-0.94531-4.75-1.2461-1.2461-3.1211-1.6172-4.75-0.94531-1.625 0.67578-2.6875 2.2656-2.6875 4.0273 0 2.4062 1.9492 4.3555 4.3555 4.3594zm0-6.3711c0.81641-0.003906 1.5508 0.48828 1.8633 1.2422 0.3125 0.75 0.14062 1.6172-0.4375 2.1953-0.57422 0.57422-1.4414 0.74609-2.1953 0.4375-0.75391-0.3125-1.2422-1.0469-1.2422-1.8633 0-1.1094 0.89844-2.0117 2.0117-2.0117z"/>
 <path d="m16.059 79.59c-1.7617 0-3.3516 1.0625-4.0273 2.6914-0.67578 1.625-0.30078 3.5 0.94531 4.7461 1.2461 1.25 3.1211 1.6211 4.75 0.94531 1.625-0.67188 2.6875-2.2617 2.6875-4.0234 0-2.4062-1.9492-4.3555-4.3555-4.3594zm0 6.3711c-0.81641 0-1.5508-0.48828-1.8633-1.2422-0.3125-0.75-0.13672-1.6172 0.4375-2.1953 0.57422-0.57422 1.4414-0.75 2.1953-0.4375s1.2422 1.0469 1.2422 1.8633c0 1.1094-0.89844 2.0117-2.0117 2.0117z"/>
 <path d="m84.309 11.316c-1.7617-0.003906-3.3516 1.0586-4.0273 2.6875s-0.30078 3.5039 0.94531 4.75c1.2461 1.2461 3.1211 1.6211 4.75 0.94531 1.625-0.67578 2.6875-2.2656 2.6875-4.0273 0-2.4062-1.9492-4.3555-4.3555-4.3555zm0 6.3711c-0.81641 0-1.5508-0.49219-1.8633-1.2422-0.3125-0.75391-0.13672-1.6211 0.4375-2.1953 0.57422-0.57812 1.4414-0.75 2.1953-0.4375s1.2422 1.0469 1.2422 1.8594c0 1.1133-0.89844 2.0117-2.0117 2.0156z"/>
 <path d="m84.684 79.777c-1.7617 0-3.3516 1.0625-4.0273 2.6914s-0.30078 3.5039 0.94531 4.75c1.2461 1.2461 3.1211 1.6172 4.75 0.94531 1.6289-0.67578 2.6875-2.2656 2.6875-4.0273 0-2.4062-1.9492-4.3555-4.3555-4.3594zm0 6.3711c-0.81641 0.003906-1.5508-0.48828-1.8633-1.2422-0.3125-0.75-0.13672-1.6172 0.4375-2.1953 0.57422-0.57422 1.4414-0.74609 2.1953-0.4375 0.75391 0.3125 1.2422 1.0469 1.2422 1.8633 0 1.1094-0.89844 2.0117-2.0117 2.0117z"/>
<text x="0.0" y="117.5" font-size="5.0" font-weight="bold" font-family="Arbeit Regular, Helvetica, Arial-Unicode, Arial, Sans-serif" fill="#000000">Created by Icongeek26</text><text x="0.0" y="122.5" font-size="5.0" font-weight="bold" font-family="Arbeit Regular, Helvetica, Arial-Unicode, Arial, Sans-serif" fill="#000000">from Noun Project</text></svg>