<svg xmlns="http://www.w3.org/2000/svg" version="1.1" viewBox="-5.0 -10.0 110.0 135.0">
 <path d="m10.398 95h79.203v-90h-79.203zm7.2969-1.4609h-2.1875v-2.6172l2.1875-2.1875zm3.6484 0h-2.1875v-2.1875h2.1875zm59.496 0h-2.1875v-2.1875h2.1875zm3.6484 0h-2.1875v-4.8047l2.1875 2.1875zm3.6484 0h-2.1836v-2.1875h2.1875zm0-3.6484h-2.6133l-2.1875-2.1875h4.8047zm0-3.6484h-2.1836v-2.1875h2.1875zm0-70.297h-2.1836v-2.1875h2.1875zm-2.1836-9.4844h2.1875v2.1875h-2.1875zm2.1875 3.6484v2.1875h-4.8047l2.1875-2.1875zm-5.8398-3.6484h2.1875l0.003907 2.6133-2.1875 2.1875zm-3.6484 0h2.1875l0.003906 2.1875h-2.1914zm-59.496 0h2.1875l0.003906 2.1875h-2.1914zm-3.6484 0h2.1875v4.8047l-2.1875-2.1914zm-3.6484 0h2.1875v2.1875h-2.1875zm0 3.6484h2.6172l2.1875 2.1875h-4.8047zm0 3.6484h2.1875v2.1875h-2.1875zm0 3.6484h3.6484v-3.6484h3.6484v-3.6484h3.6484v-3.6484h54.391v3.6484h3.6484v3.6484h3.6484v3.6484h3.6484v65.188h-3.6484v3.6484h-3.6484v3.6484h-3.6484v3.6484h-54.391v-3.6484h-3.6484v-3.6484h-3.6484v-3.6484h-3.6484zm0 66.648h2.1875v2.1875h-2.1875zm0 3.6484h4.8047l-2.1875 2.1875h-2.6172zm0 3.6484h2.1875v2.1875h-2.1875z"/>
<text x="0.0" y="117.5" font-size="5.0" font-weight="bold" font-family="Arbeit Regular, Helvetica, Arial-Unicode, Arial, Sans-serif" fill="#000000">Created by Kim Sun Young</text><text x="0.0" y="122.5" font-size="5.0" font-weight="bold" font-family="Arbeit Regular, Helvetica, Arial-Unicode, Arial, Sans-serif" fill="#000000">from Noun Project</text></svg>