<svg xmlns="http://www.w3.org/2000/svg" version="1.1" viewBox="-5.0 -10.0 110.0 135.0">
 <path d="m92.422 42.859c-0.003906-2.4531-1.6914-4.582-4.0781-5.1484v-4.0352c1.5938-0.42578 2.8945-1.5742 3.5195-3.0977s0.5-3.2539-0.33203-4.6758-2.2812-2.3711-3.918-2.5742c-1.6328-0.19922-3.2695 0.375-4.4219 1.5547l-2.8516-1.6484h0.003906c0.5625-2.2812-0.44531-4.6562-2.4805-5.832-2.0312-1.1797-4.5977-0.86719-6.2891 0.75781l-3.5781-2.0703c0.80078-2.3906-0.19531-5.0156-2.3828-6.2734-2.1719-1.2461-4.9219-0.78906-6.5781 1.0898l-3.9453-2.2852c0.43359-1.5859 0.10156-3.2812-0.89453-4.5859-1-1.3047-2.5469-2.0703-4.1875-2.0742-1.6445 0-3.1953 0.76172-4.1953 2.0664-0.99609 1.3008-1.332 2.9961-0.90625 4.582l-4.0234 2.332c-1.6758-1.8281-4.3945-2.2461-6.5391-1.0039-2.1445 1.2383-3.1367 3.8047-2.3867 6.1641l-3.5391 2.0508c-1.6797-1.7773-4.3633-2.168-6.4766-0.94141-2.1172 1.2227-3.1172 3.7422-2.4141 6.0859l-2.7266 1.5781h-0.003906c-1.1484-1.1719-2.7812-1.7383-4.4102-1.5352-1.6289 0.19922-3.0703 1.1484-3.9023 2.5664-0.83203 1.4141-0.95703 3.1367-0.33984 4.6562 0.61719 1.5234 1.9062 2.6719 3.4883 3.1055v4.0508c-2.3789 0.57031-4.0547 2.6953-4.0547 5.1406 0 2.4414 1.6758 4.5664 4.0547 5.1367v4.0078c-2.3789 0.57031-4.0547 2.6953-4.0547 5.1367 0 2.4453 1.6758 4.5703 4.0547 5.1406v4.0508c-1.5781 0.42969-2.8672 1.5664-3.4922 3.082-0.625 1.5117-0.51172 3.2266 0.30469 4.6445 0.81641 1.418 2.2422 2.3789 3.8633 2.6016s3.2539-0.31641 4.418-1.4648l2.8984 1.6758c-0.69141 2.3359 0.30859 4.8438 2.418 6.0625 2.1055 1.2227 4.7773 0.83594 6.457-0.92578l3.375 1.9531v-0.003907c-0.88281 2.4219 0.10156 5.1211 2.332 6.4062 2.2188 1.2734 5.0312 0.76953 6.668-1.1953l4.0039 2.3164c-0.39062 1.5781-0.035156 3.2461 0.96484 4.5234 1.0039 1.2773 2.5391 2.0273 4.1602 2.0234 1.625 0 3.1562-0.75 4.1562-2.0312s1.3516-2.9531 0.95703-4.5273l3.9531-2.2891c1.7148 1.9336 4.5781 2.3359 6.7578 0.95312 2.043-1.3047 2.9414-3.8242 2.1875-6.1289l3.3984-1.9688v0.003907c1.7344 1.8203 4.5156 2.168 6.6406 0.82031 1.9961-1.2656 2.9102-3.6953 2.2422-5.9609l2.9648-1.7148c1.168 1.1445 2.8008 1.6875 4.4219 1.4648s3.0469-1.1875 3.8594-2.6055 0.92188-3.1367 0.29688-4.6484c-0.625-1.5117-1.918-2.6484-3.4961-3.0742v-4.0352c2.3867-0.5625 4.0781-2.6953 4.0781-5.1484s-1.6914-4.582-4.0781-5.1445v-3.9922c2.3867-0.56641 4.0742-2.6953 4.0781-5.1445zm-5.2578 11.344c1.625 0 2.9414 1.3164 2.9414 2.9375 0 1.625-1.3164 2.9414-2.9414 2.9414-0.64062 0.003907-1.1641 0.52734-1.1641 1.1719v6.0664c0 0.625 0.49219 1.1367 1.1133 1.168 1.0234 0.050781 1.9453 0.625 2.4414 1.5234 0.49219 0.89844 0.48047 1.9844-0.027344 2.875-0.50781 0.88672-1.4414 1.4492-2.4648 1.4766-1.0234 0.03125-1.9883-0.47266-2.5469-1.3281-0.33984-0.52344-1.0312-0.68359-1.5703-0.375l-4.707 2.7266c-0.55469 0.32031-0.74609 1.0234-0.4375 1.582 0.75781 1.3633 0.32031 3.0781-0.99609 3.9141-0.65625 0.41797-1.4531 0.55469-2.2109 0.38281s-1.4141-0.63672-1.8281-1.293l-0.035156-0.058594v-0.003906c-0.32812-0.55078-1.0391-0.73438-1.5938-0.41406l-5.2109 3.0156c-0.27344 0.15625-0.47266 0.41797-0.55078 0.72656-0.078125 0.30469-0.027344 0.62891 0.13672 0.89844 0.83203 1.3711 0.41797 3.1562-0.93359 4.0195-0.65625 0.41797-1.4531 0.55469-2.2109 0.38281-0.75781-0.17187-1.418-0.63672-1.832-1.2969-0.035156-0.054688-0.066406-0.10938-0.097656-0.16797-0.15234-0.27734-0.40625-0.48047-0.71094-0.56641-0.30469-0.085937-0.63281-0.046874-0.90625 0.11328l-5.7266 3.3125h0.003906c-0.53516 0.30859-0.73828 0.97656-0.46484 1.5312 0.44531 0.91016 0.39063 1.9805-0.14453 2.8398-0.53125 0.85937-1.4727 1.3828-2.4844 1.3867-1.0117 0-1.9531-0.51953-2.4883-1.3789-0.53516-0.85547-0.59375-1.9297-0.14844-2.8398 0.26953-0.55078 0.066406-1.2188-0.46875-1.5273l-5.8086-3.3594h0.003906c-0.28125-0.16406-0.61719-0.20313-0.92969-0.10938-0.30859 0.09375-0.56641 0.3125-0.71094 0.60547-0.027344 0.054688-0.054687 0.10547-0.082031 0.16016v-0.003907c-0.38281 0.67578-1.0234 1.1719-1.7734 1.3789-0.75 0.20312-1.5508 0.10156-2.2266-0.28516-1.4062-0.8125-1.8906-2.6055-1.0859-4.0156 0.035156-0.058594 0.070313-0.11328 0.10547-0.17188v0.003907c0.17969-0.26953 0.23828-0.60156 0.16406-0.91797-0.070313-0.31641-0.27344-0.58594-0.55078-0.74609l-5.2148-3.0156v-0.003906c-0.55469-0.32031-1.2656-0.13672-1.5938 0.41406-0.82422 1.375-2.5977 1.832-3.9844 1.0273-1.3867-0.80078-1.8711-2.5703-1.0859-3.9688 0.30859-0.55859 0.11328-1.2617-0.44141-1.582l-4.6367-2.6836c-0.53906-0.3125-1.2266-0.14844-1.5664 0.37109-0.5625 0.84766-1.5234 1.3438-2.5391 1.3086-1.0195-0.03125-1.9453-0.58594-2.4531-1.4688-0.50391-0.88281-0.51953-1.9648-0.035156-2.8594 0.48438-0.89453 1.3984-1.4727 2.4141-1.5312 0.62109-0.035157 1.1094-0.54688 1.1094-1.1719v-6.0664c0-0.64453-0.51562-1.1641-1.1602-1.1719-1.6211 0-2.9375-1.3164-2.9375-2.9414 0-1.6211 1.3164-2.9375 2.9375-2.9375 0.64453-0.007813 1.1602-0.53125 1.1602-1.1719v-6.0625c0-0.64062-0.51562-1.1641-1.1602-1.1719-1.6055-0.023437-2.8984-1.332-2.8984-2.9375 0-1.6094 1.293-2.918 2.8984-2.9414 0.64453-0.007813 1.1602-0.52734 1.1602-1.1719v-6.0664c0-0.62109-0.48828-1.1367-1.1094-1.1719-1.0273-0.050781-1.9492-0.63672-2.4336-1.543-0.48828-0.90625-0.46484-2 0.054687-2.8828 0.52344-0.88672 1.4688-1.4336 2.4961-1.4492 1.0273-0.011718 1.9883 0.51172 2.5312 1.3828 0.33594 0.53516 1.0352 0.71094 1.582 0.39453l4.4961-2.6016c0.55469-0.32031 0.74609-1.0273 0.43359-1.5859-0.76562-1.3633-0.33203-3.0898 0.99219-3.9258 0.65625-0.41797 1.4492-0.55469 2.207-0.38281 0.75781 0.17188 1.418 0.63672 1.832 1.293l0.046875 0.078125c0.32812 0.55078 1.0391 0.73438 1.5898 0.41406l5.3438-3.0898c0.26953-0.16016 0.46875-0.41406 0.54688-0.71875 0.078124-0.30078 0.035156-0.62109-0.125-0.89062-0.82031-1.3789-0.38281-3.1641 0.98828-4.0039 1.3711-0.83984 3.1602-0.41797 4.0156 0.94141 0.023437 0.039062 0.050781 0.082031 0.074218 0.12109 0.15234 0.27344 0.41016 0.47266 0.71094 0.55469s0.625 0.039063 0.89453-0.11719l5.7969-3.3555c0.54297-0.3125 0.74219-0.99609 0.45703-1.5508-0.47266-0.91016-0.43359-2 0.097656-2.875 0.53516-0.87109 1.4844-1.4062 2.5078-1.4062 1.0234 0.003906 1.9727 0.53906 2.5039 1.4141s0.56641 1.9648 0.089844 2.875c-0.28906 0.55469-0.089844 1.2422 0.45312 1.5547l5.7422 3.3203c0.27734 0.16016 0.60547 0.20312 0.91016 0.11328 0.30469-0.085938 0.5625-0.29297 0.71094-0.57422l0.039063-0.070313c0.38281-0.67578 1.0234-1.1719 1.7734-1.375 0.75-0.20703 1.5508-0.10547 2.2266 0.28125 1.4062 0.8125 1.8906 2.6055 1.0859 4.0156-0.011718 0.023438-0.027343 0.046875-0.039062 0.066407l-0.011719 0.023437h-0.003906c-0.16406 0.26953-0.21484 0.59375-0.13672 0.90234 0.074219 0.30469 0.27344 0.57031 0.54688 0.72656l5.3477 3.0938c0.53125 0.30859 1.2109 0.15234 1.5586-0.35547 0.86328-1.2695 2.5625-1.6562 3.8906-0.88672 1.332 0.76953 1.8398 2.4375 1.168 3.8164-0.26562 0.55469-0.0625 1.2188 0.46875 1.5234l4.5703 2.6445c0.54687 0.31641 1.2461 0.14062 1.582-0.39453 0.54297-0.87109 1.5-1.3906 2.5273-1.3789 1.0234 0.015625 1.9688 0.5625 2.4883 1.4492 0.51953 0.88281 0.53906 1.9766 0.054687 2.8789-0.48828 0.90234-1.4102 1.4844-2.4336 1.5391-0.625 0.027343-1.1133 0.54297-1.1133 1.168v6.0664c0 0.64453 0.51953 1.168 1.1641 1.1719 1.6094 0.019531 2.9062 1.3281 2.9062 2.9414 0 1.6094-1.2969 2.918-2.9062 2.9375-0.64453 0.003906-1.1641 0.52734-1.1641 1.1719v6.0625c0 0.64453 0.51953 1.168 1.1602 1.1719z"/>
 <path d="m78.484 31.266-26.527-15.352c-1.2109-0.69531-2.7031-0.69531-3.9141 0l-26.527 15.352c-1.2031 0.69922-1.9492 1.9883-1.9492 3.3789v30.711c0 1.3906 0.74609 2.6797 1.9492 3.3789l26.527 15.352c1.2109 0.69531 2.7031 0.69531 3.9141 0l26.527-15.348v-0.003906c1.2031-0.69922 1.9492-1.9883 1.9492-3.3789v-30.711c0-1.3906-0.74609-2.6797-1.9492-3.3789zm-0.39453 34.09c0 0.55469-0.29688 1.0703-0.78125 1.3516l-26.527 15.348c-0.48438 0.28125-1.0781 0.28125-1.5625 0l-26.527-15.348c-0.48438-0.28125-0.78125-0.79688-0.78125-1.3516v-30.711c0-0.55469 0.29688-1.0703 0.78125-1.3516l26.527-15.348c0.48438-0.28125 1.0781-0.28125 1.5625 0l26.527 15.348c0.48438 0.28125 0.78125 0.79688 0.78125 1.3516z"/>
<text x="0.0" y="117.5" font-size="5.0" font-weight="bold" font-family="Arbeit Regular, Helvetica, Arial-Unicode, Arial, Sans-serif" fill="#000000">Created by Icongeek26</text><text x="0.0" y="122.5" font-size="5.0" font-weight="bold" font-family="Arbeit Regular, Helvetica, Arial-Unicode, Arial, Sans-serif" fill="#000000">from Noun Project</text></svg>