<svg xmlns="http://www.w3.org/2000/svg" version="1.1" viewBox="-5.0 -10.0 110.0 135.0">
 <path d="m84.723 8.4141h-1.9531v-3.4141h-1.4609v3.4141h-1.957v-3.4141h-58.703v3.4141h-1.957v-3.4141h-1.4609v3.4141h-1.9531v-3.4141h-4.8789v4.875h3.4141v1.957h-3.4141v1.4609h3.4141v1.957h-3.4141v69.5h3.4141v1.957h-3.4141v1.4609h3.4141v1.957h-3.4141v4.875h4.875l0.003906-3.418h1.957l-0.003906 3.418h1.4609v-3.418h1.957v3.418h58.703v-3.418h1.957v3.418h1.4609v-3.418h1.957l-0.003906 3.418h4.8789v-4.875h-3.418v-1.957h3.418v-1.4609h-3.418v-1.957h3.418v-69.5h-3.418v-1.957h3.418v-1.4609h-3.418v-1.957h3.418v-4.875h-4.8789zm-70.906 85.125h-1.957v-1.957h1.957zm72.367-87.078h1.957v1.9531h-1.957zm-3.418 3.418h1.957v1.957l-1.9531-0.003907zm-3.418 0h1.957v3.418h3.418v1.957l-5.3711-0.003906zm-64.074 0h1.957v1.957l-1.9531-0.003907zm0 3.418h3.418v-3.4219h1.957v5.3711l-5.3711 0.003906zm-3.4141-4.8828v-1.9531h1.957v1.9531zm5.3711 81.707-1.9531 0.003906v-1.957h1.957zm3.418 0-1.957 0.003906v-3.4141h-3.418l0.003906-1.9609h5.3711zm64.074 0-1.9531 0.003906v-1.957h1.957zm0-3.418-3.4141 0.003906v3.418h-1.957v-5.375h5.3711zm3.4141 4.875v1.957l-1.9531 0.003906v-1.957zm-1.9531-74.871h1.957v66.586h-1.957v-8.5781h-1.4609v8.5781h-6.832v6.832h-8.5742v1.4609h8.5742v1.957l-55.781-0.003907v-1.957h8.5742v-1.457h-8.5742v-6.832h-6.832v-8.5742l-1.4609-0.003906v8.5742l-1.957 0.003907v-66.586h1.957v8.5781h1.4609v-8.5781h6.832v-6.832h8.5742v-1.4609h-8.5742v-1.9531h55.781v1.9531h-8.5742v1.4609h8.5781v6.832h6.832v8.5742l1.457 0.003906z"/>
<text x="0.0" y="117.5" font-size="5.0" font-weight="bold" font-family="Arbeit Regular, Helvetica, Arial-Unicode, Arial, Sans-serif" fill="#000000">Created by Kim Sun Young</text><text x="0.0" y="122.5" font-size="5.0" font-weight="bold" font-family="Arbeit Regular, Helvetica, Arial-Unicode, Arial, Sans-serif" fill="#000000">from Noun Project</text></svg>