<svg xmlns="http://www.w3.org/2000/svg" version="1.1" viewBox="-5.0 -10.0 110.0 135.0">
 <path d="m10.398 95h79.203v-90h-79.203zm3.9414-7.168v-0.57422c1.9531 0.31641 3.4883 1.8477 3.8047 3.8008h-0.57812c-0.69922-1.3945-1.832-2.5234-3.2266-3.2266zm1.543 3.2266h-1.543v-1.543c0.60938 0.41406 1.1328 0.9375 1.543 1.543zm66.551 0h-0.57812c0.31641-1.9531 1.8516-3.4844 3.8047-3.8008v0.57813-0.003907c-1.3945 0.70312-2.5273 1.832-3.2266 3.2266zm3.2266-1.543v1.543h-1.543c0.41016-0.60547 0.93359-1.1289 1.543-1.543zm2.4805 4.0234h-4.957c0.042968-0.34375 0.11719-0.6875 0.22266-1.0195h3.7109v-3.7109c0.33594-0.10547 0.67578-0.17969 1.0234-0.22656zm0-87.082v4.9609c-0.34766-0.046875-0.6875-0.12109-1.0234-0.22656v-3.7109h-3.7109c-0.10547-0.33203-0.17969-0.67578-0.22266-1.0195zm-2.4805 2.4805v1.5469c-0.60938-0.41406-1.1328-0.9375-1.543-1.543zm0 3.2266v0.57813c-1.9531-0.31641-3.4883-1.8477-3.8047-3.8008h0.57812c0.69922 1.3945 1.832 2.5234 3.2266 3.2266zm-68.094-3.2227h0.57812c-0.31641 1.9531-1.8516 3.4844-3.8047 3.8008v-0.57813 0.003907c1.3945-0.70312 2.5273-1.832 3.2266-3.2266zm-3.2266 1.543v-1.543h1.543c-0.41016 0.60547-0.93359 1.1289-1.543 1.543zm-2.4805-4.0234h4.957c-0.042968 0.34375-0.11719 0.6875-0.22266 1.0195h-3.7109v3.7109c-0.33594 0.10547-0.67578 0.17969-1.0234 0.22656zm0 6.4297c0.34375-0.035156 0.6875-0.097656 1.0234-0.18359v13.746h1.4609l-0.003906-12.23c2.7656-0.33984 4.9414-2.5195 5.2852-5.2812h12.23v-1.4609h-13.75c0.085937-0.33594 0.14844-0.67578 0.18359-1.0195h63.422c0.035156 0.34375 0.097656 0.68359 0.18359 1.0195h-13.75v1.4609h12.23c0.34375 2.7617 2.5195 4.9414 5.2852 5.2812v12.23h1.457v-13.746c0.33594 0.085938 0.67969 0.14844 1.0234 0.18359v74.219c-0.34375 0.035156-0.6875 0.097656-1.0234 0.18359v-13.746h-1.457v12.23c-2.7656 0.33984-4.9414 2.5195-5.2852 5.2812h-12.23v1.4609h13.75c-0.085937 0.33594-0.14844 0.67578-0.18359 1.0195h-63.422c-0.035156-0.34375-0.097656-0.68359-0.18359-1.0195h13.75v-1.4609h-12.23c-0.34375-2.7617-2.5195-4.9414-5.2852-5.2812v-12.23h-1.457v13.746c-0.33594-0.085938-0.67969-0.14844-1.0234-0.18359zm0 75.695v-0.003907c0.34766 0.046875 0.6875 0.12109 1.0234 0.22656v3.7109h3.7109c0.10547 0.33203 0.17969 0.67578 0.22266 1.0195h-4.957z"/>
<text x="0.0" y="117.5" font-size="5.0" font-weight="bold" font-family="Arbeit Regular, Helvetica, Arial-Unicode, Arial, Sans-serif" fill="#000000">Created by Kim Sun Young</text><text x="0.0" y="122.5" font-size="5.0" font-weight="bold" font-family="Arbeit Regular, Helvetica, Arial-Unicode, Arial, Sans-serif" fill="#000000">from Noun Project</text></svg>