<svg xmlns="http://www.w3.org/2000/svg" version="1.1" viewBox="16 16 512 512">
    <g transform="scale(1.06)">
        <path d="M68.7,120.92c10.45,1.72,20.71-.9,26.39-10.61,4-6.8,5.82-17.29,5.47-25-.84-18.46-14.91-32.9-33.77-32.24-8.83.31-18.4,2.85-25,9-.15.14-.29.29-.43.43C29.45,70.71,24.55,87,32.71,100.33,39.91,112.12,55.61,118.76,68.7,120.92Z" />
        <path d="M313.15,47.64A9.87,9.87,0,0,0,315.68,52a9.94,9.94,0,0,0,.73,1.06,14.67,14.67,0,0,0,4.32,4.31,14.72,14.72,0,0,0,6.69,3.52,19.75,19.75,0,0,0,10.46,0l.2-.05,4.7-2,.36-.2c3.1-1.67,4.06-3,5.94-5.48a13.26,13.26,0,0,0,2.82-4.86,19.67,19.67,0,0,0,1.1-2.73c.23-1.74.46-3.47.7-5.2l0-.2c0-.14,0-.27,0-.41L353,34.59l0-.2-.07-.2-2-4.65-.26-.44A46.36,46.36,0,0,0,347.51,25a21.55,21.55,0,0,0-2.19-1.73c-2.62-2-3.34-2.67-7.12-3.77l-.39-.12-.2,0-5.14-.69h-.4l-5.13.69-.2,0-4.6,1.94a14.54,14.54,0,0,0-5.41,5,9.61,9.61,0,0,0-2.11,3.18l-.48.62-2,4.7a14.88,14.88,0,0,0-.35,7.85A9.72,9.72,0,0,0,313.15,47.64Z" />
        <path d="M445.61,196.36c10.79,2.78,22.58,1.26,30.49-7.14,8.28-8.79,9.88-21.88,7.9-33.32-4.2-24.4-31.42-45.77-55.72-32.63a28.08,28.08,0,0,0-14.48,19.62,29.23,29.23,0,0,0-.86,2.83C407.59,167.8,424.41,190.91,445.61,196.36Z" />
        <path d="M27.55,431.47c-.4,8.3,3.61,16.24,10.11,21.55a30.58,30.58,0,0,0,5.52,5.43,35.73,35.73,0,0,0,33.37,4.91,40.62,40.62,0,0,0,14.75-9,38.74,38.74,0,0,0,10.49-15.71,34.81,34.81,0,0,0-6.88-35.15c-13.35-17.63-40-19.33-55.73-3.24-7.19,7.34-12.37,18-11.92,28.35A25.63,25.63,0,0,0,27.55,431.47Z" />
        <path d="M248.71,324.14a49,49,0,0,0,13.54-.05,8.52,8.52,0,0,0,6.67-11.36,32.3,32.3,0,0,0-8.05-12.26,8.56,8.56,0,0,0-12.33.35,31.59,31.59,0,0,0-6.8,12.33A8.55,8.55,0,0,0,248.71,324.14Z" />
        <path d="M203.1,300.48l.37.22a17.37,17.37,0,0,0,23.68-6.84,62.78,62.78,0,0,0,8-36,17.33,17.33,0,0,0-25-14.11c-14.3,7.18-21.07,17.59-24,23.8a16.92,16.92,0,0,0-1.21,11.07C188.53,294.24,203.1,300.48,203.1,300.48Z" />
        <path d="M258,268.12a227.18,227.18,0,0,1,19.29,21.35,13.26,13.26,0,0,0,19.56,1.59c4.79-4.62,9.56-12.32,11.79-25.16,0,0,2.8-19.26-6.55-34.84a20.67,20.67,0,0,0-27.95-7.13,53,53,0,0,0-19.56,18.88A20.81,20.81,0,0,0,258,268.12Z" />
        <path d="M74.66,365.65a146.63,146.63,0,0,0,21.74,8A64,64,0,0,1,140,416.14c9.49,30.66,33.12,70.89,91.92,77,0,0,60.78,4.44,98.27-27.93a45.75,45.75,0,0,1,34-11.16,85,85,0,0,0,26.37-1.43,49.84,49.84,0,0,0,38.27-44.13c1-10.78.2-24.11-6.05-37.15a30.07,30.07,0,0,1,4.15-32.1c8.06-9.73,16.54-24.62,18.83-45.61,0-.15,0-.31,0-.47C449,262,424.3,234.61,393,234.51a107.4,107.4,0,0,0-17.39,1.42,9.57,9.57,0,0,1-11.08-9.48v-.19a9,9,0,0,1,3.68-7.36c.51-.36,1-.73,1.48-1.1a35.35,35.35,0,0,0,13-32c-3.46-30.28-18.35-76-72.46-108.38C265.69,50.79,209.86,49.81,165.64,77c-21.51,13.24-42.27,34.19-56.8,67.15a46.91,46.91,0,0,0,13.37,55.56l.84.66a10.17,10.17,0,0,1,4,9.33,10,10,0,0,1-11.44,8.6l-1.07-.16a75,75,0,0,0-84.28,59.07c-.07.38-.15.76-.22,1.14A79.86,79.86,0,0,0,74.66,365.65ZM378.5,298.36a14.77,14.77,0,1,1-14.77,14.77A14.76,14.76,0,0,1,378.5,298.36ZM183,123.94a15.47,15.47,0,1,1-15.47,15.47A15.47,15.47,0,0,1,183,123.94ZM160.49,238.52c11.17-23.85,28-37.88,43.93-46.12a96.25,96.25,0,0,1,83.65-2.22c31.1,14,42.31,40.38,45.9,62.49a113.16,113.16,0,0,1-2.34,46.11c-6.09,23.85-6.4,42.74-5.82,53.34a9,9,0,0,1-9,9.44h-.47a8.32,8.32,0,0,1-7.78-5.67c-.12-.35-.25-.67-.39-1-3.52-8.15-14.86-9-19.84-1.65-6.65,9.81-7.67,26.71-7.59,37.09a8.93,8.93,0,0,1-9,9h-4.11a8.94,8.94,0,0,1-8.94-9.3c1-27.78-11.17-33.61-16.35-34.84a10.2,10.2,0,0,0-3.21-.28c-7.62.71-11,10-12.45,16.69a8.93,8.93,0,0,1-8.74,7h-.79a8.93,8.93,0,0,1-8.91-8.28c-2-26.55-29.51-49.58-29.51-49.58C140.39,292.73,160.49,238.52,160.49,238.52Z" />
    </g>
</svg>
