<svg viewBox="11 4 78 92">
    <title>Aid</title>
    <path d="M17.615,67.58l-5.494,3.172a1.406,1.406,0,0,0-.536,1.859l.025.041,12.5,21.654h0l0,0a1.405,1.405,0,0,0,1.9.507v0l0,0,5.433-3.136.057-.036a1.4,1.4,0,0,0,.511-1.9h0l0,0L19.551,68.148q-.018-.027-.036-.057a1.4,1.4,0,0,0-1.9-.511Zm45.724-1.091L82.357,55.54a6.245,6.245,0,0,1,3.014-.95v0a3.142,3.142,0,0,1,2.146.816,2.912,2.912,0,0,1,.322.335,3.339,3.339,0,0,1,.734,2.107,3.037,3.037,0,0,1-.725,2.028,2.741,2.741,0,0,1-.3.289l-27.4,22.484L39.013,82.3a1.1,1.1,0,0,0-.623.179h0l-5.821,3.773L22.543,68.887c2.274-3.528,5.08-6.933,8.5-9.051a13.937,13.937,0,0,1,12.27-1.359,1.043,1.043,0,0,0,.123.041l14.714,3.943a3.988,3.988,0,0,1,2.426,1.869h0a4,4,0,0,1,.416,2.982.9.9,0,0,0-.028.1,4.011,4.011,0,0,1-4.837,2.792,1.021,1.021,0,0,0-.112-.029L44.122,66.992a1.114,1.114,0,0,0-.575,2.153l11.951,3.2h0a6.257,6.257,0,0,0,7.63-4.408v0a6.213,6.213,0,0,0,.209-1.449ZM39.2,25.217V51.461H32.438V25.217H28.432l3.694-6.4,3.693-6.4,3.694,6.4,3.694,6.4Zm42.009,0V51.461H74.448V25.217H70.442l3.693-6.4,3.694-6.4,3.694,6.4,3.693,6.4Zm-21,26.244H53.443V17.8H49.437l3.693-6.4L56.824,5l3.694,6.4,3.693,6.4H60.205Z" />
</svg>
