<svg xmlns="http://www.w3.org/2000/svg" xmlns:xlink="http://www.w3.org/1999/xlink" version="1.1" x="0px" y="0px" viewBox="0 0 90 112.5" enable-background="new 0 0 90 90" xml:space="preserve"><g><circle cx="49.244" cy="73.443" r="1.487"/><circle cx="57.049" cy="63.39" r="3.931"/><circle cx="53.118" cy="45.311" r="1.487"/><path d="M46.725,77.164c0-1.71-1.171-3.146-2.765-3.583V37.034c0.306-0.125,0.582-0.307,0.819-0.53l2.357,2.357l2.535-2.535   l-1.762-1.762l1.416-1.416c1.189,0.577,2.431,0.881,3.615,0.881c1.584,0,2.952-0.531,3.958-1.537   c0.028-0.029,0.056-0.058,0.083-0.087l0.017-0.018c0.025-0.022,0.049-0.043,0.073-0.068l10.706-10.707L56.004,9.84L45.297,20.546   c-0.025,0.025-0.048,0.051-0.071,0.077l-0.014,0.012c-0.031,0.028-0.061,0.056-0.09,0.085c-1.794,1.794-2.037,4.733-0.655,7.572   l-1.416,1.416l-1.763-1.763l-2.535,2.535l2.253,2.253c-0.451,0.478-0.729,1.121-0.729,1.83c0,1.116,0.686,2.072,1.659,2.47v36.548   c-1.594,0.436-2.765,1.873-2.765,3.582H16.946v4.027h55.367v-4.027H46.725z M48.19,36.326l-1.054,1.054l-1.743-1.743   c0.145-0.329,0.226-0.691,0.226-1.073c0-0.265-0.04-0.52-0.112-0.761l0.08-0.08L48.19,36.326z M43.572,31.97   c-0.2-0.048-0.409-0.076-0.624-0.076c-0.382,0-0.745,0.082-1.073,0.226l-1.64-1.64l1.054-1.054l2.413,2.413L43.572,31.97z    M45.753,28.488l-0.183-0.343c-1.354-2.528-1.239-5.152,0.296-6.686c0.018-0.018,0.036-0.035,0.055-0.052l0.094-0.094   c0.008-0.009,0.016-0.018,0.024-0.027l9.966-9.966l10.292,10.292l-9.965,9.965c-0.008,0.008-0.017,0.015-0.025,0.023l-0.096,0.095   c-0.018,0.02-0.036,0.039-0.054,0.057c-0.804,0.804-1.916,1.229-3.216,1.229c-1.128,0-2.328-0.323-3.469-0.935l-0.343-0.184   l-1.96,1.96l-0.841-0.841l3.239-3.24c1.955,1.433,4.244,1.674,5.469,0.449l8.829-8.829L50.106,19.9l-2.681,2.681   c-1.179,1.179-1,3.343,0.291,5.246l-3.273,3.273l-0.651-0.651L45.753,28.488z M50.952,21.938c0.327-0.327,0.858-0.327,1.185,0   c0.327,0.327,0.327,0.858,0,1.185c-0.327,0.327-0.858,0.327-1.185,0C50.625,22.796,50.625,22.265,50.952,21.938z M55.865,22.752   c0.654-0.654,1.715-0.654,2.369,0c0.654,0.654,0.654,1.715,0,2.369c-0.654,0.654-1.715,0.654-2.369,0   C55.21,24.467,55.21,23.406,55.865,22.752z"/><circle cx="34.79" cy="49.285" r="3.974"/><circle cx="35.648" cy="71.145" r="1.487"/></g><text x="0" y="105" fill="#000000" font-size="5px" font-weight="bold" font-family="'Helvetica Neue', Helvetica, Arial-Unicode, Arial, Sans-serif">Created by CHOI.D</text><text x="0" y="110" fill="#000000" font-size="5px" font-weight="bold" font-family="'Helvetica Neue', Helvetica, Arial-Unicode, Arial, Sans-serif">from the Noun Project</text></svg>