<svg xmlns="http://www.w3.org/2000/svg" version="1.1" viewBox="24 24 512 512">
    <path transform="scale(5.6)" d="M 63.797249,5.0001 15.874029,37.25258 22.597299,10.27341 4.9999987,30.1659 4.9999987,95 46.298229,94.95 23.820869,86.1227 50.218239,61.26449 27.887599,62.50803 63.797249,5 z m 18.36648,34.53871 c -3.93343,0 -7.1221,3.18877 -7.1221,7.12228 0,3.93354 3.18867,7.12226 7.1221,7.12226 3.93343,0 7.1221,-3.18872 7.1221,-7.12226 0,-3.93351 -3.18867,-7.12228 -7.1221,-7.12228 z m -19.34791,11.84577 c -0.55458,0 -1.07386,0.14622 -1.52271,0.40026 -0.32856,0.14955 -0.63631,0.3586 -0.90735,0.62963 l -7.23036,7.23053 c -1.209,1.20903 -1.209,3.15691 0,4.36594 1.20899,1.20903 3.15543,1.20903 4.36443,0 l 6.45262,-6.45276 3.25195,0 -15.07179,17.89967 -11.34409,0 c -1.70978,0 -3.08672,1.377 -3.08672,3.0868 0,1.7098 1.37694,3.08681 3.08672,3.08681 l 12.34545,0 c 0.42086,0 0.82021,-0.0838 1.18512,-0.23502 0.66375,-0.13146 1.28891,-0.48249 1.76059,-1.04275 l 6.95544,-8.26038 7.05089,7.05103 -3.22917,11.96396 c -0.44568,1.6507 0.52442,3.3377 2.1751,3.7834 1.65067,0.4457 3.33758,-0.5244 3.78326,-2.1752 l 3.6978,-13.69609 c 0.32307,-1.19659 -0.098,-2.41255 -0.98286,-3.16084 l -5.64213,-5.64225 7.69757,-9.14218 4.14649,4.14661 c 1.05661,1.05665 2.67721,1.19052 3.87585,0.40026 0.4509,-0.14573 0.87566,-0.39707 1.23498,-0.7564 l 7.23036,-7.23053 c 1.20899,-1.20903 1.20899,-3.15691 0,-4.36594 -1.209,-1.20903 -3.15544,-1.20903 -4.36443,0 l -5.60082,5.59954 -6.52385,-6.52546 c -0.47316,-0.47314 -1.06017,-0.75895 -1.67085,-0.86178 -0.24689,-0.0632 -0.50488,-0.0969 -0.77203,-0.0969 l -12.34546,0 z" style="opacity:0.98999999;color:#000000;fill:#000000;fill-opacity:1;fill-rule:nonzero;stroke:none;stroke-width:3.19927812;marker:none;visibility:visible;display:inline;overflow:visible;enable-background:accumulate" />
</svg>
