<svg viewBox="-1 -1 183 281">
    <title>Breathe Stormlight</title>
    <g transform="translate(81.04825,-77.772566)">
        <path style="fill:#000000;stroke-width:1.39061308" d="m 5.503876,347.60768 c -6.24405096,-19.97347 -6.676414,-30.42086 -3.5824834,-86.56569 1.6121192,-29.2547 -3.1996735,-41.39669 -18.2060796,-45.94101 -2.375501,-0.71936 -1.944584,-1.27533 2.953957,-3.81128 11.3277393,-5.86423 15.8379401,-15.16216 10.8258729,-22.31789 -2.0225542,-2.88761 -2.0225542,-3.55809 0,-7.8203 2.60817922,-5.49633 2.79567693,-7.71812 0.6513384,-7.71812 -1.0147069,0 -0.8930604,-0.80904 0.3476223,-2.31207 1.47856324,-1.79117 1.51942697,-2.44303 0.1813802,-2.8934 -1.2902093,-0.4343 -1.347966,-1.28987 -0.2283153,-3.38198 1.34881669,-2.5203 1.17370747,-2.70134 -1.7493757,-1.80859 -3.0763866,0.93956 -3.0321479,0.76259 0.8361233,-3.34494 4.6848584,-4.97464 6.9946406,-5.57987 5.942675,-1.55715 -0.3998139,1.52891 -0.2122316,3.09795 0.4168947,3.48676 1.5517977,0.95906 0.7984491,9.08494 -1.1860326,12.79299 -2.3704661,4.42926 -1.97460012,8.52895 1.3416738,13.8948 2.9022393,4.69591 2.909235,4.86811 0.4220456,10.38374 -2.4554269,5.44518 -9.6333605,12.28636 -12.8911061,12.28636 -0.8838513,0 -1.6070055,0.62582 -1.6070055,1.39066 0,0.76483 0.8899019,1.39059 1.9775599,1.39059 1.087658,0 4.1673608,2.55829 6.8437871,5.6851 8.5109611,9.94315 10.0368586,23.1803 6.6383774,57.58778 -1.1225051,11.36465 -1.5924892,25.54659 -1.1290696,34.07002 0.7866288,14.46827 3.3790296,29.20286 5.1379292,29.20286 1.7589,0 4.3513,-14.73459 5.137935,-29.20286 0.463409,-8.52343 -0.0063,-22.70537 -1.129069,-34.07002 -3.398487,-34.40748 -1.872585,-47.64463 6.638372,-57.58778 2.676425,-3.12681 5.756128,-5.6851 6.843787,-5.6851 1.087658,0 1.977559,-0.62576 1.977559,-1.39059 0,-0.76484 -0.723153,-1.39066 -1.607005,-1.39066 -3.257745,0 -10.435679,-6.84118 -12.891107,-12.28636 -2.487204,-5.51563 -2.480208,-5.68783 0.422046,-10.38374 3.316279,-5.36585 3.712146,-9.46554 1.341679,-13.8948 -1.984486,-3.70805 -2.737835,-11.83393 -1.186037,-12.79299 0.6291,-0.38883 0.816698,-1.95785 0.416895,-3.48676 -1.05196,-4.02272 1.257816,-3.41749 5.942675,1.55715 3.868276,4.10753 3.91251,4.2845 0.836129,3.34494 -2.923089,-0.89275 -3.098199,-0.71171 -1.749382,1.80859 1.119666,2.09211 1.061909,2.94771 -0.228315,3.38198 -1.338037,0.45037 -1.297172,1.10223 0.18138,2.8934 1.240709,1.50303 1.362361,2.31207 0.347675,2.31207 -2.144343,0 -1.956846,2.22179 0.651333,7.71812 2.022554,4.26221 2.022554,4.93269 0,7.8203 -5.012063,7.15573 -0.501883,16.45366 10.825873,22.31789 4.898546,2.53595 5.329458,3.09192 2.953956,3.81128 -15.006405,4.54432 -19.818198,16.68631 -18.206078,45.94101 2.261943,41.0469 2.486105,56.75608 0.952498,66.74942 -1.766353,11.51002 -6.899673,29.20288 -8.4727622,29.20288 -0.5518438,0 -2.3238465,-4.22398 -3.93778,-9.38661 z m -67.721275,-70.92126 c 2.547121,-10.20683 12.303921,-17.37593 31.500614,-23.14613 12.804873,-3.84886 14.548947,-5.10112 16.479366,-11.83209 1.076695,-3.75421 0.890832,-4.3066 -1.449035,-4.3066 -3.903186,0 -3.493549,-6.6382 0.729413,-11.82022 l 3.399748,-4.17184 -0.807379,5.21481 c -0.873976,5.6449 0.09003,6.4215 3.8015742,3.06259 2.1627811,-1.95728 2.1395194,-1.42891 -0.2569063,5.83521 -1.4492769,4.39301 -3.5804709,9.43022 -4.7359819,11.19378 -3.385547,5.16698 -11.727059,9.87255 -24.027438,13.55423 -12.999751,3.89102 -19.724339,8.01041 -19.724339,12.08286 0,3.58029 -2.452884,8.15756 -4.37152,8.15756 -0.932395,0 -1.134326,-1.43505 -0.538116,-3.82416 z m 139.848018,1.13437 c -0.791751,-1.47942 -1.439533,-3.93989 -1.439533,-5.46777 0,-4.07245 -6.724586,-8.19184 -19.724345,-12.08286 -12.300379,-3.68168 -20.641887,-8.38725 -24.027433,-13.55423 -1.155517,-1.76356 -3.28671,-6.80077 -4.735982,-11.19378 -2.396436,-7.26412 -2.419698,-7.79249 -0.256906,-5.83521 3.711546,3.35891 4.67555,2.58231 3.801574,-3.06259 l -0.807374,-5.21481 3.399742,4.17184 c 4.222974,5.18202 4.632605,11.82022 0.72942,11.82022 -2.339872,0 -2.52573,0.55239 -1.449036,4.3066 1.930409,6.73097 3.674487,7.98323 16.479366,11.83209 19.19669,5.7702 28.9535,12.9393 31.500616,23.14613 1.115466,4.4699 -1.267997,5.24903 -3.470101,1.13437 z m -91.134078,-77.52782 c -4.791116,-1.08534 -15.102877,-6.13393 -19.868755,-9.72761 -6.160052,-4.64495 -10.267859,-11.59574 -14.233883,-24.08504 -4.679403,-14.73578 -10.009623,-20.10081 -25.110356,-25.27434 -8.983053,-3.07761 -10.335985,-3.83651 -5.812561,-3.26046 16.266672,2.07153 33.230523,13.14206 39.614695,25.85237 2.08561,4.15226 5.359759,11.89648 7.275882,17.20936 1.916124,5.31289 4.427584,10.60351 5.58102,11.75695 1.869136,1.86915 2.29916,1.8209 3.954982,-0.44359 1.300946,-1.77916 2.763946,-2.25315 4.880749,-1.5813 3.14076,0.99683 4.192631,3.55324 1.462033,3.55324 -1.107052,0 -1.077493,0.58247 0.101649,2.00328 2.563346,3.08861 6.0011463,1.05123 4.994407,-2.95996 -0.766835,-3.05531 -0.579406,-3.21959 2.0610177,-1.80647 3.7901582,2.02843 4.8755722,5.06612 2.7327686,7.64801 -1.7438578,2.10124 -2.6791798,2.23789 -7.6336693,1.11556 z m 38.307868,-1.0537 c -2.19027,-2.63912 -1.137536,-5.66598 2.681456,-7.70984 2.640428,-1.41313 2.827852,-1.24884 2.061023,1.80647 -1.00674,4.01116 2.431056,6.04859 4.994401,2.95993 1.179173,-1.42081 1.208738,-2.00325 0.101649,-2.00325 -2.730593,0 -1.678722,-2.5564 1.462033,-3.55324 2.116808,-0.67185 3.579813,-0.19784 4.880749,1.58129 1.655828,2.26447 2.085847,2.31272 3.954982,0.44359 1.153446,-1.15343 3.664896,-6.44405 5.58102,-11.75694 1.916124,-5.31288 5.190282,-13.05709 7.275882,-17.20935 6.384178,-12.71033 23.348036,-23.78086 39.614699,-25.85239 4.523427,-0.57605 3.170497,0.18285 -5.812551,3.26047 -15.100738,5.17352 -20.430953,10.53855 -25.110358,25.27434 -5.487568,17.2807 -11.084978,24.05834 -25.063658,30.34832 -9.304187,4.18666 -14.519635,4.94303 -16.621348,2.4106 z M 8.0510441,159.80537 c 0,-2.14153 -0.696406,-4.59012 -1.5475719,-5.44127 -2.1648044,-2.16481 -0.5500412,-4.15842 3.1475406,-3.88602 3.4019552,0.25066 4.9687062,2.7007 2.6452742,4.13667 -0.805208,0.49762 -1.464015,2.7452 -1.464015,4.99458 0,2.24937 -0.625778,4.08976 -1.390616,4.08976 -0.7648386,0 -1.3906119,-1.75217 -1.3906119,-3.89372 z m -19.4685831,-1.50494 c 0,-0.75076 1.8773295,-2.70179 4.1718389,-4.33563 7.36907799,-5.24725 4.0074516,-10.54655 -4.1186659,-6.49272 -2.323758,1.15925 -4.225012,1.60187 -4.225012,0.98362 0,-2.0945 7.3338957,-5.94402 11.674863,-6.12807 3.88499499,-0.16472 4.29097888,0.19983 4.05538456,3.64115 -0.33931784,4.95636 0.39009048,4.82125 3.75357814,-0.69531 2.4819062,-4.07062 2.7582171,-7.07458 2.7820792,-30.24583 0.014715,-14.49587 0.6242485,-26.636921 1.3958089,-27.812262 3.0389812,-4.629357 4.1084532,2.564922 4.1344492,27.812262 0.02365,23.17125 0.300162,26.17521 2.782085,30.24583 3.363508,5.51656 4.092885,5.65167 3.753572,0.69531 -0.235568,-3.44134 0.170395,-3.80587 4.055385,-3.64115 4.364398,0.18506 11.674863,4.03737 11.674863,6.15219 0,0.63152 -1.720884,0.25049 -3.824185,-0.84667 -4.990565,-2.60333 -7.189013,-2.5306 -8.265024,0.27346 -0.596777,1.55518 0.636285,3.52057 3.858942,6.15077 2.604773,2.12591 4.384375,4.21686 3.954682,4.64656 -1.187335,1.18734 -14.57123,-9.08676 -17.490414,-13.42646 -1.413354,-2.1011 -2.8826134,-3.82018 -3.265035,-3.82018 -0.382417,0 -1.8503732,1.72438 -3.2621185,3.83197 -1.4117446,2.10758 -5.1230706,5.70399 -8.2473901,7.99202 -7.9805724,5.84442 -9.3496864,6.5794 -9.3496864,5.01916 z M 7.1274429,82.25476 c -1.1590171,-3.020359 1.7833713,-5.860757 3.8894781,-3.754655 1.780029,1.780034 0.677297,5.934051 -1.575265,5.934051 -0.8128452,0 -1.8542412,-0.980728 -2.3142131,-2.179396 z" />
    </g>
</svg>
