<svg xmlns="http://www.w3.org/2000/svg" version="1.1" viewBox="0 0 512 512">
    <path transform="scale(5.1)" d="m79.781 19.402 11.586-11.586 0.83203 0.82031-11.594 11.59zm-76.684-6.9297 5.1523 62.441 1.1055-0.85937-4.9844-60.301zm83.102 83.152-60.254-4.9766-0.88281 1.0977 62.438 5.1602zm7.1367-88.375 0.17969 8.4961 5.9844-15.238-15.246 5.9805c2.8398 0.0625 5.6719 0.125 8.5078 0.1875 0.30859 0.003907 0.55859 0.26953 0.57422 0.57422zm-80.609 8.8711c5.2344 0.54688 10.629-0.875 15.879-0.87891 8.3594-0.023438 15.727 3.8203 23.652 12.031l4.2461-5.1875c-4.6367-3.3281-9.5508-6.2969-14.691-8.8555 5.3281 2.2266 10.484 4.9023 15.41 7.9766l2.8242-3.4453c-18.848-13.32-30.207-9.8672-39.348-7.0898-8.3906 2.8906-15.164 3.0586-19.57-5.5508-0.10156-0.21484-0.37891-0.26172-0.53125-0.10156h-0.003906c-0.0625 0.0625-0.11719 0.17969-0.082031 0.28516 1.6836 6.1094 6.4805 10.348 12.215 10.816zm39.934 16.605 6.2617 7.5742 7.9961-7.2109-7.2109 7.9961 7.5664 6.2578c1.1992 1.0078 2.9922 0.97266 4.1797-0.070312 1.4062-1.1445 9.5508-7.8242 11.152-9.1367l-3.0234-16.965-7.9609 7.2109 7.2109-7.9609-16.973-3.0312c-1.0156 1.2461-8.0273 9.7969-9.2109 11.242-0.97266 1.1953-0.95703 2.9219 0.011718 4.0938zm42.23 66.148c-8.8555-4.4922-8.4297-11.637-5.4258-19.996 4.7461-13.336 2.5-25.078-7.2188-38.934-0.58984 0.48047-2.8281 2.3164-3.457 2.832 3.0742 4.918 5.7461 10.066 7.9727 15.395-2.5547-5.1367-5.5195-10.043-8.8477-14.672l-5.1875 4.2461c10.348 9.9453 13.375 18.527 11.527 30.258-1.5195 10.25-0.12891 18.203 10.438 21.48 0.37109 0.089844 0.52734-0.46094 0.19922-0.60938zm-32.129-48.027 3.4453-2.8789-7.7148-6.3789c-0.027344-0.023438-0.050782-0.046875-0.074219-0.074219l-6.3867-7.7188-2.8711 3.4492c2.0391 5.6875-5.5898 14.523-11.539 13.867l-8.1758 9.8125c0.55859 4.9102 4.7109 9.0898 9.6328 9.6367l9.8203-8.1758c-0.65625-5.9492 8.1523-13.566 13.863-11.539zm-34.309 11.266-8.2461 9.9062c0.52734 3.9414 3.8359 7.2461 7.7773 7.7773l9.9062-8.2461c-4.6289-0.95703-8.4844-4.8125-9.4375-9.4375zm-3.9883 25.348-1.75-1.75-3.5664 2.9766s2.043 2.0469 2.043 2.0469c1.3828 1.4609 4.0117 0.36328 3.9531-1.6367 0-0.62109-0.24609-1.207-0.67969-1.6367zm-1.6719-3.3281 4.0352-3.3633c-3.6836-0.89844-6.6914-3.9102-7.5898-7.5898-3.0078 3.6172-8.4609 10.172-11.527 13.844-2.8555 3.5273 1.7734 8.1133 5.2812 5.2734 2.4141-2.0039 7.3633-6.1445 9.7969-8.1719zm-11.473-3.2773c0.64453-0.77344 2.3555-2.8203 2.9766-3.5664l-1.7539-1.7539c-1.3906-1.4609-4.0039-0.37891-3.9531 1.6367 0 0.61328 0.23828 1.1992 0.67969 1.6367z" />
</svg>
