<svg version="1.1" xmlns="http://www.w3.org/2000/svg" viewBox="18 14 62 69">
    <path d="M79.38,40.837c0-14.794-11.991-26.786-26.784-26.786c-13.881,0-25.293,10.557-26.65,24.079  c-0.416,0.303-6.642,9.757-6.642,9.757c-1.284,1.994-0.71,4.65,1.282,5.935l4.436,2.858v8.78c0,3.561,2.886,6.443,6.444,6.443h6.419  v10.274h29.419V63.736c0-0.173-0.005-0.341-0.007-0.514C74.572,58.434,79.38,50.199,79.38,40.837z M65.154,36.03  c-1.285,0-2.449-0.521-3.298-1.359l-4.5,2.663c-0.023,0.014-0.048,0.019-0.072,0.03c0.306,0.76,0.478,1.588,0.478,2.457  c0,2.276-1.15,4.282-2.901,5.471c0.012,0.021,0.032,0.035,0.043,0.058l2.353,4.954c0.168-0.018,0.332-0.051,0.505-0.051  c2.59,0,4.697,2.107,4.697,4.697s-2.107,4.696-4.697,4.696s-4.696-2.106-4.696-4.696c0-1.703,0.92-3.184,2.281-4.008l-2.249-4.735  c-0.01-0.021-0.008-0.044-0.017-0.065c-0.609,0.186-1.256,0.287-1.926,0.287c-3.648,0-6.607-2.957-6.607-6.607  c0-1.839,0.753-3.502,1.966-4.699c-0.048-0.057-0.095-0.114-0.13-0.183l-2.348-4.537c-0.353,0.085-0.716,0.142-1.094,0.142  c-2.59,0-4.696-2.106-4.696-4.696s2.106-4.697,4.696-4.697s4.697,2.107,4.697,4.697c0,1.494-0.715,2.812-1.806,3.673l2.293,4.433  c0.908-0.47,1.936-0.739,3.028-0.739c2.071,0,3.918,0.955,5.13,2.447c0.021-0.014,0.031-0.035,0.053-0.048l4.437-2.626  c-0.195-0.516-0.315-1.068-0.315-1.652c0-2.59,2.106-4.697,4.696-4.697s4.697,2.107,4.697,4.697  C69.852,33.924,67.744,36.03,65.154,36.03z"/>
</svg>
