<svg version="1.1" xmlns="http://www.w3.org/2000/svg" viewBox="12 10 76 80">
    <path d="M82.38,28.58c-9.07-.67-12.79-4.39-13.46-13.46a18.28,18.28,0,0,1-7.71,2.06,10.15,10.15,0,0,1-3.8-.72c0,.07,0,.14,0,.21a7.42,7.42,0,0,1-14.84,0c0-.07,0-.14,0-.21a10.15,10.15,0,0,1-3.8.72,18.43,18.43,0,0,1-7.71-2.06c-.67,9.07-4.39,12.79-13.46,13.46C21.48,36.8,20,42,12.5,47.5c7.49,5.53,9,10.7,5.12,18.92,9.07.67,12.79,4.39,13.46,13.46a20.4,20.4,0,0,1,6.37-2l2.18-20.65,0-1.68-7.32-9.91A7.33,7.33,0,0,1,32,37.5c5.24-8.67,6.71-9.44,7.2-9.69,2.5-1.3,10.45-1.69,10.78-1.7s8.36.4,10.86,1.7c.49.25,2,1,7.2,9.69a7.33,7.33,0,0,1-.38,8.16l-7.32,9.91,0,1.74L62.55,77.9a20.4,20.4,0,0,1,6.37,2c.67-9.07,4.39-12.79,13.46-13.46C78.52,58.2,80,53,87.5,47.5,80,42,78.52,36.8,82.38,28.58Z" />
    <path d="M45.24,80A23.1,23.1,0,0,1,50,85a23.1,23.1,0,0,1,4.76-5L50,63.23Z" />
    <polygon points="39.91 47.57 40.2 36.92 36.96 41.68 39.91 47.57" />
    <polygon points="60.1 47.56 63.04 41.68 59.8 36.92 60.1 47.56" />
    <path d="M50,22.58a5.92,5.92,0,1,0-5.92-5.91A5.92,5.92,0,0,0,50,22.58Z" />
    <path d="M58.82,55.4v0l-.13-4.75v-.05L58.23,34.4a.74.74,0,0,1,.52-.73.76.76,0,0,1,.85.29l4.92,7.24a.72.72,0,0,1,.06.75l-4.4,8.79.07,2.4,6.18-8.37a5.84,5.84,0,0,0,.3-6.5c-4.65-7.71-6.23-8.94-6.6-9.13-1.83-.95-8-1.43-10.17-1.53-2.13.1-8.26.58-10.09,1.53-.37.19-1.95,1.42-6.6,9.13a5.84,5.84,0,0,0,.3,6.5l6.18,8.37.07-2.4L35.42,42a.72.72,0,0,1,.06-.75L40.4,34a.76.76,0,0,1,.85-.29.74.74,0,0,1,.52.73l-.64,23-3.38,31.9h3.32l8.21-29a.75.75,0,0,1,1.44,0l8.21,29h3.32L58.87,57.41Z" />
</svg>
