<svg  xmlns="http://www.w3.org/2000/svg" xmlns:xlink="http://www.w3.org/1999/xlink" version="1.1" viewBox="4 17 92 66">
    <title>End Grapple</title>
    <g transform="translate(0,-952.36216)">
        <path style="color:#000000;font-style:normal;font-variant:normal;font-weight:normal;font-stretch:normal;font-size:medium;line-height:normal;font-family:sans-serif;text-indent:0;text-align:start;text-decoration:none;text-decoration-line:none;text-decoration-style:solid;text-decoration-color:#000000;letter-spacing:normal;word-spacing:normal;text-transform:none;direction:ltr;block-progression:tb;writing-mode:lr-tb;baseline-shift:baseline;text-anchor:start;white-space:normal;clip-rule:nonzero;display:inline;overflow:visible;visibility:visible;opacity:1;isolation:auto;mix-blend-mode:normal;color-interpolation:sRGB;color-interpolation-filters:linearRGB;solid-color:#000000;solid-opacity:1;fill:#000000;fill-opacity:1;fill-rule:evenodd;stroke:none;stroke-width:7.5;stroke-linecap:round;stroke-linejoin:round;stroke-miterlimit:4;stroke-dasharray:none;stroke-dashoffset:0;stroke-opacity:1;color-rendering:auto;image-rendering:auto;shape-rendering:auto;text-rendering:auto;enable-background:accumulate" d="m 67.771296,970.37995 c -3.326144,0 -6.021924,2.68843 -6.021924,5.99396 0,3.32614 2.69578,5.99396 6.021924,5.99396 3.304632,0 5.993063,-2.66782 5.993959,-5.99396 0,-3.30553 -2.688431,-5.99396 -5.993959,-5.99396 z m -26.340798,9.18521 c -3.305528,0 -5.993959,2.68843 -5.993959,5.99396 8.96e-4,3.32615 2.689327,5.99396 5.993959,5.99396 3.326144,0 6.021924,-2.66781 6.021924,-5.99396 0,-3.30553 -2.69578,-5.99396 -6.021924,-5.99396 z m 32.821445,2.77466 c -1.091865,-0.0376 -2.209004,0.18956 -3.259549,0.71246 -1.232134,0.61342 -2.19063,1.54709 -2.832466,2.64864 -0.663973,1.31477 -1.045974,2.73692 -2.718636,3.66745 -0.723487,0.35645 -1.511777,0.53876 -2.394805,0.63018 -2.553091,0.2645 -6.068531,-0.65304 -9.866214,-1.75584 -3.013696,-0.87469 -4.325152,3.6463 -1.311188,4.52001 3.806467,1.1054 7.727032,2.32283 11.662386,1.91511 0.973554,-0.10083 1.936172,-0.33262 2.867421,-0.70019 -0.158823,0.50435 -0.329029,0.96101 -0.516444,1.33745 -0.66487,1.33593 -1.368729,1.91386 -2.303742,2.27399 -1.870026,0.72008 -5.401331,0.12073 -9.708646,-1.67006 -2.921916,-1.26638 -4.765053,3.16633 -1.806658,4.34498 4.695679,1.9523 9.17571,3.2676 13.20634,1.7155 2.015315,-0.7761 3.735122,-2.37986 4.824566,-4.56896 0.07798,-0.15703 0.147799,-0.32366 0.220578,-0.48669 l 4.126085,8.29075 -9.297248,8.4569 c -0.422333,0.3844 -0.73989,0.8701 -0.922554,1.4111 l -4.472682,13.236 c -1.520471,4.2879 4.977115,6.483 6.368521,2.1514 l 4.194382,-12.4115 8.667064,-7.8846 c 0.972657,-0.8847 1.420177,-0.861 1.302493,0.3466 l -0.798328,8.2137 c -0.08873,0.9029 0.191986,1.8032 0.777265,2.4963 l 8.733659,10.3354 c 2.889469,3.4654 8.069952,-0.9132 5.134415,-4.3396 l -7.818096,-9.2518 1.17988,-12.1087 c 2.69e-4,-0.01 -2.68e-4,-0.01 0,-0.01 0.397506,-4.0742 0.396879,-4.0864 -1.51599,-7.93012 -0.009,0 -0.01075,3.6e-4 -0.01075,-0.0126 l -5.876635,-11.80767 c -1.151019,-2.31244 -3.427783,-3.67919 -5.831193,-3.76372 l 0,0 z m -43.774773,4.6635 c -1.734686,-0.009 -3.470984,0.65098 -4.805385,1.97471 l -8.456973,8.38868 c -5.149388,5.10769 -5.148488,5.10649 -4.411465,12.66709 l 0.917266,9.4164 -7.8180092,9.2535 c -3.01558,3.4327 2.25346,7.8844 5.1344202,4.338 l 8.73536,-10.3354 c 0.585369,-0.6932 0.86564,-1.5934 0.777265,-2.4963 l -0.794743,-8.1454 c -0.170475,-1.748 -0.170475,-1.748 1.358422,-0.3572 l 8.605757,7.8286 4.194383,12.4133 c 1.393915,4.3266 7.884062,2.134 6.36861,-2.1515 L 35.809397,1016.56 c -0.182665,-0.541 -0.500222,-1.0266 -0.922555,-1.4109 l -8.518279,-7.7481 4.694962,-4.6582 c 1.633315,2.3534 3.582842,4.1899 5.862742,5.4215 3.266809,1.7647 7.07722,2.2497 11.186096,1.7295 3.104849,-0.4003 2.514908,-5.0555 -0.591643,-4.6688 -3.405376,0.4312 -6.104114,0.017 -8.359008,-1.2008 -1.763009,-0.9524 -3.322648,-2.4448 -4.696755,-4.65302 l 0.318543,-0.31693 c 0.648916,0.49807 1.32239,0.95125 2.034226,1.33575 3.266809,1.7647 7.07722,2.2516 11.186096,1.7313 3.104848,-0.4004 2.514908,-5.05557 -0.591643,-4.66882 -3.405376,0.43121 -6.347458,0.23797 -8.359008,-1.20264 -2.011551,-1.44061 -2.236162,-5.59251 -3.78648,-7.23336 -1.323645,-1.3344 -3.055373,-2.00617 -4.789521,-2.01316 z" />
    </g>
</svg>
