<svg viewBox="65 18 382 477">
    <title>Enhanced Intellect</title>
    <path d="M81.79,396.81C104.84,413,149.71,426.36,237,415c7.11-.93,7.25-11.19.16-12.31-27-4.29-61.38-11.47-86.4-22.63-18.68-8.33-20.38-34.17-3-45,8.26-5.16,19.55-10.42,35-15.23,6.46-2,4.78-11.63-2-11.32-30.83,1.42-70.75,7.65-99.19,28A36.81,36.81,0,0,0,81.79,396.81Z" />
    <ellipse cx="305.36" cy="318.54" rx="14.28" ry="11.57" />
    <path d="M373.37,371.11c-13,9.54-33.47,19.5-60.43,28.29-5.86,1.91-4.32,10.58,1.83,10.32,37-1.57,84.67-7.43,114.56-25.66,11.18-6.82,17.87-19.4,16.56-32.43-1.41-14.08-12.11-30.23-50.63-36.36,0,0-18.33-3.44-42.9-1.3-9,.79-10.85,13.3-2.37,16.45,5.95,2.22,12.68,3.71,19.65,6.7C383.61,343.11,385.62,362.09,373.37,371.11Z" />
    <path d="M255.51,23.21a9.06,9.06,0,0,0-15.44,0c-28.94,47-51.74,112.43-63.4,149.61a12.44,12.44,0,0,0,17.78,14.66,12.39,12.39,0,0,1,17.64,7c15,45.08,20,135,21.36,169.35a14.35,14.35,0,0,0,28.68,0c1.4-34.33,6.39-124.27,21.36-169.35a12.39,12.39,0,0,1,17.64-7,12.44,12.44,0,0,0,17.78-14.66C307.25,135.64,284.45,70.18,255.51,23.21Z" />
    <text x="255" y="475" text-anchor="middle" fill="#000000" font-size="60px" font-weight="bold" font-family="'Helvetica Neue', Helvetica, Arial-Unicode, Arial, Sans-serif">Intellect</text>
</svg>
