<svg xmlns="http://www.w3.org/2000/svg" version="1.1" viewBox="8 8 512 512">
    <g transform="scale(5.28)">
        <path d="m59.375 50c0 5.1758-4.1953 9.3711-9.375 9.3711-5.1758 0-9.375-4.1953-9.375-9.3711s4.1992-9.375 9.375-9.375c5.1797 0 9.375 4.1992 9.375 9.375" />
        <path d="m48.828 68.125c-4.4023-0.28906-8.5469-2.168-11.668-5.2852-3.1211-3.1211-5-7.2656-5.293-11.668h-21.18c-0.64453 0-1.1719-0.52344-1.1719-1.1719s0.52734-1.1719 1.1719-1.1719h21.18c0.29297-4.4023 2.1758-8.5469 5.293-11.668 3.1211-3.1172 7.2656-4.9961 11.668-5.2852v-0.039062-13.43c-22.137 0.75391-40.625 22.539-45.961 29.484h-0.003907c-0.95312 1.2461-0.95312 2.9727 0 4.2188 5.3398 6.9453 23.828 28.73 45.965 29.484v-13.43-0.039062z" />
        <path d="m97.133 47.891c-5.3359-6.9453-23.824-28.734-45.961-29.484v13.43 0.039062c4.4023 0.28906 8.5508 2.168 11.668 5.2852 3.1211 3.1211 5.0039 7.2656 5.293 11.668h21.18c0.64844 0 1.1719 0.52344 1.1719 1.1719s-0.52344 1.1719-1.1719 1.1719h-21.18c-0.28906 4.4023-2.1719 8.5508-5.2891 11.668-3.1211 3.1211-7.2695 5-11.672 5.2852v0.039062 13.426c22.137-0.75 40.625-22.535 45.961-29.492l0.003907 0.003906c0.94922-1.2422 0.94922-2.9688-0.003907-4.2109z" />
        <path d="m51.172 18.406v-7.7188c0-0.64453-0.52344-1.1719-1.1719-1.1719s-1.1719 0.52734-1.1719 1.1719v7.7188c0.39062-0.011719 0.78125-0.019531 1.1719-0.023438 0.39062 0.003907 0.78125 0.011719 1.1719 0.023438z" />
        <path d="m48.828 81.594v7.7188c0 0.64844 0.52344 1.1719 1.1719 1.1719s1.1719-0.52344 1.1719-1.1719v-7.7188c-0.39062 0.015625-0.78125 0.023438-1.1719 0.023438-0.39062-0.003907-0.78125-0.011719-1.1719-0.023438z" />
    </g>
</svg>
