<svg version="1.1" xmlns="http://www.w3.org/2000/svg" viewBox="49 49 1200 1200">
<path transform="scale(1.08)" d="M1147.716,52.324c-0.267-0.321-0.614-0.561-0.641-0.561l-0.347-0.241c-0.741-0.432-1.423-0.787-2.217-1.015
	c-0.988-0.347-2.084-0.454-3.126-0.508c-1.069,0.053-2.137,0.134-3.072,0.481c-0.481,0.16-0.988,0.294-1.443,0.481l-1.255,0.695
	c-4.115,2.445-6.318,5.793-8.576,9.377c-1.018,2.036-2.335,4.24-3.152,6.332l-1.763,4.301c-3.659,9.817-5.819,20.425-8.228,30.483
	c-17.826,59.199-98.813,76.033-153.215,77.797c-47.318,0.708-96.549,2.631-143.304,9.857
	c-59.226,9.144-117.544,24.213-173.921,44.322c-14.404,3.763-28.411,7.765-42.371,13.144c-5.557,2.286-11.11,4.447-16.109,8.416
	c-0.481,0.454-0.989,0.935-1.47,1.443l-0.802,1.015c-0.24,0.347-0.481,0.641-0.748,1.229c-0.267,0.508-0.481,1.069-0.668,1.603
	c-0.107,0.374-0.133,0.641-0.214,0.962c-1.373,7.114,0.585,13.457,2.912,19.583c-0.4,0.988-0.775,1.977-1.095,3.019
	c-0.721,2.511-1.336,5.316-0.614,8.683c0.427,1.683,1.389,3.42,2.778,4.649c5.138,4.388,12.249,3.101,18.113,2.939
	c0.053,0.641,0.107,1.336,0.107,2.084c-0.541,17.855-3.094,37.095-7.614,54.313c-1.437,4.077-3.85,6.193-7.24,9.003
	c-9.272,7.236-17.777,16.463-25.513,25.3l-2.218,2.405c-0.775,0.775-1.603,1.469-2.404,2.191c-3.179,2.992-6.839,5.397-10.58,7.721
	c-16.146,9.211-35.477,12.516-51.829,22.628c-17.153,9.982-29.421,27.102-38.443,43.975c-9.146,16.314-19.433,31.632-31.178,46.111
	c-20.786,28.599-52.337,47.618-88.082,35.612c2.101-3.626,4.525-7.945,6.572-11.648c-9.686-5.441-19.126-10.448-30.75-10.045
	c-0.934,0.002-2.042,0.236-2.992,0.374l-0.507,0.107c-0.781,0.234-1.765,0.589-2.432,0.962l-1.149,0.748
	c-0.828,0.561-1.202,1.015-1.79,1.55c-1.977,2.03-3.206,3.954-4.435,5.904c-10.311,18.398-16.147,38.34-22.414,58.267
	c-24.832,61.757-44.046,125.928-56.504,191.393c-9.791,51.632-13.592,106.368-16.109,158.88
	c-4.055,58.674-24.996,140.563-85.973,163.02c-2.992,1.122-6.091,1.897-9.163,2.645c-6.335,1.401-13.227,2.408-19.529,3.954
	c-4.754,1.018-10.002,2.537-14.694,4.007l-4.835,1.79c-2.357,0.804-4.871,2.136-7.16,3.179l-2.297,1.389
	c-3.073,1.763-6.091,4.141-8.389,7.56l-0.801,1.336c-0.24,0.481-0.401,1.015-0.588,1.55c-0.427,0.989-0.561,2.164-0.668,3.313
	c0.027,1.149,0.107,2.324,0.481,3.42c0.134,0.561,0.347,1.095,0.615,1.63c0.107,0.267,0.24,0.534,0.427,0.775l0.241,0.401
	c0,0.027,0.24,0.401,0.561,0.668c0.32,0.321,0.695,0.561,1.042,0.721c5.186-0.565,10.593-1.267,15.79-2.164
	c1.797-0.365,6.615-1.393,8.469-1.79c3.793-0.694,7.534-1.763,11.274-2.752c38.566-9.535,68.263-32.213,89.178-65.801
	c302.104-300.34,618.745-622.536,916.676-927.175c21.874-15.741,37.463-39.328,44.936-65.027c2.112-6.729,3.875-13.421,5.316-20.411
	c0.748-3.82,1.336-7.721,1.87-11.488C1148.277,53.019,1148.037,52.645,1147.716,52.324z M676.073,254.002l0.053-0.08
	c0,0.027-0.027,0.053-0.027,0.08c-0.027,0.027-0.053,0.053-0.053,0.08C676.047,254.056,676.047,254.029,676.073,254.002z
	 M638.057,289c0.904-1.932,6.479-7.271,7.988-9.03c0.963-1.006,3.495-3.654,4.435-4.622l0.374-0.374l0.507-0.534l0.721-0.908
	c0.855-1.015,1.657-1.95,2.431-2.725c0.325,7.397,2.213,14.632,5.557,21.319c1.389,2.752,2.698,5.076,3.233,7.026
	c0.614,1.95,0.508,3.179-0.16,5.076c-0.695,1.817-1.951,3.874-3.527,5.958c-1.737,2.084-3.473,4.194-5.13,6.332
	c-7.602-6.403-12.844-16.259-16.724-25.46C637.549,290.256,637.63,289.855,638.057,289z M621.333,309.384
	c0.443-3.254,0.717-6.539,1.79-9.404c0.08-0.267,0.214-0.481,0.321-0.668c0.134,0.107,0.321,0.241,0.481,0.401
	c0.455,0.427,0.962,0.962,1.443,1.55l6.172,8.095c5.403,7.669,11.485,16.807,14.56,25.434c0.561,2.565,0.267,3.446-1.282,6.252
	c-3.864,6.78-8.778,13.906-13.999,19.556c-0.187,0.187-0.294,0.267-0.347,0.321C618.761,354.859,619.873,321.346,621.333,309.384z
	 M608.189,375.613c0.053-0.027-0.027,0.053-0.214,0.134C608.055,375.667,608.135,375.613,608.189,375.613z M500.924,501.124
	c3.994-4.711,10.214-6.477,16.083-7.133c-3.072-17.472-4.249-21.902,12.182-31.284c21.805-12.24,44.367-25.878,65.267-38.498
	c0.107-0.775-0.054-1.843-0.454-2.591l-0.08-0.187c-0.027-0.134-0.053-0.267-0.08-0.427c-0.107-0.968,0.422-2.172,1.149-2.752
	c1.068-0.935,2.992-1.416,4.809-1.069c3.767,0.641,7.16,4.141,8.469,8.282c4.709,20.167-7.732,40.235-20.01,55.729
	c-9.922,12.5-20.721,23.676-35.667,29.975c0,0.001-14.774,7.214-14.774,7.214c-9.05,4.117-18.806,10.386-28.506,10.927
	C494.82,530.579,492.363,509.439,500.924,501.124z M349.605,576.704c0.935-0.748,2.378-1.603,3.58-2.084
	c7.072-2.833,15.4-1.586,22.949-1.951c9.527-0.067,19.031,0.82,28.373,2.511c0.374,0.027,0.641,0.107,0.908,0.16
	c-6.253,5.229-13.961,9.791-20.384,15.041c-4.629,3.125-7.862,7.657-13.411,6.305c-8.2-2.939-15.736-10.171-22.094-16.27
	c-0.908-0.935-1.336-1.924-1.255-2.111C348.189,578.2,348.59,577.479,349.605,576.704z M316.398,610.312
	c1.629-4.595,4.194-8.763,7.774-12.263c1.763-1.79,3.634-3.526,5.37-4.461c0.428-0.241,0.828-0.347,1.122-0.454
	c3.576,0.006,6.956,1.937,10.393,3.58c4.471,2.193,9.072,4.681,13.037,7.668c0.962,0.668,2.111,1.523,2.859,2.137
	c0.721,0.614,1.282,1.256,1.523,1.683c-0.08,0.08-0.214,0.214-0.401,0.374c-0.588,0.534-1.71,1.389-2.618,2.03
	c-3.752,2.574-9.417,6.496-13.758,6.545c-1.122-0.107-4.168-1.843-6.786-2.752c-2.672-1.015-5.423-1.843-8.175-2.458
	C321.874,610.713,312.764,610.179,316.398,610.312z M341.03,636.12c0.08-0.053-0.053,0.187-0.134,0.294
	C340.949,636.307,340.976,636.227,341.03,636.12z M863.245,375.159C648.461,591.487,404.97,836.55,193.772,1054.197
	c17.454-29.592,29.235-62.669,34.997-96.498c8.302-45.031,11.826-90.937,17.98-136.171c6.595-44.927,18.283-89.041,33.529-131.816
	c6.525-19.117,14.958-37.357,21.56-56.557c0.134-0.641,0.321-1.176,0.374-2.485c10.239-4.466,21.448-3.038,29.067,5.183
	c0.748,0.668,1.336,1.309,2.618,2.244c0.67,0.509,2.087,1.067,3.126,1.015c0.748-0.027,1.71-0.321,2.244-0.721
	c0.481-0.321,1.095-0.989,1.256-1.282c0.107-0.214,0.24-0.427,0.347-0.641c0,0,0,0,0.027-0.027c0.16-0.107,0.775-0.588,1.309-0.855
	c13.662-6.548,28.889-9.723,43.494-13.625l0.08-3.446c-0.028-2.705,1.679-4.987,3.713-6.946
	c13.861-11.789,33.468-14.38,49.211-23.376c1.042-0.748,2.11-1.362,3.366-2.939c0.635-0.736,1.34-2.314,1.522-3.259
	c0.08-0.294,0.16-0.561,0.214-0.828c0.187-0.481,0.401-0.935,0.721-1.362c0.668-0.855,1.656-1.817,3.072-2.725
	c15.056-8.634,36.656-14.595,53.085-20.919c14.881-5.369,29.334-11.861,43.253-19.369c34.318-19.144,70.252-44.569,83.06-83.727
	c0.534-2.03,1.202-4.007,1.576-6.065l0.641-3.072c2.177-12.141,4.601-24.545,8.442-36.173c2.076-5.791,4.111-11.758,7.908-16.484
	c0.26-0.312,0.518-0.562,0.748-0.748c0,0,0,0-0.027,0c-0.053,0.027,0.027,0.027-0.561,0.241l3.233-3.687
	c1.683-7.748,3.366-15.522,5.931-22.762c1.336-3.553,2.725-7.16,4.622-10.072c0.428-0.801,0.962-1.416,1.443-2.084
	c0.481-0.721,1.042-1.229,1.576-1.79c1.35-1.381,3.373-2.476,5.316-3.366c0.561-0.321,1.229-0.721,1.87-1.149
	c1.375-1.056,2.768-2.749,3.286-4.355c0.267-0.695,0.561-1.656,0.695-2.137c2.857-11.096,7.905-30.701,10.767-41.944
	c-3.465-2.785-6.51-5.993-8.443-10.205c-4.02-9.269-3.855-20.139-2.297-30.082c0.481-0.08,0.882-0.16,1.256-0.267
	c55.485-19.65,111.972-36.969,170.715-43.119c54.424-6.04,110.146-6.114,163.474-20.491c22.299-6.342,43.02-16.455,63.183-27.625
	C1002.569,235.381,932.76,305.137,863.245,375.159z"/>
</svg>
