<svg xmlns="http://www.w3.org/2000/svg" version="1.1" viewBox="-26 -2 512 512">
    <g transform="scale(3.1)">
        <ellipse transform="matrix(0.3227 -0.9465 0.9465 0.3227 36.7394 96.3523)" cx="85.692" cy="22.506" rx="22.5" ry="22.5"/>
        <path d="M12.5,163.856h59.333c5.186,0,9.832-3.202,11.68-8.046c1.848-4.845,0.512-10.328-3.357-13.78l-36.947-32.968   c2.77-10.635,8.194-21.271,13.46-30.584l-13.051-16.31c-1.702-2.127-2.475-4.79-2.174-7.498c0.301-2.708,1.638-5.137,3.766-6.839   c1.802-1.441,4.063-2.235,6.366-2.235c3.118,0,6.022,1.395,7.97,3.827l7.703,9.627c2.222-7.31,0.996-15.208-4.54-18.778   c-7.393-4.77-20.603-4.374-30.093,7.861C19.665,65.031,14.043,76.988,9.323,98.849c-1.425,10.367,2.095,16.202,7.091,19.81   l22.636,20.198H12.5c-6.903,0-12.5,5.597-12.5,12.5S5.597,163.856,12.5,163.856z"/>
        <path d="M113.834,105.921l0.713,9.443c0.956,0.044,1.942,0.069,2.948,0.069c0.701,0,1.389-0.014,2.068-0.036l-0.725-9.606   l0.335-14.073l-5.018,0.704L113.834,105.921z"/>
        <path d="M117.845,71.406c0.615,0,1.219,0.058,1.808,0.165l0.182-7.655l0.002-0.074l-0.503-14.075l-4.996,0.179l0.497,13.925   l-0.188,7.883l1.772-0.248C116.892,71.439,117.371,71.406,117.845,71.406z"/>
        <path d="M114.926,120.386l0.909,12.049l-0.139,11.069l-5.716,0.608l0.211,1.989l5.48-0.583l-0.085,6.807l5,0.063l0.093-7.403   l0.49-0.052l2.439,6.585l8.097,1.08l0.264-1.982l-6.903-0.92l-2.561-6.915l-1.8,0.191l0.132-10.584l0.001-0.11l-0.897-11.887   c-0.804,0.029-1.616,0.049-2.437,0.049C116.634,120.44,115.775,120.418,114.926,120.386z"/>
        <path d="M46.583,49.548c-3.45,2.761-4.009,7.795-1.248,11.245L70.59,92.354c1.53,1.913,3.836,3.002,6.245,3.002   c0.369,0,0.74-0.025,1.112-0.078l41-5.75c4.375-0.613,7.425-4.658,6.812-9.033c-0.614-4.376-4.658-7.424-9.034-6.812l-36.488,5.117   L57.827,50.797C55.066,47.348,50.032,46.788,46.583,49.548z"/>
        <rect x="87.836" y="154.44" width="60.333" height="7"/>
        <path d="M113.201,113.249l-0.068-0.998c-2.846,0.196-9.464,0.882-9.464,3.021c0,0.396,0,1.602,4.81,2.472l0.178-0.984   c-3.311-0.598-3.987-1.325-3.987-1.487C104.669,114.788,107.245,113.659,113.201,113.249z"/><path d="M131.336,115.273c0-2.113-6.497-2.808-9.29-3.009l-0.072,0.997c6.381,0.458,8.362,1.635,8.362,2.012   c0,0.169-0.712,0.916-4.166,1.518l0.117,0.995C131.335,116.917,131.336,115.68,131.336,115.273z"/><path d="M111.051,117.104l-0.111,0.994c1.995,0.224,4.265,0.342,6.563,0.342c2.392,0,4.745-0.128,6.805-0.37l-0.117-0.993   C120.225,117.542,115.048,117.552,111.051,117.104z"/><path d="M93.588,153.098l12.011-1.536l-1.52-3.981l1.194-0.76l2.512,5.594l7.237,0.77l0.211-1.989l-6.095-0.647l-2.988-6.656   l-2.799,1.781l-0.83-2.174l-1.869,0.714l0.976,2.556l-4.704,2.993l0.526,0.826l-4.115,0.526L93.588,153.098z M102.356,148.677   l0.467,1.224l-2.992,0.383L102.356,148.677z"/><polygon points="140.12,150.235 136.653,150.551 134.926,147.343 128.688,147.482 128.733,149.481 133.746,149.37 135.519,152.662    140.302,152.227  "/><path d="M128.348,127.588c-0.888,2.618,0.514,5.461,3.132,6.349c0.055,0.019,0.11,0.021,0.165,0.038l-3.155,5.801l0.64,0.392   l2.843-4.641l2.322-3.79l-1.102-0.606l-1.111,2.042c-1.933-0.87-2.937-3.065-2.242-5.113c0.711-2.093,2.922-3.233,5.026-2.662   c-0.017,0.045-0.043,0.083-0.059,0.129c-0.346,1.02-0.35,2.072-0.078,3.036c-0.026-0.523,0.036-1.059,0.214-1.585   c0.76-2.242,3.194-3.443,5.436-2.682c2.242,0.761,3.442,3.195,2.682,5.437c-0.365,1.074-1.119,1.9-2.047,2.395   c0.562-0.154,1.086-0.416,1.564-0.747c0.573,0.999,0.744,2.222,0.345,3.399c-0.738,2.176-3.101,3.342-5.278,2.603   c-0.756-0.257-1.38-0.718-1.855-1.291l1.726-1.625l-0.867-0.912l-2.987,3.115l-3.856,4.021l0.543,0.52l4.522-4.255   c0.618,0.867,1.493,1.561,2.577,1.929c2.749,0.933,5.734-0.539,6.667-3.289c0.581-1.711,0.228-3.512-0.783-4.854   c0.517-0.531,0.938-1.169,1.192-1.918c0.911-2.684-0.526-5.597-3.209-6.508c-2.384-0.809-4.941,0.24-6.123,2.364   c-0.164-0.077-0.32-0.166-0.495-0.226C132.079,123.568,129.237,124.97,128.348,127.588z"/>
    </g>
</svg>
