<svg xmlns="http://www.w3.org/2000/svg" version="1.1" viewBox="13 13 512 512">
    <g transform="scale(1.05)">
        <path d="M193.52,242.65l.15-41A19.77,19.77,0,0,0,174,181.77l-3.21,0a19.8,19.8,0,0,0-19.87,19.72l-.18,47.79a5.34,5.34,0,0,0,7.74,4.8A54.85,54.85,0,0,1,183.87,248h4.27A5.36,5.36,0,0,0,193.52,242.65Z" />
        <path d="M247.31,248.2a5.14,5.14,0,0,0,5.25-5.07l.15-39.67v-1.6A19.8,19.8,0,0,0,233,182h-3.21a19.79,19.79,0,0,0-19.87,19.71L209.77,243a5.09,5.09,0,0,0,5.07,5.12l32.42.12Z" />
        <path d="M291.34,306.76c12,.1,21.54-10,21.58-21.94l.31-80.51c0-11.51-8.74-21.46-20.23-22.07a21.42,21.42,0,0,0-22.56,21.28l-.19,49.66a10.66,10.66,0,0,0,1.94,6.32,27.48,27.48,0,0,1,5.18,17.36,124.83,124.83,0,0,1-1.71,15.67,11.11,11.11,0,0,0,5.6,11.59A21.1,21.1,0,0,0,291.34,306.76Z" />
        <path d="M372.28,203.91a21.4,21.4,0,1,0-42.79-.17l-.32,81.77a21.4,21.4,0,0,0,42.79.16Z" />
        <path d="M317.5,324.61l-41.29-.16c-1.28,0-3.36.11-4.62.26h0l-23.2,2.6a6.63,6.63,0,0,0-3.94,11.29c12.66,12.64,24.86,32.95,28.05,65.17a8.86,8.86,0,0,1-7.95,9.69c-.3,0-.61,0-.91,0a8.84,8.84,0,0,1-8.77-8c-6.64-67-56.63-72.33-58.75-72.52a8.88,8.88,0,0,1-8-9.74,9.14,9.14,0,0,1,8.22-7.94l49.55-5.56a13.35,13.35,0,0,0,11.27-9.29l0-.09c.7-2.22,1.28-4.48,1.77-6.74a107.9,107.9,0,0,0,2.2-17.49,12,12,0,0,0-.13-2.56,12.57,12.57,0,0,0-7-9.42,12.4,12.4,0,0,0-5.28-1.2l-37.51-.14-7.38,0-7.38,0-9.63,0a40.48,40.48,0,0,0-31.43,14.74,41.86,41.86,0,0,0-4.61,6.92,40.65,40.65,0,0,0-4.67,18.74l-.41,107.32A59.77,59.77,0,0,0,174.76,462l1.37.82a17.91,17.91,0,0,1,8.72,15.45v2.27a13,13,0,0,0,13,13.08H325.26a13,13,0,0,0,13-13l0-3.81a17.92,17.92,0,0,1,9-15.5h0a40.36,40.36,0,0,0,20.38-34.91l.2-51A50.62,50.62,0,0,0,317.5,324.61Z" />
        <path d="M466.62,61.06,450.46,44.89a14.26,14.26,0,0,0-20.15,0L383.68,91.53A209.52,209.52,0,0,0,334,62.79,10.25,10.25,0,0,0,320.46,69L316.63,80a26.21,26.21,0,0,0,12.8,31.9,161.77,161.77,0,0,1,49.7,39.49,11,11,0,0,0,16.48.79l71-71A14.24,14.24,0,0,0,466.62,61.06Z" />
        <path d="M478.87,229.84H462.28a205.11,205.11,0,0,0-13.94-53.27,10.26,10.26,0,0,0-13.88-5.4l-10.6,5a26.34,26.34,0,0,0-13.77,31.71,161.36,161.36,0,0,1,7.15,47.61c0,4.6-.2,9.15-.57,13.65a11.11,11.11,0,0,0,11.09,12h51.11a14.25,14.25,0,0,0,14.24-14.25V244.08A14.25,14.25,0,0,0,478.87,229.84Z" />
        <path d="M110.34,186.29a161.75,161.75,0,0,1,41.71-54,11.13,11.13,0,0,0,.66-16.36l-71-71a14.26,14.26,0,0,0-20.15,0L45.38,61.06a14.24,14.24,0,0,0,0,20.14L92,127.82a208.92,208.92,0,0,0-30.81,55.07,10.26,10.26,0,0,0,6.52,13.39l11.16,3.51A26.15,26.15,0,0,0,110.34,186.29Z" />
        <path d="M256,94.27q6.9,0,13.64.58a11.11,11.11,0,0,0,12-11.1V32.65A14.24,14.24,0,0,0,267.43,18.4H244.57a14.24,14.24,0,0,0-14.24,14.25V49.23a204.85,204.85,0,0,0-54.62,14.5,10.26,10.26,0,0,0-5.31,13.92l5.09,10.57a26.32,26.32,0,0,0,31.75,13.56A161,161,0,0,1,256,94.27Z" />
        <path d="M94.76,255.51c0-4.59.2-9.14.57-13.64a11.11,11.11,0,0,0-11.09-12H33.13a14.25,14.25,0,0,0-14.24,14.24v22.86a14.25,14.25,0,0,0,14.24,14.25H81.94a13.31,13.31,0,0,0,13.22-14.33C94.9,263.11,94.76,259.33,94.76,255.51Z" />
    </g>
</svg>
