<svg xmlns="http://www.w3.org/2000/svg" version="1.1" viewBox="15 16 512 512">
    <g transform="scale(5.4)">
        <g>
            <path d="M82.56,14.33c0.358,0.914,0.438,1.708,0.264,2.421c5.554-6.075,10.105-9.29,10.105-9.29s-2.431,3.532-8.853,10.492   c0.702-0.203,1.622-0.054,2.542,0.251C92.438,11.637,95.99,4.25,95.99,4.25S88.8,8.161,82.56,14.33z"/>
        </g>
        <g>
            <path d="M92.381,8.017l-3.007,2.707c0,0-1.884,1.813-4.141,4.157c-4.318,4.482-1.644,1.835-10.707,10.966L4.182,96.884   c-0.916,0.401,2.782-0.508,4.402-2.015l66.83-68.288c0,0,7.347-7.444,10.37-11.196l3.954-4.329L92.381,8.017z"/>
        </g>
    </g>
</svg>
