<svg xmlns="http://www.w3.org/2000/svg" version="1.1" viewBox="-5.0 -10.0 110.0 135.0">
    <g fill-rule="evenodd">
        <path
            d="m11.09 85.055c-0.24609 0-0.49219-0.09375-0.68359-0.28125-0.375-0.37891-0.375-0.98438 0-1.3633l4.2305-4.2305c1.4297-1.4805 2.168-2.6016 2.9492-3.7852 1.457-2.207 3.1055-4.7109 9.5195-10.043 0.41016-0.33984 1.0156-0.28125 1.3555 0.125 0.33984 0.41016 0.28125 1.0156-0.125 1.3555-6.1953 5.1484-7.6953 7.4219-9.1445 9.6211-0.79688 1.2031-1.6172 2.4531-3.1836 4.0742l-4.2422 4.2422c-0.1875 0.1875-0.43359 0.28125-0.67969 0.28125zm4.8203 4.8242c-0.24609 0-0.49219-0.09375-0.67969-0.28125-0.375-0.37891-0.375-0.98828 0-1.3633l4.2305-4.2305c1.6328-1.5781 2.8828-2.3984 4.0859-3.1953 2.1992-1.4492 4.4727-2.9492 9.6211-9.1445 0.33984-0.41016 0.94922-0.46484 1.3555-0.125 0.41016 0.33984 0.46484 0.94922 0.125 1.3555-5.332 6.4141-7.8359 8.0664-10.043 9.5195-1.1875 0.78125-2.3047 1.5195-3.8008 2.9609l-4.2148 4.2188c-0.1875 0.1875-0.4375 0.28125-0.68359 0.28125z" />
        <path
            d="m11.367 85.051c-0.91797 0-1.8359 0.34766-2.5352 1.0469-0.67578 0.67578-1.0508 1.5781-1.0508 2.5352 0 0.95703 0.375 1.8594 1.0508 2.5352 1.3984 1.3984 3.6719 1.3984 5.0703 0 0.67578-0.67578 1.0508-1.5781 1.0508-2.5352 0-0.95703-0.375-1.8555-1.0508-2.5352-0.69922-0.69922-1.6172-1.0469-2.5352-1.0469zm0 9.0898c-1.4102 0-2.8242-0.53516-3.8984-1.6094-1.0391-1.043-1.6133-2.4258-1.6133-3.8984 0-1.4727 0.57422-2.8555 1.6133-3.8984 2.1484-2.1484 5.6445-2.1484 7.7969 0 2.1484 2.1484 2.1484 5.6445 0 7.7969-1.0742 1.0742-2.4883 1.6094-3.8984 1.6094z" />
        <path
            d="m35.141 70.746c0.66406 0 1.3398 0.27734 1.9883 0.83984 3.2734 2.8242 5.6406 4.5625 9.9141 4.2539 0.19922-2.0742 0.55469-3.7617 1.0703-5.0977-0.65625 0.15234-1.4258 0.58594-2.2617 1.6094-0.066406 0.082032-0.14453 0.15234-0.23047 0.20313-0.76953 0.48828-1.9844 0.19531-3.6094-0.875-1.7812-1.1719-4.6914-3.8086-4.2969-6.2656 0.13281-0.82812 0.15234-1.9531-0.51562-2.6172-0.66406-0.66406-1.7891-0.64844-2.6172-0.51562-2.457 0.39062-5.0977-2.5195-6.2656-4.2969-1.0703-1.625-1.3672-2.8398-0.875-3.6094 0.054688-0.089844 0.125-0.16406 0.20312-0.23047 1.0234-0.83594 1.457-1.6055 1.6094-2.2617-1.3359 0.51953-3.0234 0.87109-5.0977 1.0742-0.30859 4.2734 1.4297 6.6406 4.2539 9.9141 0.88281 1.0234 1.0664 2.1172 0.55859 3.1133l5.043 5.043c0.36328-0.1875 0.74219-0.27734 1.125-0.27734zm10.965 7.0547c-4.3438 0-7.043-2.0078-10.23-4.7578-0.60938-0.52734-0.90625-0.44141-1.3008-0.066407-0.37891 0.35938-0.97266 0.35156-1.3438-0.019531l-6.1875-6.1875c-0.37109-0.37109-0.37891-0.96484-0.019531-1.3438 0.375-0.39453 0.46094-0.69141-0.066407-1.3008-3.1367-3.6367-5.3086-6.6406-4.6328-12.18 0.054687-0.45703 0.42578-0.8125 0.88672-0.84375 2.957-0.22266 5.1328-0.74609 6.4688-1.5586 0.26562-0.16016 0.59375-0.18359 0.87891-0.0625 0.28906 0.12109 0.49609 0.375 0.5625 0.67578 0.30078 1.3477 0.19141 3.3242-1.9609 5.2344 0.15234 0.6875 1.2109 2.4609 2.7109 3.793 0.94531 0.83984 1.8477 1.2852 2.4102 1.1953 2.3047-0.36719 3.6016 0.37109 4.2852 1.0547s1.4219 1.9805 1.0547 4.2852c-0.089844 0.5625 0.35547 1.4648 1.1953 2.4102 1.332 1.5 3.1016 2.5625 3.7891 2.7148 1.9102-2.1523 3.8867-2.2617 5.2344-1.9609 0.30469 0.066407 0.55469 0.27734 0.67578 0.5625 0.12109 0.28516 0.097656 0.61328-0.0625 0.87891-0.8125 1.3359-1.3359 3.5117-1.5586 6.4688-0.035156 0.46094-0.38672 0.82812-0.84375 0.88672-0.6875 0.085937-1.332 0.125-1.9492 0.125z" />
        <path
            d="m39.676 69.227c-0.24609 0-0.49219-0.09375-0.68359-0.28125-0.375-0.37891-0.375-0.98828 0-1.3633 29.672-29.66 47.211-49.406 52.227-58.801-9.3945 5.0156-29.141 22.555-58.801 52.227-0.37891 0.37891-0.98438 0.37891-1.3633 0.003907-0.375-0.37891-0.375-0.98828 0-1.3633 32.992-33.004 53.203-50.578 61.789-53.727 0.35547-0.12891 0.74609-0.042969 1.0156 0.22266 0.26562 0.26562 0.35156 0.66016 0.22266 1.0156-3.1445 8.5859-20.723 28.797-53.727 61.789-0.1875 0.1875-0.43359 0.28125-0.67969 0.28125z" />
        <path
            d="m37.887 63.082c-0.24609 0-0.49609-0.09375-0.67969-0.28125-0.37891-0.375-0.37891-0.98438 0-1.3633l55.293-55.293c0.375-0.375 0.98438-0.375 1.3633 0 0.375 0.37891 0.375 0.98828 0 1.3633l-55.293 55.293c-0.1875 0.1875-0.4375 0.28125-0.68359 0.28125z" />
        <path
            d="m34.07 64.898c-0.27344 0-0.53125 0.10937-0.72656 0.30469s-0.30469 0.45312-0.30469 0.72656c0 0.27344 0.10938 0.53516 0.30469 0.73047 0.40234 0.40234 1.0547 0.40234 1.457 0 0.19531-0.19531 0.30078-0.45312 0.30078-0.73047 0-0.27344-0.10547-0.53125-0.30078-0.72656-0.19531-0.19531-0.45312-0.30469-0.73047-0.30469zm0 3.9883c-0.75781 0-1.5156-0.28906-2.0898-0.86719-0.55859-0.55859-0.86719-1.3008-0.86719-2.0938 0-0.78906 0.30859-1.5312 0.86719-2.0898 0.55859-0.55859 1.3008-0.86719 2.0898-0.86719 0.79297 0 1.5352 0.30859 2.0938 0.86719 0.55859 0.55859 0.86719 1.3008 0.86719 2.0898 0 0.79297-0.30859 1.5352-0.86719 2.0938-0.57422 0.57812-1.332 0.86719-2.0898 0.86719z" />
        <path
            d="m30.102 77.551c-0.24609 0-0.49219-0.09375-0.68359-0.28125l-6.6836-6.6836c-0.37891-0.375-0.37891-0.98438 0-1.3633 0.375-0.375 0.98438-0.375 1.3633 0l6.6836 6.6836c0.37891 0.37891 0.37891 0.98828 0 1.3633-0.1875 0.1875-0.43359 0.28125-0.67969 0.28125z" />
        <path
            d="m25.82 81.383c-0.24609 0-0.49609-0.09375-0.68359-0.28125l-6.2344-6.2344c-0.37891-0.37891-0.37891-0.98828 0-1.3633 0.375-0.37891 0.98438-0.375 1.3633 0l6.2383 6.2344c0.375 0.37891 0.375 0.98828 0 1.3633-0.1875 0.1875-0.4375 0.28125-0.67969 0.28125z" />
        <path
            d="m21.094 84.773c-0.24609 0-0.49219-0.09375-0.68359-0.28125l-4.9023-4.9023c-0.375-0.37891-0.375-0.98828 0-1.3633 0.375-0.37891 0.98438-0.37891 1.3633 0l4.9023 4.9023c0.37891 0.37891 0.37891 0.98438 0 1.3633-0.1875 0.1875-0.43359 0.28125-0.67969 0.28125z" />
    </g>
</svg>
