<svg xmlns="http://www.w3.org/2000/svg" viewBox="19 19 512 512">
    <g transform="scale(1.074)">
        <path d="M81.79,396.81C104.84,413,149.71,426.36,237,415c7.11-.93,7.25-11.19.16-12.31-27-4.29-61.38-11.47-86.4-22.63-18.68-8.33-20.38-34.17-3-45,8.26-5.16,19.55-10.42,35-15.23,6.46-2,4.78-11.63-2-11.32-30.83,1.42-70.75,7.65-99.19,28A36.81,36.81,0,0,0,81.79,396.81Z" />
        <ellipse cx="305.36" cy="318.54" rx="14.28" ry="11.57" />
        <path d="M373.37,371.11c-13,9.54-33.47,19.5-60.43,28.29-5.86,1.91-4.32,10.58,1.83,10.32,37-1.57,84.67-7.43,114.56-25.66,11.18-6.82,17.87-19.4,16.56-32.43-1.41-14.08-12.11-30.23-50.63-36.36,0,0-18.33-3.44-42.9-1.3-9,.79-10.85,13.3-2.37,16.45,5.95,2.22,12.68,3.71,19.65,6.7C383.61,343.11,385.62,362.09,373.37,371.11Z" />
    </g>
</svg>
