<svg xmlns="http://www.w3.org/2000/svg" xmlns:xlink="http://www.w3.org/1999/xlink" version="1.1" x="0px" y="0px" viewBox="0 0 100 125" enable-background="new 0 0 100 100" xml:space="preserve"><g><path d="M96.954,24.904L86.003,14.448l0.896-8.663l-26.42,24.187c2.314,2.973,6.372,5.573,10.806,6.93   c3.269,1,6.854,0.675,8.354,0.657l-1.143,2.629c0,0-5.029,0.114-7.94-0.829c-4.544-1.472-8.784-4.051-11.481-7.115l0.008,14.67   H48.702v8.609h3.805v3.05H41.533v-3.05h4.312v-8.609h-9.395V34.773H10.909c-2.858,0-5.28,1.018-7.273,3.05   c-1.993,2.04-2.986,4.487-2.986,7.334v17.378h7.323V45.401l3.793-5.866V61.14l-3.793,5.983l0.032,23.779   c0,2.122,1.718,3.841,3.84,3.841c2.122,0,3.84-1.719,3.84-3.841l0.029-19.268l-0.022-0.018l14.953-18.076l1.708,1.38L20.943,68.713   l9.391,23.936c0.769,1.973,2.991,2.955,4.966,2.191c1.983-0.766,2.961-2.991,2.193-4.97l-7.655-19.512l5.748-7.754l23.505,0.007   l0.011,28.291c0,2.122,1.718,3.841,3.84,3.841s3.84-1.719,3.84-3.841V66.88l11.695-26.684c1.193-0.097,2.354-0.261,3.437-0.576   c3.608-1.057,6.062-3.214,6.915-6.083c0.111-0.368,0.161-0.75,0.215-1.132l4.766,1.118c1.394,0.232,2.65-0.096,3.779-0.986   c1.133-0.893,1.689-2.04,1.689-3.439C99.276,27.314,98.502,25.915,96.954,24.904z M86.377,32.809   c-0.6,2.004-2.439,3.551-5.187,4.351c-0.481,0.144-1.004,0.215-1.518,0.304l2.882-6.576l4.001,0.936   C86.527,32.158,86.47,32.491,86.377,32.809z"/></g><text x="0" y="115" fill="#000000" font-size="5px" font-weight="bold" font-family="'Helvetica Neue', Helvetica, Arial-Unicode, Arial, Sans-serif">Created by Luis Prado</text><text x="0" y="120" fill="#000000" font-size="5px" font-weight="bold" font-family="'Helvetica Neue', Helvetica, Arial-Unicode, Arial, Sans-serif">from the Noun Project</text></svg>