<svg xmlns="http://www.w3.org/2000/svg" version="1.1" viewBox="-5.0 -10.0 110.0 135.0">
    <path
        d="m35.328 75.414c-4.2461-2.4336-6.7617-6.9141-6.7383-11.68l-5.0742 7.9336-0.046875 0.082031-0.003906-0.003906-10.141 15.852c-1.0039 1.5703-1.707 3.6797-1.7656 5.4883-0.050782 1.4961 0.32812 2.793 1.3906 3.3789 3.2578 1.7891 7.1445-2.5938 9.2031-5.2109 4.5469-5.793 8.8555-9.9922 13.176-15.84zm33.164-34.789 3.543 3.5391 0.44531 0.4375c1.0586 1.4844 2.9453 2.1797 4.7305 1.6992l14.039-3.7617c1.168-0.3125 2.1055-1.0781 2.668-2.0547h0.003906c1.2148-2.1133 0.5-4.7891-1.6133-6.0117-1.0703-0.61719-2.1445-0.72656-3.3945-0.42969l-10.828 2.9062c-0.36328 0.11719-0.77344 0.03125-1.0625-0.25391l-6.3828-6.3828c0.51953 3.3008-0.32031 6.9688-2.1484 10.312zm-22.355-6.5703h7.293c1.3789 0 1.3789-2.0938 0-2.0938h-12.781c-0.42188 0-0.78516 0.25-0.95313 0.61328l-5.6094 9.7148h-0.003907c-0.60547 1.0469-1.5859 1.7539-2.6758 2.0469-3.8359 1.0273-6.8828-3.1172-4.957-6.4492l7.2656-12.586c0.92578-1.6016 2.7539-2.4375 4.5547-2.1406 0.085938 0.011719 0.17188 0.019532 0.25391 0.011719v0.003906c0.10156-0.007812 0.16797-0.011719 0.18359-0.015625h19.863c0.082032 0.019532 0.16406 0.027344 0.25 0.027344 2.0742-0.019531 3.9805 0.51172 5.7969 1.5586v0.003906c5.4727 3.2617 4.7773 10.18 1.8164 15.281l-0.15625 0.26953-15.734 26.383c-0.31641 0.51562-0.14453 1.168 0.36719 1.4609l9.6797 5.5273c4.0859 2.332 3.8984 8.2305-0.058594 10.559v-0.003907l-16.305 9.418c-1.5703 0.9375-3.9258 1.7031-5.7344 1.8438-1.5 0.11719-2.7383-0.125-3.2344-0.96484h0.003907l-0.03125-0.058594c-1.7188-3.3008 0.69531-5.0703 3.3242-7l9.6016-7.1484c0.66016-0.49219 0.51172-1.5-0.22266-1.8008l-10.637-4.4375c-0.35547-0.16016-0.69141-0.33203-1.0117-0.51562-5.332-3.0781-7.1953-9.9766-4.1094-15.324h0.003907zm32.977-27.793c-4.1914-4.1914-10.988-4.1914-15.176 0-4.1914 4.1914-4.1914 10.988 0 15.176 4.1914 4.1914 10.984 4.1914 15.176 0 4.1875-4.1875 4.1875-10.984 0-15.176zm-29.484 7.5156c1.3789 0 1.3789 2.0938 0 2.0938h-26.004c-1.3789 0-1.3789-2.0938 0-2.0938zm-25.195 34.18h-12.957c-1.3789 0-1.3789 2.0938 0 2.0938h12.957c1.3789 0 1.3789-2.0938 0-2.0938zm-5.207 5.2617c1.3789 0 1.3789 2.0938 0 2.0938l-12.707-0.003906c-1.3789 0-1.3789-2.0938 0-2.0938zm20.387-44.328c1.3789 0 1.3789 2.0938 0 2.0938l-27.102-0.003906c-1.3789 0-1.3789-2.0938 0-2.0938z"
        fill-rule="evenodd" />
</svg>
