<svg xmlns="http://www.w3.org/2000/svg" version="1.1" viewBox="51 51 512 512">
    <g transform="scale(9.6)">
        <circle cx="20.65111" cy="11.04931" r="5.39159" />
        <path d="M22.75951,25.33929l.44.48-4.2,3.31a3.42823,3.42823,0,0,1-4.28-.03l-7.62-6.14a1.61769,1.61769,0,0,1-.31995-2.17,1.60518,1.60518,0,0,1,2.23-.45l6.9,4.52a.67663.67663,0,0,0,.82-.05l4.39-3.69A6.26539,6.26539,0,0,0,22.75951,25.33929Z" />
        <path d="M56.50244,56.34229h-4.139a1.619,1.619,0,0,0-.3139-1.803l-7.08-7.45a3.95959,3.95959,0,0,1-.93994-1.56l-3.23-9.58a5.64743,5.64743,0,0,1-1.53,1.47,13.84214,13.84214,0,0,1-3.98,1.69l3.18,7.73a4.89894,4.89894,0,0,0,1.39,1.89l9.18554,7.613H32.75244a1,1,0,0,0,0,2h23.75a1,1,0,0,0,0-2Z" />
        <path d="M29.2329,58.34228h-3.46a1,1,0,1,1,0-2h3.46a1,1,0,0,1,0,2Z" />
        <path d="M22.50243,58.34228h-2a1,1,0,0,1,0-2h2a1,1,0,1,1,0,2Z" />
        <path d="M43.7661,8.773H33.23876a1,1,0,0,1,0-2H43.7661a1,1,0,0,1,0,2Z" />
        <path d="M50.00243,8.773h-3a1,1,0,0,1,0-2h3a1,1,0,0,1,0,2Z" />
        <path d="M55.50243,8.773h-2a1,1,0,0,1,0-2h2a1,1,0,0,1,0,2Z" />
        <path d="M50.64952,24.18933a1.705,1.705,0,0,1-1.33.64,1.73137,1.73137,0,0,1-.97-.3l-5.75-4.55a2.27625,2.27625,0,0,0-2-.4l-6.46.55a.30718.30718,0,0,0-.24.45l5.55,10.05a3.88088,3.88088,0,0,1-1.27,5.11,12.11455,12.11455,0,0,1-3.65,1.5c-.99005.26-2,.45-2.97.61l-4.51.59a.81855.81855,0,0,0-.72,1.12l4.58,11.29a1.61667,1.61667,0,0,1-.67,2,1.58824,1.58824,0,0,1-.84.23,1.63253,1.63253,0,0,1-1.38-.76l-7.97-12.84a3.00768,3.00768,0,0,1,1.16-4.25l8.12-3.4a1.12664,1.12664,0,0,0,.4-1.79l-4.96-5.45-.53-.59a4.303,4.303,0,0,1-.53-5.06l.00995-.01a2.9161,2.9161,0,0,1,.19-.29l.54-.76a6.07167,6.07167,0,0,1,4.72-2.59l13.55-.62a1.9866,1.9866,0,0,1,1.54.62l6.25,6.64A1.71057,1.71057,0,0,1,50.64952,24.18933Z" />
    </g>
</svg>
