<svg xmlns="http://www.w3.org/2000/svg" version="1.1" viewBox="22 22 512 512">
    <path transform="scale(21)"
        d="m22.437 1.1906-3.3504 2.9134 0.42357 0.32396a0.10666 0.10666 0 0 1 0.01993 0.14951l-0.15287 0.19988 0.39697 0.30361 0.15312-0.20021a0.10666 0.10666 0 0 1 0.14951-0.019924l0.42391 0.32422zm-4.2013 1.493c-1.3373 0.32147-2.4817 1.1759-3.1271 2.0704a0.10666 0.10666 0 0 1-0.0037 0.00483c-0.69434 0.85713-1.2189 2.1852-1.179 3.5601 0.2802-0.59265 0.65228-1.1746 1.2913-1.7229a0.10666 0.10666 0 0 1 0.13448-0.00361l1.9511 1.4922c0.11843 0.090578 0.24714 0.15666 0.38125 0.20163a0.10666 0.10666 0 0 1 0.0025 0.00193c0.41318 0.13758 0.87147 0.059248 1.2175-0.21243a0.10666 0.10666 0 0 1 0.13068-7.538e-4l0.4988 0.38149a0.10666 0.10666 0 0 1 0.01992 0.14951l-0.30232 0.39528 1.9902 0.4485-0.953-1.8056-0.30219 0.39511a0.10666 0.10666 0 0 1-0.14951 0.019923l-0.49847-0.38123a0.10666 0.10666 0 0 1-0.03349-0.12632c0.17045-0.40298 0.12782-0.86286-0.10971-1.2247a0.10666 0.10666 0 0 1-0.0065-0.00735c-0.07853-0.11765-0.17588-0.22473-0.29431-0.31531l-1.9511-1.4922a0.10666 0.10666 0 0 1-0.03172-0.13074c0.3618-0.76026 0.82588-1.2719 1.3245-1.6975zm0.84044 2.1326-0.51087 0.66796 0.45831 0.35052c0.0968 0.07409 0.18143 0.15761 0.25455 0.24792l0.53656-0.70155zm-1.5963 3.6188c-0.10649-0.047031-0.2094-0.10664-0.30639-0.18083l-0.45848-0.35065-1.3609 1.7793 0.73905 0.56524zm-2.6465 1.1181-0.28624 0.37426 1.5216 1.1638 0.28624-0.37426-0.30675-0.23461-0.03143-0.02404-0.84545-0.64662zm-0.0247 0.84283-2.0195 2.6406 0.73922 0.56537 2.0195-2.6406zm-2.1491 2.81-0.14514 0.18978 0.73922 0.56537 0.14514-0.18978zm-0.27473 0.35921-2.4703 3.2299 0.73922 0.56537 2.4703-3.2299zm-2.5999 3.3993-0.14502 0.18962 0.73922 0.56537 0.14502-0.18962zm-0.27461 0.35905-2.4703 3.2299 0.73922 0.56537 2.4703-3.2299zm-2.5999 3.3993-0.14502 0.18962 0.73922 0.56537 0.14502-0.18962zm-0.27461 0.35905-2.0197 2.6407 0.73922 0.56537 2.0197-2.6407zm-1.8831 3.0137-0.15275 0.19972a0.10666 0.10666 0 0 1-0.14951 0.01992l-0.21374-0.16347-0.21494 1.1156 1.0182-0.50022-0.21374-0.16347a0.10666 0.10666 0 0 1-0.019923-0.14951l0.15325-0.20038z"
        color="#000000" stroke-linecap="round" stroke-linejoin="round" stroke-width=".26458"
        style="paint-order:fill markers stroke;" />
</svg>
