<svg xmlns="http://www.w3.org/2000/svg" version="1.1" viewBox="25 25 512 512">
    <g transform="scale(1.1)">
        <path d="M120.91,105.1l-11.22,6.69a11.88,11.88,0,0,0-5.56,12.59c7.84,38.1,30.83,70.29,60.62,85.17a6,6,0,0,0,8.51-4,208.78,208.78,0,0,0,3.64-21.85,5.86,5.86,0,0,0-2.84-5.68c-32.22-19.14-44.38-57.28-47.76-70.67A3.63,3.63,0,0,0,120.91,105.1Z" />
        <path d="M142.47,256.74a6.3,6.3,0,0,0,8.53-1.47,87.39,87.39,0,0,0,9.07-15.61,9.35,9.35,0,0,0-3-11.4c-12.54-9.18-36.69-28.87-52.56-54.29a4.77,4.77,0,0,0-8.62,1.18c-2.44,8.38-4.17,15.78-5.25,20.88a19.53,19.53,0,0,0,2.5,14.43C106.29,231.49,131.83,249.72,142.47,256.74Z" />
        <path d="M339,99.83a11.2,11.2,0,0,0-14.06,1.85c-8.33,9-26.3,23.31-56.15,23.31s-47.82-14.33-56.15-23.31a11.19,11.19,0,0,0-14.06-1.85l-37.78,23.29a10.37,10.37,0,0,0-3.55,14c16.77,29.3,55,41.4,71.89,45.45a21.87,21.87,0,0,0,15.21-1.89L261,172a16.78,16.78,0,0,1,15.5,0l16.69,8.66a21.87,21.87,0,0,0,15.21,1.89c16.89-4,55.12-16.15,71.89-45.45a10.36,10.36,0,0,0-3.55-14Z" />
        <path d="M433.39,124.38a11.88,11.88,0,0,0-5.56-12.59l-11.22-6.69a3.62,3.62,0,0,0-5.38,2.22c-3.39,13.39-15.55,51.53-47.76,70.67a5.87,5.87,0,0,0-2.85,5.68,208.78,208.78,0,0,0,3.64,21.85,6,6,0,0,0,8.51,4C402.56,194.67,425.55,162.48,433.39,124.38Z" />
        <path d="M441.64,175.15A4.77,4.77,0,0,0,433,174c-15.87,25.42-40,45.11-52.56,54.29a9.35,9.35,0,0,0-3,11.4,87.39,87.39,0,0,0,9.07,15.61,6.3,6.3,0,0,0,8.53,1.47c10.64-7,36.18-25.25,49.35-46.28A19.57,19.57,0,0,0,446.89,196C445.81,190.93,444.09,183.53,441.64,175.15Z" />
        <path d="M216.4,452.94A10.79,10.79,0,0,0,228.31,449c6-8.29,19.18-22,40.45-22s34.43,13.68,40.45,22a10.79,10.79,0,0,0,11.91,3.92,207,207,0,0,0,59.65-29.39,6.91,6.91,0,0,0,1.08-10.26,101.92,101.92,0,0,1-18.7-29.16,6.34,6.34,0,0,0-8.95-3.07c-25.08,14.16-64.48,23.72-79.42,27a28.1,28.1,0,0,1-12,0c-14.94-3.29-54.34-12.85-79.42-27a6.34,6.34,0,0,0-8.95,3.07,101.7,101.7,0,0,1-18.7,29.16,6.92,6.92,0,0,0,1.08,10.26A207.09,207.09,0,0,0,216.4,452.94Z" />
        <path d="M58.28,32.15c2.37,15.33,11.82,39.2,29.31,52.28a2.92,2.92,0,0,1-.27,4.74c-7.68,4.26-20.66,18.16-27.69,47.49a1.58,1.58,0,0,1-3.15-.21c-1.63-14-7-35.22-24.76-44.16a4.41,4.41,0,0,1-1-6.88C38.15,78,51.56,68.63,55.67,32.18A1.31,1.31,0,0,1,58.28,32.15Z" />
        <path d="M95.15,375.22c2.38,15.33,11.83,39.2,29.32,52.28a2.93,2.93,0,0,1-.27,4.74c-7.68,4.26-20.67,18.16-27.69,47.49a1.59,1.59,0,0,1-3.16-.21c-1.62-14-7-35.22-24.76-44.16a4.41,4.41,0,0,1-1-6.88c7.4-7.38,20.81-16.78,24.92-53.23A1.31,1.31,0,0,1,95.15,375.22Z" />
        <path d="M452.08,299.88c2.38,15.33,11.83,39.21,29.32,52.28a2.92,2.92,0,0,1-.27,4.74c-7.68,4.27-20.67,18.17-27.69,47.5a1.59,1.59,0,0,1-3.16-.22c-1.62-14-7-35.22-24.76-44.16a4.4,4.4,0,0,1-1-6.88c7.4-7.38,20.81-16.78,24.91-53.23A1.31,1.31,0,0,1,452.08,299.88Z" />
        <path d="M384.71,286.46c-28.61-31.63-37.08-79.25-39.29-96.65a4.57,4.57,0,0,0-6.58-3.5c-11.12,5.43-24.35,9.08-32.36,11A19.47,19.47,0,0,1,293,195.66l-16.51-8.53a16.83,16.83,0,0,0-15.44,0l-16.48,8.52A19.59,19.59,0,0,1,231,197.3c-8-1.91-21.24-5.57-32.35-11a4.57,4.57,0,0,0-6.58,3.5c-2.21,17.4-10.68,65-39.29,96.65a9.48,9.48,0,0,0-.19,12.5c8.67,10.2,24.45,31.78,29.34,58.59a14.47,14.47,0,0,0,7.68,10.35C201,373.64,225.3,385,251.3,391.24a74.93,74.93,0,0,0,34.92,0c26-6.24,50.31-17.6,61.66-23.34a14.47,14.47,0,0,0,7.68-10.35c4.9-26.81,20.67-48.39,29.34-58.59A9.48,9.48,0,0,0,384.71,286.46Zm-56.42-6.14c-6.72,3.73-18.1,15.91-24.26,41.61a1.39,1.39,0,0,1-2.76-.19c-1.42-12.24-6.18-30.86-21.7-38.69a3.86,3.86,0,0,1-.84-6c6.48-6.46,18.23-14.7,21.83-46.63a1.14,1.14,0,0,1,2.28,0c2.09,13.43,10.37,34.35,25.69,45.8A2.57,2.57,0,0,1,328.29,280.32Z" />
    </g>
</svg>
