<svg xmlns="http://www.w3.org/2000/svg" viewBox="25 25 512 512">
    <g transform="scale(1.1)">
        <path d="M42,481.54a251.42,251.42,0,0,1,55.7-25.84,170.43,170.43,0,0,1,56.25-7.31c33.26,1.06,141.78-1.81,217.23-77.26s78.32-184,77.26-217.23a170.43,170.43,0,0,1,7.31-56.25A251.42,251.42,0,0,1,481.54,42a8.35,8.35,0,0,0-7.69-12.74c-11.53.87-17.57,7.67-17.57,7.67l-9.64,9.64a.63.63,0,0,0-.12.11l-222,222a10.63,10.63,0,0,0-.53,14.69,10.34,10.34,0,0,0,14.84.23L399.77,122.59a3.93,3.93,0,0,1,6.66,3.32l0,.13a654.64,654.64,0,0,1-19.44,97A238.68,238.68,0,0,1,223.08,387a654.64,654.64,0,0,1-97,19.44l-.13,0a3.93,3.93,0,0,1-3.32-6.66L168,354.32a10.62,10.62,0,0,0,.53-14.69,10.33,10.33,0,0,0-14.83-.23L46.25,446.89l-.11.12-9.26,9.27s-6.8,6-7.67,17.57A8.35,8.35,0,0,0,42,481.54Z" />
        <path d="M207.38,303.24a10.57,10.57,0,0,0-1.29-1.58,10.1,10.1,0,0,0-1.57-1.28,9.3,9.3,0,0,0-1.79-.95,9.8,9.8,0,0,0-1.93-.59,9.65,9.65,0,0,0-2-.2,9.82,9.82,0,0,0-2,.2,10.23,10.23,0,0,0-1.93.59,10.64,10.64,0,0,0-3.36,2.23,10.28,10.28,0,0,0-1.28,1.58,10.1,10.1,0,0,0-.95,1.78,10.89,10.89,0,0,0-.6,1.94,10.73,10.73,0,0,0,0,4,10.54,10.54,0,0,0,.6,1.93,9.3,9.3,0,0,0,.95,1.79,10.7,10.7,0,0,0,1.28,1.57,11.1,11.1,0,0,0,1.58,1.29,10.8,10.8,0,0,0,1.78.95,9.62,9.62,0,0,0,1.92.58,9.33,9.33,0,0,0,2,.21,10.46,10.46,0,0,0,2-.2,9.8,9.8,0,0,0,1.93-.59,10.51,10.51,0,0,0,1.79-.95,10.25,10.25,0,0,0,2.86-2.86,10.51,10.51,0,0,0,1-1.79,9.8,9.8,0,0,0,.59-1.93,10.46,10.46,0,0,0,.2-2,9.33,9.33,0,0,0-.21-2,9.62,9.62,0,0,0-.58-1.92A10.8,10.8,0,0,0,207.38,303.24Z" />
    </g>
</svg>
