<svg xmlns="http://www.w3.org/2000/svg" viewBox="-7 -7 512 512">
    <g transform="scale(3.7)">
        <path d="m.47,131.04c-.3.3-.47.7-.47,1.13s.17.83.47,1.13l1.53,1.53c.31.31.72.47,1.13.47s.82-.16,1.13-.47l54.09-54.09-3.79-3.79L.47,131.04Z" />
        <path d="m134.84,1.98l-1.53-1.53c-.6-.61-1.66-.61-2.26,0l-54.09,54.09,3.79,3.79L134.84,4.24c.3-.3.47-.7.47-1.13s-.17-.83-.47-1.13Z" />
        <path d="m56.09,75.82c.74,1.48,1.49,2.96,2.23,4.45l2.39-2.39-3.34-3.34c-.43.43-.86.86-1.28,1.28Z" />
        <path d="m61.62,70.3c.77,1.46,1.53,2.92,2.3,4.38l2.39-2.39-3.34-3.34c-.45.45-.9.9-1.35,1.35Z" />
        <path d="m63.37,68.54l3.34,3.34c.4-.4.8-.8,1.19-1.19-.72-1.51-1.43-3.02-2.15-4.53l-2.39,2.39Z" />
        <path d="m57.78,74.13l3.34,3.34c.4-.4.8-.8,1.19-1.19-.72-1.51-1.43-3.02-2.15-4.53l-2.39,2.39Z" />
        <path d="m67.27,64.64c.74,1.48,1.49,2.96,2.23,4.45l2.39-2.39-3.34-3.34-1.28,1.28Z" />
        <path d="m72.8,59.12c.77,1.46,1.53,2.92,2.3,4.38l2.39-2.39-3.34-3.34c-.45.45-.9.9-1.35,1.35Z" />
        <path d="m74.55,57.36l3.34,3.34c.4-.4.8-.8,1.19-1.19-.72-1.51-1.43-3.02-2.15-4.53l-2.39,2.39Z" />
        <path d="m68.96,62.95l3.34,3.34c.4-.4.8-.8,1.19-1.19-.72-1.51-1.43-3.02-2.15-4.53l-2.39,2.39Z" />
    </g>
</svg>
