<svg xmlns="http://www.w3.org/2000/svg" version="1.1" viewBox="91 91 512 512">
    <g transform="scale(6.95)">
        <path d="M49.971,24.856c0.011,0,0.02-0.002,0.029-0.004c0.01,0.002,0.019,0.004,0.028,0.004c3.15,0,5.709-2.559,5.709-5.707  s-2.559-5.707-5.709-5.707c-0.01,0-0.019,0.001-0.028,0.003c-0.01-0.002-0.019-0.003-0.029-0.003c-3.149,0-5.708,2.559-5.708,5.707  S46.821,24.856,49.971,24.856z M55.843,27.907H44.157c-4.132,0-6.792,2.508-6.792,6.39v16.029c0,1.495,1.016,2.576,2.355,2.576  c1.376,0,2.619-0.924,2.619-2.562l-0.003-14.865h1.14v48.326c0,1.573,1.279,2.756,2.754,2.756c1.576,0,2.756-1.281,2.756-2.756  V64.119h2.027v19.683c0,1.475,1.18,2.756,2.756,2.756c1.475,0,2.754-1.183,2.754-2.756V35.476h1.112l0.024,14.865  c0,1.638,1.243,2.562,2.619,2.562c1.34,0,2.354-1.081,2.354-2.576V34.297C62.634,30.415,59.975,27.907,55.843,27.907z"/>
    </g>
</svg>
