<svg xmlns="http://www.w3.org/2000/svg" version="1.1" viewBox="-5.0 -10.0 110.0 135.0">
    <g>
        <path d="m49.801 79.301c-0.89844-1.1016-1.6016-2.1992-2.3008-3.3008-2.3008-3.3008-4.6016-6.6992-6.8984-10.102-0.89844-1.3008-1.6016-2.8008-2-4.3984-0.10156-0.30078-0.19922-0.39844-0.39844-0.60156-6.8008-4.6992-10.5-11.301-12.301-19.199-0.69922-3-0.80078-6.1016-0.69922-9.1992 0-0.5 0.19922-0.5 0.60156-0.5h22.301 26.102c0.89844 0 0.89844 0 1 0.89844 0.19922 6.3008-1 12.301-4.1016 17.898-2.1016 3.8984-4.8008 7.1992-8.5 9.6992-0.60156 0.39844-0.80078 0.89844-1 1.5-0.5 2.1992-1.8984 4-3.1992 5.8008-2.5 3.3008-4.8984 6.6016-7.3984 9.8984-0.40625 0.60547-0.80859 1.1055-1.207 1.6055zm-3-43.602v0c-4.6992 0.10156-9.3984 0.10156-14.102 0-0.60156 0-0.80078 0.10156-0.69922 0.69922v5.1992c0 0.39844 0.10156 0.60156 0.5 0.69922 5.3008 1.3008 10.602 2.3984 15.898 3.6016 0.80078 0.19922 1.5 0.39844 2.3008 0.19922 1-0.19922 2.1016-0.39844 3.1016-0.60156 3.6016-0.80078 7.1992-1.5 10.801-2.3008 0.30078-0.10156 0.60156-0.10156 0.39844-0.5-1.1992-2.1992-2.3008-4.3984-3.3984-6.6016-0.19922-0.30078-0.39844-0.39844-0.80078-0.39844-4.6016 0.003907-9.3008 0.003907-14 0.003907z"/>
        <path d="m64.102 27.301c0.69922-0.69922 1.3984-1.3008 2.1016-1.8984-5.1992 3.5-10.801 5.3984-17.102 5.3984 2.3984-2 4.3984-4.3008 6.1016-7-1.6016 0.89844-3.3008 1.6016-5 2.1016-5.3008 1.8008-10.699 2.1992-16.199 1.8984-2.5-0.10156-5.1016-0.39844-7.6016-0.5-0.89844 0-0.89844 0-0.69922-0.89844 0.80078-3.6016 2.1992-7 4.3984-10 5.3008-6.8984 12.301-10.199 21-10 11.297 0.39844 19.898 7.7969 23 17.996 0.30078 0.80078 0.5 1.6992 0.60156 2.6016 0 0.30078 0.10156 0.39844-0.30078 0.39844h-10.199c-0.003906 0-0.003906 0-0.10156-0.097657z"/>
        <path d="m88.699 75.199c-4.3008 5.6992-9.1016 10.699-15.199 14.398-5.8008 3.5-12 5.6992-18.801 6.3984-3.1992 0.30078-6.3984 0.30078-9.6016-0.10156-0.60156-0.10156-0.60156-0.19922-0.30078-0.60156 3.5-4.8008 7-9.6016 10.5-14.398 3.6016-5 7.1992-10.102 10.801-15.199 0.30078-0.39844 0.60156-0.89844 1-1.3984 0.60156 1.1992 1.1016 2.3008 1.6016 3.5 0.19922 0.39844 0.39844 0.60156 0.80078 0.80078 5.8008 2 11.602 4.1016 17.398 6.1016 0.70312 0 1.3008 0.19922 1.8008 0.5z"/>
        <path d="m33.102 64.102c1 1.5 1.8984 2.8984 2.8984 4.3008 3.3008 4.8984 6.6016 9.8984 10 14.801 0.30078 0.39844 0.39844 0.69922 0 1.1016-2.5 3.1992-4.8984 6.6016-7.5 9.8008-0.19922 0.30078-0.39844 0.30078-0.69922 0.19922-10.102-3.1992-18.398-9-24.898-17.398-0.39844-0.5-0.69922-0.89844-1.1016-1.3984-0.30078-0.30078-0.30078-0.5 0.19922-0.60156 3.8008-1.3008 7.5-2.6016 11.301-3.8984 2.5-0.89844 5-1.6992 7.5-2.6016 0.30078-0.10156 0.5-0.30078 0.60156-0.60156 0.49609-1.3047 1.0977-2.4062 1.6992-3.7031z"/>
        <path d="m79.199 33.199c1.3984 0.80078 2.6016 1.6016 3.6992 2.5 2.8984 2.3984 5.1016 5.3008 7 8.5 0.69922 1.1992 1 2.3008 1 3.6992-0.10156 2.6016 0 5.1992 0 7.8008v0.89844c-1.1016-1.3008-1.8984-2.6016-2.6992-3.8984-1.6016-2.5-2.8008-5.1992-4.3984-7.6992-1.3984-2.3008-3.1016-4.3984-5-6.1992-0.39844-0.39844-0.60156-0.80078-0.60156-1.3984v-8.6992c0-0.39844 0.10156-0.60156 0.5-0.80078 3.8984-1.5 7.6992-3 11.602-4.6016 0.39844-0.19922 0.60156-0.19922 0.60156 0.39844 0 1.3008-0.10156 2.5 0 3.8008 0 0.69922-0.30078 1.1016-0.89844 1.3008-3.1016 1.1992-6.1016 2.3984-9.1992 3.6016-0.60547 0.29688-1.0039 0.49609-1.6055 0.79688z"/>
        <path d="m82.398 66.5c-1.3984-1.8008-2.6992-3.3984-4-5-0.30078-0.39844-0.19922-0.80078-0.19922-1.1992v-11.199-7.3008c0-0.19922 0-0.30078 0.19922-0.5 0.39844 0.69922 0.89844 1.3008 1.1992 2 0.89844 1.6992 1.8008 3.5 2.6992 5.3008 0.10156 0.19922 0.19922 0.39844 0.19922 0.69922v16.801c-0.097656-0.10156-0.097656 0.097657-0.097656 0.39844z"/>
        <path d="m46.602 38.699c-0.69922 0.60156-1.3008 1.1016-2 1.6016-0.60156 0.5-1.1992 0.80078-2 0.89844-1.8008 0.19922-3-0.60156-3.5-2.3008-0.19922-0.69922-0.19922-1.3984-0.19922-2.1016 0-0.39844 0.10156-0.5 0.5-0.39844 2 0.60156 4 1.1992 6 1.8008 0.39844 0.19922 0.69922 0.40234 1.1992 0.5z"/>
        <path d="m61.5 37.301c0 0.5-0.10156 0.89844-0.19922 1.3984-0.39844 2.1016-2.6016 3.1992-4.5 2.1992-1-0.5-1.8008-1.3008-2.6016-2-0.39844-0.39844 0-0.39844 0.19922-0.5 1.6992-0.69922 3.5-1.1016 5.3008-1.6992 0.30078-0.10156 0.5-0.19922 0.80078-0.19922 1-0.19922 1-0.19922 1 0.80078z"/>
    </g>
</svg>
