<svg version="1.1" xmlns="http://www.w3.org/2000/svg" viewBox="25 26 512 512">
    <g transform="scale(1.1) scale(-1,1) translate(-512,0)">
        <path d="M213.09,62.81a331,331,0,0,1,39.82,19.13c10.37,5.89,7.3,21.46-4.51,23.15a161,161,0,0,0-24.91,5.61c-15.22,4.73-16.2,26.07-1.36,31.88a100.2,100.2,0,0,1,28,16.38c11,9.2,5.86,27-8.35,28.81l-1.32.17a24.59,24.59,0,0,0-17,38.22c8,11.69,13.79,25,17.83,37a8.75,8.75,0,0,0,15.19,2.59l77.19-98.86a39.9,39.9,0,0,1,21.3-14l91.43-24.07h.07a5.48,5.48,0,0,0,3.1-8.46c-68.38-95.87-167.32-102-232.26-92.95C198.55,30,195.51,55.73,213.09,62.81Z" />
        <path d="M209.54,380.36a3.77,3.77,0,0,0,5.34,0L382.65,212.59a10.45,10.45,0,0,1,14.46-.52,10.17,10.17,0,0,1,.22,14.6L229.26,394.75a3.78,3.78,0,0,0,0,5.34l7.05,7a3.76,3.76,0,0,0,5,.31l189-147.54a19.57,19.57,0,0,0,6.88-10.44L461.2,158a7.86,7.86,0,0,0-9.6-9.61l-91.44,24.07a19.53,19.53,0,0,0-10.44,6.88l-147.54,189a3.79,3.79,0,0,0,.31,5Z" />
        <path d="M124.94,476.52,129,480.6h0l4.08,4.09a10.21,10.21,0,0,0,13.87.51l55.14-47.58,15.13,15.13a18.4,18.4,0,0,0,26,0l1.28-1.28a5.2,5.2,0,0,0,0-7.35l-79-79a5.2,5.2,0,0,0-7.35,0l-1.28,1.28a18.41,18.41,0,0,0,0,26L172,407.51l-47.57,55.15A10.18,10.18,0,0,0,124.94,476.52Z" />
        <circle cx="154.22" cy="199.22" r="22.55" />
        <path d="M56.24,72.56c6.55,5.07,14,4.51,21.78,3.87s15.63-1.37,23.43-2.21q12.39-1.35,24.72-3.29c7.14-1.13,15.39-1.69,21.2-6.51,14.37-11.9,3.94-31.38-11.05-36.35-6.25-2.08-21.87-2.07-29.49-.24-18.25,4.39-33.06,11.79-48.9,21.41C49.07,54.62,47.76,66,56.24,72.56Z" />
    </g>
</svg>
