<svg xmlns="http://www.w3.org/2000/svg" viewBox="18 18 512 512">
    <g transform="scale(1.07)">
        <path d="M235.42,315a7.08,7.08,0,0,0-3.92-12.08l-63-9.16a7.12,7.12,0,0,1-5.34-3.88L135,232.78a7.08,7.08,0,0,0-12.7,0l-28.18,57.1a7.09,7.09,0,0,1-5.33,3.88l-63,9.16A7.08,7.08,0,0,0,21.82,315l45.6,44.44a7.06,7.06,0,0,1,2,6.27L58.69,428.47A7.09,7.09,0,0,0,69,435.94l56.36-29.64a7.11,7.11,0,0,1,6.59,0l56.36,29.64a7.08,7.08,0,0,0,10.27-7.47l-10.76-62.76a7.1,7.1,0,0,1,2-6.27Z" />
        <path d="M408.1,175.75l-35.66,5.19a4,4,0,0,0-2.23,6.83L396,212.93a4,4,0,0,1,1.15,3.55L391.08,252a4,4,0,0,0,5.82,4.22l31.9-16.77a4,4,0,0,1,3.73,0l31.9,16.77a4,4,0,0,0,5.81-4.22l-6.09-35.52a4,4,0,0,1,1.15-3.55l25.81-25.16a4,4,0,0,0-2.22-6.83l-35.66-5.19a4,4,0,0,1-3-2.19l-15.95-32.32a4,4,0,0,0-7.19,0l-15.95,32.32A4,4,0,0,1,408.1,175.75Z" />
        <path d="M278.91,409.07c.46,0,.93,0,1.4-.06,72.78-6.79,134.26-46.38,160.43-103.33a14.84,14.84,0,1,0-27-12.39c-21.76,47.34-74,80.35-136.22,86.16a14.84,14.84,0,0,0,1.36,29.62Z" />
        <path d="M261.69,105.27c33.92,2,66.22,11.91,93.4,28.76a14.84,14.84,0,1,0,15.64-25.23c-31.37-19.45-68.49-30.92-107.32-33.17-47.48-2.73-94.3,8.71-131.83,32.25-37.86,23.75-64.05,58.21-73.73,97.06a14.85,14.85,0,0,0,28.81,7.18C103,146.39,178.31,100.46,261.69,105.27Z" />
    </g>
</svg>
