<svg xmlns="http://www.w3.org/2000/svg" version="1.1" viewBox="10 10 512 512">
    <g transform="scale(5.35)">
        <path d="m55.422 51.52h-5.8398c-0.86719 0-1.5742-0.70703-1.5742-1.5742 0-0.87109 0.70703-1.5781 1.5742-1.5781h5.8398v-34.555c0-0.87109 0.70703-1.5742 1.5742-1.5742h11.496c0.86719 0 1.5742 0.70312 1.5742 1.5742s-0.70703 1.5781-1.5742 1.5781h-9.918v32.977h9.918c0.86719 0 1.5742 0.70703 1.5742 1.5781 0 0.86719-0.70703 1.5742-1.5742 1.5742h-9.918v32.98h9.918c0.86719 0 1.5742 0.70703 1.5742 1.5781 0 0.86719-0.70703 1.5742-1.5742 1.5742h-11.496c-0.86719 0-1.5742-0.70703-1.5742-1.5742zm-46.91 18.859h-1.1523c-1.3438 0-2.6289-0.53125-3.5781-1.4805-0.94922-0.94922-1.4844-2.2383-1.4844-3.582v-30.812c0-2.6133 1.0391-5.1211 2.8867-6.9688s4.3555-2.8867 6.9688-2.8867h16.988c2.6133 0 5.1211 1.0391 6.9688 2.8867s2.8867 4.3555 2.8867 6.9688v30.812c0 1.3438-0.53516 2.6328-1.4844 3.582-0.94922 0.94922-2.2344 1.4805-3.5781 1.4805h-1.1523v-24.699c0-0.87109-0.70703-1.5742-1.5781-1.5742s-1.5742 0.70312-1.5742 1.5742v50.566c0 0.26172-0.10547 0.51172-0.28906 0.69922-0.1875 0.18359-0.4375 0.28516-0.69922 0.28516h-6.418v-26.852c0-0.86719-0.70703-1.5742-1.5781-1.5742-0.86719 0-1.5742 0.70703-1.5742 1.5742v26.852h-6.418c-0.26172 0-0.51562-0.10156-0.69922-0.28516-0.18359-0.1875-0.28906-0.4375-0.28906-0.69922v-50.566c0-0.87109-0.70312-1.5742-1.5742-1.5742s-1.5781 0.70312-1.5781 1.5742zm12.133-67.723c4.6602 0 8.4414 3.7812 8.4414 8.4414s-3.7812 8.4414-8.4414 8.4414c-4.6562 0-8.4414-3.7812-8.4414-8.4414s3.7852-8.4414 8.4414-8.4414zm75.637 0c0.15625 0 0.30469 0.0625 0.41797 0.17578 0.10938 0.10938 0.17188 0.25781 0.17188 0.41797v21.125c0 0.16016-0.0625 0.30859-0.17188 0.41797-0.11328 0.11328-0.26172 0.17578-0.41797 0.17578h-21.129c-0.15625 0-0.30859-0.0625-0.41797-0.17578-0.10938-0.10938-0.17188-0.25781-0.17188-0.41797v-21.125c0-0.16016 0.0625-0.30859 0.17188-0.41797 0.10938-0.11328 0.26172-0.17578 0.41797-0.17578zm-11.078 76.141c0.10547-0.18359 0.30078-0.29688 0.51172-0.29688 0.21094 0 0.41016 0.11328 0.51172 0.29688l10.133 17.547c0.10547 0.18359 0.10547 0.41016 0 0.59375s-0.30078 0.29297-0.51172 0.29297h-20.262c-0.21094 0-0.40625-0.10938-0.51172-0.29297s-0.10547-0.41016 0-0.59375zm0.51172-40.008c6.1562 0 11.156 5 11.156 11.156s-5 11.152-11.156 11.152-11.152-4.9961-11.152-11.152 4.9961-11.156 11.152-11.156z" fill-rule="evenodd" />
    </g>
</svg>
