<svg viewBox="28 28 456 455">
    <title>Crossbow</title>
    <path d="M53.77,481.89h0a41.81,41.81,0,0,0,35.48-11.83L107.32,452a43.2,43.2,0,0,0,12.48-24.27A41.75,41.75,0,0,1,131.63,404L252.34,283.31a201.55,201.55,0,0,1,48.07-35.58,309.63,309.63,0,0,1,39.78-18,67.31,67.31,0,0,0,24.92-15.85l58.61-58.61a14.82,14.82,0,0,0,0-21l-23-23-23-23a14.82,14.82,0,0,0-21,0l-58.86,58.86a67.76,67.76,0,0,0-15.75,25.1,313.22,313.22,0,0,1-17.9,39.51,201.11,201.11,0,0,1-35.5,47.91L108.63,379.72a43.18,43.18,0,0,1-24.27,12.47A41.82,41.82,0,0,0,60.67,404L41.94,422.75a41.81,41.81,0,0,0-11.83,35.48h0A27.9,27.9,0,0,0,53.77,481.89Z" />
    <path d="M288.27,110A12.62,12.62,0,0,0,304,108.29l29.47-29.47a11.14,11.14,0,0,0-2-17.37c-24.51-15.06-84-45.1-143-25.11a107.63,107.63,0,0,0-30.27,16.23c-11.35,8.58-31.8,24.37-50.08,40.22-15.81,13.72-37.51,19-57.62,13.17q-2.73-.78-5.48-1.85A8.83,8.83,0,0,0,34.29,117,72,72,0,0,0,52,136.73,44.74,44.74,0,0,1,68.9,163.92L102.07,327a10.45,10.45,0,0,0,20.48-4.16l-36-176.75a50.24,50.24,0,0,0,28-13.47C137.86,110.63,206.89,57.6,288.27,110Z" />
    <path d="M459.43,353.83a107.5,107.5,0,0,0,16.23-30.27c20-59-10-118.52-25.11-143a11.14,11.14,0,0,0-17.37-2L403.71,208a12.63,12.63,0,0,0-1.65,15.79c52.34,81.36-.69,150.39-22.66,173.63a50.24,50.24,0,0,0-13.47,28l-176.75-36A10.45,10.45,0,1,0,185,409.93l163,33.17A44.76,44.76,0,0,1,375.27,460,71.82,71.82,0,0,0,395,477.72c7.14,4.49,16-2.69,13-10.55-.63-1.61-1.18-3.22-1.67-4.82a61.81,61.81,0,0,1,12.79-58.28C435,385.75,450.82,365.22,459.43,353.83Z" />
</svg>
