<svg viewBox="0 11 100 78">
    <title>Discipline</title>
    <style type="text/css">
	    .st0{fill-rule:evenodd;clip-rule:evenodd;}
    </style>
    <path d="M26.21,69.58l5.38,5.61c-10.75,0.57-20.72-0.77-29.7-4.56c-0.8-0.34-1.26-1.14-1.15-2c1.88-14.66,9.81-17.4,16.37-24.52  c3.73-4.06,2.71-4.8,8.08-7.56c2.07-1.07,4.22-2.04,6.45-2.96c0.72-0.29,1.5-0.14,2.06,0.41l5.67,5.54  c0.69,0.67,0.77,1.74,0.19,2.51l-3.28,4.4c-0.52,0.69-1.39,0.95-2.19,0.65l-4.07-1.5c-5.1,1.04-8.09,4.8-9.85,10.16  c-2.28,1.41-4.15,3.39-5.14,5.89c-0.16,0.41-0.15,0.82,0.03,1.21c0.18,0.4,0.48,0.68,0.88,0.83c0.8,0.3,1.7-0.1,2.01-0.89  c0.36-0.91,0.88-1.72,1.53-2.44c1.47-1.46,3.27-2.6,5.27-3.29c1.49-0.49,2.99-0.76,4.56-0.76c0.43,0,0.85,0.02,1.27,0.06l-4.91,7.63  C24.53,65.75,24.75,68.06,26.21,69.58z M81.06,44.11c-3.73-4.06-2.71-4.8-8.08-7.56c-2.07-1.07-4.22-2.04-6.45-2.96  c-0.72-0.29-1.5-0.14-2.06,0.41l-5.67,5.54c-0.69,0.67-0.77,1.74-0.19,2.51l3.28,4.4c0.52,0.69,1.39,0.95,2.19,0.65l4.06-1.5  c5.11,1.04,8.1,4.8,9.85,10.16c2.28,1.41,4.15,3.39,5.14,5.89c0.16,0.41,0.15,0.82-0.02,1.21c-0.18,0.4-0.48,0.68-0.88,0.83  c-0.8,0.3-1.7-0.1-2.01-0.89c-0.36-0.91-0.88-1.72-1.53-2.44c-1.47-1.46-3.27-2.6-5.27-3.29c-1.49-0.49-2.99-0.76-4.56-0.76  c-0.43,0-0.85,0.02-1.27,0.06l4.91,7.63c1.13,1.77,0.91,4.08-0.54,5.6l-5.38,5.61c10.75,0.57,20.72-0.77,29.7-4.56  c0.8-0.34,1.26-1.14,1.15-2C95.55,53.97,87.62,51.23,81.06,44.11z M69.71,67.41l-19.6,20.43c-0.28,0.29-0.62,0.43-1.02,0.43  c-0.39,0-0.73-0.15-1.01-0.43l-19.6-20.43c-0.45-0.48-0.52-1.18-0.16-1.74l7.15-11.12c0.26-0.42,0.69-0.65,1.18-0.65h24.9  c0.49,0,0.92,0.23,1.18,0.65l7.15,11.12C70.23,66.23,70.16,66.93,69.71,67.41z M55.28,66.91c-0.12-0.22-0.33-0.35-0.58-0.35h-3.51  c-0.36,0-0.65-0.29-0.65-0.65v-4.97c0-0.29-0.18-0.54-0.46-0.62c-0.27-0.09-0.56,0.01-0.72,0.25l-6.42,9.3  c-0.14,0.2-0.15,0.45-0.04,0.67c0.12,0.22,0.33,0.35,0.58,0.35h3.5c0.36,0,0.65,0.29,0.65,0.65v4.97c0,0.29,0.18,0.54,0.45,0.62  c0.28,0.09,0.56-0.01,0.73-0.25l6.42-9.3C55.37,67.38,55.39,67.13,55.28,66.91z M50,25.3c0.87,0,1.57-0.7,1.57-1.57V13.3  c0-0.87-0.71-1.57-1.57-1.57c-0.86,0-1.57,0.7-1.57,1.57v10.44C48.43,24.6,49.14,25.3,50,25.3z M33.71,25.84  c0.22,0.83,1.09,1.33,1.92,1.11c0.84-0.22,1.33-1.09,1.11-1.92l-2.7-10.08c-0.22-0.83-1.09-1.33-1.92-1.11  c-0.83,0.22-1.33,1.09-1.11,1.92L33.71,25.84z M20.04,31.69c0.43,0.75,1.38,1.01,2.13,0.58c0.75-0.43,1-1.38,0.58-2.13l-5.22-9.03  c-0.43-0.75-1.39-1.01-2.13-0.58c-0.75,0.43-1,1.38-0.58,2.13L20.04,31.69z M8.34,40.88c0.61,0.61,1.61,0.61,2.22,0  c0.61-0.61,0.61-1.61,0-2.21l-7.38-7.38c-0.61-0.61-1.61-0.61-2.22,0c-0.61,0.61-0.61,1.6,0,2.21L8.34,40.88z M64.37,26.95  c0.83,0.22,1.69-0.27,1.92-1.11l2.7-10.08c0.22-0.83-0.27-1.69-1.11-1.92c-0.83-0.22-1.69,0.27-1.92,1.11l-2.7,10.08  C63.04,25.87,63.53,26.73,64.37,26.95z M77.82,32.26c0.75,0.43,1.7,0.18,2.14-0.57l5.22-9.03c0.43-0.75,0.18-1.7-0.57-2.14  c-0.75-0.43-1.7-0.18-2.14,0.57l-5.22,9.03C76.82,30.87,77.08,31.83,77.82,32.26z M99.04,31.29c-0.61-0.61-1.61-0.61-2.22,0  l-7.38,7.38c-0.61,0.61-0.61,1.6,0,2.21c0.61,0.61,1.61,0.61,2.22,0l7.38-7.38C99.65,32.89,99.65,31.9,99.04,31.29z"/>
</svg>
