<svg viewBox="-2 -2 240 219">
    <title>Disengage</title>
    <g>
        <ellipse transform="matrix(0.2268 -0.9739 0.9739 0.2268 125.6209 203.2331)" cx="190.808" cy="22.5" rx="22.494" ry="22.495"/>
        <path d="M213.121,123.985c-1.712-3.675-5.128-6.306-9.118-7.022l-31.719-5.701c-0.181-6.958,0.522-14.153,1.572-21.071   c-1.569-0.72-2.92-1.508-4.024-2.249c-3.566-2.377-6.666-5.458-9.471-9.414c-3.677-5.239-5.588-10.164-6.398-12.635l-0.038-0.112   c-1.646-5.34,1.319-10.946,6.592-12.571c0.957-0.295,1.948-0.444,2.94-0.444c4.411,0,8.251,2.832,9.557,7.048l0.041,0.123   c0.081,0.233,0.195,0.549,0.359,0.953c0.316,0.796,0.848,2.021,1.6,3.397c0.841,1.564,1.85,3.031,2.905,4.266   c0.073-0.368,0.15-0.749,0.221-1.109c2.869-9.953-0.885-21.865-9.42-23.992c-1.236-0.308-2.554-0.47-3.917-0.484   c-0.011-0.001-0.021-0.003-0.031-0.004h-0.002c-0.183-0.016-1.866-0.146-4.652-0.146c-5.988,0.008-17.078,0.577-29.412,4.357   c-12.292,3.772-26.029,10.898-36.262,24.223c-2.689,3.506-2.029,8.528,1.477,11.22c1.452,1.114,3.165,1.652,4.865,1.653   c2.402,0,4.778-1.077,6.354-3.13c7.614-9.936,18.087-15.534,28.271-18.673c2.507-0.774,4.983-1.388,7.366-1.875   c-0.001,0.003-0.002,0.006-0.003,0.009c-6.805,20.174-8.268,33.306-5.682,55.52c1.511,7.773,4.866,12.173,8.962,14.638   c0.061,0.993,0.102,2.081,0.101,3.258c-0.007,6.846-1.271,16.406-6.655,26.652c-5.419,10.242-14.932,21.477-32.89,31.735   c-6.001,3.414-8.097,11.047-4.681,17.048c2.304,4.049,6.527,6.318,10.875,6.318c2.096,0,4.22-0.527,6.172-1.638   c21.616-12.261,35.035-27.27,42.652-41.834c7.043-13.399,9.196-26.163,9.488-35.844l22.085,3.97l19.684,42.227   c2.916,6.255,10.352,8.966,16.609,6.05c6.257-2.917,8.966-10.354,6.049-16.612L213.121,123.985z"/>
        <path d="M171.559,61.639c-0.181-0.449-0.308-0.799-0.382-1.016c-0.039-0.106-0.063-0.182-0.074-0.219l-0.001,0.001   c-1.306-4.218-5.778-6.584-9.997-5.285c-4.223,1.3-6.593,5.776-5.291,9.999h-0.002c0.164,0.468,1.861,6.098,6.181,12.25   c2.176,3.067,5.049,6.308,8.955,8.911c3.862,2.591,8.882,4.457,14.53,4.457c0.026,0,0.053,0,0.079,0   c9.116-0.03,18.791-4.485,29.29-14.059c3.265-2.978,3.5-8.037,0.524-11.302c-2.978-3.266-8.037-3.5-11.301-0.521   c-8.845,8.053-14.953,9.909-18.514,9.881c-2.296-0.02-3.998-0.642-5.759-1.785c-2.604-1.687-5.008-4.862-6.537-7.707   C172.489,63.834,171.917,62.538,171.559,61.639z"/>
        <rect y="35.085" width="109.998" height="5.334"/>
        <rect x="13.332" y="49.085" width="51.334" height="5.334"/>
        <rect x="42.664" y="21.085" width="51.334" height="5.334"/>
    </g>
</svg>
