<svg viewBox="10 14 81 72">
    <title>Dodge</title>
    <g>
        <path d="m42.363 21.348c0 3.707-3.0078 6.7148-6.7188 6.7148-3.707 0-6.7148-3.0078-6.7148-6.7148 0-3.7109 3.0078-6.7148 6.7148-6.7148 3.7109 0 6.7188 3.0039 6.7188 6.7148"/>
        <path d="m41.406 58.395-7.8477-3.1719c-0.39844-0.16016-0.625-0.58594-0.53906-1.0078l0.81641-3.9414-9.1523-0.80859c-0.97656-0.085938-1.9375-0.42188-2.7695-0.97266l-1.0547-0.69922-1.375 5.5312c-0.85547 3.4102 1.2148 6.9375 4.6172 7.8633l6.0625 1.6211 0.027344 0.015625 7.8359 2.1094c0.45703 0.125 0.73828 0.58203 0.64062 1.0469l-3.2266 15.586c-0.19922 0.94531 0.035156 1.918 0.64453 2.6719 0.61719 0.76172 1.5273 1.1953 2.4961 1.1953 1.5312 0 2.8594-1.0898 3.1602-2.5859l3.4805-17.375c0.58984-2.9805-1.0156-5.9531-3.8164-7.0781z"/>
        <path d="m22.461 62.457-1.0781-0.48047-1.1445 7.918c-0.023437 0.17578-0.10156 0.33984-0.22266 0.47266l-8.3242 9.168c-0.57031 0.62891-0.82812 1.4414-0.72656 2.2852 0.10547 0.84375 0.55078 1.5703 1.2578 2.0391 0.47266 0.3125 1.0234 0.48047 1.5938 0.48047 0.77344 0 1.4961-0.30078 2.0391-0.84766l11.117-11.176 2.0273-7.9648-5.375-1.4453c-0.40625-0.10938-0.78516-0.28125-1.1641-0.44922z"/>
        <path d="m46.445 45.02-10.25-1.3789-0.050781-0.015625-7.0195-0.94922c-0.27344-0.039062-0.51172-0.19531-0.64844-0.42969-0.14062-0.23828-0.16406-0.52344-0.066406-0.77734l2.4805-6.457c0.13281-0.34766 0.46094-0.57422 0.83594-0.57422 0.10938 0 0.21875 0.019531 0.32031 0.058594 0.46094 0.17578 0.69141 0.69531 0.51562 1.1562l-2.0742 5.4062 5.1133 0.69141 1.4062-6.75c0.3125-1.4883-0.070312-2.9883-1.043-4.1094-0.92969-1.1055-2.2852-1.7383-3.7148-1.7383h-2.9414c-2.2266 0-4.1719 1.5195-4.7305 3.6953-1.3203 5.332-0.65625 3.4219-3.1641 8.9062-0.49609 1.0742-0.52344 2.2695-0.066406 3.3594 0.58984 1.4531 1.9336 2.4375 3.5 2.5742l21.09 1.8633 0.19531 0.007813c1.1328 0 2.082-0.79688 2.2617-1.8945 0.03125-0.1875 0.03125-0.28906 0.027344-0.39844-0.007813-1.1328-0.85547-2.0977-1.9766-2.2461z"/>
        <path d="m54.574 31.188h-16.195l0.29688 1.1211c0.20703 0.78516 0.26172 1.6133 0.16016 2.4531l-0.12109 1h15.859c1.2578 0 2.2773-1.0312 2.2773-2.2969 0-1.2539-1.0195-2.2773-2.2773-2.2773z"/>
        <path d="m81.348 29.766-2.6211-0.40625c-0.39062-0.066406-0.78516-0.097656-1.168-0.097656-1.8828 0-3.6719 0.74609-5.043 2.1016l-4.1758 4.1719c-0.16406 0.16406-0.375 0.25781-0.69922 0.25781h-0.035156c-0.26953-0.03125-0.51562-0.19141-0.65625-0.42188l-6.1641-10.059c-0.46484-0.76172-1.2773-1.2148-2.1719-1.2148-0.39844 0-0.98828 0.09375-1.5469 0.53516-0.61719 0.47656-0.97266 1.207-0.97266 2 0 0.38281 0.085938 0.75 0.25 1.0938l4.8945 10.148c1.0547 2.1875 3.3438 3.6016 5.8398 3.6016 0.79297 0 1.5586-0.14844 2.2852-0.43359l2.0586-0.83203c0.10938-0.042969 0.22266-0.066407 0.33594-0.066407 0.20313 0 0.39844 0.070313 0.55469 0.19531 0.25391 0.19922 0.375 0.52344 0.32422 0.83984l-2 12.453c-0.027344 0.17969-0.10938 0.34375-0.23828 0.47656l-5.9492 6.2148c-1.0273 1.0781-1.6992 2.4336-1.9453 3.9219l-2.5898 16.16c-0.15234 0.94141 0.070313 1.8828 0.625 2.6562 0.55469 0.76953 1.3789 1.2812 2.3242 1.4336 0.17188 0.027344 0.34375 0.039062 0.51172 0.039062 1.7539 0 3.2852-1.2891 3.5664-3l2.4805-15.484c0.046875-0.29688 0.23828-0.54688 0.51172-0.67188l9.6289-4.3945c2.707-1.2422 4.6094-3.7422 5.082-6.6875l2.625-16.332c0.62891-3.8906-2.0312-7.5664-5.9219-8.1992z"/>
        <path d="m82.137 61.52c-0.63672 0.46094-1.2344 0.81641-1.8164 1.0859l-3.4375 1.5703 2.8008 18.133c0.17188 1.1133 1.0312 1.9961 2.1523 2.1992 0.15234 0.027344 0.29687 0.035157 0.4375 0.035157 0.85937 0 1.4531-0.42188 1.7344-0.67578 0.60156-0.54688 0.91406-1.3242 0.85938-2.1289l-1.418-21.168z"/>
        <path d="m89.055 21.332c0 3.7344-3.0273 6.7617-6.7617 6.7617s-6.7617-3.0273-6.7617-6.7617 3.0273-6.7617 6.7617-6.7617 6.7617 3.0273 6.7617 6.7617"/>
    </g>
</svg>
