<svg viewBox="5.22 46.976 511.512 428" width="511.512" height="428">
    <path d="M309.908 260.976c0 27.016 -21.896 48.912 -48.933 48.912 -27.016 0 -48.933 -21.896 -48.933 -48.912s21.922 -48.933 48.933 -48.933c27.037 0 48.933 21.922 48.933 48.933"/>
    <path d="M254.858 355.579a94.995 94.995 0 0 1 -88.528 -88.486h-110.549a6.122 6.122 0 0 1 0 -12.235h110.549A95.152 95.152 0 0 1 193.957 193.957a94.995 94.995 0 0 1 60.901 -27.585v-70.307C139.314 100.006 42.816 213.718 14.964 249.962h-0.021a18.112 18.112 0 0 0 0 22.021c27.872 36.249 124.37 149.957 239.915 153.892v-70.307zm252.128 -105.612c-27.851 -36.249 -124.35 -149.977 -239.894 -153.892v70.307a94.943 94.943 0 0 1 88.528 88.481h110.549a6.112 6.112 0 1 1 0 12.235h-110.549a94.995 94.995 0 0 1 -27.611 60.901c-16.285 16.29 -37.941 26.098 -60.917 27.585v70.281c115.544 -3.915 212.043 -117.622 239.889 -153.934l0.026 0.021a18.08 18.08 0 0 0 -0.021 -21.974z"/>
    <path d="M267.093 96.07v-40.289a6.122 6.122 0 0 0 -12.235 0v40.289q3.053 -0.094 6.117 -0.12 3.053 0.026 6.117 0.12m-12.235 329.81v40.289c0 3.382 2.73 6.117 6.117 6.117s6.117 -2.735 6.117 -6.117v-40.289q-3.053 0.12 -6.117 0.12 -3.053 -0.026 -6.117 -0.12"/>
</svg>
