<svg xmlns="http://www.w3.org/2000/svg" version="1.1" viewBox="-5.0 -10.0 110.0 135.0">
 <path d="m36.195 1.0039h46.621c1.2695 0 2.2969 1.0273 2.2969 2.2969 0 0.55469-0.19922 1.0664-0.52344 1.4609l-23.605 34.832h17.988c1.2695 0 2.2969 1.0273 2.2969 2.2969 0 0.75781-0.36719 1.4258-0.92578 1.8438l-61.641 54.688c-0.94531 0.83594-2.3906 0.75-3.2266-0.19922-0.5625-0.63672-0.70703-1.5-0.45703-2.25h-0.003906l14.812-43.703h-9.0703c-1.2695 0-2.2969-1.0273-2.2969-2.2969 0-0.28516 0.050781-0.5625 0.14844-0.8125l15.418-46.582c0.31641-0.96484 1.2148-1.5781 2.1797-1.5781z"/>
<text x="0.0" y="117.5" font-size="5.0" font-weight="bold" font-family="Arbeit Regular, Helvetica, Arial-Unicode, Arial, Sans-serif" fill="#000000">Created by UNKNOWN</text><text x="0.0" y="122.5" font-size="5.0" font-weight="bold" font-family="Arbeit Regular, Helvetica, Arial-Unicode, Arial, Sans-serif" fill="#000000">from Noun Project</text></svg>