<svg xmlns="http://www.w3.org/2000/svg" xmlns:xlink="http://www.w3.org/1999/xlink" version="1.1"
    x="0px" y="0px" viewBox="0 0 100 125" enable-background="new 0 0 100 100" xml:space="preserve">
    <path d="M27.198,76.208h45.604C82.762,69.079,89.27,57.424,89.27,44.27c0-9.327-3.274-17.901-8.728-24.645  c-2.591,1.748-4.3,4.711-4.3,8.066c0,0.351-0.283,0.634-0.633,0.634c-0.352,0-0.635-0.284-0.635-0.634  c0-5.361-4.359-9.722-9.722-9.722c-0.351,0-0.634-0.283-0.634-0.634c0-0.35,0.283-0.634,0.634-0.634c3.271,0,6.16-1.625,7.924-4.104  C66.678,7.827,58.663,5.001,50,5.001c-21.653,0-39.269,17.616-39.269,39.269C10.731,57.424,17.239,69.079,27.198,76.208z   M67.247,23.581c0-0.35,0.282-0.634,0.634-0.634s0.635,0.284,0.635,0.634c0,7.625,2.09,9.713,9.721,9.713  c0.351,0,0.634,0.283,0.634,0.633c0,0.351-0.283,0.634-0.634,0.634c-7.631,0-9.721,2.087-9.721,9.713  c0,0.351-0.283,0.634-0.635,0.634s-0.634-0.283-0.634-0.634c0-7.625-2.09-9.713-9.724-9.713c-0.349,0-0.631-0.284-0.631-0.634  c0-0.35,0.282-0.633,0.631-0.633C65.157,33.294,67.247,31.206,67.247,23.581z M46.597,20.739c6.08,0,7.744-1.659,7.744-7.717  c0-0.351,0.283-0.634,0.636-0.634c0.349,0,0.631,0.283,0.631,0.634c0,6.058,1.666,7.717,7.744,7.717  c0.352,0,0.635,0.283,0.635,0.634s-0.283,0.634-0.635,0.634c-6.078,0-7.744,1.658-7.744,7.717c0,0.35-0.282,0.634-0.631,0.634  c-0.353,0-0.636-0.284-0.636-0.634c0-6.059-1.664-7.717-7.744-7.717c-0.35,0-0.633-0.284-0.633-0.634S46.247,20.739,46.597,20.739z   M18.75,32.73c0.645-1.813,1.421-3.534,2.307-5.114c0.343-0.609,1.115-0.828,1.726-0.485c0.61,0.342,0.829,1.115,0.485,1.726  c-0.817,1.455-1.533,3.044-2.129,4.723c-0.185,0.519-0.673,0.844-1.194,0.844c-0.141,0-0.284-0.024-0.425-0.074  C18.86,34.115,18.516,33.39,18.75,32.73z M17.08,39.634c0.096-0.694,0.741-1.185,1.43-1.081c0.693,0.097,1.177,0.737,1.08,1.431  c-0.124,0.893-0.195,1.809-0.239,2.732c-0.025,0.517-0.053,1.034-0.053,1.555c0,7.887,2.815,15.276,7.967,21.096  c0.599,0.678,1.222,1.338,1.885,1.971c0.506,0.484,0.523,1.286,0.04,1.793c-0.249,0.26-0.583,0.391-0.916,0.391  c-0.315,0-0.631-0.115-0.876-0.351c-6.858-6.554-10.634-15.396-10.634-24.899C16.763,42.703,16.87,41.143,17.08,39.634z   M82.418,87.498H17.582c-1.604,0-2.904,1.301-2.904,2.904v3.746c0,0.471,0.381,0.853,0.852,0.853h68.941  c0.471,0,0.853-0.382,0.853-0.853v-3.746C85.322,88.799,84.021,87.498,82.418,87.498z M22.217,77.477  c-1.604,0-2.903,1.301-2.903,2.904v2.946c0,1.604,1.3,2.903,2.903,2.903h55.566c1.604,0,2.902-1.299,2.902-2.903v-2.946  c0-1.604-1.299-2.904-2.902-2.904H22.217z M68.936,17.336c3.104,1.107,5.567,3.571,6.676,6.675c1.104-3.104,3.566-5.568,6.666-6.675  c-3.1-1.105-5.562-3.568-6.666-6.668C74.503,13.768,72.039,16.231,68.936,17.336z M67.881,38.747  c0.764-2.548,2.271-4.056,4.822-4.819c-2.551-0.762-4.061-2.27-4.822-4.819c-0.763,2.549-2.271,4.057-4.822,4.819  C65.609,34.691,67.118,36.198,67.881,38.747z M54.977,24.85c0.614-1.758,1.722-2.861,3.481-3.477  c-1.761-0.615-2.867-1.718-3.481-3.477c-0.619,1.758-1.723,2.861-3.483,3.477C53.254,21.988,54.357,23.091,54.977,24.85z"/>
</svg>
