<svg xmlns="http://www.w3.org/2000/svg" version="1.1" viewBox="-5.0 -10.0 110.0 110.0">
    <path
        d="m31.996 63.258c1.6562 2.5156 6.1289 8.707 9.5664 13.219 2.1797 2.8867 5.5703 4.6055 9.1836 4.6523l5.7695 0.078125 0.003906 0.003907c7.1875-0.007813 13.012-5.832 13.02-13.02v-12.742c0.003907-1.3164-0.59766-2.5625-1.6367-3.375-1.0586-0.82031-2.4414-1.1016-3.7344-0.75781-0.54688 0.13672-1.0547 0.39062-1.5 0.73828-0.46094-1.2656-1.5-2.2344-2.793-2.6094s-2.6875-0.10937-3.7539 0.71484c-0.4375-1.2109-1.4023-2.1523-2.6211-2.5586-1.2148-0.41016-2.5547-0.24219-3.6328 0.45703v-14.453c0.042968-2.0039-1.2812-3.7812-3.2148-4.3164-1.2812-0.34375-2.6484-0.0625-3.6914 0.75781-1.0547 0.8125-1.6641 2.0664-1.6602 3.3984v25.762l-3.3125-3c-1.7031-1.543-4.2969-1.5508-6.0117-0.019531-2.8945 2.6367-0.91797 5.6328 0.019532 7.0703z" />
    <path
        d="m53.762 41.688c-0.55078 0.50391-0.64453 1.3398-0.21875 1.9531 0.42188 0.61328 1.2344 0.82422 1.9023 0.49219 0.17578-0.09375 0.33203-0.21484 0.46875-0.35937 2.7656-2.7305 4.3164-6.457 4.3008-10.344 0-5.2266-2.7891-10.055-7.3164-12.668-4.5234-2.6133-10.102-2.6133-14.629 0-4.5273 2.6133-7.3164 7.4414-7.3164 12.668-0.019531 3.8828 1.5273 7.6133 4.2852 10.344 0.59375 0.56641 1.5273 0.55469 2.1055-0.023438 0.57422-0.58203 0.58203-1.5195 0.007812-2.1055-2.1875-2.1719-3.4102-5.1289-3.3945-8.2148 0-6.4219 5.207-11.629 11.629-11.629 6.4258 0 11.633 5.207 11.633 11.629 0.007812 3.0859-1.2227 6.0469-3.418 8.2148z" />
</svg>
