<svg xmlns="http://www.w3.org/2000/svg" version="1.1" viewBox="-5.0 -10.0 110.0 135.0">
    <path
        d="m77.523 84.82c-0.24219-0.43359-0.5-0.87109-0.78906-1.3398 2.6289-1.7539 4.9336-3.9883 6.7578-6.5703 0.47266 0.29297 0.91406 0.53125 1.3516 0.79688-1.8906 2.8516-4.4141 5.2969-7.3203 7.1133zm19.906 4.9141-1.5078-1.5078c-0.56641-0.58203-1.543-0.56641-2.1016 0l-5.9922 5.9922c-0.56641 0.55859-0.57422 1.543 0 2.1016l1.5078 1.5078c3.5781 3.6211 9.8672 0.95312 9.7734-4.125-0.042969-1.5078-0.60156-2.8945-1.6797-3.9688zm-3.8555-2.7891c-1.832-3.8633-4.3125-6.7148-7.6875-8.6406-2.0195 3.0234-4.6836 5.6172-7.7617 7.5508 1.918 3.4219 4.7773 5.9414 8.6406 7.7852 0.41406-0.42969 6.3398-6.5312 6.8086-6.6953zm-11.09-10.676c-2.5547-1.7031-4.9336-3.8008-6.9805-6.1172l-5.4609 5.4609c2.2969 2.0352 4.3438 4.3281 6.0469 6.8672 2.4883-1.6602 4.6797-3.7695 6.3945-6.2109zm-5.8359-13.07c4.4922-4.4219 7.2656-9.9844 8.1016-16.082-2.5938 0.46094-5.3164-0.011719-7.6016-1.2891 0.46875 1.5234 1.3242 2.875 2.5352 3.9297 0.19531 0.17188 0.25391 0.44922 0.14844 0.6875-1.6484 3.6914-4.2188 6.8828-7.4375 9.2656 1.5898 0.67187 3.043 2.2734 4.2539 3.4883zm-16.707 9.0352c-2.3633 3.0859-5.4766 5.5547-9.0547 7.1641-0.23828 0.10547-0.52344 0.046874-0.69531-0.14844-1.0547-1.2188-2.4023-2.0508-3.9297-2.5273 1.2695 2.3047 1.7539 4.9883 1.2812 7.5977 6-0.82031 11.484-3.5078 15.863-7.8711-1.2031-1.1953-2.7812-2.6406-3.4648-4.2148zm7.9883 3.8164c-0.85547 0.89453-2.3945 0.88281-3.2461-0.007812l-2.0938-2.0938c-1.5742-1.5625-2.4766-3.8086-2.3867-6.0312 0.10156-5.875 6.5977-9.7578 11.828-7.0625 1.4766 0.62891 3.0547 2.5273 4.2148 3.6211 0.90234 0.89453 0.90234 2.3555 0.007812 3.2539-0.003906 0-8.3242 8.3203-8.3242 8.3203zm2.4336-6.1211c2.6875-2.8359-1.3516-6.8906-4.1953-4.1953-2.6953 2.8398 1.3477 6.8828 4.1953 4.1953zm-9.0117-7.9453-44.48-45.312 45.316 44.48c2.1914-2 5.3672-2.7695 8.2734-2.1133-20.418-20.82-49.055-44.34-69.57-58.539 17.664 24.586 33.617 44.473 58.242 69.211-0.44922-2.75 0.35547-5.6367 2.2188-7.7266zm5.6523 4.5859c-0.6875 0.69531-0.6875 1.8203 0 2.5156 1.0586 1.125 3.0859 0.28125 3.0391-1.2578 0.042969-1.5352-1.9766-2.375-3.0391-1.2578z" />
</svg>
