<svg xmlns="http://www.w3.org/2000/svg" version="1.1" viewBox="-5.0 -10.0 110.0 135.0">
    <path
        d="m87.059 21.586v19.258c0 0.22266 0.31641 0.16406 0.76953 0.73828 0.72266 0.91797 0.71484 2.1055-0.046875 2.957-0.16797 0.1875-0.72266 0.74609-0.72266 0.87891v31.625c0 0.74609-0.60547 1.3477-1.3477 1.3477-0.74609 0-1.3477-0.60547-1.3477-1.3477l-0.003906-28.199c0-0.16406-0.20312-0.24219-0.3125-0.12109l-6.1016 6.668c-0.066406 0.070313-0.17187 0.078125-0.24609 0.019531l-3.4805-2.8203c-0.11719-0.09375-0.29297-0.011719-0.29297 0.14062v9.7422c0 1.1211 0.16016 2.0781 0.52344 3.1367l8.4531 24.602c0.44531 1.2969-0.15234 2.707-1.3945 3.2891l-0.21875 0.10156c-1.2617 0.58984-2.7578 0.11328-3.4492-1.0938l-14.832-25.961c-0.96484-1.6875-1.4062-3.3555-1.4062-5.3008v-16.574c0-3.3945 2.8281-6.7891 6.1641-6.1641 4.4102 0.82813 7.1016 5.1641 9.5195 8.6445 0.0625 0.085937 0.18359 0.10156 0.26172 0.035156l6.75-5.6875c0.042969-0.035156 0.0625-0.082031 0.0625-0.13672v-18.855c0-0.070312-0.035156-0.12891-0.097656-0.16016-4.918-2.5703-11.191-5.5547-16.5-5.1562-6.5586 0.49609-9.6484 4.6484-17.703 3.9336-7.8047-0.69531-12.629-6.6953-20.289-3.2383-0.78516 0.35547-1.5547 0.78516-2.3047 1.2891-1.1602 0.80859-2.5781-0.43359-2.0039-1.6562 2.625-5.6094 6.5977-9.8008 12.594-10.051 3.5508-0.14844 5.9375 0.96875 8.1914 2.0234 1.793 0.83984 3.4961 1.6367 5.6094 1.4922 4.6367-0.31641 8.4531-3.9844 14.836-4.6992 5.1172-0.57422 13.055 0.74219 19.105 1.5781 0.003906 0.003907 0.007813 0.007813 0.011719 0.007813 0.69922 0.050781 1.25 0.63281 1.25 1.3438zm-69.184 6.707c2.3711 0 4.293 1.9219 4.293 4.293 0 2.3711-1.9219 4.293-4.293 4.293s-4.293-1.9219-4.293-4.293c0-2.375 1.9219-4.293 4.293-4.293zm-0.070312 10.219c-3.3359-0.625-6.1641 2.7695-6.1641 6.1641v46.508c0 1.4727 1.1992 2.6719 2.6719 2.6719h0.32812c1.2852 0 2.3555-0.89062 2.6172-2.1484l6.7031-31.906 0.003906-10.914c0-0.050781 0.015625-0.089844 0.050781-0.125l5.4883-5.5508c0.73828-0.74609 1.2344-1.543 1.4961-2.5586l3.1289-12.168c0.28125-1.0977-0.37891-2.1445-1.4727-2.5625-1.2031-0.46094-2.5312 0.15625-2.9492 1.375-1.7969 5.2344-1.4141 4.2266-3.1094 9.4609-0.41016 1.2656-1.6914 1.7852-2.3867 2.2227-2.0273 1.2617-4.2734-0.070313-6.4062-0.46875zm11.602 52.199-3.9648-23.152c-0.035156-0.19531-0.3125-0.19922-0.35156-0.007813l-3.5234 16.777c-0.007812 0.03125-0.003906 0.0625 0.003906 0.09375l2.543 7.6055c0.72266 2.1641 3.5938 2.3984 4.8242 0.70312 0.4375-0.60547 0.59766-1.2852 0.46875-2.0195zm13.5-62.418c-2.3711 0-4.293 1.9219-4.293 4.293 0 2.3711 1.9219 4.293 4.293 4.293s4.293-1.9219 4.293-4.293c0-2.375-1.9219-4.293-4.293-4.293zm0 10.219c-3.3359-0.625-6.1641 2.7695-6.1641 6.1641v46.508c0 1.4727 1.1992 2.6719 2.6719 2.6719h0.32813c1.2852 0 2.3555-0.89062 2.6172-2.1484l6.7031-31.906 0.003906-10.914c0-0.050781 0.015625-0.089844 0.050782-0.125l5.4883-5.5508c0.73828-0.74609 1.2344-1.543 1.4961-2.5586l3.1289-12.168c0.28125-1.0977-0.37891-2.1445-1.4727-2.5625-1.2031-0.46094-2.5312 0.15625-2.9492 1.375-1.7969 5.2344-1.4102 4.2266-3.1094 9.4609-0.41016 1.2656-1.6914 1.7852-2.3867 2.2227-2.0234 1.2617-4.2734-0.070313-6.4062-0.46875zm11.605 52.199-3.9648-23.152c-0.035156-0.19531-0.3125-0.19922-0.35156-0.007813l-3.5234 16.777c-0.007813 0.03125-0.003906 0.0625 0.003906 0.09375l2.543 7.6055c0.72266 2.1641 3.5938 2.3984 4.8242 0.70312 0.4375-0.60547 0.59375-1.2852 0.46875-2.0195zm13.25-62.418c-2.3711 0-4.293 1.9219-4.293 4.293 0 2.3711 1.9219 4.293 4.293 4.293 2.3711 0 4.293-1.9219 4.293-4.293 0-2.375-1.9219-4.293-4.293-4.293zm-10.086 62.418c-0.125 0.73437 0.03125 1.4141 0.46875 2.0195 1.2305 1.6953 4.0977 1.4648 4.8242-0.70312l4.2148-12.609c0.015625-0.050781 0.011718-0.10156-0.015625-0.14453l-5.5508-9.7109c-0.082032-0.14453-0.30469-0.10547-0.33203 0.058594z"
        fill-rule="evenodd" />
</svg>
