<svg xmlns="http://www.w3.org/2000/svg" version="1.1" viewBox="-5.0 4.0 110.0 92.0">
    <path
        d="m90.672 16.762 5.1875-11.809-11.828 4.9023-59.633 57.492c-4.3516-0.89062-5.6289-4.1797-5.6875-4.3398l-0.39453-1.0625-3.5977 6.9609 0.46094 0.22656c3.8828 1.8984 4.6992 5.9609 4.707 6l0.77734 0.91406c-2.1094 2.0977-13.039 13.012-13.508 13.422-0.82812 0.71875-1.9961 0.94531-1.9961 0.94531-1.1289 1.5547 0.023438 3.5703 0.023438 3.5703s2.1602 1.3594 3.5664 0.085937c0 0 0.39062-1.4453 0.99219-1.9805 0.46484-0.41016 11.531-11.191 13.668-13.258l0.89844 0.79297c0.039062 0.007812 4.0781 0.88281 5.9141 4.8203l0.21484 0.46094 7.0195-3.4727-1.0547-0.41406c-0.19922-0.078125-3.457-1.418-4.25-5.7695l0.011718 0.011719zm-82.77 76.727c-0.57031 0.41406-1.6211-0.054687-1.9727-0.23438-0.17188-0.35547-0.62109-1.4141-0.19922-1.9805 0.34375-0.125 1.1211-0.42578 1.6875-0.76953l1.2891 1.3125c-0.35938 0.55859-0.67578 1.332-0.80469 1.6719zm27.238-12.02-0.078125 0.039062-4.875-2.125-2.0469-2.082 0.13672-5.9883-5.9922 0.027344-2.043-2.082-2.0352-4.9141 0.039063-0.078125c0.91797 1.5 3.3203 4.3086 8.4258 4.3047 1.6016 0 3.3555-0.27734 5.2344-0.82031-2.7266 8.7422 1.3242 12.492 3.2344 13.719zm-1.9844-14.32 0.33594-0.95703 52.273-51.324-1.1758-4.1602 9.3633-3.8828-8.1875 8.0391 4.0273 1.3594-57.793 57.789c-0.11719-1.8242 0.17188-4.0781 1.1562-6.8633z" />
</svg>
