<svg xmlns="http://www.w3.org/2000/svg" xmlns:xlink="http://www.w3.org/1999/xlink" version="1.1"
    x="0px" y="0px" viewBox="0 4 100 100" enable-background="new 0 0 100 100" xml:space="preserve">
    <path d="M11.072,92.793c0.969-0.917,8.605-8.163,11.148-11.166c-0.47-0.328-2.539-2.288-2.735-2.433  c-3.035,2.705-9.949,10.247-10.836,11.217c-3.245-0.563-4.296,2.724-3.17,5.147C4.39,96.049,5.03,96.516,5.03,96.516  s0.478,0.631,0.951-0.465C8.423,97.135,11.691,96.028,11.072,92.793z"/>
    <path d="M34.001,84.49c-2.394,1.755-5.687,0.211-8.251-1.625c10.5-0.949-7.25-18.074-7.237-6.542  c-2.748-2.248-6.643-4.494-9.728-2.232c-0.227,0.976-0.038,1.195,0.528,0.731c2.435-1.786,5.771-0.17,8.329,1.694  c-1.454-0.815-2.893-1.247-4.195-0.866C2.094,81,4.843,88.438,6.308,90.064c0.296,0.224,0.545-0.555-0.139-1.459  c-0.885-0.599-2.419-8.074,7.601-11.677c1.633-0.478,3.706,0.505,5.864,2.105c0.196,0.145,2.929,3.03,4.478,3.402  c2.77,2.402,7.086,5.229,10.418,2.786C34.756,84.245,34.567,84.025,34.001,84.49z"/>
    <path d="M26.494,75.013c0.294,0.302,0.572,0.61,0.819,0.926c2.542-2.603,64.442-65.982,65.77-67.574  c1.356-1.625,1.935-3.343,1.935-3.343s-1.707,0.609-3.309,1.993c-1.569,1.355-63.877,64.339-66.432,66.922  c0.321,0.241,0.633,0.514,0.94,0.803l51.359-51.971L26.494,75.013z"/>
</svg>
