<svg xmlns="http://www.w3.org/2000/svg" viewBox="0 0 512 512" x="0px" y="0px">
    <title>Regenerate</title>
    <path
        d="M449.82,383.14a8.28,8.28,0,0,0-11.79,0l-41.85,42.41a4.78,4.78,0,0,0,3.4,8.14h22.1v11.09a4,4,0,0,0,3.95,4h36.59a3.94,3.94,0,0,0,3.94-4V433.69h22.11a4.78,4.78,0,0,0,3.4-8.14Z" />
    <path
        d="M449.82,273.66a8.28,8.28,0,0,0-11.79,0l-41.85,42.41a4.78,4.78,0,0,0,3.4,8.14h22.1V335.3a4,4,0,0,0,3.95,3.95h36.59a3.94,3.94,0,0,0,3.94-3.95V324.21h22.11a4.78,4.78,0,0,0,3.4-8.14Z" />
    <path
        d="M98,305.69a621.49,621.49,0,0,1,97.54,85.76,15.35,15.35,0,0,0,22.72,0,621.29,621.29,0,0,1,97.53-85.76s84.61-58.64,78.74-143.24-80.41-97.17-80.41-97.17-55-13.4-96.46,29.06a15.06,15.06,0,0,1-21.53,0C154.67,51.88,99.65,65.28,99.65,65.28S25.09,77.85,19.23,162.45,98,305.69,98,305.69Z" />
</svg>
