<svg xmlns="http://www.w3.org/2000/svg" viewBox="0 0 512 512">
    <title>Warhammer</title>
    <path
        d="M136.5,357.68a7.62,7.62,0,0,0-10.77,0L33.11,450.3a8.53,8.53,0,0,0,0,12.06l1,1L48.65,477.9l1,1a8.53,8.53,0,0,0,12.06,0l92.62-92.62a7.62,7.62,0,0,0,0-10.77l-1.63-1.63L312.86,213.7a5.49,5.49,0,0,0,.11-7.65q-1.7-1.78-3.46-3.56c-1.18-1.17-2.37-2.33-3.56-3.46a5.49,5.49,0,0,0-7.65.11L138.13,359.31Z" />
    <path
        d="M338.61,54.69c-10.21-8.13-19.11-16.14-24.87-21.52a9.48,9.48,0,0,0-13.44.5L227.93,112a9.5,9.5,0,0,0,.26,13.16l25,25a5.57,5.57,0,0,0,8.09-.22l78-87.07A5.59,5.59,0,0,0,338.61,54.69Z" />
    <path
        d="M361.92,258.83l25,25a9.5,9.5,0,0,0,13.16.26l78.28-72.37a9.48,9.48,0,0,0,.5-13.44c-5.38-5.76-13.39-14.66-21.52-24.87a5.59,5.59,0,0,0-8.1-.69l-87.07,78A5.57,5.57,0,0,0,361.92,258.83Z" />
    <path
        d="M283.08,158.23c19.34,13.94,38.34,32.35,38.34,32.35s18.41,19,32.35,38.34a3,3,0,0,0,4.48.49l68.16-61.59a3,3,0,0,0-.32-4.72c-12.56-8.6-28.87-20.82-42.62-34.57s-26-30.06-34.57-42.62a3,3,0,0,0-4.72-.32l-61.59,68.16A3,3,0,0,0,283.08,158.23Z" />
    <path
        d="M391.77,120.23s5.84,6.23,11,9a2.82,2.82,0,0,0,3.36-.47l4.58-4.57a5.59,5.59,0,0,0,0-7.92l-7.48-7.49-7.49-7.48a5.59,5.59,0,0,0-7.92,0l-4.57,4.58a2.82,2.82,0,0,0-.47,3.36C385.54,114.39,391.77,120.23,391.77,120.23Z" />
</svg>
