<svg xmlns="http://www.w3.org/2000/svg" viewBox="0 0 512 512" x="0px" y="0px">
    <title>Adhesion</title>
    <path
        d="M314.5,195.49h3.85A49.42,49.42,0,0,1,341.21,201a4.8,4.8,0,0,0,7-4.3l-.07-43A17.8,17.8,0,0,0,330.28,136H327.4a17.8,17.8,0,0,0-17.78,17.83l.06,36.89A4.83,4.83,0,0,0,314.5,195.49Z" />
    <path
        d="M256.52,153.87v1.44l.06,35.68a4.62,4.62,0,0,0,4.71,4.58h0l29.15,0a4.59,4.59,0,0,0,4.58-4.59L295,153.81A17.82,17.82,0,0,0,277.18,136h-2.89A17.8,17.8,0,0,0,256.52,153.87Z" />
    <path
        d="M220.32,136.14c-10.33.53-18.26,9.46-18.24,19.81l.12,72.42c0,10.75,8.61,19.84,19.36,19.77a19.07,19.07,0,0,0,9.08-2.35,10,10,0,0,0,5.05-10.41,114.35,114.35,0,0,1-1.5-14.1,24.73,24.73,0,0,1,4.7-15.6,9.66,9.66,0,0,0,1.75-5.68l-.07-44.67A19.28,19.28,0,0,0,220.32,136.14Z" />
    <path
        d="M187.58,229l-.12-73.54a19.24,19.24,0,1,0-38.48.06L149.1,229a19.24,19.24,0,1,0,38.48-.06Z" />
    <path
        d="M179,469.65a11.71,11.71,0,0,0,11.69,11.69l114.58.26A11.71,11.71,0,0,0,317,469.87V402.6a16.09,16.09,0,0,1,7.88-13.87l1.23-.74a53.75,53.75,0,0,0,26.28-46.29l-.16-96.53a36.49,36.49,0,0,0-36.53-36.42l-8.66,0H293.76l-33.74.06a11.24,11.24,0,0,0-11.09,9.52,11,11,0,0,0-.13,2.3,97.81,97.81,0,0,0,1.94,15.74c.44,2,1,4.07,1.59,6.07l0,.08a12,12,0,0,0,10.12,8.38L307,256a8.23,8.23,0,0,1,7.37,7.17,8,8,0,0,1-7.24,8.73c-1.91.17-46.89,4.86-53,65.11a8,8,0,0,1-7.9,7.17,7.81,7.81,0,0,1-.83,0,8,8,0,0,1-7.12-8.73c2.93-29,13.94-47.22,25.36-58.57a6,6,0,0,0-3.52-10.16l-20.86-2.38c-1.14-.13-3-.24-4.16-.24l-37.14.06a45.53,45.53,0,0,0-45.45,45.6l.08,45.85A36.3,36.3,0,0,0,170.88,387h0A16.12,16.12,0,0,1,179,401Z" />
    <path
        d="M29.52,238.92v14.86A4.73,4.73,0,0,0,35,258.44c13.61-2.25,32-4.16,46.9-1.56,0,0-30.41,18.81-49.9,61.67a28.38,28.38,0,0,0-2.51,11.76v62a3.79,3.79,0,0,0,7.2,1.65A184.53,184.53,0,0,1,59,359.86a9.34,9.34,0,0,1,16,2.64c7.87,20.43,4.42,43.09.07,58.68-1.52,5.41,5.54,8.9,9,4.48,27.83-35.61,6.39-85.83,6.39-85.83-7.75-30.1.41-49.31,7.91-59.68a23.16,23.16,0,0,1,18.78-9.59h8a9.31,9.31,0,0,0,9.31-9.31V245.36a7.75,7.75,0,0,0-6.47-7.65c-14.8-2.49-45.12-5.84-93.84-3.5A4.72,4.72,0,0,0,29.52,238.92Z" />
    <path
        d="M81.93,77.65s2.6,34.84,1,65a3.84,3.84,0,0,1-7.41,1.2c-2.36-6.24-4.91-15.33-6.75-28.2,0,0-4.9-19.62-33.81-36.48a3.63,3.63,0,0,0-5.46,3.12V93.71a3.56,3.56,0,0,0,1.41,2.86c9.63,7.25,21.75,19.84,25.27,38.9a38.74,38.74,0,0,0,4.07,11.79c7.52,13.68,28.65,43.39,74.07,53.36v-2.83a16.32,16.32,0,0,0-3.5-10.11l-5-6.4a56.83,56.83,0,0,1-11.46-43.92l11.54-73.44a13.25,13.25,0,0,0-3.4-11.11l-17-18.2a13.29,13.29,0,0,0-9.7-4.21H50.46a7.42,7.42,0,0,0-5.09,12.82Z" />
    <path
        d="M134.34,219.18h0a3.91,3.91,0,0,0-1.91-3.37c-8.91-5.27-27.25-14.65-55.48-22.3a70.81,70.81,0,0,1-32.47-19.16,121.53,121.53,0,0,0-9-8.4,3.65,3.65,0,0,0-6,2.81v35a3.64,3.64,0,0,0,3.9,3.64c21-1.54,63.16-1.93,95.17,15.26A3.92,3.92,0,0,0,134.34,219.18Z" />
    <path
        d="M446.69,208.75c-31.48,20.72-59.48,20.94-59.48,20.94h0a2,2,0,0,0-.27,3.9,112.37,112.37,0,0,0,38.88.25,18.54,18.54,0,0,0,3.85-1.15c20.12-8.41,36.79-8.55,47.58-7.05a4.59,4.59,0,0,0,5.23-4.56V204.2a4.62,4.62,0,0,0-4.77-4.61C467.38,199.88,456.5,202.3,446.69,208.75Z" />
    <path
        d="M459,371.43l-.56-40.22a13.51,13.51,0,0,0-3.15-8.5l-31.11-37.34a5.4,5.4,0,0,1,3.55-8.83c21.47-2.08,38.83,5.33,49.69,12a3.3,3.3,0,0,0,5-2.82V252.08a6,6,0,0,0-4.92-5.91c-17.5-3.15-37.75-4.27-53.56,2.06-19.76,7.9-34.88,6.92-44.34,4.54a5,5,0,0,0-6.23,4.79v14.32a13.1,13.1,0,0,0,4.56,9.95c6.71,5.78,19.56,17.46,29.82,30.38a59.92,59.92,0,0,1,11.51,24.53c3,13.84,7.79,37.49,10,57.91a17.37,17.37,0,0,0,7.83,12.71c9.88,6.4,28,20.07,40.2,40.83a2.77,2.77,0,0,0,5.17-1.38V402.49a9.24,9.24,0,0,0-2.67-6.5A137.91,137.91,0,0,0,465,383.23,14.92,14.92,0,0,1,459,371.43Z" />
    <path
        d="M431.59,186.65c-12.71,2.07-20.77,1.39-20.77,1.39,10.25-9.51,13.91-37.33,13.91-37.33,11.5-25.06,32-37.9,47.76-44.34a16.2,16.2,0,0,0,10-15v-55a5.9,5.9,0,0,0-5.9-5.9h-7.71a19.78,19.78,0,0,0-14,5.81c-9.3,9.3-28.21,27.77-44,40.29a12.6,12.6,0,0,0-4.74,10.85c1.5,19.46,2.94,76-27.73,101.25a13.33,13.33,0,0,0-5,10.28v1a7.37,7.37,0,0,0,6.85,7.34c22.67,1.63,41.36-5.46,54.05-12.62A4.28,4.28,0,0,0,431.59,186.65Z" />
    <circle cx="458.31" cy="180" r="8.59" />
    <circle cx="53.65" cy="461.64" r="11.58" />
</svg>
