<svg xmlns="http://www.w3.org/2000/svg" viewBox="0 0 512 512" x="0px" y="0px">
    <title>Avoid Danger</title>
    <path
        d="M356,122.53a8.48,8.48,0,0,0,4.28,12.36l11.63,4.38a8.53,8.53,0,0,0,10.3-3.59,43.56,43.56,0,0,1,18.67-16.5,13.44,13.44,0,0,0,6.87-15.78l-.23-.73a12.88,12.88,0,0,0-16-8.32C381.28,97.48,366.93,104.91,356,122.53Z" />
    <path
        d="M471.14,117.05c-2.56-3-4.74-5.71-6.54-8.15a21.62,21.62,0,0,1-2.18-22c2.68-5.77,5.73-11.46,8.58-16.44a7.54,7.54,0,0,0-7.79-11.2c-3.56.61-6.93,1-10,1.23A21.62,21.62,0,0,1,430.83,45a85.82,85.82,0,0,1-2-8.56,7.55,7.55,0,0,0-13.71-2.85L398.44,58.64a6.87,6.87,0,0,0,3.35,10.23,42.19,42.19,0,0,1,26,49.22,6.85,6.85,0,0,0,5.33,8.42,217.53,217.53,0,0,0,32.08,3A7.55,7.55,0,0,0,471.14,117.05Z" />
    <path
        d="M255,328.26a13.48,13.48,0,0,0,13.87,4.87,27.62,27.62,0,0,0,13.86-8.5,12.78,12.78,0,0,0,2.68-4.53,23.82,23.82,0,0,0,.63-11.84,13.62,13.62,0,0,0-10.75-10.86c-9.59-1.91-20.05.35-23.78,12A20,20,0,0,0,255,328.26Z" />
    <path
        d="M308,355.1c5.26.08,12.22-1.39,17.27-8.35,7.19-9.9,2.82-19.67-4.39-26.27a13.62,13.62,0,0,0-15.12-2.24,23.87,23.87,0,0,0-9.18,7.51,12.86,12.86,0,0,0-2.06,4.84,27.6,27.6,0,0,0,1.35,16.2A13.5,13.5,0,0,0,308,355.1Z" />
    <path
        d="M278.64,341.11c-4.35.78-11.45,2.79-11.93,7.76-.71,7.2,6.23,9.67,6.23,9.67s6.1,4.13,11.49-.69c3.71-3.33,1.14-10.24-.81-14.21A4.64,4.64,0,0,0,278.64,341.11Z" />
    <path
        d="M237,472.32A155.15,155.15,0,0,0,404.77,221.83a20,20,0,0,1-5.15-13.26l-.3-25.21a13.84,13.84,0,0,0-9.11-12.84l-38.12-13.83L314,142.86a13.84,13.84,0,0,0-15.23,4l-16.42,19.18a20.42,20.42,0,0,1-12.82,6.89A155.15,155.15,0,0,0,237,472.32ZM362,295.18,372.07,293a2.6,2.6,0,0,0,2-3.11v-.06a14.21,14.21,0,1,1,25,5.84,3.89,3.89,0,0,0,0,4.74,11.56,11.56,0,0,1-6.52,18.08,11.56,11.56,0,0,1-14.08-8.77l0-.13a2.54,2.54,0,0,0-3-1.94l-9.45,2.06a3.94,3.94,0,0,1-4.63-2.82q-.88-3.27-2.07-6.45A4,4,0,0,1,362,295.18ZM339.71,431.33a14.15,14.15,0,0,1-14.08-.75,3.89,3.89,0,0,0-4.72.43,11.49,11.49,0,0,1-3.92,2.35,11.7,11.7,0,0,1-14.74-7,11.56,11.56,0,0,1,7.29-14.87l.13,0a2.54,2.54,0,0,0,1.62-3.2l-2.66-8.11a3.94,3.94,0,0,1,2.32-4.9c1.93-.75,4.39-1.71,6.6-2.59a3.93,3.93,0,0,1,5.21,2.43l2.76,8.43a2.62,2.62,0,0,0,3.31,1.66h.06a14.2,14.2,0,0,1,10.82,26.18ZM315.77,269A57.63,57.63,0,0,1,298,378.66l-11.4,15.87a10,10,0,0,1-11.44,4h0a2.59,2.59,0,0,1-1.4-3.61L281,380.54a5.37,5.37,0,0,0-2.84-7.43,5.54,5.54,0,0,0-6.84,2.79l-7.77,15.33a2.32,2.32,0,0,1-3.06,1.06q-3.76-1.8-7.44-3.77a2.33,2.33,0,0,1-1-3.09L260,369.89a5.37,5.37,0,0,0-2.84-7.43,5.52,5.52,0,0,0-6.84,2.78l-7.15,14.12a2.58,2.58,0,0,1-3.73,1h0a10,10,0,0,1-3.58-11.56l6.06-18.58A57.62,57.62,0,0,1,315.77,269Zm-80.34-55.41a14.18,14.18,0,0,1,14.07.75,3.88,3.88,0,0,0,4.72-.43,11.42,11.42,0,0,1,3.91-2.34,11.68,11.68,0,0,1,14.74,7,11.56,11.56,0,0,1-7.28,14.9l-.12,0a2.55,2.55,0,0,0-1.63,3.2l3,9.2a3.92,3.92,0,0,1-2.33,4.88c-2.11.82-4.18,1.72-6.21,2.72a3.94,3.94,0,0,1-5.51-2.28l-3.2-9.77a2.61,2.61,0,0,0-3.31-1.67l-.05,0a14.21,14.21,0,0,1-10.82-26.19Zm-61.5,149.6a14.16,14.16,0,0,1,2.18-13.93,3.89,3.89,0,0,0,.06-4.74,11.55,11.55,0,1,1,20.59-9.31l0,.13a2.53,2.53,0,0,0,3,1.94l8.34-1.81a3.93,3.93,0,0,1,4.64,2.81c.55,2,1.25,4.53,1.91,6.82a4,4,0,0,1-3,4.94l-8.66,1.89a2.61,2.61,0,0,0-2,3.11v.06a14.21,14.21,0,0,1-27.15,8.09Z" />
    <path
        d="M175.34,33.85a14.17,14.17,0,1,0-19.1,20.95,583.34,583.34,0,0,1,72.83,80.79,14.18,14.18,0,0,0,22.71-17A610.41,610.41,0,0,0,175.34,33.85Z" />
    <path
        d="M45.62,85c2.69,1.69,66.34,42,114.58,91.4a14.18,14.18,0,1,0,20.29-19.81C140.12,115.25,86.22,77.06,60.73,61A14.18,14.18,0,0,0,45.62,85Z" />
    <path
        d="M48.44,184.15c14.15,9,41.33,27.11,64.32,46.82a14.18,14.18,0,1,0,18.45-21.53c-24.31-20.84-52.74-39.77-67.52-49.2a14.18,14.18,0,1,0-15.25,23.91Z" />
</svg>
