<svg xmlns="http://www.w3.org/2000/svg" viewBox="0 0 512 512" x="0px" y="0px">
    <title>Cohesion</title>
    <path
        d="M482.35,451.56l-98.77-253.4A11.46,11.46,0,0,0,363,196.49l-24.39,41.2L257.15,49.15a11.46,11.46,0,0,0-21.3.65L141.93,309.62l-53.21-41.5a11.47,11.47,0,0,0-18.22,6.45L29.08,453.4a13.35,13.35,0,0,0,13,16.36H469.91A13.35,13.35,0,0,0,482.35,451.56ZM128.17,362l-7.33,33.64a4.17,4.17,0,0,1-8.14,0L97.05,323.42a4.16,4.16,0,0,1,7-3.85l16.14,15.76A28.75,28.75,0,0,1,128.17,362Zm176.13-65.9-27.09,58.27a5.13,5.13,0,0,1-9.77-1.87L256.79,162a5.12,5.12,0,0,1,9.88-2.17L305.42,258A48.39,48.39,0,0,1,304.3,296.12Z" />
</svg>
