<svg xmlns="http://www.w3.org/2000/svg" xmlns:xlink="http://www.w3.org/1999/xlink" version="1.1" x="0px" y="0px" viewBox="0 0 100 100" enable-background="new 0 0 100 100" xml:space="preserve">
    <title>Dodge</title>
    <g>
        <g>
            <g>
                <circle cx="24.79" cy="34.708" r="4.87"/>
            </g>
            <g>
                <path d="M61.788,63.254l-2.27-0.544l1.047-7.595c0.132-0.955-0.427-1.871-1.336-2.191l-13.918-4.903l-7.87-6.871l4.646-1.381     l7.643,2.847c1.05,0.392,2.218-0.143,2.61-1.193c0.392-1.05-0.144-2.219-1.193-2.61l-8.278-3.084     c-0.413-0.154-0.865-0.169-1.287-0.043l-6.006,1.786c-0.039,0.011-0.077,0.024-0.115,0.038l-18.932,6.884l-8.222-3.14     c-1.048-0.4-2.22,0.125-2.619,1.172c-0.4,1.047,0.125,2.22,1.171,2.62l8.929,3.409c0.233,0.089,0.479,0.133,0.724,0.133     c0.234,0,0.469-0.041,0.693-0.122l7.94-2.887l6.515,7.946l7.235,8.859l-3.034,8.667c-0.342,0.979,0.109,2.06,1.047,2.504     l3.084,1.461c0.28,0.133,0.576,0.196,0.867,0.196c0.76,0,1.488-0.429,1.835-1.161c0.479-1.013,0.047-2.224-0.965-2.703     l-1.435-0.68l2.806-8.017c0.234-0.667,0.104-1.407-0.344-1.954l-4.277-5.238l6.48-3c0.099-0.046,0.19-0.102,0.279-0.16     l11.08,3.902l-1.072,7.775c-0.143,1.033,0.522,2.007,1.537,2.251l4.059,0.974c1.09,0.262,2.185-0.41,2.446-1.5     S62.878,63.516,61.788,63.254z"/>
            </g>
        </g>
        <g>
            <path d="M88.07,46.912h-4.784c-0.439,0-0.797-0.357-0.797-0.797c0-0.44,0.357-0.797,0.797-0.797h4.784    c0.439,0,0.797,0.357,0.797,0.797C88.867,46.555,88.51,46.912,88.07,46.912z M78.503,46.912H73.72    c-0.44,0-0.797-0.357-0.797-0.797c0-0.44,0.356-0.797,0.797-0.797h4.783c0.44,0,0.798,0.357,0.798,0.797    C79.301,46.555,78.943,46.912,78.503,46.912z M68.937,46.912h-4.783c-0.44,0-0.798-0.357-0.798-0.797    c0-0.44,0.357-0.797,0.798-0.797h4.783c0.44,0,0.797,0.357,0.797,0.797C69.733,46.555,69.377,46.912,68.937,46.912z     M59.369,46.912h-4.783c-0.44,0-0.797-0.357-0.797-0.797c0-0.44,0.356-0.797,0.797-0.797h4.783c0.44,0,0.798,0.357,0.798,0.797    C60.167,46.555,59.81,46.912,59.369,46.912z"/>
        </g>
        <g>
            <path d="M93.65,26.383h-4.783c-0.44,0-0.797-0.357-0.797-0.797c0-0.44,0.356-0.797,0.797-0.797h4.783    c0.44,0,0.798,0.357,0.798,0.797C94.448,26.026,94.091,26.383,93.65,26.383z M84.084,26.383h-4.783    c-0.44,0-0.798-0.357-0.798-0.797c0-0.44,0.357-0.797,0.798-0.797h4.783c0.44,0,0.797,0.357,0.797,0.797    C84.881,26.026,84.524,26.383,84.084,26.383z M74.517,26.383h-4.783c-0.44,0-0.797-0.357-0.797-0.797    c0-0.44,0.356-0.797,0.797-0.797h4.783c0.44,0,0.798,0.357,0.798,0.797C75.314,26.026,74.957,26.383,74.517,26.383z M64.95,26.383    h-4.783c-0.44,0-0.798-0.357-0.798-0.797c0-0.44,0.357-0.797,0.798-0.797h4.783c0.44,0,0.797,0.357,0.797,0.797    C65.747,26.026,65.391,26.383,64.95,26.383z M55.384,26.383H50.6c-0.44,0-0.797-0.357-0.797-0.797c0-0.44,0.357-0.797,0.797-0.797    h4.784c0.439,0,0.797,0.357,0.797,0.797C56.181,26.026,55.823,26.383,55.384,26.383z M45.817,26.383h-4.784    c-0.44,0-0.797-0.357-0.797-0.797c0-0.44,0.357-0.797,0.797-0.797h4.784c0.44,0,0.797,0.357,0.797,0.797    C46.614,26.026,46.257,26.383,45.817,26.383z M36.25,26.383h-4.784c-0.44,0-0.797-0.357-0.797-0.797    c0-0.44,0.357-0.797,0.797-0.797h4.784c0.44,0,0.797,0.357,0.797,0.797C37.047,26.026,36.69,26.383,36.25,26.383z M26.683,26.383    h-4.784c-0.44,0-0.797-0.357-0.797-0.797c0-0.44,0.357-0.797,0.797-0.797h4.784c0.44,0,0.797,0.357,0.797,0.797    C27.48,26.026,27.124,26.383,26.683,26.383z"/>
        </g>
    </g>
</svg>
