<svg xmlns="http://www.w3.org/2000/svg" viewBox="0 0 512 512" x="0px" y="0px">
    <title>Gain Advantage</title>
    <path
        d="M467.44,244.36c-36.79-5.36-62.75-28.69-80.88-42.94a193.82,193.82,0,0,1-18.45-16.63C320.1,136,256,136,256,136h0s-64.1,0-112.11,48.83a193.82,193.82,0,0,1-18.45,16.63C107.31,215.67,81.35,239,44.56,244.36a17.49,17.49,0,0,0-15,17.27h0a17.48,17.48,0,0,0,15,17.26c36.79,5.37,62.75,28.7,80.88,42.95a193.82,193.82,0,0,1,18.45,16.63C191.9,387.3,256,387.3,256,387.3h0s64.1,0,112.11-48.83a193.82,193.82,0,0,1,18.45-16.63c18.13-14.25,44.09-37.58,80.88-42.95a17.48,17.48,0,0,0,15-17.26h0A17.49,17.49,0,0,0,467.44,244.36Zm-88.22,27.28a235.19,235.19,0,0,0-37.9,25.87,133.3,133.3,0,0,1-81.8,30.95c-1.16,0-2.34,0-3.52,0s-2.36,0-3.52,0a133.3,133.3,0,0,1-81.8-30.95,235.19,235.19,0,0,0-37.9-25.87,11.39,11.39,0,0,1,0-20,234.52,234.52,0,0,0,37.89-25.87,133.38,133.38,0,0,1,82-30.93c1.08,0,2.16,0,3.25,0s2.17,0,3.25,0a133.38,133.38,0,0,1,82,30.93,234.52,234.52,0,0,0,37.89,25.87A11.39,11.39,0,0,1,379.22,271.64Z" />
    <circle cx="256" cy="261.63" r="40.12" />
    <path
        d="M273.73,37a24.77,24.77,0,0,0-35.59.14A27.84,27.84,0,0,0,231,58.5a88.88,88.88,0,0,0,19.65,49.33,6.87,6.87,0,0,0,10.6,0A88.91,88.91,0,0,0,281,58.43,27.72,27.72,0,0,0,273.73,37Z" />
    <path
        d="M441.94,98.84a24.76,24.76,0,0,0-27.23-22.92,27.77,27.77,0,0,0-19.23,11.7,88.93,88.93,0,0,0-16.94,50.32,6.87,6.87,0,0,0,8.07,6.88,88.91,88.91,0,0,0,47-25A27.72,27.72,0,0,0,441.94,98.84Z" />
    <path
        d="M70.06,98.84A24.77,24.77,0,0,1,97.29,75.92a27.81,27.81,0,0,1,19.24,11.7,88.9,88.9,0,0,1,16.93,50.32,6.87,6.87,0,0,1-8.07,6.88,88.89,88.89,0,0,1-47-25A27.73,27.73,0,0,1,70.06,98.84Z" />
    <path
        d="M273.73,475a24.77,24.77,0,0,1-35.59-.14A27.84,27.84,0,0,1,231,453.5a88.88,88.88,0,0,1,19.65-49.33,6.87,6.87,0,0,1,10.6,0A88.91,88.91,0,0,1,281,453.57,27.72,27.72,0,0,1,273.73,475Z" />
    <path
        d="M441.94,413.16a24.76,24.76,0,0,1-27.23,22.92,27.77,27.77,0,0,1-19.23-11.7,88.93,88.93,0,0,1-16.94-50.32,6.87,6.87,0,0,1,8.07-6.88,88.91,88.91,0,0,1,47,25A27.72,27.72,0,0,1,441.94,413.16Z" />
    <path
        d="M70.06,413.16a24.77,24.77,0,0,0,27.23,22.92,27.81,27.81,0,0,0,19.24-11.7,88.9,88.9,0,0,0,16.93-50.32,6.87,6.87,0,0,0-8.07-6.88,88.89,88.89,0,0,0-47,25A27.73,27.73,0,0,0,70.06,413.16Z" />
</svg>
