<svg xmlns="http://www.w3.org/2000/svg" viewBox="0 0 512 512" x="0px" y="0px">
    <title>Progression</title>
    <path
        d="M473.31,100.15A75.56,75.56,0,0,1,451.83,105s-52.67-5-88.57,45.9a76.38,76.38,0,0,1-19.32,19.26c-10.95,7.46-28.49,19.65-50,35.44a8.64,8.64,0,0,1-13.15-10.14c4.49-11.38,8.36-21.32,11.11-28.43l0-.06a53.06,53.06,0,0,0,3.57-16.54c3.05-58.07,40.13-83.16,41.87-84.3a10.17,10.17,0,0,1,11.2,17c-1.27.86-23.1,16.09-30.5,51a5.59,5.59,0,0,0,8.46,5.87c60.4-38.77,51.21-90.31,45.16-109.26a7.4,7.4,0,0,0-9.95-4.7c-88.53,35.31-94.05,107.68-93.85,127.39a79.93,79.93,0,0,1-1.15,14.9,161.19,161.19,0,0,1-7.15,26.1,200.49,200.49,0,0,1-59.82,85.1c-16.67,14.05-33.58,28.9-50.14,44.3a5.33,5.33,0,0,1-8.92-4.56c1.35-10.53,3.52-23.9,7-39.75.6-2.75,1.45-5.46,2.2-8.18A18.46,18.46,0,0,0,147,255.86c-33.3-47.51-27.56-117.79-27.27-121A10.17,10.17,0,0,1,140,136.61c-.05.65-4.4,54.68,16.5,95.61a8,8,0,0,0,13.92.54c16.22-27.32,48.08-102.7-34.11-180.49A10,10,0,0,0,120,56.12c-4,11.23-11.8,28.52-26.84,52.86C64.61,155.1,70.9,226.52,110.49,273.27c10.81,12.77,14.59,30.28,9.16,46.11-.24.68-.49,1.37-.75,2.06,0,0-2.78,6.72-6.21,16.83a173.45,173.45,0,0,1-32.76,57.25c-17.82,20.71-33.64,41.68-46.24,62.37a18.79,18.79,0,0,0,10.5,27.79l.5.14a18.82,18.82,0,0,0,20.06-6.68c11.78-15.37,38.63-47.82,74.87-86.65a172.16,172.16,0,0,1,70-45.65,194.08,194.08,0,0,1,38.2-9.24c9.25-1.15,18.54,2,26.87,6.17,24.53,12.3,96.22,37.81,150.75-48.41a9.31,9.31,0,0,0-10-14.07c-10.19,2.46-23.38,2.89-39.29-2.3,0,0-46-23.08-90.78,2a6.44,6.44,0,0,0,1.93,11.94,325.18,325.18,0,0,0,71.35,5.68,10.18,10.18,0,0,1,10.47,11.11A10.42,10.42,0,0,1,358.88,319c-3.63.12-7.22.17-10.73.17A339.89,339.89,0,0,1,263,308.34a39.63,39.63,0,0,0-19.68-.16c-5.88,1.46-13.39,3.38-20.11,5.4a1.69,1.69,0,0,1-1.65-2.85c42.92-39.62,90.74-78.69,138.92-108.6A76.72,76.72,0,0,1,386.44,192c25.2-4.86,82.55-22.72,94.53-85.31A5.75,5.75,0,0,0,473.31,100.15Z" />
</svg>
