<svg xmlns="http://www.w3.org/2000/svg" viewBox="0 0 512 512" x="0px" y="0px">
    <title>Shove</title>
    <path
        d="M191.67,315.63h-3.84A49.54,49.54,0,0,1,165,310.11a4.79,4.79,0,0,0-7,4.3l.07,43a17.79,17.79,0,0,0,17.83,17.77h2.88a17.8,17.8,0,0,0,17.77-17.83l-.06-36.89A4.81,4.81,0,0,0,191.67,315.63Z" />
    <path
        d="M249.66,357.25V355.8l-.06-35.68a4.62,4.62,0,0,0-4.71-4.57h0l-29.15.05a4.59,4.59,0,0,0-4.58,4.59l.06,37.12A17.8,17.8,0,0,0,229,375.08h2.89A17.8,17.8,0,0,0,249.66,357.25Z" />
    <path
        d="M285.85,375c10.34-.53,18.26-9.46,18.25-19.81L304,282.75c0-10.76-8.61-19.84-19.36-19.78a19.07,19.07,0,0,0-9.08,2.35,10,10,0,0,0-5.06,10.42,110.6,110.6,0,0,1,1.5,14.1,24.74,24.74,0,0,1-4.69,15.6,9.57,9.57,0,0,0-1.75,5.68l.07,44.67A19.27,19.27,0,0,0,285.85,375Z" />
    <path
        d="M318.59,282.17l.12,73.54a19.25,19.25,0,0,0,38.49-.06l-.12-73.55a19.25,19.25,0,0,0-38.49.07Z" />
    <path
        d="M327.18,41.47a11.72,11.72,0,0,0-11.69-11.7l-114.57-.25a11.7,11.7,0,0,0-11.74,11.73v67.26a16.12,16.12,0,0,1-7.88,13.88l-1.23.73a53.77,53.77,0,0,0-26.28,46.29L154,266a36.26,36.26,0,0,0,1.33,9.72,36.49,36.49,0,0,0,7,13.37,36.39,36.39,0,0,0,28.24,13.32h21.94l33.74-.06a11.06,11.06,0,0,0,4.74-1.07,11.27,11.27,0,0,0,6.35-8.45,11,11,0,0,0,.13-2.3,96.78,96.78,0,0,0-1.95-15.74c-.43-2-1-4.07-1.58-6.07l0-.08a12,12,0,0,0-10.12-8.38l-44.56-5.1a8.23,8.23,0,0,1-7.38-7.16,8,8,0,0,1,7.25-8.74c1.91-.17,46.89-4.85,53-65.11a8,8,0,0,1,7.91-7.16,7.5,7.5,0,0,1,.82,0,8,8,0,0,1,7.13,8.73c-2.93,29-14,47.22-25.36,58.56A6,6,0,0,0,246,244.4l20.86,2.39c1.14.13,3,.24,4.16.24l37.14-.06a45.53,45.53,0,0,0,45.45-45.6l-.08-45.86a36.28,36.28,0,0,0-18.25-31.43h0a16.12,16.12,0,0,1-8.11-14Z" />
    <path
        d="M49.82,198.43c-.64-8.09-12.51-8-13.06,0-4.25,63.08-8.44,143.92-7.12,204,0,0-.59,75.91,95.81,80h61.87c10.18,0,13.61-13.7,4.57-18.39-32.06-16.62-67.77-47.86-79.51-106.13-2-9.81-15.66-10.65-18.87-1.17l-.27.8a9,9,0,0,1-16.94.28C68,335.1,57,289.24,49.82,198.43Z" />
    <rect x="35.99" y="84.44" width="18.51" height="50.9" rx="9.25" />
    <ellipse cx="95.46" cy="297.51" rx="11.69" ry="18.04"
        transform="matrix(0.99, -0.11, 0.11, 0.99, -31.09, 11.84)" />
    <path
        d="M462.18,198.43c.64-8.09,12.51-8,13.06,0,4.25,63.08,8.44,143.92,7.12,204,0,0,.59,75.91-95.81,80H324.68c-10.18,0-13.61-13.7-4.57-18.39,32.06-16.62,67.77-47.86,79.51-106.13,2-9.81,15.66-10.65,18.87-1.17l.27.8a9,9,0,0,0,16.94.28C444,335.1,455.05,289.24,462.18,198.43Z" />
    <rect x="457.5" y="104.84" width="18.51" height="50.9" rx="9.25"
        transform="translate(933.51 260.57) rotate(180)" />
    <ellipse cx="419.23" cy="272.35" rx="18.04" ry="11.69"
        transform="translate(103.85 660.25) rotate(-83.9)" />
</svg>
