<svg xmlns="http://www.w3.org/2000/svg" viewBox="0 0 512 512" x="0px" y="0px">
    <title>Tension</title>
    <path
        d="M416.53,264.9H178a120.49,120.49,0,1,1,0-241h.72A119.92,119.92,0,0,1,262.18,57.5L269,64a37.94,37.94,0,0,1-52.55,54.75l-6.79-6.51a44.39,44.39,0,0,0-30.88-12.43H178a44.6,44.6,0,0,0,0,89.2H416.53a37.95,37.95,0,0,1,0,75.89Z" />
    <path
        d="M248.64,488.07A89.71,89.71,0,0,1,159,398.46a98.94,98.94,0,0,1,98.8-98.89h167.8a28.84,28.84,0,1,1,0,57.68H257.83a41.18,41.18,0,0,0-41.13,41.13,32,32,0,0,0,31.94,32A16.65,16.65,0,0,0,264.93,417l.07-.32a28.83,28.83,0,0,1,56.51,11.5l0,.22A74.44,74.44,0,0,1,248.64,488.07Z" />
</svg>
