<svg xmlns="http://www.w3.org/2000/svg" viewBox="0 0 512 512" x="0px" y="0px">
    <title>Transformation</title>
    <path
        d="M476.76,239.16H431.07a175.75,175.75,0,0,0-93-139.21,6.88,6.88,0,0,0-9.4,3.15l-.07.14a33.35,33.35,0,0,0,10.33,41.06,139.89,139.89,0,0,1,54.84,94.86H365.27a90.55,90.55,0,0,1-90.55-90.55V37.74c0-10.3-8.06-19.15-18.37-19.33a18.71,18.71,0,0,0-19.07,18.71V80.66A176,176,0,0,0,97.93,178.38a6.88,6.88,0,0,0,3.44,9.31l.22.1a33.22,33.22,0,0,0,40.59-11.66,138.93,138.93,0,0,1,95.1-58.08v30.56a90.55,90.55,0,0,1-90.55,90.55H35.24a16.35,16.35,0,0,0-16.35,16.35h0a16.36,16.36,0,0,0,16.35,16.36h45.7a176.55,176.55,0,0,0,95.21,140.35,6.88,6.88,0,0,0,9.37-3.28h0a33.15,33.15,0,0,0-10.47-40.74,139.48,139.48,0,0,1-56.81-96.33h28.49a90.55,90.55,0,0,1,90.55,90.55V473.28c0,10.31,8.06,19.15,18.37,19.34a18.72,18.72,0,0,0,19.07-18.72V430.37A175.08,175.08,0,0,0,409.3,341.73a6.89,6.89,0,0,0-2.89-9.49l-.34-.17a33,33,0,0,0-41,9.31A138,138,0,0,1,274.72,393V362.42a90.55,90.55,0,0,1,90.55-90.55H476.76a16.36,16.36,0,0,0,16.35-16.36h0A16.35,16.35,0,0,0,476.76,239.16Z" />
    <path
        d="M62.17,490.94c.64,3.56,6.48,3.53,7.31,0,4.47-19,11.07-41.89,41.05-52.92,2.81-1,3.08-5.85.21-6.73-15-4.58-34.76-13.21-41.23-50.51-.64-3.67-6.53-3.63-7.37,0-7,30.19-24.25,44.41-41.24,50.51-2.81,1-2.61,5.74.21,6.73C48.05,447.53,58.71,471.91,62.17,490.94Z" />
    <path
        d="M449.85,22.29c-.64-3.67-6.53-3.62-7.37,0-7,30.19-24.24,44.41-41.24,50.52-2.81,1-2.61,5.73.22,6.73,26.93,9.5,37.6,33.88,41.05,52.91.64,3.57,6.48,3.53,7.31,0,4.47-19,11.07-41.88,41.05-52.91,2.81-1,3.08-5.85.21-6.73C476.12,68.22,456.32,59.59,449.85,22.29Z" />
</svg>
