<svg xmlns="http://www.w3.org/2000/svg" viewBox="0 0 512 512" x="0px" y="0px">
    <title>Poleaxe</title>
    <path
        d="M311.42,257a4.56,4.56,0,0,0,3.76,7.76,176.81,176.81,0,0,1,24.2-1.07,37.68,37.68,0,0,0,27.68-11L431.49,189c29.42-29.12,47.81-67.68,50.43-108.78.95-14.84-.12-30.43-4.63-45.64a7.12,7.12,0,0,0-11.81-3L78.05,414.94l-3.52-3.49a14.09,14.09,0,0,0-19.77,0,13.74,13.74,0,0,0,0,19.57l27,26.73a14.08,14.08,0,0,0,19.78,0,13.73,13.73,0,0,0,0-19.56L100.32,437,349.47,190.26a10.34,10.34,0,1,1,14.39,14.85Z" />
    <path
        d="M66.49,476.25l2.15-2.12a5,5,0,0,0,0-7.14L45.42,444a5.14,5.14,0,0,0-7.21,0l-2.15,2.12a21.14,21.14,0,0,0,0,30.11h0A21.69,21.69,0,0,0,66.49,476.25Z" />
</svg>
