<svg xmlns="http://www.w3.org/2000/svg" xmlns:xlink="http://www.w3.org/1999/xlink" version="1.1"
    x="0px" y="0px" viewBox="0 0 100 125" style="enable-background:new 0 0 100 100;"
    xml:space="preserve"><path d="M94.71,5.29c-0.31-0.3-0.77-0.37-1.15-0.19l-13.42,6.56c-0.23,0.11-0.41,0.3-0.5,0.54l-1.58,4.22  c-0.81-0.03-1.63,0.26-2.24,0.87c-0.54,0.54-0.84,1.25-0.88,2c-0.73,0.03-1.44,0.32-2,0.87c-0.54,0.53-0.84,1.24-0.87,1.99  c-0.73,0.04-1.45,0.32-2.01,0.87c-0.57,0.57-0.89,1.33-0.89,2.14c0,0.48,0.13,0.94,0.34,1.36L19.26,76.51  c-1.11-0.48-2.46-0.28-3.36,0.62c-0.58,0.58-0.89,1.34-0.89,2.15c0,0.42,0.09,0.83,0.25,1.2l-6.42,6.39  c-0.96,0.06-1.91,0.44-2.64,1.17C5.43,88.81,5,89.83,5,90.92s0.43,2.12,1.2,2.89C7,94.6,8.05,95,9.09,95c1.05,0,2.1-0.4,2.9-1.19  c0.77-0.77,1.2-1.8,1.2-2.89c0-0.03-0.01-0.07-0.01-0.11l6.23-6.2c0.39,0.17,0.8,0.26,1.22,0.26c0.77,0,1.55-0.29,2.14-0.88  c0.58-0.57,0.89-1.33,0.89-2.14c0-0.43-0.09-0.83-0.25-1.21l50.33-50.08c0.24,0.09,0.49,0.14,0.74,0.17l-0.05,0.57  c-0.13,1.41-0.63,2.78-1.43,3.95c-1.09,1.59-2.47,2.91-4.1,3.94l-1.06,0.68c-0.34,0.21-0.52,0.62-0.45,1.01  c0.07,0.4,0.37,0.72,0.77,0.81l7.1,1.57c0.07,0.02,0.15,0.02,0.22,0.02c0.39,0,0.76-0.23,0.92-0.6l1.18-2.76  c0.61-1.41,1.09-2.89,1.44-4.43c0.17-0.8,0.3-1.6,0.41-2.4c0.32,0.83,0.53,1.7,0.57,2.59c0.11,1.92-0.18,3.8-0.85,5.61l-0.43,1.17  c-0.14,0.38-0.04,0.81,0.26,1.08c0.19,0.18,0.43,0.27,0.68,0.27c0.14,0,0.28-0.03,0.41-0.09l6.61-3.04c0.44-0.2,0.67-0.69,0.55-1.15  l-0.73-2.91c-0.38-1.49-0.9-2.95-1.57-4.39c-0.57-1.24-1.25-2.42-2-3.55C82.97,28.46,83,28.23,83,28c0-1.27-0.61-2.39-1.53-3.12  c0.44-0.15,0.87-0.38,1.22-0.73c0.58-0.57,0.89-1.33,0.89-2.14l4.28-1.63c0.24-0.09,0.44-0.27,0.55-0.5L94.9,6.44  C95.09,6.05,95.01,5.59,94.71,5.29z M74.35,21.57c0.2-0.2,0.47-0.3,0.74-0.3c0.26,0,0.53,0.1,0.73,0.3l2.51,2.5  c-0.75,0.13-1.42,0.46-1.97,0.95l-2.01-2c-0.19-0.19-0.3-0.45-0.3-0.72C74.05,22.02,74.16,21.77,74.35,21.57z M10.58,92.39  c-0.82,0.81-2.15,0.81-2.97,0C7.22,92,7,91.48,7,90.92c0-0.55,0.22-1.07,0.61-1.47c0.41-0.4,0.95-0.61,1.48-0.61  c0.54,0,1.08,0.21,1.49,0.61c0.39,0.4,0.61,0.92,0.61,1.47C11.19,91.48,10.97,92,10.58,92.39z M12.5,88.66  c-0.15-0.22-0.32-0.43-0.51-0.62c-0.26-0.26-0.55-0.46-0.85-0.63l5.39-5.36l1.31,1.3L12.5,88.66z M21.36,82.57  c-0.4,0.4-1.06,0.4-1.47,0L17.31,80c-0.2-0.2-0.3-0.45-0.3-0.72c0-0.28,0.1-0.53,0.3-0.73c0.4-0.4,1.06-0.4,1.46,0l2.59,2.58  c0.2,0.19,0.3,0.45,0.3,0.72S21.56,82.38,21.36,82.57z M22.14,79.08l-1.32-1.31l49.73-49.46l1.31,1.3L22.14,79.08z M74.06,28.46  l-2.59-2.58c-0.19-0.19-0.3-0.45-0.3-0.72c0-0.27,0.11-0.53,0.3-0.72c0.41-0.4,1.07-0.41,1.47,0l2.29,2.27  C75.09,27.12,75,27.55,75,28c0,0.24,0.03,0.47,0.07,0.7C74.72,28.8,74.33,28.73,74.06,28.46z M77.06,35.1  c-0.31,1.37-0.75,2.73-1.31,4.03l-0.86,2l-3.99-0.88c1.46-1.07,2.72-2.37,3.75-3.87c0.99-1.45,1.61-3.14,1.77-4.89l0.04-0.43  c0.33,0.28,0.7,0.51,1.11,0.66C77.48,32.85,77.31,33.97,77.06,35.1z M79,30c-1.1,0-2-0.9-2-2c0-1.1,0.9-2,2-2s2,0.9,2,2  C81,29.1,80.1,30,79,30z M81.88,30.77c0.45,0.75,0.88,1.53,1.26,2.34c0.59,1.29,1.07,2.63,1.42,4l0.53,2.1l-3.71,1.71  c0.51-1.74,0.72-3.53,0.62-5.34c-0.07-1.43-0.46-2.81-1.09-4.08C81.26,31.3,81.6,31.06,81.88,30.77z M81.28,22.73  c-0.4,0.4-1.06,0.4-1.46,0l-2.59-2.57c-0.19-0.2-0.3-0.45-0.3-0.73c0-0.27,0.11-0.53,0.3-0.72c0.4-0.4,1.06-0.4,1.47,0l2.58,2.57  c0.2,0.2,0.3,0.45,0.3,0.73C81.58,22.28,81.48,22.54,81.28,22.73z M86.78,18.65l-3.87,1.48c-0.07-0.09-0.13-0.18-0.22-0.26  l-2.58-2.58c-0.06-0.05-0.13-0.1-0.19-0.15l1.46-3.86l10.46-5.11L86.78,18.65z"/><text x="0" y="115" fill="#000000" font-size="5px" font-weight="bold" font-family="'Helvetica Neue', Helvetica, Arial-Unicode, Arial, Sans-serif">Created by Olifernes Tejeros</text><text x="0" y="120" fill="#000000" font-size="5px" font-weight="bold" font-family="'Helvetica Neue', Helvetica, Arial-Unicode, Arial, Sans-serif">from the Noun Project</text></svg>
