<svg xmlns="http://www.w3.org/2000/svg" xmlns:xlink="http://www.w3.org/1999/xlink" version="1.1"
    x="0px" y="0px" viewBox="0 0 100 125" style="enable-background:new 0 0 100 100;"
    xml:space="preserve"><path d="M13.003,94.784c-0.03,0.028-0.168,0.138-0.258,0.177c0.066-0.057-0.157,0.045-0.44,0.038  c-0.593,0.023-1.583-0.37-2.593-1.043c-0.494-0.351-1.029-0.744-1.554-1.221c-0.517-0.485-1.066-1.019-1.535-1.612  C6.142,90.528,5.696,89.86,5.38,89.14c-0.343-0.675-0.48-1.598-0.303-1.958c0.043-0.088,0.046-0.121,0.172-0.203  c0.017-0.027,0.096-0.011,0.148-0.031c0.274-0.013,0.683,0.133,1.035,0.312c0.72,0.361,1.378,0.905,2.003,1.421  c1.229,1.073,2.352,2.158,3.163,3.168c0.826,0.994,1.354,1.996,1.435,2.574C13.05,94.635,13.034,94.742,13.003,94.784z   M14.188,88.637l-3.746-3.746l-1.796,2.055c0.26,0.241,0.516,0.482,0.753,0.72c1.176,1.19,2.273,2.297,3.21,3.242  c0.154,0.157,0.287,0.302,0.425,0.454l10.663-9.502l-5.559-5.547l-1.88,2.029l4.1,4.088c0.197,0.197,0.153,0.562-0.103,0.815  c-0.242,0.251-0.614,0.295-0.807,0.096l-4.051-4.047l-1.615,1.853l3.119,3.114c0.197,0.2,0.153,0.562-0.094,0.81  c-0.255,0.255-0.615,0.298-0.819,0.102L12.911,82.1l-1.62,1.859l3.8,3.781c0.188,0.197,0.144,0.558-0.106,0.804  C14.744,88.788,14.389,88.829,14.188,88.637z M26.113,79.677l-2.932-2.842l-2.931-2.851l-1.303,1.423l5.654,5.648L26.113,79.677z   M39.783,83.745l-0.226,0.224c-1.091,1.092-2.862,1.091-3.95-0.001L16.034,64.426c-1.093-1.088-1.093-2.851,0-3.942l0.225-0.224  c1.093-1.092,2.862-1.091,3.952,0l6.298,6.283c0.621-0.588,1.287-1.222,2.026-1.936c1.209-1.165,3.572-3.469,5.067-4.911  c1.482-1.446,8.03-7.944,9.728-9.603c1.691-1.672,4.459-4.419,6.303-6.237c1.823-1.843,3.706-3.748,5.621-5.681  c1.934-1.91,3.895-3.853,5.859-5.792c1.974-1.929,3.92-3.891,5.892-5.758c1.996-1.837,3.966-3.643,5.869-5.394  c0.958-0.87,1.877-1.756,2.826-2.561c0.94-0.806,1.871-1.592,2.774-2.352c1.818-1.515,3.479-3.031,5.146-4.239  c0.817-0.621,1.604-1.21,2.348-1.78c0.745-0.569,1.448-1.125,2.156-1.561c0.693-0.452,1.341-0.882,1.94-1.276  c0.302-0.192,0.591-0.39,0.863-0.568c0.284-0.17,0.56-0.305,0.817-0.444c1.032-0.564,1.851-1.004,2.427-1.182  C94.6,5.085,94.882,5.016,95,5c-0.024,0.121-0.084,0.399-0.268,0.828C94.555,6.403,94.114,7.22,93.55,8.25  c-0.146,0.256-0.277,0.53-0.446,0.818c-0.179,0.271-0.372,0.562-0.566,0.856c-0.398,0.603-0.826,1.254-1.281,1.947  c-0.436,0.701-0.991,1.401-1.559,2.149c-0.57,0.744-1.166,1.521-1.79,2.344c-1.202,1.666-2.725,3.326-4.239,5.138  c-0.766,0.901-1.55,1.832-2.356,2.771c-0.807,0.95-1.694,1.867-2.561,2.823c-1.754,1.902-3.562,3.866-5.403,5.86  c-1.873,1.968-3.838,3.911-5.77,5.885c-1.94,1.962-3.882,3.921-5.8,5.851c-1.936,1.911-3.843,3.791-5.686,5.615  c-1.824,1.837-4.573,4.602-6.246,6.29c-1.66,1.698-8.169,8.243-9.619,9.719c-1.44,1.494-3.747,3.851-4.915,5.057  c-0.718,0.743-1.352,1.403-1.939,2.023l6.409,6.401C40.873,80.89,40.875,82.652,39.783,83.745z M29.825,69.856l0.229,0.231  c0.184-0.176,0.379-0.359,0.595-0.574c1.916-1.875,10.079-9.981,12.476-12.319c2.382-2.361,8.875-8.825,11.415-11.34  c2.518-2.537,16.893-16.909,19.25-19.288c2.354-2.393,4.544-4.627,6.416-6.545c3.742-3.838,6.199-6.433,6.199-6.433  s-2.6,2.45-6.449,6.189c-1.918,1.867-4.153,4.056-6.553,6.403c-2.382,2.355-16.771,16.711-19.312,19.225  c-2.521,2.538-8.991,9.021-11.352,11.397c-2.347,2.396-10.461,10.547-12.342,12.459C30.184,69.482,30,69.675,29.825,69.856z   M30.584,81.252c0.408-0.404,0.407-1.06,0-1.463l-10.362-10.35c-0.405-0.4-1.059-0.401-1.462,0l0,0  c-0.402,0.408-0.402,1.057-0.001,1.465l10.366,10.348C29.524,81.657,30.181,81.657,30.584,81.252L30.584,81.252z"/><text x="0" y="115" fill="#000000" font-size="5px" font-weight="bold" font-family="'Helvetica Neue', Helvetica, Arial-Unicode, Arial, Sans-serif">Created by Christian Mohr</text><text x="0" y="120" fill="#000000" font-size="5px" font-weight="bold" font-family="'Helvetica Neue', Helvetica, Arial-Unicode, Arial, Sans-serif">from the Noun Project</text></svg>
