<svg xmlns="http://www.w3.org/2000/svg" viewBox="0 0 512 362" x="0px" y="0px">
    <title>effect Smooth circle</title>
    <path
        d="M426.68,291.67a4,4,0,0,0,.39,7.48,24.44,24.44,0,0,0,15.49-.15c33.59-11.58,51.37-21.44,51.37-40.61,0-23.66-25.72-42.4-76.42-55.69-43.33-11.35-97.26-15.32-158.08-15.32-6.24,0-21-1-31.63.91a10.15,10.15,0,0,0,1.86,20.13c9.79,0,24.27.52,31.61.52,58.35,0,106.36,6.26,147.3,17,15,3.94,25.31,8.58,32.32,13,13.64,8.58,16.36,27.64,5.41,39.47C442,283.05,435.73,287.73,426.68,291.67Z" />
    <circle cx="386.04" cy="304.17" r="12.46" />
    <path
        d="M250.71,323.59c34.54-1.58,68.93-4.34,98.45-9.64,3.6-.65,5.18-5.18,2.87-8.17a16.58,16.58,0,0,0-14.1-6.54c-148.69,9.07-214.56-18.58-239.54-34.53-10.85-6.93-11.83-23.16-2-31.68a59.81,59.81,0,0,1,18.4-10.6c3.53-1,7-2,10.45-3,12-3.35,22.76-6.2,28.76-7.78a8.45,8.45,0,0,0,6-6c1.44-5.48-2.54-10.8-7.86-10.67-60.83,1.53-134,16.72-134,59.45,0,25.05,25.72,44.88,76.42,58.94C137.82,325.46,190,326.38,250.71,323.59Z" />
</svg>
